<?xml version="1.0" encoding="UTF-8" standalone="no"?>
<!-- Created with Inkscape (http://www.inkscape.org/) -->

<svg
   xmlns:dc="http://purl.org/dc/elements/1.1/"
   xmlns:cc="http://creativecommons.org/ns#"
   xmlns:rdf="http://www.w3.org/1999/02/22-rdf-syntax-ns#"
   xmlns:svg="http://www.w3.org/2000/svg"
   xmlns="http://www.w3.org/2000/svg"
   xmlns:sodipodi="http://sodipodi.sourceforge.net/DTD/sodipodi-0.dtd"
   xmlns:inkscape="http://www.inkscape.org/namespaces/inkscape"
   id="svg2"
   version="1.1"
   inkscape:version="0.48.4 r9939"
   width="699.31921"
   height="584.54193"
   xml:space="preserve"
   sodipodi:docname="cooccurrence_03.pdf"><metadata
     id="metadata8"><rdf:RDF><cc:Work
         rdf:about=""><dc:format>image/svg+xml</dc:format><dc:type
           rdf:resource="http://purl.org/dc/dcmitype/StillImage" /><dc:title></dc:title></cc:Work></rdf:RDF></metadata><defs
     id="defs6" /><sodipodi:namedview
     pagecolor="#ffffff"
     bordercolor="#666666"
     borderopacity="1"
     objecttolerance="10"
     gridtolerance="10"
     guidetolerance="10"
     inkscape:pageopacity="0"
     inkscape:pageshadow="2"
     inkscape:window-width="1257"
     inkscape:window-height="766"
     id="namedview4"
     showgrid="false"
     fit-margin-top="0"
     fit-margin-left="0"
     fit-margin-right="0"
     fit-margin-bottom="0"
     inkscape:zoom="0.921875"
     inkscape:cx="363.31127"
     inkscape:cy="290.96796"
     inkscape:window-x="0"
     inkscape:window-y="0"
     inkscape:window-maximized="0"
     inkscape:current-layer="g10" /><g
     id="g10"
     inkscape:groupmode="layer"
     inkscape:label="cooccurrence_03"
     transform="matrix(1.25,0,0,-1.25,-45.426026,596.57397)"><g
       transform="matrix(1,0,0,-1,0,484.79999)"
       id="g14"><path
         inkscape:connector-curvature="0"
         id="path16"
         style="fill:none;stroke:#000000;stroke-width:0.40000001;stroke-linecap:butt;stroke-linejoin:miter;stroke-miterlimit:4;stroke-opacity:1;stroke-dasharray:none"
         d="m 84,431.441 10,0 m 490.961,0 -10,0" /></g><text
       id="text18"
       transform="scale(1,-1)"
       x="70.680313"
       y="-49.759987"><tspan
         id="tspan20"
         y="-49.759987"
         x="70.680313"
         style="font-size:12px;font-variant:normal;font-weight:normal;writing-mode:lr-tb;fill:#000000;fill-opacity:1;fill-rule:nonzero;stroke:none;font-family:Arial Black;-inkscape-font-specification:Arial">0</tspan></text>
<g
       transform="matrix(1,0,0,-1,0,484.79999)"
       id="g22"
       style="stroke-width:1.60000002;stroke-miterlimit:4;stroke-dasharray:none"><path
         inkscape:connector-curvature="0"
         id="path24"
         style="fill:none;stroke:#000000;stroke-width:1.60000002;stroke-linecap:butt;stroke-linejoin:miter;stroke-miterlimit:4;stroke-opacity:1;stroke-dasharray:none"
         d="m 84,352.398 10,0 m 490.961,0 -10,0" /></g><text
       id="text26"
       transform="scale(1,-1)"
       x="60.672501"
       y="-128.79999"><tspan
         id="tspan28"
         sodipodi:role="line"
         y="-128.79999"
         x="60.672501 67.344498 70.668503"
         style="font-size:12px;font-variant:normal;font-weight:normal;writing-mode:lr-tb;fill:#000000;fill-opacity:1;fill-rule:nonzero;stroke:none;font-family:Arial Black;-inkscape-font-specification:Arial">0.2</tspan></text>
<g
       transform="matrix(1,0,0,-1,0,484.79999)"
       id="g30"
       style="stroke-width:1.60000002;stroke-miterlimit:4;stroke-dasharray:none"><path
         inkscape:connector-curvature="0"
         id="path32"
         style="fill:none;stroke:#000000;stroke-width:1.60000002;stroke-linecap:butt;stroke-linejoin:miter;stroke-miterlimit:4;stroke-opacity:1;stroke-dasharray:none"
         d="m 84,273.441 10,0 m 490.961,0 -10,0" /></g><text
       id="text34"
       transform="scale(1,-1)"
       x="60.672501"
       y="-207.75999"><tspan
         id="tspan36"
         sodipodi:role="line"
         y="-207.75999"
         x="60.672501 67.344498 70.668503"
         style="font-size:12px;font-variant:normal;font-weight:normal;writing-mode:lr-tb;fill:#000000;fill-opacity:1;fill-rule:nonzero;stroke:none;font-family:Arial Black;-inkscape-font-specification:Arial">0.4</tspan></text>
<g
       transform="matrix(1,0,0,-1,0,484.79999)"
       id="g38"
       style="stroke-width:1.60000002;stroke-miterlimit:4;stroke-dasharray:none"><path
         inkscape:connector-curvature="0"
         id="path40"
         style="fill:none;stroke:#000000;stroke-width:1.60000002;stroke-linecap:butt;stroke-linejoin:miter;stroke-miterlimit:4;stroke-opacity:1;stroke-dasharray:none"
         d="m 84,194.398 10,0 m 490.961,0 -10,0" /></g><text
       id="text42"
       transform="scale(1,-1)"
       x="60.672501"
       y="-286.79999"><tspan
         id="tspan44"
         sodipodi:role="line"
         y="-286.79999"
         x="60.672501 67.344498 70.668503"
         style="font-size:12px;font-variant:normal;font-weight:normal;writing-mode:lr-tb;fill:#000000;fill-opacity:1;fill-rule:nonzero;stroke:none;font-family:Arial Black;-inkscape-font-specification:Arial">0.6</tspan></text>
<g
       transform="matrix(1,0,0,-1,0,484.79999)"
       id="g46"
       style="stroke-width:1.60000002;stroke-miterlimit:4;stroke-dasharray:none"><path
         inkscape:connector-curvature="0"
         id="path48"
         style="fill:none;stroke:#000000;stroke-width:1.60000002;stroke-linecap:butt;stroke-linejoin:miter;stroke-miterlimit:4;stroke-opacity:1;stroke-dasharray:none"
         d="m 84,115.441 10,0 m 490.961,0 -10,0" /></g><text
       id="text50"
       transform="scale(1,-1)"
       x="60.672501"
       y="-365.75998"><tspan
         id="tspan52"
         sodipodi:role="line"
         y="-365.75998"
         x="60.672501 67.344498 70.668503"
         style="font-size:12px;font-variant:normal;font-weight:normal;writing-mode:lr-tb;fill:#000000;fill-opacity:1;fill-rule:nonzero;stroke:none;font-family:Arial Black;-inkscape-font-specification:Arial">0.8</tspan></text>
<g
       transform="matrix(1,0,0,-1,0,484.79999)"
       id="g54"><path
         inkscape:connector-curvature="0"
         id="path56"
         style="fill:none;stroke:#000000;stroke-width:0.40000001;stroke-linecap:butt;stroke-linejoin:miter;stroke-miterlimit:4;stroke-opacity:1;stroke-dasharray:none"
         d="m 84,36.398 10,0 m 490.961,0 -10,0" /></g><text
       id="text58"
       transform="scale(1,-1)"
       x="70.680313"
       y="-444.79999"><tspan
         id="tspan60"
         y="-444.79999"
         x="70.680313"
         style="font-size:12px;font-variant:normal;font-weight:normal;writing-mode:lr-tb;fill:#000000;fill-opacity:1;fill-rule:nonzero;stroke:none;font-family:Arial Black;-inkscape-font-specification:Arial">1</tspan></text>
<g
       transform="matrix(1,0,0,-1,0,484.79999)"
       id="g62"><path
         inkscape:connector-curvature="0"
         id="path64"
         style="fill:none;stroke:#000000;stroke-width:0.40000001;stroke-linecap:butt;stroke-linejoin:miter;stroke-miterlimit:4;stroke-opacity:1;stroke-dasharray:none"
         d="m 84,431.441 0,-10 m 0,-385.043 0,10" /></g><text
       id="text66"
       transform="scale(1,-1)"
       x="80.660156"
       y="-35.359989"><tspan
         id="tspan68"
         y="-35.359989"
         x="80.660156"
         style="font-size:12px;font-variant:normal;font-weight:normal;writing-mode:lr-tb;fill:#000000;fill-opacity:1;fill-rule:nonzero;stroke:none;font-family:Arial Black;-inkscape-font-specification:Arial">0</tspan></text>
<g
       transform="matrix(1,0,0,-1,0,484.79999)"
       id="g70"
       style="stroke-width:1.60000002;stroke-miterlimit:4;stroke-dasharray:none"><path
         inkscape:connector-curvature="0"
         id="path72"
         style="fill:none;stroke:#000000;stroke-width:1.60000002;stroke-linecap:butt;stroke-linejoin:miter;stroke-miterlimit:4;stroke-opacity:1;stroke-dasharray:none"
         d="m 146.641,431.441 0,-10 m 0,-385.043 0,10" /></g><text
       id="text74"
       transform="scale(1,-1)"
       x="139.96031"
       y="-35.359989"><tspan
         id="tspan76"
         sodipodi:role="line"
         y="-35.359989"
         x="139.96031 146.63231"
         style="font-size:12px;font-variant:normal;font-weight:normal;writing-mode:lr-tb;fill:#000000;fill-opacity:1;fill-rule:nonzero;stroke:none;font-family:Arial Black;-inkscape-font-specification:Arial">50</tspan></text>
<g
       transform="matrix(1,0,0,-1,0,484.79999)"
       id="g78"
       style="stroke-width:1.60000002;stroke-miterlimit:4;stroke-dasharray:none"><path
         inkscape:connector-curvature="0"
         id="path80"
         style="fill:none;stroke:#000000;stroke-width:1.60000002;stroke-linecap:butt;stroke-linejoin:miter;stroke-miterlimit:4;stroke-opacity:1;stroke-dasharray:none"
         d="m 209.281,431.441 0,-10 m 0,-385.043 0,10" /></g><text
       id="text82"
       transform="scale(1,-1)"
       x="199.26047"
       y="-35.359989"><tspan
         id="tspan84"
         sodipodi:role="line"
         y="-35.359989"
         x="199.26047 205.93246 212.60448"
         style="font-size:12px;font-variant:normal;font-weight:normal;writing-mode:lr-tb;fill:#000000;fill-opacity:1;fill-rule:nonzero;stroke:none;font-family:Arial Black;-inkscape-font-specification:Arial">100</tspan></text>
<g
       transform="matrix(1,0,0,-1,0,484.79999)"
       id="g86"
       style="stroke-width:1.60000002;stroke-miterlimit:4;stroke-dasharray:none"><path
         inkscape:connector-curvature="0"
         id="path88"
         style="fill:none;stroke:#000000;stroke-width:1.60000002;stroke-linecap:butt;stroke-linejoin:miter;stroke-miterlimit:4;stroke-opacity:1;stroke-dasharray:none"
         d="m 271.84,431.441 0,-10 m 0,-385.043 0,10" /></g><text
       id="text90"
       transform="scale(1,-1)"
       x="261.82047"
       y="-35.359989"><tspan
         id="tspan92"
         sodipodi:role="line"
         y="-35.359989"
         x="261.82047 268.49246 275.16446"
         style="font-size:12px;font-variant:normal;font-weight:normal;writing-mode:lr-tb;fill:#000000;fill-opacity:1;fill-rule:nonzero;stroke:none;font-family:Arial Black;-inkscape-font-specification:Arial">150</tspan></text>
<g
       transform="matrix(1,0,0,-1,0,484.79999)"
       id="g94"
       style="stroke-width:1.60000002;stroke-miterlimit:4;stroke-dasharray:none"><path
         inkscape:connector-curvature="0"
         id="path96"
         style="fill:none;stroke:#000000;stroke-width:1.60000002;stroke-linecap:butt;stroke-linejoin:miter;stroke-miterlimit:4;stroke-opacity:1;stroke-dasharray:none"
         d="m 334.48,431.441 0,-10 m 0,-385.043 0,10" /></g><text
       id="text98"
       transform="scale(1,-1)"
       x="324.46048"
       y="-35.359989"><tspan
         id="tspan100"
         sodipodi:role="line"
         y="-35.359989"
         x="324.46048 331.13248 337.80447"
         style="font-size:12px;font-variant:normal;font-weight:normal;writing-mode:lr-tb;fill:#000000;fill-opacity:1;fill-rule:nonzero;stroke:none;font-family:Arial Black;-inkscape-font-specification:Arial">200</tspan></text>
<g
       transform="matrix(1,0,0,-1,0,484.79999)"
       id="g102"
       style="stroke-width:1.60000002;stroke-miterlimit:4;stroke-dasharray:none"><path
         inkscape:connector-curvature="0"
         id="path104"
         style="fill:none;stroke:#000000;stroke-width:1.60000002;stroke-linecap:butt;stroke-linejoin:miter;stroke-miterlimit:4;stroke-opacity:1;stroke-dasharray:none"
         d="m 397.121,431.441 0,-10 m 0,-385.043 0,10" /></g><text
       id="text106"
       transform="scale(1,-1)"
       x="387.10046"
       y="-35.359989"><tspan
         id="tspan108"
         sodipodi:role="line"
         y="-35.359989"
         x="387.10046 393.77246 400.44446"
         style="font-size:12px;font-variant:normal;font-weight:normal;writing-mode:lr-tb;fill:#000000;fill-opacity:1;fill-rule:nonzero;stroke:none;font-family:Arial Black;-inkscape-font-specification:Arial">250</tspan></text>
<g
       transform="matrix(1,0,0,-1,0,484.79999)"
       id="g110"
       style="stroke-width:1.60000002;stroke-miterlimit:4;stroke-dasharray:none"><path
         inkscape:connector-curvature="0"
         id="path112"
         style="fill:none;stroke:#000000;stroke-width:1.60000002;stroke-linecap:butt;stroke-linejoin:miter;stroke-miterlimit:4;stroke-opacity:1;stroke-dasharray:none"
         d="m 459.762,431.441 0,-10 m 0,-385.043 0,10" /></g><text
       id="text114"
       transform="scale(1,-1)"
       x="449.74048"
       y="-35.359989"><tspan
         id="tspan116"
         sodipodi:role="line"
         y="-35.359989"
         x="449.74048 456.41248 463.08447"
         style="font-size:12px;font-variant:normal;font-weight:normal;writing-mode:lr-tb;fill:#000000;fill-opacity:1;fill-rule:nonzero;stroke:none;font-family:Arial Black;-inkscape-font-specification:Arial">300</tspan></text>
<g
       transform="matrix(1,0,0,-1,0,484.79999)"
       id="g118"
       style="stroke-width:1.60000002;stroke-miterlimit:4;stroke-dasharray:none"><path
         inkscape:connector-curvature="0"
         id="path120"
         style="fill:none;stroke:#000000;stroke-width:1.60000002;stroke-linecap:butt;stroke-linejoin:miter;stroke-miterlimit:4;stroke-opacity:1;stroke-dasharray:none"
         d="m 522.32,431.441 0,-10 m 0,-385.043 0,10" /></g><text
       id="text122"
       transform="scale(1,-1)"
       x="512.30048"
       y="-35.359989"><tspan
         id="tspan124"
         sodipodi:role="line"
         y="-35.359989"
         x="512.30048 518.97247 525.64447"
         style="font-size:12px;font-variant:normal;font-weight:normal;writing-mode:lr-tb;fill:#000000;fill-opacity:1;fill-rule:nonzero;stroke:none;font-family:Arial Black;-inkscape-font-specification:Arial">350</tspan></text>
<g
       transform="matrix(1,0,0,-1,0,484.79999)"
       id="g126"><path
         inkscape:connector-curvature="0"
         id="path128"
         style="fill:none;stroke:#000000;stroke-width:0.40000001;stroke-linecap:butt;stroke-linejoin:miter;stroke-miterlimit:4;stroke-opacity:1;stroke-dasharray:none"
         d="m 584.961,431.441 0,-10 m 0,-385.043 0,10" /></g><text
       id="text130"
       transform="scale(1,-1)"
       x="574.94049"
       y="-35.359989"><tspan
         id="tspan132"
         sodipodi:role="line"
         y="-35.359989"
         x="574.94049 581.61249 588.28448"
         style="font-size:12px;font-variant:normal;font-weight:normal;writing-mode:lr-tb;fill:#000000;fill-opacity:1;fill-rule:nonzero;stroke:none;font-family:Arial Black;-inkscape-font-specification:Arial">400</tspan></text>
<g
       transform="matrix(1,0,0,-1,0,484.79999)"
       id="g134"
       style="stroke-width:1.60000002;stroke-miterlimit:4;stroke-dasharray:none"><path
         inkscape:connector-curvature="0"
         id="path136"
         style="fill:none;stroke:#000000;stroke-width:1.60000002;stroke-linecap:butt;stroke-linejoin:miter;stroke-miterlimit:4;stroke-opacity:1;stroke-dasharray:none"
         d="m 84,36.398 0,395.043 500.961,0 0,-395.043 -500.961,0 z" /></g><text
       id="text138"
       transform="matrix(0,1,1,0,0,0)"
       x="204.34718"
       y="48.193165"
       style="font-size:15.60000038px;font-style:normal;font-variant:normal;font-weight:normal;font-stretch:normal;text-align:start;line-height:125%;writing-mode:lr-tb;text-anchor:start;font-family:Sans;-inkscape-font-specification:Sans"
       sodipodi:linespacing="125%"><tspan
         sodipodi:role="line"
         id="tspan3248"
         x="204.34718"
         y="48.193165">frequency</tspan></text>
<text
       id="text142"
       transform="scale(1,-1)"
       x="225.82388"
       y="-12.870535"
       style="font-size:15.60000038px;font-style:normal;font-variant:normal;font-weight:normal;font-stretch:normal;text-align:start;line-height:125%;writing-mode:lr-tb;text-anchor:start;font-family:Sans;-inkscape-font-specification:Sans"
       sodipodi:linespacing="125%"><tspan
         sodipodi:role="line"
         id="tspan3246"
         x="225.82388"
         y="-12.870535">co-occurrent segments</tspan></text>
<text
       id="text146"
       transform="scale(1,-1)"
       x="114.22065"
       y="-465.40683"
       style="font-size:15.60000038px;font-style:normal;font-variant:normal;font-weight:normal;font-stretch:normal;text-align:start;line-height:125%;writing-mode:lr-tb;text-anchor:start;font-family:Sans;-inkscape-font-specification:Sans"
       sodipodi:linespacing="125%"><tspan
         sodipodi:role="line"
         id="tspan3244"
         x="114.22065"
         y="-465.40683">cooccurrence for n, n. of cooccurring segments:556</tspan></text>
<g
       transform="matrix(1,0,0,-1,0,484.79999)"
       id="g150"
       style="stroke-width:1.60000002;stroke-miterlimit:4;stroke-dasharray:none"><path
         inkscape:connector-curvature="0"
         id="path152"
         style="fill:none;stroke:#000000;stroke-width:1.60000002;stroke-linecap:butt;stroke-linejoin:miter;stroke-miterlimit:4;stroke-opacity:1;stroke-dasharray:none"
         d="m 85.281,40.32 1.199,37.121 1.282,2 1.277,5.84 1.199,2 1.282,27.36 1.281,0 1.199,1.918 1.281,0 1.278,21.519 1.203,5.922 1.277,33.199 1.281,21.52 1.2,0 1.281,9.761 1.199,13.68 1.281,19.602 1.278,19.519 1.203,11.758 1.277,1.922 1.281,9.84 1.2,7.758 1.281,2 1.277,0 1.203,5.839 1.278,2 1.281,1.922 1.199,3.918 1.281,5.84 1.282,25.442 1.199,0 1.277,13.679 1.281,0 1.2,3.922 1.281,2 1.281,0 1.199,0 1.282,1.918 1.277,1.922 1.199,2 1.281,1.918 1.282,2 1.199,0 1.281,3.922 1.199,0 1.282,0 1.277,1.918 1.199,2 1.281,1.922 1.282,0 1.199,1.918 1.281,2 1.277,1.921 1.204,0 1.277,2 1.281,1.918 1.199,0 1.282,0 1.281,0 1.199,2 1.277,1.922 1.282,0 1.199,2 1.281,0 1.281,1.918 1.2,0 1.281,0 1.277,0 1.199,1.922 1.282,0 1.281,0 1.199,2 1.281,0 1.2,1.918 1.281,2 1.277,0 1.199,0 1.282,1.922 1.281,0 1.199,0 1.281,0 1.278,0 1.203,0 1.277,2 1.281,0 1.2,0 1.281,0 1.277,0 1.203,0 1.278,1.922 1.281,0 1.199,0 1.281,0 1.282,0 1.199,2 1.277,1.918 1.282,0 1.199,0 1.281,1.922 1.281,0 1.199,0 1.282,0 1.199,0 1.277,0 1.282,0 1.199,0 1.281,0 1.281,0 1.199,2 1.282,0 1.277,0 1.199,0 1.282,0 1.281,0 1.199,0 1.281,0 1.278,0 1.203,0 1.277,0 1.281,0 1.2,0 1.281,0 1.277,0 1.203,0 1.278,1.918 1.281,0 1.199,0 1.281,0 1.2,0 1.281,0 1.277,0 1.203,0 1.278,0 1.281,0 1.199,0 1.281,0 1.282,2 1.199,0 1.277,0 1.281,0 1.2,0 1.281,0 1.281,0 1.199,0 1.282,0 1.277,0 1.199,0 1.281,1.922 1.282,0 1.199,0 1.281,0 1.277,0 1.204,0 1.277,0 1.281,0 1.199,0 1.282,0 1.199,0 1.281,0 1.277,0 1.204,0 1.277,0 1.281,0 1.199,0 1.282,0 1.281,0 1.199,0 1.277,0 1.282,0 1.199,0 1.281,0 1.281,0 1.2,0 1.281,0 1.277,0 1.199,2 1.282,0 1.281,0 1.199,0 1.281,0 1.278,0 1.203,0 1.277,0 1.281,0 1.2,0 1.281,0 1.199,0 1.281,0 1.278,0 1.203,0 1.277,0 1.281,0 1.2,0 1.281,0 1.277,0 1.203,0 1.278,0 1.281,0 1.199,0 1.281,0 1.282,0 1.199,0 1.277,0 1.282,0 1.199,0 1.281,0 1.281,0 1.199,1.918 1.282,0 1.277,0 1.199,0 1.282,0 1.281,0 1.199,0 1.281,0 1.199,0 1.282,0 1.277,0 1.199,0 1.282,0 1.281,0 1.199,0 1.281,0 1.278,0 1.203,0 1.277,0 1.281,0 1.2,0 1.281,0 1.277,0 1.203,0 1.278,0 1.281,0 1.199,0 1.281,0 1.282,0 1.199,0 1.277,0 1.281,0 1.2,0 1.281,0 1.281,0 1.199,0 1.282,0 1.199,0 1.277,0 1.281,0 1.2,0 1.281,0 1.281,0 1.199,0 1.282,0 1.277,0 1.199,0 1.281,0 1.282,0 1.199,0 1.281,0 1.277,0 1.204,0 1.277,0 1.281,0 1.199,0 1.282,0 1.281,0 1.199,0 1.277,0 1.282,0 1.199,0 1.281,0 1.281,0 1.2,2 1.281,0 1.199,0 1.277,0 1.282,0 1.199,0 1.281,0 1.281,0 1.2,0 1.281,0 1.277,0 1.199,0 1.282,0 1.281,0 1.199,0 1.281,0 1.278,0 1.203,0 1.277,0 1.281,0 1.2,0 1.281,0 1.277,0 1.203,0 1.278,0 1.281,0 1.199,0 1.281,0 1.282,0 1.199,0 1.277,0 1.203,0 1.278,0 1.281,0 1.199,0 1.281,0 1.282,0 1.199,0 1.277,0 1.282,0 1.199,0 1.281,0 1.281,0 1.199,0 1.282,0 1.277,0 1.199,0 1.282,0 1.281,0 1.199,0 1.281,0 1.278,0 1.203,0 1.277,0 1.281,0 1.2,0 1.281,0 1.199,0 1.281,0 1.278,0 1.203,0 1.277,0 1.281,0 1.2,0 1.281,0 1.277,0 1.203,0 1.278,0 1.281,0 1.199,0 1.281,0 1.282,0 1.199,0 1.277,0 1.281,0 1.2,0 1.281,0 1.281,0 1.199,0 1.282,0 1.277,0 1.199,0 1.281,0 1.282,0 1.199,0 1.281,0 1.199,0 1.282,0 1.277,0 1.199,0 1.281,0 1.282,0 1.199,0 1.281,0 1.277,0 1.204,0 1.277,0 1.281,0 1.199,0 1.282,0 1.281,0 1.199,0 1.277,0 1.282,0 1.199,0 1.281,0 1.281,0 1.2,0 1.281,0 1.277,0 1.199,0 1.282,0 1.281,0 1.199,0 1.281,0 1.2,0 1.281,0 1.277,0 1.199,0 1.282,0 1.281,0 1.199,0 1.281,0 1.278,0 1.203,0 1.277,0 1.281,0 1.2,0 1.281,0" /></g><g
       id="g4044"
       transform="translate(-14.752542,-37.315254)"><g
         style="stroke-width:1.60000002;stroke-miterlimit:4;stroke-dasharray:none"
         id="g154"
         transform="matrix(1,0,0,-1,-8,511.99999)"><path
           d="m 522.32,273.441 50.078,0"
           style="fill:none;stroke:#000000;stroke-width:1.60000002;stroke-linecap:butt;stroke-linejoin:miter;stroke-miterlimit:4;stroke-opacity:1;stroke-dasharray:none"
           id="path156"
           inkscape:connector-curvature="0" /></g><text
         sodipodi:linespacing="125%"
         style="font-size:15.60000038px;font-style:normal;font-variant:normal;font-weight:normal;font-stretch:normal;text-align:start;line-height:125%;writing-mode:lr-tb;text-anchor:start;font-family:Sans;-inkscape-font-specification:Sans"
         y="-450.72952"
         x="515.52606"
         transform="scale(1,-1)"
         id="text158"><tspan
           y="-450.72952"
           x="515.52606"
           id="tspan3250"
           sodipodi:role="line">top 10</tspan><tspan
           y="-431.22952"
           x="515.52606"
           id="tspan3252"
           sodipodi:role="line">m : 200</tspan><tspan
           y="-411.72952"
           x="515.52606"
           id="tspan3254"
           sodipodi:role="line">a : 181</tspan><tspan
           y="-392.22952"
           x="515.52606"
           id="tspan3256"
           sodipodi:role="line">j : 180</tspan><tspan
           y="-372.72952"
           x="515.52606"
           id="tspan3258"
           sodipodi:role="line">i : 177</tspan><tspan
           y="-353.22952"
           x="515.52606"
           id="tspan3260"
           sodipodi:role="line">k : 176</tspan><tspan
           y="-333.72952"
           x="515.52606"
           id="tspan3262"
           sodipodi:role="line">p : 162</tspan><tspan
           y="-314.22952"
           x="515.52606"
           id="tspan3264"
           sodipodi:role="line">u : 162</tspan><tspan
           y="-294.72952"
           x="515.52606"
           id="tspan3266"
           sodipodi:role="line">t : 161</tspan><tspan
           y="-275.22952"
           x="515.52606"
           id="tspan3268"
           sodipodi:role="line">w : 161</tspan><tspan
           y="-255.72952"
           x="515.52606"
           id="tspan3270"
           sodipodi:role="line">l : 150</tspan><tspan
           y="-236.22952"
           x="515.52606"
           id="tspan3272"
           sodipodi:role="line"></tspan><tspan
           y="-216.72952"
           x="515.52606"
           id="tspan3274"
           sodipodi:role="line">202</tspan></text>
</g></g></svg>