<?xml version="1.0" encoding="UTF-8" standalone="no"?>
<!-- Created with Inkscape (http://www.inkscape.org/) -->

<svg
   xmlns:dc="http://purl.org/dc/elements/1.1/"
   xmlns:cc="http://creativecommons.org/ns#"
   xmlns:rdf="http://www.w3.org/1999/02/22-rdf-syntax-ns#"
   xmlns:svg="http://www.w3.org/2000/svg"
   xmlns="http://www.w3.org/2000/svg"
   xmlns:sodipodi="http://sodipodi.sourceforge.net/DTD/sodipodi-0.dtd"
   xmlns:inkscape="http://www.inkscape.org/namespaces/inkscape"
   id="svg2"
   version="1.1"
   inkscape:version="0.48.4 r9939"
   width="706.93713"
   height="584.03296"
   xml:space="preserve"
   sodipodi:docname="cooccurrence_01.svg"><metadata
     id="metadata8"><rdf:RDF><cc:Work
         rdf:about=""><dc:format>image/svg+xml</dc:format><dc:type
           rdf:resource="http://purl.org/dc/dcmitype/StillImage" /><dc:title></dc:title></cc:Work></rdf:RDF></metadata><defs
     id="defs6" /><sodipodi:namedview
     pagecolor="#ffffff"
     bordercolor="#666666"
     borderopacity="1"
     objecttolerance="10"
     gridtolerance="10"
     guidetolerance="10"
     inkscape:pageopacity="0"
     inkscape:pageshadow="2"
     inkscape:window-width="1350"
     inkscape:window-height="768"
     id="namedview4"
     showgrid="false"
     showguides="true"
     inkscape:guide-bbox="true"
     fit-margin-top="0"
     fit-margin-left="0"
     fit-margin-right="0"
     fit-margin-bottom="0"
     inkscape:zoom="0.92491749"
     inkscape:cx="323.98652"
     inkscape:cy="294.35497"
     inkscape:window-x="12"
     inkscape:window-y="19"
     inkscape:window-maximized="0"
     inkscape:current-layer="g10"><sodipodi:guide
       orientation="0,1"
       position="456.29002,622.76264"
       id="guide4078" /></sodipodi:namedview><g
     id="g10"
     inkscape:groupmode="layer"
     inkscape:label="cooccurrence_01"
     transform="matrix(1.25,0,0,-1.25,-37.808112,592.67797)"><g
       transform="matrix(1,0,0,-1,0,484.79999)"
       id="g14"><path
         inkscape:connector-curvature="0"
         id="path16"
         style="fill:none;stroke:#000000;stroke-width:0.40000001;stroke-linecap:butt;stroke-linejoin:miter;stroke-miterlimit:4;stroke-opacity:1;stroke-dasharray:none"
         d="m 84,431.441 10,0 m 490.961,0 -10,0" /></g><text
       id="text18"
       transform="scale(1,-1)"
       x="70.680313"
       y="-49.759987"><tspan
         id="tspan20"
         y="-49.759987"
         x="70.680313"
         style="font-size:12px;font-variant:normal;font-weight:normal;writing-mode:lr-tb;fill:#000000;fill-opacity:1;fill-rule:nonzero;stroke:none;font-family:Arial Black;-inkscape-font-specification:Arial">0</tspan></text>
<g
       transform="matrix(1,0,0,-1,0,484.79999)"
       id="g22"
       style="stroke-width:1.60000002;stroke-miterlimit:4;stroke-dasharray:none"><path
         inkscape:connector-curvature="0"
         id="path24"
         style="fill:none;stroke:#000000;stroke-width:1.60000002;stroke-linecap:butt;stroke-linejoin:miter;stroke-miterlimit:4;stroke-opacity:1;stroke-dasharray:none"
         d="m 84,352.398 10,0 m 490.961,0 -10,0" /></g><text
       id="text26"
       transform="scale(1,-1)"
       x="60.672501"
       y="-128.79999"><tspan
         id="tspan28"
         sodipodi:role="line"
         y="-128.79999"
         x="60.672501 67.344498 70.668503"
         style="font-size:12px;font-variant:normal;font-weight:normal;writing-mode:lr-tb;fill:#000000;fill-opacity:1;fill-rule:nonzero;stroke:none;font-family:Arial Black;-inkscape-font-specification:Arial">0.2</tspan></text>
<g
       transform="matrix(1,0,0,-1,0,484.79999)"
       id="g30"
       style="stroke-width:1.60000002;stroke-miterlimit:4;stroke-dasharray:none"><path
         inkscape:connector-curvature="0"
         id="path32"
         style="fill:none;stroke:#000000;stroke-width:1.60000002;stroke-linecap:butt;stroke-linejoin:miter;stroke-miterlimit:4;stroke-opacity:1;stroke-dasharray:none"
         d="m 84,273.441 10,0 m 490.961,0 -10,0" /></g><text
       id="text34"
       transform="scale(1,-1)"
       x="60.672501"
       y="-207.75999"><tspan
         id="tspan36"
         sodipodi:role="line"
         y="-207.75999"
         x="60.672501 67.344498 70.668503"
         style="font-size:12px;font-variant:normal;font-weight:normal;writing-mode:lr-tb;fill:#000000;fill-opacity:1;fill-rule:nonzero;stroke:none;font-family:Arial Black;-inkscape-font-specification:Arial">0.4</tspan></text>
<g
       transform="matrix(1,0,0,-1,0,484.79999)"
       id="g38"
       style="stroke-width:1.60000002;stroke-miterlimit:4;stroke-dasharray:none"><path
         inkscape:connector-curvature="0"
         id="path40"
         style="fill:none;stroke:#000000;stroke-width:1.60000002;stroke-linecap:butt;stroke-linejoin:miter;stroke-miterlimit:4;stroke-opacity:1;stroke-dasharray:none"
         d="m 84,194.398 10,0 m 490.961,0 -10,0" /></g><text
       id="text42"
       transform="scale(1,-1)"
       x="60.672501"
       y="-286.79999"><tspan
         id="tspan44"
         sodipodi:role="line"
         y="-286.79999"
         x="60.672501 67.344498 70.668503"
         style="font-size:12px;font-variant:normal;font-weight:normal;writing-mode:lr-tb;fill:#000000;fill-opacity:1;fill-rule:nonzero;stroke:none;font-family:Arial Black;-inkscape-font-specification:Arial">0.6</tspan></text>
<g
       transform="matrix(1,0,0,-1,0,484.79999)"
       id="g46"
       style="stroke-width:1.60000002;stroke-miterlimit:4;stroke-dasharray:none"><path
         inkscape:connector-curvature="0"
         id="path48"
         style="fill:none;stroke:#000000;stroke-width:1.60000002;stroke-linecap:butt;stroke-linejoin:miter;stroke-miterlimit:4;stroke-opacity:1;stroke-dasharray:none"
         d="m 84,115.441 10,0 m 490.961,0 -10,0" /></g><text
       id="text50"
       transform="scale(1,-1)"
       x="60.672501"
       y="-365.75998"><tspan
         id="tspan52"
         sodipodi:role="line"
         y="-365.75998"
         x="60.672501 67.344498 70.668503"
         style="font-size:12px;font-variant:normal;font-weight:normal;writing-mode:lr-tb;fill:#000000;fill-opacity:1;fill-rule:nonzero;stroke:none;font-family:Arial Black;-inkscape-font-specification:Arial">0.8</tspan></text>
<g
       transform="matrix(1,0,0,-1,0,484.79999)"
       id="g54"><path
         inkscape:connector-curvature="0"
         id="path56"
         style="fill:none;stroke:#000000;stroke-width:0.40000001;stroke-linecap:butt;stroke-linejoin:miter;stroke-miterlimit:4;stroke-opacity:1;stroke-dasharray:none"
         d="m 84,36.398 10,0 m 490.961,0 -10,0" /></g><text
       id="text58"
       transform="scale(1,-1)"
       x="70.680313"
       y="-444.79999"><tspan
         id="tspan60"
         y="-444.79999"
         x="70.680313"
         style="font-size:12px;font-variant:normal;font-weight:normal;writing-mode:lr-tb;fill:#000000;fill-opacity:1;fill-rule:nonzero;stroke:none;font-family:Arial Black;-inkscape-font-specification:Arial">1</tspan></text>
<g
       transform="matrix(1,0,0,-1,0,484.79999)"
       id="g62"><path
         inkscape:connector-curvature="0"
         id="path64"
         style="fill:none;stroke:#000000;stroke-width:0.40000001;stroke-linecap:butt;stroke-linejoin:miter;stroke-miterlimit:4;stroke-opacity:1;stroke-dasharray:none"
         d="m 84,431.441 0,-10 m 0,-385.043 0,10" /></g><text
       id="text66"
       transform="scale(1,-1)"
       x="80.660156"
       y="-35.359989"><tspan
         id="tspan68"
         y="-35.359989"
         x="80.660156"
         style="font-size:12px;font-variant:normal;font-weight:normal;writing-mode:lr-tb;fill:#000000;fill-opacity:1;fill-rule:nonzero;stroke:none;font-family:Arial Black;-inkscape-font-specification:Arial">0</tspan></text>
<g
       transform="matrix(1,0,0,-1,0,484.79999)"
       id="g70"
       style="stroke-width:1.60000002;stroke-miterlimit:4;stroke-dasharray:none"><path
         inkscape:connector-curvature="0"
         id="path72"
         style="fill:none;stroke:#000000;stroke-width:1.60000002;stroke-linecap:butt;stroke-linejoin:miter;stroke-miterlimit:4;stroke-opacity:1;stroke-dasharray:none"
         d="m 146.641,431.441 0,-10 m 0,-385.043 0,10" /></g><text
       id="text74"
       transform="scale(1,-1)"
       x="139.96031"
       y="-35.359989"><tspan
         id="tspan76"
         sodipodi:role="line"
         y="-35.359989"
         x="139.96031 146.63231"
         style="font-size:12px;font-variant:normal;font-weight:normal;writing-mode:lr-tb;fill:#000000;fill-opacity:1;fill-rule:nonzero;stroke:none;font-family:Arial Black;-inkscape-font-specification:Arial">50</tspan></text>
<g
       transform="matrix(1,0,0,-1,0,484.79999)"
       id="g78"
       style="stroke-width:1.60000002;stroke-miterlimit:4;stroke-dasharray:none"><path
         inkscape:connector-curvature="0"
         id="path80"
         style="fill:none;stroke:#000000;stroke-width:1.60000002;stroke-linecap:butt;stroke-linejoin:miter;stroke-miterlimit:4;stroke-opacity:1;stroke-dasharray:none"
         d="m 209.281,431.441 0,-10 m 0,-385.043 0,10" /></g><text
       id="text82"
       transform="scale(1,-1)"
       x="199.26047"
       y="-35.359989"><tspan
         id="tspan84"
         sodipodi:role="line"
         y="-35.359989"
         x="199.26047 205.93246 212.60448"
         style="font-size:12px;font-variant:normal;font-weight:normal;writing-mode:lr-tb;fill:#000000;fill-opacity:1;fill-rule:nonzero;stroke:none;font-family:Arial Black;-inkscape-font-specification:Arial">100</tspan></text>
<g
       transform="matrix(1,0,0,-1,0,484.79999)"
       id="g86"
       style="stroke-width:1.60000002;stroke-miterlimit:4;stroke-dasharray:none"><path
         inkscape:connector-curvature="0"
         id="path88"
         style="fill:none;stroke:#000000;stroke-width:1.60000002;stroke-linecap:butt;stroke-linejoin:miter;stroke-miterlimit:4;stroke-opacity:1;stroke-dasharray:none"
         d="m 271.84,431.441 0,-10 m 0,-385.043 0,10" /></g><text
       id="text90"
       transform="scale(1,-1)"
       x="261.82047"
       y="-35.359989"><tspan
         id="tspan92"
         sodipodi:role="line"
         y="-35.359989"
         x="261.82047 268.49246 275.16446"
         style="font-size:12px;font-variant:normal;font-weight:normal;writing-mode:lr-tb;fill:#000000;fill-opacity:1;fill-rule:nonzero;stroke:none;font-family:Arial Black;-inkscape-font-specification:Arial">150</tspan></text>
<g
       transform="matrix(1,0,0,-1,0,484.79999)"
       id="g94"
       style="stroke-width:1.60000002;stroke-miterlimit:4;stroke-dasharray:none"><path
         inkscape:connector-curvature="0"
         id="path96"
         style="fill:none;stroke:#000000;stroke-width:1.60000002;stroke-linecap:butt;stroke-linejoin:miter;stroke-miterlimit:4;stroke-opacity:1;stroke-dasharray:none"
         d="m 334.48,431.441 0,-10 m 0,-385.043 0,10" /></g><text
       id="text98"
       transform="scale(1,-1)"
       x="324.46048"
       y="-35.359989"><tspan
         id="tspan100"
         sodipodi:role="line"
         y="-35.359989"
         x="324.46048 331.13248 337.80447"
         style="font-size:12px;font-variant:normal;font-weight:normal;writing-mode:lr-tb;fill:#000000;fill-opacity:1;fill-rule:nonzero;stroke:none;font-family:Arial Black;-inkscape-font-specification:Arial">200</tspan></text>
<g
       transform="matrix(1,0,0,-1,0,484.79999)"
       id="g102"
       style="stroke-width:1.60000002;stroke-miterlimit:4;stroke-dasharray:none"><path
         inkscape:connector-curvature="0"
         id="path104"
         style="fill:none;stroke:#000000;stroke-width:1.60000002;stroke-linecap:butt;stroke-linejoin:miter;stroke-miterlimit:4;stroke-opacity:1;stroke-dasharray:none"
         d="m 397.121,431.441 0,-10 m 0,-385.043 0,10" /></g><text
       id="text106"
       transform="scale(1,-1)"
       x="387.10046"
       y="-35.359989"><tspan
         id="tspan108"
         sodipodi:role="line"
         y="-35.359989"
         x="387.10046 393.77246 400.44446"
         style="font-size:12px;font-variant:normal;font-weight:normal;writing-mode:lr-tb;fill:#000000;fill-opacity:1;fill-rule:nonzero;stroke:none;font-family:Arial Black;-inkscape-font-specification:Arial">250</tspan></text>
<g
       transform="matrix(1,0,0,-1,0,484.79999)"
       id="g110"
       style="stroke-width:1.60000002;stroke-miterlimit:4;stroke-dasharray:none"><path
         inkscape:connector-curvature="0"
         id="path112"
         style="fill:none;stroke:#000000;stroke-width:1.60000002;stroke-linecap:butt;stroke-linejoin:miter;stroke-miterlimit:4;stroke-opacity:1;stroke-dasharray:none"
         d="m 459.762,431.441 0,-10 m 0,-385.043 0,10" /></g><text
       id="text114"
       transform="scale(1,-1)"
       x="449.74048"
       y="-35.359989"><tspan
         id="tspan116"
         sodipodi:role="line"
         y="-35.359989"
         x="449.74048 456.41248 463.08447"
         style="font-size:12px;font-variant:normal;font-weight:normal;writing-mode:lr-tb;fill:#000000;fill-opacity:1;fill-rule:nonzero;stroke:none;font-family:Arial Black;-inkscape-font-specification:Arial">300</tspan></text>
<g
       transform="matrix(1,0,0,-1,0,484.79999)"
       id="g118"
       style="stroke-width:1.60000002;stroke-miterlimit:4;stroke-dasharray:none"><path
         inkscape:connector-curvature="0"
         id="path120"
         style="fill:none;stroke:#000000;stroke-width:1.60000002;stroke-linecap:butt;stroke-linejoin:miter;stroke-miterlimit:4;stroke-opacity:1;stroke-dasharray:none"
         d="m 522.32,431.441 0,-10 m 0,-385.043 0,10" /></g><text
       id="text122"
       transform="scale(1,-1)"
       x="512.30048"
       y="-35.359989"><tspan
         id="tspan124"
         sodipodi:role="line"
         y="-35.359989"
         x="512.30048 518.97247 525.64447"
         style="font-size:12px;font-variant:normal;font-weight:normal;writing-mode:lr-tb;fill:#000000;fill-opacity:1;fill-rule:nonzero;stroke:none;font-family:Arial Black;-inkscape-font-specification:Arial">350</tspan></text>
<g
       transform="matrix(1,0,0,-1,0,484.79999)"
       id="g126"><path
         inkscape:connector-curvature="0"
         id="path128"
         style="fill:none;stroke:#000000;stroke-width:0.40000001;stroke-linecap:butt;stroke-linejoin:miter;stroke-miterlimit:4;stroke-opacity:1;stroke-dasharray:none"
         d="m 584.961,431.441 0,-10 m 0,-385.043 0,10" /></g><text
       id="text130"
       transform="scale(1,-1)"
       x="574.94049"
       y="-35.359989"><tspan
         id="tspan132"
         sodipodi:role="line"
         y="-35.359989"
         x="574.94049 581.61249 588.28448"
         style="font-size:12px;font-variant:normal;font-weight:normal;writing-mode:lr-tb;fill:#000000;fill-opacity:1;fill-rule:nonzero;stroke:none;font-family:Arial Black;-inkscape-font-specification:Arial">400</tspan></text>
<g
       transform="matrix(1,0,0,-1,0,484.79999)"
       id="g134"
       style="stroke-width:1.60000002;stroke-miterlimit:4;stroke-dasharray:none"><path
         inkscape:connector-curvature="0"
         id="path136"
         style="fill:none;stroke:#000000;stroke-width:1.60000002;stroke-linecap:butt;stroke-linejoin:miter;stroke-miterlimit:4;stroke-opacity:1;stroke-dasharray:none"
         d="m 84,36.398 0,395.043 500.961,0 0,-395.043 -500.961,0 z" /></g><text
       id="text138"
       transform="matrix(0,1,1,0,0,0)"
       x="199.06126"
       y="47.676132"
       style="font-size:19.52551842px;font-style:normal;font-variant:normal;font-weight:normal;font-stretch:normal;text-align:start;line-height:125%;writing-mode:lr-tb;text-anchor:start;font-family:Sans;-inkscape-font-specification:Sans"
       sodipodi:linespacing="125%"><tspan
         sodipodi:role="line"
         id="tspan4086"
         x="199.06126"
         y="47.676132">frequency</tspan></text>
<text
       id="text142"
       transform="scale(1,-1)"
       x="223.21616"
       y="-10.668111"
       style="font-size:18.03826714px;font-style:normal;font-variant:normal;font-weight:normal;font-stretch:normal;text-align:start;line-height:125%;writing-mode:lr-tb;text-anchor:start;font-family:Sans;-inkscape-font-specification:Sans"
       sodipodi:linespacing="125%"><tspan
         sodipodi:role="line"
         id="tspan4014"
         x="223.21616"
         y="-10.668111">co-occurrent segments</tspan></text>
<g
       transform="matrix(1,0,0,-1,0,484.79999)"
       id="g150"
       style="stroke-width:1.60000002;stroke-miterlimit:4;stroke-dasharray:none"><path
         inkscape:connector-curvature="0"
         id="path152"
         style="fill:none;stroke:#000000;stroke-width:1.60000002;stroke-linecap:butt;stroke-linejoin:miter;stroke-miterlimit:4;stroke-opacity:1;stroke-dasharray:none"
         d="m 85.281,52 1.199,5.199 1.282,15.602 1.277,10.398 1.199,0 1.282,10.403 1.281,5.199 1.199,46.719 1.281,20.8 1.278,5.2 1.203,15.601 1.277,26 1.281,10.399 1.2,10.402 1.281,5.199 1.199,0 1.281,5.199 1.278,10.399 1.203,10.402 1.277,5.199 1.281,0 1.2,0 1.281,5.2 1.277,15.601 1.203,0 1.278,0 1.281,10.399 1.199,5.199 1.281,0 1.282,10.402 1.199,15.52 1.277,0 1.281,0 1.2,0 1.281,0 1.281,10.398 1.199,5.199 1.282,0 1.277,5.203 1.199,0 1.281,0 1.282,0 1.199,5.2 1.281,5.199 1.199,0 1.282,0 1.277,5.199 1.199,0 1.281,0 1.282,5.199 1.199,5.203 1.281,0 1.277,0 1.204,5.2 1.277,0 1.281,0 1.199,0 1.282,0 1.281,0 1.199,0 1.277,0 1.282,0 1.199,0 1.281,0 1.281,0 1.2,5.199 1.281,0 1.277,0 1.199,0 1.282,0 1.281,5.199 1.199,0 1.281,0 1.2,0 1.281,0 1.277,5.199 1.199,0 1.282,0 1.281,0 1.199,0 1.281,0 1.278,0 1.203,0 1.277,0 1.281,0 1.2,0 1.281,5.203 1.277,0 1.203,0 1.278,0 1.281,0 1.199,0 1.281,0 1.282,0 1.199,0 1.277,0 1.282,0 1.199,0 1.281,0 1.281,0 1.199,5.2 1.282,0 1.199,0 1.277,0 1.282,0 1.199,0 1.281,0 1.281,0 1.199,0 1.282,0 1.277,0 1.199,0 1.282,0 1.281,0 1.199,0 1.281,0 1.278,0 1.203,0 1.277,0 1.281,0 1.2,0 1.281,0 1.277,0 1.203,0 1.278,0 1.281,0 1.199,0 1.281,0 1.2,0 1.281,0 1.277,5.199 1.203,0 1.278,0 1.281,0 1.199,0 1.281,0 1.282,0 1.199,0 1.277,0 1.281,0 1.2,0 1.281,0 1.281,0 1.199,0 1.282,0 1.277,0 1.199,0 1.281,0 1.282,0 1.199,0 1.281,0 1.277,0 1.204,0 1.277,0 1.281,0 1.199,5.199 1.282,0 1.199,0 1.281,0 1.277,0 1.204,0 1.277,0 1.281,0 1.199,0 1.282,0 1.281,0 1.199,0 1.277,0 1.282,0 1.199,0 1.281,0 1.281,0 1.2,0 1.281,0 1.277,0 1.199,0 1.282,0 1.281,0 1.199,0 1.281,0 1.278,0 1.203,0 1.277,0 1.281,0 1.2,0 1.281,0 1.199,0 1.281,0 1.278,0 1.203,0 1.277,0 1.281,0 1.2,0 1.281,0 1.277,0 1.203,0 1.278,0 1.281,0 1.199,0 1.281,0 1.282,0 1.199,0 1.277,0 1.282,0 1.199,0 1.281,0 1.281,0 1.199,0 1.282,0 1.277,0 1.199,5.199 1.282,0 1.281,0 1.199,0 1.281,0 1.199,0 1.282,0 1.277,0 1.199,0 1.282,0 1.281,0 1.199,0 1.281,0 1.278,0 1.203,0 1.277,0 1.281,0 1.2,0 1.281,0 1.277,0 1.203,0 1.278,0 1.281,0 1.199,0 1.281,0 1.282,0 1.199,0 1.277,0 1.281,0 1.2,0 1.281,0 1.281,0 1.199,0 1.282,0 1.199,0 1.277,0 1.281,0 1.2,0 1.281,0 1.281,0 1.199,0 1.282,0 1.277,0 1.199,0 1.281,0 1.282,0 1.199,0 1.281,0 1.277,0 1.204,0 1.277,0 1.281,0 1.199,0 1.282,0 1.281,0 1.199,0 1.277,0 1.282,0 1.199,0 1.281,0 1.281,0 1.2,0 1.281,0 1.199,0 1.277,0 1.282,0 1.199,0 1.281,0 1.281,0 1.2,0 1.281,0 1.277,0 1.199,0 1.282,0 1.281,0 1.199,0 1.281,0 1.278,0 1.203,0 1.277,0 1.281,0 1.2,0 1.281,0 1.277,0 1.203,0 1.278,0 1.281,0 1.199,0 1.281,0 1.282,0 1.199,0 1.277,0 1.203,0 1.278,0 1.281,0 1.199,0 1.281,0 1.282,0 1.199,0 1.277,0 1.282,0 1.199,0 1.281,0 1.281,0 1.199,0 1.282,0 1.277,0 1.199,0 1.282,0 1.281,0 1.199,0 1.281,0 1.278,0 1.203,0 1.277,0 1.281,0 1.2,0 1.281,0 1.199,0 1.281,0 1.278,0 1.203,0 1.277,0 1.281,0 1.2,0 1.281,0 1.277,0 1.203,0 1.278,0 1.281,0 1.199,0 1.281,0 1.282,0 1.199,0 1.277,0 1.281,0 1.2,0 1.281,0 1.281,0 1.199,0 1.282,0 1.277,0 1.199,0 1.281,0 1.282,0 1.199,0 1.281,0 1.199,0 1.282,0 1.277,0 1.199,0 1.281,0 1.282,0 1.199,0 1.281,0 1.277,0" /></g><g
       transform="matrix(1,0,0,-1,-7.828724,415.60463)"
       id="g154"
       style="stroke-width:1.60000002;stroke-miterlimit:4;stroke-dasharray:none"><path
         inkscape:connector-curvature="0"
         id="path156"
         style="fill:none;stroke:#000000;stroke-width:1.60000002;stroke-linecap:butt;stroke-linejoin:miter;stroke-miterlimit:4;stroke-opacity:1;stroke-dasharray:none"
         d="m 522.32,273.441 50.078,0" /></g><text
       id="text158"
       transform="scale(1,-1)"
       x="515.25549"
       y="-417.92209"
       style="font-size:15.60000038px"><tspan
         id="tspan160"
         sodipodi:role="line"
         y="-417.92209"
         x="515.25549 518.85657 526.08453 533.31256 536.91351 544.14148"
         style="font-size:13px;font-variant:normal;font-weight:normal;writing-mode:lr-tb;fill:#000000;fill-opacity:1;fill-rule:nonzero;stroke:none;font-family:Arial Black;-inkscape-font-specification:Arial">top 10</tspan><tspan
         id="tspan162"
         sodipodi:role="line"
         y="-392.2341"
         x="515.25549 521.75549 525.35657 528.94446 532.54553 539.7735"
         style="font-size:13px;font-variant:normal;font-weight:normal;writing-mode:lr-tb;fill:#000000;fill-opacity:1;fill-rule:nonzero;stroke:none;font-family:Arial Black;-inkscape-font-specification:Arial">k : 73</tspan><tspan
         id="tspan164"
         sodipodi:role="line"
         y="-366.54611"
         x="515.25549 526.08453 529.68549 533.2865 536.88757 544.11554"
         style="font-size:13px;font-variant:normal;font-weight:normal;writing-mode:lr-tb;fill:#000000;fill-opacity:1;fill-rule:nonzero;stroke:none;font-family:Arial Black;-inkscape-font-specification:Arial">m : 72</tspan><tspan
         id="tspan166"
         sodipodi:role="line"
         y="-340.85809"
         x="515.25549 522.48352 526.08453 529.68549 533.2865 540.51453"
         style="font-size:13px;font-variant:normal;font-weight:normal;writing-mode:lr-tb;fill:#000000;fill-opacity:1;fill-rule:nonzero;stroke:none;font-family:Arial Black;-inkscape-font-specification:Arial">p : 69</tspan><tspan
         id="tspan168"
         sodipodi:role="line"
         y="-315.27411"
         x="515.25549 518.14148 521.74249 525.34351 528.94446 536.17249"
         style="font-size:13px;font-variant:normal;font-weight:normal;writing-mode:lr-tb;fill:#000000;fill-opacity:1;fill-rule:nonzero;stroke:none;font-family:Arial Black;-inkscape-font-specification:Arial">j : 67</tspan><tspan
         id="tspan170"
         sodipodi:role="line"
         y="-289.58609"
         x="515.25549 518.14148 521.74249 525.34351 528.94446 536.17249"
         style="font-size:13px;font-variant:normal;font-weight:normal;writing-mode:lr-tb;fill:#000000;fill-opacity:1;fill-rule:nonzero;stroke:none;font-family:Arial Black;-inkscape-font-specification:Arial">i : 67</tspan><tspan
         id="tspan172"
         sodipodi:role="line"
         y="-263.8981"
         x="515.25549 522.48352 526.08453 529.68549 533.2865 540.51453"
         style="font-size:13px;font-variant:normal;font-weight:normal;writing-mode:lr-tb;fill:#000000;fill-opacity:1;fill-rule:nonzero;stroke:none;font-family:Arial Black;-inkscape-font-specification:Arial">a : 65</tspan><tspan
         id="tspan174"
         sodipodi:role="line"
         y="-238.21008"
         x="515.25549 522.48352 526.08453 529.68549 533.2865 540.51453"
         style="font-size:13px;font-variant:normal;font-weight:normal;writing-mode:lr-tb;fill:#000000;fill-opacity:1;fill-rule:nonzero;stroke:none;font-family:Arial Black;-inkscape-font-specification:Arial">u : 64</tspan><tspan
         id="tspan176"
         sodipodi:role="line"
         y="-212.52208"
         x="515.25549 524.64148 528.24249 531.84351 535.44446 542.67249"
         style="font-size:13px;font-variant:normal;font-weight:normal;writing-mode:lr-tb;fill:#000000;fill-opacity:1;fill-rule:nonzero;stroke:none;font-family:Arial Black;-inkscape-font-specification:Arial">w : 55</tspan><tspan
         id="tspan178"
         sodipodi:role="line"
         y="-186.83411"
         x="515.25549 522.48352 526.08453 529.68549 533.2865 540.51453"
         style="font-size:13px;font-variant:normal;font-weight:normal;writing-mode:lr-tb;fill:#000000;fill-opacity:1;fill-rule:nonzero;stroke:none;font-family:Arial Black;-inkscape-font-specification:Arial">b : 51</tspan><tspan
         id="tspan180"
         sodipodi:role="line"
         y="-161.1461"
         x="515.25549 522.48352 526.08453 529.68549 533.2865 540.51453"
         style="font-size:13px;font-variant:normal;font-weight:normal;writing-mode:lr-tb;fill:#000000;fill-opacity:1;fill-rule:nonzero;stroke:none;font-family:Arial Black;-inkscape-font-specification:Arial">h : 50</tspan><tspan
         id="tspan182"
         sodipodi:role="line"
         y="-109.7702"
         x="547.8075 555.03552"
         style="font-size:13px;font-variant:normal;font-weight:normal;writing-mode:lr-tb;fill:#000000;fill-opacity:1;fill-rule:nonzero;stroke:none;font-family:Arial Black;-inkscape-font-specification:Arial">76</tspan></text>
<g
       id="g4080"
       transform="translate(2.4024356,0)"><text
         sodipodi:linespacing="125%"
         style="font-size:18.03419685px;font-style:normal;font-variant:normal;font-weight:normal;font-stretch:normal;text-align:start;line-height:125%;writing-mode:lr-tb;text-anchor:start;font-family:Sans;-inkscape-font-specification:Sans"
         y="-460.44061"
         x="84.565445"
         transform="scale(1,-1)"
         id="text146"><tspan
           y="-460.44061"
           x="84.565445"
           id="tspan4012"
           sodipodi:role="line">cooccurrence for    , n. of cooccurring segments:366</tspan></text>
<g
         transform="matrix(0.09368189,0,0,-0.09368189,233.50686,485.30873)"
         id="g4066"><path
           inkscape:connector-curvature="0"
           d="m 256.836,198.535 c 0,11.426 -1.538,21.632 -4.614,30.615 -3.076,8.986 -7.375,16.604 -12.891,22.852 -5.519,6.251 -12.085,11.037 -19.702,14.355 -7.617,3.318 -15.967,4.98 -25.049,4.98 -7.324,0 -14.136,-1.245 -20.435,-3.735 -6.299,-2.49 -11.744,-6.079 -16.333,-10.767 -4.592,-4.688 -8.181,-10.4 -10.767,-17.139 -2.589,-6.738 -3.882,-14.355 -3.882,-22.852 h 93.018 c 0,-9.961 -1.318,-18.896 -3.955,-26.807 -2.637,-7.911 -6.203,-14.598 -10.693,-20.068 -4.493,-5.468 -9.719,-9.668 -15.674,-12.598 -5.958,-2.93 -12.209,-4.395 -18.75,-4.395 -4.299,-0.096 -8.327,0.366 -12.085,1.392 -3.761,1.025 -7.251,2.76 -10.474,5.2 -3.223,2.442 -6.226,5.738 -9.009,9.888 -2.783,4.152 -5.397,9.302 -7.837,15.454 l -4.541,-2.783 c 1.073,-6.64 3.076,-13.133 6.006,-19.482 2.93,-6.347 6.761,-12.06 11.499,-17.139 4.735,-5.077 10.276,-9.155 16.626,-12.231 6.347,-3.076 13.378,-4.614 21.094,-4.614 7.91,0 15.403,1.637 22.485,4.907 7.079,3.273 13.279,7.936 18.604,13.989 5.321,6.056 9.544,13.38 12.671,21.973 3.124,8.596 4.688,18.264 4.688,29.005 z m -82.91,26.514 c 0,7.324 1.048,13.33 3.149,18.018 2.099,4.688 4.662,8.35 7.69,10.986 3.025,2.637 6.2,4.445 9.521,5.42 3.318,0.978 6.2,1.465 8.643,1.465 3.904,0 7.738,-0.78 11.499,-2.344 3.758,-1.561 7.152,-3.856 10.181,-6.885 3.025,-3.025 5.566,-6.786 7.617,-11.279 2.051,-4.49 3.369,-9.617 3.955,-15.381 h -62.255 z"
           id="path4068" /></g></g></g></svg>