<?xml version="1.0" encoding="UTF-8" standalone="no"?>
<svg
   xmlns:dc="http://purl.org/dc/elements/1.1/"
   xmlns:cc="http://creativecommons.org/ns#"
   xmlns:rdf="http://www.w3.org/1999/02/22-rdf-syntax-ns#"
   xmlns:svg="http://www.w3.org/2000/svg"
   xmlns="http://www.w3.org/2000/svg"
   xmlns:xlink="http://www.w3.org/1999/xlink"
   xmlns:sodipodi="http://sodipodi.sourceforge.net/DTD/sodipodi-0.dtd"
   xmlns:inkscape="http://www.inkscape.org/namespaces/inkscape"
   viewBox="0 0 584.35845 432.9053"
   id="svg2"
   version="1.1"
   inkscape:version="0.48.4 r9939"
   width="100%"
   height="100%"
   sodipodi:docname="num_genera_loglog.svg">
  <metadata
     id="metadata156">
    <rdf:RDF>
      <cc:Work
         rdf:about="">
        <dc:format>image/svg+xml</dc:format>
        <dc:type
           rdf:resource="http://purl.org/dc/dcmitype/StillImage" />
      </cc:Work>
    </rdf:RDF>
  </metadata>
  <defs
     id="defs154">
    <defs
       id="defs11">
      <circle
         r="0.5"
         id="gpDot"
         cx="0"
         cy="0"
         sodipodi:cx="0"
         sodipodi:cy="0"
         sodipodi:rx="0.5"
         sodipodi:ry="0.5"
         style="stroke-width:0.5" />
      <path
         d="M -1,0 H 1 M 0,-1 v 2"
         id="gpPt0"
         inkscape:connector-curvature="0"
         style="stroke:currentColor;stroke-width:0.333" />
      <path
         d="M -1,-1 1,1 M 1,-1 -1,1"
         id="gpPt1"
         inkscape:connector-curvature="0"
         style="stroke:currentColor;stroke-width:0.333" />
      <path
         d="M -1,0 1,0 M 0,-1 0,1 m -1,-2 2,2 m -2,0 2,-2"
         id="gpPt2"
         inkscape:connector-curvature="0"
         style="stroke:currentColor;stroke-width:0.333" />
      <rect
         height="2"
         width="2"
         y="-1"
         x="-1"
         id="gpPt3"
         style="stroke:currentColor;stroke-width:0.333" />
      <rect
         height="2"
         width="2"
         y="-1"
         x="-1"
         id="gpPt4"
         style="fill:currentColor;stroke:currentColor;stroke-width:0.333" />
      <circle
         r="1"
         cy="0"
         cx="0"
         id="gpPt5"
         sodipodi:cx="0"
         sodipodi:cy="0"
         sodipodi:rx="1"
         sodipodi:ry="1"
         style="stroke:currentColor;stroke-width:0.333" />
      <use
         id="gpPt6"
         xlink:href="#gpPt5"
         style="fill:currentColor;stroke:none"
         x="0"
         y="0"
         width="576"
         height="432" />
      <path
         d="m 0,-1.33 -1.33,2 2.66,0 z"
         id="gpPt7"
         inkscape:connector-curvature="0"
         style="stroke:currentColor;stroke-width:0.333" />
      <use
         id="gpPt8"
         xlink:href="#gpPt7"
         style="fill:currentColor;stroke:none"
         x="0"
         y="0"
         width="576"
         height="432" />
      <use
         transform="scale(-1,-1)"
         id="gpPt9"
         xlink:href="#gpPt7"
         style="stroke:currentColor"
         x="0"
         y="0"
         width="576"
         height="432" />
      <use
         id="gpPt10"
         xlink:href="#gpPt9"
         style="fill:currentColor;stroke:none"
         x="0"
         y="0"
         width="576"
         height="432" />
      <use
         transform="matrix(0.70710678,0.70710678,-0.70710678,0.70710678,0,0)"
         id="gpPt11"
         xlink:href="#gpPt3"
         style="stroke:currentColor"
         x="0"
         y="0"
         width="576"
         height="432" />
      <use
         id="gpPt12"
         xlink:href="#gpPt11"
         style="fill:currentColor;stroke:none"
         x="0"
         y="0"
         width="576"
         height="432" />
    </defs>
  </defs>
  <sodipodi:namedview
     pagecolor="#ffffff"
     bordercolor="#666666"
     borderopacity="1"
     objecttolerance="10"
     gridtolerance="10"
     guidetolerance="10"
     inkscape:pageopacity="0"
     inkscape:pageshadow="2"
     inkscape:window-width="1341"
     inkscape:window-height="755"
     id="namedview152"
     showgrid="false"
     fit-margin-top="0"
     fit-margin-left="0"
     fit-margin-right="0"
     fit-margin-bottom="0"
     inkscape:zoom="1.2313006"
     inkscape:cx="412.98575"
     inkscape:cy="216.9053"
     inkscape:window-x="0"
     inkscape:window-y="0"
     inkscape:window-maximized="0"
     inkscape:current-layer="svg2" />
  <title
     id="title4">Gnuplot</title>
  <desc
     id="desc6">Produced by GNUPLOT 4.6 patchlevel 1 </desc>
  <rect
     style="fill:none"
     id="rect9"
     height="432"
     width="576"
     y="0"
     x="8.3584471" />
  <g
     id="g27"
     style="color:#ffffff;fill:none;stroke:currentColor;stroke-width:1;stroke-linecap:butt;stroke-linejoin:miter"
     transform="translate(8.3584473,0)" />
  <g
     id="g29"
     style="color:#ffffff;fill:none;stroke:currentColor;stroke-width:0.5;stroke-linecap:butt;stroke-linejoin:miter"
     transform="translate(8.3584473,0)" />
  <path
     style="color:#000000;fill:none;stroke:currentColor;stroke-width:1.5;stroke-linecap:butt;stroke-linejoin:miter;stroke-miterlimit:4;stroke-dasharray:none"
     d="m 45.558447,393.6 8.4,0 m 513.500003,0 -8.4,0 h 0.01"
     id="path33"
     inkscape:connector-curvature="0" />
  <g
     transform="translate(39.958447,396.6)"
     style="font-size:12.5px;text-anchor:end;color:#000000;fill:#000000;stroke:none"
     id="g35">
    <text
       id="text37">
      <tspan
         id="tspan39">10</tspan>
      <tspan
         font-size="8.0pt"
         dy="-6.25"
         id="tspan41"
         style="font-size:10px">0</tspan>
      <tspan
         font-size="10.0pt"
         dy="6.25"
         id="tspan43"
         style="font-size:12.5px" />
    </text>
  </g>
  <path
     style="color:#000000;fill:none;stroke:currentColor;stroke-width:1.5;stroke-linecap:butt;stroke-linejoin:miter;stroke-miterlimit:4;stroke-dasharray:none"
     d="m 45.558447,393.6 4.2,0 m 517.700003,0 -4.2,0 m -517.700003,-28.8 4.2,0 m 517.700003,0 -4.2,0 M 45.558447,348 l 4.2,0 m 517.700003,0 -4.2,0 m -517.700003,-11.9 4.2,0 m 517.700003,0 -4.2,0 m -517.700003,-9.3 4.2,0 m 517.700003,0 -4.2,0 m -517.700003,-7.6 4.2,0 m 517.700003,0 -4.2,0 m -517.700003,-6.4 4.2,0 m 517.700003,0 -4.2,0 m -517.700003,-5.5 4.2,0 m 517.700003,0 -4.2,0 m -517.700003,-4.9 4.2,0 m 517.700003,0 -4.2,0 M 45.558447,298 l 8.4,0 m 513.500003,0 -8.4,0 h 0.01"
     id="path45"
     inkscape:connector-curvature="0" />
  <g
     transform="translate(39.958447,301)"
     style="font-size:12.5px;text-anchor:end;color:#000000;fill:#000000;stroke:none"
     id="g47">
    <text
       id="text49">
      <tspan
         id="tspan51">10</tspan>
      <tspan
         font-size="8.0pt"
         dy="-6.25"
         id="tspan53"
         style="font-size:10px">1</tspan>
      <tspan
         font-size="10.0pt"
         dy="6.25"
         id="tspan55"
         style="font-size:12.5px" />
    </text>
  </g>
  <path
     style="color:#000000;fill:none;stroke:currentColor;stroke-width:1.5;stroke-linecap:butt;stroke-linejoin:miter;stroke-miterlimit:4;stroke-dasharray:none"
     d="m 45.558447,298 4.2,0 m 517.700003,0 -4.2,0 m -517.700003,-28.7 4.2,0 m 517.700003,0 -4.2,0 m -517.700003,-16.9 4.2,0 m 517.700003,0 -4.2,0 m -517.700003,-11.9 4.2,0 m 517.700003,0 -4.2,0 m -517.700003,-9.3 4.2,0 m 517.700003,0 -4.2,0 m -517.700003,-7.5 4.2,0 m 517.700003,0 -4.2,0 m -517.700003,-6.4 4.2,0 m 517.700003,0 -4.2,0 m -517.700003,-5.6 4.2,0 m 517.700003,0 -4.2,0 m -517.700003,-4.9 4.2,0 m 517.700003,0 -4.2,0 m -517.700003,-4.4 8.4,0 m 513.500003,0 -8.4,0 h 0.01"
     id="path57"
     inkscape:connector-curvature="0" />
  <g
     transform="translate(39.958447,205.4)"
     style="font-size:12.5px;text-anchor:end;color:#000000;fill:#000000;stroke:none"
     id="g59">
    <text
       id="text61">
      <tspan
         id="tspan63">10</tspan>
      <tspan
         font-size="8.0pt"
         dy="-6.25"
         id="tspan65"
         style="font-size:10px">2</tspan>
      <tspan
         font-size="10.0pt"
         dy="6.25"
         id="tspan67"
         style="font-size:12.5px" />
    </text>
  </g>
  <path
     style="color:#000000;fill:none;stroke:currentColor;stroke-width:1.5;stroke-linecap:butt;stroke-linejoin:miter;stroke-miterlimit:4;stroke-dasharray:none"
     d="m 45.558447,202.4 4.2,0 m 517.700003,0 -4.2,0 m -517.700003,-28.7 4.2,0 m 517.700003,0 -4.2,0 m -517.700003,-16.9 4.2,0 m 517.700003,0 -4.2,0 m -517.700003,-11.9 4.2,0 m 517.700003,0 -4.2,0 m -517.700003,-9.3 4.2,0 m 517.700003,0 -4.2,0 m -517.700003,-7.5 4.2,0 m 517.700003,0 -4.2,0 m -517.700003,-6.4 4.2,0 m 517.700003,0 -4.2,0 m -517.700003,-5.6 4.2,0 m 517.700003,0 -4.2,0 m -517.700003,-4.9 4.2,0 m 517.700003,0 -4.2,0 m -517.700003,-4.3 8.4,0 m 513.500003,0 -8.4,0 h 0.01"
     id="path69"
     inkscape:connector-curvature="0" />
  <g
     transform="translate(39.958447,109.9)"
     style="font-size:12.5px;text-anchor:end;color:#000000;fill:#000000;stroke:none"
     id="g71">
    <text
       id="text73">
      <tspan
         id="tspan75">10</tspan>
      <tspan
         font-size="8.0pt"
         dy="-6.25"
         id="tspan77"
         style="font-size:10px">3</tspan>
      <tspan
         font-size="10.0pt"
         dy="6.25"
         id="tspan79"
         style="font-size:12.5px" />
    </text>
  </g>
  <path
     style="color:#000000;fill:none;stroke:currentColor;stroke-width:1.5;stroke-linecap:butt;stroke-linejoin:miter;stroke-miterlimit:4;stroke-dasharray:none"
     d="m 45.558447,106.9 4.2,0 m 517.700003,0 -4.2,0 M 45.558447,78.1 l 4.2,0 m 517.700003,0 -4.2,0 M 45.558447,61.3 l 4.2,0 m 517.700003,0 -4.2,0 m -517.700003,-12 4.2,0 m 517.700003,0 -4.2,0 m -517.700003,-9.2 4.2,0 m 517.700003,0 -4.2,0 m -517.700003,-7.6 4.2,0 m 517.700003,0 -4.2,0 m -517.700003,-6.4 4.2,0 m 517.700003,0 -4.2,0 m -517.700003,-5.5 4.2,0 m 517.700003,0 -4.2,0 m -517.700003,-4.9 4.2,0 m 517.700003,0 -4.2,0 m -517.700003,-4.4 8.4,0 m 513.500003,0 -8.4,0 h 0.01"
     id="path81"
     inkscape:connector-curvature="0" />
  <g
     transform="translate(39.958447,14.3)"
     style="font-size:12.5px;text-anchor:end;color:#000000;fill:#000000;stroke:none"
     id="g83">
    <text
       id="text85">
      <tspan
         id="tspan87">10</tspan>
      <tspan
         font-size="8.0pt"
         dy="-6.25"
         id="tspan89"
         style="font-size:10px">4</tspan>
      <tspan
         font-size="10.0pt"
         dy="6.25"
         id="tspan91"
         style="font-size:12.5px" />
    </text>
  </g>
  <path
     style="color:#000000;fill:none;stroke:currentColor;stroke-width:1.5;stroke-linecap:butt;stroke-linejoin:miter;stroke-miterlimit:4;stroke-dasharray:none"
     d="m 45.558447,11.3 4.2,0 m 517.700003,0 -4.2,0 m -517.700003,382.3 0,-8.4 m 0,-373.9 0,8.4 h 0.01"
     id="path93"
     inkscape:connector-curvature="0" />
  <g
     transform="translate(45.558447,410.6)"
     style="font-size:12.5px;text-anchor:middle;color:#000000;fill:#000000;stroke:none"
     id="g95">
    <text
       id="text97">
      <tspan
         id="tspan99">10</tspan>
      <tspan
         font-size="8.0pt"
         dy="-6.25"
         id="tspan101"
         style="font-size:10px">0</tspan>
      <tspan
         font-size="10.0pt"
         dy="6.25"
         id="tspan103"
         style="font-size:12.5px" />
    </text>
  </g>
  <path
     style="color:#000000;fill:none;stroke:currentColor;stroke-width:1.5;stroke-linecap:butt;stroke-linejoin:miter;stroke-miterlimit:4;stroke-dasharray:none"
     d="m 45.558447,393.6 0,-4.2 m 0,-378.1 0,4.2 m 78.600003,378.1 0,-4.2 m 0,-378.1 0,4.2 m 45.9,378.1 0,-4.2 m 0,-378.1 0,4.2 m 32.6,378.1 0,-4.2 m 0,-378.1 0,4.2 m 25.3,378.1 0,-4.2 m 0,-378.1 0,4.2 m 20.7,378.1 0,-4.2 m 0,-378.1 0,4.2 m 17.4,378.1 0,-4.2 m 0,-378.1 0,4.2 m 15.2,378.1 0,-4.2 m 0,-378.1 0,4.2 m 13.3,378.1 0,-4.2 m 0,-378.1 0,4.2 m 12,378.1 0,-8.4 m 0,-373.9 0,8.4 h 0.01"
     id="path105"
     inkscape:connector-curvature="0" />
  <g
     transform="translate(306.55845,410.6)"
     style="font-size:12.5px;text-anchor:middle;color:#000000;fill:#000000;stroke:none"
     id="g107">
    <text
       id="text109">
      <tspan
         id="tspan111">10</tspan>
      <tspan
         font-size="8.0pt"
         dy="-6.25"
         id="tspan113"
         style="font-size:10px">1</tspan>
      <tspan
         font-size="10.0pt"
         dy="6.25"
         id="tspan115"
         style="font-size:12.5px" />
    </text>
  </g>
  <path
     style="color:#000000;fill:none;stroke:currentColor;stroke-width:1.5;stroke-linecap:butt;stroke-linejoin:miter;stroke-miterlimit:4;stroke-dasharray:none"
     d="m 306.55845,393.6 0,-4.2 m 0,-378.1 0,4.2 m 78.5,378.1 0,-4.2 m 0,-378.1 0,4.2 m 46,378.1 0,-4.2 m 0,-378.1 0,4.2 m 32.6,378.1 0,-4.2 m 0,-378.1 0,4.2 m 25.2,378.1 0,-4.2 m 0,-378.1 0,4.2 m 20.7,378.1 0,-4.2 m 0,-378.1 0,4.2 m 17.5,378.1 0,-4.2 m 0,-378.1 0,4.2 m 15.1,378.1 0,-4.2 m 0,-378.1 0,4.2 m 13.4,378.1 0,-4.2 m 0,-378.1 0,4.2 m 11.9,378.1 0,-8.4 m 0,-373.9 0,8.4 h 0.01"
     id="path117"
     inkscape:connector-curvature="0" />
  <g
     transform="translate(567.45845,410.6)"
     style="font-size:12.5px;text-anchor:middle;color:#000000;fill:#000000;stroke:none"
     id="g119">
    <text
       id="text121">
      <tspan
         id="tspan123">10</tspan>
      <tspan
         font-size="8.0pt"
         dy="-6.25"
         id="tspan125"
         style="font-size:10px">2</tspan>
      <tspan
         font-size="10.0pt"
         dy="6.25"
         id="tspan127"
         style="font-size:12.5px" />
    </text>
  </g>
  <path
     style="color:#000000;fill:none;stroke:currentColor;stroke-width:1.5;stroke-linecap:butt;stroke-linejoin:miter;stroke-miterlimit:4;stroke-dasharray:none"
     d="m 567.45845,393.6 0,-4.2 m 0,-378.1 0,4.2 m -521.900003,-4.2 0,382.3 521.900003,0 0,-382.3 -521.900003,0 z m 0,0 h 0.01"
     id="path129"
     inkscape:connector-curvature="0" />
  <g
     transform="matrix(0,-1.44,1.44,0,25.195781,202.49866)"
     style="font-size:12.5px;text-anchor:middle;color:#000000;fill:#000000;stroke:none"
     id="g131">
    <text
       y="-8"
       id="text133">
      <tspan
         id="tspan135">number of genera</tspan>
    </text>
  </g>
  <g
     transform="matrix(1.44,0,0,1.44,306.21944,432.65042)"
     style="font-size:12.5px;text-anchor:middle;color:#000000;fill:#000000;stroke:none"
     id="g137">
    <text
       id="text139">
      <tspan
         id="tspan141">rank</tspan>
    </text>
  </g>
  <g
     id="gnuplot_plot_1a"
     style="stroke-width:1.5;stroke-miterlimit:4;stroke-dasharray:none"
     transform="translate(8.3584473,0)">
    <title
       id="title144">gnuplot_plot_1a</title>
    <g
       id="g146"
       style="color:#ff0000;fill:none;stroke:currentColor;stroke-width:1.5;stroke-linecap:butt;stroke-linejoin:miter;stroke-miterlimit:4;stroke-dasharray:none">
      <path
         style="stroke:#000000;stroke-width:2;stroke-miterlimit:4;stroke-dasharray:none"
         inkscape:connector-curvature="0"
         id="path148"
         d="m 37.2,13.6 78.6,21.2 45.9,15.7 32.6,7.6 25.3,2.7 20.7,20.3 17.4,12.7 15.2,14.4 13.3,12.3 12,-2.5 10.8,27.1 9.8,-34.2 9.1,15.5 8.4,20.4 7.8,14.3 7.3,-0.2 6.9,14.3 6.5,0.6 6.1,-12.4 5.8,17.5 5.5,7 5.3,20.8 5,-8.7 4.9,32.9 4.6,-23.2 4.4,14.7 4.3,20.5 4.1,-20.5 4,-16.2 3.9,35.5 3.7,-16.4 3.6,9.2 3.5,-23.7 3.3,21.9 3.3,15 3.2,-13.2 3.1,17.3 3,27.4 3,-9.8 2.9,-21.7 2.8,2.7 2.7,-22.8 2.7,-28.8 2.6,86.3 2.5,-15.7 2.5,-7.9 2.4,-3.5 2.4,27.1 2.4,-8.6 2.2,2.7 2.3,31.6 2.2,-10.4 2.1,24.4 2.2,-19.5 2,40.7 2.1,16.8 2,0 2,0 1.9,-45.6 1.9,45.6 1.9,-45.6 1.8,-16.8 1.8,-8.3 1.8,13.2 1.8,-13.2 1.7,42 1.7,-23.3 1.7,80.8 1.6,-95.6 1.7,66.8 1.6,-52 1.6,52 1.5,28.8 1.6,-28.8 1.5,0 1.5,0 1.5,28.8 1.4,0 1.5,-45.6 1.4,45.6 1.4,-28.8 1.4,-16.8 1.4,0 1.3,0 1.4,45.6 1.3,-28.8 1.3,-28.7 1.3,57.5 1.3,-45.6 1.3,16.8 1.2,28.8 1.3,0 h 0.01" />
    </g>
  </g>
  <g
     id="g150"
     style="color:#000000;fill:none;stroke:currentColor;stroke-width:0.5;stroke-linecap:butt;stroke-linejoin:miter"
     transform="translate(8.3584473,0)" />
</svg>
