<?xml version="1.0" encoding="UTF-8" standalone="no"?>
<svg
   xmlns:dc="http://purl.org/dc/elements/1.1/"
   xmlns:cc="http://creativecommons.org/ns#"
   xmlns:rdf="http://www.w3.org/1999/02/22-rdf-syntax-ns#"
   xmlns:svg="http://www.w3.org/2000/svg"
   xmlns="http://www.w3.org/2000/svg"
   xmlns:xlink="http://www.w3.org/1999/xlink"
   xmlns:sodipodi="http://sodipodi.sourceforge.net/DTD/sodipodi-0.dtd"
   xmlns:inkscape="http://www.inkscape.org/namespaces/inkscape"
   width="496.67563"
   height="471.12704"
   viewBox="0 0 496.67563 471.12704"
   id="svg6135"
   version="1.1"
   inkscape:version="0.48.4 r9939"
   sodipodi:docname="ulysses_compared_triphones_probabilities.svg">
  <metadata
     id="metadata6381">
    <rdf:RDF>
      <cc:Work
         rdf:about="">
        <dc:format>image/svg+xml</dc:format>
        <dc:type
           rdf:resource="http://purl.org/dc/dcmitype/StillImage" />
        <dc:title></dc:title>
      </cc:Work>
    </rdf:RDF>
  </metadata>
  <sodipodi:namedview
     pagecolor="#ffffff"
     bordercolor="#666666"
     borderopacity="1"
     objecttolerance="10"
     gridtolerance="10"
     guidetolerance="10"
     inkscape:pageopacity="0"
     inkscape:pageshadow="2"
     inkscape:window-width="1272"
     inkscape:window-height="740"
     id="namedview6379"
     showgrid="false"
     inkscape:zoom="1.1133201"
     inkscape:cx="317.97213"
     inkscape:cy="245.90205"
     inkscape:window-x="40"
     inkscape:window-y="19"
     inkscape:window-maximized="0"
     inkscape:current-layer="svg6135"
     fit-margin-top="0"
     fit-margin-left="0"
     fit-margin-right="0"
     fit-margin-bottom="0" />
  <desc
     id="desc6137">Produced by GNUPLOT 4.4 patchlevel 3 </desc>
  <defs
     id="defs6139">
    <circle
       id="gpDot"
       r="0.5"
       cx="0"
       cy="0"
       sodipodi:cx="0"
       sodipodi:cy="0"
       sodipodi:rx="0.5"
       sodipodi:ry="0.5"
       style="stroke-width:0.5" />
    <path
       id="gpPt0"
       d="M -1,0 H 1 M 0,-1 v 2"
       inkscape:connector-curvature="0"
       style="stroke:currentColor;stroke-width:0.222" />
    <path
       id="gpPt1"
       d="M -1,-1 1,1 M 1,-1 -1,1"
       inkscape:connector-curvature="0"
       style="stroke:currentColor;stroke-width:0.222" />
    <path
       id="gpPt2"
       d="M -1,0 1,0 M 0,-1 0,1 m -1,-2 2,2 m -2,0 2,-2"
       inkscape:connector-curvature="0"
       style="stroke:currentColor;stroke-width:0.222" />
    <rect
       id="gpPt3"
       x="-1"
       y="-1"
       width="2"
       height="2"
       style="stroke:currentColor;stroke-width:0.222" />
    <rect
       id="gpPt4"
       x="-1"
       y="-1"
       width="2"
       height="2"
       style="fill:currentColor;stroke:currentColor;stroke-width:0.222" />
    <circle
       id="gpPt5"
       cx="0"
       cy="0"
       r="1"
       sodipodi:cx="0"
       sodipodi:cy="0"
       sodipodi:rx="1"
       sodipodi:ry="1"
       style="stroke:currentColor;stroke-width:0.222" />
    <use
       xlink:href="#gpPt5"
       id="gpPt6"
       style="fill:currentColor;stroke:none"
       x="0"
       y="0"
       width="671"
       height="503" />
    <path
       id="gpPt7"
       d="m 0,-1.33 -1.33,2 2.66,0 z"
       inkscape:connector-curvature="0"
       style="stroke:currentColor;stroke-width:0.222" />
    <use
       xlink:href="#gpPt7"
       id="gpPt8"
       style="fill:currentColor;stroke:none"
       x="0"
       y="0"
       width="671"
       height="503" />
    <use
       xlink:href="#gpPt7"
       id="gpPt9"
       transform="scale(-1,-1)"
       style="stroke:currentColor"
       x="0"
       y="0"
       width="671"
       height="503" />
    <use
       xlink:href="#gpPt9"
       id="gpPt10"
       style="fill:currentColor;stroke:none"
       x="0"
       y="0"
       width="671"
       height="503" />
    <use
       xlink:href="#gpPt3"
       id="gpPt11"
       transform="matrix(0.70710678,0.70710678,-0.70710678,0.70710678,0,0)"
       style="stroke:currentColor"
       x="0"
       y="0"
       width="671"
       height="503" />
    <use
       xlink:href="#gpPt11"
       id="gpPt12"
       style="fill:currentColor;stroke:none"
       x="0"
       y="0"
       width="671"
       height="503" />
  </defs>
  <g
     style="color:#ffffff;fill:none;stroke:currentColor;stroke-width:1;stroke-linecap:butt;stroke-linejoin:miter"
     id="g6155"
     transform="translate(-17.527874,-26.275)" />
  <g
     style="color:#ffffff;fill:none;stroke:currentColor;stroke-width:0.5;stroke-linecap:butt;stroke-linejoin:miter"
     id="g6157"
     transform="translate(-17.527874,-26.275)" />
  <path
     style="color:#000000;fill:none;stroke:currentColor;stroke-width:0.5;stroke-linecap:butt;stroke-linejoin:miter"
     d="m 69.672126,421.425 12.5,0"
     id="path3214"
     inkscape:connector-curvature="0" />
  <g
     id="g6163"
     style="font-size:15px;text-anchor:end;color:#000000;fill:#000000;stroke:none;font-family:Arial"
     transform="translate(61.372126,425.925)">
    <text
       id="text6165">
      <tspan
         id="tspan6167">10</tspan>
      <tspan
         style="font-size:12px"
         id="tspan6169"
         dy="-7.5"
         font-size="9.6pt">-6</tspan>
      <tspan
         style="font-size:15px"
         id="tspan6171"
         dy="7.5"
         font-size="12.0pt" />
    </text>
  </g>
  <path
     style="color:#000000;fill:none;stroke:currentColor;stroke-width:2;stroke-linecap:butt;stroke-linejoin:miter;stroke-miterlimit:4;stroke-dasharray:none"
     d="m 69.672126,339.425 12.5,0"
     id="path3210"
     inkscape:connector-curvature="0" />
  <path
     style="color:#000000;fill:none;stroke:currentColor;stroke-width:2;stroke-linecap:butt;stroke-linejoin:miter;stroke-miterlimit:4;stroke-dasharray:none"
     d="m 485.57213,339.425 -12.5,0"
     id="path6173"
     inkscape:connector-curvature="0" />
  <g
     id="g6175"
     style="font-size:15px;text-anchor:end;color:#000000;fill:#000000;stroke:none;font-family:Arial"
     transform="translate(61.372126,343.925)">
    <text
       id="text6177">
      <tspan
         id="tspan6179">10</tspan>
      <tspan
         style="font-size:12px"
         id="tspan6181"
         dy="-7.5"
         font-size="9.6pt">-5</tspan>
      <tspan
         style="font-size:15px"
         id="tspan6183"
         dy="7.5"
         font-size="12.0pt" />
    </text>
  </g>
  <path
     style="color:#000000;fill:none;stroke:currentColor;stroke-width:2;stroke-linecap:butt;stroke-linejoin:miter;stroke-miterlimit:4;stroke-dasharray:none"
     d="m 69.672126,257.525 12.5,0"
     id="path3206"
     inkscape:connector-curvature="0" />
  <path
     style="color:#000000;fill:none;stroke:currentColor;stroke-width:2;stroke-linecap:butt;stroke-linejoin:miter;stroke-miterlimit:4;stroke-dasharray:none"
     d="m 485.57213,257.525 -12.5,0"
     id="path6185"
     inkscape:connector-curvature="0" />
  <g
     id="g6187"
     style="font-size:15px;text-anchor:end;color:#000000;fill:#000000;stroke:none;font-family:Arial"
     transform="translate(61.372126,262.025)">
    <text
       id="text6189">
      <tspan
         id="tspan6191">10</tspan>
      <tspan
         style="font-size:12px"
         id="tspan6193"
         dy="-7.5"
         font-size="9.6pt">-4</tspan>
      <tspan
         style="font-size:15px"
         id="tspan6195"
         dy="7.5"
         font-size="12.0pt" />
    </text>
  </g>
  <path
     style="color:#000000;fill:none;stroke:currentColor;stroke-width:2;stroke-linecap:butt;stroke-linejoin:miter;stroke-miterlimit:4;stroke-dasharray:none"
     d="m 69.672126,175.525 12.5,0"
     id="path3202"
     inkscape:connector-curvature="0" />
  <path
     style="color:#000000;fill:none;stroke:currentColor;stroke-width:2;stroke-linecap:butt;stroke-linejoin:miter;stroke-miterlimit:4;stroke-dasharray:none"
     d="m 485.57213,175.525 -12.5,0"
     id="path6197"
     inkscape:connector-curvature="0" />
  <g
     id="g6199"
     style="font-size:15px;text-anchor:end;color:#000000;fill:#000000;stroke:none;font-family:Arial"
     transform="translate(61.372126,180.025)">
    <text
       id="text6201">
      <tspan
         id="tspan6203">10</tspan>
      <tspan
         style="font-size:12px"
         id="tspan6205"
         dy="-7.5"
         font-size="9.6pt">-3</tspan>
      <tspan
         style="font-size:15px"
         id="tspan6207"
         dy="7.5"
         font-size="12.0pt" />
    </text>
  </g>
  <path
     style="color:#000000;fill:none;stroke:currentColor;stroke-width:2;stroke-linecap:butt;stroke-linejoin:miter;stroke-miterlimit:4;stroke-dasharray:none"
     d="m 69.672126,93.625 12.5,0"
     id="path3194"
     inkscape:connector-curvature="0" />
  <path
     style="color:#000000;fill:none;stroke:currentColor;stroke-width:2;stroke-linecap:butt;stroke-linejoin:miter;stroke-miterlimit:4;stroke-dasharray:none"
     d="m 485.57213,93.625 -12.5,0"
     id="path6209"
     inkscape:connector-curvature="0" />
  <g
     id="g6211"
     style="font-size:15px;text-anchor:end;color:#000000;fill:#000000;stroke:none;font-family:Arial"
     transform="translate(61.372126,98.125)">
    <text
       id="text6213">
      <tspan
         id="tspan6215">10</tspan>
      <tspan
         style="font-size:12px"
         id="tspan6217"
         dy="-7.5"
         font-size="9.6pt">-2</tspan>
      <tspan
         style="font-size:15px"
         id="tspan6219"
         dy="7.5"
         font-size="12.0pt" />
    </text>
  </g>
  <path
     style="color:#000000;fill:none;stroke:currentColor;stroke-width:0.5;stroke-linecap:butt;stroke-linejoin:miter"
     d="m 69.672126,11.625 12.5,0"
     id="path3198"
     inkscape:connector-curvature="0" />
  <g
     id="g6223"
     style="font-size:15px;text-anchor:end;color:#000000;fill:#000000;stroke:none;font-family:Arial"
     transform="translate(61.372126,16.125)">
    <text
       id="text6225">
      <tspan
         id="tspan6227">10</tspan>
      <tspan
         style="font-size:12px"
         id="tspan6229"
         dy="-7.5"
         font-size="9.6pt">-1</tspan>
      <tspan
         style="font-size:15px"
         id="tspan6231"
         dy="7.5"
         font-size="12.0pt" />
    </text>
  </g>
  <path
     style="color:#000000;fill:none;stroke:currentColor;stroke-width:0.5;stroke-linecap:butt;stroke-linejoin:miter"
     inkscape:connector-curvature="0"
     id="path6233"
     d="m 69.672126,421.425 0,-12.5 m 0,-397.3 0,12.5" />
  <g
     id="g6235"
     style="font-size:15px;text-anchor:middle;color:#000000;fill:#000000;stroke:none;font-family:Arial"
     transform="translate(69.672126,443.925)">
    <text
       id="text6237">
      <tspan
         id="tspan6239">10</tspan>
      <tspan
         style="font-size:12px"
         id="tspan6241"
         dy="-7.5"
         font-size="9.6pt">0</tspan>
      <tspan
         style="font-size:15px"
         id="tspan6243"
         dy="7.5"
         font-size="12.0pt" />
    </text>
  </g>
  <path
     style="color:#000000;fill:none;stroke:currentColor;stroke-width:2;stroke-linecap:butt;stroke-linejoin:miter;stroke-miterlimit:4;stroke-dasharray:none"
     inkscape:connector-curvature="0"
     id="path6245"
     d="m 173.67213,421.425 0,-12.5 m 0,-397.3 0,12.5" />
  <g
     id="g6247"
     style="font-size:15px;text-anchor:middle;color:#000000;fill:#000000;stroke:none;font-family:Arial"
     transform="translate(173.67213,443.925)">
    <text
       id="text6249">
      <tspan
         id="tspan6251">10</tspan>
      <tspan
         style="font-size:12px"
         id="tspan6253"
         dy="-7.5"
         font-size="9.6pt">1</tspan>
      <tspan
         style="font-size:15px"
         id="tspan6255"
         dy="7.5"
         font-size="12.0pt" />
    </text>
  </g>
  <path
     style="color:#000000;fill:none;stroke:currentColor;stroke-width:2;stroke-linecap:butt;stroke-linejoin:miter;stroke-miterlimit:4;stroke-dasharray:none"
     inkscape:connector-curvature="0"
     id="path6257"
     d="m 277.67213,421.425 0,-12.5 m 0,-397.3 0,12.5" />
  <g
     id="g6259"
     style="font-size:15px;text-anchor:middle;color:#000000;fill:#000000;stroke:none;font-family:Arial"
     transform="translate(277.67213,443.925)">
    <text
       id="text6261">
      <tspan
         id="tspan6263">10</tspan>
      <tspan
         style="font-size:12px"
         id="tspan6265"
         dy="-7.5"
         font-size="9.6pt">2</tspan>
      <tspan
         style="font-size:15px"
         id="tspan6267"
         dy="7.5"
         font-size="12.0pt" />
    </text>
  </g>
  <path
     style="color:#000000;fill:none;stroke:currentColor;stroke-width:2;stroke-linecap:butt;stroke-linejoin:miter;stroke-miterlimit:4;stroke-dasharray:none"
     inkscape:connector-curvature="0"
     id="path6269"
     d="m 381.57213,421.425 0,-12.5 m 0,-397.3 0,12.5" />
  <g
     id="g6271"
     style="font-size:15px;text-anchor:middle;color:#000000;fill:#000000;stroke:none;font-family:Arial"
     transform="translate(381.57213,443.925)">
    <text
       id="text6273">
      <tspan
         id="tspan6275">10</tspan>
      <tspan
         style="font-size:12px"
         id="tspan6277"
         dy="-7.5"
         font-size="9.6pt">3</tspan>
      <tspan
         style="font-size:15px"
         id="tspan6279"
         dy="7.5"
         font-size="12.0pt" />
    </text>
  </g>
  <path
     style="color:#000000;fill:none;stroke:currentColor;stroke-width:0.5;stroke-linecap:butt;stroke-linejoin:miter"
     inkscape:connector-curvature="0"
     id="path6281"
     d="m 485.57213,421.425 0,-12.5 m 0,-397.3 0,12.5" />
  <g
     id="g6283"
     style="font-size:15px;text-anchor:middle;color:#000000;fill:#000000;stroke:none;font-family:Arial"
     transform="translate(485.57213,443.925)">
    <text
       id="text6285">
      <tspan
         id="tspan6287">10</tspan>
      <tspan
         style="font-size:12px"
         id="tspan6289"
         dy="-7.5"
         font-size="9.6pt">4</tspan>
      <tspan
         style="font-size:15px"
         id="tspan6291"
         dy="7.5"
         font-size="12.0pt" />
    </text>
  </g>
  <path
     style="color:#000000;fill:none;stroke:currentColor;stroke-width:2;stroke-linecap:butt;stroke-linejoin:miter;stroke-miterlimit:4;stroke-dasharray:none"
     inkscape:connector-curvature="0"
     id="path6305"
     d="m 69.672126,11.625 0,409.8 415.900004,0 0,-409.8 z"
     sodipodi:nodetypes="ccccc" />
  <g
     id="g6307"
     style="font-size:15px;text-anchor:middle;color:#000000;fill:#000000;stroke:none;font-family:Arial"
     transform="matrix(0,-1,1,0,23.672126,216.525)">
    <text
       style="font-size:25.65526009px"
       y="-5.3075695"
       x="-0.30436167"
       id="text6309">
      <tspan
         id="tspan6311">probability</tspan>
    </text>
  </g>
  <g
     id="g6313"
     style="font-size:15px;text-anchor:middle;color:#000000;fill:#000000;stroke:none;font-family:Arial"
     transform="translate(277.16437,470.925)">
    <text
       style="font-size:26.06819534px"
       y="-0.10343337"
       x="-0.33777449"
       id="text6315">
      <tspan
         id="tspan6317">rank</tspan>
    </text>
  </g>
  <g
     id="g6319"
     style="font-size:15px;text-anchor:middle;color:#000000;fill:#000000;stroke:none;font-family:Arial"
     transform="translate(329.57213,-10.875)" />
  <a
     xlink:title="Plot #1"
     id="a6325"
     transform="translate(-17.527874,-26.275)">
    <g
       style="color:#ffffff;fill:none;stroke:currentColor;stroke-width:5;stroke-linecap:butt;stroke-linejoin:miter"
       id="g6327" />
    <g
       style="color:#ff0000;fill:none;stroke:currentColor;stroke-width:5;stroke-linecap:butt;stroke-linejoin:miter"
       id="g6329">
      <g
         transform="translate(540,60.4)"
         style="font-size:15px;text-anchor:end;fill:#000000;stroke:none;font-family:Arial"
         id="g6331">
        <text
           id="text6333"
           y="18.083929"
           x="-94.516075">
          <tspan
             id="tspan6335">ulysses</tspan>
        </text>
      </g>
      <path
         d="m 453.78393,73.983929 42.2,0"
         id="path3190"
         inkscape:connector-curvature="0"
         style="stroke:#000000" />
      <path
         d="m 87.2,93.9 31.3,36.3 18.3,1.4 13,0 10.1,0.5 8.2,2.8 7,0.8 6,0.7 5.3,1.9 4.8,0.5 4.3,0.1 3.9,0.3 3.6,1.3 3.4,2.1 3.1,0.2 2.9,3.2 2.7,0.2 2.6,4.9 2.5,1.1 2.3,0.9 2.2,4.3 2.1,2.6 2,1.5 1.9,0.1 1.9,0.1 1.7,0.1 1.7,2.2 1.7,0 1.6,0.3 1.5,0.2 1.5,0.2 1.4,0.8 1.4,0.1 1.3,0.4 1.4,0.1 1.2,0.1 1.3,0.5 1.2,0 1.1,0.4 1.2,1.8 1.1,0.7 1.1,0 1,0.1 1.1,1.1 1,0.2 1,0.4 1,0.5 0.9,0.8 0.9,1.2 1,0.4 0.9,1 0.8,0.1 0.9,0.4 0.8,0.2 0.9,0.2 0.8,0.1 0.8,0 0.8,0.3 0.7,0.2 0.8,0.1 0.7,1.4 0.8,0.2 0.7,0.2 0.7,0.4 0.7,0.6 0.7,0.2 0.7,0.1 0.6,0.1 0.7,0.2 0.7,1 0.6,0.1 0.6,0.8 0.6,0.4 0.7,0 0.6,0.7 0.6,0.3 0.6,0.1 0.5,0.6 0.6,0 0.6,0.2 0.5,0 0.6,0.5 0.5,0.2 0.6,0.1 0.5,0.2 0.5,0.1 0.6,0.5 0.5,1.2 0.5,0.2 0.5,0.1 0.5,0.1 0.5,0.2 0.5,0 0.5,0 0.4,0.5 0.5,0.1 0.5,0.6 0.4,0.1 0.5,0.4 0.5,0.4 0.4,0 0.5,0.2 0.4,0.1 0.4,0 0.5,0.2 0.4,0.3 0.4,0.6 0.4,0.2 0.5,0.5 0.4,0 0.4,0.3 0.4,0.5 0.4,0.8 0.4,0.2 0.4,0 0.4,0.1 0.3,0.1 0.4,0.1 0.4,0 0.4,0.2 0.4,0.2 0.3,0.2 0.4,0 0.4,0.3 0.3,0.8 0.4,0.5 0.4,0.7 0.3,0 0.4,1 0.3,0.1 0.4,0.1 0.3,0.1 0.3,0 0.4,0.2 0.3,0.1 0.3,0 0.4,0.2 0.3,0 0.3,0.3 0.4,0.5 0.3,0 0.3,0 0.3,0.4 0.3,0.1 0.3,0.2 0.3,0.1 0.4,0.2 0.3,0 0.3,0.3 0.3,0 0.3,0.3 0.3,0 0.3,0.1 0.3,0 0.3,0.2 0.2,0.1 0.3,0 0.3,0.1 0.3,0 0.3,0.2 0.3,0.2 0.2,0.1 0.3,0.3 0.3,0 0.3,0.1 0.2,0.2 0.3,0 0.3,0.2 0.3,0.1 0.2,0.3 0.3,0.5 0.3,0.2 0.2,0.2 0.3,0 0.2,0.6 0.3,0 0.2,0.1 0.3,0.1 0.3,0 0.2,0.1 0.3,0.4 0.2,0.3 0.2,0 0.3,0.2 0.2,0.3 0.3,0.1 0.2,0 0.3,0.7 0.2,0.2 0.2,0 0.3,0.2 0.2,0 0.3,0 0.2,0.2 0.2,0 0.2,0.1 0.3,0.1 0.2,0.3 0.2,0 0.3,0.1 0.2,0 0.2,0.1 0.2,0.1 0.3,0 0.2,0.4 0.2,0.1 0.2,0 0.2,0.1 0.2,0.1 0.3,0.2 0.2,0.1 0.2,0 0.2,0.1 0.2,0.3 0.2,0 0.2,0.1 0.2,0 0.3,0.1 0.2,0.2 0.2,0.3 0.2,0.2 0.2,0.2 0.2,0.3 0.2,0.1 0.2,0 0.2,0 0.2,0.1 0.2,0 0.2,0.1 0.2,0.4 0.2,0.1 0.2,0 0.2,0.1 0.2,0.2 0.1,0.1 0.2,0 0.2,0.1 0.2,0.1 0.2,0.1 0.2,0.1 0.2,0.3 0.2,0 0.2,0 0.1,0.1 0.2,0.1 0.2,0 0.2,0.3 0.2,0 0.2,0 0.1,0.4 0.2,0.2 0.2,0.1 0.2,0.1 0.2,0 0.1,0.1 0.2,0.1 0.2,0.2 0.2,0.2 0.1,0 0.2,0.1 0.2,0.1 0.2,0.3 0.1,0.1 0.2,0 0.2,0.1 0.1,0.1 0.2,0.1 0.2,0.2 0.1,0 0.2,0.1 0.2,0.1 0.1,0.1 0.2,0 0.2,0.1 0.1,0 0.2,0.2 0.2,0 0.1,0 0.2,0.1 0.2,0 0.1,0.2 0.2,0.2 0.1,0.1 0.2,0.1 0.2,0 0.1,0.1 0.2,0.2 0.1,0.1 0.2,0 0.1,0.1 0.2,0 0.2,0 0.1,0 0.2,0.3 0.1,0 0.2,0.1 0.1,0 0.2,0.1 0.1,0 0.2,0 0.1,0 0.2,0.3 0.1,0.1 0.2,0 0.1,0 0.2,0 0.1,0 0.2,0.3 0.1,0.1 0.2,0 0.1,0 0.1,0 0.2,0.1 0.1,0 0.2,0.2 0.1,0 0.2,0 0.1,0.1 0.1,0.1 0.2,0 0.1,0.2 0.2,0.1 0.1,0.1 0.1,0 0.2,0 0.1,0.2 0.2,0.1 0.1,0 0.1,0 0.2,0.1 0.1,0.2 0.1,0.1 0.2,0 0.1,0.1 0.2,0 0.1,0.2 0.1,0.1 0.2,0 0.1,0.2 0.1,0 0.2,0.1 0.1,0 0.1,0.3 0.2,0 0.1,0 0.1,0.3 0.1,0 0.2,0 0.1,0.1 0.1,0 0.2,0 0.1,0.4 0.1,0 0.1,0 0.2,0.3 0.1,0 0.1,0.2 0.2,0 0.1,0.1 0.1,0 0.1,0.2 0.2,0.1 0.1,0 0.1,0 0.1,0 0.2,0.2 0.1,0.1 0.1,0 0.1,0 0.1,0 0.2,0.3 0.1,0 0.1,0.2 0.1,0 0.1,0.1 0.2,0 0.1,0 0.1,0.3 0.1,0.2 0.1,0 0.2,0.1 0.1,0 0.1,0 0.1,0 0.1,0.2 0.2,0 0.1,0 0.1,0 0.1,0.3 0.1,0 0.1,0 0.1,0.2 0.2,0 0.1,0.1 0.1,0 0.1,0 0.1,0 0.1,0 0.1,0.2 0.2,0 0.1,0 0.1,0 0.1,0 0.1,0.1 0.1,0.2 0.1,0 0.1,0 0.2,0.2 0.1,0 0.1,0 0.1,0.1 0.1,0 0.1,0.2 0.1,0 0.1,0.1 0.1,0 0.1,0.2 0.1,0 0.2,0 0.1,0.2 0.1,0 0.1,0 0.1,0.1 0.1,0.2 0.1,0 0.1,0 0.1,0.2 0.1,0 0.1,0 0.1,0 0.1,0.1 0.1,0.2 0.1,0 0.1,0.3 0.2,0 0.1,0 0.1,0 0.1,0 0.1,0.2 0.1,0 0.1,0 0.1,0 0.1,0 0.1,0.2 0.1,0 0.1,0 0.1,0.2 0.1,0 0.1,0.1 0.1,0 0.1,0 0.1,0 0.1,0.2 0.1,0.2 0.1,0 0.1,0.2 0.1,0 0.1,0 0.1,0.1 0.1,0.2 0.1,0 0.1,0 0.1,0 0.1,0 0.1,0.2 0.1,0 0.1,0.2 0.1,0 0.1,0 0.1,0.1 0.1,0 0.1,0 0.1,0 0.1,0 0.1,0.2 0.1,0 0.1,0.2 0.1,0 0.1,0 0.1,0 0.1,0.2 0.1,0 0.1,0 0.1,0 0.1,0 0,0.2 0.1,0 0.1,0.2 0.1,0 0.1,0 0.1,0 0.1,0 0.1,0 0.1,0.2 0.1,0 0.1,0 0.1,0.1 0,0.2 0.1,0 0.1,0 0.1,0 0.1,0.2 0.1,0 0.1,0 0.1,0 0.1,0.2 0.1,0 0.1,0.4 0.1,0 0.1,0 0.1,0 0.1,0 0.1,0 0.1,0.2 0.1,0 0.1,0 0.1,0.2 0.1,0 0.1,0 0.1,0 0.1,0.2 0.1,0.2 0.1,0 0.1,0 0.1,0 0.1,0.2 0.1,0 0.1,0.2 0.1,0 0.1,0 0.1,0 0.1,0.2 0,0.2 0.1,0 0.1,0 0.1,0 0.1,0 0.1,0 0,0.4 0.1,0 0.1,0 0.1,0 0.1,0.2 0.1,0.2 0.1,0 0.1,0 0.1,0 0.1,0 0.1,0 0.1,0.2 0.1,0 0.1,0.2 0.1,0 0.1,0 0.1,0.2 0.1,0 0.1,0 0.1,0 0.1,0 0.1,0.2 0.1,0 0.1,0 0.1,0 0.1,0 0.1,0.2 0.1,0 0.1,0 0.1,0 0.1,0.2 0.1,0 0.1,0 0.1,0 0,0.2 0.1,0 0.1,0 0.1,0.3 0.1,0 0.1,0 0.1,0.2 0.1,0 0.1,0 0.1,0.2 0.1,0 0.1,0 0.1,0.2 0.1,0 0.1,0 0.1,0 0.1,0 0.1,0.2 0.1,0 0,0.3 0.1,0 0.1,0 0.1,0 0,0.2 0.1,0 0.1,0 0.1,0 0.1,0 0.1,0 0.1,0 0.1,0 0.1,0 0,0.2 0.1,0.2 0.1,0 0.1,0 0.1,0.3 0.1,0 0,0.2 0.1,0 0.1,0 0.1,0.2 0.1,0.2 0.1,0 0.1,0 0.1,0 0.1,0.3 0.1,0 0.1,0 0.1,0 0.1,0.2 0.1,0 0.1,0 0.1,0 0,0.3 0.1,0.2 0.1,0 0.1,0 0.1,0 0.1,0 0.1,0.2 0.1,0 0.1,0 0,0.3 0.1,0 0.1,0 0.1,0 0.1,0.2 0.1,0 0.1,0 0.1,0 0.1,0 0.1,0 0,0.3 0.1,0 0.1,0.2 0.1,0 0.1,0 0.1,0.3 0.1,0 0.1,0 0.1,0 0.1,0 0,0.2 0.1,0 0.1,0 0.1,0.3 0.1,0 0.1,0 0.1,0 0.1,0.2 0.1,0 0.1,0 0.1,0 0.1,0.3 0.1,0 0.1,0.2 0.1,0 0.1,0 0.1,0 0.1,0 0.1,0 0,0.3 0.1,0 0.1,0.2 0.1,0 0.1,0 0.1,0 0,0.3 0.1,0 0.1,0 0.1,0 0.1,0 0,0.3 0.1,0 0.1,0 0.1,0 0,0.2 0.1,0 0.1,0 0.1,0 0,0.3 0.1,0 0.1,0 0.1,0 0,0.3 0.1,0 0.1,0 0.1,0 0.1,0 0.1,0 0.1,0 0.1,0 0,0.2 0.1,0 0.1,0 0.1,0 0,0.3 0.1,0 0.1,0 0.1,0 0.1,0.3 0.1,0 0.1,0 0.1,0.3 0.1,0 0.1,0 0.1,0 0.1,0 0.1,0 0.1,0 0.1,0 0,0.3 0.1,0 0.1,0 0.1,0 0.1,0.2 0.1,0 0.1,0 0.1,0 0,0.3 0.1,0 0.1,0 0.1,0 0.1,0 0,0.3 0.1,0 0.1,0 0,0.3 0.1,0 0.1,0 0.1,0 0.1,0 0,0.3 0.1,0 0.1,0 0.1,0 0.1,0 0,0.3 0.1,0 0.1,0 0.1,0 0.1,0 0.1,0 0.1,0 0.1,0.3 0.1,0 0.1,0 0.1,0 0,0.3 0.1,0 0.1,0 0.1,0 0.1,0 0.1,0 0,0.3 0.1,0 0.1,0 0.1,0 0,0.3 0.1,0 0.1,0 0.1,0 0.1,0.3 0.1,0 0.1,0 0.1,0 0.1,0 0,0.3 0.1,0 0.1,0 0,0.3 0.1,0 0.1,0 0.1,0 0.1,0 0,0.4 0.1,0 0.1,0 0,0.3 0.1,0 0.1,0 0.1,0 0.1,0 0.1,0.3 0.1,0 0.1,0 0.1,0 0.1,0 0.1,0.3 0.1,0 0.1,0 0.1,0 0.1,0.3 0.1,0 0.1,0 0.1,0 0.1,0.4 0.1,0 0.1,0 0,0.3 0.1,0 0.1,0 0.1,0 0.1,0 0,0.3 0.1,0 0.1,0 0.1,0 0.1,0 0.1,0 0.1,0 0,0.4 0.1,0 0.1,0 0.1,0 0,0.3 0.1,0 0.1,0 0.1,0.4 0.1,0 0.1,0 0.1,0 0.1,0 0.1,0 0,0.3 0.1,0 0.1,0 0.1,0 0,0.4 0.1,0 0.1,0 0.1,0 0.1,0 0,0.3 0.1,0 0.1,0 0.1,0 0.1,0 0.1,0 0,0.4 0.1,0 0.1,0 0.1,0 0.1,0 0,0.4 0.1,0 0.1,0 0.1,0 0.1,0 0.1,0 0.1,0 0.1,0.3 0.1,0 0.1,0 0.1,0 0.1,0 0,0.4 0.1,0 0.1,0 0.1,0 0,0.4 0.1,0 0.1,0 0.1,0 0,0.4 0.1,0 0.1,0 0.1,0 0.1,0 0.1,0 0.1,0.4 0.1,0 0.1,0 0.1,0 0,0.3 0.1,0 0.1,0 0.1,0 0.1,0 0.1,0 0,0.4 0.1,0 0.1,0 0.1,0 0.1,0 0.1,0 0.1,0 0,0.4 0.1,0 0.1,0 0.1,0 0.1,0 0.1,0.4 0.1,0 0.1,0 0.1,0 0.1,0 0,0.4 0.1,0 0.1,0 0.1,0 0.1,0 0.1,0.5 0.1,0 0.1,0 0.1,0 0.1,0 0.1,0 0.1,0 0,0.4 0.1,0 0.1,0 0.1,0 0.1,0 0.1,0.4 0.1,0 0.1,0 0.1,0 0.1,0 0,0.4 0.1,0 0.1,0 0.1,0 0.1,0 0.1,0 0.1,0.4 0.1,0 0.1,0 0.1,0 0,0.5 0.1,0 0.1,0 0.1,0 0.1,0.4 0.1,0 0.1,0 0.1,0 0.1,0 0.1,0.5 0.1,0 0.1,0 0.1,0 0,0.4 0.1,0 0.1,0 0.1,0 0.1,0 0,0.5 0.1,0 0.1,0 0.1,0 0.1,0 0.1,0 0,0.5 0.1,0 0.1,0 0.1,0 0.1,0 0.1,0.4 0.1,0 0.1,0 0.1,0 0.1,0 0.1,0.5 0.1,0 0.1,0 0.1,0 0.1,0 0.1,0 0,0.5 0.1,0 0.1,0 0.1,0 0.1,0 0.1,0 0,0.5 0.1,0 0.1,0 0.1,0 0.1,0 0,0.5 0.1,0 0.1,0 0.1,0 0.1,0 0.1,0 0,0.5 0.1,0 0.1,0 0.1,0 0.1,0 0.1,0 0,0.5 0.1,0 0.1,0 0.1,0 0.1,0 0.1,0 0,0.5 0.1,0 0.1,0 0.1,0 0.1,0 0.1,0 0.1,0 0.1,0.5 0.1,0 0.1,0 0.1,0 0.1,0 0.1,0 0.1,0 0.1,0.6 0.1,0 0.1,0 0.1,0 0.1,0 0.1,0 0.1,0 0.1,0 0.1,0 0,0.5 0.1,0 0.1,0 0.1,0 0.1,0 0.1,0 0.1,0 0.1,0.6 0.1,0 0.1,0 0.1,0 0.1,0 0.1,0 0.1,0 0,0.5 0.1,0 0.1,0 0.1,0 0.1,0 0.1,0 0.1,0 0.1,0 0,0.6 0.1,0 0.1,0 0.1,0 0.1,0 0.1,0 0,0.6 0.1,0 0.1,0 0.1,0 0.1,0 0.1,0 0,0.6 0.1,0 0.1,0 0.1,0 0.1,0.6 0.1,0 0.1,0 0.1,0 0.1,0 0.1,0.6 0.1,0 0.1,0 0.1,0 0.1,0 0,0.6 0.1,0 0.1,0 0.1,0 0.1,0 0.1,0 0.1,0 0.1,0 0,0.6 0.1,0 0.1,0 0.1,0 0.1,0 0.1,0 0.1,0 0.1,0 0.1,0 0,0.7 0.1,0 0.1,0 0.1,0 0.1,0 0.1,0 0.1,0 0.1,0.6 0.1,0 0.1,0 0.1,0 0.1,0 0.1,0 0.1,0 0.1,0 0.1,0 0,0.7 0.1,0 0.1,0 0.1,0 0.1,0 0.1,0 0.1,0 0.1,0 0,0.7 0.1,0 0.1,0 0.1,0 0.1,0 0.1,0 0.1,0 0.1,0 0,0.7 0.1,0 0.1,0 0.1,0 0.1,0 0,0.7 0.1,0 0.1,0 0.1,0 0.1,0 0.1,0 0.1,0 0.1,0 0,0.7 0.1,0 0.1,0 0.1,0 0.1,0 0.1,0 0.1,0 0.1,0.7 0.1,0 0.1,0 0.1,0 0.1,0 0.1,0 0.1,0 0.1,0 0.1,0 0,0.8 0.1,0 0.1,0 0.1,0 0.1,0 0.1,0 0,0.7 0.1,0 0.1,0 0.1,0 0.1,0 0.1,0 0.1,0 0,0.8 0.1,0 0.1,0 0.1,0 0.1,0 0,0.8 0.1,0 0.1,0 0.1,0 0.1,0 0.1,0 0.1,0 0.1,0 0,0.8 0.1,0 0.1,0 0.1,0 0.1,0 0.1,0 0,0.9 0.1,0 0.1,0 0.1,0 0.1,0 0.1,0 0.1,0 0,0.8 0.1,0 0.1,0 0.1,0 0.1,0 0.1,0 0.1,0 0.1,0 0,0.9 0.1,0 0.1,0 0.1,0 0.1,0 0.1,0 0.1,0 0,0.9 0.1,0 0.1,0 0.1,0 0.1,0 0.1,0 0.1,0 0.1,0 0.1,0 0.1,0 0,0.9 0.1,0 0.1,0 0.1,0 0.1,0 0.1,0 0.1,0 0.1,0 0,1 0.1,0 0.1,0 0.1,0 0.1,0 0.1,0 0.1,0 0,0.9 0.1,0 0.1,0 0.1,0 0.1,0 0.1,0 0.1,0 0.1,0 0,1.1 0.1,0 0.1,0 0.1,0 0.1,0 0.1,0 0.1,0 0.1,0 0.1,0 0,1 0.1,0 0.1,0 0.1,0 0.1,0 0.1,0 0.1,0 0.1,0 0,1 0.1,0 0.1,0 0.1,0 0.1,0 0.1,0 0.1,0 0.1,0 0.1,0 0.1,0 0,1.1 0.1,0 0.1,0 0.1,0 0.1,0 0.1,0 0.1,0 0.1,0 0.1,0 0.1,0 0.1,0 0,1.2 0.1,0 0.1,0 0.1,0 0.1,0 0.1,0 0.1,0 0.1,0 0.1,0 0.1,0 0,1.1 0.1,0 0.1,0 0.1,0 0.1,0 0.1,0 0.1,0 0.1,0 0.1,0 0.1,0 0.1,0 0,1.2 0.1,0 0.1,0 0.1,0 0.1,0 0.1,0 0.1,0 0,1.3 0.1,0 0.1,0 0.1,0 0.1,0 0.1,0 0.1,0 0.1,0 0.1,0 0.1,0 0.1,0 0.1,0 0.1,0 0,1.3 0.1,0 0.1,0 0.1,0 0.1,0 0.1,0 0.1,0 0.1,0 0.1,0 0,1.3 0.1,0 0.1,0 0.1,0 0.1,0 0.1,0 0.1,0 0.1,0 0.1,0 0.1,0 0.1,0 0,1.4 0.1,0 0.1,0 0.1,0 0.1,0 0.1,0 0.1,0 0.1,0 0.1,0 0,1.5 0.1,0 0.1,0 0.1,0 0.1,0 0.1,0 0.1,0 0.1,0 0,1.5 0.1,0 0.1,0 0.1,0 0.1,0 0.1,0 0.1,0 0.1,0 0.1,0 0.1,0 0.1,0 0.1,0 0.1,0 0,1.6 0.1,0 0.1,0 0.1,0 0.1,0 0.1,0 0.1,0 0.1,0 0.1,0 0.1,0 0.1,0 0.1,0 0,1.6 0.1,0 0.1,0 0.1,0 0.1,0 0.1,0 0.1,0 0.1,1.8 0.1,0 0.1,0 0.1,0 0.1,0 0.1,0 0.1,0 0.1,0 0.1,0 0.1,0 0.1,0 0.1,1.8 0.1,0 0.1,0 0.1,0 0.1,0 0.1,0 0.1,0 0.1,0 0.1,0 0.1,0 0,1.9 0.1,0 0.1,0 0.1,0 0.1,0 0.1,0 0.1,0 0.1,0 0.1,0 0.1,0 0.1,0 0,2.1 0.1,0 0.1,0 0.1,0 0.1,0 0.1,0 0.1,0 0.1,0 0.1,0 0.1,0 0.1,0 0.1,0 0.1,0 0.1,0 0.1,0 0,2.1 0.1,0 0.1,0 0.1,0 0.1,0 0.1,0 0.1,0 0.1,0 0.1,0 0.1,0 0.1,0 0.1,0 0.1,0 0.1,0 0.1,0 0,2.3 0.1,0 0.1,0 0.1,0 0.1,0 0.1,0 0.1,0 0.1,0 0.1,0 0.1,0 0.1,0 0.1,0 0.1,0 0.1,0 0.1,0 0,2.5 0.1,0 0.1,0 0.1,0 0.1,0 0.1,0 0.1,0 0.1,0 0.1,0 0.1,0 0.1,0 0,2.6 0.1,0 0.1,0 0.1,0 0.1,0 0.1,0 0.1,0 0.1,0 0.1,0 0.1,0 0.1,0 0.1,0 0.1,0 0.1,0 0.1,0 0.1,0 0.1,0 0,2.9 0.1,0 0.1,0 0.1,0 0.1,0 0.1,0 0.1,0 0.1,0 0.1,0 0.1,0 0.1,0 0.1,0 0.1,0 0.1,0 0.1,0 0.1,0 0.1,0 0.1,0 0.1,0 0,3.1 0.1,0 0.1,0 0.1,0 0.1,0 0.1,0 0.1,0 0.1,0 0.1,0 0.1,0 0.1,0 0.1,0 0.1,0 0.1,0 0.1,0 0.1,0 0,3.3 0.1,0 0.1,0 0.1,0 0.1,0 0.1,0 0.1,0 0.1,0 0.1,0 0.1,0 0.1,0 0.1,0 0.1,0 0.1,0 0.1,0 0.1,0 0.1,0 0,3.8 0.1,0 0.1,0 0.1,0 0.1,0 0.1,0 0.1,0 0.1,0 0.1,0 0.1,0 0.1,0 0.1,0 0.1,0 0.1,0 0.1,0 0.1,0 0.1,0 0.1,0 0.1,0 0,4.2 0.1,0 0.1,0 0.1,0 0.1,0 0.1,0 0.1,0 0.1,0 0.1,0 0.1,0 0.1,0 0.1,0 0.1,0 0.1,0 0.1,0 0.1,0 0.1,0 0.1,0 0.1,0 0.1,0 0,4.7 0.1,0 0.1,0 0.1,0 0.1,0 0.1,0 0.1,0 0.1,0 0.1,0 0.1,0 0.1,0 0.1,0 0.1,0 0.1,0 0.1,0 0.1,0 0.1,0 0.1,0 0.1,0 0.1,0 0.1,0 0.1,0 0.1,0 0.1,0 0,5.5 0.1,0 0.1,0 0.1,0 0.1,0 0.1,0 0.1,0 0.1,0 0.1,0 0.1,0 0.1,0 0.1,0 0.1,0 0.1,0 0.1,0 0.1,0 0.1,0 0.1,0 0.1,0 0.1,0 0.1,0 0.1,0 0.1,0 0.1,0 0.1,0 0.1,0 0.1,0 0.1,6.5 0.1,0 0.1,0 0.1,0 0.1,0 0.1,0 0.1,0 0.1,0 0.1,0 0.1,0 0.1,0 0.1,0 0.1,0 0.1,0 0.1,0 0.1,0 0.1,0 0.1,0 0.1,0 0.1,0 0.1,0 0.1,0 0.1,0 0.1,0 0.1,0 0.1,0 0.1,0 0,8 0.1,0 0.1,0 0.1,0 0.1,0 0.1,0 0.1,0 0.1,0 0.1,0 0.1,0 0.1,0 0.1,0 0.1,0 0.1,0 0.1,0 0.1,0 0.1,0 0.1,0 0.1,0 0.1,0 0.1,0 0.1,0 0.1,0 0.1,0 0.1,0 0.1,0 0.1,0 0.1,0 0.1,0 0.1,0 0.1,0 0.1,0 0.1,0 0.1,0 0,10.2 0.1,0 0.1,0 0.1,0 0.1,0 0.1,0 0.1,0 0.1,0 0.1,0 0.1,0 0.1,0 0.1,0 0.1,0 0.1,0 0.1,0 0.1,0 0.1,0 0.1,0 0.1,0 0.1,0 0.1,0 0.1,0 0.1,0 0.1,0 0.1,0 0.1,0 0.1,0 0.1,0 0.1,0 0.1,0 0.1,0 0.1,0 0.1,0 0.1,0 0.1,0 0.1,0 0.1,0 0.1,0 0.1,0 0.1,0 0.1,0 0.1,0 0,14.4 0.1,0 0.1,0 0.1,0 0.1,0 0.1,0 0.1,0 0.1,0 0.1,0 0.1,0 0.1,0 0.1,0 0.1,0 0.1,0 0.1,0 0.1,0 0.1,0 0.1,0 0.1,0 0.1,0 0.1,0 0.1,0 0.1,0 0.1,0 0.1,0 0.1,0 0.1,0 0.1,0 0.1,0 0.1,0 0.1,0 0.1,0 0.1,0 0.1,0 0.1,0 0.1,0 0.1,0 0.1,0 0.1,0 0.1,0 0.1,0 0.1,0 0.1,0 0.1,0 0.1,0 0.1,0 0.1,0 0.1,0 0.1,0 0.1,0 0.1,0 0.1,0 0.1,0 0.1,0 0,24.7 0.1,0 0.1,0 0.1,0 0.1,0 0.1,0 0.1,0 0.1,0 0.1,0 0.1,0 0.1,0 0.1,0 0.1,0 0.1,0 0.1,0 0.1,0 0.1,0 0.1,0 0.1,0 0.1,0 0.1,0 0.1,0 0.1,0 0.1,0 0.1,0 0.1,0 0.1,0 0.1,0 0.1,0 0.1,0 0.1,0 0.1,0 0.1,0 0.1,0 0.1,0 0.1,0 0.1,0 0.1,0 0.1,0 0.1,0 0.1,0 0.1,0 0.1,0 0.1,0 0.1,0 0.1,0 0.1,0 0.1,0 0.1,0 0.1,0 0.1,0 0.1,0 0.1,0 0.1,0 0.1,0 0.1,0 0.1,0 0.1,0 0.1,0 0.1,0 0.1,0 0.1,0 0.1,0 0.1,0 0.1,0 0.1,0 0.1,0 0.1,0 0.1,0 0.1,0 0.1,0 0.1,0 0.1,0 0.1,0 0.1,0 0.1,0 0.1,0 0.1,0"
         id="path6337"
         style="stroke:#000000"
         inkscape:connector-curvature="0" />
    </g>
  </a>
  <a
     xlink:title="Plot #2"
     id="a6339"
     transform="translate(-17.527874,-26.275)">
    <g
       style="color:#008000;fill:none;stroke:currentColor;stroke-width:5;stroke-linecap:butt;stroke-linejoin:miter"
       id="g6341">
      <g
         transform="translate(540,78.4)"
         style="font-size:15px;text-anchor:end;fill:#000000;stroke:none;font-family:Arial"
         id="g6343" />
    </g>
  </a>
  <a
     xlink:title="Plot #3"
     id="a6351"
     transform="translate(-17.527874,-26.275)">
    <g
       style="color:#0000ff;fill:none;stroke:currentColor;stroke-width:5;stroke-linecap:butt;stroke-linejoin:miter"
       id="g6353">
      <g
         transform="translate(540,96.4)"
         style="font-size:15px;text-anchor:end;fill:#000000;stroke:none;font-family:Arial"
         id="g6355" />
    </g>
  </a>
  <a
     xlink:title="Plot #4"
     id="a6363"
     transform="translate(-17.527874,-26.275)">
    <g
       style="color:#00ffff;fill:none;stroke:currentColor;stroke-width:5;stroke-linecap:butt;stroke-linejoin:miter"
       id="g6365">
      <g
         transform="translate(540,114.4)"
         style="font-size:15px;text-anchor:end;fill:#000000;stroke:none;font-family:Arial"
         id="g6367" />
    </g>
  </a>
  <g
     style="color:#ffffff;fill:none;stroke:#00ff00;stroke-width:0.5;stroke-linecap:butt;stroke-linejoin:miter"
     id="g6375"
     transform="translate(-17.527874,-26.275)" />
  <g
     style="color:#000000;fill:none;stroke:currentColor;stroke-width:0.5;stroke-linecap:butt;stroke-linejoin:miter"
     id="g6377"
     transform="translate(-17.527874,-26.275)" />
</svg>
