<?xml version="1.0" encoding="UTF-8" standalone="no"?>
<!-- Created with Inkscape (http://www.inkscape.org/) -->

<svg
   xmlns:dc="http://purl.org/dc/elements/1.1/"
   xmlns:cc="http://creativecommons.org/ns#"
   xmlns:rdf="http://www.w3.org/1999/02/22-rdf-syntax-ns#"
   xmlns:svg="http://www.w3.org/2000/svg"
   xmlns="http://www.w3.org/2000/svg"
   xmlns:sodipodi="http://sodipodi.sourceforge.net/DTD/sodipodi-0.dtd"
   xmlns:inkscape="http://www.inkscape.org/namespaces/inkscape"
   width="676.97339"
   height="534.99036"
   id="svg2"
   version="1.1"
   inkscape:version="0.48.4 r9939"
   sodipodi:docname="New document 1">
  <defs
     id="defs4" />
  <sodipodi:namedview
     id="base"
     pagecolor="#ffffff"
     bordercolor="#666666"
     borderopacity="1.0"
     inkscape:pageopacity="0.0"
     inkscape:pageshadow="2"
     inkscape:zoom="0.83261719"
     inkscape:cx="351.40097"
     inkscape:cy="278.19125"
     inkscape:document-units="px"
     inkscape:current-layer="layer1"
     showgrid="false"
     fit-margin-top="0"
     fit-margin-left="0"
     fit-margin-right="0"
     fit-margin-bottom="0"
     inkscape:window-width="1348"
     inkscape:window-height="769"
     inkscape:window-x="0"
     inkscape:window-y="24"
     inkscape:window-maximized="0" />
  <metadata
     id="metadata7">
    <rdf:RDF>
      <cc:Work
         rdf:about="">
        <dc:format>image/svg+xml</dc:format>
        <dc:type
           rdf:resource="http://purl.org/dc/dcmitype/StillImage" />
        <dc:title></dc:title>
      </cc:Work>
    </rdf:RDF>
  </metadata>
  <g
     inkscape:label="Layer 1"
     inkscape:groupmode="layer"
     id="layer1"
     transform="translate(-23.599026,-275.56306)">
    <path
       inkscape:connector-curvature="0"
       d="m 96.876004,754.95058 12.499996,0 m 579.4975,0 -12.5,0"
       style="fill:none;stroke:#000000;stroke-width:0.5;stroke-linecap:butt;stroke-linejoin:miter;stroke-miterlimit:4;stroke-opacity:1;stroke-dasharray:none"
       id="path2999" />
    <text
       id="text3001"
       x="59.428253"
       y="760.51038"
       style="font-size:18px">
      <tspan
         id="tspan3003"
         sodipodi:role="line"
         y="760.51038"
         x="59.428253 69.436256"
         style="font-size:18px;font-variant:normal;font-weight:normal;writing-mode:lr-tb;fill:#000000;fill-opacity:1;fill-rule:nonzero;stroke:none;font-family:Arial;-inkscape-font-specification:ArialMT">10</tspan>
    </text>
    <text
       id="text3005"
       x="76.837265"
       y="752.7984"
       style="font-size:18px">
      <tspan
         id="tspan3007"
         sodipodi:role="line"
         y="752.7984"
         x="76.837265 81.632462"
         style="font-size:14.39999962px;font-variant:normal;font-weight:normal;writing-mode:lr-tb;fill:#000000;fill-opacity:1;fill-rule:nonzero;stroke:none;font-family:Arial;-inkscape-font-specification:ArialMT">-6</tspan>
    </text>
    <path
       inkscape:connector-curvature="0"
       d="m 96.876004,661.55183 12.499996,0 m 579.4975,0 -12.5,0"
       style="fill:none;stroke:#000000;stroke-width:2;stroke-linecap:butt;stroke-linejoin:miter;stroke-miterlimit:4;stroke-opacity:1;stroke-dasharray:none"
       id="path3011" />
    <text
       id="text3013"
       x="59.428253"
       y="667.11041"
       style="font-size:18px">
      <tspan
         id="tspan3015"
         sodipodi:role="line"
         y="667.11041"
         x="59.428253 69.436256"
         style="font-size:18px;font-variant:normal;font-weight:normal;writing-mode:lr-tb;fill:#000000;fill-opacity:1;fill-rule:nonzero;stroke:none;font-family:Arial;-inkscape-font-specification:ArialMT">10</tspan>
    </text>
    <text
       id="text3017"
       x="76.830231"
       y="659.38324"
       style="font-size:18px">
      <tspan
         id="tspan3019"
         sodipodi:role="line"
         y="659.38324"
         x="76.830231 81.625435"
         style="font-size:14.39999962px;font-variant:normal;font-weight:normal;writing-mode:lr-tb;fill:#000000;fill-opacity:1;fill-rule:nonzero;stroke:none;font-family:Arial;-inkscape-font-specification:ArialMT">-5</tspan>
    </text>
    <path
       inkscape:connector-curvature="0"
       d="m 96.876004,568.14933 12.499996,0 m 579.4975,0 -12.5,0"
       style="fill:none;stroke:#000000;stroke-width:2;stroke-linecap:butt;stroke-linejoin:miter;stroke-miterlimit:4;stroke-opacity:1;stroke-dasharray:none"
       id="path3023" />
    <text
       id="text3025"
       x="59.428253"
       y="573.71039"
       style="font-size:18px">
      <tspan
         id="tspan3027"
         sodipodi:role="line"
         y="573.71039"
         x="59.428253 69.436256"
         style="font-size:18px;font-variant:normal;font-weight:normal;writing-mode:lr-tb;fill:#000000;fill-opacity:1;fill-rule:nonzero;stroke:none;font-family:Arial;-inkscape-font-specification:ArialMT">10</tspan>
    </text>
    <text
       id="text3029"
       x="76.840195"
       y="566.00958"
       style="font-size:18px">
      <tspan
         id="tspan3031"
         sodipodi:role="line"
         y="566.00958"
         x="76.840195 81.635391"
         style="font-size:14.39999962px;font-variant:normal;font-weight:normal;writing-mode:lr-tb;fill:#000000;fill-opacity:1;fill-rule:nonzero;stroke:none;font-family:Arial;-inkscape-font-specification:ArialMT">-4</tspan>
    </text>
    <path
       inkscape:connector-curvature="0"
       d="m 96.876004,474.85308 12.499996,0 m 579.4975,0 -12.5,0"
       style="fill:none;stroke:#000000;stroke-width:2;stroke-linecap:butt;stroke-linejoin:miter;stroke-miterlimit:4;stroke-opacity:1;stroke-dasharray:none"
       id="path3035" />
    <text
       id="text3037"
       x="59.428253"
       y="480.4104"
       style="font-size:18px">
      <tspan
         id="tspan3039"
         sodipodi:role="line"
         y="480.4104"
         x="59.428253 69.436256"
         style="font-size:18px;font-variant:normal;font-weight:normal;writing-mode:lr-tb;fill:#000000;fill-opacity:1;fill-rule:nonzero;stroke:none;font-family:Arial;-inkscape-font-specification:ArialMT">10</tspan>
    </text>
    <text
       id="text3041"
       x="76.836678"
       y="472.69785"
       style="font-size:18px">
      <tspan
         id="tspan3043"
         sodipodi:role="line"
         y="472.69785"
         x="76.836678 81.631882"
         style="font-size:14.39999962px;font-variant:normal;font-weight:normal;writing-mode:lr-tb;fill:#000000;fill-opacity:1;fill-rule:nonzero;stroke:none;font-family:Arial;-inkscape-font-specification:ArialMT">-3</tspan>
    </text>
    <path
       inkscape:connector-curvature="0"
       d="m 96.876004,381.44933 12.499996,0 m 579.4975,0 -12.5,0"
       style="fill:none;stroke:#000000;stroke-width:2;stroke-linecap:butt;stroke-linejoin:miter;stroke-miterlimit:4;stroke-opacity:1;stroke-dasharray:none"
       id="path3047" />
    <text
       id="text3049"
       x="59.428253"
       y="387.01041"
       style="font-size:18px">
      <tspan
         id="tspan3051"
         sodipodi:role="line"
         y="387.01041"
         x="59.428253 69.436256"
         style="font-size:18px;font-variant:normal;font-weight:normal;writing-mode:lr-tb;fill:#000000;fill-opacity:1;fill-rule:nonzero;stroke:none;font-family:Arial;-inkscape-font-specification:ArialMT">10</tspan>
    </text>
    <text
       id="text3053"
       x="76.845467"
       y="379.31308"
       style="font-size:18px">
      <tspan
         id="tspan3055"
         sodipodi:role="line"
         y="379.31308"
         x="76.845467 81.640671"
         style="font-size:14.39999962px;font-variant:normal;font-weight:normal;writing-mode:lr-tb;fill:#000000;fill-opacity:1;fill-rule:nonzero;stroke:none;font-family:Arial;-inkscape-font-specification:ArialMT">-2</tspan>
    </text>
    <path
       inkscape:connector-curvature="0"
       d="m 96.876004,288.05058 12.499996,0 m 579.4975,0 -12.5,0"
       style="fill:none;stroke:#000000;stroke-width:0.5;stroke-linecap:butt;stroke-linejoin:miter;stroke-miterlimit:4;stroke-opacity:1;stroke-dasharray:none"
       id="path3059" />
    <text
       id="text3061"
       x="59.428253"
       y="293.61038"
       style="font-size:18px">
      <tspan
         id="tspan3063"
         sodipodi:role="line"
         y="293.61038"
         x="59.428253 69.436256"
         style="font-size:18px;font-variant:normal;font-weight:normal;writing-mode:lr-tb;fill:#000000;fill-opacity:1;fill-rule:nonzero;stroke:none;font-family:Arial;-inkscape-font-specification:ArialMT">10</tspan>
    </text>
    <text
       id="text3065"
       x="77.002495"
       y="285.91306"
       style="font-size:18px">
      <tspan
         id="tspan3067"
         sodipodi:role="line"
         y="285.91306"
         x="77.002495 81.797699"
         style="font-size:14.39999962px;font-variant:normal;font-weight:normal;writing-mode:lr-tb;fill:#000000;fill-opacity:1;fill-rule:nonzero;stroke:none;font-family:Arial;-inkscape-font-specification:ArialMT">-1</tspan>
    </text>
    <path
       inkscape:connector-curvature="0"
       d="m 96.876004,754.95058 0,-12.5 m 0,-454.4 0,12.5"
       style="fill:none;stroke:#000000;stroke-width:0.5;stroke-linecap:butt;stroke-linejoin:miter;stroke-miterlimit:4;stroke-opacity:1;stroke-dasharray:none"
       id="path3071" />
    <text
       id="text3073"
       x="83.425522"
       y="778.51038"
       style="font-size:18px">
      <tspan
         id="tspan3075"
         sodipodi:role="line"
         y="778.51038"
         x="83.425522 93.433517"
         style="font-size:18px;font-variant:normal;font-weight:normal;writing-mode:lr-tb;fill:#000000;fill-opacity:1;fill-rule:nonzero;stroke:none;font-family:Arial;-inkscape-font-specification:ArialMT">10</tspan>
    </text>
    <text
       id="text3077"
       x="101.22475"
       y="770.7984"
       style="font-size:18px">
      <tspan
         id="tspan3079"
         y="770.7984"
         x="101.22475"
         style="font-size:14.39999962px;font-variant:normal;font-weight:normal;writing-mode:lr-tb;fill:#000000;fill-opacity:1;fill-rule:nonzero;stroke:none;font-family:Arial;-inkscape-font-specification:ArialMT">0</tspan>
    </text>
    <path
       inkscape:connector-curvature="0"
       d="m 244.87475,754.95058 0,-12.5 m 0,-454.4 0,12.5"
       style="fill:none;stroke:#000000;stroke-width:2;stroke-linecap:butt;stroke-linejoin:miter;stroke-miterlimit:4;stroke-opacity:1;stroke-dasharray:none"
       id="path3083" />
    <text
       id="text3085"
       x="231.42552"
       y="778.51038"
       style="font-size:18px">
      <tspan
         id="tspan3087"
         sodipodi:role="line"
         y="778.51038"
         x="231.42552 241.43352"
         style="font-size:18px;font-variant:normal;font-weight:normal;writing-mode:lr-tb;fill:#000000;fill-opacity:1;fill-rule:nonzero;stroke:none;font-family:Arial;-inkscape-font-specification:ArialMT">10</tspan>
    </text>
    <text
       id="text3089"
       x="249.30679"
       y="770.81305"
       style="font-size:18px">
      <tspan
         id="tspan3091"
         y="770.81305"
         x="249.30679"
         style="font-size:14.39999962px;font-variant:normal;font-weight:normal;writing-mode:lr-tb;fill:#000000;fill-opacity:1;fill-rule:nonzero;stroke:none;font-family:Arial;-inkscape-font-specification:ArialMT">1</tspan>
    </text>
    <path
       inkscape:connector-curvature="0"
       d="m 392.87225,754.95058 0,-12.5 m 0,-454.4 0,12.5"
       style="fill:none;stroke:#000000;stroke-width:2;stroke-linecap:butt;stroke-linejoin:miter;stroke-miterlimit:4;stroke-opacity:1;stroke-dasharray:none"
       id="path3095" />
    <text
       id="text3097"
       x="379.42554"
       y="778.51038"
       style="font-size:18px">
      <tspan
         id="tspan3099"
         sodipodi:role="line"
         y="778.51038"
         x="379.42554 389.43353"
         style="font-size:18px;font-variant:normal;font-weight:normal;writing-mode:lr-tb;fill:#000000;fill-opacity:1;fill-rule:nonzero;stroke:none;font-family:Arial;-inkscape-font-specification:ArialMT">10</tspan>
    </text>
    <text
       id="text3101"
       x="397.24527"
       y="770.81305"
       style="font-size:18px">
      <tspan
         id="tspan3103"
         y="770.81305"
         x="397.24527"
         style="font-size:14.39999962px;font-variant:normal;font-weight:normal;writing-mode:lr-tb;fill:#000000;fill-opacity:1;fill-rule:nonzero;stroke:none;font-family:Arial;-inkscape-font-specification:ArialMT">2</tspan>
    </text>
    <path
       inkscape:connector-curvature="0"
       d="m 540.876,754.95058 0,-12.5 m 0,-454.4 0,12.5"
       style="fill:none;stroke:#000000;stroke-width:2;stroke-linecap:butt;stroke-linejoin:miter;stroke-miterlimit:4;stroke-opacity:1;stroke-dasharray:none"
       id="path3107" />
    <text
       id="text3109"
       x="527.42554"
       y="778.51038"
       style="font-size:18px">
      <tspan
         id="tspan3111"
         sodipodi:role="line"
         y="778.51038"
         x="527.42554 537.43353"
         style="font-size:18px;font-variant:normal;font-weight:normal;writing-mode:lr-tb;fill:#000000;fill-opacity:1;fill-rule:nonzero;stroke:none;font-family:Arial;-inkscape-font-specification:ArialMT">10</tspan>
    </text>
    <text
       id="text3113"
       x="545.22125"
       y="770.79785"
       style="font-size:18px">
      <tspan
         id="tspan3115"
         y="770.79785"
         x="545.22125"
         style="font-size:14.39999962px;font-variant:normal;font-weight:normal;writing-mode:lr-tb;fill:#000000;fill-opacity:1;fill-rule:nonzero;stroke:none;font-family:Arial;-inkscape-font-specification:ArialMT">3</tspan>
    </text>
    <path
       inkscape:connector-curvature="0"
       d="m 688.8735,754.95058 0,-12.5 m 0,-454.4 0,12.5"
       style="fill:none;stroke:#000000;stroke-width:0.5;stroke-linecap:butt;stroke-linejoin:miter;stroke-miterlimit:4;stroke-opacity:1;stroke-dasharray:none"
       id="path3119" />
    <text
       id="text3121"
       x="675.42554"
       y="778.51038"
       style="font-size:18px">
      <tspan
         id="tspan3123"
         sodipodi:role="line"
         y="778.51038"
         x="675.42554 685.43353"
         style="font-size:18px;font-variant:normal;font-weight:normal;writing-mode:lr-tb;fill:#000000;fill-opacity:1;fill-rule:nonzero;stroke:none;font-family:Arial;-inkscape-font-specification:ArialMT">10</tspan>
    </text>
    <text
       id="text3125"
       x="693.25989"
       y="770.80957"
       style="font-size:18px">
      <tspan
         id="tspan3127"
         y="770.80957"
         x="693.25989"
         style="font-size:14.39999962px;font-variant:normal;font-weight:normal;writing-mode:lr-tb;fill:#000000;fill-opacity:1;fill-rule:nonzero;stroke:none;font-family:Arial;-inkscape-font-specification:ArialMT">4</tspan>
    </text>
    <path
       inkscape:connector-curvature="0"
       d="m 96.876004,288.05058 0,466.9 591.997496,0 0,-466.9 -591.997497,0 z"
       style="fill:none;stroke:#000000;stroke-width:2;stroke-linecap:butt;stroke-linejoin:miter;stroke-miterlimit:4;stroke-opacity:1;stroke-dasharray:none"
       id="path3131" />
    <text
       id="text3133"
       transform="matrix(0,-1,1,0,0,0)"
       x="-588.37872"
       y="44.442104"
       style="font-size:15px">
      <tspan
         id="tspan3135"
         sodipodi:role="line"
         y="44.442104"
         x="-588.37872 -572.18927 -562.46393 -546.2453 -530.05585 -513.83728 -497.6478 -491.15454 -484.6904 -478.19714 -470.16064"
         style="font-size:29.11775208px;font-variant:normal;font-weight:normal;writing-mode:lr-tb;fill:#000000;fill-opacity:1;fill-rule:nonzero;stroke:none;font-family:Arial;-inkscape-font-specification:ArialMT">probability</tspan>
    </text>
    <text
       id="text3137"
       x="361.90924"
       y="810.18671"
       style="font-size:15.63916397px">
      <tspan
         id="tspan3139"
         sodipodi:role="line"
         y="810.18671"
         x="361.90924 372.3613 389.76053 407.19104"
         style="font-size:31.29355812px;font-variant:normal;font-weight:normal;writing-mode:lr-tb;fill:#000000;fill-opacity:1;fill-rule:nonzero;stroke:none;font-family:Arial;-inkscape-font-specification:ArialMT">rank</tspan>
    </text>
    <text
       id="text3145"
       x="571.73572"
       y="310.55057"
       style="font-size:15px">
      <tspan
         id="tspan3147"
         sodipodi:role="line"
         y="310.55057"
         x="571.73572 580.07568 583.42072 590.92072 598.42072 605.92072 614.26068"
         style="font-size:15px;font-variant:normal;font-weight:normal;writing-mode:lr-tb;fill:#000000;fill-opacity:1;fill-rule:nonzero;stroke:none;font-family:Arial;-inkscape-font-specification:ArialMT">ulysses</tspan>
    </text>
    <path
       inkscape:connector-curvature="0"
       d="m 630.07475,306.04933 42.2025,0 m -575.401247,57.2025 44.599997,0.2975 26.00125,2.6025 18.49625,3.89625 14.30125,4.7025 11.8025,2.6025 9.8975,0.2975 8.5975,8.19875 7.5,0.6 6.8025,6.09875 6.09875,0.70375 5.6,1.20125 5.2,0.595 4.7025,0.1025 4.4975,1.7 4.10125,1.69875 3.90125,3.60375 3.69625,1.99625 3.50125,5.30375 3.30125,2.19625 3.1,0.70375 2.9975,0.2975 2.80375,2.5975 2.7975,4.00375 2.6025,0.60125 2.5,0.195 2.3975,0.70375 2.4025,0.4975 2.1975,0.1025 2.20125,3.30125 2.1,0.2 2.1,0.0975 1.89875,0.80125 2.0025,2.9975 1.79625,0.80125 1.8025,1.09875 1.80125,0.4 1.69875,2.4025 1.7,1.59625 1.60125,0 1.59625,0.5025 1.505,0.0987 1.59625,1.30375 1.40125,0.0975 1.49875,0.6 1.40125,0 1.40125,0.80125 1.29875,1.29875 1.3,1.69875 1.29875,1.60125 1.30375,0.20125 1.29875,0.6975 1.20125,0.60125 1.19625,0.4 1.20125,0 1.0975,0.2 1.20125,0.0975 1.09875,0.60125 1.10375,0.4 1.09875,0.60125 1.00125,0 1.09875,0.4 1,0 1.00125,1.60125 0.99625,0.89875 2.0025,0.8 0.8975,0.20125 0.90375,0 1.00125,0.4975 1.79625,0.4 0.89875,0.70375 0.80125,0 0.9025,0.195 0.89875,0.70375 0.80125,0.6975 0.8,1.00125 0.79625,0.4975 0.90375,0 0.8,0.70375 0.69875,0.2 0.80125,0.60125 0.8,0.2 0.80125,1.29875 1.39625,0 0.80125,0.2975 0.6975,0.2 0.70375,0.3025 0.6975,0 0.70375,0.29875 0.6975,1.09875 0.69875,0.2 0.70375,0.3025 0.6975,0.89875 0.60125,0.3025 1.40125,0 0.595,0.2975 0.60125,0 0.7025,0.2975 0.60125,0.20125 0.595,0.6 0.60125,0 0.6,0.3025 1.20125,0 0.60125,0.29875 0.6,0.6975 0.60125,0.3025 0.595,0 0.60125,0.89875 0.5025,0.70375 0.6,0.2975 0.49875,0.2975 0.6,0 0.49875,0.3025 0.6,0.40125 0.50375,0.2975 0.595,0 0.5025,0.4 0.49875,0 0.5025,0.3025 0.49875,0.69875 0.6,0 0.49875,1.09875 0.5025,0.3025 0.4975,0 0.50375,0.4 0.4975,0.29875 0.4,0.8 0.49875,0.40125 0.5025,0.2975 0.49875,0 0.4975,0.4 0.4,0.40125 0.50375,0.4 0.4975,0.4 0.40125,0 0.5025,0.80125 0.395,0.4 0.50375,0.80125 0.4,0.4975 0.4975,0.4 0.40125,0 0.4975,0.40125 0.80125,0 0.5025,0.89875 0.4,0.4 0.40125,0.4975 0.8975,0 0.40125,0.40125 0.8,0 0.40125,0.5025 0.395,0.4975 1.20125,0 0.4,0.40125 0.40125,0.4975 0.4,0 0.4,0.5025 0.40125,0.49875 0.2975,0 0.4,0.5025 0.80125,0 0.4,0.49875 0.2975,0 0.40125,0.4975 0.4,0 0.3025,0.5025 0.80125,0 0.2975,0.49875 0.69875,0 0.4,0.5025 0.3025,0 0.40125,0.49875 0.2975,0.6 0.4,0.49875 0.2975,0.6 1.705,0 0.395,0.5025 0.3025,0 0.29875,0.60125 0.4,0.595 0.6,0 0.30375,0.60125 0.4,0 0.2975,0.6 0.60125,0 0.2975,0.60125 0.7025,0 0.29875,0.6 0.3025,0 0.595,1.20125 0.90375,0 0.2975,0.60125 0.60125,0 0.2975,0.6975 1.50375,0 0.2,0.69875 0.60125,0 0.2975,0.6 1.40125,0 0.29875,0.70375 0.8,0 0.2975,0.6975 2.4025,0 0.29875,0.69875 1,0 0.30375,0.70375 1.19625,0 0.3025,0.795 1.00125,0 0.2,0.70375 1.49875,0 0.2,0.8 1.19625,0 0.2,0.69875 1.40125,0 0.20125,0.80125 1.40125,0 0.2,0.8 1.09875,0 0.2,0.80125 2.4025,0 0.2,0.89875 1.39625,0 0.2,0.8 1.49875,0 0.20125,0.89875 1.50375,0 0.2,0.89875 1.39625,0 0.2,0.9025 0.90375,0 0.195,0.89875 1.60125,0 0.20125,1.00125 1.60125,0 0.2,1.00125 2.1975,0 0.2,0.99625 2.7,0 0.1025,1 1.49875,0 0.0975,1.09875 2.3,0 0.2,1.00125 2.4025,0 0.0975,1.10375 2.3,0 0.2,1.19625 2.5,0 0.1025,1.20125 2.1,0 0.0975,1.20125 2.5,0 0.1025,1.20125 2.7,0 0.0987,1.29875 2.40125,0 0.0987,1.29875 2.9,0 0.1025,1.40125 3.19875,0 0.2,1.39625 2.09875,0 0.1025,1.50375 3.10125,0 0.0975,1.49875 2.7,0 0.0975,1.6025 3.20375,0 0.0975,1.69875 3.60375,0 0.0975,1.69875 3.1975,0 0.1025,1.8025 3.39875,0 0.1025,1.89875 3.10125,0 0.0975,1.9975 4.19875,0 0,2.1 3.59875,0 0,2.20125 4.3025,0 0.1025,2.3 3.69625,0 0,2.3975 3.80375,0 0.0975,2.6025 4.10125,0 0,2.79875 4.8975,0 0,3.1 5.4,0 0,3.20375 5.3025,0 0.0987,3.495 5.6,0 0.0975,3.9025 6.20125,0 0.1025,4.30125 7.1975,0 0,4.6975 6.10375,0 0,5.5025 6.29875,0 0,6.19625 6.79625,0 0,7.4025 7.5,0 0,9.10125 7.7,0 0,11.5975 9.3025,0 0,16.50375 11.00125,0 0,28.095 14.49625,0"
       style="fill:none;stroke:#000000;stroke-width:3;stroke-linecap:butt;stroke-linejoin:miter;stroke-miterlimit:4;stroke-opacity:1;stroke-dasharray:none"
       id="path3151" />
  </g>
</svg>
