<?xml version="1.0" encoding="UTF-8" standalone="no"?>
<!-- Created with Inkscape (http://www.inkscape.org/) -->

<svg
   xmlns:dc="http://purl.org/dc/elements/1.1/"
   xmlns:cc="http://creativecommons.org/ns#"
   xmlns:rdf="http://www.w3.org/1999/02/22-rdf-syntax-ns#"
   xmlns:svg="http://www.w3.org/2000/svg"
   xmlns="http://www.w3.org/2000/svg"
   xmlns:sodipodi="http://sodipodi.sourceforge.net/DTD/sodipodi-0.dtd"
   xmlns:inkscape="http://www.inkscape.org/namespaces/inkscape"
   width="189.74512"
   height="160.45665"
   id="svg15796"
   version="1.1"
   inkscape:version="0.48.3.1 r9886"
   sodipodi:docname="cancho_figA.pdf">
  <defs
     id="defs15798">
    <clipPath
       id="clipPath3030"
       clipPathUnits="userSpaceOnUse">
      <path
         inkscape:connector-curvature="0"
         id="path3032"
         d="m 1732.68,7272.86 0,-1320.5 1535.29,0 0,1320.5" />
    </clipPath>
  </defs>
  <sodipodi:namedview
     id="base"
     pagecolor="#ffffff"
     bordercolor="#666666"
     borderopacity="1.0"
     inkscape:pageopacity="0.0"
     inkscape:pageshadow="2"
     inkscape:zoom="0.35"
     inkscape:cx="367.01541"
     inkscape:cy="71.656901"
     inkscape:document-units="px"
     inkscape:current-layer="layer1"
     showgrid="false"
     fit-margin-top="0"
     fit-margin-left="0"
     fit-margin-right="0"
     fit-margin-bottom="0"
     inkscape:window-width="513"
     inkscape:window-height="438"
     inkscape:window-x="851"
     inkscape:window-y="314"
     inkscape:window-maximized="0" />
  <metadata
     id="metadata15801">
    <rdf:RDF>
      <cc:Work
         rdf:about="">
        <dc:format>image/svg+xml</dc:format>
        <dc:type
           rdf:resource="http://purl.org/dc/dcmitype/StillImage" />
        <dc:title></dc:title>
      </cc:Work>
    </rdf:RDF>
  </metadata>
  <g
     inkscape:label="Layer 1"
     inkscape:groupmode="layer"
     id="layer1"
     transform="translate(-7.984591,-443.56243)">
    <g
       transform="translate(-197.47144,231.24324)"
       id="g15693">
      <g
         transform="matrix(0.125,0,0,-0.125,-12.883252,1119.4954)"
         id="g3026">
        <g
           id="g3028"
           clip-path="url(#clipPath3030)">
          <path
             inkscape:connector-curvature="0"
             d="m 1904.59,6188.75 11.74,1.36 11.73,1.91 12.01,2.18 11.74,-2.73 11.74,3.01 11.74,-3.56 11.73,-1.09 11.74,3.01 12.01,2.72 11.74,-6.81 11.73,7.9 11.74,-3.54 11.74,3 11.73,0 12.01,-1.91 11.74,0.55 11.74,0.55 11.74,2.99 11.73,-2.18 12.01,1.64 11.74,0.54 11.73,0.82 11.74,0.55 11.74,1.91 11.74,0.27 12.01,5.19 11.73,1.64 11.74,-1.36 11.73,0.54 11.74,6.28 12.01,6 11.74,-0.27 11.74,4.64 11.74,0.82 11.73,2.18 11.74,11.19 12.01,5.47 11.73,1.35 11.74,-1.63 11.74,15.28 11.73,4.91 11.74,8.19 12.01,-0.55 11.74,13.92 11.74,0.28 11.73,-14.73 11.74,22.37 12.01,1.92 11.74,-8.2 11.73,829.23 11.74,74.79 11.74,0.55 11.74,0.55 12.01,0.81 11.73,0.28 11.74,1.64 11.74,0.27 11.73,0.27 12.01,0.55 11.74,-0.28 11.74,1.1 11.73,0 11.74,0.81 11.74,0.28 12.01,0.27 11.73,-0.82 11.74,1.37 11.74,1.63 11.73,-4.09 11.74,-0.82 12.01,3 11.74,-4.64 11.74,4.64 11.73,-2.73 11.74,3.01 12.01,-1.37 11.74,-1.09 11.73,0.82 11.74,-6.28 11.74,7.92 11.73,-3.01 12.01,-6.55 11.74,2.19 11.74,-3 11.73,-1.1 11.74,-1.91 12.01,2.46 11.74,0.82 11.74,-8.19 11.73,-0.27 11.74,-2.19 11.73,-0.55 12.02,-2.18 11.73,0.28 11.74,-4.1 11.74,0.27 11.73,0.55 11.74,-1.64 12.01,2.73 11.74,-0.55"
             style="fill:none;stroke:#231f20;stroke-width:12.28279972;stroke-linecap:butt;stroke-linejoin:miter;stroke-miterlimit:10;stroke-opacity:1;stroke-dasharray:none"
             id="path3034" />
          <path
             inkscape:connector-curvature="0"
             d="m 1904.59,6139.61 1178.61,0 m -1178.61,1091.81 1178.61,0 m -1060.69,-1091.81 0,27.29 m 0,1064.52 0,-27.29 m 235.55,-1064.52 0,27.29 m 0,1064.52 0,-27.29 m 235.83,-1064.52 0,27.29 m 0,1064.52 0,-27.29 m 235.56,-1064.52 0,27.29 m 0,1064.52 0,-27.29 m 235.83,-1064.52 0,27.29 m 0,1064.52 0,-27.29 m -1060.69,-1064.52 0,54.59 m 0,1037.22 0,-54.59 m 235.83,-1037.22 0,54.59 m 0,1037.22 0,-54.59 m 235.56,-1037.22 0,54.59 m 0,1037.22 0,-54.59 m 235.83,-1037.22 0,54.59 m 0,1037.22 0,-54.59 m 235.56,-1037.22 0,54.59 m 0,1037.22 0,-54.59 m 235.83,-1037.22 0,54.59 m 0,1037.22 0,-54.59"
             style="fill:none;stroke:#231f20;stroke-width:4.09427977;stroke-linecap:butt;stroke-linejoin:miter;stroke-miterlimit:10;stroke-opacity:1;stroke-dasharray:none"
             id="path3036" />
          <g
             id="g3038"
             transform="scale(10,10)">
            <text
               transform="matrix(1,0,0,-1,185.737,606.1)"
               id="text3040">
              <tspan
                 style="font-size:7.64266014px;font-variant:normal;font-weight:normal;writing-mode:lr-tb;fill:#231f20;fill-opacity:1;fill-rule:nonzero;stroke:none;font-family:Times New Roman;-inkscape-font-specification:Times-Roman"
                 x="0 3.8213301 5.7319951 23.583185 27.404514 29.31518 47.165989 50.98732"
                 y="0"
                 sodipodi:role="line"
                 id="tspan3042">0.00.20.</tspan>
            </text>
            <text
               transform="matrix(1,0,0,-1,238.635,606.1)"
               id="text3044">
              <tspan
                 style="font-size:7.64266014px;font-variant:normal;font-weight:normal;writing-mode:lr-tb;fill:#231f20;fill-opacity:1;fill-rule:nonzero;stroke:none;font-family:Times New Roman;-inkscape-font-specification:Times-Roman"
                 x="0"
                 y="0"
                 id="tspan3046">4</tspan>
            </text>
            <text
               transform="matrix(1,0,0,-1,256.5131,605.99141)"
               id="text3048">
              <tspan
                 style="font-size:7.64266014px;font-variant:normal;font-weight:normal;writing-mode:lr-tb;fill:#231f20;fill-opacity:1;fill-rule:nonzero;stroke:none;font-family:Times New Roman;-inkscape-font-specification:Times-Roman"
                 x="0 3.8213301"
                 y="0"
                 sodipodi:role="line"
                 id="tspan3050">0.</tspan>
            </text>
            <text
               transform="matrix(1,0,0,-1,262.24513,605.99141)"
               id="text3052">
              <tspan
                 style="font-size:7.64266014px;font-variant:normal;font-weight:normal;writing-mode:lr-tb;fill:#231f20;fill-opacity:1;fill-rule:nonzero;stroke:none;font-family:Times New Roman;-inkscape-font-specification:Times-Roman"
                 x="0"
                 y="0"
                 id="tspan3054">6</tspan>
            </text>
            <text
               transform="matrix(1,0,0,-1,280.15143,606.1)"
               id="text3056">
              <tspan
                 style="font-size:7.64266014px;font-variant:normal;font-weight:normal;writing-mode:lr-tb;fill:#231f20;fill-opacity:1;fill-rule:nonzero;stroke:none;font-family:Times New Roman;-inkscape-font-specification:Times-Roman"
                 x="0 3.8213301"
                 y="0"
                 sodipodi:role="line"
                 id="tspan3058">0.</tspan>
            </text>
            <text
               transform="matrix(1,0,0,-1,285.88346,606.1)"
               id="text3060">
              <tspan
                 style="font-size:7.64266014px;font-variant:normal;font-weight:normal;writing-mode:lr-tb;fill:#231f20;fill-opacity:1;fill-rule:nonzero;stroke:none;font-family:Times New Roman;-inkscape-font-specification:Times-Roman"
                 x="0"
                 y="0"
                 id="tspan3062">8</tspan>
            </text>
            <text
               transform="matrix(1,0,0,-1,303.59756,606.1)"
               id="text3064">
              <tspan
                 style="font-size:7.64266014px;font-variant:normal;font-weight:normal;writing-mode:lr-tb;fill:#231f20;fill-opacity:1;fill-rule:nonzero;stroke:none;font-family:Times New Roman;-inkscape-font-specification:Times-Roman"
                 x="0 3.8213301 5.7319951"
                 y="0"
                 sodipodi:role="line"
                 id="tspan3066">1.0</tspan>
            </text>
          </g>
          <path
             inkscape:connector-curvature="0"
             d="m 1904.59,6139.61 0,1091.81 m 1178.61,-1091.81 0,1091.81 M 1904.59,6230.5 l 27.3,0 m 1151.31,0 -27.3,0 m -1151.31,182.06 27.3,0 m 1151.31,0 -27.3,0 m -1151.31,182.06 27.3,0 m 1151.31,0 -27.3,0 m -1151.31,181.79 27.3,0 m 1151.31,0 -27.3,0 m -1151.31,182.05 27.3,0 m 1151.31,0 -27.3,0 m -1151.31,182.06 27.3,0 m 1151.31,0 -27.3,0 m -1151.31,-1000.91 54.59,0 m 1124.02,0 -54.59,0 m -1124.02,182.07 54.59,0 m 1124.02,0 -54.59,0 m -1124.02,181.77 54.59,0 m 1124.02,0 -54.59,0 m -1124.02,182.06 54.59,0 m 1124.02,0 -54.59,0 m -1124.02,182.06 54.59,0 m 1124.02,0 -54.59,0 m -1124.02,181.79 54.59,0 m 1124.02,0 -54.59,0 m -1124.02,182.06 54.59,0 m 1124.02,0 -54.59,0"
             style="fill:none;stroke:#231f20;stroke-width:4.09427977;stroke-linecap:butt;stroke-linejoin:miter;stroke-miterlimit:10;stroke-opacity:1;stroke-dasharray:none"
             id="path3068" />
          <g
             id="g3070"
             transform="scale(10,10)">
            <text
               transform="matrix(1,0,0,-1,247.288,597.475)"
               id="text3072">
              <tspan
                 style="font-size:7.64266014px;font-variant:normal;font-weight:normal;writing-mode:lr-tb;fill:#231f20;fill-opacity:1;fill-rule:nonzero;stroke:none;font-family:Symbol;-inkscape-font-specification:Symbol"
                 x="0"
                 y="0"
                 id="tspan3074">λ</tspan>
            </text>
            <text
               transform="matrix(1,0,0,-1,184.0997,611.45)"
               id="text3076">
              <tspan
                 style="font-size:7.64266014px;font-variant:normal;font-weight:normal;writing-mode:lr-tb;fill:#231f20;fill-opacity:1;fill-rule:nonzero;stroke:none;font-family:Times New Roman;-inkscape-font-specification:Times-Roman"
                 x="0"
                 y="0"
                 id="tspan3078">0</tspan>
              <tspan
                 style="font-size:7.64266014px;font-variant:normal;font-weight:normal;writing-mode:lr-tb;fill:#231f20;fill-opacity:1;fill-rule:nonzero;stroke:none;font-family:Times New Roman;-inkscape-font-specification:Times-Roman"
                 x="0.62812501"
                 y="-18.151199"
                 id="tspan3080">1</tspan>
              <tspan
                 style="font-size:7.64266014px;font-variant:normal;font-weight:normal;writing-mode:lr-tb;fill:#231f20;fill-opacity:1;fill-rule:nonzero;stroke:none;font-family:Times New Roman;-inkscape-font-specification:Times-Roman"
                 x="0"
                 y="-36.3297"
                 id="tspan3082">2</tspan>
            </text>
            <text
               transform="matrix(1,0,0,-1,184.40009,666.0402)"
               id="text3084">
              <tspan
                 style="font-size:7.64266014px;font-variant:normal;font-weight:normal;writing-mode:lr-tb;fill:#231f20;fill-opacity:1;fill-rule:nonzero;stroke:none;font-family:Times New Roman;-inkscape-font-specification:Times-Roman"
                 x="0"
                 y="0"
                 id="tspan3086">3</tspan>
              <tspan
                 style="font-size:7.64266014px;font-variant:normal;font-weight:normal;writing-mode:lr-tb;fill:#231f20;fill-opacity:1;fill-rule:nonzero;stroke:none;font-family:Times New Roman;-inkscape-font-specification:Times-Roman"
                 x="-0.30039099"
                 y="-18.151199"
                 id="tspan3088">4</tspan>
              <tspan
                 style="font-size:7.64266014px;font-variant:normal;font-weight:normal;writing-mode:lr-tb;fill:#231f20;fill-opacity:1;fill-rule:nonzero;stroke:none;font-family:Times New Roman;-inkscape-font-specification:Times-Roman"
                 x="0"
                 y="-36.330101"
                 id="tspan3090">5</tspan>
              <tspan
                 style="font-size:7.64266014px;font-variant:normal;font-weight:normal;writing-mode:lr-tb;fill:#231f20;fill-opacity:1;fill-rule:nonzero;stroke:none;font-family:Times New Roman;-inkscape-font-specification:Times-Roman"
                 x="-0.191016"
                 y="-54.535999"
                 id="tspan3092">6</tspan>
            </text>
          </g>
          <path
             inkscape:connector-curvature="0"
             d="m 1904.59,6139.61 1178.61,0 0,1091.8 -1178.61,0 0,-1091.8 z"
             style="fill:none;stroke:#231f20;stroke-width:4.09427977;stroke-linecap:butt;stroke-linejoin:miter;stroke-miterlimit:10;stroke-opacity:1;stroke-dasharray:none"
             id="path3094" />
          <g
             id="g3096"
             transform="scale(10,10)">
            <text
               transform="matrix(0,1,1,0,179.978,659.298)"
               id="text3098">
              <tspan
                 style="font-size:7.64266014px;font-variant:normal;font-weight:normal;writing-mode:lr-tb;fill:#231f20;fill-opacity:1;fill-rule:nonzero;stroke:none;font-family:Times New Roman;-inkscape-font-specification:Times-Roman"
                 x="0 2.5450058 5.0900116 9.3393307 11.249995 16.347651"
                 y="0"
                 sodipodi:role="line"
                 id="tspan3100">I(S,R)</tspan>
            </text>
            <text
               transform="matrix(0,1,1,0,324.833,663.03745)"
               id="text3102">
              <tspan
                 style="font-size:7.64266014px;font-variant:normal;font-weight:normal;writing-mode:lr-tb;fill:#231f20;fill-opacity:1;fill-rule:nonzero;stroke:none;font-family:Times New Roman;-inkscape-font-specification:Times-Roman"
                 x="0"
                 y="0"
                 id="tspan3104">P</tspan>
            </text>
            <text
               transform="matrix(0,1,1,0,324.833,667.28628)"
               id="text3106">
              <tspan
                 style="font-size:7.64266014px;font-variant:normal;font-weight:normal;writing-mode:lr-tb;fill:#231f20;fill-opacity:1;fill-rule:nonzero;stroke:none;font-family:Times New Roman;-inkscape-font-specification:Times-Roman"
                 x="0"
                 y="0"
                 id="tspan3108">(</tspan>
            </text>
            <text
               transform="matrix(0,1,1,0,324.833,669.83159)"
               id="text3110">
              <tspan
                 style="font-size:7.64266014px;font-variant:normal;font-weight:normal;writing-mode:lr-tb;fill:#231f20;fill-opacity:1;fill-rule:nonzero;stroke:none;font-family:Times New Roman;-inkscape-font-specification:Times-Roman"
                 x="0"
                 y="0"
                 id="tspan3112">i</tspan>
            </text>
            <text
               transform="matrix(0,1,1,0,324.833,671.9562)"
               id="text3114">
              <tspan
                 style="font-size:7.64266014px;font-variant:normal;font-weight:normal;writing-mode:lr-tb;fill:#231f20;fill-opacity:1;fill-rule:nonzero;stroke:none;font-family:Times New Roman;-inkscape-font-specification:Times-Roman"
                 x="0"
                 y="0"
                 id="tspan3116">)</tspan>
            </text>
          </g>
        </g>
      </g>
    </g>
  </g>
</svg>
