<?xml version="1.0" encoding="UTF-8" standalone="no"?>
<svg
   xmlns:dc="http://purl.org/dc/elements/1.1/"
   xmlns:cc="http://creativecommons.org/ns#"
   xmlns:rdf="http://www.w3.org/1999/02/22-rdf-syntax-ns#"
   xmlns:svg="http://www.w3.org/2000/svg"
   xmlns="http://www.w3.org/2000/svg"
   xmlns:xlink="http://www.w3.org/1999/xlink"
   xmlns:sodipodi="http://sodipodi.sourceforge.net/DTD/sodipodi-0.dtd"
   xmlns:inkscape="http://www.inkscape.org/namespaces/inkscape"
   width="769"
   height="577"
   viewBox="0 0 769 577"
   id="svg3205"
   version="1.1"
   inkscape:version="0.48.3.1 r9886"
   sodipodi:docname="entropy_N_s.svg">
  <metadata
     id="metadata3385">
    <rdf:RDF>
      <cc:Work
         rdf:about="">
        <dc:format>image/svg+xml</dc:format>
        <dc:type
           rdf:resource="http://purl.org/dc/dcmitype/StillImage" />
      </cc:Work>
    </rdf:RDF>
  </metadata>
  <sodipodi:namedview
     pagecolor="#ffffff"
     bordercolor="#666666"
     borderopacity="1"
     objecttolerance="10"
     gridtolerance="10"
     guidetolerance="10"
     inkscape:pageopacity="0"
     inkscape:pageshadow="2"
     inkscape:window-width="1345"
     inkscape:window-height="769"
     id="namedview3383"
     showgrid="false"
     inkscape:zoom="0.97300152"
     inkscape:cx="329.13582"
     inkscape:cy="288.5"
     inkscape:window-x="0"
     inkscape:window-y="0"
     inkscape:window-maximized="0"
     inkscape:current-layer="svg3205" />
  <desc
     id="desc3207">Produced by GNUPLOT 4.4 patchlevel 3 </desc>
  <defs
     id="defs3209">
    <circle
       id="gpDot"
       r="0.5"
       stroke-width="0.5" />
    <path
       id="gpPt0"
       stroke-width="0.222"
       stroke="currentColor"
       d="M-1,0 h2 M0,-1 v2" />
    <path
       id="gpPt1"
       stroke-width="0.222"
       stroke="currentColor"
       d="M-1,-1 L1,1 M1,-1 L-1,1" />
    <path
       id="gpPt2"
       stroke-width="0.222"
       stroke="currentColor"
       d="M-1,0 L1,0 M0,-1 L0,1 M-1,-1 L1,1 M-1,1 L1,-1" />
    <rect
       id="gpPt3"
       stroke-width="0.222"
       stroke="currentColor"
       x="-1"
       y="-1"
       width="2"
       height="2" />
    <rect
       id="gpPt4"
       stroke-width="0.222"
       stroke="currentColor"
       fill="currentColor"
       x="-1"
       y="-1"
       width="2"
       height="2" />
    <circle
       id="gpPt5"
       stroke-width="0.222"
       stroke="currentColor"
       cx="0"
       cy="0"
       r="1" />
    <use
       xlink:href="#gpPt5"
       id="gpPt6"
       fill="currentColor"
       stroke="none" />
    <path
       id="gpPt7"
       stroke-width="0.222"
       stroke="currentColor"
       d="M0,-1.33 L-1.33,0.67 L1.33,0.67 z" />
    <use
       xlink:href="#gpPt7"
       id="gpPt8"
       fill="currentColor"
       stroke="none" />
    <use
       xlink:href="#gpPt7"
       id="gpPt9"
       stroke="currentColor"
       transform="rotate(180)" />
    <use
       xlink:href="#gpPt9"
       id="gpPt10"
       fill="currentColor"
       stroke="none" />
    <use
       xlink:href="#gpPt3"
       id="gpPt11"
       stroke="currentColor"
       transform="rotate(45)" />
    <use
       xlink:href="#gpPt11"
       id="gpPt12"
       fill="currentColor"
       stroke="none" />
  </defs>
  <g
     style="fill:none; color:white; stroke:currentColor; stroke-width:1.00; stroke-linecap:butt; stroke-linejoin:miter"
     id="g3225" />
  <g
     style="fill:none; color:white; stroke:currentColor; stroke-width:0.50; stroke-linecap:butt; stroke-linejoin:miter"
     id="g3227" />
  <g
     style="fill:none; color:black; stroke:currentColor; stroke-width:0.50; stroke-linecap:butt; stroke-linejoin:miter"
     id="g3229">
    <path
       d="M99.9,513.6 L112.4,513.6 M695.8,513.6 L683.3,513.6 "
       id="path3231" />
    <g
       transform="translate(91.6,518.1)"
       style="stroke:none; fill:rgb(0,0,0); font-family:Arial; font-size:12.00pt; text-anchor:end"
       id="g3233">
      <text
         id="text3235">
        <tspan
           id="tspan3237">0</tspan>
      </text>
    </g>
    <path
       d="M99.9,419.6 L112.4,419.6 M695.8,419.6 L683.3,419.6 "
       id="path3239"
       style="stroke-width:2;stroke-miterlimit:4;stroke-dasharray:none" />
    <g
       transform="translate(91.6,424.1)"
       style="stroke:none; fill:rgb(0,0,0); font-family:Arial; font-size:12.00pt; text-anchor:end"
       id="g3241">
      <text
         id="text3243">
        <tspan
           id="tspan3245">2</tspan>
      </text>
    </g>
    <path
       d="M99.9,325.5 L112.4,325.5 M695.8,325.5 L683.3,325.5 "
       id="path3247"
       style="stroke-width:2;stroke-miterlimit:4;stroke-dasharray:none" />
    <g
       transform="translate(91.6,330.0)"
       style="stroke:none; fill:rgb(0,0,0); font-family:Arial; font-size:12.00pt; text-anchor:end"
       id="g3249">
      <text
         id="text3251">
        <tspan
           id="tspan3253">4</tspan>
      </text>
    </g>
    <path
       d="M99.9,231.5 L112.4,231.5 M695.8,231.5 L683.3,231.5 "
       id="path3255"
       style="stroke-width:2;stroke-miterlimit:4;stroke-dasharray:none" />
    <g
       transform="translate(91.6,236.0)"
       style="stroke:none; fill:rgb(0,0,0); font-family:Arial; font-size:12.00pt; text-anchor:end"
       id="g3257">
      <text
         id="text3259">
        <tspan
           id="tspan3261">6</tspan>
      </text>
    </g>
    <path
       d="M99.9,137.4 L112.4,137.4 M695.8,137.4 L683.3,137.4 "
       id="path3263"
       style="stroke-width:2;stroke-miterlimit:4;stroke-dasharray:none" />
    <g
       transform="translate(91.6,141.9)"
       style="stroke:none; fill:rgb(0,0,0); font-family:Arial; font-size:12.00pt; text-anchor:end"
       id="g3265">
      <text
         id="text3267">
        <tspan
           id="tspan3269">8</tspan>
      </text>
    </g>
    <path
       d="M99.9,43.4 L112.4,43.4 M695.8,43.4 L683.3,43.4 "
       id="path3271" />
    <g
       transform="translate(91.6,47.9)"
       style="stroke:none; fill:rgb(0,0,0); font-family:Arial; font-size:12.00pt; text-anchor:end"
       id="g3273">
      <text
         id="text3275">
        <tspan
           id="tspan3277">10</tspan>
      </text>
    </g>
    <path
       d="M99.9,513.6 L99.9,501.1 M99.9,43.4 L99.9,55.9 "
       id="path3279" />
    <g
       transform="translate(99.9,536.1)"
       style="stroke:none; fill:rgb(0,0,0); font-family:Arial; font-size:12.00pt; text-anchor:middle"
       id="g3281">
      <text
         id="text3283">
        <tspan
           id="tspan3285">1</tspan>
      </text>
    </g>
    <path
       d="M248.9,513.6 L248.9,501.1 M248.9,43.4 L248.9,55.9 "
       id="path3287"
       style="stroke-width:2;stroke-miterlimit:4;stroke-dasharray:none" />
    <g
       transform="translate(248.9,536.1)"
       style="stroke:none; fill:rgb(0,0,0); font-family:Arial; font-size:12.00pt; text-anchor:middle"
       id="g3289">
      <text
         id="text3291">
        <tspan
           id="tspan3293">1.5</tspan>
      </text>
    </g>
    <path
       d="M397.9,513.6 L397.9,501.1 M397.9,43.4 L397.9,55.9 "
       id="path3295"
       style="stroke-width:2;stroke-miterlimit:4;stroke-dasharray:none" />
    <g
       transform="translate(397.9,536.1)"
       style="stroke:none; fill:rgb(0,0,0); font-family:Arial; font-size:12.00pt; text-anchor:middle"
       id="g3297">
      <text
         id="text3299">
        <tspan
           id="tspan3301">2</tspan>
      </text>
    </g>
    <path
       d="M546.8,513.6 L546.8,501.1 M546.8,43.4 L546.8,55.9 "
       id="path3303"
       style="stroke-width:2;stroke-miterlimit:4;stroke-dasharray:none" />
    <g
       transform="translate(546.8,536.1)"
       style="stroke:none; fill:rgb(0,0,0); font-family:Arial; font-size:12.00pt; text-anchor:middle"
       id="g3305">
      <text
         id="text3307">
        <tspan
           id="tspan3309">2.5</tspan>
      </text>
    </g>
    <path
       d="M695.8,513.6 L695.8,501.1 M695.8,43.4 L695.8,55.9 "
       id="path3311" />
    <g
       transform="translate(695.8,536.1)"
       style="stroke:none; fill:rgb(0,0,0); font-family:Arial; font-size:12.00pt; text-anchor:middle"
       id="g3313">
      <text
         id="text3315">
        <tspan
           id="tspan3317">3</tspan>
      </text>
    </g>
    <path
       d="M99.9,43.4 L99.9,513.6 L695.8,513.6 L695.8,43.4 L99.9,43.4 Z "
       id="path3319"
       style="stroke-width:2;stroke-miterlimit:4;stroke-dasharray:none" />
    <g
       transform="translate(62.2,278.5) rotate(-90)"
       style="stroke:none; fill:rgb(0,0,0); font-family:Arial; font-size:12.00pt; text-anchor:middle"
       id="g3321">
      <text
         id="text3323"
         x="0.0098147793"
         y="1.1942334"
         style="font-size:35.10066986px">
        <tspan
           id="tspan3325">H</tspan>
      </text>
    </g>
    <g
       transform="translate(397.8,563.1)"
       style="stroke:none; fill:rgb(0,0,0); font-family:Arial; font-size:12.00pt; text-anchor:middle"
       id="g3327">
      <text
         id="text3329"
         x="0.088886283"
         y="5.899827"
         style="font-size:37.75488663px">
        <tspan
           id="tspan3331">s</tspan>
      </text>
    </g>
  </g>
  <a
     xlink:title="Plot #1"
     id="a3333">
    <g
       style="fill:none; color:red; stroke:currentColor; stroke-width:0.50; stroke-linecap:butt; stroke-linejoin:miter"
       id="g3335">
      <g
         transform="translate(628.7,65.9)"
         style="stroke:none; fill:black; font-family:Arial; font-size:12.00pt; text-anchor:end"
         id="g3337">
        <text
           id="text3339">
          <tspan
             id="tspan3341">N=1E3</tspan>
        </text>
      </g>
      <path
         stroke="rgb(  0,   0,   0)"
         d="M637.0,61.4 L679.2,61.4 M102.9,271.7 L105.9,273.9 L108.8,276.1 L111.8,278.3 L114.8,280.6 L117.8,282.8    L120.8,285.1 L123.7,287.3 L126.7,289.6 L129.7,291.9 L132.7,294.2 L135.7,296.5 L138.6,298.8 L141.6,301.1    L144.6,303.4 L147.6,305.7 L150.6,308.0 L153.5,310.3 L156.5,312.6 L159.5,314.9 L162.5,317.2 L165.4,319.4    L168.4,321.7 L171.4,324.0 L174.4,326.2 L177.4,328.4 L180.3,330.7 L183.3,332.9 L186.3,335.1 L189.3,337.2    L192.3,339.4 L195.2,341.5 L198.2,343.6 L201.2,345.8 L204.2,347.8 L207.2,349.9 L210.1,351.9 L213.1,354.0    L216.1,356.0 L219.1,358.0 L222.1,359.9 L225.0,361.8 L228.0,363.8 L231.0,365.6 L234.0,367.5 L237.0,369.4    L239.9,371.2 L242.9,373.0 L245.9,374.7 L248.9,376.5 L251.9,378.2 L254.8,379.9 L257.8,381.6 L260.8,383.2    L263.8,384.9 L266.8,386.5 L269.7,388.1 L272.7,389.6 L275.7,391.2 L278.7,392.7 L281.6,394.2 L284.6,395.6    L287.6,397.1 L290.6,398.5 L293.6,399.9 L296.5,401.3 L299.5,402.6 L302.5,404.0 L305.5,405.3 L308.5,406.6    L311.4,407.9 L314.4,409.1 L317.4,410.3 L320.4,411.6 L323.4,412.8 L326.3,413.9 L329.3,415.1 L332.3,416.2    L335.3,417.3 L338.3,418.5 L341.2,419.5 L344.2,420.6 L347.2,421.7 L350.2,422.7 L353.2,423.7 L356.1,424.7    L359.1,425.7 L362.1,426.7 L365.1,427.6 L368.1,428.6 L371.0,429.5 L374.0,430.4 L377.0,431.3 L380.0,432.2    L383.0,433.1 L385.9,433.9 L388.9,434.8 L391.9,435.6 L394.9,436.4 L397.9,437.3 L400.8,438.1 L403.8,438.8    L406.8,439.6 L409.8,440.4 L412.7,441.1 L415.7,441.9 L418.7,442.6 L421.7,443.3 L424.7,444.0 L427.6,444.7    L430.6,445.4 L433.6,446.1 L436.6,446.8 L439.6,447.4 L442.5,448.1 L445.5,448.7 L448.5,449.3 L451.5,450.0    L454.5,450.6 L457.4,451.2 L460.4,451.8 L463.4,452.4 L466.4,452.9 L469.4,453.5 L472.3,454.1 L475.3,454.6    L478.3,455.2 L481.3,455.7 L484.3,456.3 L487.2,456.8 L490.2,457.3 L493.2,457.9 L496.2,458.4 L499.2,458.9    L502.1,459.4 L505.1,459.9 L508.1,460.3 L511.1,460.8 L514.1,461.3 L517.0,461.8 L520.0,462.2 L523.0,462.7    L526.0,463.1 L528.9,463.6 L531.9,464.0 L534.9,464.4 L537.9,464.9 L540.9,465.3 L543.8,465.7 L546.8,466.1    L549.8,466.5 L552.8,466.9 L555.8,467.3 L558.7,467.7 L561.7,468.1 L564.7,468.5 L567.7,468.9 L570.7,469.3    L573.6,469.6 L576.6,470.0 L579.6,470.4 L582.6,470.7 L585.6,471.1 L588.5,471.5 L591.5,471.8 L594.5,472.1    L597.5,472.5 L600.5,472.8 L603.4,473.2 L606.4,473.5 L609.4,473.8 L612.4,474.1 L615.4,474.5 L618.3,474.8    L621.3,475.1 L624.3,475.4 L627.3,475.7 L630.3,476.0 L633.2,476.3 L636.2,476.6 L639.2,476.9 L642.2,477.2    L645.1,477.5 L648.1,477.8 L651.1,478.1 L654.1,478.3 L657.1,478.6 L660.0,478.9 L663.0,479.2 L666.0,479.4    L669.0,479.7 L672.0,480.0 L674.9,480.2 L677.9,480.5 L680.9,480.7 L683.9,481.0 L686.9,481.2 L689.8,481.5    L692.8,481.7 L695.8,482.0 "
         id="path3343"
         style="stroke-width:3;stroke-miterlimit:4;stroke-dasharray:none" />
    </g>
  </a>
  <a
     xlink:title="Plot #2"
     id="a3345">
    <g
       style="fill:none; color:green; stroke:currentColor; stroke-width:0.50; stroke-linecap:butt; stroke-linejoin:miter"
       id="g3347">
      <g
         transform="translate(628.7,83.9)"
         style="stroke:none; fill:black; font-family:Arial; font-size:12.00pt; text-anchor:end"
         id="g3349">
        <text
           id="text3351">
          <tspan
             id="tspan3353">N=1E4</tspan>
        </text>
      </g>
      <path
         stroke="rgb(255,   0,   0)"
         d="M637.0,79.4 L679.2,79.4 M102.9,206.7 L105.9,210.4 L108.8,214.2 L111.8,218.0 L114.8,221.9 L117.8,225.7    L120.8,229.6 L123.7,233.4 L126.7,237.3 L129.7,241.2 L132.7,245.1 L135.7,248.9 L138.6,252.8 L141.6,256.6    L144.6,260.4 L147.6,264.2 L150.6,268.0 L153.5,271.8 L156.5,275.5 L159.5,279.2 L162.5,282.8 L165.4,286.5    L168.4,290.0 L171.4,293.6 L174.4,297.1 L177.4,300.5 L180.3,303.9 L183.3,307.3 L186.3,310.6 L189.3,313.8    L192.3,317.0 L195.2,320.2 L198.2,323.3 L201.2,326.4 L204.2,329.3 L207.2,332.3 L210.1,335.2 L213.1,338.0    L216.1,340.8 L219.1,343.5 L222.1,346.2 L225.0,348.8 L228.0,351.4 L231.0,353.9 L234.0,356.4 L237.0,358.8    L239.9,361.2 L242.9,363.5 L245.9,365.8 L248.9,368.0 L251.9,370.2 L254.8,372.3 L257.8,374.4 L260.8,376.5    L263.8,378.5 L266.8,380.4 L269.7,382.4 L272.7,384.2 L275.7,386.1 L278.7,387.9 L281.6,389.6 L284.6,391.4    L287.6,393.1 L290.6,394.7 L293.6,396.3 L296.5,397.9 L299.5,399.5 L302.5,401.0 L305.5,402.5 L308.5,403.9    L311.4,405.4 L314.4,406.8 L317.4,408.2 L320.4,409.5 L323.4,410.8 L326.3,412.1 L329.3,413.4 L332.3,414.6    L335.3,415.8 L338.3,417.0 L341.2,418.2 L344.2,419.4 L347.2,420.5 L350.2,421.6 L353.2,422.7 L356.1,423.8    L359.1,424.8 L362.1,425.8 L365.1,426.8 L368.1,427.8 L371.0,428.8 L374.0,429.8 L377.0,430.7 L380.0,431.6    L383.0,432.5 L385.9,433.4 L388.9,434.3 L391.9,435.2 L394.9,436.0 L397.9,436.9 L400.8,437.7 L403.8,438.5    L406.8,439.3 L409.8,440.1 L412.7,440.8 L415.7,441.6 L418.7,442.3 L421.7,443.1 L424.7,443.8 L427.6,444.5    L430.6,445.2 L433.6,445.9 L436.6,446.6 L439.6,447.3 L442.5,447.9 L445.5,448.6 L448.5,449.2 L451.5,449.8    L454.5,450.5 L457.4,451.1 L460.4,451.7 L463.4,452.3 L466.4,452.9 L469.4,453.4 L472.3,454.0 L475.3,454.6    L478.3,455.1 L481.3,455.7 L484.3,456.2 L487.2,456.8 L490.2,457.3 L493.2,457.8 L496.2,458.3 L499.2,458.8    L502.1,459.3 L505.1,459.8 L508.1,460.3 L511.1,460.8 L514.1,461.3 L517.0,461.7 L520.0,462.2 L523.0,462.7    L526.0,463.1 L528.9,463.5 L531.9,464.0 L534.9,464.4 L537.9,464.9 L540.9,465.3 L543.8,465.7 L546.8,466.1    L549.8,466.5 L552.8,466.9 L555.8,467.3 L558.7,467.7 L561.7,468.1 L564.7,468.5 L567.7,468.9 L570.7,469.3    L573.6,469.6 L576.6,470.0 L579.6,470.4 L582.6,470.7 L585.6,471.1 L588.5,471.4 L591.5,471.8 L594.5,472.1    L597.5,472.5 L600.5,472.8 L603.4,473.2 L606.4,473.5 L609.4,473.8 L612.4,474.1 L615.4,474.5 L618.3,474.8    L621.3,475.1 L624.3,475.4 L627.3,475.7 L630.3,476.0 L633.2,476.3 L636.2,476.6 L639.2,476.9 L642.2,477.2    L645.1,477.5 L648.1,477.8 L651.1,478.0 L654.1,478.3 L657.1,478.6 L660.0,478.9 L663.0,479.2 L666.0,479.4    L669.0,479.7 L672.0,480.0 L674.9,480.2 L677.9,480.5 L680.9,480.7 L683.9,481.0 L686.9,481.2 L689.8,481.5    L692.8,481.7 L695.8,482.0 "
         id="path3355"
         style="stroke-width:3;stroke-miterlimit:4;stroke-dasharray:6, 3;stroke-dashoffset:0;stroke:#000000;stroke-opacity:1" />
    </g>
  </a>
  <a
     xlink:title="Plot #3"
     id="a3357">
    <g
       style="fill:none; color:blue; stroke:currentColor; stroke-width:0.50; stroke-linecap:butt; stroke-linejoin:miter"
       id="g3359">
      <g
         transform="translate(628.7,101.9)"
         style="stroke:none; fill:black; font-family:Arial; font-size:12.00pt; text-anchor:end"
         id="g3361">
        <text
           id="text3363">
          <tspan
             id="tspan3365">N=1E5</tspan>
        </text>
      </g>
      <path
         stroke="rgb(  0,   0, 255)"
         d="M637.0,97.4 L679.2,97.4 M102.9,144.7 L105.9,150.4 L108.8,156.2 L111.8,162.0 L114.8,167.9 L117.8,173.7    L120.8,179.6 L123.7,185.4 L126.7,191.3 L129.7,197.1 L132.7,202.9 L135.7,208.6 L138.6,214.3 L141.6,219.9    L144.6,225.5 L147.6,231.0 L150.6,236.5 L153.5,241.8 L156.5,247.1 L159.5,252.3 L162.5,257.5 L165.4,262.5    L168.4,267.4 L171.4,272.2 L174.4,277.0 L177.4,281.6 L180.3,286.2 L183.3,290.6 L186.3,294.9 L189.3,299.2    L192.3,303.3 L195.2,307.3 L198.2,311.3 L201.2,315.1 L204.2,318.9 L207.2,322.5 L210.1,326.1 L213.1,329.5    L216.1,332.9 L219.1,336.2 L222.1,339.4 L225.0,342.5 L228.0,345.5 L231.0,348.4 L234.0,351.3 L237.0,354.1    L239.9,356.8 L242.9,359.5 L245.9,362.0 L248.9,364.5 L251.9,367.0 L254.8,369.4 L257.8,371.7 L260.8,373.9    L263.8,376.1 L266.8,378.3 L269.7,380.4 L272.7,382.4 L275.7,384.4 L278.7,386.3 L281.6,388.2 L284.6,390.0    L287.6,391.8 L290.6,393.6 L293.6,395.3 L296.5,397.0 L299.5,398.6 L302.5,400.2 L305.5,401.7 L308.5,403.3    L311.4,404.7 L314.4,406.2 L317.4,407.6 L320.4,409.0 L323.4,410.4 L326.3,411.7 L329.3,413.0 L332.3,414.3    L335.3,415.5 L338.3,416.7 L341.2,417.9 L344.2,419.1 L347.2,420.3 L350.2,421.4 L353.2,422.5 L356.1,423.6    L359.1,424.6 L362.1,425.7 L365.1,426.7 L368.1,427.7 L371.0,428.7 L374.0,429.7 L377.0,430.6 L380.0,431.6    L383.0,432.5 L385.9,433.4 L388.9,434.3 L391.9,435.1 L394.9,436.0 L397.9,436.8 L400.8,437.6 L403.8,438.5    L406.8,439.3 L409.8,440.0 L412.7,440.8 L415.7,441.6 L418.7,442.3 L421.7,443.1 L424.7,443.8 L427.6,444.5    L430.6,445.2 L433.6,445.9 L436.6,446.6 L439.6,447.2 L442.5,447.9 L445.5,448.6 L448.5,449.2 L451.5,449.8    L454.5,450.5 L457.4,451.1 L460.4,451.7 L463.4,452.3 L466.4,452.9 L469.4,453.4 L472.3,454.0 L475.3,454.6    L478.3,455.1 L481.3,455.7 L484.3,456.2 L487.2,456.8 L490.2,457.3 L493.2,457.8 L496.2,458.3 L499.2,458.8    L502.1,459.3 L505.1,459.8 L508.1,460.3 L511.1,460.8 L514.1,461.3 L517.0,461.7 L520.0,462.2 L523.0,462.7    L526.0,463.1 L528.9,463.5 L531.9,464.0 L534.9,464.4 L537.9,464.9 L540.9,465.3 L543.8,465.7 L546.8,466.1    L549.8,466.5 L552.8,466.9 L555.8,467.3 L558.7,467.7 L561.7,468.1 L564.7,468.5 L567.7,468.9 L570.7,469.3    L573.6,469.6 L576.6,470.0 L579.6,470.4 L582.6,470.7 L585.6,471.1 L588.5,471.4 L591.5,471.8 L594.5,472.1    L597.5,472.5 L600.5,472.8 L603.4,473.2 L606.4,473.5 L609.4,473.8 L612.4,474.1 L615.4,474.5 L618.3,474.8    L621.3,475.1 L624.3,475.4 L627.3,475.7 L630.3,476.0 L633.2,476.3 L636.2,476.6 L639.2,476.9 L642.2,477.2    L645.1,477.5 L648.1,477.8 L651.1,478.0 L654.1,478.3 L657.1,478.6 L660.0,478.9 L663.0,479.2 L666.0,479.4    L669.0,479.7 L672.0,480.0 L674.9,480.2 L677.9,480.5 L680.9,480.7 L683.9,481.0 L686.9,481.2 L689.8,481.5    L692.8,481.7 L695.8,482.0 "
         id="path3367"
         style="stroke-width:3;stroke-miterlimit:4;stroke-dasharray:12,6,3,6;stroke-dashoffset:0;stroke:#000000;stroke-opacity:1" />
    </g>
  </a>
  <a
     xlink:title="Plot #4"
     id="a3369">
    <g
       style="fill:none; color:cyan; stroke:currentColor; stroke-width:0.50; stroke-linecap:butt; stroke-linejoin:miter"
       id="g3371">
      <g
         transform="translate(628.7,119.9)"
         style="stroke:none; fill:black; font-family:Arial; font-size:12.00pt; text-anchor:end"
         id="g3373">
        <text
           id="text3375">
          <tspan
             id="tspan3377">N=1E6</tspan>
        </text>
      </g>
      <path
         stroke="rgb(255, 255,   0)"
         d="M637.0,115.4 L679.2,115.4 M102.9,84.8 L105.9,93.0 L108.8,101.2 L111.8,109.4 L114.8,117.7 L117.8,125.9    L120.8,134.1 L123.7,142.3 L126.7,150.4 L129.7,158.4 L132.7,166.4 L135.7,174.3 L138.6,182.0 L141.6,189.6    L144.6,197.1 L147.6,204.5 L150.6,211.7 L153.5,218.7 L156.5,225.6 L159.5,232.3 L162.5,238.9 L165.4,245.2    L168.4,251.5 L171.4,257.5 L174.4,263.4 L177.4,269.1 L180.3,274.6 L183.3,280.0 L186.3,285.2 L189.3,290.2    L192.3,295.1 L195.2,299.8 L198.2,304.4 L201.2,308.8 L204.2,313.1 L207.2,317.2 L210.1,321.3 L213.1,325.1    L216.1,328.9 L219.1,332.5 L222.1,336.1 L225.0,339.5 L228.0,342.8 L231.0,346.0 L234.0,349.1 L237.0,352.1    L239.9,355.0 L242.9,357.8 L245.9,360.5 L248.9,363.2 L251.9,365.8 L254.8,368.3 L257.8,370.7 L260.8,373.0    L263.8,375.3 L266.8,377.5 L269.7,379.7 L272.7,381.8 L275.7,383.8 L278.7,385.8 L281.6,387.8 L284.6,389.6    L287.6,391.5 L290.6,393.3 L293.6,395.0 L296.5,396.7 L299.5,398.4 L302.5,400.0 L305.5,401.6 L308.5,403.1    L311.4,404.6 L314.4,406.1 L317.4,407.5 L320.4,408.9 L323.4,410.3 L326.3,411.6 L329.3,412.9 L332.3,414.2    L335.3,415.5 L338.3,416.7 L341.2,417.9 L344.2,419.1 L347.2,420.2 L350.2,421.4 L353.2,422.5 L356.1,423.6    L359.1,424.6 L362.1,425.7 L365.1,426.7 L368.1,427.7 L371.0,428.7 L374.0,429.7 L377.0,430.6 L380.0,431.5    L383.0,432.5 L385.9,433.4 L388.9,434.2 L391.9,435.1 L394.9,436.0 L397.9,436.8 L400.8,437.6 L403.8,438.4    L406.8,439.2 L409.8,440.0 L412.7,440.8 L415.7,441.6 L418.7,442.3 L421.7,443.1 L424.7,443.8 L427.6,444.5    L430.6,445.2 L433.6,445.9 L436.6,446.6 L439.6,447.2 L442.5,447.9 L445.5,448.6 L448.5,449.2 L451.5,449.8    L454.5,450.5 L457.4,451.1 L460.4,451.7 L463.4,452.3 L466.4,452.9 L469.4,453.4 L472.3,454.0 L475.3,454.6    L478.3,455.1 L481.3,455.7 L484.3,456.2 L487.2,456.8 L490.2,457.3 L493.2,457.8 L496.2,458.3 L499.2,458.8    L502.1,459.3 L505.1,459.8 L508.1,460.3 L511.1,460.8 L514.1,461.3 L517.0,461.7 L520.0,462.2 L523.0,462.7    L526.0,463.1 L528.9,463.5 L531.9,464.0 L534.9,464.4 L537.9,464.9 L540.9,465.3 L543.8,465.7 L546.8,466.1    L549.8,466.5 L552.8,466.9 L555.8,467.3 L558.7,467.7 L561.7,468.1 L564.7,468.5 L567.7,468.9 L570.7,469.3    L573.6,469.6 L576.6,470.0 L579.6,470.4 L582.6,470.7 L585.6,471.1 L588.5,471.4 L591.5,471.8 L594.5,472.1    L597.5,472.5 L600.5,472.8 L603.4,473.2 L606.4,473.5 L609.4,473.8 L612.4,474.1 L615.4,474.5 L618.3,474.8    L621.3,475.1 L624.3,475.4 L627.3,475.7 L630.3,476.0 L633.2,476.3 L636.2,476.6 L639.2,476.9 L642.2,477.2    L645.1,477.5 L648.1,477.8 L651.1,478.0 L654.1,478.3 L657.1,478.6 L660.0,478.9 L663.0,479.2 L666.0,479.4    L669.0,479.7 L672.0,480.0 L674.9,480.2 L677.9,480.5 L680.9,480.7 L683.9,481.0 L686.9,481.2 L689.8,481.5    L692.8,481.7 L695.8,482.0 "
         id="path3379"
         style="stroke:#000000;stroke-opacity:1;stroke-width:3;stroke-miterlimit:4;stroke-dasharray:3,3;stroke-dashoffset:0" />
    </g>
  </a>
  <g
     style="fill:none; color:black; stroke:currentColor; stroke-width:0.50; stroke-linecap:butt; stroke-linejoin:miter"
     id="g3381" />
</svg>
