<?xml version="1.0" encoding="UTF-8" standalone="no"?>
<svg
   xmlns:dc="http://purl.org/dc/elements/1.1/"
   xmlns:cc="http://creativecommons.org/ns#"
   xmlns:rdf="http://www.w3.org/1999/02/22-rdf-syntax-ns#"
   xmlns:svg="http://www.w3.org/2000/svg"
   xmlns="http://www.w3.org/2000/svg"
   xmlns:xlink="http://www.w3.org/1999/xlink"
   xmlns:sodipodi="http://sodipodi.sourceforge.net/DTD/sodipodi-0.dtd"
   xmlns:inkscape="http://www.inkscape.org/namespaces/inkscape"
   viewBox="0 0 590.79428 432"
   id="svg2"
   version="1.1"
   inkscape:version="0.48.4 r9939"
   width="100%"
   height="100%"
   sodipodi:docname="entropy_estimation_error_N_zipf_staircase_removal_ideal.svg">
  <metadata
     id="metadata204">
    <rdf:RDF>
      <cc:Work
         rdf:about="">
        <dc:format>image/svg+xml</dc:format>
        <dc:type
           rdf:resource="http://purl.org/dc/dcmitype/StillImage" />
      </cc:Work>
    </rdf:RDF>
  </metadata>
  <defs
     id="defs202">
    <marker
       inkscape:stockid="TriangleOutM"
       orient="auto"
       refY="0.0"
       refX="0.0"
       id="TriangleOutM"
       style="overflow:visible">
      <path
         id="path4969"
         d="M 5.77,0.0 L -2.88,5.0 L -2.88,-5.0 L 5.77,0.0 z "
         style="fill-rule:evenodd;stroke:#000000;stroke-width:1.0pt"
         transform="scale(0.4)" />
    </marker>
    <marker
       inkscape:stockid="TriangleOutL"
       orient="auto"
       refY="0.0"
       refX="0.0"
       id="TriangleOutL"
       style="overflow:visible">
      <path
         id="path4966"
         d="M 5.77,0.0 L -2.88,5.0 L -2.88,-5.0 L 5.77,0.0 z "
         style="fill-rule:evenodd;stroke:#000000;stroke-width:1.0pt"
         transform="scale(0.8)" />
    </marker>
    <inkscape:path-effect
       effect="spiro"
       id="path-effect4818"
       is_visible="true" />
    <inkscape:path-effect
       effect="spiro"
       id="path-effect4306"
       is_visible="true" />
    <marker
       inkscape:stockid="TriangleOutM"
       orient="auto"
       refY="0"
       refX="0"
       id="TriangleOutM-0"
       style="overflow:visible">
      <path
         inkscape:connector-curvature="0"
         id="path4969-3"
         d="m 5.77,0 -8.65,5 0,-10 8.65,5 z"
         style="fill-rule:evenodd;stroke:#000000;stroke-width:1pt"
         transform="scale(0.4,0.4)" />
    </marker>
    <inkscape:path-effect
       effect="spiro"
       id="path-effect4818-1"
       is_visible="true" />
  </defs>
  <sodipodi:namedview
     pagecolor="#ffffff"
     bordercolor="#666666"
     borderopacity="1"
     objecttolerance="10"
     gridtolerance="10"
     guidetolerance="10"
     inkscape:pageopacity="0"
     inkscape:pageshadow="2"
     inkscape:window-width="1236"
     inkscape:window-height="747"
     id="namedview200"
     showgrid="false"
     fit-margin-top="0"
     fit-margin-left="0"
     fit-margin-right="0"
     fit-margin-bottom="0"
     inkscape:zoom="1.3125001"
     inkscape:cx="424.15902"
     inkscape:cy="216"
     inkscape:window-x="13"
     inkscape:window-y="23"
     inkscape:window-maximized="0"
     inkscape:current-layer="svg2" />
  <title
     id="title4">Gnuplot</title>
  <desc
     id="desc6">Produced by GNUPLOT 4.6 patchlevel 1 </desc>
  <g
     id="gnuplot_canvas"
     transform="translate(14.794277,0)">
    <rect
       x="0"
       y="0"
       width="576"
       height="432"
       id="rect9"
       style="fill:none" />
    <defs
       id="defs11">
      <circle
         id="gpDot"
         r="0.5"
         cx="0"
         cy="0"
         sodipodi:cx="0"
         sodipodi:cy="0"
         sodipodi:rx="0.5"
         sodipodi:ry="0.5"
         style="stroke-width:0.5" />
      <path
         id="gpPt0"
         d="M -1,0 H 1 M 0,-1 v 2"
         inkscape:connector-curvature="0"
         style="stroke:currentColor;stroke-width:0.333" />
      <path
         id="gpPt1"
         d="M -1,-1 1,1 M 1,-1 -1,1"
         inkscape:connector-curvature="0"
         style="stroke:currentColor;stroke-width:0.333" />
      <path
         id="gpPt2"
         d="M -1,0 1,0 M 0,-1 0,1 m -1,-2 2,2 m -2,0 2,-2"
         inkscape:connector-curvature="0"
         style="stroke:currentColor;stroke-width:0.333" />
      <rect
         id="gpPt3"
         x="-1"
         y="-1"
         width="2"
         height="2"
         style="stroke:currentColor;stroke-width:0.333" />
      <rect
         id="gpPt4"
         x="-1"
         y="-1"
         width="2"
         height="2"
         style="fill:currentColor;stroke:currentColor;stroke-width:0.333" />
      <circle
         id="gpPt5"
         cx="0"
         cy="0"
         r="1"
         sodipodi:cx="0"
         sodipodi:cy="0"
         sodipodi:rx="1"
         sodipodi:ry="1"
         style="stroke:currentColor;stroke-width:0.333" />
      <use
         xlink:href="#gpPt5"
         id="gpPt6"
         style="fill:currentColor;stroke:none"
         x="0"
         y="0"
         width="576"
         height="432" />
      <path
         id="gpPt7"
         d="m 0,-1.33 -1.33,2 2.66,0 z"
         inkscape:connector-curvature="0"
         style="stroke:currentColor;stroke-width:0.333" />
      <use
         xlink:href="#gpPt7"
         id="gpPt8"
         style="fill:currentColor;stroke:none"
         x="0"
         y="0"
         width="576"
         height="432" />
      <use
         xlink:href="#gpPt7"
         id="gpPt9"
         transform="scale(-1,-1)"
         style="stroke:currentColor"
         x="0"
         y="0"
         width="576"
         height="432" />
      <use
         xlink:href="#gpPt9"
         id="gpPt10"
         style="fill:currentColor;stroke:none"
         x="0"
         y="0"
         width="576"
         height="432" />
      <use
         xlink:href="#gpPt3"
         id="gpPt11"
         transform="matrix(0.70710678,0.70710678,-0.70710678,0.70710678,0,0)"
         style="stroke:currentColor"
         x="0"
         y="0"
         width="576"
         height="432" />
      <use
         xlink:href="#gpPt11"
         id="gpPt12"
         style="fill:currentColor;stroke:none"
         x="0"
         y="0"
         width="576"
         height="432" />
    </defs>
    <g
       style="color:#ffffff;fill:none;stroke:currentColor;stroke-width:1;stroke-linecap:butt;stroke-linejoin:miter"
       id="g27" />
    <g
       style="color:#ffffff;fill:none;stroke:currentColor;stroke-width:0.5;stroke-linecap:butt;stroke-linejoin:miter"
       id="g29" />
    <g
       style="color:#000000;fill:none;stroke:currentColor;stroke-width:0.5;stroke-linecap:butt;stroke-linejoin:miter"
       id="g31">
      <path
         d="m 42.8,393.6 8.4,0 m 507.9,0 -8.4,0 h 0.01"
         id="path33"
         inkscape:connector-curvature="0" />
      <g
         transform="translate(37.2,396.6)"
         style="font-size:12.5px;text-anchor:end;fill:#000000;stroke:none"
         id="g35">
        <text
           id="text37">
          <tspan
             id="tspan39">10</tspan>
          <tspan
             font-size="8.0pt"
             dy="-6.25"
             id="tspan41"
             style="font-size:10px">-6</tspan>
          <tspan
             font-size="10.0pt"
             dy="6.25"
             id="tspan43"
             style="font-size:12.5px" />
        </text>
      </g>
      <path
         d="m 42.8,393.6 4.2,0 m 512.1,0 -4.2,0 m -512.1,-23 4.2,0 m 512.1,0 -4.2,0 m -512.1,-13.5 4.2,0 m 512.1,0 -4.2,0 m -512.1,-9.5 4.2,0 m 512.1,0 -4.2,0 m -512.1,-7.4 4.2,0 m 512.1,0 -4.2,0 m -512.1,-6.1 4.2,0 m 512.1,0 -4.2,0 M 42.8,329 47,329 m 512.1,0 -4.2,0 m -512.1,-4.5 4.2,0 m 512.1,0 -4.2,0 m -512.1,-3.9 4.2,0 m 512.1,0 -4.2,0 m -512.1,-3.5 8.4,0 m 507.9,0 -8.4,0 h 0.01"
         id="path45"
         inkscape:connector-curvature="0" />
      <g
         transform="translate(37.2,320.1)"
         style="font-size:12.5px;text-anchor:end;fill:#000000;stroke:none"
         id="g47">
        <text
           id="text49">
          <tspan
             id="tspan51">10</tspan>
          <tspan
             font-size="8.0pt"
             dy="-6.25"
             id="tspan53"
             style="font-size:10px">-5</tspan>
          <tspan
             font-size="10.0pt"
             dy="6.25"
             id="tspan55"
             style="font-size:12.5px" />
        </text>
      </g>
      <path
         d="m 42.8,317.1 4.2,0 m 512.1,0 -4.2,0 m -512.1,-23 4.2,0 m 512.1,0 -4.2,0 m -512.1,-13.4 4.2,0 m 512.1,0 -4.2,0 m -512.1,-9.6 4.2,0 m 512.1,0 -4.2,0 m -512.1,-7.4 4.2,0 m 512.1,0 -4.2,0 m -512.1,-6.1 4.2,0 m 512.1,0 -4.2,0 m -512.1,-5.1 4.2,0 m 512.1,0 -4.2,0 m -512.1,-4.4 4.2,0 m 512.1,0 -4.2,0 m -512.1,-3.9 4.2,0 m 512.1,0 -4.2,0 m -512.1,-3.5 8.4,0 m 507.9,0 -8.4,0 h 0.01"
         id="path57"
         inkscape:connector-curvature="0" />
      <g
         transform="translate(37.2,243.7)"
         style="font-size:12.5px;text-anchor:end;fill:#000000;stroke:none"
         id="g59">
        <text
           id="text61">
          <tspan
             id="tspan63">10</tspan>
          <tspan
             font-size="8.0pt"
             dy="-6.25"
             id="tspan65"
             style="font-size:10px">-4</tspan>
          <tspan
             font-size="10.0pt"
             dy="6.25"
             id="tspan67"
             style="font-size:12.5px" />
        </text>
      </g>
      <path
         d="m 42.8,240.7 4.2,0 m 512.1,0 -4.2,0 m -512.1,-23 4.2,0 m 512.1,0 -4.2,0 m -512.1,-13.5 4.2,0 m 512.1,0 -4.2,0 m -512.1,-9.6 4.2,0 m 512.1,0 -4.2,0 m -512.1,-7.4 4.2,0 m 512.1,0 -4.2,0 m -512.1,-6 4.2,0 m 512.1,0 -4.2,0 m -512.1,-5.1 4.2,0 m 512.1,0 -4.2,0 m -512.1,-4.5 4.2,0 m 512.1,0 -4.2,0 m -512.1,-3.9 4.2,0 m 512.1,0 -4.2,0 m -512.1,-3.5 8.4,0 m 507.9,0 -8.4,0 h 0.01"
         id="path69"
         inkscape:connector-curvature="0" />
      <g
         transform="translate(37.2,167.2)"
         style="font-size:12.5px;text-anchor:end;fill:#000000;stroke:none"
         id="g71">
        <text
           id="text73">
          <tspan
             id="tspan75">10</tspan>
          <tspan
             font-size="8.0pt"
             dy="-6.25"
             id="tspan77"
             style="font-size:10px">-3</tspan>
          <tspan
             font-size="10.0pt"
             dy="6.25"
             id="tspan79"
             style="font-size:12.5px" />
        </text>
      </g>
      <path
         d="m 42.8,164.2 4.2,0 m 512.1,0 -4.2,0 m -512.1,-23 4.2,0 m 512.1,0 -4.2,0 m -512.1,-13.5 4.2,0 m 512.1,0 -4.2,0 m -512.1,-9.5 4.2,0 m 512.1,0 -4.2,0 m -512.1,-7.4 4.2,0 m 512.1,0 -4.2,0 m -512.1,-6.1 4.2,0 m 512.1,0 -4.2,0 m -512.1,-5.1 4.2,0 m 512.1,0 -4.2,0 m -512.1,-4.4 4.2,0 m 512.1,0 -4.2,0 m -512.1,-3.9 4.2,0 m 512.1,0 -4.2,0 m -512.1,-3.5 8.4,0 m 507.9,0 -8.4,0 h 0.01"
         id="path81"
         inkscape:connector-curvature="0" />
      <g
         transform="translate(37.2,90.8)"
         style="font-size:12.5px;text-anchor:end;fill:#000000;stroke:none"
         id="g83">
        <text
           id="text85">
          <tspan
             id="tspan87">10</tspan>
          <tspan
             font-size="8.0pt"
             dy="-6.25"
             id="tspan89"
             style="font-size:10px">-2</tspan>
          <tspan
             font-size="10.0pt"
             dy="6.25"
             id="tspan91"
             style="font-size:12.5px" />
        </text>
      </g>
      <path
         d="m 42.8,87.8 4.2,0 m 512.1,0 -4.2,0 M 42.8,64.7 l 4.2,0 m 512.1,0 -4.2,0 M 42.8,51.3 l 4.2,0 m 512.1,0 -4.2,0 m -512.1,-9.6 4.2,0 m 512.1,0 -4.2,0 m -512.1,-7.4 4.2,0 m 512.1,0 -4.2,0 m -512.1,-6 4.2,0 m 512.1,0 -4.2,0 m -512.1,-5.2 4.2,0 m 512.1,0 -4.2,0 m -512.1,-4.4 4.2,0 m 512.1,0 -4.2,0 m -512.1,-3.9 4.2,0 m 512.1,0 -4.2,0 m -512.1,-3.5 8.4,0 m 507.9,0 -8.4,0 h 0.01"
         id="path93"
         inkscape:connector-curvature="0" />
      <g
         transform="translate(37.2,14.3)"
         style="font-size:12.5px;text-anchor:end;fill:#000000;stroke:none"
         id="g95">
        <text
           id="text97">
          <tspan
             id="tspan99">10</tspan>
          <tspan
             font-size="8.0pt"
             dy="-6.25"
             id="tspan101"
             style="font-size:10px">-1</tspan>
          <tspan
             font-size="10.0pt"
             dy="6.25"
             id="tspan103"
             style="font-size:12.5px" />
        </text>
      </g>
      <path
         d="m 42.8,11.3 4.2,0 m 512.1,0 -4.2,0 m -512.1,382.3 0,-8.4 m 0,-373.9 0,8.4 h 0.01"
         id="path105"
         inkscape:connector-curvature="0" />
      <g
         transform="translate(42.8,408.6)"
         style="font-size:12.5px;text-anchor:middle;fill:#000000;stroke:none"
         id="g107">
        <text
           id="text109">
          <tspan
             id="tspan111">10</tspan>
          <tspan
             font-size="8.0pt"
             dy="-6.25"
             id="tspan113"
             style="font-size:10px">0</tspan>
          <tspan
             font-size="10.0pt"
             dy="6.25"
             id="tspan115"
             style="font-size:12.5px" />
        </text>
      </g>
      <path
         d="m 42.8,393.6 0,-4.2 m 0,-378.1 0,4.2 m 31.1,378.1 0,-4.2 m 0,-378.1 0,4.2 m 18.2,378.1 0,-4.2 m 0,-378.1 0,4.2 m 12.9,378.1 0,-4.2 m 0,-378.1 0,4.2 m 10,378.1 0,-4.2 m 0,-378.1 0,4.2 m 8.2,378.1 0,-4.2 m 0,-378.1 0,4.2 m 6.9,378.1 0,-4.2 m 0,-378.1 0,4.2 m 6,378.1 0,-4.2 m 0,-378.1 0,4.2 m 5.2,378.1 0,-4.2 m 0,-378.1 0,4.2 m 4.8,378.1 0,-8.4 m 0,-373.9 0,8.4 h 0.01"
         id="path117"
         inkscape:connector-curvature="0" />
      <g
         transform="translate(146.1,408.6)"
         style="font-size:12.5px;text-anchor:middle;fill:#000000;stroke:none"
         id="g119">
        <text
           id="text121">
          <tspan
             id="tspan123">10</tspan>
          <tspan
             font-size="8.0pt"
             dy="-6.25"
             id="tspan125"
             style="font-size:10px">1</tspan>
          <tspan
             font-size="10.0pt"
             dy="6.25"
             id="tspan127"
             style="font-size:12.5px" />
        </text>
      </g>
      <path
         d="m 146.1,393.6 0,-4.2 m 0,-378.1 0,4.2 m 31,378.1 0,-4.2 m 0,-378.1 0,4.2 m 18.2,378.1 0,-4.2 m 0,-378.1 0,4.2 m 12.9,378.1 0,-4.2 m 0,-378.1 0,4.2 m 10,378.1 0,-4.2 m 0,-378.1 0,4.2 m 8.2,378.1 0,-4.2 m 0,-378.1 0,4.2 m 6.9,378.1 0,-4.2 m 0,-378.1 0,4.2 m 6,378.1 0,-4.2 m 0,-378.1 0,4.2 m 5.3,378.1 0,-4.2 m 0,-378.1 0,4.2 m 4.7,378.1 0,-8.4 m 0,-373.9 0,8.4 h 0.01"
         id="path129"
         inkscape:connector-curvature="0" />
      <g
         transform="translate(249.3,408.6)"
         style="font-size:12.5px;text-anchor:middle;fill:#000000;stroke:none"
         id="g131">
        <text
           id="text133">
          <tspan
             id="tspan135">10</tspan>
          <tspan
             font-size="8.0pt"
             dy="-6.25"
             id="tspan137"
             style="font-size:10px">2</tspan>
          <tspan
             font-size="10.0pt"
             dy="6.25"
             id="tspan139"
             style="font-size:12.5px" />
        </text>
      </g>
      <path
         d="m 249.3,393.6 0,-4.2 m 0,-378.1 0,4.2 m 31.1,378.1 0,-4.2 m 0,-378.1 0,4.2 m 18.2,378.1 0,-4.2 m 0,-378.1 0,4.2 m 12.9,378.1 0,-4.2 m 0,-378.1 0,4.2 m 10,378.1 0,-4.2 m 0,-378.1 0,4.2 m 8.2,378.1 0,-4.2 m 0,-378.1 0,4.2 m 6.9,378.1 0,-4.2 m 0,-378.1 0,4.2 m 6,378.1 0,-4.2 m 0,-378.1 0,4.2 m 5.3,378.1 0,-4.2 m 0,-378.1 0,4.2 m 4.7,378.1 0,-8.4 m 0,-373.9 0,8.4 h 0.01"
         id="path141"
         inkscape:connector-curvature="0" />
      <g
         transform="translate(352.6,408.6)"
         style="font-size:12.5px;text-anchor:middle;fill:#000000;stroke:none"
         id="g143">
        <text
           id="text145">
          <tspan
             id="tspan147">10</tspan>
          <tspan
             font-size="8.0pt"
             dy="-6.25"
             id="tspan149"
             style="font-size:10px">3</tspan>
          <tspan
             font-size="10.0pt"
             dy="6.25"
             id="tspan151"
             style="font-size:12.5px" />
        </text>
      </g>
      <path
         d="m 352.6,393.6 0,-4.2 m 0,-378.1 0,4.2 m 31.1,378.1 0,-4.2 m 0,-378.1 0,4.2 m 18.1,378.1 0,-4.2 m 0,-378.1 0,4.2 m 12.9,378.1 0,-4.2 m 0,-378.1 0,4.2 m 10.1,378.1 0,-4.2 m 0,-378.1 0,4.2 m 8.1,378.1 0,-4.2 m 0,-378.1 0,4.2 m 6.9,378.1 0,-4.2 m 0,-378.1 0,4.2 m 6,378.1 0,-4.2 m 0,-378.1 0,4.2 m 5.3,378.1 0,-4.2 m 0,-378.1 0,4.2 m 4.7,378.1 0,-8.4 m 0,-373.9 0,8.4 h 0.01"
         id="path153"
         inkscape:connector-curvature="0" />
      <g
         transform="translate(455.8,408.6)"
         style="font-size:12.5px;text-anchor:middle;fill:#000000;stroke:none"
         id="g155">
        <text
           id="text157">
          <tspan
             id="tspan159">10</tspan>
          <tspan
             font-size="8.0pt"
             dy="-6.25"
             id="tspan161"
             style="font-size:10px">4</tspan>
          <tspan
             font-size="10.0pt"
             dy="6.25"
             id="tspan163"
             style="font-size:12.5px" />
        </text>
      </g>
      <path
         d="m 455.8,393.6 0,-4.2 m 0,-378.1 0,4.2 m 31.1,378.1 0,-4.2 m 0,-378.1 0,4.2 m 18.2,378.1 0,-4.2 m 0,-378.1 0,4.2 m 12.9,378.1 0,-4.2 m 0,-378.1 0,4.2 m 10,378.1 0,-4.2 m 0,-378.1 0,4.2 m 8.2,378.1 0,-4.2 m 0,-378.1 0,4.2 m 6.9,378.1 0,-4.2 m 0,-378.1 0,4.2 m 6,378.1 0,-4.2 m 0,-378.1 0,4.2 m 5.3,378.1 0,-4.2 m 0,-378.1 0,4.2 m 4.7,378.1 0,-8.4 m 0,-373.9 0,8.4 h 0.01"
         id="path165"
         inkscape:connector-curvature="0" />
      <g
         transform="translate(559.1,408.6)"
         style="font-size:12.5px;text-anchor:middle;fill:#000000;stroke:none"
         id="g167">
        <text
           id="text169">
          <tspan
             id="tspan171">10</tspan>
          <tspan
             font-size="8.0pt"
             dy="-6.25"
             id="tspan173"
             style="font-size:10px">5</tspan>
          <tspan
             font-size="10.0pt"
             dy="6.25"
             id="tspan175"
             style="font-size:12.5px" />
        </text>
      </g>
      <path
         d="m 559.1,393.6 0,-4.2 m 0,-378.1 0,4.2 m -516.3,-4.2 0,382.3 516.3,0 0,-382.3 -516.3,0 z m 0,0 h 0.01"
         id="path177"
         style="stroke-width:1.5;stroke-miterlimit:4;stroke-dasharray:none"
         inkscape:connector-curvature="0" />
      <g
         transform="matrix(0,-1,1,0,11.8,202.5)"
         style="font-size:12.5px;text-anchor:middle;fill:#000000;stroke:none"
         id="g179">
        <text
           id="text181"
           x="-0.023145741"
           y="-9.0939236"
           style="font-size:23.03388405px">
          <tspan
             id="tspan183">p(k)</tspan>
        </text>
      </g>
      <g
         transform="translate(300.9,426.6)"
         style="font-size:12.5px;text-anchor:middle;fill:#000000;stroke:none"
         id="g185">
        <text
           id="text187"
           x="-0.45661905"
           y="3.9915688"
           style="font-size:23.00736809px">
          <tspan
             id="tspan189">k</tspan>
        </text>
      </g>
    </g>
    <g
       id="gnuplot_plot_1a">
      <title
         id="title192">gnuplot_plot_1a</title>
      <g
         style="color:#ff0000;fill:none;stroke:currentColor;stroke-width:0.5;stroke-linecap:butt;stroke-linejoin:miter"
         id="g194">
        <path
           d="m 42.8,27.8 31.1,6.7 18.2,5.8 12.9,17.2 10,6.5 8.2,4.2 6.9,6.5 6,0.8 5.2,1.6 4.8,12.5 4.2,0.9 3.9,0.1 3.6,2.2 3.3,1.2 3.1,2.1 2.9,0.7 2.8,1.3 2.5,0 2.4,2.4 2.3,0.4 2.2,1.4 2.1,1.1 2,3.6 1.9,0.7 1.9,1.6 1.7,0.1 1.7,3.3 1.6,0.5 1.6,3.7 1.5,2.4 1.5,0.9 1.4,0.5 1.4,0.4 1.3,0.2 1.3,0.5 1.3,0.7 1.2,0.9 1.2,3 1.2,3 1.1,1.3 1.1,0.6 1.1,0.6 1.1,0.9 1,1.1 1,0.3 1,0.4 1,0.4 0.9,2.9 0.9,0 0.9,0.6 0.9,1 0.9,0.3 0.8,0.2 0.9,0.1 0.8,1.1 0.8,0.1 0.8,0.1 0.8,1.4 0.8,1.5 0.7,1.3 0.8,1.1 0.7,1.6 0.7,0.6 0.7,0.1 0.7,1.3 0.7,0.1 0.7,0 0.6,0.7 0.7,0 0.6,0.8 0.7,1 0.6,0.6 0.6,0.3 0.6,0.6 0.6,0 0.6,0.2 0.6,0.2 0.6,0.2 0.5,0 0.6,0.1 0.6,1.1 0.5,2.5 0.6,0.2 0.5,0.1 0.5,0.4 0.6,0.4 0.5,0.7 0.5,0.3 0.5,0.3 0.5,0.1 0.5,0.1 0.5,0.2 0.5,1.6 0.4,0.7 0.5,0.2 0.5,0.2 0.5,0.5 0.4,0 0.5,0.7 0.4,0.1 0.5,0.2 0.4,0.3 0.4,0.4 0.5,0.3 0.4,0.1 0.4,0.4 0.5,0.4 0.4,0.1 0.4,0.3 0.4,0.1 0.4,0.2 0.4,0.7 0.4,0.2 0.4,1.3 0.4,0 0.4,0.1 0.4,0.2 0.3,1.2 0.4,0.4 0.4,0.4 0.4,0.1 0.3,0 0.4,1 0.4,0.1 0.3,0.1 0.4,0.7 0.3,0 0.4,0.2 0.3,0.4 0.4,0.3 0.3,0.1 0.4,0.2 0.3,0.1 0.3,0 0.4,0.2 0.3,0.3 0.3,0.1 0.4,0.3 0.3,0.2 0.3,0 0.3,0.1 0.3,0.8 0.4,0 0.3,0.1 0.3,0 0.3,0.4 0.3,0.1 0.3,0 0.3,0.2 0.3,0.6 0.3,0 0.3,0.2 0.3,0.3 0.3,0.3 0.3,0.2 0.3,0.2 0.2,0 0.3,0 0.3,0.7 0.3,0.3 0.3,0 0.3,0.7 0.2,0.2 0.3,0.5 0.3,0.6 0.2,0.2 0.3,0 0.3,0.3 0.3,0 0.2,0 0.3,0 0.2,0.2 0.3,0.4 0.3,0 0.2,0.6 0.3,0 0.2,0.6 0.3,0.2 0.2,0.2 0.3,0.4 0.2,0 0.3,0.2 0.2,0.2 0.3,0.2 0.2,0 0.2,0.2 0.3,0 0.2,0.2 0.3,0 0.2,0.2 0.2,0.2 0.3,0 0.2,0.2 0.2,0 0.3,0 0.2,0.2 0.2,0.3 0.3,0.2 0.2,0.2 0.2,0 0.2,0.2 0.3,0 0.2,0 0.2,0.2 0.2,0 0.2,0 0.2,0.5 0.3,0 0.2,0 0.2,0 0.2,0.2 0.2,0 0.2,1.1 0.2,0 0.2,0 0.3,0.8 0.2,0.2 0.2,0 0.2,0 0.2,0.2 0.2,0 0.2,0 0.2,0 0.2,0.3 0.2,0 0.2,0.2 0.2,0 0.2,0 0.2,0.5 0.2,0 0.2,0 0.2,0 0.2,0.8 0.1,0 0.2,0 0.2,0 0.2,0 0.2,0.2 0.2,0 0.2,0.3 0.2,0 0.2,0.5 0.1,0 0.2,0.3 0.2,0.2 0.2,0 0.2,0.3 0.2,0.3 0.1,0.3 0.2,0 0.2,0.2 0.2,0 0.1,0.3 0.2,0 0.2,0 0.2,0 0.1,0.3 0.2,0 0.2,0 0.2,0 0.1,0.3 0.2,0 0.2,0.3 0.2,0.2 0.1,0.3 0.2,0 0.2,0.3 0.1,0 0.2,0 0.2,0 0.1,0 0.2,0.3 0.2,0 0.1,0.3 0.2,0 0.1,0.3 0.2,0 0.2,0 0.1,0 0.2,0 0.2,0.3 0.1,0 0.2,0 0.1,0.3 0.2,0.3 0.1,0.3 0.2,0 0.2,0 0.1,0.4 0.2,0.3 0.1,0.3 0.2,0 0.1,0.3 0.2,0 0.1,0 0.2,0 0.1,0 0.2,0 0.1,0.3 0.2,0 0.1,0 0.2,0.4 0.1,0.3 0.2,0 0.1,0 0.2,0 0.1,0 0.2,0.3 0.1,0 0.2,0.7 0.1,0.4 0.1,0 0.2,0 0.1,0.3 0.2,0.4 0.1,0 0.2,0.3 0.1,0 0.1,0 0.2,0.4 0.1,0.4 0.2,0 0.1,0 0.1,0 0.2,0 0.1,0 0.2,0 0.1,0.3 0.1,0 0.2,0 0.1,0.4 0.1,0 0.2,0.4 0.1,0 0.1,0 0.2,0 0.1,0.4 0.1,0 0.2,0.4 0.1,0 0.1,0 0.2,0 0.1,0 0.1,0.4 0.2,0.4 0.1,0 0.1,0.4 0.1,0 0.2,0 0.1,0 0.1,0 0.2,0 0.1,0.4 0.1,0.4 0.1,0 0.2,0 0.1,0 0.1,0 0.1,0 0.2,0.4 0.1,0 0.1,0 0.1,0.4 0.2,0.4 0.1,0 0.1,0 0.1,0 0.1,0.5 0.2,0 0.1,0 0.1,0 0.1,0.4 0.2,0 0.1,0 0.1,0 0.1,0 0.1,0 0.2,0 0.1,0.5 0.1,0 0.1,0 0.1,0 0.1,0 0.2,0 0.1,0 0.1,0.4 0.1,0 0.1,0 0.1,0 0.2,0 0.1,0 0.1,0 0.1,0 0.1,0.5 0.1,0 0.1,0.4 0.2,0 0.1,0 0.1,0 0.1,0 0.1,0 0.1,0 0.1,0 0.1,0 0.1,0.5 0.2,0 0.1,0 0.1,0.5 0.1,0 0.1,0 0.1,0 0.1,0.5 0.1,0 0.1,0 0.1,0 0.1,0 0.2,0 0.1,0.5 0.1,0 0.1,0 0.1,0 0.1,0 0.1,0 0.1,0 0.1,0.5 0.1,0 0.1,0 0.1,0 0.1,0 0.1,0 0.1,0.5 0.1,0 0.1,0 0.1,0 0.2,0 0.1,0 0.1,0.5 0.1,0 0.1,0 0.1,0 0.1,0 0.1,0 0.1,0 0.1,0 0.1,0.5 0.1,0 0.1,0.5 0.1,0 0.1,0 0.1,0 0.1,0 0.1,0.6 0.1,0 0.1,0 0.1,0 0.1,0 0.1,0 0.1,0 0.1,0 0.1,0 0.1,0.5 0.1,0 0.1,0 0.1,0 0.1,0 0.1,0 0.1,0 0.1,0 0.1,0.6 0.1,0 0.1,0 0.1,0 0.1,0 0.1,0.5 0.1,0 0.1,0 0.1,0 0.1,0 0.1,0 0.1,0 0.1,0.6 0.1,0 0.1,0 0.1,0 0.1,0 0.1,0 0.1,0 0.1,0 0.1,0 0.1,0 0.1,0 0.1,0 0.1,0 0.1,0.6 0.1,0 0.1,0 0.1,0 0.1,0 0.1,0 0.1,0.6 0.1,0 0.1,0 0.1,0 0.1,0 0.1,0 0.1,0 0.1,0.6 0.1,0 0.1,0 0.1,0 0.1,0 0.1,0 0.1,0 0.1,0 0.1,0 0.1,0.6 0.1,0 0.1,0 0.1,0 0.1,0 0.1,0 0.1,0 0.1,0 0.1,0 0.1,0.7 0.1,0 0.1,0 0.1,0 0.1,0 0.1,0 0.1,0 0.1,0 0.1,0 0.1,0.6 0.1,0 0.1,0 0.1,0 0.1,0 0.1,0 0.1,0 0.1,0 0,0.7 0.1,0 0.1,0 0.1,0 0.1,0 0.1,0 0.1,0 0.1,0 0.1,0 0.1,0 0.1,0 0.1,0 0.1,0 0.1,0 0.1,0.6 0.1,0 0.1,0 0.1,0 0.1,0 0.1,0 0.1,0 0.1,0 0.1,0 0.1,0 0.1,0 0.1,0 0.1,0.7 0.1,0 0.1,0 0.1,0 0.1,0 0.1,0 0.1,0 0,0.7 0.1,0 0.1,0 0.1,0 0.1,0 0.1,0 0.1,0.7 0.1,0 0.1,0 0.1,0 0.1,0 0.1,0 0.1,0 0,0.7 0.1,0 0.1,0 0.1,0 0.1,0 0.1,0 0.1,0 0.1,0 0.1,0 0,0.8 0.1,0 0.1,0 0.1,0 0.1,0 0.1,0 0.1,0 0.1,0 0.1,0 0.1,0 0.1,0 0.1,0 0.1,0 0.1,0 0,0.8 0.1,0 0.1,0 0.1,0 0.1,0 0.1,0 0.1,0 0.1,0 0.1,0 0.1,0 0.1,0 0.1,0 0.1,0 0.1,0 0,0.7 0.1,0 0.1,0 0.1,0 0.1,0 0.1,0 0.1,0 0.1,0 0.1,0 0.1,0 0.1,0 0.1,0 0.1,0 0.1,0.8 0.1,0 0.1,0 0.1,0 0.1,0 0.1,0 0.1,0 0.1,0 0.1,0 0.1,0 0.1,0 0.1,0 0,0.8 0.1,0 0.1,0 0.1,0 0.1,0 0.1,0 0.1,0 0.1,0 0.1,0 0.1,0 0.1,0 0.1,0 0,0.9 0.1,0 0.1,0 0.1,0 0.1,0 0.1,0 0.1,0 0.1,0 0.1,0 0.1,0 0.1,0 0.1,0 0.1,0 0.1,0 0.1,0 0.1,0 0.1,0 0.1,0.8 0.1,0 0.1,0 0.1,0 0.1,0 0.1,0 0.1,0 0.1,0 0.1,0 0.1,0 0.1,0 0.1,0 0.1,0.9 0.1,0 0.1,0 0.1,0 0.1,0 0.1,0 0.1,0 0.1,0 0.1,0 0.1,0 0.1,0 0.1,0 0.1,0 0.1,0.9 0.1,0 0.1,0 0.1,0 0.1,0 0.1,0 0.1,0 0.1,0 0.1,0 0.1,0 0.1,0 0.1,0 0.1,0 0.1,0 0.1,0 0.1,0 0,1 0.1,0 0.1,0 0.1,0 0.1,0 0.1,0 0.1,0 0.1,0 0.1,0 0.1,0 0.1,0 0.1,0 0.1,0.9 0.1,0 0.1,0 0.1,0 0.1,0 0.1,0 0.1,0 0.1,0 0.1,0 0.1,0 0.1,0 0.1,0 0,1 0.1,0 0.1,0 0.1,0 0.1,0 0.1,0 0.1,0 0.1,0 0.1,0 0.1,0 0.1,0 0.1,0 0.1,0 0.1,0 0.1,0 0.1,1 0.1,0 0.1,0 0.1,0 0.1,0 0.1,0 0.1,0 0.1,0 0.1,0 0.1,0 0,1.1 0.1,0 0.1,0 0.1,0 0.1,0 0.1,0 0.1,0 0.1,0 0.1,0 0.1,0 0.1,0 0.1,1.1 0.1,0 0.1,0 0.1,0 0.1,0 0.1,0 0.1,0 0.1,0 0.1,0 0.1,0 0.1,0 0.1,0 0,1.1 0.1,0 0.1,0 0.1,0 0.1,0 0.1,0 0.1,0 0.1,0 0.1,0 0.1,0 0.1,0 0.1,0 0.1,0 0.1,0 0.1,0 0.1,0 0.1,0 0.1,0 0.1,0 0.1,0 0.1,0 0,1.2 0.1,0 0.1,0 0.1,0 0.1,0 0.1,0 0.1,0 0.1,0 0.1,0 0,-0.5 0.1,0 0,0.1 0.1,0 0,0.1 0.1,0 0,0.1 0.1,0 0.1,0.1 0.1,0 0,0.1 0.1,0 0,0.1 0.1,0 0,0.1 0.1,0 0.1,0.1 0.1,0.1 0.1,0 0,0.1 0.1,0 0,0.1 0.1,0 0,0.1 0.1,0 0.1,0.1 0.1,0 0,0.1 0.1,0 0,0.1 0.1,0 0.1,0.1 0.1,0.1 0.1,0 0,0.1 0.1,0 0,0.1 0.1,0 0,0.1 0.1,0 0.1,0.1 0.1,0.1 0.1,0 0,0.1 0.1,0 0,0.1 0.1,0 0.1,0.1 0.1,0.1 0.1,0 0,0.1 0.1,0 0,0.1 0.1,0 0.1,0.1 0.1,0.1 0.1,0 0,0.1 0.1,0 0,0.1 0.1,0 0,0.1 0.1,0 0.1,0.1 0.1,0 0,0.1 0.1,0 0,0.1 0.1,0 0,0.1 0.1,0 0.1,0.1 0.1,0.1 0.1,0 0,0.1 0.1,0 0,0.1 0.1,0 0,0.1 0.1,0 0.1,0.1 0.1,0.1 0.1,0 0,0.1 0.1,0 0.1,0.1 0.1,0.1 0.1,0 0,0.1 0.1,0 0,0.1 0.1,0 0,0.1 0.1,0 0,0.1 0.1,0 0.1,0.1 0.1,0 0,0.1 0.1,0 0,0.1 0.1,0 0.1,0.1 0.1,0.1 0.1,0.1 0.1,0 0,0.1 0.1,0 0.1,0.1 0.1,0.1 0.1,0.1 0.1,0 0,0.1 0.1,0 0,0.1 0.1,0 0.1,0.1 0.1,0.1 0.1,0 0,0.1 0.1,0 0,0.1 0.1,0 0,0.1 0.1,0 0.1,0 0,0.1 0.1,0 0,0.1 0.1,0 0,0.1 0.1,0 0.1,0.1 0.1,0.1 0.1,0.1 0.1,0 0,0.1 0.1,0 0,0.1 0.1,0 0,0.1 0.1,0 0.1,0 0,0.1 0.1,0 0,0.1 0.1,0 0,0.1 0.1,0 0.1,0.1 0.1,0 0,0.1 0.1,0 0,0.1 0.1,0 0,0.1 0.1,0 0.1,0.1 0.1,0.1 0.1,0 0,0.1 0.1,0 0,0.1 0.1,0 0,0.1 0.1,0 0.1,0.1 0.1,0 0,0.1 0.1,0 0,0.1 0.1,0 0,0.1 0.1,0 0,0.1 0.1,0 0.1,0.1 0.1,0 0,0.1 0.1,0 0,0.1 0.1,0 0.1,0.1 0.1,0.1 0.1,0 0,0.1 0.1,0 0,0.1 0.1,0 0,0.1 0.1,0 0.1,0.1 0.1,0 0,0.1 0.1,0 0,0.1 0.1,0 0,0.1 0.1,0 0.1,0.1 0.1,0.1 0.1,0 0,0.1 0.1,0 0,0.1 0.1,0 0,0.1 0.1,0 0.1,0.1 0.1,0 0,0.1 0.1,0 0,0.1 0.1,0 0,0.1 0.1,0 0.1,0.1 0.1,0 0,0.1 0.1,0 0,0.1 0.1,0 0,0.1 0.1,0 0,0.1 0.1,0 0.1,0.1 0.1,0 0,0.1 0.1,0 0,0.1 0.1,0 0.1,0.1 0.1,0 0,0.1 0.1,0 0,0.1 0.1,0 0,0.1 0.1,0 0,0.1 0.1,0 0.1,0.1 0.1,0 0,0.1 0.1,0 0,0.1 0.1,0 0,0.1 0.1,0 0.1,0.1 0.1,0 0,0.1 0.1,0 0,0.1 0.1,0 0,0.1 0.1,0 0.1,0.1 0.1,0 0,0.1 0.1,0 0,0.1 0.1,0 0,0.1 0.1,0 0,0.1 0.1,0 0.1,0.1 0.1,0 0,0.1 0.1,0 0,0.1 0.1,0 0,0.1 0.1,0 0.1,0.1 0.1,0.1 0.1,0 0,0.1 0.1,0 0,0.1 0.1,0 0.1,0.1 0.1,0 0,0.1 0.1,0 0,0.1 0.1,0 0,0.1 0.1,0 0,0.1 0.1,0 0.1,0 0,0.1 0.1,0 0,0.1 0.1,0 0,0.1 0.1,0 0,0.1 0.1,0 0,0.1 0.1,0 0.1,0 0,0.1 0.1,0 0,0.1 0.1,0 0,0.1 0.1,0 0.1,0.1 0.1,0 0,0.1 0.1,0 0,0.1 0.1,0 0,0.1 0.1,0 0.1,0.1 0.1,0.1 0.1,0 0,0.1 0.1,0 0,0.1 0.1,0 0,0.1 0.1,0 0.1,0.1 0.1,0 0,0.1 0.1,0 0,0.1 0.1,0 0,0.1 0.1,0 0,0.1 0.1,0 0.1,0 0,0.1 0.1,0 0,0.1 0.1,0 0,0.1 0.1,0 0,0.1 0.1,0 0.1,0.1 0.1,0 0,0.1 0.1,0 0,0.1 0.1,0 0,0.1 0.1,0 0.1,0.1 0.1,0 0,0.1 0.1,0 0,0.1 0.1,0 0,0.1 0.1,0 0,0.1 0.1,0 0.1,0 0,0.1 0.1,0 0,0.1 0.1,0 0,0.1 0.1,0 0,0.1 0.1,0 0.1,0 0,0.1 0.1,0 0,0.1 0.1,0 0,0.1 0.1,0 0,0.1 0.1,0 0.1,0.1 0.1,0 0,0.1 0.1,0 0,0.1 0.1,0 0,0.1 0.1,0 0,0.1 0.1,0 0.1,0.1 0.1,0 0,0.1 0.1,0 0,0.1 0.1,0 0.1,0.1 0.1,0 0,0.1 0.1,0 0,0.1 0.1,0 0,0.1 0.1,0 0,0.1 0.1,0 0.1,0.1 0.1,0 0,0.1 0.1,0 0,0.1 0.1,0 0,0.1 0.1,0 0.1,0.1 0.1,0 0,0.1 0.1,0 0,0.1 0.1,0 0,0.1 0.1,0 0.1,0.1 0.1,0 0,0.1 0.1,0 0,0.1 0.1,0 0,0.1 0.1,0 0,0.1 0.1,0 0.1,0.1 0.1,0 0,0.1 0.1,0 0,0.1 0.1,0 0,0.1 0.1,0 0.1,0.1 0.1,0.1 0.1,0 0,0.1 0.1,0 0,0.1 0.1,0 0.1,0.1 0.1,0.1 0.1,0 0,0.1 0.1,0 0,0.1 0.1,0 0,0.1 0.1,0 0.1,0.1 0.1,0 0,0.1 0.1,0 0,0.1 0.1,0 0,0.1 0.1,0 0.1,0.1 0.1,0 0,0.1 0.1,0 0,0.1 0.1,0 0,0.1 0.1,0 0.1,0.1 0.1,0.1 0.1,0 0,0.1 0.1,0 0,0.1 0.1,0 0,0.1 0.1,0 0.1,0.1 0.1,0 0,0.1 0.1,0 0,0.1 0.1,0 0,0.1 0.1,0 0.1,0.1 0.1,0 0,0.1 0.1,0 0,0.1 0.1,0 0,0.1 0.1,0 0.1,0.1 0.1,0.1 0.1,0 0,0.1 0.1,0 0,0.1 0.1,0 0,0.1 0.1,0 0.1,0.1 0.1,0 0,0.1 0.1,0 0,0.1 0.1,0 0,0.1 0.1,0 0.1,0.1 0.1,0 0,0.1 0.1,0 0,0.1 0.1,0 0,0.1 0.1,0 0.1,0.1 0.1,0.1 0.1,0 0,0.1 0.1,0 0,0.1 0.1,0 0,0.1 0.1,0 0.1,0 0,0.1 0.1,0 0,0.1 0.1,0 0,0.1 0.1,0 0,0.1 0.1,0 0.1,0.1 0.1,0 0,0.1 0.1,0 0,0.1 0.1,0 0,0.1 0.1,0 0,0.1 0.1,0 0.1,0 0,0.1 0.1,0 0,0.1 0.1,0 0,0.1 0.1,0 0,0.1 0.1,0 0.1,0.1 0.1,0 0,0.1 0.1,0 0,0.1 0.1,0 0,0.1 0.1,0 0.1,0.1 0.1,0 0,0.1 0.1,0 0,0.1 0.1,0 0,0.1 0.1,0 0,0.1 0.1,0 0.1,0 0,0.1 0.1,0 0,0.1 0.1,0 0,0.1 0.1,0 0,0.1 0.1,0 0.1,0 0,0.1 0.1,0 0,0.1 0.1,0 0,0.1 0.1,0 0,0.1 0.1,0 0.1,0.1 0.1,0 0,0.1 0.1,0 0,0.1 0.1,0 0,0.1 0.1,0 0.1,0.1 0.1,0 0,0.1 0.1,0 0,0.1 0.1,0 0,0.1 0.1,0 0,0.1 0.1,0 0.1,0 0,0.1 0.1,0 0,0.1 0.1,0 0,0.1 0.1,0 0,0.1 0.1,0 0.1,0.1 0.1,0 0,0.1 0.1,0 0,0.1 0.1,0 0,0.1 0.1,0 0.1,0.1 0.1,0 0,0.1 0.1,0 0,0.1 0.1,0 0,0.1 0.1,0 0.1,0.1 0.1,0.1 0.1,0 0,0.1 0.1,0 0,0.1 0.1,0 0,0.1 0.1,0 0.1,0.1 0.1,0 0,0.1 0.1,0 0,0.1 0.1,0 0,0.1 0.1,0 0.1,0.1 0.1,0 0,0.1 0.1,0 0,0.1 0.1,0 0,0.1 0.1,0 0.1,0.1 0.1,0 0,0.1 0.1,0 0,0.1 0.1,0 0,0.1 0.1,0 0,0.1 0.1,0 0.1,0.1 0.1,0 0,0.1 0.1,0 0,0.1 0.1,0 0,0.1 0.1,0 0.1,0.1 0.1,0 0,0.1 0.1,0 0,0.1 0.1,0 0,0.1 0.1,0 0,0.1 0.1,0 0.1,0.1 0.1,0 0,0.1 0.1,0 0,0.1 0.1,0 0,0.1 0.1,0 0.1,0 0,0.1 0.1,0 0,0.1 0.1,0 0,0.1 0.1,0 0,0.1 0.1,0 0.1,0.1 0.1,0 0,0.1 0.1,0 0,0.1 0.1,0 0,0.1 0.1,0 0.1,0.1 0.1,0.1 0.1,0 0,0.1 0.1,0 0,0.1 0.1,0 0,0.1 0.1,0 0.1,0 0,0.1 0.1,0 0,0.1 0.1,0 0,0.1 0.1,0 0,0.1 0.1,0 0.1,0.1 0.1,0 0,0.1 0.1,0 0,0.1 0.1,0 0,0.1 0.1,0 0,0.1 0.1,0 0.1,0 0,0.1 0.1,0 0,0.1 0.1,0 0,0.1 0.1,0 0,0.1 0.1,0 0.1,0.1 0.1,0 0,0.1 0.1,0 0,0.1 0.1,0 0,0.1 0.1,0 0.1,0.1 0.1,0 0,0.1 0.1,0 0,0.1 0.1,0 0,0.1 0.1,0 0,0.1 0.1,0 0.1,0 0,0.1 0.1,0 0,0.1 0.1,0 0,0.1 0.1,0 0,0.1 0.1,0 0.1,0 0,0.1 0.1,0 0,0.1 0.1,0 0,0.1 0.1,0 0,0.1 0.1,0 0.1,0.1 0.1,0 0,0.1 0.1,0 0,0.1 0.1,0 0,0.1 0.1,0 0.1,0.1 0.1,0 0,0.1 0.1,0 0,0.1 0.1,0 0,0.1 0.1,0 0,0.1 0.1,0 0.1,0 0,0.1 0.1,0 0,0.1 0.1,0 0,0.1 0.1,0 0,0.1 0.1,0 0.1,0.1 0.1,0 0,0.1 0.1,0 0,0.1 0.1,0 0,0.1 0.1,0 0,0.1 0.1,0 0.1,0 0,0.1 0.1,0 0,0.1 0.1,0 0,0.1 0.1,0 0,0.1 0.1,0 0.1,0 0,0.1 0.1,0 0,0.1 0.1,0 0,0.1 0.1,0 0,0.1 0.1,0 0.1,0.1 0.1,0 0,0.1 0.1,0 0,0.1 0.1,0 0,0.1 0.1,0 0.1,0.1 0.1,0 0,0.1 0.1,0 0,0.1 0.1,0 0,0.1 0.1,0 0,0.1 0.1,0 0.1,0 0,0.1 0.1,0 0,0.1 0.1,0 0,0.1 0.1,0 0,0.1 0.1,0 0.1,0.1 0.1,0 0,0.1 0.1,0 0,0.1 0.1,0 0,0.1 0.1,0 0,0.1 0.1,0 0.1,0 0,0.1 0.1,0 0,0.1 0.1,0 0,0.1 0.1,0 0,0.1 0.1,0 0.1,0 0,0.1 0.1,0 0,0.1 0.1,0 0,0.1 0.1,0 0,0.1 0.1,0 0.1,0.1 0.1,0 0,0.1 0.1,0 0,0.1 0.1,0 0,0.1 0.1,0 0.1,0.1 0.1,0 0,0.1 0.1,0 0,0.1 0.1,0 0,0.1 0.1,0 0,0.1 0.1,0 0.1,0 0,0.1 0.1,0 0,0.1 0.1,0 0,0.1 0.1,0 0,0.1 0.1,0 0.1,0.1 0.1,0 0,0.1 0.1,0 0,0.1 0.1,0 0,0.1 0.1,0 0.1,0.1 0.1,0 0,0.1 0.1,0 0,0.1 0.1,0 0,0.1 0.1,0 0,0.1 0.1,0 0.1,0 0,0.1 0.1,0 0,0.1 0.1,0 0,0.1 0.1,0 0,0.1 0.1,0 0.1,0 0,0.1 0.1,0 0,0.1 0.1,0 0,0.1 0.1,0 0,0.1 0.1,0 0.1,0.1 0.1,0 0,0.1 0.1,0 0,0.1 0.1,0 0,0.1 0.1,0 0,0.1 0.1,0 0.1,0 0,0.1 0.1,0 0,0.1 0.1,0 0,0.1 0.1,0 0,0.1 0.1,0 0.1,0 0,0.1 0.1,0 0,0.1 0.1,0 0,0.1 0.1,0 0,0.1 0.1,0 0.1,0.1 0.1,0 0,0.1 0.1,0 0,0.1 0.1,0 0,0.1 0.1,0 0.1,0.1 0.1,0 0,0.1 0.1,0 0,0.1 0.1,0 0,0.1 0.1,0 0,0.1 0.1,0 0.1,0.1 0.1,0 0,0.1 0.1,0 0,0.1 0.1,0 0,0.1 0.1,0 0.1,0.1 0.1,0 0,0.1 0.1,0 0,0.1 0.1,0 0,0.1 0.1,0 0,0.1 0.1,0 0.1,0 0,0.1 0.1,0 0,0.1 0.1,0 0,0.1 0.1,0 0,0.1 0.1,0 0.1,0 0,0.1 0.1,0 0,0.1 0.1,0 0,0.1 0.1,0 0,0.1 0.1,0 0.1,0.1 0.1,0 0,0.1 0.1,0 0,0.1 0.1,0 0,0.1 0.1,0 0.1,0.1 0.1,0 0,0.1 0.1,0 0,0.1 0.1,0 0,0.1 0.1,0 0,0.1 0.1,0 0.1,0 0,0.1 0.1,0 0,0.1 0.1,0 0,0.1 0.1,0 0,0.1 0.1,0 0.1,0.1 0.1,0 0,0.1 0.1,0 0,0.1 0.1,0 0,0.1 0.1,0 0.1,0.1 0.1,0 0,0.1 0.1,0 0,0.1 0.1,0 0,0.1 0.1,0 0,0.1 0.1,0 0.1,0.1 0.1,0 0,0.1 0.1,0 0,0.1 0.1,0 0,0.1 0.1,0 0.1,0 0,0.1 0.1,0 0,0.1 0.1,0 0,0.1 0.1,0 0,0.1 0.1,0 0,0.1 0.1,0 0.1,0 0,0.1 0.1,0 0,0.1 0.1,0 0,0.1 0.1,0 0,0.1 0.1,0 0.1,0 0,0.1 0.1,0 0,0.1 0.1,0 0,0.1 0.1,0 0,0.1 0.1,0 0.1,0.1 0.1,0 0,0.1 0.1,0 0,0.1 0.1,0 0,0.1 0.1,0 0.1,0.1 0.1,0 0,0.1 0.1,0 0,0.1 0.1,0 0,0.1 0.1,0 0,0.1 0.1,0 0.1,0 0,0.1 0.1,0 0,0.1 0.1,0 0,0.1 0.1,0 0,0.1 0.1,0 0.1,0 0,0.1 0.1,0 0,0.1 0.1,0 0,0.1 0.1,0 0,0.1 0.1,0 0,0.1 0.1,0 0.1,0 0,0.1 0.1,0 0,0.1 0.1,0 0,0.1 0.1,0 0,0.1 0.1,0 0.1,0 0,0.1 0.1,0 0,0.1 0.1,0 0,0.1 0.1,0 0,0.1 0.1,0 0.1,0.1 0.1,0 0,0.1 0.1,0 0,0.1 0.1,0 0,0.1 0.1,0 0.1,0.1 0.1,0 0,0.1 0.1,0 0,0.1 0.1,0 0,0.1 0.1,0 0,0.1 0.1,0 0.1,0 0,0.1 0.1,0 0,0.1 0.1,0 0,0.1 0.1,0 0,0.1 0.1,0 0.1,0.1 0.1,0 0,0.1 0.1,0 0,0.1 0.1,0 0,0.1 0.1,0 0.1,0.1 0.1,0 0,0.1 0.1,0 0,0.1 0.1,0 0,0.1 0.1,0 0,0.1 0.1,0 0.1,0 0,0.1 0.1,0 0,0.1 0.1,0 0,0.1 0.1,0 0,0.1 0.1,0 0.1,0.1 0.1,0 0,0.1 0.1,0 0,0.1 0.1,0 0,0.1 0.1,0 0,0.1 0.1,0 0.1,0 0,0.1 0.1,0 0,0.1 0.1,0 0,0.1 0.1,0 0,0.1 0.1,0 0.1,0 0,0.1 0.1,0 0,0.1 0.1,0 0,0.1 0.1,0 0,0.1 0.1,0 0.1,0 0,0.1 0.1,0 0,0.1 0.1,0 0,0.1 0.1,0 0,0.1 0.1,0 0,0.1 0.1,0 0.1,0 0,0.1 0.1,0 0,0.1 0.1,0 0,0.1 0.1,0 0,0.1 0.1,0 0.1,0 0,0.1 0.1,0 0,0.1 0.1,0 0,0.1 0.1,0 0,0.1 0.1,0 0.1,0.1 0.1,0 0,0.1 0.1,0 0,0.1 0.1,0 0,0.1 0.1,0 0.1,0.1 0.1,0 0,0.1 0.1,0 0,0.1 0.1,0 0,0.1 0.1,0 0,0.1 0.1,0 0.1,0 0,0.1 0.1,0 0,0.1 0.1,0 0,0.1 0.1,0 0,0.1 0.1,0 0.1,0.1 0.1,0 0,0.1 0.1,0 0,0.1 0.1,0 0,0.1 0.1,0 0,0.1 0.1,0 0.1,0 0,0.1 0.1,0 0,0.1 0.1,0 0,0.1 0.1,0 0,0.1 0.1,0 0.1,0 0,0.1 0.1,0 0,0.1 0.1,0 0,0.1 0.1,0 0,0.1 0.1,0 0.1,0 0,0.1 0.1,0 0,0.1 0.1,0 0,0.1 0.1,0 0,0.1 0.1,0 0,0.1 0.1,0 0.1,0 0,0.1 0.1,0 0,0.1 0.1,0 0,0.1 0.1,0 0,0.1 0.1,0 0.1,0 0,0.1 0.1,0 0,0.1 0.1,0 0,0.1 0.1,0 0,0.1 0.1,0 0.1,0.1 0.1,0 0,0.1 0.1,0 0,0.1 0.1,0 0,0.1 0.1,0 0,0.1 0.1,0 0.1,0 0,0.1 0.1,0 0,0.1 0.1,0 0,0.1 0.1,0 0,0.1 0.1,0 0.1,0 0,0.1 0.1,0 0,0.1 0.1,0 0,0.1 0.1,0 0,0.1 0.1,0 0.1,0 0,0.1 0.1,0 0,0.1 0.1,0 0,0.1 0.1,0 0,0.1 0.1,0 0.1,0.1 0.1,0 0,0.1 0.1,0 0,0.1 0.1,0 0,0.1 0.1,0 0,0.1 0.1,0 0.1,0 0,0.1 0.1,0 0,0.1 0.1,0 0,0.1 0.1,0 0,0.1 0.1,0 0.1,0 0,0.1 0.1,0 0,0.1 0.1,0 0,0.1 0.1,0 0,0.1 0.1,0 0,0.1 0.1,0 0.1,0 0,0.1 0.1,0 0,0.1 0.1,0 0,0.1 0.1,0 0,0.1 0.1,0 0.1,0 0,0.1 0.1,0 0,0.1 0.1,0 0,0.1 0.1,0 0,0.1 0.1,0 0.1,0 0,0.1 0.1,0 0,0.1 0.1,0 0,0.1 0.1,0 0,0.1 0.1,0 0.1,0.1 0.1,0 0,0.1 0.1,0 0,0.1 0.1,0 0,0.1 0.1,0 0,0.1 0.1,0 0.1,0 0,0.1 0.1,0 0,0.1 0.1,0 0,0.1 0.1,0 0,0.1 0.1,0 0.1,0 0,0.1 0.1,0 0,0.1 0.1,0 0,0.1 0.1,0 0,0.1 0.1,0 0.1,0.1 0.1,0 0,0.1 0.1,0 0,0.1 0.1,0 0,0.1 0.1,0 0,0.1 0.1,0 0.1,0 0,0.1 0.1,0 0,0.1 0.1,0 0,0.1 0.1,0 0,0.1 0.1,0 0.1,0 0,0.1 0.1,0 0,0.1 0.1,0 0,0.1 0.1,0 0,0.1 0.1,0 0.1,0.1 0.1,0 0,0.1 0.1,0 0,0.1 0.1,0 0,0.1 0.1,0 0,0.1 0.1,0 0.1,0 0,0.1 0.1,0 0,0.1 0.1,0 0,0.1 0.1,0 0,0.1 0.1,0 0.1,0 0,0.1 0.1,0 0,0.1 0.1,0 0,0.1 0.1,0 0,0.1 0.1,0 0.1,0.1 0.1,0 0,0.1 0.1,0 0,0.1 0.1,0 0,0.1 0.1,0 0,0.1 0.1,0 0.1,0 0,0.1 0.1,0 0,0.1 0.1,0 0,0.1 0.1,0 0,0.1 0.1,0 0.1,0 0,0.1 0.1,0 0,0.1 0.1,0 0,0.1 0.1,0 0,0.1 0.1,0 0.1,0.1 0.1,0 0,0.1 0.1,0 0,0.1 0.1,0 0,0.1 0.1,0 0,0.1 0.1,0 0.1,0 0,0.1 0.1,0 0,0.1 0.1,0 0,0.1 0.1,0 0,0.1 0.1,0 0.1,0 0,0.1 0.1,0 0,0.1 0.1,0 0,0.1 0.1,0 0,0.1 0.1,0 0.1,0.1 0.1,0 0,0.1 0.1,0 0,0.1 0.1,0 0,0.1 0.1,0 0,0.1 0.1,0 0.1,0 0,0.1 0.1,0 0,0.1 0.1,0 0,0.1 0.1,0 0,0.1 0.1,0 0.1,0 0,0.1 0.1,0 0,0.1 0.1,0 0,0.1 0.1,0 0,0.1 0.1,0 0.1,0.1 0.1,0 0,0.1 0.1,0 0,0.1 0.1,0 0,0.1 0.1,0 0,0.1 0.1,0 0.1,0 0,0.1 0.1,0 0,0.1 0.1,0 0,0.1 0.1,0 0,0.1 0.1,0 0.1,0 0,0.1 0.1,0 0,0.1 0.1,0 0,0.1 0.1,0 0,0.1 0.1,0 0.1,0.1 0.1,0 0,0.1 0.1,0 0,0.1 0.1,0 0,0.1 0.1,0 0,0.1 0.1,0 0.1,0 0,0.1 0.1,0 0,0.1 0.1,0 0,0.1 0.1,0 0,0.1 0.1,0 0.1,0 0,0.1 0.1,0 0,0.1 0.1,0 0,0.1 0.1,0 0,0.1 0.1,0 0.1,0.1 0.1,0 0,0.1 0.1,0 0,0.1 0.1,0 0,0.1 0.1,0 0,0.1 0.1,0 0.1,0 0,0.1 0.1,0 0,0.1 0.1,0 0,0.1 0.1,0 0,0.1 0.1,0 0.1,0 0,0.1 0.1,0 0,0.1 0.1,0 0,0.1 0.1,0 0,0.1 0.1,0 0.1,0 0,0.1 0.1,0 0,0.1 0.1,0 0,0.1 0.1,0 0,0.1 0.1,0 0,0.1 0.1,0 0.1,0 0,0.1 0.1,0 0,0.1 0.1,0 0,0.1 0.1,0 0,0.1 0.1,0 0.1,0 0,0.1 0.1,0 0,0.1 0.1,0 0,0.1 0.1,0 0,0.1 0.1,0 0.1,0.1 0.1,0 0,0.1 0.1,0 0,0.1 0.1,0 0,0.1 0.1,0 0,0.1 0.1,0 0.1,0 0,0.1 0.1,0 0,0.1 0.1,0 0,0.1 0.1,0 0,0.1 0.1,0 0.1,0 0,0.1 0.1,0 0,0.1 0.1,0 0,0.1 0.1,0 0,0.1 0.1,0 0.1,0.1 0.1,0 0,0.1 0.1,0 0,0.1 0.1,0 0,0.1 0.1,0 0,0.1 0.1,0 0.1,0 0,0.1 0.1,0 0,0.1 0.1,0 0,0.1 0.1,0 0,0.1 0.1,0 0.1,0 0,0.1 0.1,0 0,0.1 0.1,0 0,0.1 0.1,0 0,0.1 0.1,0 0.1,0.1 0.1,0 0,0.1 0.1,0 0,0.1 0.1,0 0,0.1 0.1,0 0,0.1 0.1,0 0.1,0 0,0.1 0.1,0 0,0.1 0.1,0 0,0.1 0.1,0 0,0.1 0.1,0 0.1,0 0,0.1 0.1,0 0,0.1 0.1,0 0,0.1 0.1,0 0,0.1 0.1,0 0.1,0 0,0.1 0.1,0 0,0.1 0.1,0 0,0.1 0.1,0 0,0.1 0.1,0 0,0.1 0.1,0 0.1,0 0,0.1 0.1,0 0,0.1 0.1,0 0,0.1 0.1,0 0,0.1 0.1,0 0.1,0 0,0.1 0.1,0 0,0.1 0.1,0 0,0.1 0.1,0 0,0.1 0.1,0 0.1,0 0,0.1 0.1,0 0,0.1 0.1,0 0,0.1 0.1,0 0,0.1 0.1,0 0,0.1 0.1,0 0.1,0 0,0.1 0.1,0 0,0.1 0.1,0 0,0.1 0.1,0 0,0.1 0.1,0 0.1,0 0,0.1 0.1,0 0,0.1 0.1,0 0,0.1 0.1,0 0,0.1 0.1,0 0.1,0.1 0.1,0 0,0.1 0.1,0 0,0.1 0.1,0 0,0.1 0.1,0 0,0.1 0.1,0 0.1,0 0,0.1 0.1,0 0,0.1 0.1,0 0,0.1 0.1,0 0,0.1 0.1,0 0.1,0 0,0.1 0.1,0 0,0.1 0.1,0 0,0.1 0.1,0 0,0.1 0.1,0 0.1,0.1 0.1,0 0,0.1 0.1,0 0,0.1 0.1,0 0,0.1 0.1,0 0,0.1 0.1,0 0.1,0 0,0.1 0.1,0 0,0.1 0.1,0 0,0.1 0.1,0 0,0.1 0.1,0 0.1,0 0,0.1 0.1,0 0,0.1 0.1,0 0,0.1 0.1,0 0,0.1 0.1,0 0.1,0 0,0.1 0.1,0 0,0.1 0.1,0 0,0.1 0.1,0 0,0.1 0.1,0 0,0.1 0.1,0 0.1,0 0,0.1 0.1,0 0,0.1 0.1,0 0,0.1 0.1,0 0,0.1 0.1,0 0.1,0 0,0.1 0.1,0 0,0.1 0.1,0 0,0.1 0.1,0 0,0.1 0.1,0 0.1,0 0,0.1 0.1,0 0,0.1 0.1,0 0,0.1 0.1,0 0,0.1 0.1,0 0,0.1 0.1,0 0.1,0 0,0.1 0.1,0 0,0.1 0.1,0 0,0.1 0.1,0 0,0.1 0.1,0 0.1,0 0,0.1 0.1,0 0,0.1 0.1,0 0,0.1 0.1,0 0,0.1 0.1,0 0.1,0 0,0.1 0.1,0 0,0.1 0.1,0 0,0.1 0.1,0 0,0.1 0.1,0 0,0.1 0.1,0 0.1,0 0,0.1 0.1,0 0,0.1 0.1,0 0,0.1 0.1,0 0,0.1 0.1,0 0.1,0 0,0.1 0.1,0 0,0.1 0.1,0 0,0.1 0.1,0 0,0.1 0.1,0 0.1,0 0,0.1 0.1,0 0,0.1 0.1,0 0,0.1 0.1,0 0,0.1 0.1,0 0,0.1 0.1,0 0.1,0 0,0.1 0.1,0 0,0.1 0.1,0 0,0.1 0.1,0 0,0.1 0.1,0 0.1,0 0,0.1 0.1,0 0,0.1 0.1,0 0,0.1 0.1,0 0,0.1 0.1,0 0.1,0 0,0.1 0.1,0 0,0.1 0.1,0 0,0.1 0.1,0 0,0.1 0.1,0 0,0.1 0.1,0 0.1,0 0,0.1 0.1,0 0,0.1 0.1,0 0,0.1 0.1,0 0,0.1 0.1,0 0.1,0 0,0.1 0.1,0 0,0.1 0.1,0 0,0.1 0.1,0 0,0.1 0.1,0 0.1,0 0,0.1 0.1,0 0,0.1 0.1,0 0,0.1 0.1,0 0,0.1 0.1,0 0,0.1 0.1,0 0.1,0 0,0.1 0.1,0 0,0.1 0.1,0 0,0.1 0.1,0 0,0.1 0.1,0 0.1,0 0,0.1 0.1,0 0,0.1 0.1,0 0,0.1 0.1,0 0,0.1 0.1,0 0.1,0 0,0.1 0.1,0 0,0.1 0.1,0 0,0.1 0.1,0 0,0.1 0.1,0 0,0.1 0.1,0 0.1,0 0,0.1 0.1,0 0,0.1 0.1,0 0,0.1 0.1,0 0,0.1 0.1,0 0.1,0 0,0.1 0.1,0 0,0.1 0.1,0 0,0.1 0.1,0 0,0.1 0.1,0 0.1,0 0,0.1 0.1,0 0,0.1 0.1,0 0,0.1 0.1,0 0,0.1 0.1,0 0,0.1 0.1,0 0.1,0 0,0.1 0.1,0 0,0.1 0.1,0 0,0.1 0.1,0 0,0.1 0.1,0 0.1,0 0,0.1 0.1,0 0,0.1 0.1,0 0,0.1 0.1,0 0,0.1 0.1,0 0.1,0 0,0.1 0.1,0 0,0.1 0.1,0 0,0.1 0.1,0 0,0.1 0.1,0 0,0.1 0.1,0 0.1,0 0,0.1 0.1,0 0,0.1 0.1,0 0,0.1 0.1,0 0,0.1 0.1,0 0.1,0 0,0.1 0.1,0 0,0.1 0.1,0 0,0.1 0.1,0 0,0.1 0.1,0 0.1,0 0,0.1 0.1,0 0,0.1 0.1,0 0,0.1 0.1,0 0,0.1 0.1,0 0,0.1 0.1,0 0.1,0 0,0.1 0.1,0 0,0.1 0.1,0 0,0.1 0.1,0 0,0.1 0.1,0 0.1,0 0,0.1 0.1,0 0,0.1 0.1,0 0,0.1 0.1,0 0,0.1 0.1,0 0.1,0 0,0.1 0.1,0 0,0.1 0.1,0 0,0.1 0.1,0 0,0.1 0.1,0 0,0.1 0.1,0 0.1,0 0,0.1 0.1,0 0,0.1 0.1,0 0,0.1 0.1,0 0,0.1 0.1,0 0.1,0 0,0.1 0.1,0 0,0.1 0.1,0 0,0.1 0.1,0 0,0.1 0.1,0 0.1,0 0,0.1 0.1,0 0,0.1 0.1,0 0,0.1 0.1,0 0,0.1 0.1,0 0,0.1 0.1,0 0.1,0 0,0.1 0.1,0 0,0.1 0.1,0 0,0.1 0.1,0 0,0.1 0.1,0 0.1,0 0,0.1 0.1,0 0,0.1 0.1,0 0,0.1 0.1,0 0,0.1 0.1,0 0.1,0 0,0.1 0.1,0 0,0.1 0.1,0 0,0.1 0.1,0 0,0.1 0.1,0 0,0.1 0.1,0 0.1,0 0,0.1 0.1,0 0,0.1 0.1,0 0,0.1 0.1,0 0,0.1 0.1,0 0.1,0 0,0.1 0.1,0 0,0.1 0.1,0 0,0.1 0.1,0 0,0.1 0.1,0 0.1,0 0,0.1 0.1,0 0,0.1 0.1,0 0,0.1 0.1,0 0,0.1 0.1,0 0,0.1 0.1,0 0.1,0 0,0.1 0.1,0 0,0.1 0.1,0 0,0.1 0.1,0 0,0.1 0.1,0 0.1,0 0,0.1 0.1,0 0,0.1 0.1,0 0,0.1 0.1,0 0,0.1 0.1,0 0.1,0 0,0.1 0.1,0 0,0.1 0.1,0 0,0.1 0.1,0 0,0.1 0.1,0 0,0.1 0.1,0 0.1,0 0,0.1 0.1,0 0,0.1 0.1,0 0,0.1 0.1,0 0,0.1 0.1,0 0.1,0 0,0.1 0.1,0 0,0.1 0.1,0 0,0.1 0.1,0 0,0.1 0.1,0 0.1,0 0,0.1 0.1,0 0,0.1 0.1,0 0,0.1 0.1,0 0,0.1 0.1,0 0,0.1 0.1,0 0.1,0 0,0.1 0.1,0 0,0.1 0.1,0 0,0.1 0.1,0 0,0.1 0.1,0 0.1,0 0,0.1 0.1,0 0,0.1 0.1,0 0,0.1 0.1,0 0,0.1 0.1,0 0.1,0 0,0.1 0.1,0 0,0.1 0.1,0 0,0.1 0.1,0 0,0.1 0.1,0 0,0.1 0.1,0 0.1,0 0,0.1 0.1,0 0,0.1 0.1,0 0,0.1 0.1,0 0,0.1 0.1,0 0.1,0 0,0.1 0.1,0 0,0.1 0.1,0 0,0.1 0.1,0 0,0.1 0.1,0 0.1,0 0,0.1 0.1,0 0,0.1 0.1,0 0,0.1 0.1,0 0,0.1 0.1,0 0,0.1 0.1,0 0.1,0 0,0.1 0.1,0 0,0.1 0.1,0 0,0.1 0.1,0 0,0.1 0.1,0 0.1,0 0,0.1 0.1,0 0,0.1 0.1,0 0,0.1 0.1,0 0,0.1 0.1,0 0.1,0 0,0.1 0.1,0 0,0.1 0.1,0 0,0.1 0.1,0 0,0.1 0.1,0 0,0.1 0.1,0 0.1,0 0,0.1 0.1,0 0,0.1 0.1,0 0,0.1 0.1,0 0,0.1 0.1,0 0.1,0 0,0.1 0.1,0 0,0.1 0.1,0 0,0.1 0.1,0 0,0.1 0.1,0 0.1,0 0,0.1 0.1,0 0,0.1 0.1,0 0,0.1 0.1,0 0,0.1 0.1,0 0,0.1 0.1,0 0.1,0 0,0.1 0.1,0 0,0.1 0.1,0 0,0.1 0.1,0 0,0.1 0.1,0 0.1,0 0,0.1 0.1,0 0,0.1 0.1,0 0,0.1 0.1,0 0,0.1 0.1,0 0.1,0 0,0.1 0.1,0 0,0.1 0.1,0 0,0.1 0.1,0 0,0.1 0.1,0 0,0.1 0.1,0 0.1,0 0,0.1 0.1,0 0,0.1 0.1,0 0,0.1 0.1,0 0,0.1 0.1,0 0.1,0 0,0.1 0.1,0 0,0.1 0.1,0 0,0.1 0.1,0 0,0.1 0.1,0 0.1,0 0,0.1 0.1,0 0,0.1 0.1,0 0,0.1 0.1,0 0,0.1 0.1,0 0,0.1 0.1,0 0.1,0 0,0.1 0.1,0 0,0.1 0.1,0 0,0.1 0.1,0 0,0.1 0.1,0 0.1,0 0,0.1 0.1,0 0,0.1 0.1,0 0,0.1 0.1,0 0,0.1 0.1,0 0.1,0 0,0.1 0.1,0 0,0.1 0.1,0 0,0.1 0.1,0 0,0.1 0.1,0 0,0.1 0.1,0 0.1,0 0,0.1 0.1,0 0,0.1 0.1,0 0,0.1 0.1,0 0,0.1 0.1,0 0.1,0 0,0.1 0.1,0 0,0.1 0.1,0 0,0.1 0.1,0 0,0.1 0.1,0 0.1,0 0,0.1 0.1,0 0,0.1 0.1,0 0,0.1 0.1,0 0,0.1 0.1,0 0,0.1 0.1,0 0.1,0 0,0.1 0.1,0 0,0.1 0.1,0 0,0.1 0.1,0 0,0.1 0.1,0 0.1,0 0,0.1 0.1,0 0,0.1 0.1,0 0,0.1 0.1,0 0,0.1 0.1,0 0.1,0 0,0.1 0.1,0 0,0.1 0.1,0 0,0.1 0.1,0 0,0.1 0.1,0 0,0.1 0.1,0 0.1,0 0,0.1 0.1,0 0,0.1 0.1,0 0,0.1 0.1,0 0,0.1 0.1,0 0.1,0 0,0.1 0.1,0 0,0.1 0.1,0 0,0.1 0.1,0 0,0.1 0.1,0 0.1,0 0,0.1 0.1,0 0,0.1 0.1,0 0,0.1 0.1,0 0,0.1 0.1,0 0,0.1 0.1,0 0.1,0 0,0.1 0.1,0 0,0.1 0.1,0 0,0.1 0.1,0 0,0.1 0.1,0 0.1,0 0,0.1 0.1,0 0,0.1 0.1,0 0,0.1 0.1,0 0,0.1 0.1,0 0.1,0 0,0.1 0.1,0 0,0.1 0.1,0 0,0.1 0.1,0 0,0.1 0.1,0 0,0.1 0.1,0 0.1,0 0,0.1 0.1,0 0,0.1 0.1,0 0,0.1 0.1,0 0,0.1 0.1,0 h 0.01"
           id="path196"
           style="stroke:#000000;stroke-width:2;stroke-miterlimit:4;stroke-dasharray:none"
           inkscape:connector-curvature="0" />
      </g>
    </g>
    <g
       style="color:#000000;fill:none;stroke:currentColor;stroke-width:0.5;stroke-linecap:butt;stroke-linejoin:miter"
       id="g198" />
  </g>
  <path
     style="fill:none;stroke:#000000;stroke-width:2.0000001;stroke-linecap:butt;stroke-linejoin:miter;stroke-opacity:1;stroke-miterlimit:4;stroke-dasharray:none"
     d="m 367.32751,392.94165 0,-148.34614"
     id="path4304"
     inkscape:path-effect="#path-effect4306"
     inkscape:original-d="m 367.32751,392.94165 0,-148.34614"
     inkscape:connector-curvature="0"
     sodipodi:nodetypes="cc" />
  <path
     style="fill:none;stroke:#000000;stroke-width:2;stroke-linecap:butt;stroke-linejoin:miter;stroke-miterlimit:4;stroke-opacity:1;stroke-dasharray:none;marker-end:url(#TriangleOutM)"
     d="m 366.47617,338.76858 -45.71428,0"
     id="path4816"
     inkscape:path-effect="#path-effect4818"
     inkscape:original-d="m 366.47617,338.76858 -45.71428,0"
     inkscape:connector-curvature="0" />
  <path
     style="fill:none;stroke:#000000;stroke-width:2;stroke-linecap:butt;stroke-linejoin:miter;stroke-miterlimit:4;stroke-opacity:1;stroke-dasharray:none;marker-end:url(#TriangleOutM)"
     d="m 366.93369,338.76858 45.71428,0"
     id="path4816-2"
     inkscape:path-effect="#path-effect4818-1"
     inkscape:original-d="m 366.93369,338.76858 45.71428,0"
     inkscape:connector-curvature="0" />
  <text
     xml:space="preserve"
     style="font-size:20.31064987px;font-style:normal;font-weight:normal;line-height:125%;letter-spacing:0px;word-spacing:0px;fill:#000000;fill-opacity:1;stroke:none;font-family:Bitstream Vera Sans"
     x="375.81369"
     y="362.18359"
     id="text5477"
     sodipodi:linespacing="125%"><tspan
       sodipodi:role="line"
       id="tspan5479"
       x="375.81369"
       y="362.18359">ideal</tspan></text>
  <text
     xml:space="preserve"
     style="font-size:20.31065178px;font-style:normal;font-weight:normal;text-align:start;line-height:125%;letter-spacing:0px;word-spacing:0px;writing-mode:lr-tb;text-anchor:start;fill:#000000;fill-opacity:1;stroke:none;font-family:Bitstream Vera Sans"
     x="320.5777"
     y="362.18359"
     id="text5477-5"
     sodipodi:linespacing="125%"><tspan
       sodipodi:role="line"
       id="tspan5502"
       x="320.5777"
       y="362.18359">real</tspan></text>
</svg>
