<?xml version="1.0" encoding="UTF-8" standalone="no"?>
<svg
   xmlns:dc="http://purl.org/dc/elements/1.1/"
   xmlns:cc="http://creativecommons.org/ns#"
   xmlns:rdf="http://www.w3.org/1999/02/22-rdf-syntax-ns#"
   xmlns:svg="http://www.w3.org/2000/svg"
   xmlns="http://www.w3.org/2000/svg"
   xmlns:xlink="http://www.w3.org/1999/xlink"
   xmlns:sodipodi="http://sodipodi.sourceforge.net/DTD/sodipodi-0.dtd"
   xmlns:inkscape="http://www.inkscape.org/namespaces/inkscape"
   viewBox="0 0 586.4958 436.96464"
   id="svg2"
   version="1.1"
   inkscape:version="0.48.4 r9939"
   width="100%"
   height="100%"
   sodipodi:docname="entropy_estimation_error_N3.svg">
  <metadata
     id="metadata195">
    <rdf:RDF>
      <cc:Work
         rdf:about="">
        <dc:format>image/svg+xml</dc:format>
        <dc:type
           rdf:resource="http://purl.org/dc/dcmitype/StillImage" />
        <dc:title>Gnuplot</dc:title>
      </cc:Work>
    </rdf:RDF>
  </metadata>
  <defs
     id="defs193">
    <inkscape:path-effect
       effect="spiro"
       id="path-effect3089"
       is_visible="true" />
    <inkscape:path-effect
       effect="spiro"
       id="path-effect3176"
       is_visible="true" />
  </defs>
  <sodipodi:namedview
     pagecolor="#ffffff"
     bordercolor="#666666"
     borderopacity="1"
     objecttolerance="10"
     gridtolerance="10"
     guidetolerance="10"
     inkscape:pageopacity="0"
     inkscape:pageshadow="2"
     inkscape:window-width="1131"
     inkscape:window-height="723"
     id="namedview191"
     showgrid="false"
     fit-margin-top="0"
     fit-margin-left="0"
     fit-margin-right="0"
     fit-margin-bottom="0"
     inkscape:zoom="1.1645437"
     inkscape:cx="293.2479"
     inkscape:cy="218.48232"
     inkscape:window-x="57"
     inkscape:window-y="33"
     inkscape:window-maximized="0"
     inkscape:current-layer="svg2" />
  <title
     id="title4">Gnuplot</title>
  <desc
     id="desc6">Produced by GNUPLOT 4.6 patchlevel 1 </desc>
  <g
     id="gnuplot_canvas"
     transform="translate(10.495803,0)">
    <rect
       x="0"
       y="0"
       width="576"
       height="432"
       id="rect9"
       style="fill:none" />
    <defs
       id="defs11">
      <circle
         id="gpDot"
         r="0.5"
         cx="0"
         cy="0"
         sodipodi:cx="0"
         sodipodi:cy="0"
         sodipodi:rx="0.5"
         sodipodi:ry="0.5"
         style="stroke-width:0.5" />
      <path
         id="gpPt0"
         d="M -1,0 H 1 M 0,-1 v 2"
         inkscape:connector-curvature="0"
         style="stroke:currentColor;stroke-width:0.333" />
      <path
         id="gpPt1"
         d="M -1,-1 1,1 M 1,-1 -1,1"
         inkscape:connector-curvature="0"
         style="stroke:currentColor;stroke-width:0.333" />
      <path
         id="gpPt2"
         d="M -1,0 1,0 M 0,-1 0,1 m -1,-2 2,2 m -2,0 2,-2"
         inkscape:connector-curvature="0"
         style="stroke:currentColor;stroke-width:0.333" />
      <rect
         id="gpPt3"
         x="-1"
         y="-1"
         width="2"
         height="2"
         style="stroke:currentColor;stroke-width:0.333" />
      <rect
         id="gpPt4"
         x="-1"
         y="-1"
         width="2"
         height="2"
         style="fill:currentColor;stroke:currentColor;stroke-width:0.333" />
      <circle
         id="gpPt5"
         cx="0"
         cy="0"
         r="1"
         sodipodi:cx="0"
         sodipodi:cy="0"
         sodipodi:rx="1"
         sodipodi:ry="1"
         style="stroke:currentColor;stroke-width:0.333" />
      <use
         xlink:href="#gpPt5"
         id="gpPt6"
         style="fill:currentColor;stroke:none"
         x="0"
         y="0"
         width="576"
         height="432" />
      <path
         id="gpPt7"
         d="m 0,-1.33 -1.33,2 2.66,0 z"
         inkscape:connector-curvature="0"
         style="stroke:currentColor;stroke-width:0.333" />
      <use
         xlink:href="#gpPt7"
         id="gpPt8"
         style="fill:currentColor;stroke:none"
         x="0"
         y="0"
         width="576"
         height="432" />
      <use
         xlink:href="#gpPt7"
         id="gpPt9"
         transform="scale(-1,-1)"
         style="stroke:currentColor"
         x="0"
         y="0"
         width="576"
         height="432" />
      <use
         xlink:href="#gpPt9"
         id="gpPt10"
         style="fill:currentColor;stroke:none"
         x="0"
         y="0"
         width="576"
         height="432" />
      <use
         xlink:href="#gpPt3"
         id="gpPt11"
         transform="matrix(0.70710678,0.70710678,-0.70710678,0.70710678,0,0)"
         style="stroke:currentColor"
         x="0"
         y="0"
         width="576"
         height="432" />
      <use
         xlink:href="#gpPt11"
         id="gpPt12"
         style="fill:currentColor;stroke:none"
         x="0"
         y="0"
         width="576"
         height="432" />
    </defs>
    <g
       style="color:#ffffff;fill:none;stroke:currentColor;stroke-width:1;stroke-linecap:butt;stroke-linejoin:miter"
       id="g27" />
    <g
       style="color:#000000;fill:none;stroke:currentColor;stroke-width:1;stroke-linecap:butt;stroke-linejoin:miter"
       id="g29">
      <g
         style="stroke:none"
         id="g31">
        <polygon
           points="48.4,11.4 48.4,393.6 559,393.6 559,11.4 "
           id="polygon33"
           style="fill:#ffffff" />
      </g>
      <path
         d="m 48.4,393.6 0,-382.2 510.6,0 0,382.2 -510.6,0 h 0.01"
         id="path35"
         inkscape:connector-curvature="0"
         style="stroke:#000000" />
    </g>
    <g
       style="color:#000000;fill:none;stroke:#000000;stroke-width:0.5;stroke-linecap:butt;stroke-linejoin:miter"
       id="g37">
      <path
         d="m 48.4,393.6 8.4,0 m 502.3,0 -8.4,0 h 0.01"
         id="path39"
         inkscape:connector-curvature="0" />
      <g
         transform="translate(42.8,396.6)"
         style="font-size:12.5px;text-anchor:end;fill:#000000;stroke:none"
         id="g41">
        <text
           id="text43">
          <tspan
             id="tspan45">-0.3</tspan>
        </text>
      </g>
      <path
         d="m 48.4,317.1 8.4,0 m 502.3,0 -8.4,0 h 0.01"
         id="path47"
         style="stroke-width:2;stroke-miterlimit:4;stroke-dasharray:none"
         inkscape:connector-curvature="0" />
      <g
         transform="translate(42.8,320.1)"
         style="font-size:12.5px;text-anchor:end;fill:#000000;stroke:none"
         id="g49">
        <text
           id="text51">
          <tspan
             id="tspan53">-0.2</tspan>
        </text>
      </g>
      <path
         d="m 48.4,240.7 8.4,0 m 502.3,0 -8.4,0 h 0.01"
         id="path55"
         style="stroke-width:2;stroke-miterlimit:4;stroke-dasharray:none"
         inkscape:connector-curvature="0" />
      <g
         transform="translate(42.8,243.7)"
         style="font-size:12.5px;text-anchor:end;fill:#000000;stroke:none"
         id="g57">
        <text
           id="text59">
          <tspan
             id="tspan61">-0.1</tspan>
        </text>
      </g>
      <path
         d="m 48.4,164.2 8.4,0 m 502.3,0 -8.4,0 h 0.01"
         id="path63"
         style="stroke-width:2;stroke-miterlimit:4;stroke-dasharray:none"
         inkscape:connector-curvature="0" />
      <g
         transform="translate(42.8,167.2)"
         style="font-size:12.5px;text-anchor:end;fill:#000000;stroke:none"
         id="g65">
        <text
           id="text67">
          <tspan
             id="tspan69">0</tspan>
        </text>
      </g>
      <path
         d="m 48.4,87.8 8.4,0 m 502.3,0 -8.4,0 h 0.01"
         id="path71"
         style="stroke-width:2;stroke-miterlimit:4;stroke-dasharray:none"
         inkscape:connector-curvature="0" />
      <g
         transform="translate(42.8,90.8)"
         style="font-size:12.5px;text-anchor:end;fill:#000000;stroke:none"
         id="g73">
        <text
           id="text75">
          <tspan
             id="tspan77">0.1</tspan>
        </text>
      </g>
      <path
         d="m 48.4,11.3 8.4,0 m 502.3,0 -8.4,0 h 0.01"
         id="path79"
         inkscape:connector-curvature="0" />
      <g
         transform="translate(42.8,14.3)"
         style="font-size:12.5px;text-anchor:end;fill:#000000;stroke:none"
         id="g81">
        <text
           id="text83">
          <tspan
             id="tspan85">0.2</tspan>
        </text>
      </g>
      <path
         d="m 48.4,393.6 0,-8.4 m 0,-373.9 0,8.4 h 0.01"
         id="path87"
         inkscape:connector-curvature="0" />
      <g
         transform="translate(48.4,408.6)"
         style="font-size:12.5px;text-anchor:middle;fill:#000000;stroke:none"
         id="g89">
        <text
           id="text91">
          <tspan
             id="tspan93">10</tspan>
          <tspan
             font-size="8.0pt"
             dy="-6.25"
             id="tspan95"
             style="font-size:10px">0</tspan>
          <tspan
             font-size="10.0pt"
             dy="6.25"
             id="tspan97"
             style="font-size:12.5px" />
        </text>
      </g>
      <path
         d="m 161,393.6 0,-8.4 m 0,-373.9 0,8.4 h 0.01"
         id="path99"
         style="stroke-width:2;stroke-miterlimit:4;stroke-dasharray:none"
         inkscape:connector-curvature="0" />
      <g
         transform="translate(161,408.6)"
         style="font-size:12.5px;text-anchor:middle;fill:#000000;stroke:none"
         id="g101">
        <text
           id="text103">
          <tspan
             id="tspan105">10</tspan>
          <tspan
             font-size="8.0pt"
             dy="-6.25"
             id="tspan107"
             style="font-size:10px">1</tspan>
          <tspan
             font-size="10.0pt"
             dy="6.25"
             id="tspan109"
             style="font-size:12.5px" />
        </text>
      </g>
      <path
         d="m 273.6,393.6 0,-8.4 m 0,-373.9 0,8.4 h 0.01"
         id="path111"
         style="stroke-width:2;stroke-miterlimit:4;stroke-dasharray:none"
         inkscape:connector-curvature="0" />
      <g
         transform="translate(273.6,408.6)"
         style="font-size:12.5px;text-anchor:middle;fill:#000000;stroke:none"
         id="g113">
        <text
           id="text115">
          <tspan
             id="tspan117">10</tspan>
          <tspan
             font-size="8.0pt"
             dy="-6.25"
             id="tspan119"
             style="font-size:10px">2</tspan>
          <tspan
             font-size="10.0pt"
             dy="6.25"
             id="tspan121"
             style="font-size:12.5px" />
        </text>
      </g>
      <path
         d="m 386.1,393.6 0,-8.4 m 0,-373.9 0,8.4 h 0.01"
         id="path123"
         style="stroke-width:2;stroke-miterlimit:4;stroke-dasharray:none"
         inkscape:connector-curvature="0" />
      <g
         transform="translate(386.1,408.6)"
         style="font-size:12.5px;text-anchor:middle;fill:#000000;stroke:none"
         id="g125">
        <text
           id="text127">
          <tspan
             id="tspan129">10</tspan>
          <tspan
             font-size="8.0pt"
             dy="-6.25"
             id="tspan131"
             style="font-size:10px">3</tspan>
          <tspan
             font-size="10.0pt"
             dy="6.25"
             id="tspan133"
             style="font-size:12.5px" />
        </text>
      </g>
      <path
         d="m 498.7,393.6 0,-8.4 m 0,-373.9 0,8.4 h 0.01"
         id="path135"
         style="stroke-width:2;stroke-miterlimit:4;stroke-dasharray:none"
         inkscape:connector-curvature="0" />
      <g
         transform="translate(498.7,408.6)"
         style="font-size:12.5px;text-anchor:middle;fill:#000000;stroke:none"
         id="g137">
        <text
           id="text139">
          <tspan
             id="tspan141">10</tspan>
          <tspan
             font-size="8.0pt"
             dy="-6.25"
             id="tspan143"
             style="font-size:10px">4</tspan>
          <tspan
             font-size="10.0pt"
             dy="6.25"
             id="tspan145"
             style="font-size:12.5px" />
        </text>
      </g>
      <path
         d="m 48.4,11.3 0,382.3 510.7,0 0,-382.3 -510.7,0 z m 0,0 h 0.01"
         id="path147"
         style="stroke-width:2;stroke-miterlimit:4;stroke-dasharray:none"
         inkscape:connector-curvature="0" />
      <g
         transform="matrix(0,-1,1,0,11.8,202.5)"
         style="font-size:12.5px;text-anchor:middle;fill:#000000;stroke:none"
         id="g149" />
      <g
         transform="translate(303.7,426.6)"
         style="font-size:12.5px;text-anchor:middle;fill:#000000;stroke:none"
         id="g157">
        <text
           id="text159"
           y="10.364641"
           style="font-size:29.96119881px">
          <tspan
             id="tspan161">N</tspan>
        </text>
      </g>
    </g>
    <g
       id="gnuplot_plot_1a">
      <title
         id="title164">gnuplot_plot_1a</title>
      <g
         style="color:#ff0000;fill:none;stroke:currentColor;stroke-width:0.5;stroke-linecap:butt;stroke-linejoin:miter"
         id="g166">
        <g
           transform="translate(513.9,372.6)"
           style="font-size:12.5px;text-anchor:end;fill:#000000;stroke:none"
           id="g168">
          <text
             id="text170"
             y="-4">
            <tspan
               id="tspan172">estimation error</tspan>
          </text>
        </g>
        <path
           style="stroke:#000000;stroke-width:2;stroke-miterlimit:4;stroke-dasharray:none"
           d="m 519.5,365.6 28.4,0"
           id="path3959"
           inkscape:connector-curvature="0" />
        <path
           style="stroke:#000000;stroke-width:2;stroke-miterlimit:4;stroke-opacity:1;stroke-dasharray:none"
           d="m 48.4,164.2 33.9,-19.9 19.8,-86.6 14.1,49.8 10.9,41.6 8.9,27.7 7.5,24 6.6,12.5 5.7,6.1 5.2,17.8 4.6,11.9 4.3,6.7 3.9,5 3.6,2.9 3.4,2.2 3.2,0.4 2.9,-0.4 2.8,-2.2 2.7,-1.5 2.5,-2.5 2.4,-2.7 2.2,-2.8 2.2,-1.2 2.1,-1.8 2,-1.4 1.9,-2.2 1.8,-0.9 1.8,-1.4 1.7,0.1 1.7,0.7 1.6,0.5 1.5,0.2 1.5,-0.1 1.5,-0.6 1.4,-0.8 1.4,-0.9 1.3,-0.9 1.3,0 1.3,0.8 1.3,0.9 1.2,0.9 1.1,0.6 1.2,0.7 1.1,0.7 1.1,0.5 1.1,0.4 1,0.3 1.1,0.9 1,0.7 1,0.6 0.9,0.7 1,0.5 0.9,0.4 0.9,0.2 0.9,0.4 0.9,0.1 0.9,0 0.8,0.2 0.9,0.5 0.8,0.6 0.8,0.7 0.8,1 0.8,0.9 0.7,0.8 0.8,1 0.7,0.8 0.8,0.7 0.7,0.7 0.7,0.6 0.7,0.6 0.7,0.7 0.7,0.7 0.7,0.7 0.6,0.7 0.7,0.5 0.6,0.5 0.7,0.5 0.6,0.4 0.6,0.3 0.6,0.2 0.7,0.3 0.6,0.7 0.5,0.6 0.6,0.6 0.6,0.6 0.6,0.5 0.5,0.6 0.6,0.5 0.6,0.6 0.5,0.4 0.5,0.5 0.6,0.3 0.5,0.6 0.5,0.6 0.5,0.6 0.6,0.5 0.5,0.5 0.5,0.5 0.5,0.5 0.5,0.5 0.4,0.5 0.5,0.4 0.5,0.5 0.5,0.4 0.4,0.4 0.5,0.4 0.5,0.4 0.4,0.3 0.5,0.4 0.4,0.3 0.5,0.2 0.4,0.4 0.4,0.3 0.5,0.4 0.4,0.4 0.4,0.3 0.4,0.3 0.4,0.5 0.5,0.4 0.4,0.5 0.4,0.4 0.4,0.4 0.4,0.4 0.4,0.5 0.4,0.4 0.4,0.5 0.3,0.4 0.4,0.4 0.4,0.4 0.4,0.4 0.4,0.4 0.3,0.3 0.4,0.4 0.4,0.3 0.3,0.3 0.4,0.3 0.3,0.3 0.4,0.3 0.4,0.3 0.3,0.2 0.4,0.3 0.3,0.2 0.3,0.3 0.4,0.2 0.3,0.3 0.4,0.2 0.3,0.2 0.3,0.2 0.4,0.1 0.3,0.2 0.3,0.2 0.3,0.2 0.3,0.2 0.4,0.2 0.3,0.2 0.3,0.1 0.3,0.2 0.3,0.1 0.3,0.2 0.3,0.2 0.3,0.1 0.3,0.2 0.3,0.2 0.3,0.3 0.3,0.2 0.3,0.3 0.3,0.2 0.3,0.2 0.3,0.2 0.3,0.2 0.3,0.1 0.3,0.2 0.3,0.2 0.2,0.1 0.3,0.2 0.3,0.2 0.3,0.2 0.2,0.2 0.3,0.1 0.3,0.3 0.3,0.1 0.2,0.2 0.3,0.2 0.3,0.2 0.2,0.2 0.3,0.1 0.3,0.2 0.2,0.1 0.3,0.2 0.2,0.1 0.3,0.1 0.2,0.2 0.3,0.1 0.3,0.1 0.2,0.1 0.3,0.1 0.2,0.1 0.3,0.1 0.2,0.1 0.2,0.1 0.3,0.1 0.2,0 0.3,0.1 0.2,0 0.3,0.1 0.2,0 0.2,0.1 0.3,0 0.2,0.1 0.2,0 0.3,0 0.2,0 0.2,0.1 0.3,0 0.2,0.1 0.2,0.1 0.2,0.1 0.3,0.1 0.2,0 0.2,0.1 0.2,0.1 0.2,0 0.3,0.1 0.2,0 0.2,0.1 0.2,0 0.2,0 0.2,0.1 0.3,0 0.2,0 0.2,0.1 0.2,0 0.2,0 0.2,0.1 0.2,0 0.2,0 0.2,0 0.2,0 0.3,0 0.2,0 0.2,0.1 0.2,0 0.2,0 0.2,0 0.2,0.1 0.2,0 0.2,0 0.2,0 0.2,0.1 0.2,0 0.1,0.1 0.2,0 0.2,0.1 0.2,0 0.2,0 0.2,0 0.2,0.1 0.2,0 0.2,0 0.2,0 0.2,0 0.1,0 0.2,0 0.2,0 0.2,0.1 0.2,0 0.2,0 0.2,0 0.1,0 0.2,0 0.2,0 0.2,0 0.2,0 0.1,0.1 0.2,0 0.2,0 0.2,0 0.1,0 0.2,0 0.2,-0.1 0.2,0 0.1,0 0.2,0 0.2,0 0.2,0 0.1,0 0.2,0 0.2,0 0.1,0 0.2,0 0.2,0 0.1,0 0.2,0.1 0.2,0 0.1,0 0.2,0 0.2,0 0.1,0 0.2,0 0.2,0 0.1,0 0.2,0 0.2,0.1 0.1,0 0.2,0 0.1,0 0.2,0 0.2,0 0.1,0 0.2,0 0.1,0 0.2,0.1 0.1,0 0.2,0 0.2,0.1 0.1,0 0.2,0.1 0.1,0 0.2,0.1 0.1,0 0.2,0.1 0.1,0 0.2,0.1 0.1,0.1 0.2,0 0.1,0 0.2,0.1 0.1,0 0.2,0.1 0.1,0 0.2,0 0.1,0.1 0.2,0 0.1,0.1 0.2,0 0.1,0.1 0.2,0 0.1,0.1 0.1,0 0.2,0.1 0.1,0 0.2,0.1 0.1,0 0.2,0.1 0.1,0 0.1,0.1 0.2,0.1 0.1,0 0.2,0.1 0.1,0.1 0.1,0 0.2,0.1 0.1,0 0.2,0.1 0.1,0.1 0.1,0.1 0.2,0 0.1,0.1 0.1,0 0.2,0.1 0.1,0.1 0.2,0 0.1,0.1 0.1,0.1 0.2,0 0.1,0.1 0.1,0.1 0.2,0.1 0.1,0.1 0.1,0 0.2,0.1 0.1,0.1 0.1,0.1 0.1,0.1 0.2,0 0.1,0.1 0.1,0.1 0.2,0 0.1,0.1 0.1,0.1 0.2,0 0.1,0.1 0.1,0.1 0.1,0 0.2,0.1 0.1,0 0.1,0.1 0.1,0 0.2,0.1 0.1,0.1 0.1,0 0.1,0 0.2,0.1 0.1,0 0.1,0.1 0.1,0 0.2,0.1 0.1,0.1 0.1,0 0.1,0.1 0.2,0 0.1,0.1 0.1,0 0.1,0 0.1,0.1 0.2,0 0.1,0.1 0.1,0 0.1,0.1 0.1,0 0.2,0.1 0.1,0 0.1,0.1 0.1,0 0.1,0.1 0.2,0 0.1,0.1 0.1,0 0.1,0.1 0.1,0.1 0.1,0 0.2,0.1 0.1,0 0.1,0 0.1,0.1 0.1,0 0.1,0 0.1,0.1 0.2,0 0.1,0 0.1,0 0.1,0.1 0.1,0 0.1,0 0.1,0.1 0.1,0 0.2,0 0.1,0.1 0.1,0 0.1,0 0.1,0 0.1,0.1 0.1,0 0.1,0 0.1,0 0.2,0.1 0.1,0 0.1,0 0.1,0.1 0.1,0 0.1,0 0.1,0.1 0.1,0 0.1,0.1 0.1,0 0.1,0 0.1,0.1 0.2,0 0.1,0 0.1,0.1 0.1,0 0.1,0 0.1,0.1 0.1,0 0.1,0 0.1,0.1 0.1,0 0.1,0 0.1,0 0.1,0.1 0.1,0 0.1,0 0.1,0.1 0.1,0 0.1,0 0.1,0.1 0.1,0 0.1,0 0.1,0.1 0.1,0 0.1,0 0.1,0 0.2,0.1 0.1,0 0.1,0.1 0.1,0 0.1,0 0.1,0 0.1,0.1 0.1,0 0.1,0 0.1,0 0.1,0 0.1,0 0.1,0.1 0.1,0 0.1,0 0.1,0 0.1,0 0.1,0.1 0.1,0 0.1,0 0.1,0 0.1,0.1 0.1,0 0.1,0 0.1,0 0.1,0 0.1,0 0.1,0.1 0.1,0 0.1,0 0.1,0 0.1,0.1 0.1,0 0.1,0 0.1,0 0.1,0 0.1,0 0.1,0 0,0.1 0.1,0 0.1,0 0.1,0 0.1,0 0.1,0 0.1,0.1 0.1,0 0.1,0 0.1,0 0.1,0 0.1,0 0.1,0 0.1,0.1 0.1,0 0.1,0 0.1,0 0.1,0 0.1,0 0.1,0 0.1,0 0.1,0 0.1,0.1 0.1,0 0.1,0 0.1,0 0.1,0 0.1,0 0.1,0 0.1,0 0.1,0.1 0.1,0 0.1,0 0.1,0 0.1,0 0.1,0 0.1,0 0.1,0 0.1,0 0.1,0 0.1,0 0.1,0 0.1,0 0.1,0 0.1,0 0.1,0 0.1,0 0.1,0 0.1,0 0.1,0 0.1,0 0.1,0 0.1,0 0.1,0 0.1,0 0.1,-0.1 0.1,0 0.1,0 0.1,0 0.1,0 0.1,0 0.1,0 0.1,0 0.1,0 0.1,0 0.1,0 0.1,0 0.1,0 0.1,0 0.1,0 0.1,0 0.1,0 0.1,0 0.1,0 0.1,0 0.1,0 0.1,0.1 0.1,0 0.1,0 0.1,0 0.1,0 0.1,0 0.1,0 0.1,0 0.1,0 0.1,0.1 0.1,0 0.1,0 0.1,0 0.1,0 0.1,0 0.1,0.1 0.1,0 0.1,0 0.1,0 0.1,0 0.1,0 0.1,0 0.1,-0.1 0.1,0.1 0.1,0 0.1,0 0.1,0 0.1,0 0.1,0 0.1,0 0.1,0 0.1,0 0.1,0 0.1,0 0.1,0 0.1,0 0,-0.1 0.1,0 0.1,0 0.1,0 0.1,0 0.1,0 0.1,0 0.1,0 0.1,0 0.1,0 0.1,0 0.1,0 0.1,0 0.1,0 0.1,-0.1 0.1,0 0.1,0 0.1,0 0.1,0 0.1,0 0.1,0 0.1,0 0.1,0 0.1,-0.1 0.1,0 0.1,0 0.1,0 0.1,0 0,-0.1 0.1,0 0.1,0 0.1,0 0.1,0 0.1,0 0.1,0 0.1,0 0.1,0 0.1,-0.1 0.1,0 0.1,0 0.1,0 0.1,-0.1 0.1,0 0.1,0 0.1,0 0.1,0 0.1,0 0.1,0 0.1,0 0,-0.1 0.1,0 0.1,0 0.1,0 0.1,0 0,-0.1 0.1,0 0.1,0 0.1,-0.1 0.1,0 0.1,0 0.1,-0.1 0.1,0 0.1,0 0.1,-0.1 0.1,0 0.1,0 0.1,0 0,-0.1 0.1,0 0.1,0 0.1,0 0.1,-0.1 0.1,0 0.1,-0.1 0.1,0 0.1,0 0,-0.1 0.1,0 0.1,0 0.1,0 0.1,-0.1 0.1,0 0.1,0 0.1,-0.1 0.1,0 0.1,0 0,-0.1 0.1,0 0.1,0 0.1,-0.1 0.1,0 0.1,-0.1 0.1,0 0.1,0 0.1,-0.1 0.1,0 0.1,0 0.1,-0.1 0.1,0 0.1,0 0,-0.1 0.1,0 0.1,0 0,-0.1 0.1,0 0.1,-0.1 0.1,0 0.1,-0.1 0.1,0 0.1,-0.1 0.1,0 0.1,-0.1 0.1,0 0.1,0 0,-0.1 0.1,0 0.1,0 0.1,-0.1 0.1,0 0.1,-0.1 0.1,0 0,-0.1 0.1,0 0.1,0 0,-0.1 0.1,0 0.1,-0.1 0.1,0 0.1,0 0.1,-0.1 0.1,0 0.1,0 0,-0.1 0.1,0 0.1,-0.1 0.1,0 0.1,-0.1 0.1,0 0.1,-0.1 0.1,0 0.1,-0.1 0.1,0 0.1,0 0.1,-0.1 0.1,0 0.1,-0.1 0.1,0 0.1,0 0,-0.1 0.1,0 0.1,-0.1 0.1,0 0.1,-0.1 0.1,0 0,-0.1 0.1,0 0.1,-0.1 0.1,0 0.1,0 0,-0.1 0.1,0 0.1,0 0,-0.1 0.1,0 0.1,0 0.1,-0.1 0.1,0 0,-0.1 0.1,0 0.1,0 0.1,-0.1 0.1,0 0.1,0 0,-0.1 0.1,0 0.1,0 0.1,-0.1 0.1,0 0.1,0 0.1,-0.1 0.1,0 0.1,-0.1 0.1,0 0.1,-0.1 0.1,0 0.1,0 0.1,0 0.1,0 0,-0.1 0.1,0 0.1,0 0.1,-0.1 0.1,0 0.1,0 0,-0.1 0.1,0 0.1,0 0.1,0 0,-0.1 0.1,0 0.1,0 0.1,0 0.1,0 0.1,0 0,-0.1 0.1,0 0.1,0 0.1,0 0.1,-0.1 0.1,0 0.1,0 0,-0.1 0.1,0 0.1,0 0.1,-0.1 0.1,0 0.1,-0.1 0.1,0 0.1,-0.1 0.1,0 0.1,-0.1 0.1,0 0,-0.1 0.1,0 0.1,0 0.1,0 0.1,-0.1 0.1,0 0.1,0 0,-0.1 0.1,0 0.1,0 0.1,-0.1 0.1,0 0.1,0 0,-0.1 0.1,0 0.1,0 0,-0.1 0.1,0 0.1,0 0.1,0 0.1,0 0,-0.1 0.1,0 0.1,0 0.1,0 0,-0.1 0.1,0 0.1,0 0.1,-0.1 0.1,0 0.1,0 0,-0.1 0.1,0 0.1,0 0.1,-0.1 0.1,0 0,-0.1 0.1,0 0.1,0 0,-0.1 0.1,0 0.1,-0.1 0.1,0 0.1,0 0.1,0 0,-0.1 0.1,0 0.1,0 0.1,0 0,-0.1 0.1,0 0.1,0 0.1,-0.1 0.1,0 0.1,0 0,-0.1 0.1,0 0.1,0 0,-0.1 0.1,0 0.1,-0.1 0.1,0 0.1,-0.1 0.1,0 0,-0.1 0.1,0 0.1,0 0.1,0 0.1,0 0,-0.1 0.1,0 0.1,0 0.1,-0.1 0.1,0 0.1,0 0,-0.1 0.1,0 0.1,0 0,-0.1 0.1,0 0.1,0 0,-0.1 0.1,0 0.1,0 0,-0.1 0.1,0 0.1,-0.1 0.1,0 0,-0.1 0.1,0 0.1,-0.1 0.1,0 0.1,0 0,-0.1 0.1,0 0.1,0 0.1,0 0,-0.1 0.1,0 0.1,0 0,-0.1 0.1,0 0.1,0 0.1,-0.1 0.1,0 0.1,-0.1 0.1,0 0,-0.1 0.1,0 0.1,0 0,-0.1 0.1,0 0.1,-0.1 0.1,0 0,-0.1 0.1,0 0.1,0 0,-0.1 0.1,0 0.1,0 0.1,0 0,-0.1 0.1,0 0.1,0 0,-0.1 0.1,0 0.1,0 0.1,-0.1 0.1,0 0.1,-0.1 0.1,0 0.1,-0.1 0.1,0 0.1,-0.1 0.1,0 0,-0.1 0.1,0 0,-0.1 0.1,0 0.1,0 0,-0.1 0.1,0 0.1,0 0.1,-0.1 0.1,0 0.1,0 0,-0.1 0.1,0 0.1,0 0.1,0 0,-0.1 0.1,0 0.1,0 0,-0.1 0.1,0 0.1,0 0,-0.1 0.1,0 0.1,0 0,-0.1 0.1,0 0.1,0 0,-0.1 0.1,0 0.1,-0.1 0.1,0 0,-0.1 0.1,0 0.1,0 0.1,0 0.1,0 0,-0.1 0.1,0 0.1,0 0.1,0 0,-0.1 0.1,0 0.1,0 0.1,-0.1 0.1,0 0.1,-0.1 0.1,0 0.1,-0.1 0.1,0 0.1,-0.1 0.1,0 0,-0.1 0.1,0 0.1,0 0,-0.1 0.1,0 0.1,-0.1 0.1,0 0,-0.1 0.1,0 0.1,0 0.1,0 0,-0.1 0.1,0 0.1,0 0.1,0 0.1,-0.1 0.1,0 0.1,0 0,-0.1 0.1,0 0.1,0 0,-0.1 0.1,0 0.1,0 0.1,-0.1 0.1,0 0,-0.1 0.1,0 0.1,0 0,-0.1 0.1,0 0.1,0 0,-0.1 0.1,0 0,-0.1 0.1,0 0.1,0 0,-0.1 0.1,0 0.1,0 0.1,0 0.1,-0.1 0.1,0 0.1,0 0.1,0 0,-0.1 0.1,0 0.1,0 0.1,-0.1 0.1,0 0.1,0 0,-0.1 0.1,0 0.1,0 0,-0.1 0.1,0 0.1,0 0,-0.1 0.1,0 0.1,0 0,-0.1 0.1,0 0.1,-0.1 0.1,0 0,-0.1 0.1,0 0.1,-0.1 0.1,0 0,-0.1 0.1,0 0.1,0 0,-0.1 0.1,0 0.1,0 0.1,0 0.1,0 0,-0.1 0.1,0 0.1,0 0.1,0 0,-0.1 0.1,0 0.1,0 0.1,-0.1 0.1,0 0.1,-0.1 0.1,0 0.1,-0.1 0.1,0 0,-0.1 0.1,0 0.1,0 0,-0.1 0.1,0 0.1,0 0,-0.1 0.1,0 0.1,-0.1 0.1,-0.1 0.1,0 0,-0.1 0.1,0 0.1,-0.1 0.1,0 0.1,0 0.1,0 0.1,0 0,-0.1 0.1,0 0.1,0 0.1,0 0,-0.1 0.1,0 0.1,0 0.1,-0.1 0.1,0 0.1,0 0,-0.1 0.1,0 0.1,0 0,-0.1 0.1,0 0.1,-0.1 0.1,0 0.1,-0.1 0.1,0 0,-0.1 0.1,0 0.1,-0.1 0.1,0 0,-0.1 0.1,0 0.1,-0.1 0.1,0 0.1,0 0.1,0 0.1,0 0,-0.1 0.1,0 0.1,0 0.1,0 0.1,-0.1 0.1,0 0.1,0 0.1,0 0,-0.1 0.1,0 0.1,0 0,-0.1 0.1,0 0.1,0 0.1,-0.1 0.1,0 0.1,-0.1 0.1,0 0,-0.1 0.1,0 0.1,0 0,-0.1 0.1,0 0.1,0 0,-0.1 0.1,0 0,-0.1 0.1,0 0.1,-0.1 0.1,0 0,-0.1 0.1,0 0.1,0 0.1,0 0.1,0 0.1,0 0.1,-0.1 0.1,0 0.1,0 0.1,0 0,-0.1 0.1,0 0.1,0 0.1,0 0.1,-0.1 0.1,0 0.1,0 0,-0.1 0.1,0 0.1,0 0.1,-0.1 0.1,0 0,-0.1 0.1,0 0.1,0 0,-0.1 0.1,0 0.1,0 0,-0.1 0.1,0 0.1,0 0,-0.1 0.1,0 0,-0.1 0.1,0 0.1,0 0,-0.1 0.1,0 0,-0.1 0.1,0 0.1,-0.1 0.1,0 0,-0.1 0.1,0 0,-0.1 0.1,0 0.1,0 0.1,0 0.1,0 0.1,0 0,-0.1 0.1,0 0.1,0 0.1,0 0.1,-0.1 0.1,0 0.1,0 0,-0.1 0.1,0 0.1,0 0.1,0 0,-0.1 0.1,0 0.1,0 0,-0.1 0.1,0 0.1,0 0,-0.1 0.1,0 0.1,0 0,-0.1 0.1,0 0.1,0 0,-0.1 0.1,0 0,-0.1 0.1,0 0.1,0 0,-0.1 0.1,0 0,-0.1 0.1,0 0.1,-0.1 0.1,0 0,-0.1 0.1,0 0.1,0 0.1,0 0.1,0 0.1,0 0.1,0 0.1,-0.1 0.1,0 0.1,0 0.1,0 0.1,0 0,-0.1 0.1,0 0.1,0 0.1,0 0,-0.1 0.1,0 0.1,0 0.1,0 0,-0.1 0.1,0 0.1,0 0,-0.1 0.1,0 0.1,0 0,-0.1 0.1,0 0.1,0 0,-0.1 0.1,0 0.1,0 0,-0.1 0.1,0 0.1,0 0,-0.1 0.1,0 0,-0.1 0.1,0 0.1,0 0,-0.1 0.1,0 0,-0.1 0.1,0 0.1,0 0,-0.1 0.1,0 0.1,0 0.1,0 0.1,0 0.1,0 0.1,0 0.1,0 0,-0.1 0.1,0 0.1,0 0.1,0 0.1,0 0.1,0 0.1,-0.1 0.1,0 0.1,0 0.1,0 0,-0.1 0.1,0 0.1,0 0.1,0 0,-0.1 0.1,0 0.1,0 0.1,-0.1 0.1,0 0.1,0 0,-0.1 0.1,0 0.1,-0.1 0.1,0 0.1,-0.1 0.1,0 0,-0.1 0.1,0 0.1,0 0,-0.1 0.1,0 0,-0.1 0.1,0 0.1,0 0,-0.1 0.1,0 0,-0.1 0.1,0 0.1,-0.1 0.1,0 0.1,0.1 0.1,0 0.1,0 0.1,0 0.1,-0.1 0.1,0 0.1,0 0.1,0 0.1,0 0.1,0 0.1,0 0.1,0 0.1,-0.1 0.1,0 0.1,0 0.1,0 0.1,-0.1 0.1,0 0.1,0 0,-0.1 0.1,0 0.1,0 0.1,0 0,-0.1 0.1,0 0.1,0 0,-0.1 0.1,0 0.1,0 0,-0.1 0.1,0 0.1,0 0,-0.1 0.1,0 0.1,0 0,-0.1 0.1,0 0.1,-0.1 0.1,0 0,-0.1 0.1,0 0.1,-0.1 0.1,0 0,-0.1 0.1,0 0,-0.1 0.1,0 0.1,-0.1 0.1,0 0.1,0 0.1,0 0.1,0 0.1,0 0.1,0 0.1,0 0.1,0 0.1,0 0.1,0 0.1,0 0.1,0 0.1,0 0.1,0 0,-0.1 0.1,0 0.1,0 0.1,0 0.1,0 0.1,-0.1 0.1,0 0.1,0 0.1,0 0,-0.1 0.1,0 0.1,0 0.1,0 0,-0.1 0.1,0 0.1,0 0,-0.1 0.1,0 0.1,0 0,-0.1 0.1,0 0.1,0 0,-0.1 0.1,0 0.1,0 0,-0.1 0.1,0 0.1,0 0,-0.1 0.1,0 0,-0.1 0.1,0 0.1,0 0,-0.1 0.1,0 0,-0.1 0.1,0 0.1,-0.1 0.1,0 0,-0.1 0.1,0 0,-0.1 0.1,0 0,-0.1 0.1,0 0.1,-0.1 0.1,0 0,-0.1 0.1,0 0,-0.1 0.1,0 0.1,0 0.1,0 0.1,0 0.1,0 0.1,0 0.1,0 0.1,0 0.1,0 0.1,0 0.1,0 0.1,-0.1 0.1,0 0.1,0 0.1,0 0.1,0 0.1,0 0,-0.1 0.1,0 0.1,0 0.1,0 0.1,-0.1 0.1,0 0.1,0 0.1,-0.1 0.1,0 0.1,0 0,-0.1 0.1,0 0.1,0 0,-0.1 0.1,0 0.1,0 0,-0.1 0.1,0 0.1,0 0,-0.1 0.1,0 0.1,0 0,-0.1 0.1,0 0,-0.1 0.1,0 0.1,0 0,-0.1 0.1,0 0,-0.1 0.1,0 0.1,0 0,-0.1 0.1,0 0,-0.1 0.1,0 0,-0.1 0.1,0 0.1,-0.1 0.1,0 0,-0.1 0.1,0 0,-0.1 0.1,0 0,-0.1 0.1,0 0,-0.1 0.1,0 0,-0.1 0.1,0 0,-0.1 0.1,0 0,-0.1 0.1,0 0,-0.1 0.1,0 0,-0.1 0.1,0 0,-0.1 0.1,0 0,-0.1 0.1,0 0.1,0 0.1,0 0.1,0 0.1,0 0.1,0 0.1,0 0.1,0 0.1,0 0.1,0 0.1,0 0.1,0 0.1,0 0,-0.1 0.1,0 0.1,0 0.1,0 0.1,0 0,-0.1 0.1,0 0.1,0 0.1,0 0.1,-0.1 0.1,0 0.1,0 0,-0.1 0.1,0 0.1,0 0,-0.1 0.1,0 0.1,0 0,-0.1 0.1,0 0.1,0 0,-0.1 0.1,0 0.1,0 0,-0.1 0.1,0 0.1,0 0,-0.1 0.1,0 0,-0.1 0.1,0 0.1,0 0,-0.1 0.1,0 0,-0.1 0.1,0 0.1,-0.1 0.1,0 0,-0.1 0.1,0 0,-0.1 0.1,0 0,-0.1 0.1,0 0,-0.1 0.1,0 0.1,-0.1 0.1,0 0,-0.1 0.1,0 0,-0.1 0.1,0 0,-0.1 0.1,0 0,-0.1 0.1,0 0,-0.1 0.1,0 0,-0.1 0.1,0 0,-0.1 0.1,0 0,-0.1 0.1,0 0,-0.1 0.1,0 0,-0.1 0.1,0.1 0.1,0 0.1,0 0.1,0 0.1,0 0.1,0 0.1,0 0.1,0 0.1,0 0.1,0 0.1,0 0.1,0 0.1,0 0.1,0 0.1,0 0.1,0 0.1,0 0,-0.1 0.1,0 0.1,0 0.1,0 0.1,0 0.1,-0.1 0.1,0 0.1,0 0.1,0 0,-0.1 0.1,0 0.1,0 0.1,-0.1 0.1,0 0.1,0 0,-0.1 0.1,0 0.1,0 0,-0.1 0.1,0 0.1,0 0,-0.1 0.1,0 0.1,0 0,-0.1 0.1,0 0.1,-0.1 0.1,0 0,-0.1 0.1,0 0.1,-0.1 0.1,0 0,-0.1 0.1,0 0,-0.1 0.1,0 0.1,0 0,-0.1 0.1,0 0,-0.1 0.1,0 0,-0.1 0.1,0 0,-0.1 0.1,0 0.1,-0.1 0.1,-0.1 0.1,0 0,-0.1 0.1,0 0,-0.1 0.1,0 0,-0.1 0.1,0 0,-0.1 0.1,0 0,-0.1 0.1,0 0,-0.1 0.1,0 0,-0.1 0.1,0 0,-0.1 0.1,0 0,-0.1 0.1,-0.1 0,-0.1 0.1,0 0,-0.1 0.1,0 0,-0.1 0.1,0 0,-0.1 0.1,0 0,-0.1 0.1,0 0,-0.1 0.1,0 0,0.1 0.1,0 0.1,0 0.1,0 0.1,0 0.1,0 0.1,0 0,0.1 0.1,0 0.1,0 0.1,0 0.1,0 0.1,0 0.1,0 0.1,0 0.1,0 0.1,0 0.1,0 0.1,-0.1 0.1,0 0.1,0 0.1,0 0.1,0 0.1,0 0,-0.1 0.1,0 0.1,0 0.1,0 0.1,0 0,-0.1 0.1,0 0.1,0 0.1,0 0,-0.1 0.1,0 0.1,0 0,-0.1 0.1,0 0.1,0 0.1,0 0,-0.1 0.1,0 0.1,0 0,-0.1 0.1,0 0,-0.1 0.1,0 0.1,0 0,-0.1 0.1,0 0.1,0 0,-0.1 0.1,0 0,-0.1 0.1,0 0.1,0 0,-0.1 0.1,0 0,-0.1 0.1,0 0.1,0 0,-0.1 0.1,0 0,-0.1 0.1,0 0,-0.1 0.1,0 0,-0.1 0.1,0 0.1,-0.1 0.1,0 0,-0.1 0.1,0 0,-0.1 0.1,0 0,-0.1 0.1,0 0,-0.1 0.1,0 0,-0.1 0.1,0 0,-0.1 0.1,0 0,-0.1 0.1,0 0,-0.1 0.1,0 0,-0.1 0.1,0 0,-0.1 0.1,0 0,-0.1 0.1,-0.1 0,-0.1 0.1,0 0,-0.1 0.1,0 0,-0.1 0.1,0 0,-0.1 0.1,0 0,-0.1 0.1,-0.1 0,-0.1 0.1,0 0,-0.1 0.1,0 0,-0.1 0.1,0 0,-0.1 0,-0.1 0.1,0 0,-0.1 0.1,0 0,-0.1 0.1,0 0,-0.1 0,-0.1 0.1,0 0,-0.1 0.1,0 0.1,0 0.1,0 0.1,0 0,0.1 0.1,0 0.1,0 0.1,0 0.1,0 0,0.1 0.1,0 0.1,0 0.1,0 0.1,0 0.1,0 0.1,0 0.1,0 0.1,0 0.1,0 0.1,0 0.1,0 0.1,0 0.1,0 0.1,0 0.1,0 0.1,0 0.1,0 0.1,0 0.1,-0.1 0.1,0 0.1,0 0.1,0 0.1,0 0,-0.1 0.1,0 0.1,0 0.1,0 0,-0.1 0.1,0 0.1,0 0.1,0 0,-0.1 0.1,0 0.1,0 0,-0.1 0.1,0 0.1,0 0,-0.1 0.1,0 0.1,0 0,-0.1 0.1,0 0.1,0 0,-0.1 0.1,0 0,-0.1 0.1,0 0.1,0 0,-0.1 0.1,0 0,-0.1 0.1,0 0.1,0 0,-0.1 0.1,0 0,-0.1 0.1,0 0.1,-0.1 0.1,0 0,-0.1 0.1,0 0,-0.1 0.1,0 0,-0.1 0.1,0 0,-0.1 0.1,0 0.1,-0.1 0.1,0 0,-0.1 0.1,0 0,-0.1 0.1,0 0,-0.1 0.1,0 0,-0.1 0.1,0 0,-0.1 0.1,0 0,-0.1 0.1,0 0,-0.1 0.1,0 0,-0.1 0.1,-0.1 0,-0.1 0.1,0 0,-0.1 0.1,0 0,-0.1 0.1,0 0,-0.1 0.1,0 0,-0.1 0.1,0 0,-0.1 0.1,-0.1 0,-0.1 0.1,0 0,-0.1 0.1,0 0,-0.1 0.1,0 0,-0.1 0,-0.1 0.1,0 0,-0.1 0.1,0 0,-0.1 0.1,0 0,-0.1 0,-0.1 0.1,0 0,-0.1 0.1,0 0,-0.1 0.1,-0.1 0,-0.1 0.1,0 0,-0.1 0.1,-0.1 0,-0.1 0.1,0 0,-0.1 0.1,-0.1 0,-0.1 0.1,0 0,-0.1 0.1,-0.1 0,-0.1 0.1,0 0,-0.1 0,-0.1 0.1,0 0,-0.1 0.1,-0.1 0,-0.1 0.1,0 0,-0.1 0.1,0 0,0.1 0.1,0 0.1,0 0.1,0 0,0.1 0.1,0 0.1,0 0,0.1 0.1,0 0.1,0 0.1,0 0,0.1 0.1,0 0.1,0 0.1,0 0.1,0 0,0.1 0.1,0 0.1,0 0.1,0 0.1,0 0.1,0 0.1,0 0.1,0 0,0.1 0.1,0 0.1,0 0.1,0 0.1,0 0.1,0 0.1,0 0.1,0 0.1,0 0,-0.1 0.1,0 0.1,0 0.1,0 0.1,0 0.1,0 0.1,0 0,-0.1 0.1,0 0.1,0 0.1,0 0.1,0 0,-0.1 0.1,0 0.1,0 0.1,0 0,-0.1 0.1,0 0.1,0 0.1,0 0,-0.1 0.1,0 0.1,0 0,-0.1 0.1,0 0.1,0 0,-0.1 0.1,0 0.1,0 0,-0.1 0.1,0 0.1,0 0,-0.1 0.1,0 0,-0.1 0.1,0 0.1,0 0,-0.1 0.1,0 0,-0.1 0.1,0 0.1,0 0,-0.1 0.1,0 0,-0.1 0.1,0 0.1,-0.1 0.1,0 0,-0.1 0.1,0 0,-0.1 0.1,0 0,-0.1 0.1,0 0,-0.1 0.1,0 0,-0.1 0.1,0 0.1,-0.1 0.1,0 0,-0.1 0.1,0 0,-0.1 0.1,0 0,-0.1 0.1,0 0,-0.1 0.1,0 0,-0.1 0.1,0 0,-0.1 0.1,-0.1 0,-0.1 0.1,0 0,-0.1 0.1,0 0,-0.1 0.1,0 0,-0.1 0.1,0 0,-0.1 0.1,0 0,-0.1 0.1,0 0,-0.1 0,-0.1 0.1,0 0,-0.1 0.1,0 0,-0.1 0.1,0 0,-0.1 0.1,0 0,-0.1 0,-0.1 0.1,0 0,-0.1 0.1,0 0,-0.1 0.1,0 0,-0.1 0,-0.1 0.1,0 0,-0.1 0.1,0 0,-0.1 0,-0.1 0.1,0 0,-0.1 0.1,0 0,-0.1 0,-0.1 0.1,0 0,-0.1 0.1,0 0,-0.1 0,-0.1 0.1,0 0,-0.1 0.1,0 0,-0.1 0,-0.1 0.1,0 0,-0.1 0.1,0 0,-0.1 0,-0.1 0.1,0 0,-0.1 0.1,-0.1 0,-0.1 0.1,0 0,-0.1 0,-0.1 0.1,0 0,-0.1 0,-0.1 0.1,0 0,-0.1 0.1,0 0,-0.1 0,-0.1 0.1,0 0,-0.1 0,-0.1 0.1,0 0,-0.1 0.1,-0.1 0,-0.1 0.1,0 0,-0.1 0,-0.1 0.1,0 0,-0.1 0,-0.1 0.1,0 0,-0.1 0,-0.1 0.1,0 0,-0.1 0,-0.1 0.1,0 0,-0.1 0,-0.1 0.1,0 0,-0.1 0,-0.1 0.1,0 0,-0.1 0,0.1 0.1,0 0,0.1 0.1,0 0.1,0 0,0.1 0.1,0 0,0.1 0.1,0 0.1,0.1 0.1,0 0,0.1 0.1,0 0.1,0 0,0.1 0.1,0 0,0.1 0.1,0 0.1,0 0,0.1 0.1,0 0.1,0 0,0.1 0.1,0 0.1,0 0,0.1 0.1,0 0.1,0 0,0.1 0.1,0 0.1,0 0.1,0 0,0.1 0.1,0 0.1,0 0.1,0 0,0.1 0.1,0 0.1,0 0.1,0 0,0.1 0.1,0 0.1,0 0.1,0 0.1,0 0.1,0 0.1,0 0,0.1 0.1,0 0.1,0 0.1,0 0.1,0 0.1,0 0.1,0 0.1,0 0.1,0 0.1,0 0.1,0 0.1,0 0.1,0 0.1,-0.1 0.1,0 0.1,0 0.1,0 0.1,0 0.1,0 0,-0.1 0.1,0 0.1,0 0.1,0 0.1,-0.1 0.1,0 0.1,0 0,-0.1 0.1,0 0.1,0 0.1,0 0,-0.1 0.1,0 0.1,0 0,-0.1 0.1,0 0.1,0 0,-0.1 0.1,0 0.1,0 0,-0.1 0.1,0 0.1,0 0,-0.1 0.1,0 0,-0.1 0.1,0 0.1,0 0,-0.1 0.1,0 0,-0.1 0.1,0 0.1,0 0,-0.1 0.1,0 0,-0.1 0.1,0 0.1,-0.1 0.1,0 0,-0.1 0.1,0 0,-0.1 0.1,0 0,-0.1 0.1,0 0,-0.1 0.1,0 0,-0.1 0.1,0 0.1,-0.1 0.1,0 0,-0.1 0.1,0 0,-0.1 0.1,0 0,-0.1 0.1,0 0,-0.1 0.1,0 0,-0.1 0.1,0 0,-0.1 0.1,-0.1 0,-0.1 0.1,0 0,-0.1 0.1,0 0,-0.1 0.1,0 0,-0.1 0.1,0 0,-0.1 0.1,0 0,-0.1 0.1,0 0,-0.1 0,-0.1 0.1,0 0,-0.1 0.1,0 0,-0.1 0.1,0 0,-0.1 0.1,0 0,-0.1 0,-0.1 0.1,0 0,-0.1 0.1,0 0,-0.1 0.1,-0.1 0,-0.1 0.1,0 0,-0.1 0.1,0 0,-0.1 0,-0.1 0.1,0 0,-0.1 0.1,0 0,-0.1 0,-0.1 0.1,0 0,-0.1 0.1,0 0,-0.1 0,-0.1 0.1,0 0,-0.1 0.1,0 0,-0.1 0,-0.1 0.1,0 0,-0.1 0.1,0 0,-0.1 0,-0.1 0.1,0 0,-0.1 0.1,-0.1 0,-0.1 0.1,0 0,-0.1 0,-0.1 0.1,0 0,-0.1 0.1,-0.1 0,-0.1 0.1,0 0,-0.1 0,-0.1 0.1,0 0,-0.1 0,-0.1 0.1,0 0,-0.1 0.1,-0.1 0,-0.1 0.1,0 0,-0.1 0,-0.1 0.1,0 0,-0.1 0,-0.1 0.1,0 0,-0.1 0,-0.1 0.1,0 0,-0.1 0,-0.1 0.1,0 0,-0.1 0,-0.1 0.1,0 0,-0.1 0,-0.1 0.1,0 0,-0.1 0,-0.1 0.1,0 0,-0.1 0,-0.1 0.1,0 0,-0.1 0,-0.1 0.1,0 0,-0.1 0,-0.1 0.1,0 0,-0.1 0,-0.1 0.1,0 0,-0.1 0,-0.1 0.1,0 0,-0.1 0,-0.1 0.1,0 0,-0.1 0,-0.1 0.1,0 0,-0.1 0,-0.1 0.1,0 0,-0.1 0,-0.1 0.1,0 0,-0.1 0,-0.1 0.1,-0.1 0,-0.1 0,-0.1 0.1,0 0,-0.1 0,-0.1 0.1,0 0,-0.1 0,-0.1 0.1,0 0,-0.1 0,-0.1 0,-0.1 0.1,0.1 0,0.1 0.1,0 0,0.1 0.1,0 0,0.1 0,0.1 0.1,0 0,0.1 0.1,0 0,0.1 0.1,0.1 0,0.1 0.1,0 0,0.1 0.1,0 0,0.1 0,0.1 0.1,0 0,0.1 0.1,0 0,0.1 0.1,0 0,0.1 0.1,0 0,0.1 0,0.1 0.1,0 0,0.1 0.1,0 0,0.1 0.1,0 0,0.1 0.1,0 0,0.1 0.1,0.1 0,0.1 0.1,0 0,0.1 0.1,0 0,0.1 0.1,0 0,0.1 0.1,0 0,0.1 0.1,0 0,0.1 0.1,0 0,0.1 0.1,0 0,0.1 0.1,0 0,0.1 0.1,0 0,0.1 0.1,0 0,0.1 0.1,0 0,0.1 0.1,0 0,0.1 0.1,0 0,0.1 0.1,0 0,0.1 0.1,0 0,0.1 0.1,0 0,0.1 0.1,0 0.1,0 0,0.1 0.1,0 0,0.1 0.1,0 0,0.1 0.1,0 0,0.1 0.1,0 0.1,0 0,0.1 0.1,0 0,0.1 0.1,0 0,0.1 0.1,0 0.1,0 0,0.1 0.1,0 0.1,0 0,0.1 0.1,0 0,0.1 0.1,0 0.1,0 0,0.1 0.1,0 0.1,0 0,0.1 0.1,0 0.1,0 0,0.1 0.1,0 0.1,0 0,0.1 0.1,0 0.1,0 0.1,0.1 0.1,0 0.1,0 0,0.1 0.1,0 0.1,0 0.1,0 0.1,0 0,0.1 0.1,0 0.1,0 0.1,0 0.1,0 0,0.1 0.1,0 0.1,0 0.1,0 0.1,0 0.1,0 0.1,0 0.1,0 0.1,0 0.1,0 0.1,0 0.1,0 0.1,0 0.1,0 0.1,0 0.1,0 0.1,0 0.1,0 0.1,0 0,-0.1 0.1,0 0.1,0 0.1,0 0.1,0 0,-0.1 0.1,0 0.1,0 0.1,0 0.1,0 0,-0.1 0.1,0 0.1,0 0,-0.1 0.1,0 0.1,0 0.1,0 0,-0.1 0.1,0 0.1,0 0,-0.1 0.1,0 0.1,0 0,-0.1 0.1,0 0.1,0 0,-0.1 0.1,0 0,-0.1 0.1,0 0.1,0 0,-0.1 0.1,0 0.1,0 0,-0.1 0.1,0 0,-0.1 0.1,0 0,-0.1 0.1,0 0.1,0 0,-0.1 0.1,0 0,-0.1 0.1,0 0,-0.1 0.1,0 0.1,0 0,-0.1 0.1,0 0,-0.1 0.1,0 0,-0.1 0.1,0 0,-0.1 0.1,0 0,-0.1 0.1,0 0,-0.1 0.1,0 0,-0.1 0.1,0 0,-0.1 0.1,0 0,-0.1 0.1,0 0,-0.1 0.1,0 0,-0.1 0.1,0 0,-0.1 0.1,0 0,-0.1 0.1,0 0,-0.1 0.1,0 0,-0.1 0.1,0 0,-0.1 0,-0.1 0.1,0 0,-0.1 0.1,0 0,-0.1 0.1,0 0,-0.1 0.1,0 0,-0.1 0.1,-0.1 0,-0.1 0.1,0 0,-0.1 0.1,0 0,-0.1 0.1,0 0,-0.1 0,-0.1 0.1,0 0,-0.1 0.1,0 0,-0.1 0.1,-0.1 0,-0.1 0.1,0 0,-0.1 0.1,0 0,-0.1 0,-0.1 0.1,0 0,-0.1 0.1,0 0,-0.1 0,-0.1 0.1,0 0,-0.1 0.1,0 0,-0.1 0,-0.1 0.1,0 0,-0.1 0.1,0 0,-0.1 0,-0.1 0.1,0 0,-0.1 0,-0.1 0.1,0 0,-0.1 0.1,0 0,-0.1 0,-0.1 0.1,0 0,-0.1 0.1,-0.1 0,-0.1 0.1,0 0,-0.1 0,-0.1 0.1,0 0,-0.1 0,-0.1 0.1,0 0,-0.1 0.1,0 0,-0.1 0,-0.1 0.1,0 0,-0.1 0,-0.1 0.1,0 0,-0.1 0,-0.1 0.1,0 0,-0.1 0,-0.1 0.1,0 0,-0.1 0,-0.1 0.1,0 0,-0.1 0.1,-0.1 0,-0.1 0.1,0 0,-0.1 0,-0.1 0.1,0 0,-0.1 0,-0.1 0.1,0 0,-0.1 0,-0.1 0.1,0 0,-0.1 0,-0.1 0.1,0 0,-0.1 0,-0.1 0.1,0 0,-0.1 0,-0.1 0.1,0 0,-0.1 0,-0.1 0.1,-0.1 0,-0.1 0,-0.1 0.1,0 0,-0.1 0,-0.1 0.1,0 0,-0.1 0,-0.1 0.1,0 0,-0.1 0,-0.1 0.1,0 0,-0.1 0,-0.1 0.1,0 0,-0.1 0,-0.1 0.1,-0.1 0,-0.1 0,-0.1 0.1,0 0,-0.1 0,-0.1 0.1,0 0,-0.1 0,-0.1 0.1,0 0,-0.1 0,-0.1 0,-0.1 0.1,0 0,-0.1 0,-0.1 0.1,0 0,-0.1 0,-0.1 0.1,0 0,-0.1 0,-0.1 0,-0.1 0.1,0 0,-0.1 0,-0.1 0.1,0 0,-0.1 0,-0.1 0.1,0 0,-0.1 0,-0.1 0,-0.1 0.1,0 0,-0.1 0,-0.1 0.1,0 0,-0.1 0,-0.1 0,-0.1 0.1,0 0,-0.1 0,-0.1 0.1,0 0,-0.1 0,-0.1 0,-0.1 0.1,0 0,-0.1 0,-0.1 0.1,-0.1 0,-0.1 0,-0.1 0.1,0 0,-0.1 0,-0.1 0,-0.1 0.1,0 0,-0.1 0,-0.1 0.1,0 0,-0.1 0,-0.1 0,-0.1 0.1,0 0,-0.1 0,-0.1 0,-0.1 0.1,0 0,-0.1 0,-0.1 0.1,-0.1 0,-0.1 0,-0.1 0.1,0 0,-0.1 0,-0.1 0,-0.1 0.1,0 0,-0.1 0,-0.1 0,-0.1 0.1,0 0,-0.1 0,-0.1 0.1,-0.1 0,-0.1 0,-0.1 0.1,0 0,-0.1 0,-0.1 0,-0.1 0.1,0 0,-0.1 0,-0.1 0,-0.1 0.1,0 0,-0.1 0,-0.1 0,-0.1 0.1,0 0,-0.1 0,-0.1 0,-0.1 0.1,0 0,-0.1 0,-0.1 0,-0.1 0.1,0 0,-0.1 0,-0.1 0,-0.1 0.1,0 0,-0.1 0,-0.1 0,-0.1 0.1,0 0,-0.1 0,-0.1 0,-0.1 0.1,0 0,-0.1 0,-0.1 0,-0.1 0.1,0 0,-0.1 0,-0.1 0,-0.1 0.1,0 0,-0.1 0,-0.1 0,-0.1 0.1,0 0,-0.1 0,-0.1 0,-0.1 0.1,0 0,-0.1 0,-0.1 0,-0.1 0.1,0 0,-0.1 0,-0.1 0,-0.1 0.1,0 0,-0.1 0,-0.1 0,-0.1 0,-0.1 0.1,0 0,-0.1 0,0.1 0,0.1 0.1,0 0,0.1 0,0.1 0,0.1 0.1,0 0,0.1 0,0.1 0,0.1 0.1,0 0,0.1 0,0.1 0.1,0 0,0.1 0,0.1 0,0.1 0.1,0 0,0.1 0,0.1 0,0.1 0.1,0 0,0.1 0,0.1 0,0.1 0.1,0 0,0.1 0,0.1 0.1,0.1 0,0.1 0,0.1 0.1,0 0,0.1 0,0.1 0,0.1 0.1,0 0,0.1 0,0.1 0,0.1 0.1,0 0,0.1 0,0.1 0.1,0 0,0.1 0,0.1 0,0.1 0.1,0 0,0.1 0,0.1 0,0.1 0.1,0 0,0.1 0,0.1 0.1,0 0,0.1 0,0.1 0,0.1 0.1,0 0,0.1 0,0.1 0,0.1 0.1,0 0,0.1 0,0.1 0.1,0 0,0.1 0,0.1 0,0.1 0.1,0 0,0.1 0,0.1 0.1,0 0,0.1 0,0.1 0,0.1 0.1,0 0,0.1 0,0.1 0.1,0 0,0.1 0,0.1 0,0.1 0.1,0 0,0.1 0,0.1 0.1,0 0,0.1 0,0.1 0,0.1 0.1,0 0,0.1 0,0.1 0.1,0 0,0.1 0,0.1 0,0.1 0.1,0 0,0.1 0,0.1 0.1,0 0,0.1 0,0.1 0,0.1 0.1,0 0,0.1 0,0.1 0.1,0 0,0.1 0,0.1 0.1,0 0,0.1 0,0.1 0,0.1 0.1,0 0,0.1 0,0.1 0.1,0 0,0.1 0,0.1 0.1,0 0,0.1 0,0.1 0,0.1 0.1,0 0,0.1 0,0.1 0.1,0 0,0.1 0,0.1 0.1,0 0,0.1 0,0.1 0,0.1 0.1,0 0,0.1 0,0.1 0.1,0 0,0.1 0,0.1 0.1,0 0,0.1 0,0.1 0.1,0 0,0.1 0,0.1 0,0.1 0.1,0 0,0.1 0,0.1 0.1,0 0,0.1 0,0.1 0.1,0 0,0.1 0,0.1 0.1,0 0,0.1 0,0.1 0.1,0 0,0.1 0,0.1 0.1,0 0,0.1 0,0.1 0.1,0 0,0.1 0,0.1 0,0.1 0.1,0 0,0.1 0,0.1 0.1,0 0,0.1 0,0.1 0.1,0 0,0.1 0,0.1 0.1,0 0,0.1 0,0.1 0.1,0 0,0.1 0,0.1 0.1,0 0,0.1 0,0.1 0.1,0 0,0.1 0,0.1 0.1,0 0,0.1 0,0.1 0.1,0 0,0.1 0,0.1 0.1,0 0,0.1 0,0.1 0.1,0 0,0.1 0.1,0.1 0,0.1 0.1,0 0,0.1 0,0.1 0.1,0 0,0.1 0,0.1 0.1,0 0,0.1 0,0.1 0.1,0 0,0.1 0,0.1 0.1,0 0,0.1 0,0.1 0.1,0 0,0.1 0.1,0 0,0.1 0,0.1 0.1,0 0,0.1 0,0.1 0.1,0 0,0.1 0,0.1 0.1,0 0,0.1 0.1,0 0,0.1 0,0.1 0.1,0 0,0.1 0,0.1 0.1,0 0,0.1 0.1,0 0,0.1 0,0.1 0.1,0 0,0.1 0,0.1 0.1,0 0,0.1 0.1,0 0,0.1 0,0.1 0.1,0 0,0.1 0.1,0.1 0,0.1 0.1,0 0,0.1 0,0.1 0.1,0 0,0.1 0.1,0 0,0.1 0,0.1 0.1,0 0,0.1 0.1,0 0,0.1 0,0.1 0.1,0 0,0.1 0.1,0 0,0.1 0,0.1 0.1,0 0,0.1 0.1,0 0,0.1 0.1,0 0,0.1 0,0.1 0.1,0 0,0.1 0.1,0 0,0.1 0.1,0.1 0,0.1 0.1,0 0,0.1 0.1,0 0,0.1 0.1,0 0,0.1 0,0.1 0.1,0 0,0.1 0.1,0 0,0.1 0.1,0 0,0.1 0.1,0.1 0,0.1 0.1,0 0,0.1 0.1,0 0,0.1 0.1,0 0,0.1 0.1,0 0,0.1 0.1,0 0,0.1 0,0.1 0.1,0 0,0.1 0.1,0 0,0.1 0.1,0 0,0.1 0.1,0 0,0.1 0.1,0 0,0.1 0.1,0 0,0.1 0.1,0 0,0.1 0.1,0 0,0.1 0.1,0 0,0.1 0.1,0 0,0.1 0.1,0 0,0.1 0.1,0 0,0.1 0.1,0 0,0.1 0.1,0 0.1,0 0,0.1 0.1,0 0,0.1 0.1,0 0,0.1 0.1,0 0,0.1 0.1,0 0.1,0 0,0.1 0.1,0 0,0.1 0.1,0 0,0.1 0.1,0 0.1,0 0,0.1 0.1,0 0,0.1 0.1,0 0.1,0 0,0.1 0.1,0 0,0.1 0.1,0 0.1,0 0,0.1 0.1,0 0.1,0 0,0.1 0.1,0 0.1,0 0,0.1 0.1,0 0.1,0 0,0.1 0.1,0 0.1,0 0,0.1 0.1,0 0.1,0 0,0.1 0.1,0 0.1,0 0.1,0 0,0.1 0.1,0 0.1,0 0.1,0 0.1,0 0,0.1 0.1,0 0.1,0 0.1,0 0.1,0 0,0.1 0.1,0 0.1,0 0.1,0 0.1,0 0.1,0 0.1,0 0.1,0 0.1,0 0.1,0 0.1,0 0.1,0 0.1,0 0.1,0 0.1,0 0.1,0 0.1,0 0.1,0 0.1,-0.1 0.1,0 0.1,0 0.1,0 0.1,0 0,-0.1 0.1,0 0.1,0 0.1,0 0.1,0 0,-0.1 0.1,0 0.1,0 0,-0.1 0.1,0 0.1,0 0.1,0 0,-0.1 0.1,0 0.1,0 0,-0.1 0.1,0 0.1,0 0,-0.1 0.1,0 0.1,0 0,-0.1 0.1,0 0.1,0 0,-0.1 0.1,0 0,-0.1 0.1,0 0.1,0 0,-0.1 0.1,0 0,-0.1 0.1,0 0.1,0 0,-0.1 0.1,0 0,-0.1 0.1,0 0,-0.1 0.1,0 0.1,0 0,-0.1 0.1,0 0,-0.1 0.1,0 0,-0.1 0.1,0 0,-0.1 0.1,0 0,-0.1 0.1,0 0,-0.1 0.1,0 0.1,0 0,-0.1 0.1,0 0,-0.1 0.1,0 0,-0.1 0.1,0 0,-0.1 0.1,0 0,-0.1 0.1,0 0,-0.1 0.1,0 0,-0.1 0,-0.1 0.1,0 0,-0.1 0.1,0 0,-0.1 0.1,0 0,-0.1 0.1,0 0,-0.1 0.1,0 0,-0.1 0.1,0 0,-0.1 0.1,0 0,-0.1 0,-0.1 0.1,0 0,-0.1 0.1,0 0,-0.1 0.1,0 0,-0.1 0,-0.1 0.1,0 0,-0.1 0.1,0 0,-0.1 0.1,0 0,-0.1 0.1,-0.1 0,-0.1 0.1,0 0,-0.1 0.1,0 0,-0.1 0,-0.1 0.1,0 0,-0.1 0.1,0 0,-0.1 0,-0.1 0.1,0 0,-0.1 0.1,0 0,-0.1 0,-0.1 0.1,0 0,-0.1 0.1,0 0,-0.1 0,-0.1 0.1,0 0,-0.1 0.1,0 0,-0.1 0,-0.1 0.1,0 0,-0.1 0.1,0 0,-0.1 0,-0.1 0.1,0 0,-0.1 0,-0.1 0.1,0 0,-0.1 0.1,0 0,-0.1 0,-0.1 0.1,0 0,-0.1 0,-0.1 0.1,0 0,-0.1 0,-0.1 0.1,0 0,-0.1 0.1,0 0,-0.1 0,-0.1 0.1,0 0,-0.1 0,-0.1 0.1,0 0,-0.1 0,-0.1 0.1,0 0,-0.1 0,-0.1 0.1,0 0,-0.1 0,-0.1 0.1,0 0,-0.1 0.1,0 0,-0.1 0,-0.1 0.1,0 0,-0.1 0,-0.1 0.1,0 0,-0.1 0,-0.1 0.1,0 0,-0.1 0,-0.1 0.1,0 0,-0.1 0,-0.1 0.1,0 0,-0.1 0,-0.1 0.1,0 0,-0.1 0,-0.1 0.1,0 0,-0.1 0,-0.1 0.1,0 0,-0.1 0,-0.1 0,-0.1 0.1,0 0,-0.1 0,-0.1 0.1,0 0,-0.1 0,-0.1 0.1,0 0,-0.1 0,-0.1 0.1,0 0,-0.1 0,-0.1 0.1,0 0,-0.1 0,-0.1 0.1,0 0,-0.1 0,-0.1 0,-0.1 0.1,0 0,-0.1 0,-0.1 0.1,0 0,-0.1 0,-0.1 0.1,0 0,-0.1 0,-0.1 0.1,-0.1 0,-0.1 0,-0.1 0.1,0 0,-0.1 0,-0.1 0.1,0 0,-0.1 0,-0.1 0,-0.1 0.1,0 0,-0.1 0,-0.1 0.1,0 0,-0.1 0,-0.1 0.1,0 0,-0.1 0,-0.1 0,-0.1 0.1,0 0,-0.1 0,-0.1 0.1,0 0,-0.1 0,-0.1 0,-0.1 0.1,0 0,-0.1 0,-0.1 0.1,0 0,-0.1 0,-0.1 0,-0.1 0.1,0 0,-0.1 0,-0.1 0.1,0 0,-0.1 0,-0.1 0,-0.1 0.1,0 0,-0.1 0,-0.1 0,-0.1 0.1,0 0,-0.1 0,-0.1 0.1,0 0,-0.1 0,-0.1 0,-0.1 0.1,0 0,-0.1 0,-0.1 0.1,-0.1 0,-0.1 0,-0.1 0.1,0 0,-0.1 0,-0.1 0,-0.1 0.1,0 0,-0.1 0,-0.1 0,-0.1 0.1,0 0,-0.1 0,-0.1 0.1,0 0,-0.1 0,-0.1 0,-0.1 0.1,0 0,-0.1 0,-0.1 0,-0.1 0.1,0 0,-0.1 0,-0.1 0,-0.1 0.1,0 0,-0.1 0,-0.1 0,-0.1 0.1,0 0,-0.1 0,-0.1 0,-0.1 0.1,0 0,-0.1 0,-0.1 0.1,-0.1 0,-0.1 0,-0.1 0.1,-0.1 0,-0.1 0,-0.1 0.1,0 0,-0.1 0,-0.1 0,-0.1 0.1,0 0,-0.1 0,-0.1 0,-0.1 0.1,0 0,-0.1 0,-0.1 0,-0.1 0.1,0 0,-0.1 0,-0.1 0,-0.1 0.1,-0.1 0,-0.1 0,-0.1 0.1,-0.1 0,-0.1 0,-0.1 0,-0.1 0.1,0 0,-0.1 0,-0.1 0,-0.1 0.1,0 0,-0.1 0,-0.1 0,-0.1 0.1,0 0,-0.1 0,-0.1 0,-0.1 0.1,0 0,-0.1 0,-0.1 0,-0.1 0.1,0 0,-0.1 0,-0.1 0,-0.1 0.1,-0.1 0,-0.1 0,-0.1 0,-0.1 0.1,0 0,-0.1 0,-0.1 0,-0.1 0.1,0 0,-0.1 0,-0.1 0,-0.1 0.1,0 0,-0.1 0,-0.1 0,-0.1 0,-0.1 0.1,0 0,-0.1 0,-0.1 0,-0.1 0.1,0 0,-0.1 0,-0.1 0,-0.1 0.1,0 0,-0.1 0,-0.1 0,-0.1 0,-0.1 0.1,0 0,-0.1 0,-0.1 0,-0.1 0.1,0 0,-0.1 0,-0.1 0,-0.1 0.1,-0.1 0,-0.1 0,-0.1 0,-0.1 0.1,0 0,-0.1 0,-0.1 0,-0.1 0.1,0 0,-0.1 0,-0.1 0,-0.1 0,-0.1 0.1,0 0,-0.1 0,-0.1 0,-0.1 0.1,0 0,-0.1 0,-0.1 0,-0.1 0,-0.1 0.1,0 0,-0.1 0,-0.1 0,-0.1 0,-0.1 0.1,0 0,-0.1 0,-0.1 0,-0.1 0.1,0 0,-0.1 0,-0.1 0,-0.1 0,-0.1 0.1,0 0,-0.1 0,-0.1 0,-0.1 0.1,-0.1 0,-0.1 0,-0.1 0,-0.1 0.1,0 0,-0.1 0,-0.1 0,-0.1 0,-0.1 0.1,0 0,-0.1 0,-0.1 0,-0.1 0,-0.1 0.1,0 0,-0.1 0,-0.1 0,-0.1 0.1,0 0,-0.1 0,-0.1 0,-0.1 0,-0.1 0.1,0 0,-0.1 0,-0.1 0,-0.1 0,-0.1 0.1,0 0,-0.1 0,-0.1 0,-0.1 0,-0.1 0.1,0 0,-0.1 0,-0.1 0,-0.1 0,-0.1 0.1,0 0,-0.1 0,-0.1 0,-0.1 0.1,0 0,-0.1 0,-0.1 0,-0.1 0,-0.1 0.1,0 0,-0.1 0,-0.1 0,-0.1 0,-0.1 0.1,0 0,-0.1 0,-0.1 0,-0.1 0,-0.1 0.1,0 0,-0.1 0,-0.1 0,-0.1 0,-0.1 0.1,0 0,-0.1 0,-0.1 0,-0.1 0,-0.1 0.1,0 0,-0.1 0,-0.1 0,-0.1 0,-0.1 0.1,0 0,-0.1 0,-0.1 0,-0.1 0,-0.1 0.1,0 0,-0.1 0,-0.1 0,-0.1 0,-0.1 0.1,0 0,-0.1 0,-0.1 0,-0.1 0,-0.1 0.1,0 0,-0.1 0,-0.1 0,-0.1 0,-0.1 0,-0.1 0.1,0 0,-0.1 0,-0.1 0,-0.1 0,-0.1 0.1,0 0,-0.1 0,-0.1 0,-0.1 0,-0.1 0.1,0 0,-0.1 0,-0.1 0,-0.1 0,-0.1 0.1,0 0,-0.1 0,-0.1 0,-0.1 0,-0.1 0.1,0 0,-0.1 0,-0.1 0,-0.1 0,-0.1 0,-0.1 0.1,0 0,-0.1 0,-0.1 0,-0.1 0,-0.1 0.1,0 0,-0.1 0,-0.1 0,-0.1 0,-0.1 0.1,0 0,-0.1 0,-0.1 0,-0.1 0,-0.1 0.1,-0.1 0,-0.1 0,-0.1 0,-0.1 0,-0.1 0.1,0 0,-0.1 0,-0.1 0,-0.1 0,-0.1 0.1,0 0,-0.1 0,-0.1 0,-0.1 0,-0.1 0,-0.1 0.1,0 0,-0.1 0,-0.1 0,-0.1 0,-0.1 0.1,0 0,-0.1 0,-0.1 0,-0.1 0,-0.1 0.1,0 0,-0.1 0,-0.1 0,-0.1 0,-0.1 0,-0.1 0.1,0 0,-0.1 0,-0.1 0,-0.1 0,-0.1 0.1,0 0,-0.1 0,-0.1 0,-0.1 0,-0.1 0,-0.1 0.1,0 0,-0.1 0,-0.1 0,-0.1 0,-0.1 0.1,-0.1 0,-0.1 0,-0.1 0,-0.1 0,-0.1 0.1,0 0,-0.1 0,-0.1 0,-0.1 0,-0.1 0,-0.1 0.1,0 0,-0.1 0,-0.1 0,-0.1 0,-0.1 0.1,0 0,-0.1 0,-0.1 0,-0.1 0,-0.1 0,-0.1 0.1,0 0,-0.1 0,-0.1 0,-0.1 0,-0.1 0,-0.1 0.1,0 0,-0.1 0,-0.1 0,-0.1 0,-0.1 0.1,0 0,-0.1 0,-0.1 0,-0.1 0,-0.1 0,-0.1 0.1,0 0,-0.1 0,-0.1 0,-0.1 0,-0.1 0,-0.1 0.1,0 0,-0.1 0,-0.1 0,-0.1 0,-0.1 0,-0.1 0.1,0 0,-0.1 0,-0.1 0,-0.1 0,-0.1 0.1,-0.1 0,-0.1 0,-0.1 0,-0.1 0,-0.1 0.1,0 0,-0.1 0,-0.1 0,-0.1 0,-0.1 0,-0.1 0.1,0 0,-0.1 0,-0.1 0,-0.1 0,-0.1 0,-0.1 0.1,0 0,-0.1 0,-0.1 0,-0.1 0,-0.1 0,-0.1 0.1,0 0,-0.1 0,-0.1 0,-0.1 0,-0.1 0,-0.1 0.1,0 0,-0.1 0,-0.1 0,-0.1 0,-0.1 0,-0.1 0.1,0 0,-0.1 0,-0.1 0,-0.1 0,-0.1 0,-0.1 0.1,0 0,-0.1 0,-0.1 0,-0.1 0,-0.1 0,-0.1 0.1,0 0,-0.1 0,-0.1 0,-0.1 0,-0.1 0,-0.1 0.1,0 0,-0.1 0,-0.1 0,-0.1 0,-0.1 0,-0.1 0.1,0 0,-0.1 0,-0.1 0,-0.1 0,-0.1 0,-0.1 0.1,0 0,-0.1 0,-0.1 0,-0.1 0,-0.1 0,-0.1 0.1,0 0,-0.1 0,-0.1 0,-0.1 0,-0.1 0,-0.1 0.1,0 0,-0.1 0,-0.1 0,-0.1 0,-0.1 0,-0.1 0,-0.1 0.1,0 0,-0.1 0,-0.1 0,-0.1 0,-0.1 0,-0.1 0.1,0 0,-0.1 0,-0.1 0,-0.1 0,-0.1 0,-0.1 0.1,0 0,-0.1 0,-0.1 0,-0.1 0,-0.1 0,-0.1 0.1,0 0,-0.1 0,-0.1 0,-0.1 0,-0.1 0,-0.1 0,-0.1 0.1,0 0,-0.1 0,-0.1 0,-0.1 0,-0.1 0,-0.1 0.1,0 0,-0.1 0,-0.1 0,-0.1 0,-0.1 0,-0.1 0.1,0 0,-0.1 0,-0.1 0,-0.1 0,-0.1 0,-0.1 0.1,-0.1 0,-0.1 0,-0.1 0,-0.1 0,-0.1 0,-0.1 0.1,0 0,-0.1 0,-0.1 0,-0.1 0,-0.1 0,-0.1 0.1,0 0,-0.1 0,-0.1 0,-0.1 0,-0.1 0,-0.1 0,-0.1 0.1,0 0,-0.1 0,-0.1 0,-0.1 0,-0.1 0,-0.1 0.1,0 0,-0.1 0,-0.1 0,-0.1 0,-0.1 0,-0.1 0,-0.1 0.1,0 0,-0.1 0,-0.1 0,-0.1 0,-0.1 0,-0.1 0.1,0 0,-0.1 0,-0.1 0,-0.1 0,-0.1 0,-0.1 0,-0.1 0.1,0 0,-0.1 0,-0.1 0,-0.1 0,-0.1 0,-0.1 0.1,0 0,-0.1 0,-0.1 0,-0.1 0,-0.1 0,-0.1 0,-0.1 0.1,0 0,-0.1 0,-0.1 0,-0.1 0,-0.1 0,-0.1 0,-0.1 0.1,0 0,-0.1 0,-0.1 0,-0.1 0,-0.1 0,-0.1 0.1,0 0,-0.1 0,-0.1 0,-0.1 0,-0.1 0,-0.1 0,-0.1 0.1,0 0,-0.1 0,-0.1 0,-0.1 0,-0.1 0,-0.1 0,-0.1 0.1,0 0,-0.1 0,-0.1 0,-0.1 0,-0.1 0,-0.1 0.1,0 0,-0.1 0,-0.1 0,-0.1 0,-0.1 0,-0.1 0,-0.1 0.1,0 0,-0.1 0,-0.1 0,-0.1 0,-0.1 0,-0.1 0,-0.1 0.1,0 0,-0.1 0,-0.1 0,-0.1 0,-0.1 0,-0.1 0,-0.1 0.1,0 0,-0.1 0,-0.1 0,-0.1 0,-0.1 0,-0.1 0,-0.1 0.1,0 0,-0.1 0,-0.1 0,-0.1 0,-0.1 0,-0.1 0.1,-0.1 0,-0.1 0,-0.1 0,-0.1 0,-0.1 0,-0.1 0.1,0 0,-0.1 0,-0.1 0,-0.1 h 0.01"
           id="path174"
           inkscape:connector-curvature="0" />
      </g>
    </g>
    <g
       id="gnuplot_plot_2a">
      <title
         id="title177">gnuplot_plot_2a</title>
      <g
         style="color:#ff0000;fill:none;stroke:currentColor;stroke-width:0.5;stroke-linecap:butt;stroke-linejoin:miter"
         id="g179">
        <g
           transform="translate(513.9,384.6)"
           style="font-size:12.5px;text-anchor:end;fill:#000000;stroke:none"
           id="g181">
          <text
             id="text183"
             y="-4">
            <tspan
               id="tspan185">estimation error after staircase removal</tspan>
          </text>
        </g>
        <path
           style="stroke:#000000;stroke-width:2.00000005;stroke-miterlimit:4;stroke-opacity:1;stroke-dasharray:8.00000018,8.00000018;stroke-dashoffset:0"
           d="m 519.5,377.6 28.4,0"
           id="path3955"
           inkscape:connector-curvature="0" />
        <path
           style="stroke:#000000;stroke-width:2.00000005;stroke-miterlimit:4;stroke-opacity:1;stroke-dasharray:8.00000018,8.00000018;stroke-dashoffset:0"
           d="m 48.4,164.2 33.9,-19.9 19.8,-86.6 14.1,49.8 10.9,41.6 8.9,27.7 7.5,24.1 6.6,12.4 5.7,6.1 5.2,17.8 4.6,11.9 4.3,6.7 3.9,5 3.6,2.9 3.4,2.2 3.2,0.4 2.9,-0.4 2.8,-2.1 2.7,-1.6 2.5,-2.5 2.4,-2.7 2.2,-2.8 2.2,-1.2 2.1,-1.7 2,-1.5 1.9,-2.2 1.8,-0.9 1.8,-1.4 1.7,0.1 1.7,0.7 1.6,0.5 1.5,0.2 1.5,-0.1 1.5,-0.6 1.4,-0.8 1.4,-0.9 1.3,-0.9 1.3,0 1.3,0.8 1.3,1 1.2,0.8 1.1,0.6 1.2,0.7 1.1,0.7 1.1,0.6 1.1,0.4 1,0.2 1.1,0.9 1,0.7 1,0.6 0.9,0.7 1,0.6 0.9,0.3 0.9,0.3 0.9,0.3 0.9,0.1 0.9,0 0.8,0.3 0.9,0.4 0.8,0.6 0.8,0.8 0.8,0.9 0.8,0.9 0.7,0.8 0.8,1 0.7,0.8 0.8,0.7 0.7,0.7 0.7,0.6 0.7,0.6 0.7,0.7 0.7,0.8 0.7,0.6 0.6,0.7 0.7,0.6 0.6,0.5 0.7,0.4 0.6,0.4 0.6,0.3 0.6,0.2 0.7,0.3 0.6,0.7 0.5,0.6 0.6,0.6 0.6,0.6 0.6,0.5 0.5,0.6 0.6,0.6 0.6,0.5 0.5,0.5 0.5,0.4 0.6,0.4 0.5,0.5 0.5,0.6 0.5,0.6 0.6,0.5 0.5,0.6 0.5,0.4 0.5,0.6 0.5,0.4 0.4,0.5 0.5,0.4 0.5,0.5 0.5,0.4 0.4,0.4 0.5,0.3 0.5,0.4 0.4,0.4 0.5,0.3 0.4,0.3 0.5,0.3 0.4,0.3 0.4,0.3 0.5,0.5 0.4,0.3 0.4,0.4 0.4,0.3 0.4,0.5 0.5,0.4 0.4,0.5 0.4,0.4 0.4,0.4 0.4,0.5 0.4,0.4 0.4,0.4 0.4,0.5 0.3,0.4 0.4,0.4 0.4,0.4 0.4,0.4 0.4,0.4 0.3,0.4 0.4,0.3 0.4,0.3 0.3,0.3 0.4,0.3 0.3,0.3 0.4,0.3 0.4,0.3 0.3,0.2 0.4,0.2 0.3,0.3 0.3,0.3 0.4,0.2 0.3,0.2 0.4,0.2 0.3,0.3 0.3,0.1 0.4,0.2 0.3,0.2 0.3,0.2 0.3,0.2 0.3,0.1 0.4,0.2 0.3,0.2 0.3,0.2 0.3,0.1 0.3,0.1 0.3,0.2 0.3,0.2 0.3,0.1 0.3,0.2 0.3,0.2 0.3,0.2 0.3,0.3 0.3,0.2 0.3,0.2 0.3,0.3 0.3,0.2 0.3,0.2 0.3,0.1 0.3,0.2 0.3,0.2 0.2,0.1 0.3,0.2 0.3,0.2 0.3,0.2 0.2,0.2 0.3,0.2 0.3,0.2 0.3,0.2 0.2,0.2 0.3,0.2 0.3,0.2 0.2,0.2 0.3,0.1 0.3,0.2 0.2,0.1 0.3,0.2 0.2,0.1 0.3,0.2 0.2,0.1 0.3,0.1 0.3,0.1 0.2,0.1 0.3,0.1 0.2,0.1 0.3,0.1 0.2,0.1 0.2,0.1 0.3,0.1 0.2,0.1 0.3,0.1 0.2,0 0.3,0.1 0.2,0 0.2,0.1 0.3,0 0.2,0.1 0.2,0 0.3,0 0.2,0 0.2,0.1 0.3,0.1 0.2,0 0.2,0.1 0.2,0.1 0.3,0.1 0.2,0.1 0.2,0.1 0.2,0 0.2,0.1 0.3,0 0.2,0.1 0.2,0 0.2,0.1 0.2,0 0.2,0 0.3,0.1 0.2,0 0.2,0 0.2,0 0.2,0.1 0.2,0 0.2,0 0.2,0.1 0.2,0 0.2,0 0.3,0 0.2,0 0.2,0 0.2,0 0.2,0.1 0.2,0 0.2,0 0.2,0 0.2,0.1 0.2,0 0.2,0.1 0.2,0 0.1,0 0.2,0.1 0.2,0 0.2,0.1 0.2,0 0.2,0 0.2,0 0.2,0 0.2,0 0.2,0 0.2,0.1 0.1,0 0.2,0 0.2,0 0.2,0 0.2,0 0.2,0.1 0.2,0 0.1,0 0.2,0 0.2,0 0.2,0 0.2,0 0.1,0 0.2,0 0.2,0 0.2,0 0.1,0 0.2,0 0.2,0 0.2,0 0.1,-0.1 0.2,0 0.2,0 0.2,0 0.1,0 0.2,0 0.2,0 0.1,0 0.2,0 0.2,0 0.1,0 0.2,0.1 0.2,0 0.1,0 0.2,0 0.2,0 0.1,0 0.2,0 0.2,0 0.1,0 0.2,0 0.2,0 0.1,0 0.2,0 0.1,0 0.2,0 0.2,0 0.1,0 0.2,0 0.1,0.1 0.2,0 0.1,0 0.2,0 0.2,0.1 0.1,0 0.2,0.1 0.1,0 0.2,0.1 0.1,0 0.2,0.1 0.1,0 0.2,0.1 0.1,0 0.2,0.1 0.1,0 0.2,0 0.1,0.1 0.2,0 0.1,0 0.2,0.1 0.1,0 0.2,0.1 0.1,0 0.2,0.1 0.1,0 0.2,0 0.1,0.1 0.1,0 0.2,0.1 0.1,0 0.2,0.1 0.1,0 0.2,0 0.1,0.1 0.1,0.1 0.2,0 0.1,0.1 0.2,0 0.1,0.1 0.1,0 0.2,0.1 0.1,0 0.2,0.1 0.1,0.1 0.1,0 0.2,0.1 0.1,0 0.1,0.1 0.2,0.1 0.1,0 0.2,0.1 0.1,0 0.1,0.1 0.2,0.1 0.1,0 0.1,0.1 0.2,0.1 0.1,0.1 0.1,0 0.2,0.1 0.1,0.1 0.1,0 0.1,0.1 0.2,0.1 0.1,0 0.1,0.1 0.2,0.1 0.1,0 0.1,0.1 0.2,0 0.1,0.1 0.1,0.1 0.1,0 0.2,0 0.1,0.1 0.1,0.1 0.1,0 0.2,0.1 0.1,0 0.1,0 0.1,0.1 0.2,0 0.1,0.1 0.1,0 0.1,0 0.2,0.1 0.1,0 0.1,0.1 0.1,0 0.2,0.1 0.1,0 0.1,0 0.1,0.1 0.1,0 0.2,0 0.1,0.1 0.1,0 0.1,0.1 0.1,0 0.2,0.1 0.1,0 0.1,0.1 0.1,0 0.1,0.1 0.2,0 0.1,0 0.1,0.1 0.1,0 0.1,0.1 0.1,0 0.2,0 0.1,0.1 0.1,0 0.1,0.1 0.1,0 0.1,0 0.1,0.1 0.2,0 0.1,0 0.1,0.1 0.1,0 0.1,0.1 0.1,0 0.1,0 0.1,0.1 0.2,0 0.1,0.1 0.1,0 0.1,0 0.1,0.1 0.1,0 0.1,0 0.1,0 0.1,0.1 0.2,0 0.1,0.1 0.1,0 0.1,0.1 0.1,0 0.1,0.1 0.1,0 0.1,0.1 0.1,0 0.1,0.1 0.1,0 0.1,0 0.2,0.1 0.1,0 0.1,0 0.1,0.1 0.1,0 0.1,0.1 0.1,0 0.1,0.1 0.1,0 0.1,0 0.1,0.1 0.1,0 0.1,0 0.1,0.1 0.1,0 0.1,0 0.1,0.1 0.1,0 0.1,0.1 0.1,0 0.1,0 0.1,0.1 0.1,0 0.1,0.1 0.1,0 0.2,0 0.1,0.1 0.1,0 0.1,0.1 0.1,0 0.1,0 0.1,0.1 0.1,0 0.1,0 0.1,0 0.1,0.1 0.1,0 0.1,0 0.1,0.1 0.1,0 0.1,0 0.1,0 0.1,0.1 0.1,0 0.1,0 0.1,0 0.1,0.1 0.1,0 0.1,0 0.1,0.1 0.1,0 0.1,0 0.1,0 0.1,0.1 0.1,0 0.1,0 0.1,0 0.1,0.1 0.1,0 0.1,0 0.1,0 0.1,0.1 0.1,0 0.1,0 0.1,0 0.1,0.1 0.1,0 0.1,0 0.1,0 0.1,0.1 0.1,0 0.1,0 0.1,0 0.1,0 0.1,0.1 0.1,0 0.1,0 0.1,0 0.1,0 0.1,0.1 0.1,0 0.1,0 0.1,0 0.1,0 0.1,0 0,0.1 0.1,0 0.1,0 0.1,0 0.1,0 0.1,0 0.1,0.1 0.1,0 0.1,0 0.1,0 0.1,0.1 0.1,0 0.1,0 0.1,0 0.1,0 0.1,0 0.1,0 0.1,0 0.1,0 0.1,0 0.1,0 0.1,0 0.1,0.1 0.1,0 0.1,0 0.1,0 0.1,0 0.1,0 0.1,0 0.1,0 0.1,0 0.1,0 0.1,0 0.1,0 0.1,0 0.1,0 0.1,0 0.1,0 0.1,0 0.1,0 0.1,0 0.1,0 0.1,0 0.1,0 0.1,0 0.1,0 0.1,0 0.1,0 0.1,0 0.1,0 0.1,0.1 0.1,0 0.1,0 0.1,0 0.1,0 0.1,0 0.1,0.1 0.1,0 0.1,0 0.1,0 0.1,0 0.1,0 0.1,0 0.1,0.1 0.1,0 0.1,0 0.1,0 0.1,0.1 0.1,0 0.1,0 0.1,0 0.1,0 0.1,0 0.1,0 0.1,0 0.1,0 0.1,0 0.1,0.1 0.1,0 0.1,0 0.1,0 0.1,0 0.1,0 0.1,0 0.1,0 0.1,0 0.1,0 0.1,0 0.1,0 0.1,0 0.1,0 0.1,0 0.1,0 0.1,0 0.1,0 0.1,0 0.1,0 0.1,0 0.1,0 0.1,0 0.1,0 0.1,0 0.1,0 0.1,0 0.1,0 0.1,0 0.1,0 0.1,0 0.1,0 0.1,0 0.1,0 0.1,0 0.1,0 0.1,-0.1 0.1,0 0.1,0 0.1,0 0.1,0 0.1,0 0.1,0 0.1,0 0.1,0 0.1,0 0.1,0 0,-0.1 0.1,0 0.1,0 0.1,0 0.1,0 0.1,0 0.1,0 0.1,0 0.1,0 0.1,0 0,-0.1 0.1,0 0.1,0 0.1,0 0.1,0 0.1,0 0.1,0 0.1,-0.1 0.1,0 0.1,0 0.1,0 0.1,-0.1 0.1,0 0.1,0 0.1,-0.1 0.1,0 0.1,0 0.1,0 0.1,0 0,-0.1 0.1,0 0.1,0 0.1,0 0.1,0 0,-0.1 0.1,0 0.1,0 0.1,0 0.1,-0.1 0.1,0 0.1,-0.1 0.1,0 0.1,0 0.1,0 0.1,0 0.1,-0.1 0.1,0 0.1,0 0.1,-0.1 0.1,0 0.1,0 0,-0.1 0.1,0 0.1,0 0.1,-0.1 0.1,0 0.1,0 0.1,-0.1 0.1,0 0.1,0 0.1,0 0.1,-0.1 0.1,0 0.1,0 0,-0.1 0.1,0 0.1,0 0.1,-0.1 0.1,0 0.1,0 0,-0.1 0.1,0 0.1,-0.1 0.1,0 0.1,-0.1 0.1,0 0.1,0 0.1,-0.1 0.1,0 0.1,0 0,-0.1 0.1,0 0.1,0 0.1,-0.1 0.1,0 0.1,-0.1 0.1,0 0.1,-0.1 0.1,0 0.1,0 0,-0.1 0.1,0 0.1,0 0.1,0 0,-0.1 0.1,0 0.1,0 0,-0.1 0.1,0 0.1,0 0.1,-0.1 0.1,0 0.1,-0.1 0.1,0 0.1,-0.1 0.1,0 0.1,0 0.1,0 0,-0.1 0.1,0 0.1,0 0.1,-0.1 0.1,0 0.1,-0.1 0.1,0 0.1,0 0,-0.1 0.1,0 0.1,-0.1 0.1,0 0,-0.1 0.1,0 0.1,0 0.1,-0.1 0.1,0 0.1,0 0,-0.1 0.1,0 0.1,0 0.1,-0.1 0.1,0 0.1,-0.1 0.1,0 0.1,0 0,-0.1 0.1,0 0.1,0 0.1,0 0.1,-0.1 0.1,0 0.1,0 0.1,0 0,-0.1 0.1,0 0.1,0 0,-0.1 0.1,0 0.1,0 0,-0.1 0.1,0 0.1,0 0.1,0 0.1,0 0.1,0 0.1,-0.1 0.1,0 0.1,0 0.1,-0.1 0.1,0 0.1,0 0,-0.1 0.1,0 0.1,0 0.1,0 0.1,0 0.1,0 0.1,0 0,-0.1 0.1,0 0.1,0 0.1,0 0.1,0 0,-0.1 0.1,0 0.1,0 0.1,0 0.1,-0.1 0.1,0 0.1,0 0,-0.1 0.1,0 0.1,0 0,-0.1 0.1,0 0.1,0 0.1,-0.1 0.1,0 0,-0.1 0.1,0 0.1,0 0.1,0 0,-0.1 0.1,0 0.1,0 0.1,0 0.1,-0.1 0.1,0 0.1,0 0.1,-0.1 0.1,0 0.1,-0.1 0.1,0 0,-0.1 0.1,0 0.1,0 0,-0.1 0.1,0 0.1,0 0,-0.1 0.1,0 0.1,0 0,-0.1 0.1,0 0,-0.1 0.1,0 0.1,0 0,-0.1 0.1,0 0.1,0 0,-0.1 0.1,0 0.1,0 0,-0.1 0.1,0 0.1,-0.1 0.1,0 0,-0.1 0.1,0 0.1,0 0,-0.1 0.1,0 0.1,0 0,-0.1 0.1,0 0.1,0 0,-0.1 0.1,0 0.1,-0.1 0.1,0 0.1,-0.1 0.1,0 0.1,-0.1 0.1,0 0,-0.1 0.1,0 0.1,0 0,-0.1 0.1,0 0.1,0 0,-0.1 0.1,0 0.1,-0.1 0.1,0 0.1,-0.1 0.1,0 0.1,-0.1 0.1,0 0,-0.1 0.1,0 0.1,0 0,-0.1 0.1,0 0.1,-0.1 0.1,0 0.1,-0.1 0.1,0 0,-0.1 0.1,0 0.1,0 0.1,-0.1 0.1,0 0,-0.1 0.1,0 0.1,0 0,-0.1 0.1,0 0.1,-0.1 0.1,0 0.1,-0.1 0.1,0 0.1,-0.1 0.1,0 0.1,-0.1 0.1,0 0,-0.1 0.1,0 0.1,0 0,-0.1 0.1,0 0.1,0 0,-0.1 0.1,0 0.1,-0.1 0.1,0 0.1,-0.1 0.1,0 0.1,-0.1 0.1,0 0.1,-0.1 0.1,0 0,-0.1 0.1,0 0.1,0 0,-0.1 0.1,0 0.1,0 0,-0.1 0.1,0 0.1,0 0,-0.1 0.1,0 0.1,-0.1 0.1,0 0.1,-0.1 0.1,0 0.1,-0.1 0.1,0 0,-0.1 0.1,0 0.1,0 0.1,-0.1 0.1,0 0.1,-0.1 0.1,0 0,-0.1 0.1,0 0.1,0 0,-0.1 0.1,0 0.1,0 0,-0.1 0.1,0 0.1,-0.1 0.1,0 0.1,-0.1 0.1,0 0.1,-0.1 0.1,0 0.1,-0.1 0.1,0 0.1,-0.1 0.1,0 0.1,-0.1 0.1,0 0,-0.1 0.1,0 0.1,0 0,-0.1 0.1,0 0.1,0 0,-0.1 0.1,0 0.1,0 0,-0.1 0.1,0 0.1,0 0,-0.1 0.1,0 0.1,0 0,-0.1 0.1,0 0.1,0 0,-0.1 0.1,0 0.1,-0.1 0.1,0 0.1,-0.1 0.1,0 0.1,-0.1 0.1,0 0,-0.1 0.1,0 0.1,0 0,-0.1 0.1,0 0.1,0 0.1,-0.1 0.1,0 0,-0.1 0.1,0 0.1,0 0,-0.1 0.1,0 0.1,0 0,-0.1 0.1,0 0.1,0 0,-0.1 0.1,0 0.1,0 0,-0.1 0.1,0 0.1,0 0,-0.1 0.1,0 0.1,0 0,-0.1 0.1,0 0.1,-0.1 0.1,0 0.1,0 0,-0.1 0.1,0 0.1,-0.1 0.1,0 0.1,-0.1 0.1,0 0.1,-0.1 0.1,0 0.1,-0.1 0.1,0 0.1,-0.1 0.1,0 0.1,-0.1 0.1,0 0.1,-0.1 0.1,0 0.1,-0.1 0.1,0 0,-0.1 0.1,0 0.1,0 0.1,-0.1 0.1,0 0.1,-0.1 0.1,0 0.1,-0.1 0.1,0 0.1,-0.1 0.1,0 0,-0.1 0.1,0 0.1,0 0,-0.1 0.1,0 0.1,0 0,-0.1 0.1,0 0.1,0 0,-0.1 0.1,0 0.1,0 0,-0.1 0.1,0 0.1,0 0,-0.1 0.1,0 0.1,0 0,-0.1 0.1,0 0.1,0 0,-0.1 0.1,0 0.1,0 0.1,-0.1 0.1,0 0.1,-0.1 0.1,0 0,-0.1 0.1,0 0.1,0 0,-0.1 0.1,0 0.1,0 0,-0.1 0.1,0 0.1,0 0.1,-0.1 0.1,0 0,-0.1 0.1,0 0.1,0 0,-0.1 0.1,0 0.1,0 0.1,-0.1 0.1,0 0,-0.1 0.1,0 0.1,0 0.1,-0.1 0.1,0 0.1,-0.1 0.1,0 0.1,-0.1 0.1,0 0.1,-0.1 0.1,0 0.1,-0.1 0.1,0 0.1,-0.1 0.1,0 0.1,-0.1 0.1,0 0.1,0 0,-0.1 0.1,0 0.1,0 0,-0.1 0.1,0 0.1,-0.1 0.1,0 0.1,0 0,-0.1 0.1,0 0.1,0 0,-0.1 0.1,0 0.1,0 0,-0.1 0.1,0 0.1,0 0,-0.1 0.1,0 0.1,0 0,-0.1 0.1,0 0.1,0 0,-0.1 0.1,0 0.1,0 0,-0.1 0.1,0 0.1,0 0,-0.1 0.1,0 0.1,0 0,-0.1 0.1,0 0.1,0 0,-0.1 0.1,0 0.1,0 0,-0.1 0.1,0 0.1,0 0,-0.1 0.1,0 0.1,0 0.1,-0.1 0.1,0 0.1,-0.1 0.1,0 0.1,-0.1 0.1,0 0.1,0 0,-0.1 0.1,0 0.1,0 0,-0.1 0.1,0 0.1,0 0,-0.1 0.1,0 0.1,0 0,-0.1 0.1,0 0.1,0 0,-0.1 0.1,0 0.1,0 0,-0.1 0.1,0 0.1,0 0.1,-0.1 0.1,0 0.1,-0.1 0.1,0 0.1,-0.1 0.1,0 0.1,0 0,-0.1 0.1,0 0.1,0 0,-0.1 0.1,0 0.1,0 0,-0.1 0.1,0 0.1,0 0,-0.1 0.1,0 0.1,0 0,-0.1 0.1,0 0.1,0 0,-0.1 0.1,0 0.1,0 0,-0.1 0.1,0 0.1,0 0,-0.1 0.1,0 0.1,0 0.1,0 0,-0.1 0.1,0 0.1,0 0,-0.1 0.1,0 0.1,0 0,-0.1 0.1,0 0.1,0 0,-0.1 0.1,0 0.1,0 0,-0.1 0.1,0 0.1,0 0,-0.1 0.1,0 0.1,0 0,-0.1 0.1,0 0.1,0 0.1,-0.1 0.1,0 0.1,0 0,-0.1 0.1,0 0.1,0 0,-0.1 0.1,0 0.1,0 0,-0.1 0.1,0 0.1,0 0,-0.1 0.1,0 0.1,0 0,-0.1 0.1,0 0.1,0 0.1,-0.1 0.1,0 0.1,0 0,-0.1 0.1,0 0.1,0 0,-0.1 0.1,0 0.1,0 0,-0.1 0.1,0 0.1,0 0,-0.1 0.1,0 0.1,0 0,-0.1 0.1,0 0.1,0 0,-0.1 0.1,0 0.1,0 0.1,-0.1 0.1,0 0.1,0 0,-0.1 0.1,0 0.1,0 0,-0.1 0.1,0 0.1,0 0,-0.1 0.1,0 0.1,0 0,-0.1 0.1,0 0.1,0 0.1,-0.1 0.1,0 0.1,0 0,-0.1 0.1,0 0.1,0 0,-0.1 0.1,0 0.1,0 0,-0.1 0.1,0 0.1,0 0,-0.1 0.1,0 0.1,0 0.1,-0.1 0.1,0 0.1,0 0,-0.1 0.1,0 0.1,0 0,-0.1 0.1,0 0.1,0 0,-0.1 0.1,0 0.1,0 0.1,-0.1 0.1,0 0.1,-0.1 0.1,0 0.1,0 0,-0.1 0.1,0 0.1,0 0,-0.1 0.1,0 0.1,0 0,-0.1 0.1,0 0.1,0 0,-0.1 0.1,0 0.1,0 0.1,0 0,-0.1 0.1,0 0.1,0 0,-0.1 0.1,0 0.1,0 0,-0.1 0.1,0 0.1,0 0,-0.1 0.1,0 0.1,0 0.1,0 0,-0.1 0.1,0 0.1,0 0,-0.1 0.1,0 0.1,0 0,-0.1 0.1,0 0.1,0 0,-0.1 0.1,0 0.1,0 0.1,0 0,-0.1 0.1,0 0.1,0 0,-0.1 0.1,0 0.1,0 0,-0.1 0.1,0 0.1,0 0,-0.1 0.1,0 0.1,0 0.1,0 0,-0.1 0.1,0 0.1,0 0,-0.1 0.1,0 0.1,0 0,-0.1 0.1,0 0.1,0 0.1,-0.1 0.1,0 0.1,0 0,-0.1 0.1,0 0.1,0 0,-0.1 0.1,0 0.1,0 0,-0.1 0.1,0 0.1,0 0.1,-0.1 0.1,0 0.1,0 0,-0.1 0.1,0 0.1,0 0,-0.1 0.1,0 0.1,0 0,-0.1 0.1,0 0.1,0 0.1,0 0,-0.1 0.1,0 0.1,0 0,-0.1 0.1,0 0.1,0 0,-0.1 0.1,0 0.1,0 0.1,-0.1 0.1,0 0.1,0 0,-0.1 0.1,0 0.1,0 0,-0.1 0.1,0 0.1,0 0.1,-0.1 0.1,0 0.1,0 0,-0.1 0.1,0 0.1,0 0,-0.1 0.1,0 0.1,0 0,-0.1 0.1,0 0.1,0 0.1,0 0,-0.1 0.1,0 0.1,0 0,-0.1 0.1,0 0.1,0 0,-0.1 0.1,0 0.1,0 0.1,0 0,-0.1 0.1,0 0.1,0 0,-0.1 0.1,0 0.1,0 0,-0.1 0.1,0 0.1,0 0.1,0 0,-0.1 0.1,0 0.1,0 0,-0.1 0.1,0 0.1,0 0,-0.1 0.1,0 0.1,0 0.1,0 0,-0.1 0.1,0 0.1,0 0,-0.1 0.1,0 0.1,0 0,-0.1 0.1,0 0.1,0 0.1,0 0,-0.1 0.1,0 0.1,0 0,-0.1 0.1,0 0.1,0 0.1,-0.1 0.1,0 0.1,0 0,-0.1 0.1,0 0.1,0 0,-0.1 0.1,0 0.1,0 0.1,-0.1 0.1,0 0.1,0 0,-0.1 0.1,0 0.1,0 0,-0.1 0.1,0 0.1,0 0.1,0 0,-0.1 0.1,0 0.1,0 0,-0.1 0.1,0 0.1,0 0.1,-0.1 0.1,0 0.1,0 0,-0.1 0.1,0 0.1,0 0,-0.1 0.1,0 0.1,0 0.1,-0.1 0.1,0 0.1,0 0,-0.1 0.1,0 0.1,0 0,-0.1 0.1,0 0.1,0 0.1,0 0,-0.1 0.1,0 0.1,0 0,-0.1 0.1,0 0.1,0 0.1,-0.1 0.1,0 0.1,0 0,-0.1 0.1,0 0.1,0 0,-0.1 0.1,0 0.1,0 0.1,0 0,-0.1 0.1,0 0.1,0 0,-0.1 0.1,0 0.1,0 0.1,0 0,-0.1 0.1,0 0.1,0 0,-0.1 0.1,0 0.1,0 0.1,-0.1 0.1,0 0.1,0 0,-0.1 0.1,0 0.1,0 0,-0.1 0.1,0 0.1,0 0.1,0 0,-0.1 0.1,0 0.1,0 0,-0.1 0.1,0 0.1,0 0.1,0 0,-0.1 0.1,0 0.1,0 0,-0.1 0.1,0 0.1,0 0.1,-0.1 0.1,0 0.1,0 0,-0.1 0.1,0 0.1,0 0,-0.1 0.1,0 0.1,0 0.1,0 0,-0.1 0.1,0 0.1,0 0,-0.1 0.1,0 0.1,0 0.1,0 0,-0.1 0.1,0 0.1,0 0,-0.1 0.1,0 0.1,0 0.1,0 0,-0.1 0.1,0 0.1,0 0,-0.1 0.1,0 0.1,0 0.1,0 0,-0.1 0.1,0 0.1,0 0,-0.1 0.1,0 0.1,0 0.1,0 0,-0.1 0.1,0 0.1,0 0,-0.1 0.1,0 0.1,0 0.1,0 0,-0.1 0.1,0 0.1,0 0,-0.1 0.1,0 0.1,0 0.1,0 0,-0.1 0.1,0 0.1,0 0,-0.1 0.1,0 0.1,0 0.1,0 0,-0.1 0.1,0 0.1,0 0,-0.1 0.1,0 0.1,0 0.1,0 0,-0.1 0.1,0 0.1,0 0,-0.1 0.1,0 0.1,0 0.1,0 0,-0.1 0.1,0 0.1,0 0,-0.1 0.1,0 0.1,0 0.1,0 0,-0.1 0.1,0 0.1,0 0,-0.1 0.1,0 0.1,0 0.1,0 0,-0.1 0.1,0 0.1,0 0,-0.1 0.1,0 0.1,0 0.1,0 0,-0.1 0.1,0 0.1,0 0,-0.1 0.1,0 0.1,0 0.1,0 0,-0.1 0.1,0 0.1,0 0,-0.1 0.1,0 0.1,0 0.1,0 0,-0.1 0.1,0 0.1,0 0.1,0 0,-0.1 0.1,0 0.1,0 0,-0.1 0.1,0 0.1,0 0.1,0 0,-0.1 0.1,0 0.1,0 0,-0.1 0.1,0 0.1,0 0.1,0 0,-0.1 0.1,0 0.1,0 0,-0.1 0.1,0 0.1,0 0.1,0 0,-0.1 0.1,0 0.1,0 0,-0.1 0.1,0 0.1,0 0.1,0 0,-0.1 0.1,0 0.1,0 0.1,0 0,-0.1 0.1,0 0.1,0 0,-0.1 0.1,0 0.1,0 0.1,0 0,-0.1 0.1,0 0.1,0 0,-0.1 0.1,0 0.1,0 0.1,0 0,-0.1 0.1,0 0.1,0 0.1,-0.1 0.1,0 0.1,0 0,-0.1 0.1,0 0.1,0 0.1,0 0,-0.1 0.1,0 0.1,0 0,-0.1 0.1,0 0.1,0 0.1,0 0,-0.1 0.1,0 0.1,0 0.1,-0.1 0.1,0 0.1,0 0,-0.1 0.1,0 0.1,0 0.1,0 0,-0.1 0.1,0 0.1,0 0,-0.1 0.1,0 0.1,0 0.1,0 0,-0.1 0.1,0 0.1,0 0.1,0 0,-0.1 0.1,0 0.1,0 0,-0.1 0.1,0 0.1,0 0.1,0 0,-0.1 0.1,0 0.1,0 0.1,-0.1 0.1,0 0.1,0 0,-0.1 0.1,0 0.1,0 0.1,0 0,-0.1 0.1,0 0.1,0 0.1,-0.1 0.1,0 0.1,0 0,-0.1 0.1,0 0.1,0 0.1,0 0,-0.1 0.1,0 0.1,0 0,-0.1 0.1,0 0.1,0 0.1,0 0,-0.1 0.1,0 0.1,0 0.1,0 0,-0.1 0.1,0 0.1,0 0.1,-0.1 0.1,0 0.1,0 0,-0.1 0.1,0 0.1,0 0.1,0 0,-0.1 0.1,0 0.1,0 0.1,-0.1 0.1,0 0.1,0 0,-0.1 0.1,0 0.1,0 0.1,0 0,-0.1 0.1,0 0.1,0 0.1,0 0,-0.1 0.1,0 0.1,0 0,-0.1 0.1,0 0.1,0 0.1,0 0,-0.1 0.1,0 0.1,0 0.1,0 0,-0.1 0.1,0 0.1,0 0,-0.1 0.1,0 0.1,0 0.1,0 0,-0.1 0.1,0 0.1,0 0.1,0 0,-0.1 0.1,0 0.1,0 0.1,-0.1 0.1,0 0.1,0 0,-0.1 0.1,0 0.1,0 0.1,0 0,-0.1 0.1,0 0.1,0 0.1,0 0,-0.1 0.1,0 0.1,0 0,-0.1 0.1,0 0.1,0 0.1,0 0,-0.1 0.1,0 0.1,0 0.1,0 0,-0.1 0.1,0 0.1,0 0.1,0 0,-0.1 0.1,0 0.1,0 0,-0.1 0.1,0 0.1,0 0.1,0 0,-0.1 0.1,0 0.1,0 0.1,0 0,-0.1 0.1,0 0.1,0 0.1,0 0,-0.1 0.1,0 0.1,0 0,-0.1 0.1,0 0.1,0 0.1,0 0,-0.1 0.1,0 0.1,0 0.1,0 0,-0.1 0.1,0 0.1,0 0.1,0 0,-0.1 0.1,0 0.1,0 0,-0.1 0.1,0 0.1,0 0.1,0 0,-0.1 0.1,0 0.1,0 0.1,0 0,-0.1 0.1,0 0.1,0 0.1,0 0,-0.1 0.1,0 0.1,0 0.1,0 0,-0.1 0.1,0 0.1,0 0,-0.1 0.1,0 0.1,0 0.1,0 0,-0.1 0.1,0 0.1,0 0.1,0 0,-0.1 0.1,0 0.1,0 0.1,0 0,-0.1 0.1,0 0.1,0 0.1,0 0,-0.1 0.1,0 0.1,0 0,-0.1 0.1,0 0.1,0 0.1,0 0,-0.1 0.1,0 0.1,0 0.1,0 0,-0.1 0.1,0 0.1,0 0.1,0 0,-0.1 0.1,0 0.1,0 0.1,0 0,-0.1 0.1,0 0.1,0 0.1,-0.1 0.1,0 0.1,0 0,-0.1 0.1,0 0.1,0 0.1,0 0,-0.1 0.1,0 0.1,0 0.1,0 0,-0.1 0.1,0 0.1,0 0.1,0 0,-0.1 0.1,0 0.1,0 0.1,0 0,-0.1 0.1,0 0.1,0 0.1,-0.1 0.1,0 0.1,0 0,-0.1 0.1,0 0.1,0 0.1,0 0,-0.1 0.1,0 0.1,0 0.1,0 0,-0.1 0.1,0 0.1,0 0.1,0 0,-0.1 0.1,0 0.1,0 0.1,0 0,-0.1 0.1,0 0.1,0 0.1,0 0,-0.1 0.1,0 0.1,0 0.1,0 0,-0.1 0.1,0 0.1,0 0.1,0 0,-0.1 0.1,0 0.1,0 0,-0.1 0.1,0 0.1,0 0.1,0 0,-0.1 0.1,0 0.1,0 0.1,0 0,-0.1 0.1,0 0.1,0 0.1,0 0,-0.1 0.1,0 0.1,0 0.1,0 0,-0.1 0.1,0 0.1,0 0.1,0 0,-0.1 0.1,0 0.1,0 0.1,0 0,-0.1 0.1,0 0.1,0 0.1,0 0,-0.1 0.1,0 0.1,0 0.1,0 0,-0.1 0.1,0 0.1,0 0.1,0 0,-0.1 0.1,0 0.1,0 0.1,-0.1 0.1,0 0.1,0 0,-0.1 0.1,0 0.1,0 0.1,0 0,-0.1 0.1,0 0.1,0 0.1,0 0,-0.1 0.1,0 0.1,0 0.1,0 0,-0.1 0.1,0 0.1,0 0.1,0 0,-0.1 0.1,0 0.1,0 0.1,0 0,-0.1 0.1,0 0.1,0 0.1,0 0,-0.1 0.1,0 0.1,0 0.1,0 0,-0.1 0.1,0 0.1,0 0.1,0 0,-0.1 0.1,0 0.1,0 0.1,0 0,-0.1 0.1,0 0.1,0 0.1,0 0,-0.1 0.1,0 0.1,0 0.1,0 0,-0.1 0.1,0 0.1,0 0.1,0 0,-0.1 0.1,0 0.1,0 0.1,0 0,-0.1 0.1,0 0.1,0 0.1,0 0,-0.1 0.1,0 0.1,0 0.1,0 0,-0.1 0.1,0 0.1,0 0.1,0 0,-0.1 0.1,0 0.1,0 0.1,0 0,-0.1 0.1,0 0.1,0 0.1,0 0,-0.1 0.1,0 0.1,0 0.1,0 0,-0.1 0.1,0 0.1,0 0.1,0 0,-0.1 0.1,0 0.1,0 0.1,0 0,-0.1 0.1,0 0.1,0 0.1,0 0,-0.1 0.1,0 0.1,0 0.1,0 0,-0.1 0.1,0 0.1,0 0.1,0 0,-0.1 0.1,0 0.1,0 0.1,0 0,-0.1 0.1,0 0.1,0 0.1,0 0,-0.1 0.1,0 0.1,0 0.1,0 0,-0.1 0.1,0 0.1,0 0.1,0 0,-0.1 0.1,0 0.1,0 0.1,0 0,-0.1 0.1,0 0.1,0 0.1,0 0,-0.1 0.1,0 0.1,0 0.1,0 0,-0.1 0.1,0 0.1,0 0.1,0 0,-0.1 0.1,0 0.1,0 0.1,0 0.1,-0.1 0.1,0 0.1,0 0.1,0 0,-0.1 0.1,0 0.1,0 0.1,0 0,-0.1 0.1,0 0.1,0 0.1,0 0,-0.1 0.1,0 0.1,0 0.1,0 0,-0.1 0.1,0 0.1,0 0.1,0 0,-0.1 0.1,0 0.1,0 0.1,0 0,-0.1 0.1,0 0.1,0 0.1,0 0,-0.1 0.1,0 0.1,0 0.1,0 0,-0.1 0.1,0 0.1,0 0.1,0 0,-0.1 0.1,0 0.1,0 0.1,0 0,-0.1 0.1,0 0.1,0 0.1,0 0.1,0 0,-0.1 0.1,0 0.1,0 0.1,0 0,-0.1 0.1,0 0.1,0 0.1,0 0,-0.1 0.1,0 0.1,0 0.1,0 0,-0.1 0.1,0 0.1,0 0.1,0 0,-0.1 0.1,0 0.1,0 0.1,0 0,-0.1 0.1,0 0.1,0 0.1,0 0,-0.1 0.1,0 0.1,0 0.1,0 0,-0.1 0.1,0 0.1,0 0.1,0 0.1,0 0,-0.1 0.1,0 0.1,0 0.1,0 0,-0.1 0.1,0 0.1,0 0.1,0 0,-0.1 0.1,0 0.1,0 0.1,0 0,-0.1 0.1,0 0.1,0 0.1,0 0,-0.1 0.1,0 0.1,0 0.1,0 0.1,-0.1 0.1,0 0.1,0 0.1,0 0,-0.1 0.1,0 0.1,0 0.1,0 0,-0.1 0.1,0 0.1,0 0.1,0 0,-0.1 0.1,0 0.1,0 0.1,0 0,-0.1 0.1,0 0.1,0 0.1,0 0,-0.1 0.1,0 0.1,0 0.1,0 0.1,0 0,-0.1 0.1,0 0.1,0 0.1,0 0,-0.1 0.1,0 0.1,0 0.1,0 0,-0.1 0.1,0 0.1,0 0.1,0 0,-0.1 0.1,0 0.1,0 0.1,0 0,-0.1 0.1,0 0.1,0 0.1,0 0.1,0 0,-0.1 0.1,0 0.1,0 0.1,0 0,-0.1 0.1,0 0.1,0 0.1,0 0,-0.1 0.1,0 0.1,0 0.1,0 0,-0.1 0.1,0 0.1,0 0.1,0 0.1,0 0,-0.1 0.1,0 0.1,0 0.1,0 0,-0.1 0.1,0 0.1,0 0.1,0 0,-0.1 0.1,0 0.1,0 0.1,0 0,-0.1 0.1,0 0.1,0 0.1,0 0.1,0 0,-0.1 0.1,0 0.1,0 0.1,0 0,-0.1 0.1,0 0.1,0 0.1,0 0,-0.1 0.1,0 0.1,0 0.1,0 0,-0.1 0.1,0 0.1,0 0.1,0 0.1,0 0,-0.1 0.1,0 0.1,0 0.1,0 0,-0.1 0.1,0 0.1,0 0.1,0 0,-0.1 0.1,0 0.1,0 0.1,0 0.1,0 0,-0.1 0.1,0 0.1,0 0.1,0 0,-0.1 0.1,0 0.1,0 0.1,0 0,-0.1 0.1,0 0.1,0 0.1,0 0.1,0 0,-0.1 0.1,0 0.1,0 0.1,0 0,-0.1 0.1,0 0.1,0 0.1,0 0,-0.1 0.1,0 0.1,0 0.1,0 0,-0.1 0.1,0 0.1,0 0.1,0 0.1,0 0,-0.1 0.1,0 0.1,0 0.1,0 0,-0.1 0.1,0 0.1,0 0.1,0 0.1,-0.1 0.1,0 0.1,0 0.1,0 0,-0.1 0.1,0 0.1,0 0.1,0 0,-0.1 0.1,0 0.1,0 0.1,0 0.1,0 0,-0.1 0.1,0 0.1,0 0.1,0 0,-0.1 0.1,0 0.1,0 0.1,0 0,-0.1 0.1,0 0.1,0 0.1,0 0.1,0 0,-0.1 0.1,0 0.1,0 0.1,0 0,-0.1 0.1,0 0.1,0 0.1,0 0,-0.1 0.1,0 0.1,0 0.1,0 0.1,0 0,-0.1 0.1,0 0.1,0 0.1,0 0,-0.1 0.1,0 0.1,0 0.1,0 0.1,-0.1 0.1,0 0.1,0 0.1,0 0,-0.1 0.1,0 0.1,0 0.1,0 0,-0.1 0.1,0 0.1,0 0.1,0 0.1,0 0,-0.1 0.1,0 0.1,0 0.1,0 0,-0.1 0.1,0 0.1,0 0.1,0 0.1,0 0,-0.1 0.1,0 0.1,0 0.1,0 0,-0.1 0.1,0 0.1,0 0.1,0 0,-0.1 0.1,0 0.1,0 0.1,0 0.1,0 0,-0.1 0.1,0 0.1,0 0.1,0 0,-0.1 0.1,0 0.1,0 0.1,0 0.1,0 0,-0.1 0.1,0 0.1,0 0.1,0 0,-0.1 0.1,0 0.1,0 0.1,0 0.1,0 0,-0.1 0.1,0 0.1,0 0.1,0 0,-0.1 0.1,0 0.1,0 0.1,0 0.1,0 0,-0.1 0.1,0 0.1,0 0.1,0 0,-0.1 0.1,0 0.1,0 0.1,0 0,-0.1 0.1,0 0.1,0 0.1,0 0.1,0 0,-0.1 0.1,0 0.1,0 0.1,0 0,-0.1 0.1,0 0.1,0 0.1,0 0.1,0 0,-0.1 0.1,0 0.1,0 0.1,0 0,-0.1 0.1,0 0.1,0 0.1,0 0.1,0 0,-0.1 0.1,0 0.1,0 0.1,0 0,-0.1 0.1,0 0.1,0 0.1,0 0.1,0 0,-0.1 0.1,0 0.1,0 0.1,0 0,-0.1 0.1,0 0.1,0 0.1,0 0.1,0 0,-0.1 0.1,0 0.1,0 0.1,0 0,-0.1 0.1,0 0.1,0 0.1,0 0.1,0 0,-0.1 0.1,0 0.1,0 0.1,0 0.1,0 0,-0.1 0.1,0 0.1,0 0.1,0 0,-0.1 0.1,0 0.1,0 0.1,0 0.1,0 0,-0.1 0.1,0 0.1,0 0.1,0 0,-0.1 0.1,0 0.1,0 0.1,0 0.1,0 0,-0.1 0.1,0 0.1,0 0.1,0 0,-0.1 0.1,0 0.1,0 0.1,0 0.1,0 0,-0.1 0.1,0 0.1,0 0.1,0 0,-0.1 0.1,0 0.1,0 0.1,0 0.1,0 0,-0.1 0.1,0 0.1,0 0.1,0 0.1,0 0,-0.1 0.1,0 0.1,0 0.1,0 0,-0.1 0.1,0 0.1,0 0.1,0 0.1,0 0,-0.1 0.1,0 0.1,0 0.1,0 0,-0.1 0.1,0 0.1,0 0.1,0 0.1,0 0,-0.1 0.1,0 0.1,0 0.1,0 0.1,0 0,-0.1 0.1,0 0.1,0 0.1,0 0,-0.1 0.1,0 0.1,0 0.1,0 0.1,0 0,-0.1 0.1,0 0.1,0 0.1,0 0,-0.1 0.1,0 0.1,0 0.1,0 0.1,0 0,-0.1 0.1,0 0.1,0 0.1,0 0.1,0 0,-0.1 0.1,0 0.1,0 0.1,0 0,-0.1 0.1,0 0.1,0 0.1,0 0.1,0 0,-0.1 0.1,0 0.1,0 0.1,0 0.1,0 0,-0.1 0.1,0 0.1,0 0.1,0 0,-0.1 0.1,0 0.1,0 0.1,0 0.1,0 0,-0.1 0.1,0 0.1,0 0.1,0 0.1,0 0,-0.1 0.1,0 0.1,0 0.1,0 0,-0.1 0.1,0 0.1,0 0.1,0 0.1,0 0,-0.1 0.1,0 0.1,0 0.1,0 0.1,0 0,-0.1 0.1,0 0.1,0 0.1,0 0,-0.1 0.1,0 0.1,0 0.1,0 0.1,0 0,-0.1 0.1,0 0.1,0 0.1,0 0.1,0 0,-0.1 0.1,0 0.1,0 0.1,0 0.1,0 0,-0.1 0.1,0 0.1,0 0.1,0 0,-0.1 0.1,0 0.1,0 0.1,0 0.1,0 0,-0.1 0.1,0 0.1,0 0.1,0 0.1,0 0,-0.1 0.1,0 0.1,0 0.1,0 0,-0.1 0.1,0 0.1,0 0.1,0 0.1,0 0,-0.1 0.1,0 0.1,0 0.1,0 0.1,0 0,-0.1 0.1,0 0.1,0 0.1,0 0.1,0 0,-0.1 0.1,0 0.1,0 0.1,0 0,-0.1 0.1,0 0.1,0 0.1,0 0.1,0 0,-0.1 0.1,0 0.1,0 0.1,0 0.1,0 0,-0.1 0.1,0 0.1,0 0.1,0 0.1,0 0,-0.1 0.1,0 0.1,0 0.1,0 0.1,-0.1 0.1,0 0.1,0 0.1,0 0,-0.1 0.1,0 0.1,0 0.1,0 0.1,0 0,-0.1 0.1,0 0.1,0 0.1,0 0.1,0 0,-0.1 0.1,0 0.1,0 0.1,0 0.1,0 0,-0.1 0.1,0 0.1,0 0.1,0 0,-0.1 0.1,0 0.1,0 0.1,0 0.1,0 0,-0.1 0.1,0 0.1,0 0.1,0 0.1,0 0,-0.1 0.1,0 0.1,0 0.1,0 0.1,0 0,-0.1 0.1,0 0.1,0 0.1,0 0.1,0 0,-0.1 0.1,0 0.1,0 0.1,0 0.1,0 0,-0.1 0.1,0 0.1,0 0.1,0 0,-0.1 0.1,0 0.1,0 0.1,0 0.1,0 0,-0.1 0.1,0 0.1,0 0.1,0 0.1,0 0,-0.1 0.1,0 0.1,0 0.1,0 0.1,0 0,-0.1 0.1,0 0.1,0 0.1,0 0.1,0 0,-0.1 0.1,0 0.1,0 0.1,0 0.1,0 0,-0.1 0.1,0 0.1,0 0.1,0 0.1,0 0,-0.1 0.1,0 0.1,0 0.1,0 0.1,-0.1 0.1,0 0.1,0 0.1,0 0,-0.1 0.1,0 0.1,0 0.1,0 0.1,0 0,-0.1 0.1,0 0.1,0 0.1,0 0.1,0 0,-0.1 0.1,0 0.1,0 0.1,0 0.1,0 0,-0.1 0.1,0 0.1,0 0.1,0 0.1,0 0,-0.1 0.1,0 0.1,0 0.1,0 0.1,0 0,-0.1 0.1,0 0.1,0 0.1,0 0.1,0 0,-0.1 0.1,0 0.1,0 0.1,0 0.1,0 0,-0.1 0.1,0 0.1,0 0.1,0 0.1,0 0,-0.1 0.1,0 0.1,0 0.1,0 0.1,0 0,-0.1 0.1,0 0.1,0 0.1,0 0.1,0 0,-0.1 0.1,0 0.1,0 0.1,0 0.1,0 0,-0.1 0.1,0 0.1,0 0.1,0 0.1,0 0,-0.1 0.1,0 0.1,0 0.1,0 0.1,0 0,-0.1 0.1,0 0.1,0 0.1,0 0.1,0 0,-0.1 0.1,0 0.1,0 0.1,0 0.1,-0.1 0.1,0 0.1,0 0.1,0 0.1,-0.1 0.1,0 0.1,0 0.1,0 0,-0.1 0.1,0 0.1,0 0.1,0 0.1,0 0,-0.1 0.1,0 0.1,0 0.1,0 0.1,0 0.1,-0.1 0.1,0 0.1,0 0.1,0 0.1,-0.1 0.1,0 0.1,0 0.1,0 0.1,0 0,-0.1 0.1,0 0.1,0 0.1,0 0.1,0 0,-0.1 0.1,0 0.1,0 0.1,0 0.1,0 0,-0.1 0.1,0 0.1,0 0.1,0 0.1,0 0,-0.1 0.1,0 0.1,0 0.1,0 0.1,0 0,-0.1 0.1,0 0.1,0 0.1,0 0.1,0 0,-0.1 0.1,0 0.1,0 0.1,0 0.1,0 0,-0.1 0.1,0 0.1,0 0.1,0 0.1,0 0,-0.1 0.1,0 0.1,0 0.1,0 0.1,0 0,-0.1 0.1,0 0.1,0 0.1,0 0.1,0 0,-0.1 0.1,0 0.1,0 0.1,0 0.1,0 0,-0.1 0.1,0 0.1,0 0.1,0 0.1,0 0,-0.1 0.1,0 0.1,0 0.1,0 0.1,0 h 0.01"
           id="path187"
           inkscape:connector-curvature="0" />
      </g>
    </g>
    <g
       style="color:#000000;fill:none;stroke:currentColor;stroke-width:0.5;stroke-linecap:butt;stroke-linejoin:miter"
       id="g189" />
  </g>
  <g
     id="g3180"
     transform="matrix(2.0084334,0,0,2.0084334,0.72908232,-202.82808)">
    <text
       sodipodi:linespacing="125%"
       style="font-size:12.5px;font-style:normal;font-variant:normal;font-weight:normal;font-stretch:normal;text-align:center;line-height:125%;writing-mode:lr-tb;text-anchor:middle;color:#000000;fill:#000000;stroke:none;font-family:Sans;-inkscape-font-specification:Sans"
       id="text151"
       transform="matrix(0,-1,1,0,0,0)"
       x="-202.5"
       y="9.8083982">
      <tspan
         id="tspan3172"
         sodipodi:role="line"
         x="-202.5"
         y="9.8083982">H - H</tspan>
    </text>
    <path
       inkscape:connector-curvature="0"
       inkscape:original-d="m 0.34336139,197.84745 0,-11.78775"
       inkscape:path-effect="#path-effect3176"
       id="path3174"
       d="m 0.34336139,197.84745 0,-11.78775"
       style="fill:none;stroke:#000000;stroke-width:1.41274369px;stroke-linecap:butt;stroke-linejoin:miter;stroke-opacity:1" />
  </g>
  <path
     style="fill:none;stroke:#000000;stroke-width:2.00000005;stroke-linecap:butt;stroke-linejoin:miter;stroke-miterlimit:4;stroke-opacity:1;stroke-dasharray:2.00000005,4.00000009;stroke-dashoffset:0"
     d="m 396.62839,370.05183 0,-60.42592"
     id="path3087"
     inkscape:path-effect="#path-effect3089"
     inkscape:original-d="m 396.62839,370.05183 0,-60.42592"
     inkscape:connector-curvature="0"
     sodipodi:nodetypes="cc" />
</svg>
