<?xml version="1.0" encoding="UTF-8" standalone="no"?>
<svg
   xmlns:dc="http://purl.org/dc/elements/1.1/"
   xmlns:cc="http://creativecommons.org/ns#"
   xmlns:rdf="http://www.w3.org/1999/02/22-rdf-syntax-ns#"
   xmlns:svg="http://www.w3.org/2000/svg"
   xmlns="http://www.w3.org/2000/svg"
   xmlns:xlink="http://www.w3.org/1999/xlink"
   xmlns:sodipodi="http://sodipodi.sourceforge.net/DTD/sodipodi-0.dtd"
   xmlns:inkscape="http://www.inkscape.org/namespaces/inkscape"
   viewBox="0 0 576 432"
   id="svg2"
   version="1.1"
   inkscape:version="0.48.4 r9939"
   width="100%"
   height="100%"
   sodipodi:docname="entropy_N_s_limits_fulldh_pb.svg">
  <metadata
     id="metadata383">
    <rdf:RDF>
      <cc:Work
         rdf:about="">
        <dc:format>image/svg+xml</dc:format>
        <dc:type
           rdf:resource="http://purl.org/dc/dcmitype/StillImage" />
        <dc:title>Gnuplot</dc:title>
      </cc:Work>
    </rdf:RDF>
  </metadata>
  <defs
     id="defs381">
    <defs
       id="defs11">
      <circle
         stroke-width="0.5"
         r="0.5"
         id="gpDot" />
      <path
         d="M-1,0 h2 M0,-1 v2"
         stroke="currentColor"
         stroke-width="0.333"
         id="gpPt0" />
      <path
         d="M-1,-1 L1,1 M1,-1 L-1,1"
         stroke="currentColor"
         stroke-width="0.333"
         id="gpPt1" />
      <path
         d="M-1,0 L1,0 M0,-1 L0,1 M-1,-1 L1,1 M-1,1 L1,-1"
         stroke="currentColor"
         stroke-width="0.333"
         id="gpPt2" />
      <rect
         height="2"
         width="2"
         y="-1"
         x="-1"
         stroke="currentColor"
         stroke-width="0.333"
         id="gpPt3" />
      <rect
         height="2"
         width="2"
         y="-1"
         x="-1"
         fill="currentColor"
         stroke="currentColor"
         stroke-width="0.333"
         id="gpPt4" />
      <circle
         r="1"
         cy="0"
         cx="0"
         stroke="currentColor"
         stroke-width="0.333"
         id="gpPt5" />
      <use
         stroke="none"
         fill="currentColor"
         id="gpPt6"
         xlink:href="#gpPt5" />
      <path
         d="M0,-1.33 L-1.33,0.67 L1.33,0.67 z"
         stroke="currentColor"
         stroke-width="0.333"
         id="gpPt7" />
      <use
         stroke="none"
         fill="currentColor"
         id="gpPt8"
         xlink:href="#gpPt7" />
      <use
         transform="rotate(180)"
         stroke="currentColor"
         id="gpPt9"
         xlink:href="#gpPt7" />
      <use
         stroke="none"
         fill="currentColor"
         id="gpPt10"
         xlink:href="#gpPt9" />
      <use
         transform="rotate(45)"
         stroke="currentColor"
         id="gpPt11"
         xlink:href="#gpPt3" />
      <use
         stroke="none"
         fill="currentColor"
         id="gpPt12"
         xlink:href="#gpPt11" />
    </defs>
  </defs>
  <sodipodi:namedview
     pagecolor="#ffffff"
     bordercolor="#666666"
     borderopacity="1"
     objecttolerance="10"
     gridtolerance="10"
     guidetolerance="10"
     inkscape:pageopacity="0"
     inkscape:pageshadow="2"
     inkscape:window-width="1228"
     inkscape:window-height="743"
     id="namedview379"
     showgrid="false"
     inkscape:zoom="1.3047019"
     inkscape:cx="288"
     inkscape:cy="216"
     inkscape:window-x="45"
     inkscape:window-y="21"
     inkscape:window-maximized="0"
     inkscape:current-layer="svg2" />
  <title
     id="title4">Gnuplot</title>
  <desc
     id="desc6">Produced by GNUPLOT 4.6 patchlevel 1 </desc>
  <path
     style="color:#ff0000;fill:none;stroke:#000000;stroke-width:2;stroke-linecap:butt;stroke-linejoin:miter;stroke-miterlimit:4;stroke-dasharray:8, 4, 2, 4;stroke-dashoffset:0;stroke-opacity:1"
     inkscape:connector-curvature="0"
     id="path375"
     d="m 75.4,374.4 1.4,0 1.5,0 1.5,0 1.5,0 1.5,0 1.5,0 1.5,0 1.5,-0.1 1.5,0 1.5,0 1.5,0 1.4,0 1.5,0 1.5,0 1.5,0 1.5,0 1.5,0 1.5,0 1.5,0 1.5,0 1.5,-0.1 1.5,0 1.4,-0.1 1.5,0 1.5,-0.1 1.5,-0.2 1.5,-0.2 1.5,-0.2 1.5,-0.3 1.5,-0.4 1.5,-0.4 1.5,-0.6 1.5,-0.7 1.4,-0.8 1.5,-0.9 1.5,-1.1 1.5,-1.2 1.5,-1.4 1.5,-1.5 1.5,-1.5 1.5,-1.7 1.5,-1.7 1.5,-1.7 1.5,-1.8 1.4,-1.7 1.5,-1.8 1.5,-1.6 1.5,-1.7 1.5,-1.5 1.5,-1.5 1.5,-1.4 1.5,-1.4 1.5,-1.2 1.5,-1.2 1.5,-1.1 1.4,-1.1 1.5,-0.9 1.5,-0.9 1.5,-0.8 1.5,-0.8 1.5,-0.6 1.5,-0.6 1.5,-0.6 1.5,-0.4 1.5,-0.5 1.4,-0.3 1.5,-0.3 1.5,-0.3 1.5,-0.2 1.5,-0.2 1.5,-0.1 1.5,-0.1 1.5,0 1.5,0 1.5,0 1.5,0.1 1.4,0.1 1.5,0.1 1.5,0.2 1.5,0.2 1.5,0.2 1.5,0.2 1.5,0.3 1.5,0.2 1.5,0.3 1.5,0.4 1.5,0.3 1.4,0.4 1.5,0.3 1.5,0.4 1.5,0.4 1.5,0.4 1.5,0.4 1.5,0.4 1.5,0.5 1.5,0.4 1.5,0.5 1.5,0.4 1.4,0.5 1.5,0.4 1.5,0.5 1.5,0.5 1.5,0.4 1.5,0.5 1.5,0.5 1.5,0.5 1.5,0.5 1.5,0.4 1.5,0.5 1.4,0.5 1.5,0.5 1.5,0.5 1.5,0.4 1.5,0.5 1.5,0.5 1.5,0.5 1.5,0.4 1.5,0.5 1.5,0.4 1.5,0.5 1.4,0.5 1.5,0.4 1.5,0.4 1.5,0.5 1.5,0.4 1.5,0.5 1.5,0.4 1.5,0.4 1.5,0.4 1.5,0.4 1.4,0.4 1.5,0.4 1.5,0.4 1.5,0.4 1.5,0.4 1.5,0.4 1.5,0.4 1.5,0.3 1.5,0.4 1.5,0.4 1.5,0.3 1.4,0.4 1.5,0.3 1.5,0.4 1.5,0.3 1.5,0.3 1.5,0.3 1.5,0.4 1.5,0.3 1.5,0.3 1.5,0.3 1.5,0.3 1.4,0.3 1.5,0.3 1.5,0.2 1.5,0.3 1.5,0.3 1.5,0.3 1.5,0.2 1.5,0.3 1.5,0.2 1.5,0.3 1.5,0.2 1.4,0.3 1.5,0.2 1.5,0.2 1.5,0.2 1.5,0.3 1.5,0.2 1.5,0.2 1.5,0.2 1.5,0.2 1.5,0.2 1.5,0.2 1.4,0.2 1.5,0.2 1.5,0.2 1.5,0.1 1.5,0.2 1.5,0.2 1.5,0.2 1.5,0.1 1.5,0.2 1.5,0.1 1.5,0.2 1.4,0.2 1.5,0.1 1.5,0.2 1.5,0.1 1.5,0.1 1.5,0.2 1.5,0.1 1.5,0.1 1.5,0.2 1.5,0.1 1.5,0.1 1.4,0.1 1.5,0.2 1.5,0.1 1.5,0.1 1.5,0.1 1.5,0.1 1.5,0.1 1.5,0.1 1.5,0.1 1.5,0.1 1.4,0.1 1.5,0.1 1.5,0.1 1.5,0.1 1.5,0.1 1.5,0 1.5,0.1 1.5,0.1 1.5,0.1 1.5,0.1 1.5,0 1.4,0.1 1.5,0.1 1.5,0.1 1.5,0 1.5,0.1 1.5,0.1 1.5,0 1.5,0.1 1.5,0.1 1.5,0 1.5,0.1 1.4,0 1.5,0.1 1.5,0.1 1.5,0 1.5,0.1 1.5,0 1.5,0.1 1.5,0 1.5,0.1 1.5,0 1.5,0 1.4,0.1 1.5,0 1.5,0.1 1.5,0 1.5,0.1 1.5,0 1.5,0 1.5,0.1 1.5,0 1.5,0 1.5,0.1 1.4,0 1.5,0 1.5,0.1 1.5,0 1.5,0 1.5,0.1 1.5,0 1.5,0 1.5,0.1 1.5,0 1.5,0 1.4,0 1.5,0.1 1.5,0 1.5,0 1.5,0 1.5,0.1 1.5,0 1.5,0 1.5,0 1.5,0 1.4,0.1 1.5,0 1.5,0 1.5,0 1.5,0 1.5,0.1 1.5,0 1.5,0 1.5,0 1.5,0 1.5,0 1.4,0.1 1.5,0 1.5,0 1.5,0 1.5,0 1.5,0 1.5,0 1.5,0.1 1.5,0 1.5,0 1.5,0 1.4,0 1.5,0 1.5,0 1.5,0 1.5,0 1.5,0.1 h 0.01" />
  <path
     style="color:#ff0000;fill:none;stroke:#000000;stroke-width:2;stroke-linecap:butt;stroke-linejoin:miter;stroke-miterlimit:4;stroke-dasharray:6,6;stroke-opacity:1;stroke-dashoffset:0"
     inkscape:connector-curvature="0"
     id="path368"
     d="m 75.4,374.4 1.4,0 1.5,0 1.5,0 1.5,0 1.5,0 1.5,0 1.5,0 1.5,0 1.5,-0.1 1.5,0 1.5,0 1.4,0 1.5,0 1.5,0 1.5,0 1.5,0 1.5,0 1.5,-0.1 1.5,0 1.5,-0.1 1.5,0 1.5,-0.1 1.4,-0.2 1.5,-0.1 1.5,-0.2 1.5,-0.2 1.5,-0.3 1.5,-0.3 1.5,-0.4 1.5,-0.5 1.5,-0.6 1.5,-0.7 1.5,-0.7 1.4,-0.9 1.5,-1 1.5,-1.1 1.5,-1.3 1.5,-1.3 1.5,-1.4 1.5,-1.5 1.5,-1.5 1.5,-1.6 1.5,-1.6 1.5,-1.7 1.4,-1.6 1.5,-1.6 1.5,-1.6 1.5,-1.5 1.5,-1.5 1.5,-1.5 1.5,-1.3 1.5,-1.3 1.5,-1.3 1.5,-1.1 1.5,-1.1 1.4,-1 1.5,-1 1.5,-0.8 1.5,-0.8 1.5,-0.8 1.5,-0.6 1.5,-0.6 1.5,-0.6 1.5,-0.4 1.5,-0.5 1.4,-0.3 1.5,-0.3 1.5,-0.3 1.5,-0.2 1.5,-0.2 1.5,-0.1 1.5,-0.1 1.5,0 1.5,0 1.5,0 1.5,0.1 1.4,0.1 1.5,0.1 1.5,0.2 1.5,0.2 1.5,0.2 1.5,0.2 1.5,0.3 1.5,0.2 1.5,0.3 1.5,0.4 1.5,0.3 1.4,0.4 1.5,0.3 1.5,0.4 1.5,0.4 1.5,0.4 1.5,0.4 1.5,0.4 1.5,0.5 1.5,0.4 1.5,0.5 1.5,0.4 1.4,0.5 1.5,0.4 1.5,0.5 1.5,0.5 1.5,0.4 1.5,0.5 1.5,0.5 1.5,0.5 1.5,0.5 1.5,0.4 1.5,0.5 1.4,0.5 1.5,0.5 1.5,0.5 1.5,0.4 1.5,0.5 1.5,0.5 1.5,0.5 1.5,0.4 1.5,0.5 1.5,0.4 1.5,0.5 1.4,0.5 1.5,0.4 1.5,0.4 1.5,0.5 1.5,0.4 1.5,0.5 1.5,0.4 1.5,0.4 1.5,0.4 1.5,0.4 1.4,0.4 1.5,0.4 1.5,0.4 1.5,0.4 1.5,0.4 1.5,0.4 1.5,0.4 1.5,0.3 1.5,0.4 1.5,0.4 1.5,0.3 1.4,0.4 1.5,0.3 1.5,0.4 1.5,0.3 1.5,0.3 1.5,0.3 1.5,0.4 1.5,0.3 1.5,0.3 1.5,0.3 1.5,0.3 1.4,0.3 1.5,0.3 1.5,0.2 1.5,0.3 1.5,0.3 1.5,0.3 1.5,0.2 1.5,0.3 1.5,0.2 1.5,0.3 1.5,0.2 1.4,0.3 1.5,0.2 1.5,0.2 1.5,0.2 1.5,0.3 1.5,0.2 1.5,0.2 1.5,0.2 1.5,0.2 1.5,0.2 1.5,0.2 1.4,0.2 1.5,0.2 1.5,0.2 1.5,0.1 1.5,0.2 1.5,0.2 1.5,0.2 1.5,0.1 1.5,0.2 1.5,0.1 1.5,0.2 1.4,0.2 1.5,0.1 1.5,0.2 1.5,0.1 1.5,0.1 1.5,0.2 1.5,0.1 1.5,0.1 1.5,0.2 1.5,0.1 1.5,0.1 1.4,0.1 1.5,0.2 1.5,0.1 1.5,0.1 1.5,0.1 1.5,0.1 1.5,0.1 1.5,0.1 1.5,0.1 1.5,0.1 1.4,0.1 1.5,0.1 1.5,0.1 1.5,0.1 1.5,0.1 1.5,0 1.5,0.1 1.5,0.1 1.5,0.1 1.5,0.1 1.5,0 1.4,0.1 1.5,0.1 1.5,0.1 1.5,0 1.5,0.1 1.5,0.1 1.5,0 1.5,0.1 1.5,0.1 1.5,0 1.5,0.1 1.4,0 1.5,0.1 1.5,0.1 1.5,0 1.5,0.1 1.5,0 1.5,0.1 1.5,0 1.5,0.1 1.5,0 1.5,0 1.4,0.1 1.5,0 1.5,0.1 1.5,0 1.5,0.1 1.5,0 1.5,0 1.5,0.1 1.5,0 1.5,0 1.5,0.1 1.4,0 1.5,0 1.5,0.1 1.5,0 1.5,0 1.5,0.1 1.5,0 1.5,0 1.5,0.1 1.5,0 1.5,0 1.4,0 1.5,0.1 1.5,0 1.5,0 1.5,0 1.5,0.1 1.5,0 1.5,0 1.5,0 1.5,0 1.4,0.1 1.5,0 1.5,0 1.5,0 1.5,0 1.5,0.1 1.5,0 1.5,0 1.5,0 1.5,0 1.5,0 1.4,0.1 1.5,0 1.5,0 1.5,0 1.5,0 1.5,0 1.5,0 1.5,0.1 1.5,0 1.5,0 1.5,0 1.4,0 1.5,0 1.5,0 1.5,0 1.5,0 1.5,0.1 h 0.01" />
  <rect
     style="fill:none"
     id="rect9"
     height="432"
     width="576"
     y="0"
     x="0" />
  <g
     id="g27"
     style="color:#ffffff;fill:none;stroke:currentColor;stroke-width:1;stroke-linecap:butt;stroke-linejoin:miter" />
  <g
     id="g29"
     style="color:#ffffff;fill:none;stroke:currentColor;stroke-width:0.5;stroke-linecap:butt;stroke-linejoin:miter" />
  <g
     id="g31"
     style="color:#000000;fill:none;stroke:currentColor;stroke-width:0.5;stroke-linecap:butt;stroke-linejoin:miter">
    <path
       inkscape:connector-curvature="0"
       id="path33"
       d="m 74.8,266.2 8.4,0 m 437.9,0 -8.4,0 h 0.01" />
    <g
       id="g35"
       style="font-size:12.5px;text-anchor:end;fill:#000000;stroke:none"
       transform="translate(69.2,269.2)">
      <text
         id="text37">
        <tspan
           id="tspan39">0</tspan>
      </text>
    </g>
    <path
       inkscape:connector-curvature="0"
       id="path41"
       d="m 74.8,207.8 8.4,0 m 437.9,0 -8.4,0 h 0.01"
       style="stroke-width:1.5;stroke-miterlimit:4;stroke-dasharray:none" />
    <g
       id="g43"
       style="font-size:12.5px;text-anchor:end;fill:#000000;stroke:none"
       transform="translate(69.2,210.8)">
      <text
         id="text45">
        <tspan
           id="tspan47">5</tspan>
      </text>
    </g>
    <path
       inkscape:connector-curvature="0"
       id="path49"
       d="m 74.8,149.3 8.4,0 m 437.9,0 -8.4,0 h 0.01"
       style="stroke-width:1.5;stroke-miterlimit:4;stroke-dasharray:none" />
    <g
       id="g51"
       style="font-size:12.5px;text-anchor:end;fill:#000000;stroke:none"
       transform="translate(69.2,152.3)">
      <text
         id="text53">
        <tspan
           id="tspan55">10</tspan>
      </text>
    </g>
    <path
       inkscape:connector-curvature="0"
       id="path57"
       d="m 74.8,90.9 8.4,0 m 437.9,0 -8.4,0 h 0.01"
       style="stroke-width:1.5;stroke-miterlimit:4;stroke-dasharray:none" />
    <g
       id="g59"
       style="font-size:12.5px;text-anchor:end;fill:#000000;stroke:none"
       transform="translate(69.2,93.9)">
      <text
         id="text61">
        <tspan
           id="tspan63">15</tspan>
      </text>
    </g>
    <path
       inkscape:connector-curvature="0"
       id="path65"
       d="m 74.8,32.5 8.4,0 m 437.9,0 -8.4,0 h 0.01" />
    <g
       id="g67"
       style="font-size:12.5px;text-anchor:end;fill:#000000;stroke:none"
       transform="translate(69.2,35.5)">
      <text
         id="text69">
        <tspan
           id="tspan71">20</tspan>
      </text>
    </g>
    <path
       inkscape:connector-curvature="0"
       id="path73"
       d="m 74.8,266.2 0,-8.4 m 0,-225.3 0,8.4 h 0.01" />
    <g
       id="g75"
       style="font-size:12.5px;text-anchor:middle;fill:#000000;stroke:none"
       transform="translate(74.8,281.2)">
      <text
         id="text77">
        <tspan
           id="tspan79">0</tspan>
      </text>
    </g>
    <path
       inkscape:connector-curvature="0"
       id="path81"
       d="m 130.6,266.2 0,-8.4 m 0,-225.3 0,8.4 h 0.01"
       style="stroke-width:1.5;stroke-miterlimit:4;stroke-dasharray:none" />
    <g
       id="g83"
       style="font-size:12.5px;text-anchor:middle;fill:#000000;stroke:none"
       transform="translate(130.6,281.2)">
      <text
         id="text85">
        <tspan
           id="tspan87">1</tspan>
      </text>
    </g>
    <path
       inkscape:connector-curvature="0"
       id="path89"
       d="m 186.4,266.2 0,-8.4 m 0,-225.3 0,8.4 h 0.01"
       style="stroke-width:1.5;stroke-miterlimit:4;stroke-dasharray:none" />
    <g
       id="g91"
       style="font-size:12.5px;text-anchor:middle;fill:#000000;stroke:none"
       transform="translate(186.4,281.2)">
      <text
         id="text93">
        <tspan
           id="tspan95">2</tspan>
      </text>
    </g>
    <path
       inkscape:connector-curvature="0"
       id="path97"
       d="m 242.2,266.2 0,-8.4 m 0,-225.3 0,8.4 h 0.01"
       style="stroke-width:1.5;stroke-miterlimit:4;stroke-dasharray:none" />
    <g
       id="g99"
       style="font-size:12.5px;text-anchor:middle;fill:#000000;stroke:none"
       transform="translate(242.2,281.2)">
      <text
         id="text101">
        <tspan
           id="tspan103">3</tspan>
      </text>
    </g>
    <path
       inkscape:connector-curvature="0"
       id="path105"
       d="m 298,266.2 0,-8.4 m 0,-225.3 0,8.4 h 0.01"
       style="stroke-width:1.5;stroke-miterlimit:4;stroke-dasharray:none" />
    <g
       id="g107"
       style="font-size:12.5px;text-anchor:middle;fill:#000000;stroke:none"
       transform="translate(298,281.2)">
      <text
         id="text109">
        <tspan
           id="tspan111">4</tspan>
      </text>
    </g>
    <path
       inkscape:connector-curvature="0"
       id="path113"
       d="m 353.7,266.2 0,-8.4 m 0,-225.3 0,8.4 h 0.01"
       style="stroke-width:1.5;stroke-miterlimit:4;stroke-dasharray:none" />
    <g
       id="g115"
       style="font-size:12.5px;text-anchor:middle;fill:#000000;stroke:none"
       transform="translate(353.7,281.2)">
      <text
         id="text117">
        <tspan
           id="tspan119">5</tspan>
      </text>
    </g>
    <path
       inkscape:connector-curvature="0"
       id="path121"
       d="m 409.5,266.2 0,-8.4 m 0,-225.3 0,8.4 h 0.01"
       style="stroke-width:1.5;stroke-miterlimit:4;stroke-dasharray:none" />
    <g
       id="g123"
       style="font-size:12.5px;text-anchor:middle;fill:#000000;stroke:none"
       transform="translate(409.5,281.2)">
      <text
         id="text125">
        <tspan
           id="tspan127">6</tspan>
      </text>
    </g>
    <path
       inkscape:connector-curvature="0"
       id="path129"
       d="m 465.3,266.2 0,-8.4 m 0,-225.3 0,8.4 h 0.01"
       style="stroke-width:1.5;stroke-miterlimit:4;stroke-dasharray:none" />
    <g
       id="g131"
       style="font-size:12.5px;text-anchor:middle;fill:#000000;stroke:none"
       transform="translate(465.3,281.2)">
      <text
         id="text133">
        <tspan
           id="tspan135">7</tspan>
      </text>
    </g>
    <path
       inkscape:connector-curvature="0"
       id="path137"
       d="m 521.1,266.2 0,-8.4 m 0,-225.3 0,8.4 h 0.01" />
    <g
       id="g139"
       style="font-size:12.5px;text-anchor:middle;fill:#000000;stroke:none"
       transform="translate(521.1,281.2)">
      <text
         id="text141">
        <tspan
           id="tspan143">8</tspan>
      </text>
    </g>
    <path
       inkscape:connector-curvature="0"
       id="path145"
       d="m 74.8,32.5 0,233.7 446.3,0 0,-233.7 -446.3,0 z m 0,0 h 0.01"
       style="stroke-width:1.5;stroke-miterlimit:4;stroke-dasharray:none" />
    <g
       id="g147"
       style="font-size:12.5px;text-anchor:middle;fill:#000000;stroke:none"
       transform="matrix(0,-1,1,0,49.4,149.4)">
      <text
         id="text149"
         y="-2.2886598"
         style="font-size:22.68194962px">
        <tspan
           id="tspan151">H</tspan>
      </text>
    </g>
  </g>
  <g
     id="gnuplot_plot_1a">
    <title
       id="title154">gnuplot_plot_1a</title>
    <g
       id="g156"
       style="color:#ff0000;fill:none;stroke:currentColor;stroke-width:0.5;stroke-linecap:butt;stroke-linejoin:miter">
      <g
         id="g158"
         style="font-size:12.5px;text-anchor:end;fill:#000000;stroke:none"
         transform="translate(475.9,47.5)">
        <text
           id="text160"
           y="42">
          <tspan
             id="tspan162">N=1E3</tspan>
        </text>
      </g>
      <path
         style="stroke:#000000;stroke-width:2;stroke-miterlimit:4;stroke-dasharray:none"
         d="m 481.5,86.5 28.4,0"
         id="path4380"
         inkscape:connector-curvature="0" />
      <path
         style="stroke:#000000;stroke-width:2;stroke-miterlimit:4;stroke-dasharray:none"
         d="m 75.4,149.8 1.4,0 1.5,0 1.5,0 1.5,0.1 1.5,0.1 1.5,0 1.5,0.2 1.5,0.1 1.5,0.2 1.5,0.2 1.5,0.2 1.4,0.2 1.5,0.3 1.5,0.4 1.5,0.4 1.5,0.4 1.5,0.5 1.5,0.5 1.5,0.6 1.5,0.7 1.5,0.7 1.5,0.8 1.4,0.9 1.5,0.9 1.5,1.1 1.5,1.1 1.5,1.2 1.5,1.3 1.5,1.5 1.5,1.4 1.5,1.6 1.5,1.7 1.5,1.7 1.4,1.9 1.5,1.9 1.5,2 1.5,2 1.5,2.1 1.5,2.1 1.5,2.2 1.5,2.2 1.5,2.2 1.5,2.2 1.5,2.2 1.4,2.2 1.5,2.1 1.5,2.2 1.5,2.1 1.5,2.1 1.5,2 1.5,1.9 1.5,2 1.5,1.8 1.5,1.8 1.5,1.8 1.4,1.6 1.5,1.7 1.5,1.5 1.5,1.5 1.5,1.5 1.5,1.3 1.5,1.4 1.5,1.2 1.5,1.2 1.5,1.2 1.4,1.1 1.5,1.1 1.5,1 1.5,1 1.5,1 1.5,0.9 1.5,0.8 1.5,0.9 1.5,0.8 1.5,0.7 1.5,0.8 1.4,0.7 1.5,0.7 1.5,0.6 1.5,0.7 1.5,0.6 1.5,0.5 1.5,0.6 1.5,0.6 1.5,0.5 1.5,0.5 1.5,0.5 1.4,0.5 1.5,0.4 1.5,0.5 1.5,0.4 1.5,0.4 1.5,0.4 1.5,0.4 1.5,0.4 1.5,0.3 1.5,0.4 1.5,0.3 1.4,0.4 1.5,0.3 1.5,0.3 1.5,0.3 1.5,0.3 1.5,0.3 1.5,0.3 1.5,0.3 1.5,0.2 1.5,0.3 1.5,0.3 1.4,0.2 1.5,0.3 1.5,0.2 1.5,0.2 1.5,0.2 1.5,0.3 1.5,0.2 1.5,0.2 1.5,0.2 1.5,0.2 1.5,0.2 1.4,0.2 1.5,0.1 1.5,0.2 1.5,0.2 1.5,0.2 1.5,0.1 1.5,0.2 1.5,0.2 1.5,0.1 1.5,0.2 1.4,0.1 1.5,0.2 1.5,0.1 1.5,0.1 1.5,0.2 1.5,0.1 1.5,0.1 1.5,0.2 1.5,0.1 1.5,0.1 1.5,0.1 1.4,0.2 1.5,0.1 1.5,0.1 1.5,0.1 1.5,0.1 1.5,0.1 1.5,0.1 1.5,0.1 1.5,0.1 1.5,0.1 1.5,0.1 1.4,0.1 1.5,0.1 1.5,0.1 1.5,0.1 1.5,0.1 1.5,0 1.5,0.1 1.5,0.1 1.5,0.1 1.5,0.1 1.5,0 1.4,0.1 1.5,0.1 1.5,0.1 1.5,0 1.5,0.1 1.5,0.1 1.5,0 1.5,0.1 1.5,0.1 1.5,0 1.5,0.1 1.4,0.1 1.5,0 1.5,0.1 1.5,0 1.5,0.1 1.5,0.1 1.5,0 1.5,0.1 1.5,0 1.5,0.1 1.5,0 1.4,0.1 1.5,0 1.5,0.1 1.5,0 1.5,0.1 1.5,0 1.5,0.1 1.5,0 1.5,0 1.5,0.1 1.5,0 1.4,0.1 1.5,0 1.5,0 1.5,0.1 1.5,0 1.5,0.1 1.5,0 1.5,0 1.5,0.1 1.5,0 1.4,0 1.5,0.1 1.5,0 1.5,0 1.5,0.1 1.5,0 1.5,0 1.5,0.1 1.5,0 1.5,0 1.5,0.1 1.4,0 1.5,0 1.5,0 1.5,0.1 1.5,0 1.5,0 1.5,0 1.5,0.1 1.5,0 1.5,0 1.5,0 1.4,0.1 1.5,0 1.5,0 1.5,0 1.5,0.1 1.5,0 1.5,0 1.5,0 1.5,0 1.5,0.1 1.5,0 1.4,0 1.5,0 1.5,0 1.5,0.1 1.5,0 1.5,0 1.5,0 1.5,0 1.5,0.1 1.5,0 1.5,0 1.4,0 1.5,0 1.5,0 1.5,0.1 1.5,0 1.5,0 1.5,0 1.5,0 1.5,0 1.5,0 1.5,0.1 1.4,0 1.5,0 1.5,0 1.5,0 1.5,0 1.5,0 1.5,0 1.5,0.1 1.5,0 1.5,0 1.4,0 1.5,0 1.5,0 1.5,0 1.5,0 1.5,0 1.5,0.1 1.5,0 1.5,0 1.5,0 1.5,0 1.4,0 1.5,0 1.5,0 1.5,0 1.5,0 1.5,0.1 1.5,0 1.5,0 1.5,0 1.5,0 1.5,0 1.4,0 1.5,0 1.5,0 1.5,0 1.5,0 1.5,0 h 0.01"
         id="path164" />
    </g>
  </g>
  <g
     id="gnuplot_plot_2a">
    <title
       id="title167">gnuplot_plot_2a</title>
    <g
       id="g169"
       style="color:#ff0000;fill:none;stroke:currentColor;stroke-width:0.5;stroke-linecap:butt;stroke-linejoin:miter">
      <g
         id="g171"
         style="font-size:12.5px;text-anchor:end;fill:#000000;stroke:none"
         transform="translate(475.9,59.5)">
        <text
           id="text173"
           y="18">
          <tspan
             id="tspan175">N=1E4</tspan>
        </text>
      </g>
      <path
         style="stroke:#000000;stroke-width:2;stroke-miterlimit:4;stroke-dasharray:2, 2;stroke-dashoffset:0;stroke-opacity:1"
         d="m 481.5,74.5 28.4,0"
         id="path4384"
         inkscape:connector-curvature="0" />
      <path
         style="stroke:#000000;stroke-width:2;stroke-miterlimit:4;stroke-dasharray:2, 2;stroke-dashoffset:0;stroke-opacity:1"
         d="m 75.4,110.9 1.4,0 1.5,0.1 1.5,0 1.5,0.1 1.5,0 1.5,0.1 1.5,0.2 1.5,0.1 1.5,0.2 1.5,0.2 1.5,0.2 1.4,0.3 1.5,0.4 1.5,0.4 1.5,0.4 1.5,0.5 1.5,0.6 1.5,0.7 1.5,0.7 1.5,0.9 1.5,0.9 1.5,1.1 1.4,1.2 1.5,1.4 1.5,1.5 1.5,1.6 1.5,1.9 1.5,2 1.5,2.2 1.5,2.4 1.5,2.5 1.5,2.8 1.5,2.9 1.4,3.1 1.5,3.3 1.5,3.3 1.5,3.5 1.5,3.6 1.5,3.7 1.5,3.7 1.5,3.7 1.5,3.7 1.5,3.7 1.5,3.6 1.4,3.5 1.5,3.4 1.5,3.3 1.5,3.2 1.5,3.1 1.5,2.9 1.5,2.8 1.5,2.7 1.5,2.5 1.5,2.4 1.5,2.3 1.4,2.1 1.5,2 1.5,2 1.5,1.8 1.5,1.7 1.5,1.6 1.5,1.5 1.5,1.4 1.5,1.4 1.5,1.3 1.4,1.2 1.5,1.2 1.5,1.1 1.5,1.1 1.5,1 1.5,0.9 1.5,0.9 1.5,0.9 1.5,0.8 1.5,0.8 1.5,0.8 1.4,0.7 1.5,0.7 1.5,0.7 1.5,0.6 1.5,0.6 1.5,0.6 1.5,0.6 1.5,0.5 1.5,0.6 1.5,0.5 1.5,0.5 1.4,0.4 1.5,0.5 1.5,0.5 1.5,0.4 1.5,0.4 1.5,0.4 1.5,0.4 1.5,0.4 1.5,0.3 1.5,0.4 1.5,0.3 1.4,0.4 1.5,0.3 1.5,0.3 1.5,0.3 1.5,0.3 1.5,0.3 1.5,0.3 1.5,0.3 1.5,0.2 1.5,0.3 1.5,0.3 1.4,0.2 1.5,0.3 1.5,0.2 1.5,0.2 1.5,0.2 1.5,0.3 1.5,0.2 1.5,0.2 1.5,0.2 1.5,0.2 1.5,0.2 1.4,0.2 1.5,0.1 1.5,0.2 1.5,0.2 1.5,0.2 1.5,0.1 1.5,0.2 1.5,0.2 1.5,0.1 1.5,0.2 1.4,0.1 1.5,0.2 1.5,0.1 1.5,0.1 1.5,0.2 1.5,0.1 1.5,0.1 1.5,0.2 1.5,0.1 1.5,0.1 1.5,0.1 1.4,0.2 1.5,0.1 1.5,0.1 1.5,0.1 1.5,0.1 1.5,0.1 1.5,0.1 1.5,0.1 1.5,0.1 1.5,0.1 1.5,0.1 1.4,0.1 1.5,0.1 1.5,0.1 1.5,0.1 1.5,0.1 1.5,0 1.5,0.1 1.5,0.1 1.5,0.1 1.5,0.1 1.5,0 1.4,0.1 1.5,0.1 1.5,0.1 1.5,0 1.5,0.1 1.5,0.1 1.5,0 1.5,0.1 1.5,0.1 1.5,0 1.5,0.1 1.4,0.1 1.5,0 1.5,0.1 1.5,0 1.5,0.1 1.5,0.1 1.5,0 1.5,0.1 1.5,0 1.5,0.1 1.5,0 1.4,0.1 1.5,0 1.5,0.1 1.5,0 1.5,0.1 1.5,0 1.5,0.1 1.5,0 1.5,0 1.5,0.1 1.5,0 1.4,0.1 1.5,0 1.5,0 1.5,0.1 1.5,0 1.5,0.1 1.5,0 1.5,0 1.5,0.1 1.5,0 1.4,0 1.5,0.1 1.5,0 1.5,0 1.5,0.1 1.5,0 1.5,0 1.5,0.1 1.5,0 1.5,0 1.5,0.1 1.4,0 1.5,0 1.5,0 1.5,0.1 1.5,0 1.5,0 1.5,0 1.5,0.1 1.5,0 1.5,0 1.5,0 1.4,0.1 1.5,0 1.5,0 1.5,0 1.5,0.1 1.5,0 1.5,0 1.5,0 1.5,0 1.5,0.1 1.5,0 1.4,0 1.5,0 1.5,0 1.5,0.1 1.5,0 1.5,0 1.5,0 1.5,0 1.5,0.1 1.5,0 1.5,0 1.4,0 1.5,0 1.5,0 1.5,0.1 1.5,0 1.5,0 1.5,0 1.5,0 1.5,0 1.5,0 1.5,0.1 1.4,0 1.5,0 1.5,0 1.5,0 1.5,0 1.5,0 1.5,0 1.5,0.1 1.5,0 1.5,0 1.4,0 1.5,0 1.5,0 1.5,0 1.5,0 1.5,0 1.5,0.1 1.5,0 1.5,0 1.5,0 1.5,0 1.4,0 1.5,0 1.5,0 1.5,0 1.5,0 1.5,0.1 1.5,0 1.5,0 1.5,0 1.5,0 1.5,0 1.4,0 1.5,0 1.5,0 1.5,0 1.5,0 1.5,0 h 0.01"
         id="path177" />
    </g>
  </g>
  <g
     id="gnuplot_plot_3a">
    <title
       id="title180">gnuplot_plot_3a</title>
    <g
       id="g182"
       style="color:#ff0000;fill:none;stroke:currentColor;stroke-width:0.5;stroke-linecap:butt;stroke-linejoin:miter">
      <g
         id="g184"
         style="font-size:12.5px;text-anchor:end;fill:#000000;stroke:none"
         transform="translate(475.9,71.5)">
        <text
           id="text186"
           y="-6">
          <tspan
             id="tspan188">N=1E5</tspan>
        </text>
      </g>
      <path
         style="stroke:#000000;stroke-width:2;stroke-miterlimit:4;stroke-dasharray:6, 6;stroke-dashoffset:0;stroke-opacity:1"
         d="m 481.5,62.5 28.4,0"
         id="path4353"
         inkscape:connector-curvature="0" />
      <path
         style="stroke:#000000;stroke-width:2;stroke-miterlimit:4;stroke-dasharray:6, 6;stroke-dashoffset:0;stroke-opacity:1"
         d="m 75.4,72.1 1.4,0 1.5,0.1 1.5,0 1.5,0.1 1.5,0 1.5,0.1 1.5,0.2 1.5,0.1 1.5,0.2 1.5,0.2 c 0,0 1.000697,0.196578 1.5,0.3 0.467341,0.0968 1.4,0.3 1.4,0.3 l 1.5,0.3 1.5,0.4 1.5,0.5 1.5,0.6 1.5,0.6 1.5,0.7 1.5,0.9 1.5,0.9 1.5,1.1 1.5,1.3 1.4,1.5 1.5,1.6 1.5,1.9 1.5,2.1 1.5,2.4 1.5,2.7 1.5,3 1.5,3.3 1.5,3.7 1.5,4 1.5,4.3 1.4,4.7 1.5,4.9 1.5,5.2 1.5,5.3 1.5,5.5 1.5,5.6 1.5,5.6 1.5,5.6 1.5,5.5 1.5,5.3 1.5,5.2 1.4,4.9 1.5,4.7 1.5,4.5 1.5,4.2 1.5,4 1.5,3.7 1.5,3.4 1.5,3.2 1.5,3 1.5,2.8 1.5,2.6 1.4,2.4 1.5,2.3 1.5,2.1 1.5,1.9 1.5,1.9 1.5,1.7 1.5,1.6 1.5,1.5 1.5,1.4 1.5,1.3 1.4,1.3 1.5,1.2 1.5,1.1 1.5,1.1 1.5,1 1.5,1 1.5,0.9 1.5,0.9 1.5,0.8 1.5,0.8 1.5,0.8 1.4,0.7 1.5,0.7 1.5,0.7 1.5,0.6 1.5,0.6 1.5,0.6 1.5,0.6 1.5,0.5 1.5,0.6 1.5,0.5 1.5,0.5 1.4,0.4 1.5,0.5 1.5,0.5 1.5,0.4 1.5,0.4 1.5,0.4 1.5,0.4 1.5,0.4 1.5,0.3 1.5,0.4 1.5,0.3 1.4,0.4 1.5,0.3 1.5,0.3 1.5,0.3 1.5,0.3 1.5,0.3 1.5,0.3 1.5,0.3 1.5,0.2 1.5,0.3 1.5,0.3 1.4,0.2 1.5,0.3 1.5,0.2 1.5,0.2 1.5,0.2 1.5,0.3 1.5,0.2 1.5,0.2 1.5,0.2 1.5,0.2 1.5,0.2 1.4,0.2 1.5,0.1 1.5,0.2 1.5,0.2 1.5,0.2 1.5,0.1 1.5,0.2 1.5,0.2 1.5,0.1 1.5,0.2 1.4,0.1 1.5,0.2 1.5,0.1 1.5,0.1 1.5,0.2 1.5,0.1 1.5,0.1 1.5,0.2 1.5,0.1 1.5,0.1 1.5,0.1 1.4,0.2 1.5,0.1 1.5,0.1 1.5,0.1 1.5,0.1 1.5,0.1 1.5,0.1 1.5,0.1 1.5,0.1 1.5,0.1 1.5,0.1 1.4,0.1 1.5,0.1 1.5,0.1 1.5,0.1 1.5,0.1 1.5,0 1.5,0.1 1.5,0.1 1.5,0.1 1.5,0.1 1.5,0 1.4,0.1 1.5,0.1 1.5,0.1 1.5,0 1.5,0.1 1.5,0.1 1.5,0 1.5,0.1 1.5,0.1 1.5,0 1.5,0.1 1.4,0.1 1.5,0 1.5,0.1 1.5,0 1.5,0.1 1.5,0.1 1.5,0 1.5,0.1 1.5,0 1.5,0.1 1.5,0 1.4,0.1 1.5,0 1.5,0.1 1.5,0 1.5,0.1 1.5,0 1.5,0.1 1.5,0 1.5,0 1.5,0.1 1.5,0 1.4,0.1 1.5,0 1.5,0 1.5,0.1 1.5,0 1.5,0.1 1.5,0 1.5,0 1.5,0.1 1.5,0 1.4,0 1.5,0.1 1.5,0 1.5,0 1.5,0.1 1.5,0 1.5,0 1.5,0.1 1.5,0 1.5,0 1.5,0.1 1.4,0 1.5,0 1.5,0 1.5,0.1 1.5,0 1.5,0 1.5,0 1.5,0.1 1.5,0 1.5,0 1.5,0 1.4,0.1 1.5,0 1.5,0 1.5,0 1.5,0.1 1.5,0 1.5,0 1.5,0 1.5,0 1.5,0.1 1.5,0 1.4,0 1.5,0 1.5,0 1.5,0.1 1.5,0 1.5,0 1.5,0 1.5,0 1.5,0.1 1.5,0 1.5,0 1.4,0 1.5,0 1.5,0 1.5,0.1 1.5,0 1.5,0 1.5,0 1.5,0 1.5,0 1.5,0 1.5,0.1 1.4,0 1.5,0 1.5,0 1.5,0 1.5,0 1.5,0 1.5,0 1.5,0.1 1.5,0 1.5,0 1.4,0 1.5,0 1.5,0 1.5,0 1.5,0 1.5,0 1.5,0.1 1.5,0 1.5,0 1.5,0 1.5,0 1.4,0 1.5,0 1.5,0 1.5,0 1.5,0 1.5,0.1 1.5,0 1.5,0 1.5,0 1.5,0 1.5,0 1.4,0 1.5,0 1.5,0 1.5,0 1.5,0 1.5,0 0.01,0"
         id="path190"
         inkscape:connector-curvature="0"
         sodipodi:nodetypes="cccccccccccsccccccccccccccccccccccccccccccccccccccccccccccccccccccccccccccccccccccccccccccccccccccccccccccccccccccccccccccccccccccccccccccccccccccccccccccccccccccccccccccccccccccccccccccccccccccccccccccccccccccccccccccccccccccccccccccccccccccccccccccccccccccccccccccccccccccccccccccccccccccccccccccccc" />
    </g>
  </g>
  <g
     id="gnuplot_plot_4a">
    <title
       id="title193">gnuplot_plot_4a</title>
    <g
       id="g195"
       style="color:#ff0000;fill:none;stroke:currentColor;stroke-width:0.5;stroke-linecap:butt;stroke-linejoin:miter">
      <path
         style="stroke:#000000;stroke-width:2;stroke-miterlimit:4;stroke-dasharray:8, 4, 2, 4;stroke-dashoffset:0;stroke-opacity:1"
         d="m 75.4,33.3 1.4,0 1.5,0 1.5,0.1 1.5,0 1.5,0.1 1.5,0.1 1.5,0.1 1.5,0.2 1.5,0.2 1.5,0.2 1.5,0.3 1.4,0.3 1.5,0.3 1.5,0.4 1.5,0.5 1.5,0.6 1.5,0.6 1.5,0.8 1.5,0.9 1.5,1 1.5,1.2 1.5,1.4 1.4,1.6 1.5,1.9 1.5,2.2 1.5,2.5 1.5,2.8 1.5,3.3 1.5,3.8 1.5,4.3 1.5,4.7 1.5,5.4 1.5,5.9 1.4,6.4 1.5,6.9 1.5,7.3 1.5,7.6 1.5,7.8 1.5,7.9 1.5,7.9 1.5,7.7 1.5,7.5 1.5,7.1 1.5,6.8 1.4,6.4 1.5,5.9 1.5,5.5 1.5,5.1 1.5,4.6 1.5,4.3 1.5,3.9 1.5,3.6 1.5,3.3 1.5,3 1.5,2.8 1.4,2.6 1.5,2.3 1.5,2.2 1.5,2 1.5,1.9 1.5,1.8 1.5,1.6 1.5,1.5 1.5,1.5 1.5,1.3 1.4,1.3 1.5,1.2 1.5,1.1 1.5,1.1 1.5,1 1.5,1 1.5,0.9 1.5,0.9 1.5,0.8 1.5,0.8 1.5,0.8 1.4,0.7 1.5,0.7 1.5,0.6 1.5,0.7 1.5,0.6 1.5,0.6 1.5,0.6 1.5,0.5 1.5,0.6 1.5,0.5 1.5,0.5 1.4,0.4 1.5,0.5 1.5,0.5 1.5,0.4 1.5,0.4 1.5,0.4 1.5,0.4 1.5,0.4 1.5,0.3 1.5,0.4 1.5,0.3 1.4,0.4 1.5,0.3 1.5,0.3 1.5,0.3 1.5,0.3 1.5,0.3 1.5,0.3 1.5,0.3 1.5,0.2 1.5,0.3 1.5,0.3 1.4,0.2 1.5,0.3 1.5,0.2 1.5,0.2 1.5,0.2 1.5,0.3 1.5,0.2 1.5,0.2 1.5,0.2 1.5,0.2 1.5,0.2 1.4,0.2 1.5,0.1 1.5,0.2 1.5,0.2 1.5,0.2 1.5,0.1 1.5,0.2 1.5,0.2 1.5,0.1 1.5,0.2 1.4,0.1 1.5,0.2 1.5,0.1 1.5,0.1 1.5,0.2 1.5,0.1 1.5,0.1 1.5,0.2 1.5,0.1 1.5,0.1 1.5,0.1 1.4,0.2 1.5,0.1 1.5,0.1 1.5,0.1 1.5,0.1 1.5,0.1 1.5,0.1 1.5,0.1 1.5,0.1 1.5,0.1 1.5,0.1 1.4,0.1 1.5,0.1 1.5,0.1 1.5,0.1 1.5,0.1 1.5,0 1.5,0.1 1.5,0.1 1.5,0.1 1.5,0.1 1.5,0 1.4,0.1 1.5,0.1 1.5,0.1 1.5,0 1.5,0.1 1.5,0.1 1.5,0 1.5,0.1 1.5,0.1 1.5,0 1.5,0.1 1.4,0.1 1.5,0 1.5,0.1 1.5,0 1.5,0.1 1.5,0.1 1.5,0 1.5,0.1 1.5,0 1.5,0.1 1.5,0 1.4,0.1 1.5,0 1.5,0.1 1.5,0 1.5,0.1 1.5,0 1.5,0.1 1.5,0 1.5,0 1.5,0.1 1.5,0 1.4,0.1 1.5,0 1.5,0 1.5,0.1 1.5,0 1.5,0.1 1.5,0 1.5,0 1.5,0.1 1.5,0 1.4,0 1.5,0.1 1.5,0 1.5,0 1.5,0.1 1.5,0 1.5,0 1.5,0.1 1.5,0 1.5,0 1.5,0.1 1.4,0 1.5,0 1.5,0 1.5,0.1 1.5,0 1.5,0 1.5,0 1.5,0.1 1.5,0 1.5,0 1.5,0 1.4,0.1 1.5,0 1.5,0 1.5,0 1.5,0.1 1.5,0 1.5,0 1.5,0 1.5,0 1.5,0.1 1.5,0 1.4,0 1.5,0 1.5,0 1.5,0.1 1.5,0 1.5,0 1.5,0 1.5,0 1.5,0.1 1.5,0 1.5,0 1.4,0 1.5,0 1.5,0 1.5,0.1 1.5,0 1.5,0 1.5,0 1.5,0 1.5,0 1.5,0 1.5,0.1 1.4,0 1.5,0 1.5,0 1.5,0 1.5,0 1.5,0 1.5,0 1.5,0.1 1.5,0 1.5,0 1.4,0 1.5,0 1.5,0 1.5,0 1.5,0 1.5,0 1.5,0.1 1.5,0 1.5,0 1.5,0 1.5,0 1.4,0 1.5,0 1.5,0 1.5,0 1.5,0 1.5,0.1 1.5,0 1.5,0 1.5,0 1.5,0 1.5,0 1.4,0 1.5,0 1.5,0 1.5,0 1.5,0 1.5,0 h 0.01"
         id="path203" />
      <path
         style="stroke:#000000;stroke-width:2;stroke-miterlimit:4;stroke-dasharray:8, 4, 2, 4;stroke-dashoffset:0;stroke-opacity:1"
         d="m 481.5,50.5 28.4,0"
         id="path4341"
         inkscape:connector-curvature="0" />
      <g
         id="g197"
         style="font-size:12.5px;text-anchor:end;fill:#000000;stroke:none"
         transform="translate(475.9,83.5)">
        <text
           id="text199"
           y="-30">
          <tspan
             id="tspan201">N=1E6</tspan>
        </text>
      </g>
    </g>
  </g>
  <g
     id="g205"
     style="color:#000000;fill:none;stroke:currentColor;stroke-width:0.5;stroke-linecap:butt;stroke-linejoin:miter">
    <path
       inkscape:connector-curvature="0"
       id="path207"
       d="m 74.8,384.5 8.4,0 m 437.9,0 -8.4,0 h 0.01" />
    <g
       id="g209"
       style="font-size:12.5px;text-anchor:end;fill:#000000;stroke:none"
       transform="translate(69.2,387.5)">
      <text
         id="text211">
        <tspan
           id="tspan213">-0.05</tspan>
      </text>
    </g>
    <path
       inkscape:connector-curvature="0"
       id="path215"
       d="m 74.8,374.3 8.4,0 m 437.9,0 -8.4,0 h 0.01" />
    <g
       id="g217"
       style="font-size:12.5px;text-anchor:end;fill:#000000;stroke:none"
       transform="translate(69.2,377.3)">
      <text
         id="text219">
        <tspan
           id="tspan221">0</tspan>
      </text>
    </g>
    <path
       inkscape:connector-curvature="0"
       id="path223"
       d="m 74.8,364.2 8.4,0 m 437.9,0 -8.4,0 h 0.01"
       style="stroke-width:1.5;stroke-miterlimit:4;stroke-dasharray:none" />
    <g
       id="g225"
       style="font-size:12.5px;text-anchor:end;fill:#000000;stroke:none"
       transform="translate(69.2,367.2)">
      <text
         id="text227">
        <tspan
           id="tspan229">0.05</tspan>
      </text>
    </g>
    <path
       inkscape:connector-curvature="0"
       id="path231"
       d="m 74.8,354 8.4,0 m 437.9,0 -8.4,0 h 0.01"
       style="stroke-width:1.5;stroke-miterlimit:4;stroke-dasharray:none" />
    <g
       id="g233"
       style="font-size:12.5px;text-anchor:end;fill:#000000;stroke:none"
       transform="translate(69.2,357)">
      <text
         id="text235">
        <tspan
           id="tspan237">0.1</tspan>
      </text>
    </g>
    <path
       inkscape:connector-curvature="0"
       id="path239"
       d="m 74.8,343.9 8.4,0 m 437.9,0 -8.4,0 h 0.01"
       style="stroke-width:1.5;stroke-miterlimit:4;stroke-dasharray:none" />
    <g
       id="g241"
       style="font-size:12.5px;text-anchor:end;fill:#000000;stroke:none"
       transform="translate(69.2,346.9)">
      <text
         id="text243">
        <tspan
           id="tspan245">0.15</tspan>
      </text>
    </g>
    <path
       inkscape:connector-curvature="0"
       id="path247"
       d="m 74.8,333.7 8.4,0 m 437.9,0 -8.4,0 h 0.01"
       style="stroke-width:1.5;stroke-miterlimit:4;stroke-dasharray:none" />
    <g
       id="g249"
       style="font-size:12.5px;text-anchor:end;fill:#000000;stroke:none"
       transform="translate(69.2,336.7)">
      <text
         id="text251">
        <tspan
           id="tspan253">0.2</tspan>
      </text>
    </g>
    <path
       inkscape:connector-curvature="0"
       id="path255"
       d="m 74.8,323.6 8.4,0 m 437.9,0 -8.4,0 h 0.01" />
    <g
       id="g257"
       style="font-size:12.5px;text-anchor:end;fill:#000000;stroke:none"
       transform="translate(69.2,326.6)">
      <text
         id="text259">
        <tspan
           id="tspan261">0.25</tspan>
      </text>
    </g>
    <path
       inkscape:connector-curvature="0"
       id="path263"
       d="m 74.8,384.5 0,-8.4 m 0,-52.5 0,8.4 h 0.01" />
    <g
       id="g265"
       style="font-size:12.5px;text-anchor:middle;fill:#000000;stroke:none"
       transform="translate(74.8,399.5)">
      <text
         id="text267">
        <tspan
           id="tspan269">0</tspan>
      </text>
    </g>
    <path
       inkscape:connector-curvature="0"
       id="path271"
       d="m 130.6,384.5 0,-8.4 m 0,-52.5 0,8.4 h 0.01"
       style="stroke-width:1.5;stroke-miterlimit:4;stroke-dasharray:none" />
    <g
       id="g273"
       style="font-size:12.5px;text-anchor:middle;fill:#000000;stroke:none"
       transform="translate(130.6,399.5)">
      <text
         id="text275">
        <tspan
           id="tspan277">1</tspan>
      </text>
    </g>
    <path
       inkscape:connector-curvature="0"
       id="path279"
       d="m 186.4,384.5 0,-8.4 m 0,-52.5 0,8.4 h 0.01"
       style="stroke-width:1.5;stroke-miterlimit:4;stroke-dasharray:none" />
    <g
       id="g281"
       style="font-size:12.5px;text-anchor:middle;fill:#000000;stroke:none"
       transform="translate(186.4,399.5)">
      <text
         id="text283">
        <tspan
           id="tspan285">2</tspan>
      </text>
    </g>
    <path
       inkscape:connector-curvature="0"
       id="path287"
       d="m 242.2,384.5 0,-8.4 m 0,-52.5 0,8.4 h 0.01"
       style="stroke-width:1.5;stroke-miterlimit:4;stroke-dasharray:none" />
    <g
       id="g289"
       style="font-size:12.5px;text-anchor:middle;fill:#000000;stroke:none"
       transform="translate(242.2,399.5)">
      <text
         id="text291">
        <tspan
           id="tspan293">3</tspan>
      </text>
    </g>
    <path
       inkscape:connector-curvature="0"
       id="path295"
       d="m 298,384.5 0,-8.4 m 0,-52.5 0,8.4 h 0.01"
       style="stroke-width:1.5;stroke-miterlimit:4;stroke-dasharray:none" />
    <g
       id="g297"
       style="font-size:12.5px;text-anchor:middle;fill:#000000;stroke:none"
       transform="translate(298,399.5)">
      <text
         id="text299">
        <tspan
           id="tspan301">4</tspan>
      </text>
    </g>
    <path
       inkscape:connector-curvature="0"
       id="path303"
       d="m 353.7,384.5 0,-8.4 m 0,-52.5 0,8.4 h 0.01"
       style="stroke-width:1.5;stroke-miterlimit:4;stroke-dasharray:none" />
    <g
       id="g305"
       style="font-size:12.5px;text-anchor:middle;fill:#000000;stroke:none"
       transform="translate(353.7,399.5)">
      <text
         id="text307">
        <tspan
           id="tspan309">5</tspan>
      </text>
    </g>
    <path
       inkscape:connector-curvature="0"
       id="path311"
       d="m 409.5,384.5 0,-8.4 m 0,-52.5 0,8.4 h 0.01"
       style="stroke-width:1.5;stroke-miterlimit:4;stroke-dasharray:none" />
    <g
       id="g313"
       style="font-size:12.5px;text-anchor:middle;fill:#000000;stroke:none"
       transform="translate(409.5,399.5)">
      <text
         id="text315">
        <tspan
           id="tspan317">6</tspan>
      </text>
    </g>
    <path
       inkscape:connector-curvature="0"
       id="path319"
       d="m 465.3,384.5 0,-8.4 m 0,-52.5 0,8.4 h 0.01"
       style="stroke-width:1.5;stroke-miterlimit:4;stroke-dasharray:none" />
    <g
       id="g321"
       style="font-size:12.5px;text-anchor:middle;fill:#000000;stroke:none"
       transform="translate(465.3,399.5)">
      <text
         id="text323">
        <tspan
           id="tspan325">7</tspan>
      </text>
    </g>
    <path
       inkscape:connector-curvature="0"
       id="path327"
       d="m 521.1,384.5 0,-8.4 m 0,-52.5 0,8.4 h 0.01" />
    <g
       id="g329"
       style="font-size:12.5px;text-anchor:middle;fill:#000000;stroke:none"
       transform="translate(521.1,399.5)">
      <text
         id="text331">
        <tspan
           id="tspan333">8</tspan>
      </text>
    </g>
    <path
       inkscape:connector-curvature="0"
       id="path335"
       d="m 74.8,323.6 0,60.9 446.3,0 0,-60.9 -446.3,0 z m 0,0 h 0.01"
       style="stroke-width:1.5;stroke-miterlimit:4;stroke-dasharray:none" />
    <g
       id="g337"
       style="font-size:12.5px;text-anchor:middle;fill:#000000;stroke:none"
       transform="matrix(0,-1,1,0,32.6,354.1)" />
    <g
       id="g343"
       style="font-size:12.5px;text-anchor:middle;fill:#000000;stroke:none"
       transform="translate(297.9,417.5)">
      <text
         id="text345"
         x="-0.02683991"
         y="5.0007019"
         style="font-size:23.49362755px">
        <tspan
           id="tspan347">s</tspan>
      </text>
    </g>
  </g>
  <g
     style="color:#ff0000;fill:none;stroke:currentColor;stroke-width:0.5;stroke-linecap:butt;stroke-linejoin:miter"
     id="g359">
    <path
       d="m 75.4,374.4 1.4,0 1.5,0 1.5,0 1.5,0 1.5,0 1.5,0 1.5,0 1.5,0 1.5,0 1.5,-0.1 1.5,0 1.4,0 1.5,0 1.5,-0.1 1.5,0 1.5,-0.1 1.5,0 1.5,-0.1 1.5,-0.1 1.5,-0.2 1.5,-0.1 1.5,-0.2 1.4,-0.2 1.5,-0.3 1.5,-0.3 1.5,-0.3 1.5,-0.5 1.5,-0.4 1.5,-0.6 1.5,-0.6 1.5,-0.7 1.5,-0.8 1.5,-0.9 1.4,-1 1.5,-1 1.5,-1.1 1.5,-1.2 1.5,-1.3 1.5,-1.3 1.5,-1.4 1.5,-1.4 1.5,-1.5 1.5,-1.5 1.5,-1.5 1.4,-1.5 1.5,-1.4 1.5,-1.5 1.5,-1.4 1.5,-1.4 1.5,-1.3 1.5,-1.3 1.5,-1.2 1.5,-1.2 1.5,-1.1 1.5,-1 1.4,-1 1.5,-0.9 1.5,-0.9 1.5,-0.7 1.5,-0.7 1.5,-0.7 1.5,-0.6 1.5,-0.5 1.5,-0.5 1.5,-0.4 1.4,-0.4 1.5,-0.3 1.5,-0.2 1.5,-0.2 1.5,-0.2 1.5,-0.1 1.5,-0.1 1.5,0 1.5,0 1.5,0 1.5,0.1 1.4,0.1 1.5,0.1 1.5,0.2 1.5,0.2 1.5,0.2 1.5,0.2 1.5,0.3 1.5,0.2 1.5,0.3 1.5,0.4 1.5,0.3 1.4,0.4 1.5,0.3 1.5,0.4 1.5,0.4 1.5,0.4 1.5,0.4 1.5,0.4 1.5,0.5 1.5,0.4 1.5,0.5 1.5,0.4 1.4,0.5 1.5,0.4 1.5,0.5 1.5,0.5 1.5,0.4 1.5,0.5 1.5,0.5 1.5,0.5 1.5,0.5 1.5,0.4 1.5,0.5 1.4,0.5 1.5,0.5 1.5,0.5 1.5,0.4 1.5,0.5 1.5,0.5 1.5,0.5 1.5,0.4 1.5,0.5 1.5,0.4 1.5,0.5 1.4,0.5 1.5,0.4 1.5,0.4 1.5,0.5 1.5,0.4 1.5,0.5 1.5,0.4 1.5,0.4 1.5,0.4 1.5,0.4 1.4,0.4 1.5,0.4 1.5,0.4 1.5,0.4 1.5,0.4 1.5,0.4 1.5,0.4 1.5,0.3 1.5,0.4 1.5,0.4 1.5,0.3 1.4,0.4 1.5,0.3 1.5,0.4 1.5,0.3 1.5,0.3 1.5,0.3 1.5,0.4 1.5,0.3 1.5,0.3 1.5,0.3 1.5,0.3 1.4,0.3 1.5,0.3 1.5,0.2 1.5,0.3 1.5,0.3 1.5,0.3 1.5,0.2 1.5,0.3 1.5,0.2 1.5,0.3 1.5,0.2 1.4,0.3 1.5,0.2 1.5,0.2 1.5,0.2 1.5,0.3 1.5,0.2 1.5,0.2 1.5,0.2 1.5,0.2 1.5,0.2 1.5,0.2 1.4,0.2 1.5,0.2 1.5,0.2 1.5,0.1 1.5,0.2 1.5,0.2 1.5,0.2 1.5,0.1 1.5,0.2 1.5,0.1 1.5,0.2 1.4,0.2 1.5,0.1 1.5,0.2 1.5,0.1 1.5,0.1 1.5,0.2 1.5,0.1 1.5,0.1 1.5,0.2 1.5,0.1 1.5,0.1 1.4,0.1 1.5,0.2 1.5,0.1 1.5,0.1 1.5,0.1 1.5,0.1 1.5,0.1 1.5,0.1 1.5,0.1 1.5,0.1 1.4,0.1 1.5,0.1 1.5,0.1 1.5,0.1 1.5,0.1 1.5,0 1.5,0.1 1.5,0.1 1.5,0.1 1.5,0.1 1.5,0 1.4,0.1 1.5,0.1 1.5,0.1 1.5,0 1.5,0.1 1.5,0.1 1.5,0 1.5,0.1 1.5,0.1 1.5,0 1.5,0.1 1.4,0 1.5,0.1 1.5,0.1 1.5,0 1.5,0.1 1.5,0 1.5,0.1 1.5,0 1.5,0.1 1.5,0 1.5,0 1.4,0.1 1.5,0 1.5,0.1 1.5,0 1.5,0.1 1.5,0 1.5,0 1.5,0.1 1.5,0 1.5,0 1.5,0.1 1.4,0 1.5,0 1.5,0.1 1.5,0 1.5,0 1.5,0.1 1.5,0 1.5,0 1.5,0.1 1.5,0 1.5,0 1.4,0 1.5,0.1 1.5,0 1.5,0 1.5,0 1.5,0.1 1.5,0 1.5,0 1.5,0 1.5,0 1.4,0.1 1.5,0 1.5,0 1.5,0 1.5,0 1.5,0.1 1.5,0 1.5,0 1.5,0 1.5,0 1.5,0 1.4,0.1 1.5,0 1.5,0 1.5,0 1.5,0 1.5,0 1.5,0 1.5,0.1 1.5,0 1.5,0 1.5,0 1.4,0 1.5,0 1.5,0 1.5,0 1.5,0 1.5,0.1 h 0.01"
       id="path361"
       inkscape:connector-curvature="0"
       style="stroke:#000000;stroke-width:2;stroke-miterlimit:4;stroke-dasharray:2, 2;stroke-dashoffset:0;stroke-opacity:1" />
  </g>
  <g
     id="g377"
     style="color:#000000;fill:none;stroke:currentColor;stroke-width:0.5;stroke-linecap:butt;stroke-linejoin:miter" />
  <path
     style="color:#ff0000;fill:none;stroke:#000000;stroke-width:2;stroke-linecap:butt;stroke-linejoin:miter;stroke-miterlimit:4;stroke-dasharray:none"
     inkscape:connector-curvature="0"
     id="path354"
     d="m 75.4,374.4 1.4,0 1.5,0 1.5,0.1 1.5,0 1.5,0 1.5,0 1.5,0 1.5,0 1.5,0 1.5,-0.1 1.5,0 1.4,-0.1 1.5,-0.1 1.5,-0.1 1.5,-0.1 1.5,-0.2 1.5,-0.1 1.5,-0.3 1.5,-0.2 1.5,-0.3 1.5,-0.3 1.5,-0.4 1.4,-0.4 1.5,-0.4 1.5,-0.5 1.5,-0.6 1.5,-0.6 1.5,-0.7 1.5,-0.7 1.5,-0.8 1.5,-0.8 1.5,-1 1.5,-0.9 1.4,-1.1 1.5,-1 1.5,-1.2 1.5,-1.2 1.5,-1.2 1.5,-1.2 1.5,-1.3 1.5,-1.3 1.5,-1.3 1.5,-1.3 1.5,-1.3 1.4,-1.3 1.5,-1.3 1.5,-1.3 1.5,-1.3 1.5,-1.2 1.5,-1.2 1.5,-1.1 1.5,-1.1 1.5,-1 1.5,-1 1.5,-1 1.4,-0.9 1.5,-0.8 1.5,-0.8 1.5,-0.7 1.5,-0.6 1.5,-0.6 1.5,-0.6 1.5,-0.5 1.5,-0.4 1.5,-0.4 1.4,-0.4 1.5,-0.2 1.5,-0.3 1.5,-0.2 1.5,-0.1 1.5,-0.2 1.5,0 1.5,-0.1 1.5,0 1.5,0.1 1.5,0.1 1.4,0.1 1.5,0.1 1.5,0.2 1.5,0.1 1.5,0.3 1.5,0.2 1.5,0.3 1.5,0.2 1.5,0.3 1.5,0.4 1.5,0.3 1.4,0.3 1.5,0.4 1.5,0.4 1.5,0.4 1.5,0.4 1.5,0.4 1.5,0.4 1.5,0.5 1.5,0.4 1.5,0.5 1.5,0.4 1.4,0.5 1.5,0.4 1.5,0.5 1.5,0.5 1.5,0.4 1.5,0.5 1.5,0.5 1.5,0.5 1.5,0.5 1.5,0.4 1.5,0.5 1.4,0.5 1.5,0.5 1.5,0.5 1.5,0.4 1.5,0.5 1.5,0.5 1.5,0.5 1.5,0.4 1.5,0.5 1.5,0.4 1.5,0.5 1.4,0.5 1.5,0.4 1.5,0.4 1.5,0.5 1.5,0.4 1.5,0.5 1.5,0.4 1.5,0.4 1.5,0.4 1.5,0.4 1.4,0.4 1.5,0.4 1.5,0.4 1.5,0.4 1.5,0.4 1.5,0.4 1.5,0.4 1.5,0.3 1.5,0.4 1.5,0.4 1.5,0.3 1.4,0.4 1.5,0.3 1.5,0.4 1.5,0.3 1.5,0.3 1.5,0.3 1.5,0.4 1.5,0.3 1.5,0.3 1.5,0.3 1.5,0.3 1.4,0.3 1.5,0.3 1.5,0.2 1.5,0.3 1.5,0.3 1.5,0.3 1.5,0.2 1.5,0.3 1.5,0.2 1.5,0.3 1.5,0.2 1.4,0.3 1.5,0.2 1.5,0.2 1.5,0.2 1.5,0.3 1.5,0.2 1.5,0.2 1.5,0.2 1.5,0.2 1.5,0.2 1.5,0.2 1.4,0.2 1.5,0.2 1.5,0.2 1.5,0.1 1.5,0.2 1.5,0.2 1.5,0.2 1.5,0.1 1.5,0.2 1.5,0.1 1.5,0.2 1.4,0.2 1.5,0.1 1.5,0.2 1.5,0.1 1.5,0.1 1.5,0.2 1.5,0.1 1.5,0.1 1.5,0.2 1.5,0.1 1.5,0.1 1.4,0.1 1.5,0.2 1.5,0.1 1.5,0.1 1.5,0.1 1.5,0.1 1.5,0.1 1.5,0.1 1.5,0.1 1.5,0.1 1.4,0.1 1.5,0.1 1.5,0.1 1.5,0.1 1.5,0.1 1.5,0 1.5,0.1 1.5,0.1 1.5,0.1 1.5,0.1 1.5,0 1.4,0.1 1.5,0.1 1.5,0.1 1.5,0 1.5,0.1 1.5,0.1 1.5,0 1.5,0.1 1.5,0.1 1.5,0 1.5,0.1 1.4,0 1.5,0.1 1.5,0.1 1.5,0 1.5,0.1 1.5,0 1.5,0.1 1.5,0 1.5,0.1 1.5,0 1.5,0 1.4,0.1 1.5,0 1.5,0.1 1.5,0 1.5,0.1 1.5,0 1.5,0 1.5,0.1 1.5,0 1.5,0 1.5,0.1 1.4,0 1.5,0 1.5,0.1 1.5,0 1.5,0 1.5,0.1 1.5,0 1.5,0 1.5,0.1 1.5,0 1.5,0 1.4,0 1.5,0.1 1.5,0 1.5,0 1.5,0 1.5,0.1 1.5,0 1.5,0 1.5,0 1.5,0 1.4,0.1 1.5,0 1.5,0 1.5,0 1.5,0 1.5,0.1 1.5,0 1.5,0 1.5,0 1.5,0 1.5,0 1.4,0.1 1.5,0 1.5,0 1.5,0 1.5,0 1.5,0 1.5,0 1.5,0.1 1.5,0 1.5,0 1.5,0 1.4,0 1.5,0 1.5,0 1.5,0 1.5,0 1.5,0.1 h 0.01" />
  <text
     x="-345.89691"
     transform="matrix(0,-1,1,0,0,0)"
     id="text149-4"
     y="34.989262"
     style="font-size:22.68194962px;text-anchor:middle;color:#000000;fill:#000000;stroke:none">
    <tspan
       id="tspan151-5">H</tspan>
  </text>
  <path
     inkscape:connector-curvature="0"
     style="fill:#000000"
     d="m 34.719639,372.82647 c -0.0687,-0.0252 -4.71177,-2.06103 -10.31788,-4.52396 l -10.19292,-4.47804 -10e-6,-0.25296 -2e-5,-0.25297 10.26434,-4.27373 c 5.64539,-2.35055 10.28844,-4.28702 10.31789,-4.30326 0.0294,-0.0163 0.0535,4.05655 0.0535,9.05065 0,8.61766 -0.006,9.07783 -0.12496,9.03427 z m -1.22755,-14.45252 c -0.45124,0.15974 -14.64195,6.02947 -14.64178,6.0563 2.2e-4,0.0281 11.81464,5.24745 14.25968,6.29955 l 0.44933,0.19334 0,-6.28649 c 0,-3.9004 -0.0255,-6.27746 -0.0672,-6.2627 z"
     id="path2161" />
</svg>
