<?xml version="1.0" encoding="UTF-8" standalone="no"?>
<svg
   xmlns:dc="http://purl.org/dc/elements/1.1/"
   xmlns:cc="http://creativecommons.org/ns#"
   xmlns:rdf="http://www.w3.org/1999/02/22-rdf-syntax-ns#"
   xmlns:svg="http://www.w3.org/2000/svg"
   xmlns="http://www.w3.org/2000/svg"
   xmlns:xlink="http://www.w3.org/1999/xlink"
   xmlns:sodipodi="http://sodipodi.sourceforge.net/DTD/sodipodi-0.dtd"
   xmlns:inkscape="http://www.inkscape.org/namespaces/inkscape"
   viewBox="0 0 591.18505 435.91459"
   id="svg3709"
   version="1.1"
   inkscape:version="0.48.4 r9939"
   width="100%"
   height="100%"
   sodipodi:docname="freq_rank_random_data_cat_pb.pdf">
  <metadata
     id="metadata4060">
    <rdf:RDF>
      <cc:Work
         rdf:about="">
        <dc:format>image/svg+xml</dc:format>
        <dc:type
           rdf:resource="http://purl.org/dc/dcmitype/StillImage" />
        <dc:title>Gnuplot</dc:title>
      </cc:Work>
    </rdf:RDF>
  </metadata>
  <defs
     id="defs4058" />
  <sodipodi:namedview
     pagecolor="#ffffff"
     bordercolor="#666666"
     borderopacity="1"
     objecttolerance="10"
     gridtolerance="10"
     guidetolerance="10"
     inkscape:pageopacity="0"
     inkscape:pageshadow="2"
     inkscape:window-width="1132"
     inkscape:window-height="749"
     id="namedview4056"
     showgrid="false"
     fit-margin-top="0"
     fit-margin-left="0"
     fit-margin-right="0"
     fit-margin-bottom="0"
     inkscape:zoom="0.93135129"
     inkscape:cx="366.81553"
     inkscape:cy="219.91459"
     inkscape:window-x="0"
     inkscape:window-y="0"
     inkscape:window-maximized="0"
     inkscape:current-layer="svg3709" />
  <title
     id="title3711">Gnuplot</title>
  <desc
     id="desc3713">Produced by GNUPLOT 4.6 patchlevel 1 </desc>
  <g
     id="gnuplot_canvas"
     transform="translate(15.185049,0)">
    <rect
       x="0"
       y="0"
       width="576"
       height="432"
       id="rect3716"
       style="fill:none" />
    <defs
       id="defs3718">
      <circle
         id="gpDot"
         r="0.5"
         cx="0"
         cy="0"
         sodipodi:cx="0"
         sodipodi:cy="0"
         sodipodi:rx="0.5"
         sodipodi:ry="0.5"
         style="stroke-width:0.5" />
      <path
         id="gpPt0"
         d="M -1,0 H 1 M 0,-1 v 2"
         inkscape:connector-curvature="0"
         style="stroke:currentColor;stroke-width:0.333" />
      <path
         id="gpPt1"
         d="M -1,-1 1,1 M 1,-1 -1,1"
         inkscape:connector-curvature="0"
         style="stroke:currentColor;stroke-width:0.333" />
      <path
         id="gpPt2"
         d="M -1,0 1,0 M 0,-1 0,1 m -1,-2 2,2 m -2,0 2,-2"
         inkscape:connector-curvature="0"
         style="stroke:currentColor;stroke-width:0.333" />
      <rect
         id="gpPt3"
         x="-1"
         y="-1"
         width="2"
         height="2"
         style="stroke:currentColor;stroke-width:0.333" />
      <rect
         id="gpPt4"
         x="-1"
         y="-1"
         width="2"
         height="2"
         style="fill:currentColor;stroke:currentColor;stroke-width:0.333" />
      <circle
         id="gpPt5"
         cx="0"
         cy="0"
         r="1"
         sodipodi:cx="0"
         sodipodi:cy="0"
         sodipodi:rx="1"
         sodipodi:ry="1"
         style="stroke:currentColor;stroke-width:0.333" />
      <use
         xlink:href="#gpPt5"
         id="gpPt6"
         style="fill:currentColor;stroke:none"
         x="0"
         y="0"
         width="576"
         height="432" />
      <path
         id="gpPt7"
         d="m 0,-1.33 -1.33,2 2.66,0 z"
         inkscape:connector-curvature="0"
         style="stroke:currentColor;stroke-width:0.333" />
      <use
         xlink:href="#gpPt7"
         id="gpPt8"
         style="fill:currentColor;stroke:none"
         x="0"
         y="0"
         width="576"
         height="432" />
      <use
         xlink:href="#gpPt7"
         id="gpPt9"
         transform="scale(-1,-1)"
         style="stroke:currentColor"
         x="0"
         y="0"
         width="576"
         height="432" />
      <use
         xlink:href="#gpPt9"
         id="gpPt10"
         style="fill:currentColor;stroke:none"
         x="0"
         y="0"
         width="576"
         height="432" />
      <use
         xlink:href="#gpPt3"
         id="gpPt11"
         transform="matrix(0.70710678,0.70710678,-0.70710678,0.70710678,0,0)"
         style="stroke:currentColor"
         x="0"
         y="0"
         width="576"
         height="432" />
      <use
         xlink:href="#gpPt11"
         id="gpPt12"
         style="fill:currentColor;stroke:none"
         x="0"
         y="0"
         width="576"
         height="432" />
    </defs>
    <g
       style="color:#ffffff;fill:none;stroke:currentColor;stroke-width:1;stroke-linecap:butt;stroke-linejoin:miter"
       id="g3734" />
    <g
       style="color:#000000;fill:none;stroke:currentColor;stroke-width:1;stroke-linecap:butt;stroke-linejoin:miter"
       id="g3736">
      <g
         style="stroke:none"
         id="g3738">
        <polygon
           points="42.8,11.4 42.8,393.6 559,393.6 559,11.4 "
           id="polygon3740"
           style="fill:#ffffff" />
      </g>
      <path
         d="m 42.8,393.6 0,-382.2 516.2,0 0,382.2 -516.2,0 h 0.01"
         id="path3742"
         inkscape:connector-curvature="0"
         style="stroke:#000000" />
    </g>
    <g
       style="color:#000000;fill:none;stroke:#000000;stroke-width:0.5;stroke-linecap:butt;stroke-linejoin:miter"
       id="g3744">
      <path
         d="m 42.8,393.6 8.4,0 m 507.9,0 -8.4,0 h 0.01"
         id="path3746"
         inkscape:connector-curvature="0" />
      <g
         transform="translate(37.2,396.6)"
         style="font-size:12.5px;text-anchor:end;fill:#000000;stroke:none"
         id="g3748">
        <text
           id="text3750">
          <tspan
             id="tspan3752">10</tspan>
          <tspan
             font-size="8.0pt"
             dy="-6.25"
             id="tspan3754"
             style="font-size:10px">-5</tspan>
          <tspan
             font-size="10.0pt"
             dy="6.25"
             id="tspan3756"
             style="font-size:12.5px" />
        </text>
      </g>
      <path
         d="m 42.8,317.1 8.4,0 m 507.9,0 -8.4,0 h 0.01"
         id="path3758"
         style="stroke-width:2;stroke-miterlimit:4;stroke-dasharray:none"
         inkscape:connector-curvature="0" />
      <g
         transform="translate(37.2,320.1)"
         style="font-size:12.5px;text-anchor:end;fill:#000000;stroke:none"
         id="g3760">
        <text
           id="text3762">
          <tspan
             id="tspan3764">10</tspan>
          <tspan
             font-size="8.0pt"
             dy="-6.25"
             id="tspan3766"
             style="font-size:10px">-4</tspan>
          <tspan
             font-size="10.0pt"
             dy="6.25"
             id="tspan3768"
             style="font-size:12.5px" />
        </text>
      </g>
      <path
         d="m 42.8,240.7 8.4,0 m 507.9,0 -8.4,0 h 0.01"
         id="path3770"
         style="stroke-width:2;stroke-miterlimit:4;stroke-dasharray:none"
         inkscape:connector-curvature="0" />
      <g
         transform="translate(37.2,243.7)"
         style="font-size:12.5px;text-anchor:end;fill:#000000;stroke:none"
         id="g3772">
        <text
           id="text3774">
          <tspan
             id="tspan3776">10</tspan>
          <tspan
             font-size="8.0pt"
             dy="-6.25"
             id="tspan3778"
             style="font-size:10px">-3</tspan>
          <tspan
             font-size="10.0pt"
             dy="6.25"
             id="tspan3780"
             style="font-size:12.5px" />
        </text>
      </g>
      <path
         d="m 42.8,164.2 8.4,0 m 507.9,0 -8.4,0 h 0.01"
         id="path3782"
         style="stroke-width:2;stroke-miterlimit:4;stroke-dasharray:none"
         inkscape:connector-curvature="0" />
      <g
         transform="translate(37.2,167.2)"
         style="font-size:12.5px;text-anchor:end;fill:#000000;stroke:none"
         id="g3784">
        <text
           id="text3786">
          <tspan
             id="tspan3788">10</tspan>
          <tspan
             font-size="8.0pt"
             dy="-6.25"
             id="tspan3790"
             style="font-size:10px">-2</tspan>
          <tspan
             font-size="10.0pt"
             dy="6.25"
             id="tspan3792"
             style="font-size:12.5px" />
        </text>
      </g>
      <path
         d="m 42.8,87.8 8.4,0 m 507.9,0 -8.4,0 h 0.01"
         id="path3794"
         style="stroke-width:2;stroke-miterlimit:4;stroke-dasharray:none"
         inkscape:connector-curvature="0" />
      <g
         transform="translate(37.2,90.8)"
         style="font-size:12.5px;text-anchor:end;fill:#000000;stroke:none"
         id="g3796">
        <text
           id="text3798">
          <tspan
             id="tspan3800">10</tspan>
          <tspan
             font-size="8.0pt"
             dy="-6.25"
             id="tspan3802"
             style="font-size:10px">-1</tspan>
          <tspan
             font-size="10.0pt"
             dy="6.25"
             id="tspan3804"
             style="font-size:12.5px" />
        </text>
      </g>
      <path
         d="m 42.8,11.3 8.4,0 m 507.9,0 -8.4,0 h 0.01"
         id="path3806"
         inkscape:connector-curvature="0" />
      <g
         transform="translate(37.2,14.3)"
         style="font-size:12.5px;text-anchor:end;fill:#000000;stroke:none"
         id="g3808">
        <text
           id="text3810">
          <tspan
             id="tspan3812">10</tspan>
          <tspan
             font-size="8.0pt"
             dy="-6.25"
             id="tspan3814"
             style="font-size:10px">0</tspan>
          <tspan
             font-size="10.0pt"
             dy="6.25"
             id="tspan3816"
             style="font-size:12.5px" />
        </text>
      </g>
      <path
         d="m 42.8,393.6 0,-8.4 m 0,-373.9 0,8.4 h 0.01"
         id="path3818"
         inkscape:connector-curvature="0" />
      <g
         transform="translate(42.8,408.6)"
         style="font-size:12.5px;text-anchor:middle;fill:#000000;stroke:none"
         id="g3820">
        <text
           id="text3822">
          <tspan
             id="tspan3824">10</tspan>
          <tspan
             font-size="8.0pt"
             dy="-6.25"
             id="tspan3826"
             style="font-size:10px">0</tspan>
          <tspan
             font-size="10.0pt"
             dy="6.25"
             id="tspan3828"
             style="font-size:12.5px" />
        </text>
      </g>
      <path
         d="m 146.1,393.6 0,-8.4 m 0,-373.9 0,8.4 h 0.01"
         id="path3830"
         style="stroke-width:2;stroke-miterlimit:4;stroke-dasharray:none"
         inkscape:connector-curvature="0" />
      <g
         transform="translate(146.1,408.6)"
         style="font-size:12.5px;text-anchor:middle;fill:#000000;stroke:none"
         id="g3832">
        <text
           id="text3834">
          <tspan
             id="tspan3836">10</tspan>
          <tspan
             font-size="8.0pt"
             dy="-6.25"
             id="tspan3838"
             style="font-size:10px">1</tspan>
          <tspan
             font-size="10.0pt"
             dy="6.25"
             id="tspan3840"
             style="font-size:12.5px" />
        </text>
      </g>
      <path
         d="m 249.3,393.6 0,-8.4 m 0,-373.9 0,8.4 h 0.01"
         id="path3842"
         style="stroke-width:2;stroke-miterlimit:4;stroke-dasharray:none"
         inkscape:connector-curvature="0" />
      <g
         transform="translate(249.3,408.6)"
         style="font-size:12.5px;text-anchor:middle;fill:#000000;stroke:none"
         id="g3844">
        <text
           id="text3846">
          <tspan
             id="tspan3848">10</tspan>
          <tspan
             font-size="8.0pt"
             dy="-6.25"
             id="tspan3850"
             style="font-size:10px">2</tspan>
          <tspan
             font-size="10.0pt"
             dy="6.25"
             id="tspan3852"
             style="font-size:12.5px" />
        </text>
      </g>
      <path
         d="m 352.6,393.6 0,-8.4 m 0,-373.9 0,8.4 h 0.01"
         id="path3854"
         style="stroke-width:2;stroke-miterlimit:4;stroke-dasharray:none"
         inkscape:connector-curvature="0" />
      <g
         transform="translate(352.6,408.6)"
         style="font-size:12.5px;text-anchor:middle;fill:#000000;stroke:none"
         id="g3856">
        <text
           id="text3858">
          <tspan
             id="tspan3860">10</tspan>
          <tspan
             font-size="8.0pt"
             dy="-6.25"
             id="tspan3862"
             style="font-size:10px">3</tspan>
          <tspan
             font-size="10.0pt"
             dy="6.25"
             id="tspan3864"
             style="font-size:12.5px" />
        </text>
      </g>
      <path
         d="m 455.8,393.6 0,-8.4 m 0,-373.9 0,8.4 h 0.01"
         id="path3866"
         style="stroke-width:2;stroke-miterlimit:4;stroke-dasharray:none"
         inkscape:connector-curvature="0" />
      <g
         transform="translate(455.8,408.6)"
         style="font-size:12.5px;text-anchor:middle;fill:#000000;stroke:none"
         id="g3868">
        <text
           id="text3870">
          <tspan
             id="tspan3872">10</tspan>
          <tspan
             font-size="8.0pt"
             dy="-6.25"
             id="tspan3874"
             style="font-size:10px">4</tspan>
          <tspan
             font-size="10.0pt"
             dy="6.25"
             id="tspan3876"
             style="font-size:12.5px" />
        </text>
      </g>
      <path
         d="m 559.1,393.6 0,-8.4 m 0,-373.9 0,8.4 h 0.01"
         id="path3878"
         inkscape:connector-curvature="0" />
      <g
         transform="translate(559.1,408.6)"
         style="font-size:12.5px;text-anchor:middle;fill:#000000;stroke:none"
         id="g3880">
        <text
           id="text3882">
          <tspan
             id="tspan3884">10</tspan>
          <tspan
             font-size="8.0pt"
             dy="-6.25"
             id="tspan3886"
             style="font-size:10px">5</tspan>
          <tspan
             font-size="10.0pt"
             dy="6.25"
             id="tspan3888"
             style="font-size:12.5px" />
        </text>
      </g>
      <path
         d="m 42.8,11.3 0,382.3 516.3,0 0,-382.3 -516.3,0 z m 0,0 h 0.01"
         id="path3890"
         style="stroke-width:2;stroke-miterlimit:4;stroke-dasharray:none"
         inkscape:connector-curvature="0" />
      <g
         transform="matrix(0,-1,1,0,11.8,202.5)"
         style="font-size:12.5px;text-anchor:middle;fill:#000000;stroke:none"
         id="g3892">
        <text
           id="text3894"
           x="0.39071047"
           y="-8.1349716"
           style="font-size:24.81038475px">
          <tspan
             id="tspan3896">f(k)</tspan>
        </text>
      </g>
      <g
         transform="translate(300.9,426.6)"
         style="font-size:12.5px;text-anchor:middle;fill:#000000;stroke:none"
         id="g3898">
        <text
           id="text3900"
           x="-0.6079669"
           y="9.3145866"
           style="font-size:26.49007034px">
          <tspan
             id="tspan3902">k</tspan>
        </text>
      </g>
    </g>
    <g
       id="gnuplot_plot_1a">
      <title
         id="title3905">gnuplot_plot_1a</title>
      <g
         style="color:#ffffff;fill:none;stroke:currentColor;stroke-width:3;stroke-linecap:butt;stroke-linejoin:miter"
         id="g3907" />
      <g
         style="color:#ff0000;fill:none;stroke:currentColor;stroke-width:3;stroke-linecap:butt;stroke-linejoin:miter"
         id="g3909">
        <g
           transform="translate(513.9,26.3)"
           style="font-size:12.5px;text-anchor:end;fill:#000000;stroke:none"
           id="g3911">
          <text
             id="text3913">
            <tspan
               id="tspan3915">random 1</tspan>
          </text>
        </g>
        <path
           d="m 519.5,23.3 28.4,0 m -505.1,41 31.1,55.1 18.2,3.3 12.9,2.6 10,2.4 8.2,16.8 6.9,30.6 6,3.3 5.2,1.7 4.8,0.6 4.2,0.4 3.9,1 3.6,1.1 3.3,0.8 3.1,0.3 2.9,1.6 2.8,0.4 2.5,0.4 2.4,1.3 2.3,0.4 2.2,0.4 2.1,1.4 2,0.9 1.9,1.4 1.9,5.3 1.7,0.6 1.7,4.3 1.6,3.5 1.6,1.5 1.5,2.4 1.5,3.5 1.4,5 1.4,3.4 1.3,2.4 1.3,4.1 1.3,1.5 1.2,1.5 1.2,1.7 1.2,0 1.1,0 1.1,0 1.1,0 1.1,0 1,0 1,1.7 1,0 1,0 0.9,0 0.9,1.8 0.9,0 0.9,0 0.9,0 0.8,0 0.9,0 0.8,0 0.8,0 0.8,1.9 0.8,0 0.8,0 0.7,0 0.8,2 0.7,0 0.7,0 0.7,0 0.7,0 0.7,2.1 0.7,0 0.6,0 0.7,2.3 0.6,0 0.7,0 0.6,0 0.6,0 0.6,0 0.6,0 0.6,0 0.6,0 0.6,0 0.5,0 0.6,0 0.6,2.5 0.5,0 0.6,0 0.5,0 0.5,0 0.6,0 0.5,0 0.5,0 0.5,0 0.5,2.6 0.5,0 0.5,0 0.5,0 0.4,0 0.5,0 0.5,0 0.5,0 0.4,0 0.5,0 0.4,0 0.5,0 0.4,0 0.4,0 0.5,0 0.4,2.9 0.4,0 0.5,0 0.4,0 0.4,0 0.4,3.2 0.4,0 0.4,0 0.4,0 0.4,0 0.4,3.5 0.4,0 0.4,0 0.3,0 0.4,0 0.4,0 0.4,0 0.3,0 0.4,0 0.4,0 0.3,0 0.4,0 0.3,0 0.4,0 0.3,3.9 0.4,0 0.3,0 0.4,0 0.3,0 0.3,0 0.4,0 0.3,0 0.3,4.4 0.4,0 0.3,0 0.3,0 0.3,0 0.3,0 0.4,0 0.3,0 0.3,0 0.3,0 0.3,0 0.3,0 0.3,0 0.3,5.1 0.3,0 0.3,0 0.3,0 0.3,0 0.3,0 0.3,0 0.2,0 0.3,0 0.3,0 0.3,0 0.3,0 0.3,0 0.2,0 0.3,0 0.3,0 0.2,0 0.3,6.1 0.3,0 0.3,0 0.2,0 0.3,0 0.2,0 0.3,0 0.3,0 0.2,0 0.3,0 0.2,0 0.3,0 0.2,0 0.3,0 0.2,0 0.3,0 0.2,0 0.3,0 0.2,0 0.2,0 0.3,0 0.2,0 0.3,0 0.2,0 0.2,0 0.3,0 0.2,0 0.2,0 0.3,0 0.2,0 0.2,0 0.3,0 0.2,0 0.2,7.4 0.2,0 0.3,0 0.2,0 0.2,0 0.2,0 0.2,0 0.2,0 0.3,0 0.2,0 0.2,0 0.2,0 0.2,0 0.2,0 0.2,0 0.2,0 0.3,0 0.2,0 0.2,0 0.2,0 0.2,0 0.2,0 0.2,0 0.2,0 0.2,0 0.2,0 0.2,0 0.2,0 0.2,0 0.2,0 0.2,0 0.2,0 0.2,0 0.2,0 0.1,0 0.2,0 0.2,0 0.2,0 0.2,0 0.2,0 0.2,0 0.2,0 0.2,0 0.1,0 0.2,0 0.2,0 0.2,0 0.2,0 0.2,0 0.1,0 0.2,0 0.2,0 0.2,0 0.1,0 0.2,0 0.2,0 0.2,0 0.1,0 0.2,0 0.2,0 0.2,0 0.1,0 0.2,0 0.2,0 0.2,0 0.1,0 0.2,0 0.2,0 0.1,0 0.2,0 0.2,0 0.1,0 0.2,9.6 0.2,0 0.1,0 0.2,0 0.1,0 0.2,0 0.2,0 0.1,0 0.2,0 0.2,0 0.1,0 0.2,0 0.1,0 0.2,0 0.1,0 0.2,0 0.2,0 0.1,0 0.2,0 0.1,0 0.2,0 0.1,0 0.2,0 0.1,0 0.2,0 0.1,0 0.2,0 0.1,0 0.2,0 0.1,0 0.2,0 0.1,0 0.2,0 0.1,0 0.2,0 0.1,0 0.2,0 0.1,0 0.2,0 0.1,0 0.1,0 0.2,0 0.1,0 0.2,0 0.1,0 0.2,0 0.1,0 0.1,0 0.2,0 0.1,0 0.2,0 0.1,0 0.1,0 0.2,0 0.1,0 0.2,0 0.1,0 0.1,0 0.2,0 0.1,0 0.1,0 0.2,0 0.1,0 0.1,0 0.2,0 0.1,0 0.1,0 0.2,0 0.1,0 0.1,0 0.2,0 0.1,0 0.1,0 0.2,0 0.1,0 0.1,0 0.1,0 0.2,0 0.1,0 0.1,0 0.2,0 0.1,0 0.1,0 0.1,0 0.2,0 0.1,0 0.1,0 0.1,0 0.2,0 0.1,0 0.1,0 0.1,0 0.2,0 0.1,0 0.1,0 0.1,0 0.1,0 0.2,0 0.1,0 0.1,0 0.1,0 0.2,0 0.1,0 0.1,0 0.1,0 0.1,0 0.2,0 0.1,0 0.1,0 0.1,0 0.1,0 0.1,0 0.2,0 0.1,0 0.1,0 0.1,0 0.1,0 0.1,0 0.2,0 0.1,0 0.1,0 0.1,0 0.1,0 0.1,13.4 0.1,0 0.2,0 0.1,0 0.1,0 0.1,0 0.1,0 0.1,0 0.1,0 0.1,0 0.1,0 0.2,0 0.1,0 0.1,0 0.1,0 0.1,0 0.1,0 0.1,0 0.1,0 0.1,0 0.1,0 0.1,0 0.2,0 0.1,0 0.1,0 0.1,0 0.1,0 0.1,0 0.1,0 0.1,0 0.1,0 0.1,0 0.1,0 0.1,0 0.1,0 0.1,0 0.1,0 0.1,0 0.1,0 0.1,0 0.2,0 0.1,0 0.1,0 0.1,0 0.1,0 0.1,0 0.1,0 0.1,0 0.1,0 0.1,0 0.1,0 0.1,0 0.1,0 0.1,0 0.1,0 0.1,0 0.1,0 0.1,0 0.1,0 0.1,0 0.1,0 0.1,0 0.1,0 0.1,0 0.1,0 0.1,0 0.1,0 0.1,0 0.1,0 0.1,0 0.1,0 0.1,0 0.1,0 0.1,0 0.1,0 0.1,0 0.1,0 0.1,0 0.1,0 0.1,0 0.1,0 0.1,0 0.1,0 0.1,0 0.1,0 0.1,0 0.1,0 0.1,0 0.1,0 0.1,0 0.1,0 0.1,0 0.1,0 0.1,0 0.1,0 0.1,0 0.1,0 0.1,0 0.1,0 0.1,0 0.1,0 0.1,0 0.1,0 0.1,0 0.1,0 0.1,0 0.1,0 0.1,0 0.1,0 0.1,0 0.1,0 0.1,0 0.1,0 0.1,0 0.1,0 0.1,0 0.1,0 0.1,0 0.1,0 0.1,0 0.1,0 0.1,0 0.1,0 0.1,0 0.1,0 0.1,0 0.1,0 0.1,0 0.1,0 0.1,0 0.1,0 0.1,0 0.1,0 0.1,0 0.1,0 0.1,0 0.1,0 0.1,0 0.1,0 0.1,0 0.1,0 0.1,0 0.1,0 0.1,0 0.1,0 0.1,0 0.1,0 0.1,0 0.1,0 0.1,0 0.1,0 0.1,0 0.1,0 0.1,0 0.1,0 0.1,0 0.1,0 0.1,0 0.1,0 0.1,0 0.1,0 0.1,0 0.1,0 0.1,0 0.1,0 0.1,0 0.1,0 0.1,0 0.1,0 0.1,0 0.1,0 0.1,0 0.1,0 0.1,0 0.1,0 0.1,0 0.1,0 0.1,0 0.1,0 0.1,0 0.1,0 0.1,0 0.1,0 0.1,0 0.1,0 0.1,0 0.1,0 0.1,0 0.1,0 0.1,0 0.1,0 0.1,0 0.1,0 0.1,0 0.1,0 0.1,0 0.1,0 0.1,0 0.1,0 0.1,0 0.1,0 0.1,0 0.1,0 0.1,0 0.1,0 0.1,0 0.1,0 0.1,0 0.1,0 0.1,0 0.1,0 0.1,0 0.1,0 0.1,0 0.1,0 0.1,0 0.1,0 0.1,0 0.1,0 0.1,0 0.1,0 0.1,0 0.1,0 0.1,0 0.1,0 0.1,0 0.1,0 0.1,0 0.1,0 0.1,0 0.1,0 0.1,0 0.1,0 0.1,0 0.1,0 0.1,0 0.1,0 0.1,0 0.1,0 0.1,0 0.1,0 0.1,0 0.1,0 0.1,0 0.1,0 0.1,0 0.1,0 0.1,0 0.1,0 0.1,0 0.1,0 0.1,0 0.1,0 0.1,0 0.1,0 0.1,0 0.1,0 0.1,0 0.1,0 0.1,0 0.1,0 0.1,0 0.1,23 0.1,0 0.1,0 0.1,0 0.1,0 0.1,0 0.1,0 0.1,0 0.1,0 0.1,0 0.1,0 0.1,0 0.1,0 0.1,0 0.1,0 0.1,0 0.1,0 0.1,0 0.1,0 0.1,0 0.1,0 0.1,0 0.1,0 0.1,0 0.1,0 0.1,0 0.1,0 0.1,0 0.1,0 0.1,0 0.1,0 0.1,0 0.1,0 0.1,0 0.1,0 0.1,0 0.1,0 0.1,0 0.1,0 0.1,0 0.1,0 0.1,0 0.1,0 0.1,0 0.1,0 0.1,0 0.1,0 0.1,0 0.1,0 0.1,0 0.1,0 0.1,0 0.1,0 0.1,0 0.1,0 0.1,0 0.1,0 0.1,0 0.1,0 0.1,0 0.1,0 0.1,0 0.1,0 0.1,0 0.1,0 0.1,0 0.1,0 0.1,0 0.1,0 0.1,0 0.1,0 0.1,0 0.1,0 0.1,0 0.1,0 0.1,0 0.1,0 0.1,0 0.1,0 0.1,0 0.1,0 0.1,0 0.1,0 0.1,0 0.1,0 0.1,0 0.1,0 0.1,0 0.1,0 0.1,0 0.1,0 0.1,0 0.1,0 0.1,0 0.1,0 0.1,0 0.1,0 0.1,0 0.1,0 0.1,0 0.1,0 0.1,0 0.1,0 0.1,0 0.1,0 0.1,0 0.1,0 0.1,0 0.1,0 0.1,0 0.1,0 0.1,0 0.1,0 0.1,0 0.1,0 0.1,0 0.1,0 0.1,0 0.1,0 0.1,0 0.1,0 0.1,0 0.1,0 0.1,0 0.1,0 0.1,0 0.1,0 0.1,0 0.1,0 0.1,0 0.1,0 0.1,0 0.1,0 0.1,0 0.1,0 0.1,0 0.1,0 0.1,0 0.1,0 0.1,0 0.1,0 0.1,0 0.1,0 0.1,0 0.1,0 0.1,0 0.1,0 0.1,0 0.1,0 0.1,0 0.1,0 0.1,0 0.1,0 0.1,0 0.1,0 0.1,0 0.1,0 0.1,0 0.1,0 0.1,0 0.1,0 0.1,0 0.1,0 0.1,0 0.1,0 0.1,0 0.1,0 0.1,0 0.1,0 0.1,0 0.1,0 0.1,0 0.1,0 0.1,0 0.1,0 0.1,0 0.1,0 0.1,0 0.1,0 0.1,0 0.1,0 0.1,0 0.1,0 0.1,0 0.1,0 0.1,0 0.1,0 0.1,0 0.1,0 0.1,0 0.1,0 0.1,0 0.1,0 0.1,0 0.1,0 0.1,0 0.1,0 0.1,0 0.1,0 0.1,0 0.1,0 0.1,0 0.1,0 0.1,0 0.1,0 0.1,0 0.1,0 0.1,0 0.1,0 0.1,0 0.1,0 0.1,0 0.1,0 0.1,0 0.1,0 0.1,0 0.1,0 0.1,0 0.1,0 0.1,0 0.1,0 0.1,0 0.1,0 0.1,0 0.1,0 0.1,0 0.1,0 0.1,0 0.1,0 0.1,0 0.1,0 0.1,0 0.1,0 0.1,0 0.1,0 0.1,0 0.1,0 0.1,0 0.1,0 0.1,0 0.1,0 0.1,0 0.1,0 0.1,0 0.1,0 0.1,0 0.1,0 0.1,0 0.1,0 0.1,0 0.1,0 0.1,0 0.1,0 0.1,0 0.1,0 0.1,0 0.1,0 0.1,0 0.1,0 0.1,0 0.1,0 0.1,0 0.1,0 0.1,0 0.1,0 0.1,0 0.1,0 0.1,0 0.1,0 0.1,0 0.1,0 0.1,0 0.1,0 0.1,0 0.1,0 0.1,0 0.1,0 0.1,0 0.1,0 0.1,0 0.1,0 0.1,0 0.1,0 0.1,0 0.1,0 0.1,0 0.1,0 0.1,0 0.1,0 0.1,0 0.1,0 0.1,0 0.1,0 0.1,0 0.1,0 0.1,0 0.1,0 0.1,0 0.1,0 0.1,0 0.1,0 0.1,0 0.1,0 0.1,0 0.1,0 0.1,0 0.1,0 0.1,0 0.1,0 0.1,0 0.1,0 0.1,0 0.1,0 0.1,0 0.1,0 0.1,0 0.1,0 0.1,0 0.1,0 0.1,0 0.1,0 0.1,0 0.1,0 0.1,0 0.1,0 0.1,0 0.1,0 0.1,0 0.1,0 0.1,0 0.1,0 0.1,0 0.1,0 0.1,0 0.1,0 0.1,0 0.1,0 0.1,0 0.1,0 0.1,0 0.1,0 0.1,0 0.1,0 0.1,0 0.1,0 0.1,0 0.1,0 0.1,0 0.1,0 0.1,0 0.1,0 0.1,0 0.1,0 0.1,0 0.1,0 0.1,0 0.1,0 0.1,0 0.1,0 0.1,0 0.1,0 0.1,0 0.1,0 0.1,0 0.1,0 0.1,0 0.1,0 0.1,0 0.1,0 0.1,0 0.1,0 0.1,0 0.1,0 0.1,0 0.1,0 0.1,0 0.1,0 0.1,0 0.1,0 0.1,0 0.1,0 0.1,0 0.1,0 0.1,0 0.1,0 0.1,0 0.1,0 0.1,0 0.1,0 0.1,0 0.1,0 0.1,0 0.1,0 0.1,0 0.1,0 0.1,0 0.1,0 0.1,0 0.1,0 0.1,0 0.1,0 0.1,0 0.1,0 0.1,0 0.1,0 0.1,0 0.1,0 0.1,0 0.1,0 0.1,0 0.1,0 0.1,0 0.1,0 0.1,0 0.1,0 0.1,0 0.1,0 0.1,0 0.1,0 0.1,0 0.1,0 0.1,0 0.1,0 0.1,0 0.1,0 0.1,0 0.1,0 0.1,0 0.1,0 0.1,0 0.1,0 0.1,0 0.1,0 0.1,0 0.1,0 0.1,0 0.1,0 0.1,0 0.1,0 0.1,0 0.1,0 0.1,0 0.1,0 0.1,0 0.1,0 0.1,0 0.1,0 0.1,0 0.1,0 0.1,0 0.1,0 0.1,0 0.1,0 0.1,0 0.1,0 0.1,0 0.1,0 0.1,0 0.1,0 0.1,0 0.1,0 0.1,0 0.1,0 0.1,0 0.1,0 0.1,0 0.1,0 0.1,0 0.1,0 0.1,0 0.1,0 0.1,0 0.1,0 0.1,0 0.1,0 0.1,0 0.1,0 0.1,0 0.1,0 0.1,0 0.1,0 0.1,0 0.1,0 0.1,0 0.1,0 0.1,0 0.1,0 0.1,0 0.1,0 0.1,0 0.1,0 0.1,0 0.1,0 0.1,0 0.1,0 0.1,0 0.1,0 0.1,0 0.1,0 0.1,0 0.1,0 0.1,0 0.1,0 0.1,0 0.1,0 0.1,0 0.1,0 0.1,0 0.1,0 0.1,0 0.1,0 0.1,0 0.1,0 0.1,0 0.1,0 0.1,0 0.1,0 0.1,0 0.1,0 0.1,0 0.1,0 0.1,0 0.1,0 0.1,0 0.1,0 0.1,0 0.1,0 0.1,0 0.1,0 0.1,0 0.1,0 0.1,0 0.1,0 0.1,0 0.1,0 0.1,0 0.1,0 0.1,0 0.1,0 0.1,0 0.1,0 0.1,0 0.1,0 0.1,0 0.1,0 0.1,0 0.1,0 0.1,0 0.1,0 0.1,0 0.1,0 0.1,0 0.1,0 0.1,0 0.1,0 0.1,0 0.1,0 0.1,0 0.1,0 0.1,0 0.1,0 0.1,0 0.1,0 0.1,0 0.1,0 0.1,0 0.1,0 0.1,0 0.1,0 0.1,0 0.1,0 0.1,0 0.1,0 0.1,0 0.1,0 0.1,0 0.1,0 0.1,0 0.1,0 0.1,0 0.1,0 0.1,0 0.1,0 0.1,0 0.1,0 0.1,0 0.1,0 0.1,0 0.1,0 0.1,0 0.1,0 0.1,0 0.1,0 0.1,0 0.1,0 0.1,0 0.1,0 0.1,0 0.1,0 0.1,0 0.1,0 0.1,0 0.1,0 0.1,0 0.1,0 0.1,0 0.1,0 0.1,0 0.1,0 0.1,0 0.1,0 0.1,0 0.1,0 0.1,0 0.1,0 0.1,0 0.1,0 0.1,0 0.1,0 0.1,0 0.1,0 0.1,0 0.1,0 0.1,0 0.1,0 0.1,0 0.1,0 0.1,0 0.1,0 0.1,0 0.1,0 0.1,0 0.1,0 0.1,0 0.1,0 0.1,0 0.1,0 0.1,0 0.1,0 0.1,0 0.1,0 0.1,0 0.1,0 0.1,0 0.1,0 0.1,0 0.1,0 0.1,0 0.1,0 0.1,0 0.1,0 0.1,0 0.1,0 0.1,0 0.1,0 0.1,0 0.1,0 0.1,0 0.1,0 0.1,0 0.1,0 0.1,0 0.1,0 0.1,0 0.1,0 0.1,0 0.1,0 0.1,0 0.1,0 0.1,0 0.1,0 0.1,0 0.1,0 0.1,0 0.1,0 0.1,0 0.1,0 0.1,0 0.1,0 0.1,0 0.1,0 0.1,0 0.1,0 0.1,0 0.1,0 0.1,0 0.1,0 0.1,0 0.1,0 0.1,0 0.1,0 0.1,0 0.1,0 0.1,0 0.1,0 0.1,0 0.1,0 0.1,0 0.1,0 0.1,0 0.1,0 0.1,0 0.1,0 0.1,0 0.1,0 0.1,0 0.1,0 0.1,0 0.1,0 0.1,0 0.1,0 0.1,0 0.1,0 0.1,0 0.1,0 0.1,0 0.1,0 0.1,0 0.1,0 0.1,0 0.1,0 0.1,0 0.1,0 0.1,0 0.1,0 0.1,0 0.1,0 0.1,0 0.1,0 0.1,0 0.1,0 0.1,0 0.1,0 0.1,0 0.1,0 0.1,0 0.1,0 0.1,0 0.1,0 0.1,0 0.1,0 0.1,0 0.1,0 0.1,0 0.1,0 0.1,0 0.1,0 0.1,0 0.1,0 0.1,0 0.1,0 0.1,0 0.1,0 0.1,0 0.1,0 0.1,0 0.1,0 0.1,0 0.1,0 0.1,0 0.1,0 0.1,0 0.1,0 0.1,0 0.1,0 0.1,0 0.1,0 0.1,0 0.1,0 0.1,0 0.1,0 0.1,0 0.1,0 0.1,0 0.1,0 0.1,0 0.1,0 0.1,0 0.1,0 0.1,0 0.1,0 0.1,0 0.1,0 0.1,0 0.1,0 0.1,0 0.1,0 0.1,0 0.1,0 0.1,0 0.1,0 0.1,0 0.1,0 0.1,0 0.1,0 0.1,0 0.1,0 0.1,0 0.1,0 0.1,0 0.1,0 0.1,0 0.1,0 0.1,0 0.1,0 0.1,0 0.1,0 0.1,0 0.1,0 0.1,0 0.1,0 0.1,0 0.1,0 0.1,0 0.1,0 0.1,0 0.1,0 0.1,0 0.1,0 0.1,0 0.1,0 0.1,0 0.1,0 0.1,0 0.1,0 0.1,0 0.1,0 0.1,0 0.1,0 0.1,0 0.1,0 0.1,0 0.1,0 0.1,0 0.1,0 0.1,0 0.1,0 0.1,0 0.1,0 0.1,0 0.1,0 0.1,0 0.1,0 0.1,0 0.1,0 0.1,0 0.1,0 0.1,0 0.1,0 0.1,0 0.1,0 0.1,0 0.1,0 0.1,0 0.1,0 0.1,0 0.1,0 0.1,0 0.1,0 0.1,0 0.1,0 0.1,0 0.1,0 0.1,0 0.1,0 0.1,0 0.1,0 0.1,0 0.1,0 0.1,0 0.1,0 0.1,0 0.1,0 0.1,0 0.1,0 0.1,0 0.1,0 0.1,0 0.1,0 0.1,0 0.1,0 0.1,0 0.1,0 0.1,0 0.1,0 0.1,0 0.1,0 0.1,0 0.1,0 0.1,0 0.1,0 0.1,0 0.1,0 0.1,0 0.1,0 0.1,0 0.1,0 0.1,0 0.1,0 0.1,0 0.1,0 0.1,0 0.1,0 0.1,0 0.1,0 0.1,0 0.1,0 0.1,0 0.1,0 0.1,0 0.1,0 0.1,0 0.1,0 0.1,0 0.1,0 0.1,0 0.1,0 0.1,0 0.1,0 0.1,0 0.1,0 0.1,0 0.1,0 0.1,0 0.1,0 0.1,0 0.1,0 0.1,0 0.1,0 0.1,0 0.1,0 0.1,0 0.1,0 0.1,0 0.1,0 0.1,0 0.1,0 0.1,0 0.1,0 0.1,0 0.1,0 0.1,0 0.1,0 0.1,0 0.1,0 0.1,0 0.1,0 0.1,0 0.1,0 0.1,0 0.1,0 0.1,0 0.1,0 h 0.01"
           id="path3917"
           inkscape:connector-curvature="0"
           style="stroke:#c9c9c9;stroke-opacity:1" />
      </g>
    </g>
    <g
       id="gnuplot_plot_2a">
      <title
         id="title3920">gnuplot_plot_2a</title>
      <g
         style="color:#ff0000;fill:none;stroke:currentColor;stroke-width:3;stroke-linecap:butt;stroke-linejoin:miter"
         id="g3922">
        <g
           transform="translate(513.9,38.3)"
           style="font-size:12.5px;text-anchor:end;fill:#000000;stroke:none"
           id="g3924">
          <text
             id="text3926">
            <tspan
               id="tspan3928">random 2</tspan>
          </text>
        </g>
        <path
           d="m 519.5,35.3 28.4,0 m -505.1,63 31.1,41.6 18.2,1.4 12.9,6.1 10,24.1 8.2,9 6.9,3 6,2.2 5.2,4.7 4.8,2.7 4.2,2.9 3.9,0 3.6,1.5 3.3,1.6 3.1,7.4 2.9,2.2 2.8,4.7 2.5,0 2.4,2.7 2.3,0 2.2,2.9 2.1,6.6 2,0 1.9,0 1.9,0 1.7,4 1.7,0 1.6,0 1.6,0 1.5,0 1.5,0 1.4,0 1.4,0 1.3,4.4 1.3,0 1.3,0 1.2,5.1 1.2,0 1.2,0 1.1,0 1.1,0 1.1,0 1.1,0 1,6.1 1,0 1,0 1,0 0.9,0 0.9,0 0.9,0 0.9,0 0.9,0 0.8,0 0.9,0 0.8,7.4 0.8,0 0.8,0 0.8,0 0.8,0 0.7,0 0.8,0 0.7,0 0.7,0 0.7,0 0.7,9.5 0.7,0 0.7,0 0.6,0 0.7,0 0.6,0 0.7,0 0.6,0 0.6,0 0.6,0 0.6,0 0.6,0 0.6,0 0.6,0 0.5,0 0.6,0 0.6,0 0.5,0 0.6,0 0.5,0 0.5,0 0.6,0 0.5,0 0.5,0 0.5,0 0.5,0 0.5,0 0.5,0 0.5,0 0.4,0 0.5,0 0.5,0 0.5,0 0.4,0 0.5,0 0.4,0 0.5,0 0.4,0 0.4,0 0.5,0 0.4,13.5 0.4,0 0.5,0 0.4,0 0.4,0 0.4,0 0.4,0 0.4,0 0.4,0 0.4,0 0.4,0 0.4,0 0.4,0 0.3,0 0.4,0 0.4,0 0.4,0 0.3,0 0.4,0 0.4,0 0.3,0 0.4,0 0.3,0 0.4,0 0.3,0 0.4,0 0.3,0 0.4,0 0.3,0 0.3,0 0.4,0 0.3,0 0.3,0 0.4,0 0.3,0 0.3,0 0.3,0 0.3,0 0.4,0 0.3,0 0.3,0 0.3,0 0.3,0 0.3,0 0.3,0 0.3,0 0.3,0 0.3,0 0.3,0 0.3,0 0.3,0 0.3,0 0.2,0 0.3,0 0.3,0 0.3,0 0.3,0 0.3,0 0.2,0 0.3,0 0.3,0 0.2,0 0.3,0 0.3,0 0.3,0 0.2,0 0.3,0 0.2,0 0.3,0 0.3,0 0.2,0 0.3,0 0.2,0 0.3,0 0.2,0 0.3,0 0.2,0 0.3,0 0.2,0 0.3,0 0.2,0 0.2,0 0.3,0 0.2,0 0.3,0 0.2,0 0.2,0 0.3,0 0.2,0 0.2,0 0.3,23 0.2,0 0.2,0 0.3,0 0.2,0 0.2,0 0.2,0 0.3,0 0.2,0 0.2,0 0.2,0 0.2,0 0.2,0 0.3,0 0.2,0 0.2,0 0.2,0 0.2,0 0.2,0 0.2,0 0.2,0 0.3,0 0.2,0 0.2,0 0.2,0 0.2,0 0.2,0 0.2,0 0.2,0 0.2,0 0.2,0 0.2,0 0.2,0 0.2,0 0.2,0 0.2,0 0.2,0 0.2,0 0.2,0 0.1,0 0.2,0 0.2,0 0.2,0 0.2,0 0.2,0 0.2,0 0.2,0 0.2,0 0.1,0 0.2,0 0.2,0 0.2,0 0.2,0 0.2,0 0.1,0 0.2,0 0.2,0 0.2,0 0.1,0 0.2,0 0.2,0 0.2,0 0.1,0 0.2,0 0.2,0 0.2,0 0.1,0 0.2,0 0.2,0 0.2,0 0.1,0 0.2,0 0.2,0 0.1,0 0.2,0 0.2,0 0.1,0 0.2,0 0.2,0 0.1,0 0.2,0 0.1,0 0.2,0 0.2,0 0.1,0 0.2,0 0.2,0 0.1,0 0.2,0 0.1,0 0.2,0 0.1,0 0.2,0 0.2,0 0.1,0 0.2,0 0.1,0 0.2,0 0.1,0 0.2,0 0.1,0 0.2,0 0.1,0 0.2,0 0.1,0 0.2,0 0.1,0 0.2,0 0.1,0 0.2,0 0.1,0 0.2,0 0.1,0 0.2,0 0.1,0 0.2,0 0.1,0 0.1,0 0.2,0 0.1,0 0.2,0 0.1,0 0.2,0 0.1,0 0.1,0 0.2,0 0.1,0 0.2,0 0.1,0 0.1,0 0.2,0 0.1,0 0.2,0 0.1,0 0.1,0 0.2,0 0.1,0 0.1,0 0.2,0 0.1,0 0.1,0 0.2,0 0.1,0 0.1,0 0.2,0 0.1,0 0.1,0 0.2,0 0.1,0 0.1,0 0.2,0 0.1,0 0.1,0 0.1,0 0.2,0 0.1,0 0.1,0 0.2,0 0.1,0 0.1,0 0.1,0 0.2,0 0.1,0 0.1,0 0.1,0 0.2,0 0.1,0 0.1,0 0.1,0 0.2,0 0.1,0 0.1,0 0.1,0 0.1,0 0.2,0 0.1,0 0.1,0 0.1,0 0.2,0 0.1,0 0.1,0 0.1,0 0.1,0 0.2,0 0.1,0 0.1,0 0.1,0 0.1,0 0.1,0 0.2,0 0.1,0 0.1,0 0.1,0 0.1,0 0.1,0 0.2,0 0.1,0 0.1,0 0.1,0 0.1,0 0.1,0 0.1,0 0.2,0 0.1,0 0.1,0 0.1,0 0.1,0 0.1,0 0.1,0 0.1,0 0.1,0 0.2,0 0.1,0 0.1,0 0.1,0 0.1,0 0.1,0 0.1,0 0.1,0 0.1,0 0.1,0 0.1,0 0.2,0 0.1,0 0.1,0 0.1,0 0.1,0 0.1,0 0.1,0 0.1,0 0.1,0 0.1,0 0.1,0 0.1,0 0.1,0 0.1,0 0.1,0 0.1,0 0.1,0 0.1,0 0.2,0 0.1,0 0.1,0 0.1,0 0.1,0 0.1,0 0.1,0 0.1,0 0.1,0 0.1,0 0.1,0 0.1,0 0.1,0 0.1,0 0.1,0 0.1,0 0.1,0 0.1,0 0.1,0 0.1,0 0.1,0 0.1,0 0.1,0 0.1,0 0.1,0 0.1,0 0.1,0 0.1,0 0.1,0 0.1,0 0.1,0 0.1,0 0.1,0 0.1,0 0.1,0 0.1,0 0.1,0 0.1,0 0.1,0 0.1,0 0.1,0 0.1,0 0.1,0 0.1,0 0.1,0 0.1,0 0.1,0 0.1,0 0.1,0 0.1,0 0.1,0 0.1,0 0.1,0 0.1,0 0.1,0 0.1,0 0.1,0 0.1,0 0.1,0 0.1,0 0.1,0 0.1,0 0.1,0 0.1,0 0.1,0 0.1,0 0.1,0 0.1,0 0.1,0 0.1,0 0.1,0 0.1,0 0.1,0 0.1,0 0.1,0 0.1,0 0.1,0 0.1,0 0.1,0 0.1,0 0.1,0 0.1,0 0.1,0 0.1,0 0.1,0 0.1,0 0.1,0 0.1,0 0.1,0 0.1,0 0.1,0 0.1,0 0.1,0 0.1,0 0.1,0 0.1,0 0.1,0 0.1,0 0.1,0 0.1,0 0.1,0 0.1,0 0.1,0 0.1,0 0.1,0 0.1,0 0.1,0 0.1,0 0.1,0 0.1,0 0.1,0 0.1,0 0.1,0 0.1,0 0.1,0 0.1,0 0.1,0 0.1,0 0.1,0 0.1,0 0.1,0 0.1,0 0.1,0 0.1,0 0.1,0 0.1,0 0.1,0 0.1,0 0.1,0 0.1,0 0.1,0 0.1,0 0.1,0 0.1,0 0.1,0 0.1,0 0.1,0 0.1,0 0.1,0 0.1,0 0.1,0 0.1,0 0.1,0 0.1,0 0.1,0 0.1,0 0.1,0 0.1,0 0.1,0 0.1,0 0.1,0 0.1,0 0.1,0 0.1,0 0.1,0 0.1,0 0.1,0 0.1,0 0.1,0 0.1,0 0.1,0 0.1,0 0.1,0 0.1,0 0.1,0 0.1,0 0.1,0 0.1,0 0.1,0 0.1,0 0.1,0 0.1,0 0.1,0 0.1,0 0.1,0 0.1,0 0.1,0 0.1,0 0.1,0 0.1,0 0.1,0 0.1,0 0.1,0 0.1,0 0.1,0 0.1,0 0.1,0 0.1,0 0.1,0 0.1,0 0.1,0 0.1,0 0.1,0 0.1,0 0.1,0 0.1,0 0.1,0 0.1,0 0.1,0 0.1,0 0.1,0 0.1,0 0.1,0 0.1,0 0.1,0 0.1,0 0.1,0 0.1,0 0.1,0 0.1,0 0.1,0 0.1,0 0.1,0 0.1,0 0.1,0 0.1,0 0.1,0 0.1,0 0.1,0 0.1,0 0.1,0 0.1,0 0.1,0 0.1,0 0.1,0 0.1,0 0.1,0 0.1,0 0.1,0 0.1,0 0.1,0 0.1,0 0.1,0 0.1,0 0.1,0 0.1,0 0.1,0 0.1,0 0.1,0 0.1,0 0.1,0 0.1,0 0.1,0 0.1,0 0.1,0 0.1,0 0.1,0 0.1,0 0.1,0 0.1,0 0.1,0 0.1,0 0.1,0 0.1,0 0.1,0 0.1,0 0.1,0 0.1,0 0.1,0 0.1,0 0.1,0 0.1,0 0.1,0 0.1,0 0.1,0 0.1,0 0.1,0 0.1,0 0.1,0 0.1,0 0.1,0 0.1,0 0.1,0 0.1,0 0.1,0 0.1,0 0.1,0 0.1,0 0.1,0 0.1,0 0.1,0 0.1,0 0.1,0 0.1,0 0.1,0 0.1,0 0.1,0 0.1,0 0.1,0 0.1,0 0.1,0 0.1,0 0.1,0 0.1,0 0.1,0 0.1,0 0.1,0 0.1,0 0.1,0 0.1,0 0.1,0 0.1,0 0.1,0 0.1,0 0.1,0 0.1,0 0.1,0 0.1,0 0.1,0 0.1,0 0.1,0 0.1,0 0.1,0 0.1,0 0.1,0 0.1,0 0.1,0 0.1,0 0.1,0 0.1,0 0.1,0 0.1,0 0.1,0 0.1,0 0.1,0 0.1,0 0.1,0 0.1,0 0.1,0 0.1,0 0.1,0 0.1,0 0.1,0 0.1,0 0.1,0 0.1,0 0.1,0 0.1,0 0.1,0 0.1,0 0.1,0 0.1,0 0.1,0 0.1,0 0.1,0 0.1,0 0.1,0 0.1,0 0.1,0 0.1,0 0.1,0 0.1,0 0.1,0 0.1,0 0.1,0 0.1,0 0.1,0 0.1,0 0.1,0 0.1,0 0.1,0 0.1,0 0.1,0 0.1,0 0.1,0 0.1,0 0.1,0 0.1,0 0.1,0 0.1,0 0.1,0 0.1,0 0.1,0 0.1,0 0.1,0 0.1,0 0.1,0 0.1,0 0.1,0 0.1,0 0.1,0 0.1,0 0.1,0 0.1,0 0.1,0 0.1,0 0.1,0 0.1,0 0.1,0 0.1,0 0.1,0 0.1,0 0.1,0 0.1,0 0.1,0 0.1,0 0.1,0 0.1,0 0.1,0 0.1,0 0.1,0 0.1,0 0.1,0 0.1,0 0.1,0 0.1,0 0.1,0 0.1,0 0.1,0 0.1,0 0.1,0 0.1,0 0.1,0 0.1,0 0.1,0 0.1,0 0.1,0 0.1,0 0.1,0 0.1,0 0.1,0 0.1,0 0.1,0 0.1,0 0.1,0 0.1,0 0.1,0 0.1,0 0.1,0 0.1,0 0.1,0 0.1,0 0.1,0 0.1,0 0.1,0 0.1,0 0.1,0 0.1,0 0.1,0 0.1,0 0.1,0 0.1,0 0.1,0 0.1,0 0.1,0 0.1,0 0.1,0 0.1,0 0.1,0 0.1,0 0.1,0 0.1,0 0.1,0 0.1,0 0.1,0 0.1,0 0.1,0 0.1,0 0.1,0 0.1,0 0.1,0 0.1,0 0.1,0 0.1,0 0.1,0 0.1,0 0.1,0 0.1,0 0.1,0 0.1,0 0.1,0 0.1,0 0.1,0 0.1,0 0.1,0 0.1,0 0.1,0 0.1,0 0.1,0 0.1,0 0.1,0 0.1,0 0.1,0 0.1,0 0.1,0 0.1,0 0.1,0 0.1,0 0.1,0 0.1,0 0.1,0 0.1,0 0.1,0 0.1,0 0.1,0 0.1,0 0.1,0 0.1,0 0.1,0 0.1,0 0.1,0 0.1,0 0.1,0 0.1,0 0.1,0 0.1,0 0.1,0 0.1,0 0.1,0 0.1,0 0.1,0 0.1,0 0.1,0 0.1,0 0.1,0 0.1,0 0.1,0 0.1,0 0.1,0 0.1,0 0.1,0 0.1,0 0.1,0 0.1,0 0.1,0 0.1,0 0.1,0 0.1,0 0.1,0 0.1,0 0.1,0 0.1,0 0.1,0 0.1,0 0.1,0 0.1,0 0.1,0 0.1,0 0.1,0 0.1,0 0.1,0 0.1,0 0.1,0 0.1,0 0.1,0 0.1,0 0.1,0 0.1,0 0.1,0 0.1,0 0.1,0 0.1,0 0.1,0 0.1,0 0.1,0 0.1,0 0.1,0 0.1,0 0.1,0 0.1,0 0.1,0 0.1,0 0.1,0 0.1,0 0.1,0 0.1,0 0.1,0 0.1,0 0.1,0 0.1,0 0.1,0 0.1,0 0.1,0 0.1,0 0.1,0 0.1,0 0.1,0 0.1,0 0.1,0 0.1,0 0.1,0 0.1,0 0.1,0 0.1,0 0.1,0 0.1,0 0.1,0 0.1,0 0.1,0 0.1,0 0.1,0 0.1,0 0.1,0 0.1,0 0.1,0 0.1,0 0.1,0 0.1,0 0.1,0 0.1,0 0.1,0 0.1,0 0.1,0 0.1,0 0.1,0 0.1,0 0.1,0 0.1,0 0.1,0 0.1,0 0.1,0 0.1,0 0.1,0 0.1,0 0.1,0 0.1,0 0.1,0 0.1,0 0.1,0 0.1,0 0.1,0 0.1,0 0.1,0 0.1,0 0.1,0 0.1,0 0.1,0 0.1,0 0.1,0 0.1,0 0.1,0 0.1,0 0.1,0 0.1,0 0.1,0 0.1,0 0.1,0 0.1,0 0.1,0 0.1,0 0.1,0 0.1,0 0.1,0 0.1,0 0.1,0 0.1,0 0.1,0 0.1,0 0.1,0 0.1,0 0.1,0 0.1,0 0.1,0 0.1,0 0.1,0 0.1,0 0.1,0 0.1,0 0.1,0 0.1,0 0.1,0 0.1,0 0.1,0 0.1,0 0.1,0 0.1,0 0.1,0 0.1,0 0.1,0 0.1,0 0.1,0 0.1,0 0.1,0 0.1,0 0.1,0 0.1,0 0.1,0 0.1,0 0.1,0 0.1,0 0.1,0 0.1,0 0.1,0 0.1,0 0.1,0 0.1,0 0.1,0 0.1,0 0.1,0 0.1,0 0.1,0 0.1,0 0.1,0 0.1,0 0.1,0 0.1,0 0.1,0 0.1,0 0.1,0 0.1,0 0.1,0 0.1,0 0.1,0 0.1,0 0.1,0 0.1,0 0.1,0 0.1,0 0.1,0 0.1,0 0.1,0 0.1,0 0.1,0 0.1,0 0.1,0 0.1,0 0.1,0 0.1,0 0.1,0 0.1,0 0.1,0 0.1,0 0.1,0 0.1,0 0.1,0 0.1,0 0.1,0 0.1,0 0.1,0 0.1,0 0.1,0 0.1,0 0.1,0 0.1,0 0.1,0 0.1,0 0.1,0 0.1,0 0.1,0 0.1,0 0.1,0 0.1,0 0.1,0 0.1,0 0.1,0 0.1,0 0.1,0 0.1,0 0.1,0 0.1,0 0.1,0 0.1,0 0.1,0 0.1,0 0.1,0 0.1,0 0.1,0 0.1,0 0.1,0 0.1,0 0.1,0 0.1,0 0.1,0 0.1,0 0.1,0 0.1,0 0.1,0 0.1,0 0.1,0 0.1,0 0.1,0 0.1,0 0.1,0 0.1,0 0.1,0 0.1,0 0.1,0 0.1,0 0.1,0 0.1,0 0.1,0 0.1,0 0.1,0 0.1,0 0.1,0 0.1,0 0.1,0 0.1,0 0.1,0 0.1,0 0.1,0 0.1,0 0.1,0 0.1,0 0.1,0 0.1,0 0.1,0 0.1,0 0.1,0 0.1,0 0.1,0 0.1,0 0.1,0 0.1,0 0.1,0 0.1,0 0.1,0 0.1,0 0.1,0 0.1,0 0.1,0 0.1,0 0.1,0 0.1,0 0.1,0 0.1,0 0.1,0 0.1,0 0.1,0 0.1,0 0.1,0 0.1,0 0.1,0 0.1,0 0.1,0 0.1,0 0.1,0 0.1,0 0.1,0 0.1,0 0.1,0 0.1,0 0.1,0 0.1,0 0.1,0 0.1,0 0.1,0 0.1,0 0.1,0 0.1,0 0.1,0 0.1,0 0.1,0 0.1,0 0.1,0 0.1,0 0.1,0 0.1,0 0.1,0 0.1,0 0.1,0 0.1,0 0.1,0 0.1,0 0.1,0 0.1,0 0.1,0 0.1,0 0.1,0 0.1,0 0.1,0 0.1,0 0.1,0 0.1,0 0.1,0 0.1,0 0.1,0 0.1,0 0.1,0 0.1,0 0.1,0 0.1,0 0.1,0 0.1,0 0.1,0 0.1,0 0.1,0 0.1,0 0.1,0 0.1,0 0.1,0 0.1,0 0.1,0 0.1,0 0.1,0 0.1,0 0.1,0 0.1,0 0.1,0 0.1,0 0.1,0 0.1,0 0.1,0 0.1,0 0.1,0 0.1,0 0.1,0 0.1,0 0.1,0 0.1,0 0.1,0 0.1,0 0.1,0 0.1,0 0.1,0 0.1,0 0.1,0 0.1,0 0.1,0 0.1,0 0.1,0 0.1,0 0.1,0 0.1,0 0.1,0 0.1,0 0.1,0 0.1,0 0.1,0 0.1,0 0.1,0 0.1,0 0.1,0 0.1,0 0.1,0 0.1,0 0.1,0 0.1,0 0.1,0 0.1,0 0.1,0 0.1,0 0.1,0 0.1,0 0.1,0 0.1,0 0.1,0 0.1,0 0.1,0 0.1,0 0.1,0 0.1,0 0.1,0 0.1,0 0.1,0 0.1,0 0.1,0 0.1,0 0.1,0 0.1,0 0.1,0 0.1,0 0.1,0 0.1,0 0.1,0 0.1,0 0.1,0 0.1,0 0.1,0 0.1,0 0.1,0 0.1,0 0.1,0 0.1,0 0.1,0 0.1,0 0.1,0 0.1,0 0.1,0 0.1,0 0.1,0 0.1,0 0.1,0 0.1,0 0.1,0 0.1,0 0.1,0 0.1,0 0.1,0 0.1,0 0.1,0 0.1,0 0.1,0 0.1,0 0.1,0 0.1,0 0.1,0 0.1,0 0.1,0 0.1,0 0.1,0 0.1,0 0.1,0 0.1,0 0.1,0 0.1,0 0.1,0 0.1,0 0.1,0 0.1,0 0.1,0 0.1,0 0.1,0 0.1,0 0.1,0 0.1,0 0.1,0 0.1,0 0.1,0 0.1,0 0.1,0 0.1,0 0.1,0 0.1,0 0.1,0 0.1,0 0.1,0 0.1,0 0.1,0 0.1,0 0.1,0 0.1,0 h 0.01"
           id="path3930"
           inkscape:connector-curvature="0"
           style="stroke:#a3a3a3;stroke-opacity:1" />
      </g>
    </g>
    <g
       id="gnuplot_plot_3a">
      <title
         id="title3933">gnuplot_plot_3a</title>
      <g
         style="color:#ff0000;fill:none;stroke:currentColor;stroke-width:3;stroke-linecap:butt;stroke-linejoin:miter"
         id="g3935">
        <g
           transform="translate(513.9,50.3)"
           style="font-size:12.5px;text-anchor:end;fill:#000000;stroke:none"
           id="g3937">
          <text
             id="text3939">
            <tspan
               id="tspan3941">random 3</tspan>
          </text>
        </g>
        <path
           d="m 519.5,47.3 28.4,0 M 42.8,82.2 73.9,136 l 18.2,2.7 12.9,1.3 10,3.7 8.2,11.2 6.9,8.2 6,20.4 5.2,4.6 4.8,1.5 4.2,0.7 3.9,3.2 3.6,1.7 3.3,0.9 3.1,2.8 2.9,1 2.8,1 2.5,4.4 2.4,0 2.3,0 2.2,1.2 2.1,1.3 2,0 1.9,0 1.9,1.3 1.7,0 1.7,1.3 1.6,1.5 1.6,1.4 1.5,0 1.5,3.2 1.4,3.5 1.4,0 1.3,0 1.3,1.9 1.3,2 1.2,2.2 1.2,4.7 1.2,0 1.1,0 1.1,2.7 1.1,2.9 1.1,0 1,0 1,0 1,3.1 1,0 0.9,0 0.9,3.5 0.9,0 0.9,0 0.9,0 0.8,0 0.9,0 0.8,0 0.8,0 0.8,0 0.8,3.9 0.8,0 0.7,0 0.8,0 0.7,0 0.7,0 0.7,0 0.7,4.5 0.7,0 0.7,0 0.6,0 0.7,0 0.6,0 0.7,0 0.6,0 0.6,0 0.6,0 0.6,5.1 0.6,0 0.6,0 0.6,0 0.5,0 0.6,0 0.6,0 0.5,0 0.6,0 0.5,0 0.5,0 0.6,0 0.5,6 0.5,0 0.5,0 0.5,0 0.5,0 0.5,0 0.5,0 0.4,0 0.5,0 0.5,0 0.5,0 0.4,0 0.5,0 0.4,0 0.5,0 0.4,0 0.4,0 0.5,0 0.4,0 0.4,0 0.5,0 0.4,0 0.4,0 0.4,7.4 0.4,0 0.4,0 0.4,0 0.4,0 0.4,0 0.4,0 0.4,0 0.3,0 0.4,0 0.4,0 0.4,0 0.3,0 0.4,0 0.4,0 0.3,0 0.4,0 0.3,0 0.4,0 0.3,0 0.4,0 0.3,0 0.4,0 0.3,0 0.3,0 0.4,9.6 0.3,0 0.3,0 0.4,0 0.3,0 0.3,0 0.3,0 0.3,0 0.4,0 0.3,0 0.3,0 0.3,0 0.3,0 0.3,0 0.3,0 0.3,0 0.3,0 0.3,0 0.3,0 0.3,0 0.3,0 0.3,0 0.2,0 0.3,0 0.3,0 0.3,0 0.3,0 0.3,0 0.2,0 0.3,0 0.3,0 0.2,0 0.3,0 0.3,0 0.3,0 0.2,0 0.3,0 0.2,0 0.3,0 0.3,0 0.2,0 0.3,0 0.2,0 0.3,0 0.2,0 0.3,0 0.2,0 0.3,0 0.2,0 0.3,0 0.2,0 0.2,0 0.3,0 0.2,0 0.3,0 0.2,0 0.2,0 0.3,0 0.2,0 0.2,0 0.3,0 0.2,0 0.2,0 0.3,0 0.2,0 0.2,0 0.2,0 0.3,0 0.2,0 0.2,0 0.2,0 0.2,0 0.2,13.5 0.3,0 0.2,0 0.2,0 0.2,0 0.2,0 0.2,0 0.2,0 0.2,0 0.3,0 0.2,0 0.2,0 0.2,0 0.2,0 0.2,0 0.2,0 0.2,0 0.2,0 0.2,0 0.2,0 0.2,0 0.2,0 0.2,0 0.2,0 0.2,0 0.2,0 0.2,0 0.1,0 0.2,0 0.2,0 0.2,0 0.2,0 0.2,0 0.2,0 0.2,0 0.2,0 0.1,0 0.2,0 0.2,0 0.2,0 0.2,0 0.2,0 0.1,0 0.2,0 0.2,0 0.2,0 0.1,0 0.2,0 0.2,0 0.2,0 0.1,0 0.2,0 0.2,0 0.2,0 0.1,0 0.2,0 0.2,0 0.2,0 0.1,0 0.2,0 0.2,0 0.1,0 0.2,0 0.2,0 0.1,0 0.2,0 0.2,0 0.1,0 0.2,0 0.1,0 0.2,0 0.2,0 0.1,0 0.2,0 0.2,0 0.1,0 0.2,0 0.1,0 0.2,0 0.1,0 0.2,0 0.2,0 0.1,0 0.2,0 0.1,0 0.2,0 0.1,0 0.2,0 0.1,0 0.2,0 0.1,0 0.2,0 0.1,0 0.2,0 0.1,0 0.2,0 0.1,0 0.2,0 0.1,0 0.2,0 0.1,0 0.2,0 0.1,0 0.2,0 0.1,0 0.1,0 0.2,0 0.1,0 0.2,0 0.1,0 0.2,0 0.1,0 0.1,0 0.2,0 0.1,0 0.2,0 0.1,0 0.1,0 0.2,0 0.1,0 0.2,0 0.1,0 0.1,0 0.2,0 0.1,0 0.1,0 0.2,0 0.1,0 0.1,0 0.2,0 0.1,0 0.1,0 0.2,0 0.1,0 0.1,0 0.2,0 0.1,0 0.1,0 0.2,0 0.1,0 0.1,0 0.1,0 0.2,0 0.1,0 0.1,0 0.2,0 0.1,0 0.1,0 0.1,0 0.2,0 0.1,0 0.1,0 0.1,0 0.2,0 0.1,0 0.1,0 0.1,0 0.2,0 0.1,0 0.1,0 0.1,0 0.1,0 0.2,0 0.1,0 0.1,0 0.1,0 0.2,0 0.1,0 0.1,0 0.1,0 0.1,0 0.2,0 0.1,0 0.1,0 0.1,0 0.1,0 0.1,0 0.2,0 0.1,0 0.1,0 0.1,0 0.1,0 0.1,0 0.2,0 0.1,0 0.1,0 0.1,0 0.1,0 0.1,0 0.1,0 0.2,0 0.1,0 0.1,0 0.1,0 0.1,0 0.1,0 0.1,0 0.1,0 0.1,0 0.2,0 0.1,0 0.1,0 0.1,0 0.1,0 0.1,0 0.1,0 0.1,0 0.1,0 0.1,0 0.1,0 0.2,23 0.1,0 0.1,0 0.1,0 0.1,0 0.1,0 0.1,0 0.1,0 0.1,0 0.1,0 0.1,0 0.1,0 0.1,0 0.1,0 0.1,0 0.1,0 0.1,0 0.1,0 0.2,0 0.1,0 0.1,0 0.1,0 0.1,0 0.1,0 0.1,0 0.1,0 0.1,0 0.1,0 0.1,0 0.1,0 0.1,0 0.1,0 0.1,0 0.1,0 0.1,0 0.1,0 0.1,0 0.1,0 0.1,0 0.1,0 0.1,0 0.1,0 0.1,0 0.1,0 0.1,0 0.1,0 0.1,0 0.1,0 0.1,0 0.1,0 0.1,0 0.1,0 0.1,0 0.1,0 0.1,0 0.1,0 0.1,0 0.1,0 0.1,0 0.1,0 0.1,0 0.1,0 0.1,0 0.1,0 0.1,0 0.1,0 0.1,0 0.1,0 0.1,0 0.1,0 0.1,0 0.1,0 0.1,0 0.1,0 0.1,0 0.1,0 0.1,0 0.1,0 0.1,0 0.1,0 0.1,0 0.1,0 0.1,0 0.1,0 0.1,0 0.1,0 0.1,0 0.1,0 0.1,0 0.1,0 0.1,0 0.1,0 0.1,0 0.1,0 0.1,0 0.1,0 0.1,0 0.1,0 0.1,0 0.1,0 0.1,0 0.1,0 0.1,0 0.1,0 0.1,0 0.1,0 0.1,0 0.1,0 0.1,0 0.1,0 0.1,0 0.1,0 0.1,0 0.1,0 0.1,0 0.1,0 0.1,0 0.1,0 0.1,0 0.1,0 0.1,0 0.1,0 0.1,0 0.1,0 0.1,0 0.1,0 0.1,0 0.1,0 0.1,0 0.1,0 0.1,0 0.1,0 0.1,0 0.1,0 0.1,0 0.1,0 0.1,0 0.1,0 0.1,0 0.1,0 0.1,0 0.1,0 0.1,0 0.1,0 0.1,0 0.1,0 0.1,0 0.1,0 0.1,0 0.1,0 0.1,0 0.1,0 0.1,0 0.1,0 0.1,0 0.1,0 0.1,0 0.1,0 0.1,0 0.1,0 0.1,0 0.1,0 0.1,0 0.1,0 0.1,0 0.1,0 0.1,0 0.1,0 0.1,0 0.1,0 0.1,0 0.1,0 0.1,0 0.1,0 0.1,0 0.1,0 0.1,0 0.1,0 0.1,0 0.1,0 0.1,0 0.1,0 0.1,0 0.1,0 0.1,0 0.1,0 0.1,0 0.1,0 0.1,0 0.1,0 0.1,0 0.1,0 0.1,0 0.1,0 0.1,0 0.1,0 0.1,0 0.1,0 0.1,0 0.1,0 0.1,0 0.1,0 0.1,0 0.1,0 0.1,0 0.1,0 0.1,0 0.1,0 0.1,0 0.1,0 0.1,0 0.1,0 0.1,0 0.1,0 0.1,0 0.1,0 0.1,0 0.1,0 0.1,0 0.1,0 0.1,0 0.1,0 0.1,0 0.1,0 0.1,0 0.1,0 0.1,0 0.1,0 0.1,0 0.1,0 0.1,0 0.1,0 0.1,0 0.1,0 0.1,0 0.1,0 0.1,0 0.1,0 0.1,0 0.1,0 0.1,0 0.1,0 0.1,0 0.1,0 0.1,0 0.1,0 0.1,0 0.1,0 0.1,0 0.1,0 0.1,0 0.1,0 0.1,0 0.1,0 0.1,0 0.1,0 0.1,0 0.1,0 0.1,0 0.1,0 0.1,0 0.1,0 0.1,0 0.1,0 0.1,0 0.1,0 0.1,0 0.1,0 0.1,0 0.1,0 0.1,0 0.1,0 0.1,0 0.1,0 0.1,0 0.1,0 0.1,0 0.1,0 0.1,0 0.1,0 0.1,0 0.1,0 0.1,0 0.1,0 0.1,0 0.1,0 0.1,0 0.1,0 0.1,0 0.1,0 0.1,0 0.1,0 0.1,0 0.1,0 0.1,0 0.1,0 0.1,0 0.1,0 0.1,0 0.1,0 0.1,0 0.1,0 0.1,0 0.1,0 0.1,0 0.1,0 0.1,0 0.1,0 0.1,0 0.1,0 0.1,0 0.1,0 0.1,0 0.1,0 0.1,0 0.1,0 0.1,0 0.1,0 0.1,0 0.1,0 0.1,0 0.1,0 0.1,0 0.1,0 0.1,0 0.1,0 0.1,0 0.1,0 0.1,0 0.1,0 0.1,0 0.1,0 0.1,0 0.1,0 0.1,0 0.1,0 0.1,0 0.1,0 0.1,0 0.1,0 0.1,0 0.1,0 0.1,0 0.1,0 0.1,0 0.1,0 0.1,0 0.1,0 0.1,0 0.1,0 0.1,0 0.1,0 0.1,0 0.1,0 0.1,0 0.1,0 0.1,0 0.1,0 0.1,0 0.1,0 0.1,0 0.1,0 0.1,0 0.1,0 0.1,0 0.1,0 0.1,0 0.1,0 0.1,0 0.1,0 0.1,0 0.1,0 0.1,0 0.1,0 0.1,0 0.1,0 0.1,0 0.1,0 0.1,0 0.1,0 0.1,0 0.1,0 0.1,0 0.1,0 0.1,0 0.1,0 0.1,0 0.1,0 0.1,0 0.1,0 0.1,0 0.1,0 0.1,0 0.1,0 0.1,0 0.1,0 0.1,0 0.1,0 0.1,0 0.1,0 0.1,0 0.1,0 0.1,0 0.1,0 0.1,0 0.1,0 0.1,0 0.1,0 0.1,0 0.1,0 0.1,0 0.1,0 0.1,0 0.1,0 0.1,0 0.1,0 0.1,0 0.1,0 0.1,0 0.1,0 0.1,0 0.1,0 0.1,0 0.1,0 0.1,0 0.1,0 0.1,0 0.1,0 0.1,0 0.1,0 0.1,0 0.1,0 0.1,0 0.1,0 0.1,0 0.1,0 0.1,0 0.1,0 0.1,0 0.1,0 0.1,0 0.1,0 0.1,0 0.1,0 0.1,0 0.1,0 0.1,0 0.1,0 0.1,0 0.1,0 0.1,0 0.1,0 0.1,0 0.1,0 0.1,0 0.1,0 0.1,0 0.1,0 0.1,0 0.1,0 0.1,0 0.1,0 0.1,0 0.1,0 0.1,0 0.1,0 0.1,0 0.1,0 0.1,0 0.1,0 0.1,0 0.1,0 0.1,0 0.1,0 0.1,0 0.1,0 0.1,0 0.1,0 0.1,0 0.1,0 0.1,0 0.1,0 0.1,0 0.1,0 0.1,0 0.1,0 0.1,0 0.1,0 0.1,0 0.1,0 0.1,0 0.1,0 0.1,0 0.1,0 0.1,0 0.1,0 0.1,0 0.1,0 0.1,0 0.1,0 0.1,0 0.1,0 0.1,0 0.1,0 0.1,0 0.1,0 0.1,0 0.1,0 0.1,0 0.1,0 0.1,0 0.1,0 0.1,0 0.1,0 0.1,0 0.1,0 0.1,0 0.1,0 0.1,0 0.1,0 0.1,0 0.1,0 0.1,0 0.1,0 0.1,0 0.1,0 0.1,0 0.1,0 0.1,0 0.1,0 0.1,0 0.1,0 0.1,0 0.1,0 0.1,0 0.1,0 0.1,0 0.1,0 0.1,0 0.1,0 0.1,0 0.1,0 0.1,0 0.1,0 0.1,0 0.1,0 0.1,0 0.1,0 0.1,0 0.1,0 0.1,0 0.1,0 0.1,0 0.1,0 0.1,0 0.1,0 0.1,0 0.1,0 0.1,0 0.1,0 0.1,0 0.1,0 0.1,0 0.1,0 0.1,0 0.1,0 0.1,0 0.1,0 0.1,0 0.1,0 0.1,0 0.1,0 0.1,0 0.1,0 0.1,0 0.1,0 0.1,0 0.1,0 0.1,0 0.1,0 0.1,0 0.1,0 0.1,0 0.1,0 0.1,0 0.1,0 0.1,0 0.1,0 0.1,0 0.1,0 0.1,0 0.1,0 0.1,0 0.1,0 0.1,0 0.1,0 0.1,0 0.1,0 0.1,0 0.1,0 0.1,0 0.1,0 0.1,0 0.1,0 0.1,0 0.1,0 0.1,0 0.1,0 0.1,0 0.1,0 0.1,0 0.1,0 0.1,0 0.1,0 0.1,0 0.1,0 0.1,0 0.1,0 0.1,0 0.1,0 0.1,0 0.1,0 0.1,0 0.1,0 0.1,0 0.1,0 0.1,0 0.1,0 0.1,0 0.1,0 0.1,0 0.1,0 0.1,0 0.1,0 0.1,0 0.1,0 0.1,0 0.1,0 0.1,0 0.1,0 0.1,0 0.1,0 0.1,0 0.1,0 0.1,0 0.1,0 0.1,0 0.1,0 0.1,0 0.1,0 0.1,0 0.1,0 0.1,0 0.1,0 0.1,0 0.1,0 0.1,0 0.1,0 0.1,0 0.1,0 0.1,0 0.1,0 0.1,0 0.1,0 0.1,0 0.1,0 0.1,0 0.1,0 0.1,0 0.1,0 0.1,0 0.1,0 0.1,0 0.1,0 0.1,0 0.1,0 0.1,0 0.1,0 0.1,0 0.1,0 0.1,0 0.1,0 0.1,0 0.1,0 0.1,0 0.1,0 0.1,0 0.1,0 0.1,0 0.1,0 0.1,0 0.1,0 0.1,0 0.1,0 0.1,0 0.1,0 0.1,0 0.1,0 0.1,0 0.1,0 0.1,0 0.1,0 0.1,0 0.1,0 0.1,0 0.1,0 0.1,0 0.1,0 0.1,0 0.1,0 0.1,0 0.1,0 0.1,0 0.1,0 0.1,0 0.1,0 0.1,0 0.1,0 0.1,0 0.1,0 0.1,0 0.1,0 0.1,0 0.1,0 0.1,0 0.1,0 0.1,0 0.1,0 0.1,0 0.1,0 0.1,0 0.1,0 0.1,0 0.1,0 0.1,0 0.1,0 0.1,0 0.1,0 0.1,0 0.1,0 0.1,0 0.1,0 0.1,0 0.1,0 0.1,0 0.1,0 0.1,0 0.1,0 0.1,0 0.1,0 0.1,0 0.1,0 0.1,0 0.1,0 0.1,0 0.1,0 0.1,0 0.1,0 0.1,0 0.1,0 0.1,0 0.1,0 0.1,0 0.1,0 0.1,0 0.1,0 0.1,0 0.1,0 0.1,0 0.1,0 0.1,0 0.1,0 0.1,0 0.1,0 0.1,0 0.1,0 0.1,0 0.1,0 0.1,0 0.1,0 0.1,0 0.1,0 0.1,0 0.1,0 0.1,0 0.1,0 0.1,0 0.1,0 0.1,0 0.1,0 0.1,0 0.1,0 0.1,0 0.1,0 0.1,0 0.1,0 0.1,0 0.1,0 0.1,0 0.1,0 0.1,0 0.1,0 0.1,0 0.1,0 0.1,0 0.1,0 0.1,0 0.1,0 0.1,0 0.1,0 0.1,0 0.1,0 0.1,0 0.1,0 0.1,0 0.1,0 0.1,0 0.1,0 0.1,0 0.1,0 0.1,0 0.1,0 0.1,0 0.1,0 0.1,0 0.1,0 0.1,0 0.1,0 0.1,0 0.1,0 0.1,0 0.1,0 0.1,0 0.1,0 0.1,0 0.1,0 0.1,0 0.1,0 0.1,0 0.1,0 0.1,0 0.1,0 0.1,0 0.1,0 0.1,0 0.1,0 0.1,0 0.1,0 0.1,0 0.1,0 0.1,0 0.1,0 0.1,0 0.1,0 0.1,0 0.1,0 0.1,0 0.1,0 0.1,0 0.1,0 0.1,0 0.1,0 0.1,0 0.1,0 0.1,0 0.1,0 0.1,0 0.1,0 0.1,0 0.1,0 0.1,0 0.1,0 0.1,0 0.1,0 0.1,0 0.1,0 0.1,0 0.1,0 0.1,0 0.1,0 0.1,0 0.1,0 0.1,0 0.1,0 0.1,0 0.1,0 0.1,0 0.1,0 0.1,0 0.1,0 0.1,0 0.1,0 0.1,0 0.1,0 0.1,0 0.1,0 0.1,0 0.1,0 0.1,0 0.1,0 0.1,0 0.1,0 0.1,0 0.1,0 0.1,0 0.1,0 0.1,0 0.1,0 0.1,0 0.1,0 0.1,0 0.1,0 0.1,0 0.1,0 0.1,0 0.1,0 0.1,0 0.1,0 0.1,0 0.1,0 0.1,0 0.1,0 0.1,0 0.1,0 0.1,0 0.1,0 0.1,0 0.1,0 0.1,0 0.1,0 0.1,0 0.1,0 0.1,0 0.1,0 0.1,0 0.1,0 0.1,0 0.1,0 0.1,0 0.1,0 0.1,0 0.1,0 0.1,0 0.1,0 0.1,0 0.1,0 0.1,0 0.1,0 0.1,0 0.1,0 0.1,0 0.1,0 0.1,0 0.1,0 0.1,0 0.1,0 0.1,0 0.1,0 0.1,0 0.1,0 0.1,0 0.1,0 0.1,0 0.1,0 0.1,0 0.1,0 0.1,0 0.1,0 0.1,0 0.1,0 0.1,0 0.1,0 0.1,0 0.1,0 0.1,0 0.1,0 0.1,0 0.1,0 0.1,0 0.1,0 0.1,0 0.1,0 0.1,0 0.1,0 0.1,0 0.1,0 0.1,0 0.1,0 0.1,0 0.1,0 0.1,0 0.1,0 0.1,0 0.1,0 0.1,0 0.1,0 0.1,0 0.1,0 0.1,0 0.1,0 0.1,0 0.1,0 0.1,0 0.1,0 0.1,0 0.1,0 0.1,0 0.1,0 0.1,0 0.1,0 0.1,0 0.1,0 0.1,0 0.1,0 0.1,0 0.1,0 0.1,0 0.1,0 0.1,0 0.1,0 0.1,0 0.1,0 0.1,0 0.1,0 0.1,0 0.1,0 0.1,0 0.1,0 0.1,0 0.1,0 0.1,0 0.1,0 0.1,0 0.1,0 0.1,0 0.1,0 0.1,0 0.1,0 0.1,0 0.1,0 0.1,0 0.1,0 0.1,0 0.1,0 0.1,0 0.1,0 0.1,0 0.1,0 0.1,0 0.1,0 0.1,0 0.1,0 0.1,0 0.1,0 0.1,0 0.1,0 0.1,0 0.1,0 0.1,0 0.1,0 0.1,0 0.1,0 0.1,0 0.1,0 0.1,0 0.1,0 0.1,0 0.1,0 0.1,0 0.1,0 0.1,0 0.1,0 0.1,0 0.1,0 0.1,0 0.1,0 0.1,0 0.1,0 0.1,0 0.1,0 0.1,0 0.1,0 0.1,0 0.1,0 0.1,0 0.1,0 0.1,0 0.1,0 0.1,0 0.1,0 0.1,0 0.1,0 0.1,0 0.1,0 0.1,0 0.1,0 0.1,0 0.1,0 0.1,0 0.1,0 0.1,0 0.1,0 0.1,0 0.1,0 0.1,0 0.1,0 0.1,0 0.1,0 0.1,0 0.1,0 0.1,0 0.1,0 0.1,0 0.1,0 0.1,0 0.1,0 0.1,0 0.1,0 0.1,0 0.1,0 0.1,0 0.1,0 0.1,0 0.1,0 0.1,0 0.1,0 0.1,0 0.1,0 0.1,0 0.1,0 0.1,0 0.1,0 0.1,0 0.1,0 0.1,0 0.1,0 0.1,0 0.1,0 0.1,0 0.1,0 0.1,0 0.1,0 0.1,0 0.1,0 0.1,0 0.1,0 0.1,0 0.1,0 0.1,0 0.1,0 0.1,0 0.1,0 0.1,0 0.1,0 0.1,0 0.1,0 0.1,0 0.1,0 0.1,0 0.1,0 0.1,0 0.1,0 0.1,0 0.1,0 0.1,0 0.1,0 0.1,0 0.1,0 0.1,0 0.1,0 0.1,0 0.1,0 0.1,0 0.1,0 0.1,0 0.1,0 0.1,0 0.1,0 0.1,0 h 0.01"
           id="path3943"
           inkscape:connector-curvature="0"
           style="stroke:#808080;stroke-opacity:1" />
      </g>
    </g>
    <g
       id="gnuplot_plot_4a">
      <title
         id="title3946">gnuplot_plot_4a</title>
      <g
         style="color:#ff0000;fill:none;stroke:currentColor;stroke-width:3;stroke-linecap:butt;stroke-linejoin:miter"
         id="g3948">
        <g
           transform="translate(513.9,62.3)"
           style="font-size:12.5px;text-anchor:end;fill:#000000;stroke:none"
           id="g3950">
          <text
             id="text3952">
            <tspan
               id="tspan3954">random 4</tspan>
          </text>
        </g>
        <path
           d="m 519.5,59.3 28.4,0 M 42.8,43.5 l 31.1,34.7 18.2,35.1 12.9,4.7 10,11.7 8.2,14.5 6.9,5.9 6,1.5 5.2,0.1 4.8,1.3 4.2,12.1 3.9,0.8 3.6,8.2 3.3,5 3.1,2.3 2.9,2.2 2.8,3.1 2.5,0.9 2.4,2.9 2.3,1.5 2.2,6.3 2.1,0.6 2,0 1.9,5 1.9,0 1.7,3 1.7,0.7 1.6,0.4 1.6,2.6 1.5,0 1.5,4.2 1.4,1 1.4,4.3 1.3,0.6 1.3,0 1.3,1.8 1.2,0.7 1.2,0 1.2,0 1.1,1.3 1.1,0.6 1.1,0 1.1,0.7 1,0 1,0 1,2.2 1,0.7 0.9,1.6 0.9,2.4 0.9,0 0.9,0.9 0.9,0 0.8,0.9 0.9,0 0.8,1.8 0.8,1 0.8,1 0.8,0 0.8,4.3 0.7,1.1 0.8,0 0.7,1.2 0.7,0 0.7,0 0.7,0 0.7,1.3 0.7,1.3 0.6,0 0.7,1.3 0.6,1.5 0.7,1.4 0.6,0 0.6,0 0.6,0 0.6,1.6 0.6,0 0.6,1.6 0.6,0 0.5,1.7 0.6,0 0.6,0 0.5,0 0.6,0 0.5,1.8 0.5,0 0.6,0 0.5,1.9 0.5,0 0.5,0 0.5,2 0.5,0 0.5,0 0.5,0 0.4,2.2 0.5,0 0.5,0 0.5,2.2 0.4,0 0.5,0 0.4,0 0.5,0 0.4,0 0.4,0 0.5,0 0.4,2.5 0.4,0 0.5,0 0.4,0 0.4,0 0.4,0 0.4,0 0.4,0 0.4,2.7 0.4,0 0.4,0 0.4,0 0.4,0 0.3,0 0.4,0 0.4,0 0.4,0 0.3,0 0.4,2.9 0.4,0 0.3,0 0.4,0 0.3,0 0.4,0 0.3,0 0.4,0 0.3,0 0.4,3.1 0.3,0 0.3,0 0.4,0 0.3,0 0.3,0 0.4,0 0.3,0 0.3,0 0.3,0 0.3,0 0.4,0 0.3,3.5 0.3,0 0.3,0 0.3,0 0.3,0 0.3,0 0.3,0 0.3,0 0.3,0 0.3,0 0.3,0 0.3,0 0.3,0 0.2,0 0.3,3.9 0.3,0 0.3,0 0.3,0 0.3,0 0.2,0 0.3,0 0.3,0 0.2,0 0.3,0 0.3,0 0.3,0 0.2,0 0.3,0 0.2,0 0.3,0 0.3,0 0.2,0 0.3,4.5 0.2,0 0.3,0 0.2,0 0.3,0 0.2,0 0.3,0 0.2,0 0.3,0 0.2,0 0.2,0 0.3,0 0.2,0 0.3,0 0.2,0 0.2,0 0.3,0 0.2,0 0.2,0 0.3,5.1 0.2,0 0.2,0 0.3,0 0.2,0 0.2,0 0.2,0 0.3,0 0.2,0 0.2,0 0.2,0 0.2,6 0.2,0 0.3,0 0.2,0 0.2,0 0.2,0 0.2,0 0.2,0 0.2,0 0.2,0 0.3,0 0.2,0 0.2,0 0.2,0 0.2,0 0.2,0 0.2,0 0.2,0 0.2,0 0.2,0 0.2,0 0.2,0 0.2,0 0.2,0 0.2,0 0.2,0 0.2,0 0.2,0 0.1,0 0.2,0 0.2,0 0.2,0 0.2,0 0.2,0 0.2,0 0.2,0 0.2,0 0.1,0 0.2,0 0.2,0 0.2,0 0.2,0 0.2,7.4 0.1,0 0.2,0 0.2,0 0.2,0 0.1,0 0.2,0 0.2,0 0.2,0 0.1,0 0.2,0 0.2,0 0.2,0 0.1,0 0.2,0 0.2,0 0.2,0 0.1,0 0.2,0 0.2,0 0.1,0 0.2,0 0.2,0 0.1,0 0.2,0 0.2,0 0.1,0 0.2,0 0.1,0 0.2,0 0.2,0 0.1,0 0.2,0 0.2,0 0.1,0 0.2,0 0.1,0 0.2,0 0.1,0 0.2,0 0.2,0 0.1,0 0.2,0 0.1,0 0.2,0 0.1,0 0.2,0 0.1,0 0.2,0 0.1,0 0.2,0 0.1,0 0.2,0 0.1,0 0.2,0 0.1,0 0.2,0 0.1,0 0.2,0 0.1,0 0.2,0 0.1,9.6 0.2,0 0.1,0 0.1,0 0.2,0 0.1,0 0.2,0 0.1,0 0.2,0 0.1,0 0.1,0 0.2,0 0.1,0 0.2,0 0.1,0 0.1,0 0.2,0 0.1,0 0.2,0 0.1,0 0.1,0 0.2,0 0.1,0 0.1,0 0.2,0 0.1,0 0.1,0 0.2,0 0.1,0 0.1,0 0.2,0 0.1,0 0.1,0 0.2,0 0.1,0 0.1,0 0.2,0 0.1,0 0.1,0 0.1,0 0.2,0 0.1,0 0.1,0 0.2,0 0.1,0 0.1,0 0.1,0 0.2,0 0.1,0 0.1,0 0.1,0 0.2,0 0.1,0 0.1,0 0.1,0 0.2,0 0.1,0 0.1,0 0.1,0 0.1,0 0.2,0 0.1,0 0.1,0 0.1,0 0.2,0 0.1,0 0.1,0 0.1,0 0.1,0 0.2,0 0.1,0 0.1,0 0.1,0 0.1,0 0.1,0 0.2,0 0.1,0 0.1,0 0.1,0 0.1,0 0.1,0 0.2,0 0.1,0 0.1,0 0.1,0 0.1,0 0.1,0 0.1,0 0.2,0 0.1,0 0.1,0 0.1,0 0.1,0 0.1,0 0.1,0 0.1,0 0.1,0 0.2,0 0.1,0 0.1,0 0.1,0 0.1,0 0.1,0 0.1,0 0.1,0 0.1,0 0.1,0 0.1,0 0.2,0 0.1,0 0.1,0 0.1,13.5 0.1,0 0.1,0 0.1,0 0.1,0 0.1,0 0.1,0 0.1,0 0.1,0 0.1,0 0.1,0 0.1,0 0.1,0 0.1,0 0.1,0 0.2,0 0.1,0 0.1,0 0.1,0 0.1,0 0.1,0 0.1,0 0.1,0 0.1,0 0.1,0 0.1,0 0.1,0 0.1,0 0.1,0 0.1,0 0.1,0 0.1,0 0.1,0 0.1,0 0.1,0 0.1,0 0.1,0 0.1,0 0.1,0 0.1,0 0.1,0 0.1,0 0.1,0 0.1,0 0.1,0 0.1,0 0.1,0 0.1,0 0.1,0 0.1,0 0.1,0 0.1,0 0.1,0 0.1,0 0.1,0 0.1,0 0.1,0 0.1,0 0.1,0 0.1,0 0.1,0 0.1,0 0.1,0 0.1,0 0.1,0 0.1,0 0.1,0 0.1,0 0.1,0 0.1,0 0.1,0 0.1,0 0.1,0 0.1,0 0.1,0 0.1,0 0.1,0 0.1,0 0.1,0 0.1,0 0.1,0 0.1,0 0.1,0 0.1,0 0.1,0 0.1,0 0.1,0 0.1,0 0.1,0 0.1,0 0.1,0 0.1,0 0.1,0 0.1,0 0.1,0 0.1,0 0.1,0 0.1,0 0.1,0 0.1,0 0.1,0 0.1,0 0.1,0 0.1,0 0.1,0 0.1,0 0.1,0 0.1,0 0.1,0 0.1,0 0.1,0 0.1,0 0.1,0 0.1,0 0.1,0 0.1,0 0.1,0 0.1,0 0.1,0 0.1,0 0.1,0 0.1,0 0.1,0 0.1,0 0.1,0 0.1,0 0.1,0 0.1,0 0.1,0 0.1,0 0.1,0 0.1,0 0.1,0 0.1,0 0.1,0 0.1,0 0.1,0 0.1,0 0.1,0 0.1,0 0.1,0 0.1,0 0.1,0 0.1,0 0.1,0 0.1,0 0.1,0 0.1,0 0.1,0 0.1,0 0.1,0 0.1,0 0.1,0 0.1,0 0.1,0 0.1,0 0.1,0 0.1,0 0.1,0 0.1,0 0.1,0 0.1,0 0.1,0 0.1,0 0.1,0 0.1,0 0.1,0 0.1,0 0.1,0 0.1,0 0.1,0 0.1,0 0.1,0 0.1,0 0.1,0 0.1,0 0.1,0 0.1,0 0.1,0 0.1,0 0.1,0 0.1,0 0.1,0 0.1,0 0.1,0 0.1,0 0.1,0 0.1,0 0.1,0 0.1,0 0.1,0 0.1,0 0.1,0 0.1,0 0.1,0 0.1,0 0.1,0 0.1,0 0.1,0 0.1,0 0.1,0 0.1,0 0.1,0 0.1,0 0.1,0 0.1,0 0.1,0 0.1,0 0.1,0 0.1,0 0.1,23 0.1,0 0.1,0 0.1,0 0.1,0 0.1,0 0.1,0 0.1,0 0.1,0 0.1,0 0.1,0 0.1,0 0.1,0 0.1,0 0.1,0 0.1,0 0.1,0 0.1,0 0.1,0 0.1,0 0.1,0 0.1,0 0.1,0 0.1,0 0.1,0 0.1,0 0.1,0 0.1,0 0.1,0 0.1,0 0.1,0 0.1,0 0.1,0 0.1,0 0.1,0 0.1,0 0.1,0 0.1,0 0.1,0 0.1,0 0.1,0 0.1,0 0.1,0 0.1,0 0.1,0 0.1,0 0.1,0 0.1,0 0.1,0 0.1,0 0.1,0 0.1,0 0.1,0 0.1,0 0.1,0 0.1,0 0.1,0 0.1,0 0.1,0 0.1,0 0.1,0 0.1,0 0.1,0 0.1,0 0.1,0 0.1,0 0.1,0 0.1,0 0.1,0 0.1,0 0.1,0 0.1,0 0.1,0 0.1,0 0.1,0 0.1,0 0.1,0 0.1,0 0.1,0 0.1,0 0.1,0 0.1,0 0.1,0 0.1,0 0.1,0 0.1,0 0.1,0 0.1,0 0.1,0 0.1,0 0.1,0 0.1,0 0.1,0 0.1,0 0.1,0 0.1,0 0.1,0 0.1,0 0.1,0 0.1,0 0.1,0 0.1,0 0.1,0 0.1,0 0.1,0 0.1,0 0.1,0 0.1,0 0.1,0 0.1,0 0.1,0 0.1,0 0.1,0 0.1,0 0.1,0 0.1,0 0.1,0 0.1,0 0.1,0 0.1,0 0.1,0 0.1,0 0.1,0 0.1,0 0.1,0 0.1,0 0.1,0 0.1,0 0.1,0 0.1,0 0.1,0 0.1,0 0.1,0 0.1,0 0.1,0 0.1,0 0.1,0 0.1,0 0.1,0 0.1,0 0.1,0 0.1,0 0.1,0 0.1,0 0.1,0 0.1,0 0.1,0 0.1,0 0.1,0 0.1,0 0.1,0 0.1,0 0.1,0 0.1,0 0.1,0 0.1,0 0.1,0 0.1,0 0.1,0 0.1,0 0.1,0 0.1,0 0.1,0 0.1,0 0.1,0 0.1,0 0.1,0 0.1,0 0.1,0 0.1,0 0.1,0 0.1,0 0.1,0 0.1,0 0.1,0 0.1,0 0.1,0 0.1,0 0.1,0 0.1,0 0.1,0 0.1,0 0.1,0 0.1,0 0.1,0 0.1,0 0.1,0 0.1,0 0.1,0 0.1,0 0.1,0 0.1,0 0.1,0 0.1,0 0.1,0 0.1,0 0.1,0 0.1,0 0.1,0 0.1,0 0.1,0 0.1,0 0.1,0 0.1,0 0.1,0 0.1,0 0.1,0 0.1,0 0.1,0 0.1,0 0.1,0 0.1,0 0.1,0 0.1,0 0.1,0 0.1,0 0.1,0 0.1,0 0.1,0 0.1,0 0.1,0 0.1,0 0.1,0 0.1,0 0.1,0 0.1,0 0.1,0 0.1,0 0.1,0 0.1,0 0.1,0 0.1,0 0.1,0 0.1,0 0.1,0 0.1,0 0.1,0 0.1,0 0.1,0 0.1,0 0.1,0 0.1,0 0.1,0 0.1,0 0.1,0 0.1,0 0.1,0 0.1,0 0.1,0 0.1,0 0.1,0 0.1,0 0.1,0 0.1,0 0.1,0 0.1,0 0.1,0 0.1,0 0.1,0 0.1,0 0.1,0 0.1,0 0.1,0 0.1,0 0.1,0 0.1,0 0.1,0 0.1,0 0.1,0 0.1,0 0.1,0 0.1,0 0.1,0 0.1,0 0.1,0 0.1,0 0.1,0 0.1,0 0.1,0 0.1,0 0.1,0 0.1,0 0.1,0 0.1,0 0.1,0 0.1,0 0.1,0 0.1,0 0.1,0 0.1,0 0.1,0 0.1,0 0.1,0 0.1,0 0.1,0 0.1,0 0.1,0 0.1,0 0.1,0 0.1,0 0.1,0 0.1,0 0.1,0 0.1,0 0.1,0 0.1,0 0.1,0 0.1,0 0.1,0 0.1,0 0.1,0 0.1,0 0.1,0 0.1,0 0.1,0 0.1,0 0.1,0 0.1,0 0.1,0 0.1,0 0.1,0 0.1,0 0.1,0 0.1,0 0.1,0 0.1,0 0.1,0 0.1,0 0.1,0 0.1,0 0.1,0 0.1,0 0.1,0 0.1,0 0.1,0 0.1,0 0.1,0 0.1,0 0.1,0 0.1,0 0.1,0 0.1,0 0.1,0 0.1,0 0.1,0 0.1,0 0.1,0 0.1,0 0.1,0 0.1,0 0.1,0 0.1,0 0.1,0 0.1,0 0.1,0 0.1,0 0.1,0 0.1,0 0.1,0 0.1,0 0.1,0 0.1,0 0.1,0 0.1,0 0.1,0 0.1,0 0.1,0 0.1,0 0.1,0 0.1,0 0.1,0 0.1,0 0.1,0 0.1,0 0.1,0 0.1,0 0.1,0 0.1,0 0.1,0 0.1,0 0.1,0 0.1,0 0.1,0 0.1,0 0.1,0 0.1,0 0.1,0 0.1,0 0.1,0 0.1,0 0.1,0 0.1,0 0.1,0 0.1,0 0.1,0 0.1,0 0.1,0 0.1,0 0.1,0 0.1,0 0.1,0 0.1,0 0.1,0 0.1,0 0.1,0 0.1,0 0.1,0 0.1,0 0.1,0 0.1,0 0.1,0 0.1,0 0.1,0 0.1,0 0.1,0 0.1,0 0.1,0 0.1,0 0.1,0 0.1,0 0.1,0 0.1,0 0.1,0 0.1,0 0.1,0 0.1,0 0.1,0 0.1,0 0.1,0 0.1,0 0.1,0 0.1,0 0.1,0 0.1,0 0.1,0 0.1,0 0.1,0 0.1,0 0.1,0 0.1,0 0.1,0 0.1,0 0.1,0 0.1,0 0.1,0 0.1,0 0.1,0 0.1,0 0.1,0 0.1,0 0.1,0 0.1,0 0.1,0 0.1,0 0.1,0 0.1,0 0.1,0 0.1,0 0.1,0 0.1,0 0.1,0 0.1,0 0.1,0 0.1,0 0.1,0 0.1,0 0.1,0 0.1,0 0.1,0 0.1,0 0.1,0 0.1,0 0.1,0 0.1,0 0.1,0 0.1,0 0.1,0 0.1,0 0.1,0 0.1,0 0.1,0 0.1,0 0.1,0 0.1,0 0.1,0 0.1,0 0.1,0 0.1,0 0.1,0 0.1,0 0.1,0 0.1,0 0.1,0 0.1,0 0.1,0 0.1,0 0.1,0 0.1,0 0.1,0 0.1,0 0.1,0 0.1,0 0.1,0 0.1,0 0.1,0 0.1,0 0.1,0 0.1,0 0.1,0 0.1,0 0.1,0 0.1,0 0.1,0 0.1,0 0.1,0 0.1,0 0.1,0 0.1,0 0.1,0 0.1,0 0.1,0 0.1,0 0.1,0 0.1,0 0.1,0 0.1,0 0.1,0 0.1,0 0.1,0 0.1,0 0.1,0 0.1,0 0.1,0 0.1,0 0.1,0 0.1,0 0.1,0 0.1,0 0.1,0 0.1,0 0.1,0 0.1,0 0.1,0 0.1,0 0.1,0 0.1,0 0.1,0 0.1,0 0.1,0 0.1,0 0.1,0 0.1,0 0.1,0 0.1,0 0.1,0 0.1,0 0.1,0 0.1,0 0.1,0 0.1,0 0.1,0 0.1,0 0.1,0 0.1,0 0.1,0 0.1,0 0.1,0 0.1,0 0.1,0 0.1,0 0.1,0 0.1,0 0.1,0 0.1,0 0.1,0 0.1,0 0.1,0 0.1,0 0.1,0 0.1,0 0.1,0 0.1,0 0.1,0 0.1,0 0.1,0 0.1,0 h 0.01"
           id="path3956"
           inkscape:connector-curvature="0"
           style="stroke:#6a6a6a;stroke-opacity:1" />
      </g>
    </g>
    <g
       id="gnuplot_plot_5a">
      <title
         id="title3959">gnuplot_plot_5a</title>
      <g
         style="color:#ff0000;fill:none;stroke:currentColor;stroke-width:3;stroke-linecap:butt;stroke-linejoin:miter"
         id="g3961">
        <g
           transform="translate(513.9,74.3)"
           style="font-size:12.5px;text-anchor:end;fill:#000000;stroke:none"
           id="g3963">
          <text
             id="text3965">
            <tspan
               id="tspan3967">random 5</tspan>
          </text>
        </g>
        <path
           d="m 519.5,71.3 28.4,0 m -505.1,34.8 31.1,45.6 18.2,3.5 12.9,0 10,27.6 8.2,1.3 6.9,0 6,8.7 5.2,3.5 4.8,1.9 4.2,0 3.9,0 3.6,2 3.3,4.5 3.1,0 2.9,8 2.8,0 2.5,3.1 2.4,3.5 2.3,3.9 2.2,4.5 2.1,0 2,0 1.9,0 1.9,5.1 1.7,0 1.7,0 1.6,0 1.6,0 1.5,6 1.5,0 1.4,0 1.4,0 1.3,0 1.3,0 1.3,0 1.2,0 1.2,7.5 1.2,0 1.1,0 1.1,0 1.1,0 1.1,0 1,0 1,0 1,9.5 1,0 0.9,0 0.9,0 0.9,0 0.9,0 0.9,0 0.8,0 0.9,0 0.8,0 0.8,0 0.8,0 0.8,0 0.8,0 0.7,0 0.8,0 0.7,0 0.7,0 0.7,0 0.7,0 0.7,0 0.7,0 0.6,0 0.7,13.5 0.6,0 0.7,0 0.6,0 0.6,0 0.6,0 0.6,0 0.6,0 0.6,0 0.6,0 0.5,0 0.6,0 0.6,0 0.5,0 0.6,0 0.5,0 0.5,0 0.6,0 0.5,0 0.5,0 0.5,0 0.5,0 0.5,0 0.5,0 0.5,0 0.4,0 0.5,0 0.5,0 0.5,0 0.4,0 0.5,0 0.4,0 0.5,0 0.4,0 0.4,0 0.5,0 0.4,0 0.4,0 0.5,0 0.4,0 0.4,0 0.4,0 0.4,0 0.4,0 0.4,0 0.4,0 0.4,0 0.4,0 0.4,0 0.3,0 0.4,0 0.4,0 0.4,0 0.3,0 0.4,0 0.4,0 0.3,0 0.4,0 0.3,0 0.4,0 0.3,0 0.4,0 0.3,0 0.4,0 0.3,0 0.3,0 0.4,23 0.3,0 0.3,0 0.4,0 0.3,0 0.3,0 0.3,0 0.3,0 0.4,0 0.3,0 0.3,0 0.3,0 0.3,0 0.3,0 0.3,0 0.3,0 0.3,0 0.3,0 0.3,0 0.3,0 0.3,0 0.3,0 0.2,0 0.3,0 0.3,0 0.3,0 0.3,0 0.3,0 0.2,0 0.3,0 0.3,0 0.2,0 0.3,0 0.3,0 0.3,0 0.2,0 0.3,0 0.2,0 0.3,0 0.3,0 0.2,0 0.3,0 0.2,0 0.3,0 0.2,0 0.3,0 0.2,0 0.3,0 0.2,0 0.3,0 0.2,0 0.2,0 0.3,0 0.2,0 0.3,0 0.2,0 0.2,0 0.3,0 0.2,0 0.2,0 0.3,0 0.2,0 0.2,0 0.3,0 0.2,0 0.2,0 0.2,0 0.3,0 0.2,0 0.2,0 0.2,0 0.2,0 0.2,0 0.3,0 0.2,0 0.2,0 0.2,0 0.2,0 0.2,0 0.2,0 0.2,0 0.3,0 0.2,0 0.2,0 0.2,0 0.2,0 0.2,0 0.2,0 0.2,0 0.2,0 0.2,0 0.2,0 0.2,0 0.2,0 0.2,0 0.2,0 0.2,0 0.2,0 0.2,0 0.1,0 0.2,0 0.2,0 0.2,0 0.2,0 0.2,0 0.2,0 0.2,0 0.2,0 0.1,0 0.2,0 0.2,0 0.2,0 0.2,0 0.2,0 0.1,0 0.2,0 0.2,0 0.2,0 0.1,0 0.2,0 0.2,0 0.2,0 0.1,0 0.2,0 0.2,0 0.2,0 0.1,0 0.2,0 0.2,0 0.2,0 0.1,0 0.2,0 0.2,0 0.1,0 0.2,0 0.2,0 0.1,0 0.2,0 0.2,0 0.1,0 0.2,0 0.1,0 0.2,0 0.2,0 0.1,0 0.2,0 0.2,0 0.1,0 0.2,0 0.1,0 0.2,0 0.1,0 0.2,0 0.2,0 0.1,0 0.2,0 0.1,0 0.2,0 0.1,0 0.2,0 0.1,0 0.2,0 0.1,0 0.2,0 0.1,0 0.2,0 0.1,0 0.2,0 0.1,0 0.2,0 0.1,0 0.2,0 0.1,0 0.2,0 0.1,0 0.2,0 0.1,0 0.1,0 0.2,0 0.1,0 0.2,0 0.1,0 0.2,0 0.1,0 0.1,0 0.2,0 0.1,0 0.2,0 0.1,0 0.1,0 0.2,0 0.1,0 0.2,0 0.1,0 0.1,0 0.2,0 0.1,0 0.1,0 0.2,0 0.1,0 0.1,0 0.2,0 0.1,0 0.1,0 0.2,0 0.1,0 0.1,0 0.2,0 0.1,0 0.1,0 0.2,0 0.1,0 0.1,0 0.1,0 0.2,0 0.1,0 0.1,0 0.2,0 0.1,0 0.1,0 0.1,0 0.2,0 0.1,0 0.1,0 0.1,0 0.2,0 0.1,0 0.1,0 0.1,0 0.2,0 0.1,0 0.1,0 0.1,0 0.1,0 0.2,0 0.1,0 0.1,0 0.1,0 0.2,0 0.1,0 0.1,0 0.1,0 0.1,0 0.2,0 0.1,0 0.1,0 0.1,0 0.1,0 0.1,0 0.2,0 0.1,0 0.1,0 0.1,0 0.1,0 0.1,0 0.2,0 0.1,0 0.1,0 0.1,0 0.1,0 0.1,0 0.1,0 0.2,0 0.1,0 0.1,0 0.1,0 0.1,0 0.1,0 0.1,0 0.1,0 0.1,0 0.2,0 0.1,0 0.1,0 0.1,0 0.1,0 0.1,0 0.1,0 0.1,0 0.1,0 0.1,0 0.1,0 0.2,0 0.1,0 0.1,0 0.1,0 0.1,0 0.1,0 0.1,0 0.1,0 0.1,0 0.1,0 0.1,0 0.1,0 0.1,0 0.1,0 0.1,0 0.1,0 0.1,0 0.1,0 0.2,0 0.1,0 0.1,0 0.1,0 0.1,0 0.1,0 0.1,0 0.1,0 0.1,0 0.1,0 0.1,0 0.1,0 0.1,0 0.1,0 0.1,0 0.1,0 0.1,0 0.1,0 0.1,0 0.1,0 0.1,0 0.1,0 0.1,0 0.1,0 0.1,0 0.1,0 0.1,0 0.1,0 0.1,0 0.1,0 0.1,0 0.1,0 0.1,0 0.1,0 0.1,0 0.1,0 0.1,0 0.1,0 0.1,0 0.1,0 0.1,0 0.1,0 0.1,0 0.1,0 0.1,0 0.1,0 0.1,0 0.1,0 0.1,0 0.1,0 0.1,0 0.1,0 0.1,0 0.1,0 0.1,0 0.1,0 0.1,0 0.1,0 0.1,0 0.1,0 0.1,0 0.1,0 0.1,0 0.1,0 0.1,0 0.1,0 0.1,0 0.1,0 0.1,0 0.1,0 0.1,0 0.1,0 0.1,0 0.1,0 0.1,0 0.1,0 0.1,0 0.1,0 0.1,0 0.1,0 0.1,0 0.1,0 0.1,0 0.1,0 0.1,0 0.1,0 0.1,0 0.1,0 0.1,0 0.1,0 0.1,0 0.1,0 0.1,0 0.1,0 0.1,0 0.1,0 0.1,0 0.1,0 0.1,0 0.1,0 0.1,0 0.1,0 0.1,0 0.1,0 0.1,0 0.1,0 0.1,0 0.1,0 0.1,0 0.1,0 0.1,0 0.1,0 0.1,0 0.1,0 0.1,0 0.1,0 0.1,0 0.1,0 0.1,0 0.1,0 0.1,0 0.1,0 0.1,0 0.1,0 0.1,0 0.1,0 0.1,0 0.1,0 0.1,0 0.1,0 0.1,0 0.1,0 0.1,0 0.1,0 0.1,0 0.1,0 0.1,0 0.1,0 0.1,0 0.1,0 0.1,0 0.1,0 0.1,0 0.1,0 0.1,0 0.1,0 0.1,0 0.1,0 0.1,0 0.1,0 0.1,0 0.1,0 0.1,0 0.1,0 0.1,0 0.1,0 0.1,0 0.1,0 0.1,0 0.1,0 0.1,0 0.1,0 0.1,0 0.1,0 0.1,0 0.1,0 0.1,0 0.1,0 0.1,0 0.1,0 0.1,0 0.1,0 0.1,0 0.1,0 0.1,0 0.1,0 0.1,0 0.1,0 0.1,0 0.1,0 0.1,0 0.1,0 0.1,0 0.1,0 0.1,0 0.1,0 0.1,0 0.1,0 0.1,0 0.1,0 0.1,0 0.1,0 0.1,0 0.1,0 0.1,0 0.1,0 0.1,0 0.1,0 0.1,0 0.1,0 0.1,0 0.1,0 0.1,0 0.1,0 0.1,0 0.1,0 0.1,0 0.1,0 0.1,0 0.1,0 0.1,0 0.1,0 0.1,0 0.1,0 0.1,0 0.1,0 0.1,0 0.1,0 0.1,0 0.1,0 0.1,0 0.1,0 0.1,0 0.1,0 0.1,0 0.1,0 0.1,0 0.1,0 0.1,0 0.1,0 0.1,0 0.1,0 0.1,0 0.1,0 0.1,0 0.1,0 0.1,0 0.1,0 0.1,0 0.1,0 0.1,0 0.1,0 0.1,0 0.1,0 0.1,0 0.1,0 0.1,0 0.1,0 0.1,0 0.1,0 0.1,0 0.1,0 0.1,0 0.1,0 0.1,0 0.1,0 0.1,0 0.1,0 0.1,0 0.1,0 0.1,0 0.1,0 0.1,0 0.1,0 0.1,0 0.1,0 0.1,0 0.1,0 0.1,0 0.1,0 0.1,0 0.1,0 0.1,0 0.1,0 0.1,0 0.1,0 0.1,0 0.1,0 0.1,0 0.1,0 0.1,0 0.1,0 0.1,0 0.1,0 0.1,0 0.1,0 0.1,0 0.1,0 0.1,0 0.1,0 0.1,0 0.1,0 0.1,0 0.1,0 0.1,0 0.1,0 0.1,0 0.1,0 0.1,0 0.1,0 0.1,0 0.1,0 0.1,0 0.1,0 0.1,0 0.1,0 0.1,0 0.1,0 0.1,0 0.1,0 0.1,0 0.1,0 0.1,0 0.1,0 0.1,0 0.1,0 0.1,0 0.1,0 0.1,0 0.1,0 0.1,0 0.1,0 0.1,0 0.1,0 0.1,0 0.1,0 0.1,0 0.1,0 0.1,0 0.1,0 0.1,0 0.1,0 0.1,0 0.1,0 0.1,0 0.1,0 0.1,0 0.1,0 0.1,0 0.1,0 0.1,0 0.1,0 0.1,0 0.1,0 0.1,0 0.1,0 0.1,0 0.1,0 0.1,0 0.1,0 0.1,0 0.1,0 0.1,0 0.1,0 0.1,0 0.1,0 0.1,0 0.1,0 0.1,0 0.1,0 0.1,0 0.1,0 0.1,0 0.1,0 0.1,0 0.1,0 0.1,0 0.1,0 0.1,0 0.1,0 0.1,0 0.1,0 0.1,0 0.1,0 0.1,0 0.1,0 0.1,0 0.1,0 0.1,0 0.1,0 0.1,0 0.1,0 0.1,0 0.1,0 0.1,0 0.1,0 0.1,0 0.1,0 0.1,0 0.1,0 0.1,0 0.1,0 0.1,0 0.1,0 0.1,0 0.1,0 0.1,0 0.1,0 0.1,0 0.1,0 0.1,0 0.1,0 0.1,0 0.1,0 0.1,0 0.1,0 0.1,0 0.1,0 0.1,0 0.1,0 0.1,0 0.1,0 0.1,0 0.1,0 0.1,0 0.1,0 0.1,0 0.1,0 0.1,0 0.1,0 0.1,0 0.1,0 0.1,0 0.1,0 0.1,0 0.1,0 0.1,0 0.1,0 0.1,0 0.1,0 0.1,0 0.1,0 0.1,0 0.1,0 0.1,0 0.1,0 0.1,0 0.1,0 0.1,0 0.1,0 0.1,0 0.1,0 0.1,0 0.1,0 0.1,0 0.1,0 0.1,0 0.1,0 0.1,0 0.1,0 0.1,0 0.1,0 0.1,0 0.1,0 0.1,0 0.1,0 0.1,0 0.1,0 0.1,0 0.1,0 0.1,0 0.1,0 0.1,0 0.1,0 0.1,0 0.1,0 0.1,0 0.1,0 0.1,0 0.1,0 0.1,0 0.1,0 0.1,0 0.1,0 0.1,0 0.1,0 0.1,0 0.1,0 0.1,0 0.1,0 0.1,0 0.1,0 0.1,0 0.1,0 0.1,0 0.1,0 0.1,0 0.1,0 0.1,0 0.1,0 0.1,0 0.1,0 0.1,0 0.1,0 0.1,0 0.1,0 0.1,0 0.1,0 0.1,0 0.1,0 0.1,0 0.1,0 0.1,0 0.1,0 0.1,0 0.1,0 0.1,0 0.1,0 0.1,0 0.1,0 0.1,0 0.1,0 0.1,0 0.1,0 0.1,0 0.1,0 0.1,0 0.1,0 0.1,0 0.1,0 0.1,0 0.1,0 0.1,0 0.1,0 0.1,0 0.1,0 0.1,0 0.1,0 0.1,0 0.1,0 0.1,0 0.1,0 0.1,0 0.1,0 0.1,0 0.1,0 0.1,0 0.1,0 0.1,0 0.1,0 0.1,0 0.1,0 0.1,0 0.1,0 0.1,0 0.1,0 0.1,0 0.1,0 0.1,0 0.1,0 0.1,0 0.1,0 0.1,0 0.1,0 0.1,0 0.1,0 0.1,0 0.1,0 0.1,0 0.1,0 0.1,0 0.1,0 0.1,0 0.1,0 0.1,0 0.1,0 0.1,0 0.1,0 0.1,0 0.1,0 0.1,0 0.1,0 0.1,0 0.1,0 0.1,0 0.1,0 0.1,0 0.1,0 0.1,0 0.1,0 0.1,0 0.1,0 0.1,0 0.1,0 0.1,0 0.1,0 0.1,0 0.1,0 0.1,0 0.1,0 0.1,0 0.1,0 0.1,0 0.1,0 0.1,0 0.1,0 0.1,0 0.1,0 0.1,0 0.1,0 0.1,0 0.1,0 0.1,0 0.1,0 0.1,0 0.1,0 0.1,0 0.1,0 0.1,0 0.1,0 0.1,0 0.1,0 0.1,0 0.1,0 0.1,0 0.1,0 0.1,0 0.1,0 0.1,0 0.1,0 0.1,0 0.1,0 0.1,0 0.1,0 0.1,0 0.1,0 0.1,0 0.1,0 0.1,0 0.1,0 0.1,0 0.1,0 0.1,0 0.1,0 0.1,0 0.1,0 0.1,0 0.1,0 0.1,0 0.1,0 0.1,0 0.1,0 0.1,0 0.1,0 0.1,0 0.1,0 0.1,0 0.1,0 0.1,0 0.1,0 0.1,0 0.1,0 0.1,0 0.1,0 0.1,0 0.1,0 0.1,0 0.1,0 0.1,0 0.1,0 0.1,0 0.1,0 0.1,0 0.1,0 0.1,0 0.1,0 0.1,0 0.1,0 0.1,0 0.1,0 0.1,0 0.1,0 0.1,0 0.1,0 0.1,0 0.1,0 0.1,0 0.1,0 0.1,0 0.1,0 0.1,0 0.1,0 0.1,0 0.1,0 0.1,0 0.1,0 0.1,0 0.1,0 0.1,0 0.1,0 0.1,0 0.1,0 0.1,0 0.1,0 0.1,0 0.1,0 0.1,0 0.1,0 0.1,0 0.1,0 0.1,0 0.1,0 0.1,0 0.1,0 0.1,0 0.1,0 0.1,0 0.1,0 0.1,0 0.1,0 0.1,0 0.1,0 0.1,0 0.1,0 0.1,0 0.1,0 0.1,0 0.1,0 0.1,0 0.1,0 0.1,0 0.1,0 0.1,0 0.1,0 0.1,0 0.1,0 0.1,0 0.1,0 0.1,0 0.1,0 0.1,0 0.1,0 0.1,0 0.1,0 0.1,0 0.1,0 0.1,0 0.1,0 0.1,0 0.1,0 0.1,0 0.1,0 0.1,0 0.1,0 0.1,0 0.1,0 0.1,0 0.1,0 0.1,0 0.1,0 0.1,0 0.1,0 0.1,0 0.1,0 0.1,0 0.1,0 0.1,0 0.1,0 0.1,0 0.1,0 0.1,0 0.1,0 0.1,0 0.1,0 0.1,0 0.1,0 0.1,0 0.1,0 0.1,0 0.1,0 0.1,0 0.1,0 0.1,0 0.1,0 0.1,0 0.1,0 0.1,0 0.1,0 0.1,0 0.1,0 0.1,0 0.1,0 0.1,0 0.1,0 0.1,0 0.1,0 0.1,0 0.1,0 0.1,0 0.1,0 0.1,0 0.1,0 0.1,0 0.1,0 0.1,0 0.1,0 0.1,0 0.1,0 0.1,0 0.1,0 0.1,0 0.1,0 0.1,0 0.1,0 0.1,0 0.1,0 0.1,0 0.1,0 0.1,0 0.1,0 0.1,0 0.1,0 0.1,0 0.1,0 0.1,0 0.1,0 0.1,0 0.1,0 0.1,0 0.1,0 0.1,0 0.1,0 0.1,0 0.1,0 0.1,0 0.1,0 0.1,0 0.1,0 0.1,0 0.1,0 0.1,0 0.1,0 0.1,0 0.1,0 0.1,0 0.1,0 0.1,0 0.1,0 0.1,0 0.1,0 0.1,0 0.1,0 0.1,0 0.1,0 0.1,0 0.1,0 0.1,0 0.1,0 0.1,0 0.1,0 0.1,0 0.1,0 0.1,0 0.1,0 0.1,0 0.1,0 0.1,0 0.1,0 0.1,0 0.1,0 0.1,0 0.1,0 0.1,0 0.1,0 0.1,0 0.1,0 0.1,0 0.1,0 0.1,0 0.1,0 0.1,0 0.1,0 0.1,0 0.1,0 0.1,0 0.1,0 0.1,0 0.1,0 0.1,0 0.1,0 0.1,0 0.1,0 0.1,0 0.1,0 0.1,0 0.1,0 0.1,0 0.1,0 0.1,0 0.1,0 0.1,0 0.1,0 0.1,0 0.1,0 0.1,0 0.1,0 0.1,0 0.1,0 0.1,0 0.1,0 0.1,0 0.1,0 0.1,0 0.1,0 0.1,0 0.1,0 0.1,0 0.1,0 0.1,0 0.1,0 0.1,0 0.1,0 0.1,0 0.1,0 0.1,0 0.1,0 0.1,0 0.1,0 0.1,0 0.1,0 0.1,0 0.1,0 0.1,0 0.1,0 0.1,0 0.1,0 0.1,0 0.1,0 0.1,0 0.1,0 0.1,0 0.1,0 0.1,0 0.1,0 0.1,0 0.1,0 0.1,0 0.1,0 0.1,0 0.1,0 0.1,0 0.1,0 0.1,0 0.1,0 0.1,0 0.1,0 0.1,0 0.1,0 0.1,0 0.1,0 0.1,0 0.1,0 0.1,0 0.1,0 0.1,0 0.1,0 0.1,0 0.1,0 0.1,0 0.1,0 0.1,0 0.1,0 0.1,0 0.1,0 0.1,0 0.1,0 0.1,0 0.1,0 0.1,0 0.1,0 0.1,0 0.1,0 0.1,0 h 0.01"
           id="path3969"
           inkscape:connector-curvature="0"
           style="stroke:#565656;stroke-opacity:1" />
      </g>
    </g>
    <g
       id="gnuplot_plot_6a">
      <title
         id="title3972">gnuplot_plot_6a</title>
      <g
         style="color:#ff0000;fill:none;stroke:currentColor;stroke-width:3;stroke-linecap:butt;stroke-linejoin:miter"
         id="g3974">
        <g
           transform="translate(513.9,86.3)"
           style="font-size:12.5px;text-anchor:end;fill:#000000;stroke:none"
           id="g3976">
          <text
             id="text3978">
            <tspan
               id="tspan3980">random 6</tspan>
          </text>
        </g>
        <path
           d="m 519.5,83.3 28.4,0 m -505.1,29.5 31.1,42.4 18.2,16.7 12.9,7.1 10,7 8.2,11.6 6.9,13.4 6,0 5.2,4.5 4.8,0 4.2,0 3.9,5.1 3.6,0 3.3,0 3.1,0 2.9,0 2.8,6.1 2.5,0 2.4,0 2.3,7.4 2.2,0 2.1,0 2,0 1.9,0 1.9,0 1.7,9.5 1.7,0 1.6,0 1.6,0 1.5,0 1.5,0 1.4,0 1.4,0 1.3,0 1.3,13.5 1.3,0 1.2,0 1.2,0 1.2,0 1.1,0 1.1,0 1.1,0 1.1,0 1,0 1,0 1,0 1,0 0.9,0 0.9,0 0.9,0 0.9,0 0.9,0 0.8,0 0.9,0 0.8,0 0.8,0 0.8,0 0.8,0 0.8,0 0.7,0 0.8,0 0.7,0 0.7,0 0.7,0 0.7,0 0.7,0 0.7,0 0.6,23 0.7,0 0.6,0 0.7,0 0.6,0 0.6,0 0.6,0 0.6,0 0.6,0 0.6,0 0.6,0 0.5,0 0.6,0 0.6,0 0.5,0 0.6,0 0.5,0 0.5,0 0.6,0 0.5,0 0.5,0 0.5,0 0.5,0 0.5,0 0.5,0 0.5,0 0.4,0 0.5,0 0.5,0 0.5,0 0.4,0 0.5,0 0.4,0 0.5,0 0.4,0 0.4,0 0.5,0 0.4,0 0.4,0 0.5,0 0.4,0 0.4,0 0.4,0 0.4,0 0.4,0 0.4,0 0.4,0 0.4,0 0.4,0 0.4,0 0.3,0 0.4,0 0.4,0 0.4,0 0.3,0 0.4,0 0.4,0 0.3,0 0.4,0 0.3,0 0.4,0 0.3,0 0.4,0 0.3,0 0.4,0 0.3,0 0.3,0 0.4,0 0.3,0 0.3,0 0.4,0 0.3,0 0.3,0 0.3,0 0.3,0 0.4,0 0.3,0 0.3,0 0.3,0 0.3,0 0.3,0 0.3,0 0.3,0 0.3,0 0.3,0 0.3,0 0.3,0 0.3,0 0.3,0 0.2,0 0.3,0 0.3,0 0.3,0 0.3,0 0.3,0 0.2,0 0.3,0 0.3,0 0.2,0 0.3,0 0.3,0 0.3,0 0.2,0 0.3,0 0.2,0 0.3,0 0.3,0 0.2,0 0.3,0 0.2,0 0.3,0 0.2,0 0.3,0 0.2,0 0.3,0 0.2,0 0.3,0 0.2,0 0.2,0 0.3,0 0.2,0 0.3,0 0.2,0 0.2,0 0.3,0 0.2,0 0.2,0 0.3,0 0.2,0 0.2,0 0.3,0 0.2,0 0.2,0 0.2,0 0.3,0 0.2,0 0.2,0 0.2,0 0.2,0 0.2,0 0.3,0 0.2,0 0.2,0 0.2,0 0.2,0 0.2,0 0.2,0 0.2,0 0.3,0 0.2,0 0.2,0 0.2,0 0.2,0 0.2,0 0.2,0 0.2,0 0.2,0 0.2,0 0.2,0 0.2,0 0.2,0 0.2,0 0.2,0 0.2,0 0.2,0 0.2,0 0.1,0 0.2,0 0.2,0 0.2,0 0.2,0 0.2,0 0.2,0 0.2,0 0.2,0 0.1,0 0.2,0 0.2,0 0.2,0 0.2,0 0.2,0 0.1,0 0.2,0 0.2,0 0.2,0 0.1,0 0.2,0 0.2,0 0.2,0 0.1,0 0.2,0 0.2,0 0.2,0 0.1,0 0.2,0 0.2,0 0.2,0 0.1,0 0.2,0 0.2,0 0.1,0 0.2,0 0.2,0 0.1,0 0.2,0 0.2,0 0.1,0 0.2,0 0.1,0 0.2,0 0.2,0 0.1,0 0.2,0 0.2,0 0.1,0 0.2,0 0.1,0 0.2,0 0.1,0 0.2,0 0.2,0 0.1,0 0.2,0 0.1,0 0.2,0 0.1,0 0.2,0 0.1,0 0.2,0 0.1,0 0.2,0 0.1,0 0.2,0 0.1,0 0.2,0 0.1,0 0.2,0 0.1,0 0.2,0 0.1,0 0.2,0 0.1,0 0.2,0 0.1,0 0.1,0 0.2,0 0.1,0 0.2,0 0.1,0 0.2,0 0.1,0 0.1,0 0.2,0 0.1,0 0.2,0 0.1,0 0.1,0 0.2,0 0.1,0 0.2,0 0.1,0 0.1,0 0.2,0 0.1,0 0.1,0 0.2,0 0.1,0 0.1,0 0.2,0 0.1,0 0.1,0 0.2,0 0.1,0 0.1,0 0.2,0 0.1,0 0.1,0 0.2,0 0.1,0 0.1,0 0.1,0 0.2,0 0.1,0 0.1,0 0.2,0 0.1,0 0.1,0 0.1,0 0.2,0 0.1,0 0.1,0 0.1,0 0.2,0 0.1,0 0.1,0 0.1,0 0.2,0 0.1,0 0.1,0 0.1,0 0.1,0 0.2,0 0.1,0 0.1,0 0.1,0 0.2,0 0.1,0 0.1,0 0.1,0 0.1,0 0.2,0 0.1,0 0.1,0 0.1,0 0.1,0 0.1,0 0.2,0 0.1,0 0.1,0 0.1,0 0.1,0 0.1,0 0.2,0 0.1,0 0.1,0 0.1,0 0.1,0 0.1,0 0.1,0 0.2,0 0.1,0 0.1,0 0.1,0 0.1,0 0.1,0 0.1,0 0.1,0 0.1,0 0.2,0 0.1,0 0.1,0 0.1,0 0.1,0 0.1,0 0.1,0 0.1,0 0.1,0 0.1,0 0.1,0 0.2,0 0.1,0 0.1,0 0.1,0 0.1,0 0.1,0 0.1,0 0.1,0 0.1,0 0.1,0 0.1,0 0.1,0 0.1,0 0.1,0 0.1,0 0.1,0 0.1,0 0.1,0 0.2,0 0.1,0 0.1,0 0.1,0 0.1,0 0.1,0 0.1,0 0.1,0 0.1,0 0.1,0 0.1,0 0.1,0 0.1,0 0.1,0 0.1,0 0.1,0 0.1,0 0.1,0 0.1,0 0.1,0 0.1,0 0.1,0 0.1,0 0.1,0 0.1,0 0.1,0 0.1,0 0.1,0 0.1,0 0.1,0 0.1,0 0.1,0 0.1,0 0.1,0 0.1,0 0.1,0 0.1,0 0.1,0 0.1,0 0.1,0 0.1,0 0.1,0 0.1,0 0.1,0 0.1,0 0.1,0 0.1,0 0.1,0 0.1,0 0.1,0 0.1,0 0.1,0 0.1,0 0.1,0 0.1,0 0.1,0 0.1,0 0.1,0 0.1,0 0.1,0 0.1,0 0.1,0 0.1,0 0.1,0 0.1,0 0.1,0 0.1,0 0.1,0 0.1,0 0.1,0 0.1,0 0.1,0 0.1,0 0.1,0 0.1,0 0.1,0 0.1,0 0.1,0 0.1,0 0.1,0 0.1,0 0.1,0 0.1,0 0.1,0 0.1,0 0.1,0 0.1,0 0.1,0 0.1,0 0.1,0 0.1,0 0.1,0 0.1,0 0.1,0 0.1,0 0.1,0 0.1,0 0.1,0 0.1,0 0.1,0 0.1,0 0.1,0 0.1,0 0.1,0 0.1,0 0.1,0 0.1,0 0.1,0 0.1,0 0.1,0 0.1,0 0.1,0 0.1,0 0.1,0 0.1,0 0.1,0 0.1,0 0.1,0 0.1,0 0.1,0 0.1,0 0.1,0 0.1,0 0.1,0 0.1,0 0.1,0 0.1,0 0.1,0 0.1,0 0.1,0 0.1,0 0.1,0 0.1,0 0.1,0 0.1,0 0.1,0 0.1,0 0.1,0 0.1,0 0.1,0 0.1,0 0.1,0 0.1,0 0.1,0 0.1,0 0.1,0 0.1,0 0.1,0 0.1,0 0.1,0 0.1,0 0.1,0 0.1,0 0.1,0 0.1,0 0.1,0 0.1,0 0.1,0 0.1,0 0.1,0 0.1,0 0.1,0 0.1,0 0.1,0 0.1,0 0.1,0 0.1,0 0.1,0 0.1,0 0.1,0 0.1,0 0.1,0 0.1,0 0.1,0 0.1,0 0.1,0 0.1,0 0.1,0 0.1,0 0.1,0 0.1,0 0.1,0 0.1,0 0.1,0 0.1,0 0.1,0 0.1,0 0.1,0 0.1,0 0.1,0 0.1,0 0.1,0 0.1,0 0.1,0 0.1,0 0.1,0 0.1,0 0.1,0 0.1,0 0.1,0 0.1,0 0.1,0 0.1,0 0.1,0 0.1,0 0.1,0 0.1,0 0.1,0 0.1,0 0.1,0 0.1,0 0.1,0 0.1,0 0.1,0 0.1,0 0.1,0 0.1,0 0.1,0 0.1,0 0.1,0 0.1,0 0.1,0 0.1,0 0.1,0 0.1,0 0.1,0 0.1,0 0.1,0 0.1,0 0.1,0 0.1,0 0.1,0 0.1,0 0.1,0 0.1,0 0.1,0 0.1,0 0.1,0 0.1,0 0.1,0 0.1,0 0.1,0 0.1,0 0.1,0 0.1,0 0.1,0 0.1,0 0.1,0 0.1,0 0.1,0 0.1,0 0.1,0 0.1,0 0.1,0 0.1,0 0.1,0 0.1,0 0.1,0 0.1,0 0.1,0 0.1,0 0.1,0 0.1,0 0.1,0 0.1,0 0.1,0 0.1,0 0.1,0 0.1,0 0.1,0 0.1,0 0.1,0 0.1,0 0.1,0 0.1,0 0.1,0 0.1,0 0.1,0 0.1,0 0.1,0 0.1,0 0.1,0 0.1,0 0.1,0 0.1,0 0.1,0 0.1,0 0.1,0 0.1,0 0.1,0 0.1,0 0.1,0 0.1,0 0.1,0 0.1,0 0.1,0 0.1,0 0.1,0 0.1,0 0.1,0 0.1,0 0.1,0 0.1,0 0.1,0 0.1,0 0.1,0 0.1,0 0.1,0 0.1,0 0.1,0 0.1,0 0.1,0 0.1,0 0.1,0 0.1,0 0.1,0 0.1,0 0.1,0 0.1,0 0.1,0 0.1,0 0.1,0 0.1,0 0.1,0 0.1,0 0.1,0 0.1,0 0.1,0 0.1,0 0.1,0 0.1,0 0.1,0 0.1,0 0.1,0 0.1,0 0.1,0 0.1,0 0.1,0 0.1,0 0.1,0 0.1,0 0.1,0 0.1,0 0.1,0 0.1,0 0.1,0 0.1,0 0.1,0 0.1,0 0.1,0 0.1,0 0.1,0 0.1,0 0.1,0 0.1,0 0.1,0 0.1,0 0.1,0 0.1,0 0.1,0 0.1,0 0.1,0 0.1,0 0.1,0 0.1,0 0.1,0 0.1,0 0.1,0 0.1,0 0.1,0 0.1,0 0.1,0 0.1,0 0.1,0 0.1,0 0.1,0 0.1,0 0.1,0 0.1,0 0.1,0 0.1,0 0.1,0 0.1,0 0.1,0 0.1,0 0.1,0 0.1,0 0.1,0 0.1,0 0.1,0 0.1,0 0.1,0 0.1,0 0.1,0 0.1,0 0.1,0 0.1,0 0.1,0 0.1,0 0.1,0 0.1,0 0.1,0 0.1,0 0.1,0 0.1,0 0.1,0 0.1,0 0.1,0 0.1,0 0.1,0 0.1,0 0.1,0 0.1,0 0.1,0 0.1,0 0.1,0 0.1,0 0.1,0 0.1,0 0.1,0 0.1,0 0.1,0 0.1,0 0.1,0 0.1,0 0.1,0 0.1,0 0.1,0 0.1,0 0.1,0 0.1,0 0.1,0 0.1,0 0.1,0 0.1,0 0.1,0 0.1,0 0.1,0 0.1,0 0.1,0 0.1,0 0.1,0 0.1,0 0.1,0 0.1,0 0.1,0 0.1,0 0.1,0 0.1,0 0.1,0 0.1,0 0.1,0 0.1,0 0.1,0 0.1,0 0.1,0 0.1,0 0.1,0 0.1,0 0.1,0 0.1,0 0.1,0 0.1,0 0.1,0 0.1,0 0.1,0 0.1,0 0.1,0 0.1,0 0.1,0 0.1,0 0.1,0 0.1,0 0.1,0 0.1,0 0.1,0 0.1,0 0.1,0 0.1,0 0.1,0 0.1,0 0.1,0 0.1,0 0.1,0 0.1,0 0.1,0 0.1,0 0.1,0 0.1,0 0.1,0 0.1,0 0.1,0 0.1,0 0.1,0 0.1,0 0.1,0 0.1,0 0.1,0 0.1,0 0.1,0 0.1,0 0.1,0 0.1,0 0.1,0 0.1,0 0.1,0 0.1,0 0.1,0 0.1,0 0.1,0 0.1,0 0.1,0 0.1,0 0.1,0 0.1,0 0.1,0 0.1,0 0.1,0 0.1,0 0.1,0 0.1,0 0.1,0 0.1,0 0.1,0 0.1,0 0.1,0 0.1,0 0.1,0 0.1,0 0.1,0 0.1,0 0.1,0 0.1,0 0.1,0 0.1,0 0.1,0 0.1,0 0.1,0 0.1,0 0.1,0 0.1,0 0.1,0 0.1,0 0.1,0 0.1,0 0.1,0 0.1,0 0.1,0 0.1,0 0.1,0 0.1,0 0.1,0 0.1,0 0.1,0 0.1,0 0.1,0 0.1,0 0.1,0 0.1,0 0.1,0 0.1,0 0.1,0 0.1,0 0.1,0 0.1,0 0.1,0 0.1,0 0.1,0 0.1,0 0.1,0 0.1,0 0.1,0 0.1,0 0.1,0 0.1,0 0.1,0 0.1,0 0.1,0 0.1,0 0.1,0 0.1,0 0.1,0 0.1,0 0.1,0 0.1,0 0.1,0 0.1,0 0.1,0 0.1,0 0.1,0 0.1,0 0.1,0 0.1,0 0.1,0 0.1,0 0.1,0 0.1,0 0.1,0 0.1,0 0.1,0 0.1,0 0.1,0 0.1,0 0.1,0 0.1,0 0.1,0 0.1,0 0.1,0 0.1,0 0.1,0 0.1,0 0.1,0 0.1,0 0.1,0 0.1,0 0.1,0 0.1,0 0.1,0 0.1,0 0.1,0 0.1,0 0.1,0 0.1,0 0.1,0 0.1,0 0.1,0 0.1,0 0.1,0 0.1,0 0.1,0 0.1,0 0.1,0 0.1,0 0.1,0 0.1,0 0.1,0 0.1,0 0.1,0 0.1,0 0.1,0 0.1,0 0.1,0 0.1,0 0.1,0 0.1,0 0.1,0 0.1,0 0.1,0 0.1,0 0.1,0 0.1,0 0.1,0 0.1,0 0.1,0 0.1,0 0.1,0 0.1,0 0.1,0 0.1,0 0.1,0 0.1,0 0.1,0 0.1,0 0.1,0 0.1,0 0.1,0 0.1,0 0.1,0 0.1,0 0.1,0 0.1,0 0.1,0 0.1,0 0.1,0 0.1,0 0.1,0 0.1,0 0.1,0 0.1,0 0.1,0 0.1,0 0.1,0 0.1,0 0.1,0 0.1,0 0.1,0 0.1,0 0.1,0 0.1,0 0.1,0 0.1,0 0.1,0 0.1,0 0.1,0 0.1,0 0.1,0 0.1,0 0.1,0 0.1,0 0.1,0 0.1,0 0.1,0 0.1,0 0.1,0 0.1,0 0.1,0 0.1,0 0.1,0 0.1,0 0.1,0 0.1,0 0.1,0 0.1,0 0.1,0 0.1,0 0.1,0 0.1,0 0.1,0 0.1,0 0.1,0 0.1,0 0.1,0 0.1,0 0.1,0 0.1,0 0.1,0 0.1,0 0.1,0 0.1,0 0.1,0 0.1,0 0.1,0 0.1,0 0.1,0 0.1,0 0.1,0 0.1,0 0.1,0 0.1,0 0.1,0 0.1,0 0.1,0 0.1,0 0.1,0 0.1,0 0.1,0 0.1,0 0.1,0 0.1,0 0.1,0 0.1,0 0.1,0 0.1,0 0.1,0 0.1,0 0.1,0 0.1,0 0.1,0 0.1,0 0.1,0 0.1,0 0.1,0 0.1,0 0.1,0 0.1,0 0.1,0 0.1,0 0.1,0 0.1,0 0.1,0 0.1,0 0.1,0 0.1,0 0.1,0 0.1,0 0.1,0 0.1,0 0.1,0 0.1,0 0.1,0 0.1,0 0.1,0 0.1,0 0.1,0 0.1,0 0.1,0 0.1,0 0.1,0 0.1,0 0.1,0 0.1,0 0.1,0 0.1,0 0.1,0 0.1,0 0.1,0 0.1,0 0.1,0 0.1,0 0.1,0 0.1,0 0.1,0 0.1,0 0.1,0 0.1,0 0.1,0 0.1,0 0.1,0 0.1,0 0.1,0 0.1,0 0.1,0 0.1,0 0.1,0 0.1,0 0.1,0 0.1,0 0.1,0 0.1,0 0.1,0 0.1,0 0.1,0 0.1,0 0.1,0 0.1,0 0.1,0 0.1,0 0.1,0 0.1,0 0.1,0 0.1,0 0.1,0 0.1,0 0.1,0 0.1,0 0.1,0 0.1,0 0.1,0 0.1,0 0.1,0 0.1,0 0.1,0 0.1,0 0.1,0 0.1,0 0.1,0 0.1,0 h 0.01"
           id="path3982"
           inkscape:connector-curvature="0"
           style="stroke:#424242;stroke-opacity:1" />
      </g>
    </g>
    <g
       id="gnuplot_plot_7a">
      <title
         id="title3985">gnuplot_plot_7a</title>
      <g
         style="color:#ff0000;fill:none;stroke:currentColor;stroke-width:3;stroke-linecap:butt;stroke-linejoin:miter"
         id="g3987">
        <g
           transform="translate(513.9,98.3)"
           style="font-size:12.5px;text-anchor:end;fill:#000000;stroke:none"
           id="g3989">
          <text
             id="text3991">
            <tspan
               id="tspan3993">random 7</tspan>
          </text>
        </g>
        <path
           d="m 519.5,95.3 28.4,0 M 42.8,71.9 l 31.1,48.8 18.2,11.2 12.9,3.8 10,1.3 8.2,10 6.9,8.4 6,15.3 5.2,6.2 4.8,3.1 4.2,7.4 3.9,0 3.6,1.1 3.3,0.5 3.1,0 2.9,4.7 2.8,1.3 2.5,3.4 2.4,0 2.3,0.7 2.2,0.8 2.1,0 2,0.7 1.9,0.8 1.9,5.1 1.7,0 1.7,0 1.6,1.9 1.6,2.1 1.5,1 1.5,0 1.4,3.4 1.4,2.4 1.3,2.7 1.3,1.4 1.3,1.5 1.2,0 1.2,0 1.2,1.5 1.1,1.7 1.1,1.7 1.1,0 1.1,1.8 1,0 1,1.9 1,2 1,0 0.9,2.1 0.9,0 0.9,2.3 0.9,0 0.9,0 0.8,0 0.9,0 0.8,2.5 0.8,0 0.8,0 0.8,2.6 0.8,0 0.7,2.9 0.8,0 0.7,0 0.7,0 0.7,3.2 0.7,0 0.7,0 0.7,0 0.6,0 0.7,0 0.6,0 0.7,3.5 0.6,0 0.6,0 0.6,0 0.6,0 0.6,0 0.6,0 0.6,0 0.5,0 0.6,0 0.6,0 0.5,0 0.6,0 0.5,0 0.5,3.9 0.6,0 0.5,0 0.5,0 0.5,0 0.5,0 0.5,0 0.5,0 0.5,0 0.4,0 0.5,0 0.5,0 0.5,0 0.4,4.4 0.5,0 0.4,0 0.5,0 0.4,0 0.4,0 0.5,0 0.4,0 0.4,0 0.5,0 0.4,0 0.4,0 0.4,0 0.4,0 0.4,0 0.4,0 0.4,0 0.4,0 0.4,5.1 0.4,0 0.3,0 0.4,0 0.4,0 0.4,0 0.3,0 0.4,0 0.4,0 0.3,0 0.4,0 0.3,0 0.4,0 0.3,0 0.4,0 0.3,0 0.4,0 0.3,0 0.3,0 0.4,0 0.3,6.1 0.3,0 0.4,0 0.3,0 0.3,0 0.3,0 0.3,0 0.4,0 0.3,0 0.3,0 0.3,0 0.3,0 0.3,0 0.3,0 0.3,0 0.3,0 0.3,0 0.3,0 0.3,0 0.3,0 0.3,0 0.2,0 0.3,0 0.3,0 0.3,0 0.3,0 0.3,7.4 0.2,0 0.3,0 0.3,0 0.2,0 0.3,0 0.3,0 0.3,0 0.2,0 0.3,0 0.2,0 0.3,0 0.3,0 0.2,0 0.3,0 0.2,0 0.3,0 0.2,0 0.3,0 0.2,0 0.3,0 0.2,0 0.3,0 0.2,0 0.2,0 0.3,0 0.2,0 0.3,0 0.2,0 0.2,0 0.3,0 0.2,0 0.2,0 0.3,0 0.2,0 0.2,0 0.3,0 0.2,0 0.2,0 0.2,0 0.3,0 0.2,0 0.2,0 0.2,0 0.2,0 0.2,0 0.3,0 0.2,0 0.2,0 0.2,0 0.2,0 0.2,0 0.2,9.6 0.2,0 0.3,0 0.2,0 0.2,0 0.2,0 0.2,0 0.2,0 0.2,0 0.2,0 0.2,0 0.2,0 0.2,0 0.2,0 0.2,0 0.2,0 0.2,0 0.2,0 0.2,0 0.2,0 0.1,0 0.2,0 0.2,0 0.2,0 0.2,0 0.2,0 0.2,0 0.2,0 0.2,0 0.1,0 0.2,0 0.2,0 0.2,0 0.2,0 0.2,0 0.1,0 0.2,0 0.2,0 0.2,0 0.1,0 0.2,0 0.2,0 0.2,0 0.1,0 0.2,0 0.2,0 0.2,0 0.1,0 0.2,0 0.2,0 0.2,0 0.1,0 0.2,0 0.2,0 0.1,0 0.2,0 0.2,0 0.1,0 0.2,0 0.2,0 0.1,0 0.2,0 0.1,0 0.2,0 0.2,0 0.1,0 0.2,0 0.2,0 0.1,0 0.2,0 0.1,0 0.2,0 0.1,0 0.2,0 0.2,0 0.1,0 0.2,0 0.1,0 0.2,0 0.1,0 0.2,0 0.1,0 0.2,0 0.1,0 0.2,0 0.1,0 0.2,13.4 0.1,0 0.2,0 0.1,0 0.2,0 0.1,0 0.2,0 0.1,0 0.2,0 0.1,0 0.2,0 0.1,0 0.1,0 0.2,0 0.1,0 0.2,0 0.1,0 0.2,0 0.1,0 0.1,0 0.2,0 0.1,0 0.2,0 0.1,0 0.1,0 0.2,0 0.1,0 0.2,0 0.1,0 0.1,0 0.2,0 0.1,0 0.1,0 0.2,0 0.1,0 0.1,0 0.2,0 0.1,0 0.1,0 0.2,0 0.1,0 0.1,0 0.2,0 0.1,0 0.1,0 0.2,0 0.1,0 0.1,0 0.1,0 0.2,0 0.1,0 0.1,0 0.2,0 0.1,0 0.1,0 0.1,0 0.2,0 0.1,0 0.1,0 0.1,0 0.2,0 0.1,0 0.1,0 0.1,0 0.2,0 0.1,0 0.1,0 0.1,0 0.1,0 0.2,0 0.1,0 0.1,0 0.1,0 0.2,0 0.1,0 0.1,0 0.1,0 0.1,0 0.2,0 0.1,0 0.1,0 0.1,0 0.1,0 0.1,0 0.2,0 0.1,0 0.1,0 0.1,0 0.1,0 0.1,0 0.2,0 0.1,0 0.1,0 0.1,0 0.1,0 0.1,0 0.1,0 0.2,0 0.1,0 0.1,0 0.1,0 0.1,0 0.1,0 0.1,0 0.1,0 0.1,0 0.2,0 0.1,0 0.1,0 0.1,0 0.1,0 0.1,0 0.1,0 0.1,0 0.1,0 0.1,0 0.1,0 0.2,0 0.1,0 0.1,0 0.1,0 0.1,0 0.1,0 0.1,0 0.1,0 0.1,0 0.1,0 0.1,0 0.1,0 0.1,0 0.1,0 0.1,0 0.1,0 0.1,0 0.1,0 0.2,0 0.1,0 0.1,0 0.1,0 0.1,0 0.1,0 0.1,0 0.1,0 0.1,0 0.1,0 0.1,0 0.1,0 0.1,0 0.1,0 0.1,0 0.1,0 0.1,0 0.1,0 0.1,0 0.1,0 0.1,0 0.1,0 0.1,0 0.1,0 0.1,0 0.1,0 0.1,0 0.1,0 0.1,0 0.1,0 0.1,0 0.1,0 0.1,0 0.1,0 0.1,0 0.1,0 0.1,0 0.1,0 0.1,0 0.1,0 0.1,0 0.1,0 0.1,0 0.1,0 0.1,0 0.1,0 0.1,0 0.1,0 0.1,0 0.1,0 0.1,0 0.1,0 0.1,0 0.1,0 0.1,0 0.1,0 0.1,0 0.1,0 0.1,0 0.1,0 0.1,0 0.1,0 0.1,0 0.1,0 0.1,0 0.1,0 0.1,0 0.1,0 0.1,0 0.1,0 0.1,0 0.1,0 0.1,0 0.1,0 0.1,0 0.1,0 0.1,0 0.1,0 0.1,0 0.1,0 0.1,0 0.1,0 0.1,0 0.1,0 0.1,0 0.1,0 0.1,0 0.1,0 0.1,0 0.1,0 0.1,0 0.1,0 0.1,0 0.1,0 0.1,0 0.1,0 0.1,0 0.1,0 0.1,0 0.1,0 0.1,0 0.1,0 0.1,0 0.1,0 0.1,0 0.1,0 0.1,0 0.1,0 0.1,0 0.1,0 0.1,0 0.1,0 0.1,0 0.1,0 0.1,0 0.1,23 0.1,0 0.1,0 0.1,0 0.1,0 0.1,0 0.1,0 0.1,0 0.1,0 0.1,0 0.1,0 0.1,0 0.1,0 0.1,0 0.1,0 0.1,0 0.1,0 0.1,0 0.1,0 0.1,0 0.1,0 0.1,0 0.1,0 0.1,0 0.1,0 0.1,0 0.1,0 0.1,0 0.1,0 0.1,0 0.1,0 0.1,0 0.1,0 0.1,0 0.1,0 0.1,0 0.1,0 0.1,0 0.1,0 0.1,0 0.1,0 0.1,0 0.1,0 0.1,0 0.1,0 0.1,0 0.1,0 0.1,0 0.1,0 0.1,0 0.1,0 0.1,0 0.1,0 0.1,0 0.1,0 0.1,0 0.1,0 0.1,0 0.1,0 0.1,0 0.1,0 0.1,0 0.1,0 0.1,0 0.1,0 0.1,0 0.1,0 0.1,0 0.1,0 0.1,0 0.1,0 0.1,0 0.1,0 0.1,0 0.1,0 0.1,0 0.1,0 0.1,0 0.1,0 0.1,0 0.1,0 0.1,0 0.1,0 0.1,0 0.1,0 0.1,0 0.1,0 0.1,0 0.1,0 0.1,0 0.1,0 0.1,0 0.1,0 0.1,0 0.1,0 0.1,0 0.1,0 0.1,0 0.1,0 0.1,0 0.1,0 0.1,0 0.1,0 0.1,0 0.1,0 0.1,0 0.1,0 0.1,0 0.1,0 0.1,0 0.1,0 0.1,0 0.1,0 0.1,0 0.1,0 0.1,0 0.1,0 0.1,0 0.1,0 0.1,0 0.1,0 0.1,0 0.1,0 0.1,0 0.1,0 0.1,0 0.1,0 0.1,0 0.1,0 0.1,0 0.1,0 0.1,0 0.1,0 0.1,0 0.1,0 0.1,0 0.1,0 0.1,0 0.1,0 0.1,0 0.1,0 0.1,0 0.1,0 0.1,0 0.1,0 0.1,0 0.1,0 0.1,0 0.1,0 0.1,0 0.1,0 0.1,0 0.1,0 0.1,0 0.1,0 0.1,0 0.1,0 0.1,0 0.1,0 0.1,0 0.1,0 0.1,0 0.1,0 0.1,0 0.1,0 0.1,0 0.1,0 0.1,0 0.1,0 0.1,0 0.1,0 0.1,0 0.1,0 0.1,0 0.1,0 0.1,0 0.1,0 0.1,0 0.1,0 0.1,0 0.1,0 0.1,0 0.1,0 0.1,0 0.1,0 0.1,0 0.1,0 0.1,0 0.1,0 0.1,0 0.1,0 0.1,0 0.1,0 0.1,0 0.1,0 0.1,0 0.1,0 0.1,0 0.1,0 0.1,0 0.1,0 0.1,0 0.1,0 0.1,0 0.1,0 0.1,0 0.1,0 0.1,0 0.1,0 0.1,0 0.1,0 0.1,0 0.1,0 0.1,0 0.1,0 0.1,0 0.1,0 0.1,0 0.1,0 0.1,0 0.1,0 0.1,0 0.1,0 0.1,0 0.1,0 0.1,0 0.1,0 0.1,0 0.1,0 0.1,0 0.1,0 0.1,0 0.1,0 0.1,0 0.1,0 0.1,0 0.1,0 0.1,0 0.1,0 0.1,0 0.1,0 0.1,0 0.1,0 0.1,0 0.1,0 0.1,0 0.1,0 0.1,0 0.1,0 0.1,0 0.1,0 0.1,0 0.1,0 0.1,0 0.1,0 0.1,0 0.1,0 0.1,0 0.1,0 0.1,0 0.1,0 0.1,0 0.1,0 0.1,0 0.1,0 0.1,0 0.1,0 0.1,0 0.1,0 0.1,0 0.1,0 0.1,0 0.1,0 0.1,0 0.1,0 0.1,0 0.1,0 0.1,0 0.1,0 0.1,0 0.1,0 0.1,0 0.1,0 0.1,0 0.1,0 0.1,0 0.1,0 0.1,0 0.1,0 0.1,0 0.1,0 0.1,0 0.1,0 0.1,0 0.1,0 0.1,0 0.1,0 0.1,0 0.1,0 0.1,0 0.1,0 0.1,0 0.1,0 0.1,0 0.1,0 0.1,0 0.1,0 0.1,0 0.1,0 0.1,0 0.1,0 0.1,0 0.1,0 0.1,0 0.1,0 0.1,0 0.1,0 0.1,0 0.1,0 0.1,0 0.1,0 0.1,0 0.1,0 0.1,0 0.1,0 0.1,0 0.1,0 0.1,0 0.1,0 0.1,0 0.1,0 0.1,0 0.1,0 0.1,0 0.1,0 0.1,0 0.1,0 0.1,0 0.1,0 0.1,0 0.1,0 0.1,0 0.1,0 0.1,0 0.1,0 0.1,0 0.1,0 0.1,0 0.1,0 0.1,0 0.1,0 0.1,0 0.1,0 0.1,0 0.1,0 0.1,0 0.1,0 0.1,0 0.1,0 0.1,0 0.1,0 0.1,0 0.1,0 0.1,0 0.1,0 0.1,0 0.1,0 0.1,0 0.1,0 0.1,0 0.1,0 0.1,0 0.1,0 0.1,0 0.1,0 0.1,0 0.1,0 0.1,0 0.1,0 0.1,0 0.1,0 0.1,0 0.1,0 0.1,0 0.1,0 0.1,0 0.1,0 0.1,0 0.1,0 0.1,0 0.1,0 0.1,0 0.1,0 0.1,0 0.1,0 0.1,0 0.1,0 0.1,0 0.1,0 0.1,0 0.1,0 0.1,0 0.1,0 0.1,0 0.1,0 0.1,0 0.1,0 0.1,0 0.1,0 0.1,0 0.1,0 0.1,0 0.1,0 0.1,0 0.1,0 0.1,0 0.1,0 0.1,0 0.1,0 0.1,0 0.1,0 0.1,0 0.1,0 0.1,0 0.1,0 0.1,0 0.1,0 0.1,0 0.1,0 0.1,0 0.1,0 0.1,0 0.1,0 0.1,0 0.1,0 0.1,0 0.1,0 0.1,0 0.1,0 0.1,0 0.1,0 0.1,0 0.1,0 0.1,0 0.1,0 0.1,0 0.1,0 0.1,0 0.1,0 0.1,0 0.1,0 0.1,0 0.1,0 0.1,0 0.1,0 0.1,0 0.1,0 0.1,0 0.1,0 0.1,0 0.1,0 0.1,0 0.1,0 0.1,0 0.1,0 0.1,0 0.1,0 0.1,0 0.1,0 0.1,0 0.1,0 0.1,0 0.1,0 0.1,0 0.1,0 0.1,0 0.1,0 0.1,0 0.1,0 0.1,0 0.1,0 0.1,0 0.1,0 0.1,0 0.1,0 0.1,0 0.1,0 0.1,0 0.1,0 0.1,0 0.1,0 0.1,0 0.1,0 0.1,0 0.1,0 0.1,0 0.1,0 0.1,0 0.1,0 0.1,0 0.1,0 0.1,0 0.1,0 0.1,0 0.1,0 0.1,0 0.1,0 0.1,0 0.1,0 0.1,0 0.1,0 0.1,0 0.1,0 0.1,0 0.1,0 0.1,0 0.1,0 0.1,0 0.1,0 0.1,0 0.1,0 0.1,0 0.1,0 0.1,0 0.1,0 0.1,0 0.1,0 0.1,0 0.1,0 0.1,0 0.1,0 0.1,0 0.1,0 0.1,0 0.1,0 0.1,0 0.1,0 0.1,0 0.1,0 0.1,0 0.1,0 0.1,0 0.1,0 0.1,0 0.1,0 0.1,0 0.1,0 0.1,0 0.1,0 0.1,0 0.1,0 0.1,0 0.1,0 0.1,0 0.1,0 0.1,0 0.1,0 0.1,0 0.1,0 0.1,0 0.1,0 0.1,0 0.1,0 0.1,0 0.1,0 0.1,0 0.1,0 0.1,0 0.1,0 0.1,0 0.1,0 0.1,0 0.1,0 0.1,0 0.1,0 0.1,0 0.1,0 0.1,0 0.1,0 0.1,0 0.1,0 0.1,0 0.1,0 0.1,0 0.1,0 0.1,0 0.1,0 0.1,0 0.1,0 0.1,0 0.1,0 0.1,0 0.1,0 0.1,0 0.1,0 0.1,0 0.1,0 0.1,0 0.1,0 0.1,0 0.1,0 0.1,0 0.1,0 0.1,0 0.1,0 0.1,0 0.1,0 0.1,0 0.1,0 0.1,0 0.1,0 0.1,0 0.1,0 0.1,0 0.1,0 0.1,0 0.1,0 0.1,0 0.1,0 0.1,0 0.1,0 0.1,0 0.1,0 0.1,0 0.1,0 0.1,0 0.1,0 0.1,0 0.1,0 0.1,0 0.1,0 0.1,0 0.1,0 0.1,0 0.1,0 0.1,0 0.1,0 0.1,0 0.1,0 0.1,0 0.1,0 0.1,0 0.1,0 0.1,0 0.1,0 0.1,0 0.1,0 0.1,0 0.1,0 0.1,0 0.1,0 0.1,0 0.1,0 0.1,0 0.1,0 0.1,0 0.1,0 0.1,0 0.1,0 0.1,0 0.1,0 0.1,0 0.1,0 0.1,0 0.1,0 0.1,0 0.1,0 0.1,0 0.1,0 0.1,0 0.1,0 0.1,0 0.1,0 0.1,0 0.1,0 0.1,0 0.1,0 0.1,0 0.1,0 0.1,0 0.1,0 0.1,0 0.1,0 0.1,0 0.1,0 0.1,0 0.1,0 0.1,0 0.1,0 0.1,0 0.1,0 0.1,0 0.1,0 0.1,0 0.1,0 0.1,0 0.1,0 0.1,0 0.1,0 0.1,0 0.1,0 0.1,0 0.1,0 0.1,0 0.1,0 0.1,0 0.1,0 0.1,0 0.1,0 0.1,0 0.1,0 0.1,0 0.1,0 0.1,0 0.1,0 0.1,0 0.1,0 0.1,0 0.1,0 0.1,0 0.1,0 0.1,0 0.1,0 0.1,0 0.1,0 0.1,0 0.1,0 0.1,0 0.1,0 0.1,0 0.1,0 0.1,0 0.1,0 0.1,0 0.1,0 0.1,0 0.1,0 0.1,0 0.1,0 0.1,0 0.1,0 0.1,0 0.1,0 0.1,0 0.1,0 0.1,0 0.1,0 0.1,0 0.1,0 0.1,0 0.1,0 0.1,0 0.1,0 0.1,0 0.1,0 0.1,0 0.1,0 0.1,0 0.1,0 0.1,0 0.1,0 0.1,0 0.1,0 0.1,0 0.1,0 0.1,0 0.1,0 0.1,0 0.1,0 0.1,0 0.1,0 0.1,0 0.1,0 0.1,0 0.1,0 0.1,0 0.1,0 0.1,0 0.1,0 0.1,0 0.1,0 0.1,0 0.1,0 0.1,0 0.1,0 0.1,0 0.1,0 0.1,0 0.1,0 0.1,0 0.1,0 0.1,0 0.1,0 0.1,0 0.1,0 0.1,0 0.1,0 0.1,0 0.1,0 0.1,0 0.1,0 0.1,0 0.1,0 0.1,0 0.1,0 0.1,0 0.1,0 0.1,0 0.1,0 0.1,0 0.1,0 0.1,0 0.1,0 0.1,0 0.1,0 0.1,0 0.1,0 0.1,0 0.1,0 0.1,0 0.1,0 0.1,0 0.1,0 0.1,0 0.1,0 0.1,0 0.1,0 0.1,0 0.1,0 0.1,0 0.1,0 0.1,0 0.1,0 0.1,0 0.1,0 0.1,0 0.1,0 0.1,0 0.1,0 0.1,0 0.1,0 0.1,0 0.1,0 0.1,0 0.1,0 0.1,0 0.1,0 0.1,0 0.1,0 0.1,0 0.1,0 0.1,0 0.1,0 0.1,0 0.1,0 0.1,0 0.1,0 0.1,0 0.1,0 0.1,0 0.1,0 0.1,0 0.1,0 0.1,0 0.1,0 0.1,0 0.1,0 0.1,0 0.1,0 0.1,0 0.1,0 0.1,0 0.1,0 0.1,0 0.1,0 0.1,0 0.1,0 0.1,0 0.1,0 0.1,0 0.1,0 0.1,0 0.1,0 0.1,0 0.1,0 0.1,0 0.1,0 0.1,0 0.1,0 0.1,0 0.1,0 0.1,0 0.1,0 0.1,0 0.1,0 0.1,0 0.1,0 0.1,0 0.1,0 0.1,0 0.1,0 0.1,0 0.1,0 0.1,0 0.1,0 0.1,0 0.1,0 0.1,0 0.1,0 0.1,0 0.1,0 0.1,0 0.1,0 0.1,0 0.1,0 0.1,0 0.1,0 0.1,0 0.1,0 0.1,0 0.1,0 0.1,0 0.1,0 0.1,0 0.1,0 0.1,0 0.1,0 0.1,0 0.1,0 0.1,0 0.1,0 0.1,0 0.1,0 0.1,0 0.1,0 0.1,0 0.1,0 0.1,0 0.1,0 0.1,0 0.1,0 0.1,0 0.1,0 0.1,0 0.1,0 0.1,0 0.1,0 0.1,0 0.1,0 0.1,0 0.1,0 0.1,0 0.1,0 0.1,0 0.1,0 0.1,0 0.1,0 0.1,0 0.1,0 0.1,0 0.1,0 0.1,0 0.1,0 0.1,0 0.1,0 0.1,0 0.1,0 0.1,0 0.1,0 0.1,0 0.1,0 0.1,0 0.1,0 0.1,0 0.1,0 0.1,0 0.1,0 0.1,0 0.1,0 0.1,0 0.1,0 0.1,0 0.1,0 0.1,0 0.1,0 0.1,0 0.1,0 0.1,0 0.1,0 0.1,0 0.1,0 0.1,0 0.1,0 0.1,0 0.1,0 0.1,0 0.1,0 0.1,0 0.1,0 0.1,0 0.1,0 0.1,0 0.1,0 0.1,0 0.1,0 0.1,0 0.1,0 0.1,0 0.1,0 0.1,0 0.1,0 0.1,0 0.1,0 0.1,0 0.1,0 0.1,0 0.1,0 0.1,0 0.1,0 0.1,0 0.1,0 0.1,0 0.1,0 0.1,0 0.1,0 0.1,0 0.1,0 0.1,0 0.1,0 0.1,0 0.1,0 0.1,0 0.1,0 0.1,0 0.1,0 0.1,0 0.1,0 0.1,0 0.1,0 0.1,0 0.1,0 0.1,0 0.1,0 0.1,0 0.1,0 0.1,0 0.1,0 0.1,0 0.1,0 0.1,0 0.1,0 0.1,0 0.1,0 0.1,0 0.1,0 0.1,0 0.1,0 0.1,0 0.1,0 0.1,0 0.1,0 0.1,0 0.1,0 0.1,0 0.1,0 0.1,0 0.1,0 0.1,0 0.1,0 0.1,0 0.1,0 h 0.01"
           id="path3995"
           inkscape:connector-curvature="0"
           style="stroke:#2c2c2c;stroke-opacity:1" />
      </g>
    </g>
    <g
       id="gnuplot_plot_8a">
      <title
         id="title3998">gnuplot_plot_8a</title>
      <g
         style="color:#ff0000;fill:none;stroke:currentColor;stroke-width:3;stroke-linecap:butt;stroke-linejoin:miter"
         id="g4000">
        <g
           transform="translate(513.9,110.3)"
           style="font-size:12.5px;text-anchor:end;fill:#000000;stroke:none"
           id="g4002">
          <text
             id="text4004">
            <tspan
               id="tspan4006">concatenation</tspan>
          </text>
        </g>
        <path
           d="m 519.5,107.3 28.4,0 m -505.1,-47 31.1,42.4 18.2,33.4 12.9,0.1 10,5 8.2,3.2 6.9,1.1 6,2.5 5.2,28 4.8,0.9 4.2,3.8 3.9,2.4 3.6,1.6 3.3,5.8 3.1,2.1 2.9,1.1 2.8,1.4 2.5,7.2 2.4,1.9 2.3,4.4 2.2,1.5 2.1,2 2,0.2 1.9,0.7 1.9,0.3 1.7,0.7 1.7,0 1.6,1.1 1.6,0 1.5,1 1.5,1.1 1.4,0.4 1.4,0 1.3,0.2 1.3,0.2 1.3,0.2 1.2,0.6 1.2,0.3 1.2,0.2 1.1,0 1.1,0.6 1.1,0.2 1.1,2.5 1,1.9 1,0.2 1,2.6 1,0.8 0.9,0.3 0.9,1.1 0.9,0.6 0.9,2.1 0.9,0.3 0.8,1.6 0.9,0.7 0.8,4.7 0.8,2.4 0.8,1.2 0.8,1.8 0.8,2.4 0.7,0.9 0.8,2.7 0.7,0.5 0.7,1.1 0.7,1.8 0.7,2.5 0.7,0.7 0.7,0.6 0.6,0.7 0.7,1.4 0.6,0 0.7,0 0.6,0 0.6,0.8 0.6,0 0.6,0.7 0.6,0.8 0.6,0.8 0.6,0.8 0.5,0 0.6,0 0.6,0.8 0.5,0 0.6,0 0.5,0.8 0.5,0 0.6,0.9 0.5,0 0.5,0 0.5,0 0.5,0.9 0.5,0 0.5,0 0.5,0 0.4,0.9 0.5,0 0.5,0 0.5,0 0.4,0 0.5,0.9 0.4,0 0.5,0 0.4,1 0.4,0 0.5,0 0.4,0 0.4,0 0.5,1 0.4,0 0.4,0 0.4,0 0.4,0 0.4,0 0.4,0 0.4,0 0.4,0 0.4,0 0.4,1 0.3,0 0.4,0 0.4,0 0.4,1 0.3,0 0.4,0 0.4,0 0.3,0 0.4,0 0.3,0 0.4,1.1 0.3,0 0.4,0 0.3,0 0.4,0 0.3,0 0.3,0 0.4,0 0.3,1.2 0.3,0 0.4,0 0.3,0 0.3,1.1 0.3,0 0.3,0 0.4,0 0.3,0 0.3,0 0.3,0 0.3,1.2 0.3,0 0.3,0 0.3,0 0.3,0 0.3,0 0.3,0 0.3,1.3 0.3,0 0.3,0 0.2,0 0.3,1.3 0.3,0 0.3,0 0.3,0 0.3,0 0.2,0 0.3,0 0.3,0 0.2,0 0.3,0 0.3,0 0.3,0 0.2,0 0.3,0 0.2,1.3 0.3,0 0.3,0 0.2,0 0.3,0 0.2,0 0.3,0 0.2,0 0.3,1.5 0.2,0 0.3,0 0.2,0 0.3,0 0.2,1.4 0.2,0 0.3,0 0.2,0 0.3,0 0.2,0 0.2,1.6 0.3,0 0.2,0 0.2,0 0.3,0 0.2,0 0.2,0 0.3,1.6 0.2,0 0.2,0 0.2,0 0.3,0 0.2,0 0.2,0 0.2,0 0.2,0 0.2,1.7 0.3,0 0.2,0 0.2,0 0.2,0 0.2,1.8 0.2,0 0.2,0 0.2,0 0.3,0 0.2,0 0.2,0 0.2,0 0.2,0 0.2,0 0.2,0 0.2,0 0.2,0 0.2,0 0.2,1.9 0.2,0 0.2,0 0.2,0 0.2,0 0.2,0 0.2,0 0.2,0 0.1,0 0.2,0 0.2,2 0.2,0 0.2,0 0.2,0 0.2,0 0.2,0 0.2,0 0.1,0 0.2,0 0.2,0 0.2,0 0.2,0 0.2,2.1 0.1,0 0.2,0 0.2,0 0.2,0 0.1,0 0.2,0 0.2,0 0.2,0 0.1,0 0.2,0 0.2,2.3 0.2,0 0.1,0 0.2,0 0.2,0 0.2,0 0.1,0 0.2,0 0.2,0 0.1,0 0.2,2.5 0.2,0 0.1,0 0.2,0 0.2,0 0.1,0 0.2,0 0.1,0 0.2,0 0.2,0 0.1,0 0.2,0 0.2,0 0.1,0 0.2,0 0.1,0 0.2,2.7 0.1,0 0.2,0 0.2,0 0.1,0 0.2,0 0.1,0 0.2,0 0.1,0 0.2,0 0.1,0 0.2,0 0.1,0 0.2,0 0.1,0 0.2,0 0.1,2.8 0.2,0 0.1,0 0.2,0 0.1,0 0.2,0 0.1,0 0.2,0 0.1,0 0.2,0 0.1,0 0.1,0 0.2,3.2 0.1,0 0.2,0 0.1,0 0.2,0 0.1,0 0.1,0 0.2,0 0.1,0 0.2,0 0.1,0 0.1,0 0.2,0 0.1,0 0.2,0 0.1,0 0.1,0 0.2,0 0.1,0 0.1,0 0.2,0 0.1,0 0.1,0 0.2,0 0.1,0 0.1,0 0.2,0 0.1,0 0.1,3.5 0.2,0 0.1,0 0.1,0 0.2,0 0.1,0 0.1,0 0.1,0 0.2,0 0.1,0 0.1,0 0.2,0 0.1,0 0.1,0 0.1,0 0.2,0 0.1,0 0.1,0 0.1,0 0.2,0 0.1,0 0.1,0 0.1,0 0.2,0 0.1,0 0.1,0 0.1,0 0.1,0 0.2,0 0.1,0 0.1,3.9 0.1,0 0.2,0 0.1,0 0.1,0 0.1,0 0.1,0 0.2,0 0.1,0 0.1,0 0.1,0 0.1,0 0.1,0 0.2,0 0.1,0 0.1,0 0.1,0 0.1,0 0.1,0 0.2,0 0.1,0 0.1,0 0.1,0 0.1,0 0.1,0 0.1,0 0.2,0 0.1,0 0.1,0 0.1,0 0.1,0 0.1,0 0.1,0 0.1,0 0.1,0 0.2,4.5 0.1,0 0.1,0 0.1,0 0.1,0 0.1,0 0.1,0 0.1,0 0.1,0 0.1,0 0.1,0 0.2,0 0.1,0 0.1,0 0.1,0 0.1,0 0.1,0 0.1,0 0.1,0 0.1,0 0.1,0 0.1,0 0.1,0 0.1,0 0.1,0 0.1,0 0.1,0 0.1,0 0.1,0 0.2,0 0.1,0 0.1,0 0.1,0 0.1,0 0.1,0 0.1,0 0.1,0 0.1,0 0.1,0 0.1,0 0.1,0 0.1,0 0.1,0 0.1,0 0.1,0 0.1,0 0.1,0 0.1,0 0.1,0 0.1,0 0.1,0 0.1,0 0.1,0 0.1,0 0.1,0 0.1,0 0.1,0 0.1,0 0.1,5.1 0.1,0 0.1,0 0.1,0 0.1,0 0.1,0 0.1,0 0.1,0 0.1,0 0.1,0 0.1,0 0.1,0 0.1,0 0.1,0 0.1,0 0.1,0 0.1,0 0.1,0 0.1,0 0.1,0 0.1,0 0.1,0 0.1,0 0.1,0 0.1,0 0.1,0 0.1,0 0.1,0 0.1,0 0.1,0 0.1,0 0.1,0 0.1,0 0.1,0 0.1,0 0.1,0 0.1,0 0.1,0 0.1,0 0.1,0 0.1,0 0.1,0 0.1,0 0.1,0 0.1,0 0.1,0 0.1,0 0.1,0 0.1,0 0.1,0 0.1,0 0.1,0 0.1,0 0.1,0 0.1,0 0.1,0 0.1,0 0.1,0 0.1,0 0.1,0 0.1,0 0.1,0 0.1,0 0.1,0 0.1,0 0.1,0 0.1,0 0.1,0 0.1,0 0.1,0 0.1,0 0.1,0 0.1,0 0.1,0 0.1,0 0.1,0 0.1,0 0.1,0 0.1,0 0.1,0 0.1,0 0.1,6 0.1,0 0.1,0 0.1,0 0.1,0 0.1,0 0.1,0 0.1,0 0.1,0 0.1,0 0.1,0 0.1,0 0.1,0 0.1,0 0.1,0 0.1,0 0.1,0 0.1,0 0.1,0 0.1,0 0.1,0 0.1,0 0.1,0 0.1,0 0.1,0 0.1,0 0.1,0 0.1,0 0.1,0 0.1,0 0.1,0 0.1,0 0.1,0 0.1,0 0.1,0 0.1,0 0.1,0 0.1,0 0.1,0 0.1,0 0.1,0 0.1,0 0.1,0 0.1,0 0.1,0 0.1,0 0.1,0 0.1,0 0.1,0 0.1,0 0.1,0 0.1,0 0.1,0 0.1,0 0.1,0 0.1,0 0.1,0 0.1,0 0.1,0 0.1,0 0.1,0 0.1,0 0.1,0 0.1,0 0.1,0 0.1,0 0.1,0 0.1,0 0.1,0 0.1,0 0.1,0 0.1,0 0.1,0 0.1,0 0.1,0 0.1,0 0.1,0 0.1,0 0.1,0 0.1,0 0.1,0 0.1,0 0.1,0 0.1,0 0.1,0 0.1,0 0.1,0 0.1,0 0.1,0 0.1,0 0.1,0 0.1,0 0.1,0 0.1,0 0.1,0 0.1,0 0.1,0 0.1,0 0.1,0 0.1,0 0.1,0 0.1,0 0.1,0 0.1,0 0.1,0 0.1,0 0.1,0 0.1,0 0.1,7.4 0.1,0 0.1,0 0.1,0 0.1,0 0.1,0 0.1,0 0.1,0 0.1,0 0.1,0 0.1,0 0.1,0 0.1,0 0.1,0 0.1,0 0.1,0 0.1,0 0.1,0 0.1,0 0.1,0 0.1,0 0.1,0 0.1,0 0.1,0 0.1,0 0.1,0 0.1,0 0.1,0 0.1,0 0.1,0 0.1,0 0.1,0 0.1,0 0.1,0 0.1,0 0.1,0 0.1,0 0.1,0 0.1,0 0.1,0 0.1,0 0.1,0 0.1,0 0.1,0 0.1,0 0.1,0 0.1,0 0.1,0 0.1,0 0.1,0 0.1,0 0.1,0 0.1,0 0.1,0 0.1,0 0.1,0 0.1,0 0.1,0 0.1,0 0.1,0 0.1,0 0.1,0 0.1,0 0.1,0 0.1,0 0.1,0 0.1,0 0.1,0 0.1,0 0.1,0 0.1,0 0.1,0 0.1,0 0.1,0 0.1,0 0.1,0 0.1,0 0.1,0 0.1,0 0.1,0 0.1,0 0.1,0 0.1,0 0.1,0 0.1,0 0.1,0 0.1,0 0.1,0 0.1,0 0.1,0 0.1,0 0.1,0 0.1,0 0.1,0 0.1,0 0.1,0 0.1,0 0.1,0 0.1,0 0.1,0 0.1,0 0.1,0 0.1,0 0.1,0 0.1,0 0.1,0 0.1,0 0.1,0 0.1,0 0.1,0 0.1,0 0.1,0 0.1,0 0.1,0 0.1,0 0.1,0 0.1,0 0.1,0 0.1,0 0.1,0 0.1,9.6 0.1,0 0.1,0 0.1,0 0.1,0 0.1,0 0.1,0 0.1,0 0.1,0 0.1,0 0.1,0 0.1,0 0.1,0 0.1,0 0.1,0 0.1,0 0.1,0 0.1,0 0.1,0 0.1,0 0.1,0 0.1,0 0.1,0 0.1,0 0.1,0 0.1,0 0.1,0 0.1,0 0.1,0 0.1,0 0.1,0 0.1,0 0.1,0 0.1,0 0.1,0 0.1,0 0.1,0 0.1,0 0.1,0 0.1,0 0.1,0 0.1,0 0.1,0 0.1,0 0.1,0 0.1,0 0.1,0 0.1,0 0.1,0 0.1,0 0.1,0 0.1,0 0.1,0 0.1,0 0.1,0 0.1,0 0.1,0 0.1,0 0.1,0 0.1,0 0.1,0 0.1,0 0.1,0 0.1,0 0.1,0 0.1,0 0.1,0 0.1,0 0.1,0 0.1,0 0.1,0 0.1,0 0.1,0 0.1,0 0.1,0 0.1,0 0.1,0 0.1,0 0.1,0 0.1,0 0.1,0 0.1,0 0.1,0 0.1,0 0.1,0 0.1,0 0.1,0 0.1,0 0.1,0 0.1,0 0.1,0 0.1,0 0.1,0 0.1,0 0.1,0 0.1,0 0.1,0 0.1,0 0.1,0 0.1,0 0.1,0 0.1,0 0.1,0 0.1,0 0.1,0 0.1,0 0.1,0 0.1,0 0.1,0 0.1,0 0.1,0 0.1,0 0.1,0 0.1,0 0.1,0 0.1,0 0.1,0 0.1,0 0.1,0 0.1,0 0.1,0 0.1,0 0.1,0 0.1,0 0.1,0 0.1,0 0.1,0 0.1,0 0.1,0 0.1,0 0.1,0 0.1,0 0.1,0 0.1,0 0.1,0 0.1,0 0.1,0 0.1,0 0.1,0 0.1,0 0.1,0 0.1,0 0.1,0 0.1,0 0.1,0 0.1,0 0.1,0 0.1,0 0.1,0 0.1,0 0.1,0 0.1,0 0.1,0 0.1,0 0.1,0 0.1,0 0.1,0 0.1,0 0.1,0 0.1,0 0.1,0 0.1,0 0.1,0 0.1,0 0.1,0 0.1,0 0.1,0 0.1,13.5 0.1,0 0.1,0 0.1,0 0.1,0 0.1,0 0.1,0 0.1,0 0.1,0 0.1,0 0.1,0 0.1,0 0.1,0 0.1,0 0.1,0 0.1,0 0.1,0 0.1,0 0.1,0 0.1,0 0.1,0 0.1,0 0.1,0 0.1,0 0.1,0 0.1,0 0.1,0 0.1,0 0.1,0 0.1,0 0.1,0 0.1,0 0.1,0 0.1,0 0.1,0 0.1,0 0.1,0 0.1,0 0.1,0 0.1,0 0.1,0 0.1,0 0.1,0 0.1,0 0.1,0 0.1,0 0.1,0 0.1,0 0.1,0 0.1,0 0.1,0 0.1,0 0.1,0 0.1,0 0.1,0 0.1,0 0.1,0 0.1,0 0.1,0 0.1,0 0.1,0 0.1,0 0.1,0 0.1,0 0.1,0 0.1,0 0.1,0 0.1,0 0.1,0 0.1,0 0.1,0 0.1,0 0.1,0 0.1,0 0.1,0 0.1,0 0.1,0 0.1,0 0.1,0 0.1,0 0.1,0 0.1,0 0.1,0 0.1,0 0.1,0 0.1,0 0.1,0 0.1,0 0.1,0 0.1,0 0.1,0 0.1,0 0.1,0 0.1,0 0.1,0 0.1,0 0.1,0 0.1,0 0.1,0 0.1,0 0.1,0 0.1,0 0.1,0 0.1,0 0.1,0 0.1,0 0.1,0 0.1,0 0.1,0 0.1,0 0.1,0 0.1,0 0.1,0 0.1,0 0.1,0 0.1,0 0.1,0 0.1,0 0.1,0 0.1,0 0.1,0 0.1,0 0.1,0 0.1,0 0.1,0 0.1,0 0.1,0 0.1,0 0.1,0 0.1,0 0.1,0 0.1,0 0.1,0 0.1,0 0.1,0 0.1,0 0.1,0 0.1,0 0.1,0 0.1,0 0.1,0 0.1,0 0.1,0 0.1,0 0.1,0 0.1,0 0.1,0 0.1,0 0.1,0 0.1,0 0.1,0 0.1,0 0.1,0 0.1,0 0.1,0 0.1,0 0.1,0 0.1,0 0.1,0 0.1,0 0.1,0 0.1,0 0.1,0 0.1,0 0.1,0 0.1,0 0.1,0 0.1,0 0.1,0 0.1,0 0.1,0 0.1,0 0.1,0 0.1,0 0.1,0 0.1,0 0.1,0 0.1,0 0.1,0 0.1,0 0.1,0 0.1,0 0.1,0 0.1,0 0.1,0 0.1,0 0.1,0 0.1,0 0.1,0 0.1,0 0.1,0 0.1,0 0.1,0 0.1,0 0.1,0 0.1,0 0.1,0 0.1,0 0.1,0 0.1,0 0.1,0 0.1,0 0.1,0 0.1,0 0.1,0 0.1,0 0.1,0 0.1,0 0.1,0 0.1,0 0.1,0 0.1,0 0.1,0 0.1,0 0.1,0 0.1,0 0.1,0 0.1,0 0.1,0 0.1,0 0.1,0 0.1,0 0.1,0 0.1,0 0.1,0 0.1,0 0.1,0 0.1,0 0.1,0 0.1,0 0.1,0 0.1,0 0.1,0 0.1,0 0.1,0 0.1,0 0.1,0 0,23 0.1,0 0.1,0 0.1,0 0.1,0 0.1,0 0.1,0 0.1,0 0.1,0 0.1,0 0.1,0 0.1,0 0.1,0 0.1,0 0.1,0 0.1,0 0.1,0 0.1,0 0.1,0 0.1,0 0.1,0 0.1,0 0.1,0 0.1,0 0.1,0 0.1,0 0.1,0 0.1,0 0.1,0 0.1,0 0.1,0 0.1,0 0.1,0 0.1,0 0.1,0 0.1,0 0.1,0 0.1,0 0.1,0 0.1,0 0.1,0 0.1,0 0.1,0 0.1,0 0.1,0 0.1,0 0.1,0 0.1,0 0.1,0 0.1,0 0.1,0 0.1,0 0.1,0 0.1,0 0.1,0 0.1,0 0.1,0 0.1,0 0.1,0 0.1,0 0.1,0 0.1,0 0.1,0 0.1,0 0.1,0 0.1,0 0.1,0 0.1,0 0.1,0 0.1,0 0.1,0 0.1,0 0.1,0 0.1,0 0.1,0 0.1,0 0.1,0 0.1,0 0.1,0 0.1,0 0.1,0 0.1,0 0.1,0 0.1,0 0.1,0 0.1,0 0.1,0 0.1,0 0.1,0 0.1,0 0.1,0 0.1,0 0.1,0 0.1,0 0.1,0 0.1,0 0.1,0 0.1,0 0.1,0 0.1,0 0.1,0 0.1,0 0.1,0 0.1,0 0.1,0 0.1,0 0.1,0 0.1,0 0.1,0 0.1,0 0.1,0 0.1,0 0.1,0 0.1,0 0.1,0 0.1,0 0.1,0 0.1,0 0.1,0 0.1,0 0.1,0 0.1,0 0.1,0 0.1,0 0.1,0 0.1,0 0.1,0 0.1,0 0.1,0 0.1,0 0.1,0 0.1,0 0.1,0 0.1,0 0.1,0 0.1,0 0.1,0 0.1,0 0.1,0 0.1,0 0.1,0 0.1,0 0.1,0 0.1,0 0.1,0 0.1,0 0.1,0 0.1,0 0.1,0 0.1,0 0.1,0 0.1,0 0.1,0 0.1,0 0.1,0 0.1,0 0.1,0 0.1,0 0.1,0 0.1,0 0.1,0 0.1,0 0.1,0 0.1,0 0.1,0 0.1,0 0.1,0 0.1,0 0.1,0 0.1,0 0.1,0 0.1,0 0.1,0 0.1,0 0.1,0 0.1,0 0.1,0 0.1,0 0.1,0 0.1,0 0.1,0 0.1,0 0.1,0 0.1,0 0.1,0 0.1,0 0.1,0 0.1,0 0.1,0 0.1,0 0.1,0 0.1,0 0.1,0 0.1,0 0.1,0 0.1,0 0.1,0 0.1,0 0.1,0 0.1,0 0.1,0 0.1,0 0.1,0 0.1,0 0.1,0 0.1,0 0.1,0 0.1,0 0.1,0 0.1,0 0.1,0 0.1,0 0.1,0 0.1,0 0.1,0 0.1,0 0.1,0 0.1,0 0.1,0 0.1,0 0.1,0 0.1,0 0.1,0 0.1,0 0.1,0 0.1,0 0.1,0 0.1,0 0.1,0 0.1,0 0.1,0 0.1,0 0.1,0 0.1,0 0.1,0 0.1,0 0.1,0 0.1,0 0.1,0 0.1,0 0.1,0 0.1,0 0.1,0 0.1,0 0.1,0 0.1,0 0.1,0 0.1,0 0.1,0 0.1,0 0.1,0 0.1,0 0.1,0 0.1,0 0.1,0 0.1,0 0.1,0 0.1,0 0.1,0 0.1,0 0.1,0 0.1,0 0.1,0 0.1,0 0.1,0 0.1,0 0.1,0 0.1,0 0.1,0 0.1,0 0.1,0 0.1,0 0.1,0 0.1,0 0.1,0 0.1,0 0.1,0 0.1,0 0.1,0 0.1,0 0.1,0 0.1,0 0.1,0 0.1,0 0.1,0 0.1,0 0.1,0 0.1,0 0.1,0 0.1,0 0.1,0 0.1,0 0.1,0 0.1,0 0.1,0 0.1,0 0.1,0 0.1,0 0.1,0 0.1,0 0.1,0 0.1,0 0.1,0 0.1,0 0.1,0 0.1,0 0.1,0 0.1,0 0.1,0 0.1,0 0.1,0 0.1,0 0.1,0 0.1,0 0.1,0 0.1,0 0.1,0 0.1,0 0.1,0 0.1,0 0.1,0 0.1,0 0.1,0 0.1,0 0.1,0 0.1,0 0.1,0 0.1,0 0.1,0 0.1,0 0.1,0 0.1,0 0.1,0 0.1,0 0.1,0 0.1,0 0.1,0 0.1,0 0.1,0 0.1,0 0.1,0 0.1,0 0.1,0 0.1,0 0.1,0 0.1,0 0.1,0 0.1,0 0.1,0 0.1,0 0.1,0 0.1,0 0.1,0 0.1,0 0.1,0 0.1,0 0.1,0 0.1,0 0.1,0 0.1,0 0.1,0 0.1,0 0.1,0 0.1,0 0.1,0 0.1,0 0.1,0 0.1,0 0.1,0 0.1,0 0.1,0 0.1,0 0.1,0 0.1,0 0.1,0 0.1,0 0.1,0 0.1,0 0.1,0 0.1,0 0.1,0 0.1,0 0.1,0 0.1,0 0.1,0 0.1,0 0.1,0 0.1,0 0.1,0 0.1,0 0.1,0 0.1,0 0.1,0 0.1,0 0.1,0 0.1,0 0.1,0 0.1,0 0.1,0 0.1,0 0.1,0 0.1,0 0.1,0 0.1,0 0.1,0 0.1,0 0.1,0 0.1,0 0.1,0 0.1,0 0.1,0 0.1,0 0.1,0 0.1,0 0.1,0 0.1,0 0.1,0 0.1,0 0.1,0 0.1,0 0.1,0 0.1,0 0.1,0 0.1,0 0.1,0 0.1,0 0.1,0 0.1,0 0.1,0 0.1,0 0.1,0 0.1,0 0.1,0 0.1,0 0.1,0 0.1,0 0.1,0 0.1,0 0.1,0 0.1,0 0.1,0 0.1,0 0.1,0 0.1,0 0.1,0 0.1,0 0.1,0 0.1,0 0.1,0 0.1,0 0.1,0 0.1,0 0.1,0 0.1,0 0.1,0 0.1,0 0.1,0 0.1,0 0.1,0 0.1,0 0.1,0 0.1,0 0.1,0 0.1,0 0.1,0 0.1,0 0.1,0 0.1,0 0.1,0 0.1,0 0.1,0 0.1,0 0.1,0 0.1,0 0.1,0 0.1,0 0.1,0 0.1,0 0.1,0 0.1,0 0.1,0 0.1,0 0.1,0 0.1,0 0.1,0 0.1,0 0.1,0 0.1,0 0.1,0 0.1,0 0.1,0 0.1,0 0.1,0 0.1,0 0.1,0 0.1,0 0.1,0 0.1,0 0.1,0 0.1,0 0.1,0 0.1,0 0.1,0 0.1,0 0.1,0 0.1,0 0.1,0 0.1,0 0.1,0 0.1,0 0.1,0 0.1,0 0.1,0 0.1,0 0.1,0 0.1,0 0.1,0 0.1,0 0.1,0 0.1,0 0.1,0 0.1,0 0.1,0 0.1,0 0.1,0 0.1,0 0.1,0 0.1,0 0.1,0 0.1,0 0.1,0 0.1,0 0.1,0 0.1,0 0.1,0 0.1,0 0.1,0 0.1,0 0.1,0 0.1,0 0.1,0 0.1,0 0.1,0 0.1,0 0.1,0 0.1,0 0.1,0 0.1,0 0.1,0 0.1,0 0.1,0 0.1,0 0.1,0 0.1,0 0.1,0 0.1,0 0.1,0 0.1,0 0.1,0 0.1,0 0.1,0 0.1,0 0.1,0 0.1,0 0.1,0 0.1,0 0.1,0 0.1,0 0.1,0 0.1,0 0.1,0 0.1,0 0.1,0 0.1,0 0.1,0 0.1,0 0.1,0 0.1,0 0.1,0 0.1,0 0.1,0 0.1,0 0.1,0 0.1,0 0.1,0 0.1,0 0.1,0 0.1,0 0.1,0 0.1,0 0.1,0 0.1,0 0.1,0 0.1,0 0.1,0 0.1,0 0.1,0 0.1,0 0.1,0 0.1,0 0.1,0 0.1,0 0.1,0 0.1,0 0.1,0 0.1,0 0.1,0 0.1,0 0.1,0 0.1,0 0.1,0 0.1,0 0.1,0 0.1,0 0.1,0 0.1,0 0.1,0 0.1,0 0.1,0 0.1,0 0.1,0 0.1,0 0.1,0 0.1,0 0.1,0 0.1,0 0.1,0 0.1,0 0.1,0 0.1,0 0.1,0 0.1,0 0.1,0 0.1,0 0.1,0 0.1,0 0.1,0 0.1,0 0.1,0 0.1,0 0.1,0 0.1,0 0.1,0 0.1,0 0.1,0 0.1,0 0.1,0 0.1,0 0.1,0 0.1,0 0.1,0 0.1,0 0.1,0 0.1,0 0.1,0 0.1,0 0.1,0 0.1,0 0.1,0 0.1,0 0.1,0 0.1,0 0.1,0 0.1,0 0.1,0 0.1,0 0.1,0 0.1,0 0.1,0 0.1,0 0.1,0 0.1,0 0.1,0 0.1,0 0.1,0 0.1,0 0.1,0 0.1,0 0.1,0 0.1,0 0.1,0 0.1,0 0.1,0 0.1,0 0.1,0 0.1,0 0.1,0 0.1,0 0.1,0 0.1,0 0.1,0 0.1,0 0.1,0 0.1,0 0.1,0 0.1,0 0.1,0 0.1,0 0.1,0 0.1,0 0.1,0 0.1,0 0.1,0 0.1,0 0.1,0 0.1,0 0.1,0 0.1,0 0.1,0 0.1,0 0.1,0 0.1,0 0.1,0 0.1,0 0.1,0 0.1,0 0.1,0 0.1,0 0.1,0 0.1,0 0.1,0 0.1,0 0.1,0 0.1,0 0.1,0 0.1,0 0.1,0 0.1,0 0.1,0 0.1,0 0.1,0 0.1,0 0.1,0 0.1,0 0.1,0 0.1,0 0.1,0 0.1,0 0.1,0 0.1,0 0.1,0 0.1,0 0.1,0 0.1,0 0.1,0 0.1,0 0.1,0 0.1,0 0.1,0 0.1,0 0.1,0 0.1,0 0.1,0 0.1,0 0.1,0 0.1,0 0.1,0 0.1,0 0.1,0 0.1,0 0.1,0 0.1,0 0.1,0 0.1,0 0.1,0 0.1,0 0.1,0 0.1,0 0.1,0 0.1,0 0.1,0 0.1,0 0.1,0 0.1,0 0.1,0 0.1,0 0.1,0 0.1,0 0.1,0 0.1,0 0.1,0 0.1,0 0.1,0 0.1,0 0.1,0 0.1,0 0.1,0 0.1,0 0.1,0 0.1,0 0.1,0 0.1,0 0.1,0 0.1,0 0.1,0 0.1,0 0.1,0 0.1,0 0.1,0 0.1,0 0.1,0 0.1,0 0.1,0 0.1,0 0.1,0 0.1,0 0.1,0 0.1,0 0.1,0 0.1,0 0.1,0 0.1,0 0.1,0 0.1,0 0.1,0 0.1,0 0.1,0 0.1,0 0.1,0 0.1,0 0.1,0 0.1,0 0.1,0 0.1,0 0.1,0 0.1,0 0.1,0 0.1,0 0.1,0 0.1,0 0.1,0 0.1,0 0.1,0 0.1,0 0.1,0 0.1,0 0.1,0 0.1,0 0.1,0 0.1,0 0.1,0 0.1,0 0.1,0 0.1,0 0.1,0 0.1,0 0.1,0 0.1,0 0.1,0 0.1,0 0.1,0 0.1,0 0.1,0 0.1,0 0.1,0 0.1,0 0.1,0 0.1,0 0.1,0 0.1,0 0.1,0 0.1,0 0.1,0 0.1,0 0.1,0 0.1,0 0.1,0 0.1,0 0.1,0 0.1,0 0.1,0 0.1,0 0.1,0 0.1,0 0.1,0 0.1,0 0.1,0 0.1,0 0.1,0 0.1,0 0.1,0 0.1,0 0.1,0 0.1,0 0.1,0 0.1,0 0.1,0 0.1,0 0.1,0 0.1,0 0.1,0 0.1,0 0.1,0 0.1,0 0.1,0 0.1,0 0.1,0 0.1,0 0.1,0 0.1,0 0.1,0 0.1,0 0.1,0 0.1,0 0.1,0 0.1,0 0.1,0 0.1,0 0.1,0 0.1,0 0.1,0 0.1,0 0.1,0 0.1,0 0.1,0 0.1,0 0.1,0 0.1,0 0.1,0 0.1,0 0.1,0 0.1,0 0.1,0 0.1,0 0.1,0 0.1,0 0.1,0 0.1,0 0.1,0 0.1,0 0.1,0 0.1,0 0.1,0 0.1,0 0.1,0 0.1,0 0.1,0 0.1,0 0.1,0 0.1,0 0.1,0 0.1,0 0.1,0 0.1,0 0.1,0 0.1,0 0.1,0 0.1,0 0.1,0 0.1,0 0.1,0 0.1,0 0.1,0 0.1,0 0.1,0 0.1,0 0.1,0 0.1,0 0.1,0 0.1,0 0.1,0 0.1,0 0.1,0 0.1,0 0.1,0 0.1,0 0.1,0 0.1,0 0.1,0 0.1,0 0.1,0 0.1,0 0.1,0 0.1,0 0.1,0 0.1,0 0.1,0 0.1,0 0.1,0 0.1,0 0.1,0 0.1,0 0.1,0 0.1,0 0.1,0 0.1,0 0.1,0 0.1,0 0.1,0 0.1,0 0.1,0 0.1,0 0.1,0 0.1,0 0.1,0 0.1,0 0.1,0 0.1,0 0.1,0 0.1,0 0.1,0 0.1,0 0.1,0 0.1,0 0.1,0 0.1,0 0.1,0 0.1,0 0.1,0 0.1,0 0.1,0 0.1,0 0.1,0 0.1,0 0.1,0 0.1,0 0.1,0 0.1,0 0.1,0 0.1,0 0.1,0 0.1,0 0.1,0 0.1,0 0.1,0 0.1,0 0.1,0 0.1,0 0.1,0 0.1,0 0.1,0 0.1,0 0.1,0 0.1,0 0.1,0 0.1,0 0.1,0 0.1,0 0.1,0 0.1,0 0.1,0 0.1,0 0.1,0 0.1,0 0.1,0 0.1,0 0.1,0 0.1,0 0.1,0 0.1,0 0.1,0 0.1,0 0.1,0 0.1,0 0.1,0 0.1,0 0.1,0 0.1,0 0.1,0 0.1,0 0.1,0 0.1,0 0.1,0 0.1,0 0.1,0 0.1,0 0.1,0 0.1,0 0.1,0 0.1,0 0.1,0 0.1,0 0.1,0 0.1,0 0.1,0 0.1,0 0.1,0 0.1,0 0.1,0 0.1,0 0.1,0 0.1,0 0.1,0 0.1,0 0.1,0 0.1,0 0.1,0 0.1,0 0.1,0 0.1,0 0.1,0 0.1,0 0.1,0 0.1,0 0.1,0 0.1,0 0.1,0 0.1,0 0.1,0 0.1,0 0.1,0 0.1,0 0.1,0 0.1,0 0.1,0 0.1,0 0.1,0 0.1,0 0.1,0 0.1,0 0.1,0 0.1,0 0.1,0 0.1,0 0.1,0 0.1,0 0.1,0 0.1,0 0.1,0 0.1,0 0.1,0 0.1,0 0.1,0 0.1,0 0.1,0 0.1,0 0.1,0 0.1,0 0.1,0 h 0.01"
           id="path4008"
           inkscape:connector-curvature="0"
           style="stroke:#000000" />
      </g>
    </g>
    <g
       transform="translate(432.7,335.6)"
       style="font-size:12.5px;text-anchor:start;fill:#000000;stroke:none"
       id="g4010">
      <text
         id="text4012">
        <tspan
           id="tspan4014">1</tspan>
      </text>
    </g>
    <g
       transform="translate(417.4,301.6)"
       style="font-size:12.5px;text-anchor:start;fill:#000000;stroke:none"
       id="g4016">
      <text
         id="text4018">
        <tspan
           id="tspan4020">2</tspan>
      </text>
    </g>
    <g
       transform="translate(431.3,319)"
       style="font-size:12.5px;text-anchor:start;fill:#000000;stroke:none"
       id="g4022">
      <text
         id="text4024">
        <tspan
           id="tspan4026">3</tspan>
      </text>
    </g>
    <g
       transform="translate(393.3,357.4)"
       style="font-size:12.5px;text-anchor:start;fill:#000000;stroke:none"
       id="g4028">
      <text
         id="text4030">
        <tspan
           id="tspan4032">4</tspan>
      </text>
    </g>
    <g
       transform="translate(412.5,295.3)"
       style="font-size:12.5px;text-anchor:start;fill:#000000;stroke:none"
       id="g4034">
      <text
         id="text4036">
        <tspan
           id="tspan4038">5</tspan>
      </text>
    </g>
    <g
       transform="translate(399.9,283.1)"
       style="font-size:12.5px;text-anchor:start;fill:#000000;stroke:none"
       id="g4040">
      <text
         id="text4042">
        <tspan
           id="tspan4044">6</tspan>
      </text>
    </g>
    <g
       transform="translate(433.8,328.5)"
       style="font-size:12.5px;text-anchor:start;fill:#000000;stroke:none"
       id="g4046">
      <text
         id="text4048">
        <tspan
           id="tspan4050">7</tspan>
      </text>
    </g>
    <g
       style="color:#ffffff;fill:none;stroke:#000000;stroke-width:0.5;stroke-linecap:butt;stroke-linejoin:miter"
       id="g4052" />
    <g
       style="color:#000000;fill:none;stroke:currentColor;stroke-width:0.5;stroke-linecap:butt;stroke-linejoin:miter"
       id="g4054" />
  </g>
</svg>
