<?xml version="1.0" encoding="UTF-8" standalone="no"?>
<svg
   xmlns:dc="http://purl.org/dc/elements/1.1/"
   xmlns:cc="http://creativecommons.org/ns#"
   xmlns:rdf="http://www.w3.org/1999/02/22-rdf-syntax-ns#"
   xmlns:svg="http://www.w3.org/2000/svg"
   xmlns="http://www.w3.org/2000/svg"
   xmlns:xlink="http://www.w3.org/1999/xlink"
   xmlns:sodipodi="http://sodipodi.sourceforge.net/DTD/sodipodi-0.dtd"
   xmlns:inkscape="http://www.inkscape.org/namespaces/inkscape"
   viewBox="0 0 588.42255 435.32548"
   id="svg2"
   version="1.1"
   inkscape:version="0.48.4 r9939"
   width="100%"
   height="100%"
   sodipodi:docname="inverseZipfplot_original_sgt.svg">
  <metadata
     id="metadata217">
    <rdf:RDF>
      <cc:Work
         rdf:about="">
        <dc:format>image/svg+xml</dc:format>
        <dc:type
           rdf:resource="http://purl.org/dc/dcmitype/StillImage" />
        <dc:title>Gnuplot</dc:title>
      </cc:Work>
    </rdf:RDF>
  </metadata>
  <defs
     id="defs215" />
  <sodipodi:namedview
     pagecolor="#ffffff"
     bordercolor="#666666"
     borderopacity="1"
     objecttolerance="10"
     gridtolerance="10"
     guidetolerance="10"
     inkscape:pageopacity="0"
     inkscape:pageshadow="2"
     inkscape:window-width="1310"
     inkscape:window-height="755"
     id="namedview213"
     showgrid="false"
     fit-margin-top="0"
     fit-margin-left="0"
     fit-margin-right="0"
     fit-margin-bottom="0"
     inkscape:zoom="1.2697121"
     inkscape:cx="420.67003"
     inkscape:cy="219.32548"
     inkscape:window-x="0"
     inkscape:window-y="0"
     inkscape:window-maximized="0"
     inkscape:current-layer="svg2" />
  <title
     id="title4">Gnuplot</title>
  <desc
     id="desc6">Produced by GNUPLOT 4.6 patchlevel 1 </desc>
  <g
     id="gnuplot_canvas"
     transform="translate(12.422551,0)">
    <rect
       x="0"
       y="0"
       width="576"
       height="432"
       id="rect9"
       style="fill:none" />
    <defs
       id="defs11">
      <circle
         id="gpDot"
         r="0.5"
         cx="0"
         cy="0"
         sodipodi:cx="0"
         sodipodi:cy="0"
         sodipodi:rx="0.5"
         sodipodi:ry="0.5"
         style="stroke-width:0.5" />
      <path
         id="gpPt0"
         d="M -1,0 H 1 M 0,-1 v 2"
         inkscape:connector-curvature="0"
         style="stroke:currentColor;stroke-width:0.333" />
      <path
         id="gpPt1"
         d="M -1,-1 1,1 M 1,-1 -1,1"
         inkscape:connector-curvature="0"
         style="stroke:currentColor;stroke-width:0.333" />
      <path
         id="gpPt2"
         d="M -1,0 1,0 M 0,-1 0,1 m -1,-2 2,2 m -2,0 2,-2"
         inkscape:connector-curvature="0"
         style="stroke:currentColor;stroke-width:0.333" />
      <rect
         id="gpPt3"
         x="-1"
         y="-1"
         width="2"
         height="2"
         style="stroke:currentColor;stroke-width:0.333" />
      <rect
         id="gpPt4"
         x="-1"
         y="-1"
         width="2"
         height="2"
         style="fill:currentColor;stroke:currentColor;stroke-width:0.333" />
      <circle
         id="gpPt5"
         cx="0"
         cy="0"
         r="1"
         sodipodi:cx="0"
         sodipodi:cy="0"
         sodipodi:rx="1"
         sodipodi:ry="1"
         style="stroke:currentColor;stroke-width:0.333" />
      <use
         xlink:href="#gpPt5"
         id="gpPt6"
         style="fill:currentColor;stroke:none"
         x="0"
         y="0"
         width="576"
         height="432" />
      <path
         id="gpPt7"
         d="m 0,-1.33 -1.33,2 2.66,0 z"
         inkscape:connector-curvature="0"
         style="stroke:currentColor;stroke-width:0.333" />
      <use
         xlink:href="#gpPt7"
         id="gpPt8"
         style="fill:currentColor;stroke:none"
         x="0"
         y="0"
         width="576"
         height="432" />
      <use
         xlink:href="#gpPt7"
         id="gpPt9"
         transform="scale(-1,-1)"
         style="stroke:currentColor"
         x="0"
         y="0"
         width="576"
         height="432" />
      <use
         xlink:href="#gpPt9"
         id="gpPt10"
         style="fill:currentColor;stroke:none"
         x="0"
         y="0"
         width="576"
         height="432" />
      <use
         xlink:href="#gpPt3"
         id="gpPt11"
         transform="matrix(0.70710678,0.70710678,-0.70710678,0.70710678,0,0)"
         style="stroke:currentColor"
         x="0"
         y="0"
         width="576"
         height="432" />
      <use
         xlink:href="#gpPt11"
         id="gpPt12"
         style="fill:currentColor;stroke:none"
         x="0"
         y="0"
         width="576"
         height="432" />
    </defs>
    <g
       style="color:#ffffff;fill:none;stroke:currentColor;stroke-width:1;stroke-linecap:butt;stroke-linejoin:miter"
       id="g27" />
    <g
       style="color:#000000;fill:none;stroke:currentColor;stroke-width:1;stroke-linecap:butt;stroke-linejoin:miter"
       id="g29">
      <g
         style="stroke:none"
         id="g31">
        <polygon
           points="37.2,11.4 37.2,393.6 559,393.6 559,11.4 "
           id="polygon33"
           style="fill:#ffffff" />
      </g>
      <path
         d="m 37.2,393.6 0,-382.2 521.8,0 0,382.2 -521.8,0 h 0.01"
         id="path35"
         inkscape:connector-curvature="0"
         style="stroke:#000000" />
    </g>
    <g
       style="color:#000000;fill:none;stroke:#000000;stroke-width:0.5;stroke-linecap:butt;stroke-linejoin:miter"
       id="g37">
      <path
         d="m 37.2,393.6 8.4,0 m 513.5,0 -8.4,0 h 0.01"
         id="path39"
         inkscape:connector-curvature="0" />
      <g
         transform="translate(31.6,396.6)"
         style="font-size:12.5px;text-anchor:end;fill:#000000;stroke:none"
         id="g41">
        <text
           id="text43">
          <tspan
             id="tspan45">10</tspan>
          <tspan
             font-size="8.0pt"
             dy="-6.25"
             id="tspan47"
             style="font-size:10px">0</tspan>
          <tspan
             font-size="10.0pt"
             dy="6.25"
             id="tspan49"
             style="font-size:12.5px" />
        </text>
      </g>
      <path
         d="m 37.2,317.1 8.4,0 m 513.5,0 -8.4,0 h 0.01"
         id="path51"
         inkscape:connector-curvature="0" />
      <g
         transform="translate(31.6,320.1)"
         style="font-size:12.5px;text-anchor:end;fill:#000000;stroke:none"
         id="g53">
        <text
           id="text55">
          <tspan
             id="tspan57">10</tspan>
          <tspan
             font-size="8.0pt"
             dy="-6.25"
             id="tspan59"
             style="font-size:10px">1</tspan>
          <tspan
             font-size="10.0pt"
             dy="6.25"
             id="tspan61"
             style="font-size:12.5px" />
        </text>
      </g>
      <path
         d="m 37.2,240.7 8.4,0 m 513.5,0 -8.4,0 h 0.01"
         id="path63"
         inkscape:connector-curvature="0" />
      <g
         transform="translate(31.6,243.7)"
         style="font-size:12.5px;text-anchor:end;fill:#000000;stroke:none"
         id="g65">
        <text
           id="text67">
          <tspan
             id="tspan69">10</tspan>
          <tspan
             font-size="8.0pt"
             dy="-6.25"
             id="tspan71"
             style="font-size:10px">2</tspan>
          <tspan
             font-size="10.0pt"
             dy="6.25"
             id="tspan73"
             style="font-size:12.5px" />
        </text>
      </g>
      <path
         d="m 37.2,164.2 8.4,0 m 513.5,0 -8.4,0 h 0.01"
         id="path75"
         inkscape:connector-curvature="0" />
      <g
         transform="translate(31.6,167.2)"
         style="font-size:12.5px;text-anchor:end;fill:#000000;stroke:none"
         id="g77">
        <text
           id="text79">
          <tspan
             id="tspan81">10</tspan>
          <tspan
             font-size="8.0pt"
             dy="-6.25"
             id="tspan83"
             style="font-size:10px">3</tspan>
          <tspan
             font-size="10.0pt"
             dy="6.25"
             id="tspan85"
             style="font-size:12.5px" />
        </text>
      </g>
      <path
         d="m 37.2,87.8 8.4,0 m 513.5,0 -8.4,0 h 0.01"
         id="path87"
         inkscape:connector-curvature="0" />
      <g
         transform="translate(31.6,90.8)"
         style="font-size:12.5px;text-anchor:end;fill:#000000;stroke:none"
         id="g89">
        <text
           id="text91">
          <tspan
             id="tspan93">10</tspan>
          <tspan
             font-size="8.0pt"
             dy="-6.25"
             id="tspan95"
             style="font-size:10px">4</tspan>
          <tspan
             font-size="10.0pt"
             dy="6.25"
             id="tspan97"
             style="font-size:12.5px" />
        </text>
      </g>
      <path
         d="m 37.2,11.3 8.4,0 m 513.5,0 -8.4,0 h 0.01"
         id="path99"
         inkscape:connector-curvature="0" />
      <g
         transform="translate(31.6,14.3)"
         style="font-size:12.5px;text-anchor:end;fill:#000000;stroke:none"
         id="g101">
        <text
           id="text103">
          <tspan
             id="tspan105">10</tspan>
          <tspan
             font-size="8.0pt"
             dy="-6.25"
             id="tspan107"
             style="font-size:10px">5</tspan>
          <tspan
             font-size="10.0pt"
             dy="6.25"
             id="tspan109"
             style="font-size:12.5px" />
        </text>
      </g>
      <path
         d="m 37.2,393.6 0,-8.4 m 0,-373.9 0,8.4 h 0.01"
         id="path111"
         inkscape:connector-curvature="0" />
      <g
         transform="translate(37.2,408.6)"
         style="font-size:12.5px;text-anchor:middle;fill:#000000;stroke:none"
         id="g113">
        <text
           id="text115">
          <tspan
             id="tspan117">10</tspan>
          <tspan
             font-size="8.0pt"
             dy="-6.25"
             id="tspan119"
             style="font-size:10px">0</tspan>
          <tspan
             font-size="10.0pt"
             dy="6.25"
             id="tspan121"
             style="font-size:12.5px" />
        </text>
      </g>
      <path
         d="m 167.7,393.6 0,-8.4 m 0,-373.9 0,8.4 h 0.01"
         id="path123"
         inkscape:connector-curvature="0" />
      <g
         transform="translate(167.7,408.6)"
         style="font-size:12.5px;text-anchor:middle;fill:#000000;stroke:none"
         id="g125">
        <text
           id="text127">
          <tspan
             id="tspan129">10</tspan>
          <tspan
             font-size="8.0pt"
             dy="-6.25"
             id="tspan131"
             style="font-size:10px">1</tspan>
          <tspan
             font-size="10.0pt"
             dy="6.25"
             id="tspan133"
             style="font-size:12.5px" />
        </text>
      </g>
      <path
         d="m 298.2,393.6 0,-8.4 m 0,-373.9 0,8.4 h 0.01"
         id="path135"
         inkscape:connector-curvature="0" />
      <g
         transform="translate(298.2,408.6)"
         style="font-size:12.5px;text-anchor:middle;fill:#000000;stroke:none"
         id="g137">
        <text
           id="text139">
          <tspan
             id="tspan141">10</tspan>
          <tspan
             font-size="8.0pt"
             dy="-6.25"
             id="tspan143"
             style="font-size:10px">2</tspan>
          <tspan
             font-size="10.0pt"
             dy="6.25"
             id="tspan145"
             style="font-size:12.5px" />
        </text>
      </g>
      <path
         d="m 428.6,393.6 0,-8.4 m 0,-373.9 0,8.4 h 0.01"
         id="path147"
         inkscape:connector-curvature="0" />
      <g
         transform="translate(428.6,408.6)"
         style="font-size:12.5px;text-anchor:middle;fill:#000000;stroke:none"
         id="g149">
        <text
           id="text151">
          <tspan
             id="tspan153">10</tspan>
          <tspan
             font-size="8.0pt"
             dy="-6.25"
             id="tspan155"
             style="font-size:10px">3</tspan>
          <tspan
             font-size="10.0pt"
             dy="6.25"
             id="tspan157"
             style="font-size:12.5px" />
        </text>
      </g>
      <path
         d="m 559.1,393.6 0,-8.4 m 0,-373.9 0,8.4 h 0.01"
         id="path159"
         inkscape:connector-curvature="0" />
      <g
         transform="translate(559.1,408.6)"
         style="font-size:12.5px;text-anchor:middle;fill:#000000;stroke:none"
         id="g161">
        <text
           id="text163">
          <tspan
             id="tspan165">10</tspan>
          <tspan
             font-size="8.0pt"
             dy="-6.25"
             id="tspan167"
             style="font-size:10px">4</tspan>
          <tspan
             font-size="10.0pt"
             dy="6.25"
             id="tspan169"
             style="font-size:12.5px" />
        </text>
      </g>
      <path
         d="m 37.2,11.3 0,382.3 521.9,0 0,-382.3 -521.9,0 z m 0,0 h 0.01"
         id="path171"
         inkscape:connector-curvature="0"
         style="stroke-width:1.00000002;stroke-miterlimit:4;stroke-dasharray:none" />
      <g
         transform="matrix(0,-1,1,0,11.8,202.5)"
         style="font-size:12.5px;text-anchor:middle;fill:#000000;stroke:none"
         id="g173">
        <text
           id="text175"
           x="-0.73190284"
           y="-5.2745194"
           style="font-size:24.93931198px">
          <tspan
             id="tspan177">Nf</tspan>
        </text>
      </g>
      <g
         transform="translate(298.1,426.6)"
         style="font-size:12.5px;text-anchor:middle;fill:#000000;stroke:none"
         id="g179">
        <text
           id="text181"
           x="-0.26421389"
           y="8.725481"
           style="font-size:24.93931198px">
          <tspan
             id="tspan183">f</tspan>
        </text>
      </g>
    </g>
    <g
       id="gnuplot_plot_1a">
      <title
         id="title186">gnuplot_plot_1a</title>
      <g
         style="color:#ff0000;fill:none;stroke:currentColor;stroke-width:0.5;stroke-linecap:butt;stroke-linejoin:miter"
         id="g188">
        <g
           transform="translate(513.9,26.3)"
           style="font-size:12.5px;text-anchor:end;fill:#000000;stroke:none"
           id="g190">
          <text
             id="text192">
            <tspan
               id="tspan194">original</tspan>
          </text>
        </g>
        <path
           d="m 519.5,23.3 28.4,0 m -510.7,41.8 39.3,43.6 23,26.7 16.3,16.8 12.6,13.6 10.3,11.9 8.8,10.3 7.5,10.5 6.7,3.8 6,7.4 5.4,8.6 4.9,6.8 4.5,5.1 4.2,6.4 4,-1.7 3.6,7.8 3.4,5.4 3.3,0.8 3,2.2 3,6 2.7,0.5 2.7,8.2 2.5,0 2.4,0.7 2.3,0 2.2,5.4 2.2,-1.6 2,15.1 2,-16.7 1.9,20.8 1.9,1.5 1.8,6.6 1.7,-14.6 1.7,8 1.7,1.5 1.6,-8.3 1.5,6.8 1.5,3.1 1.5,-9.9 1.4,15.3 1.4,-1.9 1.4,0 1.3,-1.8 1.3,1.8 1.3,16.4 1.2,6.6 1.3,8.4 1.2,-8.4 1.1,-16.9 1.2,-4.2 1.1,21.1 1.1,-6.6 1.1,3.1 1,-3.1 1.1,10.5 1,9.6 1,-30.4 1,25.3 1,11.2 0.9,-19.6 0.9,0 1,19.6 0.9,30.4 0.9,-46.1 0.8,9.6 0.9,0 0.9,-5.1 0.8,5.1 0.8,13.5 0.8,9.5 0.8,-36.5 0.8,50 0.8,-46.1 0.8,4.5 0.7,0 0.8,18.6 0.7,0 0.8,46 0.7,-36.5 0.7,-23 0.7,59.5 0.7,-59.5 0.7,36.5 0.7,23 0.6,-53.4 0.7,30.4 0.7,-23 0.6,23 0.6,-13.5 0.7,-28.1 0.6,64.6 0.6,-36.5 0.6,13.5 0.6,23 0.6,-36.5 0.6,36.5 1.2,-23 0.6,-30.4 0.6,53.4 0.5,-36.5 0.6,-23 0.5,36.5 0.6,23 0.5,0 0.6,-36.5 0.5,36.5 0.5,0 0.5,-36.5 0.6,-16.9 0.5,30.4 0.5,0 0.5,-30.4 0.5,30.4 0.5,23 0.5,0 0.4,-23 0.5,-23 0.5,0 0.5,23 0.5,0 0.4,23 0.5,0 0.4,-23 0.5,23 0.4,-23 0.9,0 0.5,0 0.4,-30.4 1.3,7.4 0.9,9.5 0.4,13.5 0.4,-23 0.4,9.5 0.4,36.5 1.2,-36.5 2,13.5 0.4,-23 0.7,9.5 0.4,0 0.4,13.5 0.3,23 0.4,0 0.4,0 0.3,-36.5 0.4,13.5 0.4,23 0.3,-23 0.4,0 0.3,0 0.4,23 0.3,0 0.4,-23 0.7,23 0.3,0 0.3,0 1.1,-23 0.9,0 0.7,23 0.3,-46 0.6,23 0.4,23 0.9,0 0.9,0 0.3,0 1.2,-23 0.6,23 1.2,-36.5 0.3,36.5 0.2,0 0.6,0 0.6,0 0.2,-23 1.1,23 0.3,-23 0.3,23 0.5,-23 0.3,0 1.3,23 0.3,-23 0.2,23 0.5,0 0.3,0 0.5,0 0.3,-23 0.2,23 0.3,0 0.2,0 0.5,0 0.7,0 0.3,-23 1.2,23 0.2,0 0.2,0 1.6,-23 0.3,23 0.6,0 0.7,0 2,0 0.4,0 0.2,-23 2.1,23 0.4,0 1.2,0 0.4,0 0.2,0 0.4,0 0.2,0 0.7,0 0.6,0 0.2,0 0.6,0 0.7,0 0.4,0 0.3,0 0.2,0 1.3,-23 0.9,23 0.3,0 0.4,0 1.2,0 2.6,0 0.3,0 0.2,0 0.1,0 0.7,0 0.4,0 1.3,0 0.6,0 0.6,0 0.3,0 0.3,0 4.3,0 1.9,0 0.1,-23 0.3,23 0.4,0 0.4,-23 1,23 0.5,0 1,0 1.7,0 1.3,-23 1.2,23 0.1,0 0.1,0 2.3,0 0.1,0 1,0 2.7,0 2,0 2.1,0 2.6,0 2.4,0 0.3,0 0.1,0 1.8,0 0.2,0 0.3,0 0.6,0 1.6,0 1.1,-23 4.9,23 0.7,0 0.8,0 0.5,0 1.8,0 1.6,0 0.9,0 1.1,0 2.2,0 5.1,0 5.1,0 1.7,0 1.1,0 0.9,0 0.2,0 0.8,0 0.8,0 1.5,0 4.2,0 6.3,0 0.8,0 5.6,0 0.2,0 2.8,0 1.1,0 6.1,0 2,0 2.3,0 0.7,0 4.1,0 2.2,0 1.2,0 3.6,0 2,0 3.8,0 0.2,0 1.6,0 21.3,0 2.6,0 1.5,0 11.1,0 7.1,0 11.1,0 12.3,0 h 0.01"
           id="path196"
           style="stroke:#000000;stroke-width:2;stroke-miterlimit:4;stroke-dasharray:none"
           inkscape:connector-curvature="0" />
      </g>
    </g>
    <g
       id="gnuplot_plot_2a">
      <title
         id="title199">gnuplot_plot_2a</title>
      <g
         style="color:#ff0000;fill:none;stroke:currentColor;stroke-width:0.5;stroke-linecap:butt;stroke-linejoin:miter"
         id="g201">
        <g
           transform="translate(513.9,38.3)"
           style="font-size:12.5px;text-anchor:end;fill:#000000;stroke:none"
           id="g203">
          <text
             id="text205">
            <tspan
               id="tspan207">after sgt smoothing</tspan>
          </text>
        </g>
        <path
           d="m 519.5,35.3 28.4,0 M 41,65.1 l 37.5,43.6 22.2,26.7 15.9,16.8 12.4,13.6 10.2,11.9 8.6,10.3 7.4,10.5 6.6,3.8 5.9,7.4 5.4,8.6 4.9,6.8 4.5,5.1 4.2,6.4 3.8,-1.7 3.7,7.8 3.4,5.4 3.2,0.8 3,2.2 2.9,6 2.8,0.5 2.6,8.2 2.5,0 2.4,0.7 2.3,0 2.2,5.4 2.2,-1.6 2,15.1 2,-16.7 1.9,20.8 1.9,1.5 1.8,6.6 1.7,-14.6 1.7,8 1.6,1.5 1.6,-8.3 1.6,6.8 1.5,3.1 1.4,-9.9 1.5,15.3 1.4,-1.9 1.3,0 1.4,-1.8 1.3,1.8 1.2,16.4 1.3,6.6 1.2,8.4 1.2,-8.4 1.1,-16.9 1.2,-4.2 1.1,21.1 1.1,-6.6 1.1,3.1 1,-3.1 1.1,10.5 1,9.6 1,-30.4 1,25.3 0.9,11.2 1,-19.6 0.9,0 0.9,19.6 0.9,30.4 0.9,-46.1 0.9,9.6 0.9,0 0.8,-5.1 0.9,5.1 0.8,13.5 0.8,9.5 0.8,-36.5 0.8,50 0.8,-46.1 0.8,4.5 0.7,0 0.8,18.6 0.7,0 0.7,46 0.8,-36.5 0.7,-23 0.7,59.5 0.7,-59.5 0.6,36.5 0.7,23 0.7,-53.4 0.7,30.4 0.6,-23 0.7,23 0.6,-13.5 0.6,-28.1 0.7,64.6 0.6,-36.5 0.6,13.5 0.6,23 0.6,-36.5 0.6,36.5 1.2,-23 0.5,-30.4 0.6,53.4 0.6,-36.5 0.5,-23 0.6,36.5 0.5,23 0.6,0 0.5,-36.5 0.5,36.5 0.6,0 0.5,-36.5 0.5,-16.9 0.5,30.4 0.5,0 0.5,-30.4 0.5,30.4 0.5,23 0.5,0 0.5,-23 0.5,-23 0.4,0 0.5,23 0.5,0 0.5,23 0.4,0 0.5,-23 0.4,23 0.5,-23 0.9,0 0.4,0 0.4,-30.4 1.3,7.4 0.9,9.5 0.4,13.5 0.4,-23 0.4,9.5 0.4,36.5 1.2,-36.5 2,13.5 0.4,-23 0.7,9.5 0.4,0 0.4,13.5 0.4,23 0.3,0 0.4,0 0.4,-36.5 0.3,13.5 0.4,23 0.3,-23 0.4,0 0.4,0 0.3,23 0.4,0 0.3,-23 0.7,23 0.3,0 0.4,0 1,-23 1,0 0.6,23 0.3,-46 0.7,23 0.3,23 0.9,0 0.9,0 0.3,0 1.2,-23 0.6,23 1.2,-36.5 0.3,36.5 0.3,0 0.5,0 0.6,0 0.3,-23 1.1,23 0.2,-23 0.3,23 0.5,-23 0.3,0 1.3,23 0.3,-23 0.2,23 0.6,0 0.2,0 0.5,0 0.3,-23 0.2,23 0.3,0 0.2,0 0.5,0 0.7,0 0.3,-23 1.2,23 0.2,0 0.2,0 1.7,-23 0.2,23 0.7,0 0.6,0 2,0 0.4,0 0.2,-23 2.1,23 0.4,0 1.2,0 0.4,0 0.2,0 0.4,0 0.2,0 0.7,0 0.6,0 0.2,0 0.6,0 0.7,0 0.4,0 0.3,0 0.2,0 1.3,-23 0.9,23 0.3,0 0.4,0 1.2,0 2.6,0 0.3,0 0.2,0 0.1,0 0.7,0 0.4,0 1.3,0 0.6,0 0.6,0 0.3,0 0.3,0 4.3,0 1.9,0 0.1,-23 0.3,23 0.4,0 0.4,-23 1,23 0.5,0 1,0 1.7,0 1.3,-23 1.2,23 0.1,0 0.1,0 2.3,0 0.1,0 1,0 2.7,0 2,0 2.1,0 2.6,0 2.4,0 0.3,0 1.9,0 0.2,0 0.3,0 0.5,0 1.7,0 1.1,-23 4.9,23 0.7,0 0.8,0 0.5,0 1.8,0 1.6,0 0.9,0 1.1,0 2.2,0 5.1,0 5.1,0 1.6,0 1.2,0 0.9,0 0.2,0 0.8,0 0.8,0 1.5,0 4.2,0 6.3,0 0.8,0 5.6,0 0.1,0 2.9,0 1.1,0 6.1,0 2,0 2.2,0 0.8,0 4.1,0 2.2,0 1.2,0 3.5,0 2.1,0 3.8,0 0.2,0 1.6,0 21.3,0 2.6,0 1.5,0 11.1,0 7.1,0 11.1,0 12.8,0 h 0.01"
           id="path209"
           style="stroke:#000000;stroke-width:2;stroke-miterlimit:4;stroke-opacity:1;stroke-dasharray:6, 6;stroke-dashoffset:0"
           inkscape:connector-curvature="0" />
      </g>
    </g>
    <g
       style="color:#000000;fill:none;stroke:currentColor;stroke-width:0.5;stroke-linecap:butt;stroke-linejoin:miter"
       id="g211" />
  </g>
</svg>
