<?xml version="1.0" encoding="UTF-8" standalone="no"?>
<svg
   xmlns:dc="http://purl.org/dc/elements/1.1/"
   xmlns:cc="http://creativecommons.org/ns#"
   xmlns:rdf="http://www.w3.org/1999/02/22-rdf-syntax-ns#"
   xmlns:svg="http://www.w3.org/2000/svg"
   xmlns="http://www.w3.org/2000/svg"
   xmlns:xlink="http://www.w3.org/1999/xlink"
   xmlns:sodipodi="http://sodipodi.sourceforge.net/DTD/sodipodi-0.dtd"
   xmlns:inkscape="http://www.inkscape.org/namespaces/inkscape"
   width="769"
   height="577"
   viewBox="0 0 769 577"
   id="svg3285"
   version="1.1"
   inkscape:version="0.48.4 r9939"
   sodipodi:docname="logk_ks.svg">
  <metadata
     id="metadata3545">
    <rdf:RDF>
      <cc:Work
         rdf:about="">
        <dc:format>image/svg+xml</dc:format>
        <dc:type
           rdf:resource="http://purl.org/dc/dcmitype/StillImage" />
      </cc:Work>
    </rdf:RDF>
  </metadata>
  <sodipodi:namedview
     pagecolor="#ffffff"
     bordercolor="#666666"
     borderopacity="1"
     objecttolerance="10"
     gridtolerance="10"
     guidetolerance="10"
     inkscape:pageopacity="0"
     inkscape:pageshadow="2"
     inkscape:window-width="1311"
     inkscape:window-height="763"
     id="namedview3543"
     showgrid="false"
     inkscape:zoom="1.0911958"
     inkscape:cx="357.70877"
     inkscape:cy="236.08608"
     inkscape:window-x="0"
     inkscape:window-y="1"
     inkscape:window-maximized="0"
     inkscape:current-layer="svg3285" />
  <desc
     id="desc3287">Produced by GNUPLOT 4.4 patchlevel 3 </desc>
  <defs
     id="defs3289">
    <circle
       id="gpDot"
       r="0.5"
       stroke-width="0.5" />
    <path
       id="gpPt0"
       stroke-width="0.222"
       stroke="currentColor"
       d="M-1,0 h2 M0,-1 v2" />
    <path
       id="gpPt1"
       stroke-width="0.222"
       stroke="currentColor"
       d="M-1,-1 L1,1 M1,-1 L-1,1" />
    <path
       id="gpPt2"
       stroke-width="0.222"
       stroke="currentColor"
       d="M-1,0 L1,0 M0,-1 L0,1 M-1,-1 L1,1 M-1,1 L1,-1" />
    <rect
       id="gpPt3"
       stroke-width="0.222"
       stroke="currentColor"
       x="-1"
       y="-1"
       width="2"
       height="2" />
    <rect
       id="gpPt4"
       stroke-width="0.222"
       stroke="currentColor"
       fill="currentColor"
       x="-1"
       y="-1"
       width="2"
       height="2" />
    <circle
       id="gpPt5"
       stroke-width="0.222"
       stroke="currentColor"
       cx="0"
       cy="0"
       r="1" />
    <use
       xlink:href="#gpPt5"
       id="gpPt6"
       fill="currentColor"
       stroke="none" />
    <path
       id="gpPt7"
       stroke-width="0.222"
       stroke="currentColor"
       d="M0,-1.33 L-1.33,0.67 L1.33,0.67 z" />
    <use
       xlink:href="#gpPt7"
       id="gpPt8"
       fill="currentColor"
       stroke="none" />
    <use
       xlink:href="#gpPt7"
       id="gpPt9"
       stroke="currentColor"
       transform="rotate(180)" />
    <use
       xlink:href="#gpPt9"
       id="gpPt10"
       fill="currentColor"
       stroke="none" />
    <use
       xlink:href="#gpPt3"
       id="gpPt11"
       stroke="currentColor"
       transform="rotate(45)" />
    <use
       xlink:href="#gpPt11"
       id="gpPt12"
       fill="currentColor"
       stroke="none" />
  </defs>
  <g
     style="fill:none; color:white; stroke:currentColor; stroke-width:1.00; stroke-linecap:butt; stroke-linejoin:miter"
     id="g3305" />
  <g
     style="fill:none; color:white; stroke:currentColor; stroke-width:0.50; stroke-linecap:butt; stroke-linejoin:miter"
     id="g3307" />
  <g
     style="fill:none; color:black; stroke:currentColor; stroke-width:0.50; stroke-linecap:butt; stroke-linejoin:miter"
     id="g3309">
    <path
       d="M99.9,513.6 L112.4,513.6 M695.8,513.6 L683.3,513.6 "
       id="path3311" />
    <g
       transform="translate(91.6,518.1)"
       style="stroke:none; fill:rgb(0,0,0); font-family:Arial; font-size:12.00pt; text-anchor:end"
       id="g3313">
      <text
         id="text3315">
        <tspan
           id="tspan3317">0</tspan>
      </text>
    </g>
    <path
       d="M99.9,454.8 L112.4,454.8 M695.8,454.8 L683.3,454.8 "
       id="path3319"
       style="stroke-width:2;stroke-miterlimit:4;stroke-dasharray:none" />
    <g
       transform="translate(91.6,459.3)"
       style="stroke:none; fill:rgb(0,0,0); font-family:Arial; font-size:12.00pt; text-anchor:end"
       id="g3321">
      <text
         id="text3323">
        <tspan
           id="tspan3325">0.05</tspan>
      </text>
    </g>
    <path
       d="M99.9,396.0 L112.4,396.0 M695.8,396.0 L683.3,396.0 "
       id="path3327"
       style="stroke-width:2;stroke-miterlimit:4;stroke-dasharray:none" />
    <g
       transform="translate(91.6,400.5)"
       style="stroke:none; fill:rgb(0,0,0); font-family:Arial; font-size:12.00pt; text-anchor:end"
       id="g3329">
      <text
         id="text3331">
        <tspan
           id="tspan3333">0.1</tspan>
      </text>
    </g>
    <path
       d="M99.9,337.3 L112.4,337.3 M695.8,337.3 L683.3,337.3 "
       id="path3335"
       style="stroke-width:2;stroke-miterlimit:4;stroke-dasharray:none" />
    <g
       transform="translate(91.6,341.8)"
       style="stroke:none; fill:rgb(0,0,0); font-family:Arial; font-size:12.00pt; text-anchor:end"
       id="g3337">
      <text
         id="text3339">
        <tspan
           id="tspan3341">0.15</tspan>
      </text>
    </g>
    <path
       d="M99.9,278.5 L112.4,278.5 M695.8,278.5 L683.3,278.5 "
       id="path3343"
       style="stroke-width:2;stroke-miterlimit:4;stroke-dasharray:none" />
    <g
       transform="translate(91.6,283.0)"
       style="stroke:none; fill:rgb(0,0,0); font-family:Arial; font-size:12.00pt; text-anchor:end"
       id="g3345">
      <text
         id="text3347">
        <tspan
           id="tspan3349">0.2</tspan>
      </text>
    </g>
    <path
       d="M99.9,219.7 L112.4,219.7 M695.8,219.7 L683.3,219.7 "
       id="path3351"
       style="stroke-width:2;stroke-miterlimit:4;stroke-dasharray:none" />
    <g
       transform="translate(91.6,224.2)"
       style="stroke:none; fill:rgb(0,0,0); font-family:Arial; font-size:12.00pt; text-anchor:end"
       id="g3353">
      <text
         id="text3355">
        <tspan
           id="tspan3357">0.25</tspan>
      </text>
    </g>
    <path
       d="M99.9,160.9 L112.4,160.9 M695.8,160.9 L683.3,160.9 "
       id="path3359"
       style="stroke-width:2;stroke-miterlimit:4;stroke-dasharray:none" />
    <g
       transform="translate(91.6,165.4)"
       style="stroke:none; fill:rgb(0,0,0); font-family:Arial; font-size:12.00pt; text-anchor:end"
       id="g3361">
      <text
         id="text3363">
        <tspan
           id="tspan3365">0.3</tspan>
      </text>
    </g>
    <path
       d="M99.9,102.2 L112.4,102.2 M695.8,102.2 L683.3,102.2 "
       id="path3367"
       style="stroke-width:2;stroke-miterlimit:4;stroke-dasharray:none" />
    <g
       transform="translate(91.6,106.7)"
       style="stroke:none; fill:rgb(0,0,0); font-family:Arial; font-size:12.00pt; text-anchor:end"
       id="g3369">
      <text
         id="text3371">
        <tspan
           id="tspan3373">0.35</tspan>
      </text>
    </g>
    <path
       d="M99.9,43.4 L112.4,43.4 M695.8,43.4 L683.3,43.4 "
       id="path3375" />
    <g
       transform="translate(91.6,47.9)"
       style="stroke:none; fill:rgb(0,0,0); font-family:Arial; font-size:12.00pt; text-anchor:end"
       id="g3377">
      <text
         id="text3379">
        <tspan
           id="tspan3381">0.4</tspan>
      </text>
    </g>
    <path
       d="M99.9,513.6 L99.9,501.1 M99.9,43.4 L99.9,55.9 "
       id="path3383" />
    <g
       transform="translate(99.9,536.1)"
       style="stroke:none; fill:rgb(0,0,0); font-family:Arial; font-size:12.00pt; text-anchor:middle"
       id="g3385">
      <text
         id="text3387">
        <tspan
           id="tspan3389">1</tspan>
      </text>
    </g>
    <path
       d="M166.1,513.6 L166.1,501.1 M166.1,43.4 L166.1,55.9 "
       id="path3391"
       style="stroke-width:2;stroke-miterlimit:4;stroke-dasharray:none" />
    <g
       transform="translate(166.1,536.1)"
       style="stroke:none; fill:rgb(0,0,0); font-family:Arial; font-size:12.00pt; text-anchor:middle"
       id="g3393">
      <text
         id="text3395">
        <tspan
           id="tspan3397">2</tspan>
      </text>
    </g>
    <path
       d="M232.3,513.6 L232.3,501.1 M232.3,43.4 L232.3,55.9 "
       id="path3399"
       style="stroke-width:2;stroke-miterlimit:4;stroke-dasharray:none" />
    <g
       transform="translate(232.3,536.1)"
       style="stroke:none; fill:rgb(0,0,0); font-family:Arial; font-size:12.00pt; text-anchor:middle"
       id="g3401">
      <text
         id="text3403">
        <tspan
           id="tspan3405">3</tspan>
      </text>
    </g>
    <path
       d="M298.5,513.6 L298.5,501.1 M298.5,43.4 L298.5,55.9 "
       id="path3407"
       style="stroke-width:2;stroke-miterlimit:4;stroke-dasharray:none" />
    <g
       transform="translate(298.5,536.1)"
       style="stroke:none; fill:rgb(0,0,0); font-family:Arial; font-size:12.00pt; text-anchor:middle"
       id="g3409">
      <text
         id="text3411">
        <tspan
           id="tspan3413">4</tspan>
      </text>
    </g>
    <path
       d="M364.7,513.6 L364.7,501.1 M364.7,43.4 L364.7,55.9 "
       id="path3415"
       style="stroke-width:2;stroke-miterlimit:4;stroke-dasharray:none" />
    <g
       transform="translate(364.7,536.1)"
       style="stroke:none; fill:rgb(0,0,0); font-family:Arial; font-size:12.00pt; text-anchor:middle"
       id="g3417">
      <text
         id="text3419">
        <tspan
           id="tspan3421">5</tspan>
      </text>
    </g>
    <path
       d="M431.0,513.6 L431.0,501.1 M431.0,43.4 L431.0,55.9 "
       id="path3423"
       style="stroke-width:2;stroke-miterlimit:4;stroke-dasharray:none" />
    <g
       transform="translate(431.0,536.1)"
       style="stroke:none; fill:rgb(0,0,0); font-family:Arial; font-size:12.00pt; text-anchor:middle"
       id="g3425">
      <text
         id="text3427">
        <tspan
           id="tspan3429">6</tspan>
      </text>
    </g>
    <path
       d="M497.2,513.6 L497.2,501.1 M497.2,43.4 L497.2,55.9 "
       id="path3431"
       style="stroke-width:2;stroke-miterlimit:4;stroke-dasharray:none" />
    <g
       transform="translate(497.2,536.1)"
       style="stroke:none; fill:rgb(0,0,0); font-family:Arial; font-size:12.00pt; text-anchor:middle"
       id="g3433">
      <text
         id="text3435">
        <tspan
           id="tspan3437">7</tspan>
      </text>
    </g>
    <path
       d="M563.4,513.6 L563.4,501.1 M563.4,43.4 L563.4,55.9 "
       id="path3439"
       style="stroke-width:2;stroke-miterlimit:4;stroke-dasharray:none" />
    <g
       transform="translate(563.4,536.1)"
       style="stroke:none; fill:rgb(0,0,0); font-family:Arial; font-size:12.00pt; text-anchor:middle"
       id="g3441">
      <text
         id="text3443">
        <tspan
           id="tspan3445">8</tspan>
      </text>
    </g>
    <path
       d="M629.6,513.6 L629.6,501.1 M629.6,43.4 L629.6,55.9 "
       id="path3447"
       style="stroke-width:2;stroke-miterlimit:4;stroke-dasharray:none" />
    <g
       transform="translate(629.6,536.1)"
       style="stroke:none; fill:rgb(0,0,0); font-family:Arial; font-size:12.00pt; text-anchor:middle"
       id="g3449">
      <text
         id="text3451">
        <tspan
           id="tspan3453">9</tspan>
      </text>
    </g>
    <path
       d="M695.8,513.6 L695.8,501.1 M695.8,43.4 L695.8,55.9 "
       id="path3455" />
    <g
       transform="translate(695.8,536.1)"
       style="stroke:none; fill:rgb(0,0,0); font-family:Arial; font-size:12.00pt; text-anchor:middle"
       id="g3457">
      <text
         id="text3459">
        <tspan
           id="tspan3461">10</tspan>
      </text>
    </g>
    <path
       d="M99.9,43.4 L99.9,513.6 L695.8,513.6 L695.8,43.4 L99.9,43.4 Z "
       id="path3463"
       style="stroke-width:2;stroke-miterlimit:4;stroke-dasharray:none" />
    <g
       transform="translate(45.6,278.5) rotate(-90)"
       style="stroke:none; fill:rgb(0,0,0); font-family:Arial; font-size:12.00pt; text-anchor:middle"
       id="g3465">
      <text
         id="text3467"
         x="-0.34263819"
         y="-0.61256444"
         style="font-size:35.69977951px;-inkscape-font-specification:Arial;font-family:Arial;font-weight:normal;font-style:normal;font-stretch:normal;font-variant:normal;text-anchor:middle;text-align:center;writing-mode:lr;line-height:125%"
         sodipodi:linespacing="125%">
        <tspan
           sodipodi:role="line"
           id="tspan3117">log x / x</tspan>
      </text>
    </g>
    <g
       transform="translate(397.8,563.1)"
       style="stroke:none; fill:rgb(0,0,0); font-family:Arial; font-size:12.00pt; text-anchor:middle"
       id="g3475">
      <text
         id="text3477"
         x="-0.72425777"
         y="8.2950144"
         style="font-size:38.17624664px;-inkscape-font-specification:Arial;font-family:Arial;font-weight:normal;font-style:normal;font-stretch:normal;font-variant:normal;text-anchor:middle;text-align:center;writing-mode:lr;line-height:125%"
         sodipodi:linespacing="125%">
        <tspan
           sodipodi:role="line"
           id="tspan3119">x</tspan>
      </text>
    </g>
  </g>
  <a
     xlink:title="Plot #1"
     id="a3481">
    <g
       style="fill:none; color:red; stroke:currentColor; stroke-width:0.50; stroke-linecap:butt; stroke-linejoin:miter"
       id="g3483">
      <g
         transform="translate(628.7,65.9)"
         style="stroke:none; fill:black; font-family:Arial; font-size:12.00pt; text-anchor:end"
         id="g3485">
        <text
           id="text3487">
          <tspan
             id="tspan3489">s=1</tspan>
        </text>
      </g>
      <path
         stroke="rgb(  0,   0, 255)"
         d="M637.0,61.4 L679.2,61.4 M99.9,513.6 L106.5,411.7 L113.1,335.0 L119.8,276.4 L126.4,231.1 L133.0,195.9    L139.6,168.3 L146.2,146.7 L152.9,129.7 L159.5,116.5 L166.1,106.2 L172.7,98.3 L179.4,92.3 L186.0,87.9    L192.6,84.8 L199.2,82.8 L205.8,81.6 L212.5,81.2 L219.1,81.3 L225.7,82.0 L232.3,83.1 L238.9,84.6    L245.6,86.3 L252.2,88.3 L258.8,90.5 L265.4,92.9 L272.0,95.3 L278.7,97.9 L285.3,100.6 L291.9,103.4    L298.5,106.2 L305.2,109.1 L311.8,111.9 L318.4,114.9 L325.0,117.8 L331.6,120.7 L338.3,123.6 L344.9,126.5    L351.5,129.5 L358.1,132.3 L364.7,135.2 L371.4,138.1 L378.0,140.9 L384.6,143.7 L391.2,146.5 L397.9,149.2    L404.5,152.0 L411.1,154.7 L417.7,157.3 L424.3,160.0 L431.0,162.6 L437.6,165.1 L444.2,167.7 L450.8,170.2    L457.4,172.7 L464.1,175.1 L470.7,177.5 L477.3,179.9 L483.9,182.2 L490.5,184.5 L497.2,186.8 L503.8,189.1    L510.4,191.3 L517.0,193.5 L523.7,195.7 L530.3,197.8 L536.9,199.9 L543.5,202.0 L550.1,204.0 L556.8,206.1    L563.4,208.1 L570.0,210.0 L576.6,212.0 L583.2,213.9 L589.9,215.8 L596.5,217.6 L603.1,219.5 L609.7,221.3    L616.3,223.1 L623.0,224.9 L629.6,226.6 L636.2,228.3 L642.8,230.0 L649.5,231.7 L656.1,233.4 L662.7,235.0    L669.3,236.7 L675.9,238.3 L682.6,239.8 L689.2,241.4 L695.8,242.9 "
         id="path3491"
         style="stroke:#000000;stroke-opacity:1;stroke-width:3;stroke-miterlimit:4;stroke-dasharray:none" />
    </g>
  </a>
  <a
     xlink:title="Plot #2"
     id="a3493">
    <g
       style="fill:none; color:green; stroke:currentColor; stroke-width:0.50; stroke-linecap:butt; stroke-linejoin:miter"
       id="g3495">
      <g
         transform="translate(628.7,83.9)"
         style="stroke:none; fill:black; font-family:Arial; font-size:12.00pt; text-anchor:end"
         id="g3497">
        <text
           id="text3499">
          <tspan
             id="tspan3501">s=1.25</tspan>
        </text>
      </g>
      <path
         stroke="rgb(255,   0,   0)"
         d="M637.0,79.4 L679.2,79.4 M99.9,513.6 L106.5,414.1 L113.1,343.0 L119.8,291.4 L126.4,253.9 L133.0,226.5    L139.6,206.6 L146.2,192.3 L152.9,182.2 L159.5,175.4 L166.1,171.0 L172.7,168.6 L179.4,167.7 L186.0,167.9    L192.6,169.1 L199.2,171.0 L205.8,173.4 L212.5,176.3 L219.1,179.4 L225.7,182.9 L232.3,186.5 L238.9,190.3    L245.6,194.1 L252.2,198.1 L258.8,202.0 L265.4,206.0 L272.0,210.0 L278.7,213.9 L285.3,217.8 L291.9,221.7    L298.5,225.5 L305.2,229.3 L311.8,233.0 L318.4,236.7 L325.0,240.3 L331.6,243.8 L338.3,247.3 L344.9,250.7    L351.5,254.1 L358.1,257.3 L364.7,260.6 L371.4,263.7 L378.0,266.8 L384.6,269.8 L391.2,272.8 L397.9,275.7    L404.5,278.5 L411.1,281.3 L417.7,284.0 L424.3,286.7 L431.0,289.3 L437.6,291.9 L444.2,294.4 L450.8,296.8    L457.4,299.2 L464.1,301.6 L470.7,303.9 L477.3,306.2 L483.9,308.4 L490.5,310.6 L497.2,312.7 L503.8,314.8    L510.4,316.8 L517.0,318.9 L523.7,320.8 L530.3,322.8 L536.9,324.7 L543.5,326.5 L550.1,328.4 L556.8,330.2    L563.4,331.9 L570.0,333.7 L576.6,335.4 L583.2,337.0 L589.9,338.7 L596.5,340.3 L603.1,341.9 L609.7,343.4    L616.3,344.9 L623.0,346.4 L629.6,347.9 L636.2,349.4 L642.8,350.8 L649.5,352.2 L656.1,353.6 L662.7,354.9    L669.3,356.3 L675.9,357.6 L682.6,358.9 L689.2,360.1 L695.8,361.4 "
         id="path3503"
         style="stroke-width:3;stroke-miterlimit:4;stroke-dasharray:6,3;stroke:#000000;stroke-opacity:1;stroke-dashoffset:0" />
    </g>
  </a>
  <a
     xlink:title="Plot #3"
     id="a3505">
    <g
       style="fill:none; color:blue; stroke:currentColor; stroke-width:0.50; stroke-linecap:butt; stroke-linejoin:miter"
       id="g3507">
      <g
         transform="translate(628.7,101.9)"
         style="stroke:none; fill:black; font-family:Arial; font-size:12.00pt; text-anchor:end"
         id="g3509">
        <text
           id="text3511">
          <tspan
             id="tspan3513">s=1.5</tspan>
        </text>
      </g>
      <path
         stroke="rgb(  0, 255,   0)"
         d="M637.0,97.4 L679.2,97.4 M99.9,513.6 L106.5,416.5 L113.1,350.6 L119.8,305.5 L126.4,274.8 L133.0,254.2    L139.6,240.6 L146.2,232.2 L152.9,227.5 L159.5,225.5 L166.1,225.5 L172.7,227.0 L179.4,229.6 L186.0,232.9    L192.6,236.8 L199.2,241.1 L205.8,245.7 L212.5,250.4 L219.1,255.3 L225.7,260.2 L232.3,265.1 L238.9,269.9    L245.6,274.7 L252.2,279.5 L258.8,284.1 L265.4,288.7 L272.0,293.2 L278.7,297.5 L285.3,301.7 L291.9,305.9    L298.5,309.9 L305.2,313.8 L311.8,317.6 L318.4,321.3 L325.0,324.9 L331.6,328.4 L338.3,331.8 L344.9,335.1    L351.5,338.3 L358.1,341.4 L364.7,344.4 L371.4,347.3 L378.0,350.2 L384.6,352.9 L391.2,355.6 L397.9,358.2    L404.5,360.8 L411.1,363.3 L417.7,365.7 L424.3,368.0 L431.0,370.3 L437.6,372.5 L444.2,374.7 L450.8,376.8    L457.4,378.8 L464.1,380.8 L470.7,382.8 L477.3,384.7 L483.9,386.5 L490.5,388.3 L497.2,390.1 L503.8,391.8    L510.4,393.5 L517.0,395.1 L523.7,396.7 L530.3,398.3 L536.9,399.8 L543.5,401.3 L550.1,402.8 L556.8,404.2    L563.4,405.6 L570.0,406.9 L576.6,408.3 L583.2,409.6 L589.9,410.8 L596.5,412.1 L603.1,413.3 L609.7,414.5    L616.3,415.7 L623.0,416.8 L629.6,417.9 L636.2,419.0 L642.8,420.1 L649.5,421.2 L656.1,422.2 L662.7,423.2    L669.3,424.2 L675.9,425.2 L682.6,426.1 L689.2,427.1 L695.8,428.0 "
         id="path3515"
         style="stroke-width:3;stroke-miterlimit:4;stroke-dasharray:3,3;stroke-dashoffset:0;stroke:#000000;stroke-opacity:1" />
    </g>
  </a>
  <a
     xlink:title="Plot #4"
     id="a3517">
    <g
       style="fill:none; color:cyan; stroke:currentColor; stroke-width:0.50; stroke-linecap:butt; stroke-linejoin:miter"
       id="g3519">
      <g
         transform="translate(628.7,119.9)"
         style="stroke:none; fill:black; font-family:Arial; font-size:12.00pt; text-anchor:end"
         id="g3521">
        <text
           id="text3523">
          <tspan
             id="tspan3525">s=1.75</tspan>
        </text>
      </g>
      <path
         stroke="rgb(255, 255,   0)"
         d="M637.0,115.4 L679.2,115.4 M99.9,513.6 L106.5,418.8 L113.1,357.8 L119.8,318.7 L126.4,294.1 L133.0,279.2    L139.6,270.9 L146.2,267.2 L152.9,266.6 L159.5,268.2 L166.1,271.4 L172.7,275.5 L179.4,280.4 L186.0,285.7    L192.6,291.2 L199.2,296.9 L205.8,302.6 L212.5,308.3 L219.1,313.9 L225.7,319.4 L232.3,324.8 L238.9,330.0    L245.6,335.0 L252.2,339.9 L258.8,344.6 L265.4,349.2 L272.0,353.6 L278.7,357.8 L285.3,361.9 L291.9,365.8    L298.5,369.6 L305.2,373.2 L311.8,376.7 L318.4,380.1 L325.0,383.3 L331.6,386.4 L338.3,389.4 L344.9,392.3    L351.5,395.1 L358.1,397.8 L364.7,400.4 L371.4,402.9 L378.0,405.4 L384.6,407.7 L391.2,410.0 L397.9,412.2    L404.5,414.3 L411.1,416.3 L417.7,418.3 L424.3,420.2 L431.0,422.0 L437.6,423.8 L444.2,425.6 L450.8,427.2    L457.4,428.9 L464.1,430.4 L470.7,432.0 L477.3,433.5 L483.9,434.9 L490.5,436.3 L497.2,437.7 L503.8,439.0    L510.4,440.3 L517.0,441.5 L523.7,442.7 L530.3,443.9 L536.9,445.1 L543.5,446.2 L550.1,447.3 L556.8,448.3    L563.4,449.4 L570.0,450.4 L576.6,451.4 L583.2,452.3 L589.9,453.2 L596.5,454.1 L603.1,455.0 L609.7,455.9    L616.3,456.7 L623.0,457.6 L629.6,458.4 L636.2,459.2 L642.8,459.9 L649.5,460.7 L656.1,461.4 L662.7,462.1    L669.3,462.8 L675.9,463.5 L682.6,464.2 L689.2,464.8 L695.8,465.5 "
         id="path3527"
         style="stroke-width:3;stroke-miterlimit:4;stroke-dasharray:6,3,1.5,3;stroke-dashoffset:0;stroke:#000000;stroke-opacity:1" />
    </g>
  </a>
  <a
     xlink:title="Plot #5"
     id="a3529">
    <g
       style="fill:none; color:#157545; stroke:currentColor; stroke-width:0.50; stroke-linecap:butt; stroke-linejoin:miter"
       id="g3531">
      <g
         transform="translate(628.7,137.9)"
         style="stroke:none; fill:black; font-family:Arial; font-size:12.00pt; text-anchor:end"
         id="g3533">
        <text
           id="text3535">
          <tspan
             id="tspan3537">s=2</tspan>
        </text>
      </g>
      <path
         stroke="rgb(255,   0, 255)"
         d="M637.0,133.4 L679.2,133.4 M99.9,513.6 L106.5,421.0 L113.1,364.8 L119.8,331.1 L126.4,311.8 L133.0,301.8    L139.6,297.8 L146.2,297.8 L152.9,300.3 L159.5,304.6 L166.1,309.9 L172.7,315.8 L179.4,322.1 L186.0,328.5    L192.6,334.9 L199.2,341.3 L205.8,347.4 L212.5,353.4 L219.1,359.2 L225.7,364.8 L232.3,370.1 L238.9,375.2    L245.6,380.1 L252.2,384.7 L258.8,389.2 L265.4,393.4 L272.0,397.4 L278.7,401.3 L285.3,404.9 L291.9,408.4    L298.5,411.8 L305.2,414.9 L311.8,418.0 L318.4,420.9 L325.0,423.6 L331.6,426.3 L338.3,428.8 L344.9,431.2    L351.5,433.6 L358.1,435.8 L364.7,437.9 L371.4,440.0 L378.0,441.9 L384.6,443.8 L391.2,445.6 L397.9,447.4    L404.5,449.0 L411.1,450.6 L417.7,452.2 L424.3,453.7 L431.0,455.1 L437.6,456.5 L444.2,457.8 L450.8,459.1    L457.4,460.3 L464.1,461.5 L470.7,462.7 L477.3,463.8 L483.9,464.9 L490.5,465.9 L497.2,466.9 L503.8,467.9    L510.4,468.8 L517.0,469.8 L523.7,470.6 L530.3,471.5 L536.9,472.3 L543.5,473.1 L550.1,473.9 L556.8,474.7    L563.4,475.4 L570.0,476.1 L576.6,476.8 L583.2,477.5 L589.9,478.1 L596.5,478.8 L603.1,479.4 L609.7,480.0    L616.3,480.6 L623.0,481.2 L629.6,481.7 L636.2,482.3 L642.8,482.8 L649.5,483.3 L656.1,483.8 L662.7,484.3    L669.3,484.8 L675.9,485.2 L682.6,485.7 L689.2,486.1 L695.8,486.5 "
         id="path3539"
         style="stroke-width:3;stroke-miterlimit:4;stroke-dasharray:24, 6, 3, 6;stroke-dashoffset:0;stroke:#000000;stroke-opacity:1" />
    </g>
  </a>
  <g
     style="fill:none; color:black; stroke:currentColor; stroke-width:0.50; stroke-linecap:butt; stroke-linejoin:miter"
     id="g3541" />
  <text
     transform="matrix(0,-1,1,0,0,0)"
     id="text3467-0"
     x="-209.64107"
     y="33.165535"
     style="font-size:27.18803215px;font-style:normal;font-variant:normal;font-weight:normal;font-stretch:normal;text-align:center;line-height:125%;writing-mode:lr-tb;text-anchor:middle;color:#000000;fill:#000000;stroke:none;font-family:Arial;-inkscape-font-specification:Arial"
     sodipodi:linespacing="125%">
    <tspan
       sodipodi:role="line"
       id="tspan3191"
       x="-209.64107"
       y="33.165535">s</tspan>
  </text>
</svg>
