<?xml version="1.0" encoding="UTF-8" standalone="no"?>
<svg
   xmlns:dc="http://purl.org/dc/elements/1.1/"
   xmlns:cc="http://creativecommons.org/ns#"
   xmlns:rdf="http://www.w3.org/1999/02/22-rdf-syntax-ns#"
   xmlns:svg="http://www.w3.org/2000/svg"
   xmlns="http://www.w3.org/2000/svg"
   xmlns:xlink="http://www.w3.org/1999/xlink"
   xmlns:sodipodi="http://sodipodi.sourceforge.net/DTD/sodipodi-0.dtd"
   xmlns:inkscape="http://www.inkscape.org/namespaces/inkscape"
   viewBox="0 0 588.74647 432"
   id="svg2"
   version="1.1"
   inkscape:version="0.48.4 r9939"
   width="100%"
   height="100%"
   sodipodi:docname="occ_of_speech_sounds_plotlog.svg">
  <metadata
     id="metadata156">
    <rdf:RDF>
      <cc:Work
         rdf:about="">
        <dc:format>image/svg+xml</dc:format>
        <dc:type
           rdf:resource="http://purl.org/dc/dcmitype/StillImage" />
      </cc:Work>
    </rdf:RDF>
  </metadata>
  <defs
     id="defs154">
    <defs
       id="defs11">
      <circle
         r="0.5"
         id="gpDot"
         cx="0"
         cy="0"
         sodipodi:cx="0"
         sodipodi:cy="0"
         sodipodi:rx="0.5"
         sodipodi:ry="0.5"
         style="stroke-width:0.5" />
      <path
         d="M -1,0 H 1 M 0,-1 v 2"
         id="gpPt0"
         inkscape:connector-curvature="0"
         style="stroke:currentColor;stroke-width:0.333" />
      <path
         d="M -1,-1 1,1 M 1,-1 -1,1"
         id="gpPt1"
         inkscape:connector-curvature="0"
         style="stroke:currentColor;stroke-width:0.333" />
      <path
         d="M -1,0 1,0 M 0,-1 0,1 m -1,-2 2,2 m -2,0 2,-2"
         id="gpPt2"
         inkscape:connector-curvature="0"
         style="stroke:currentColor;stroke-width:0.333" />
      <rect
         height="2"
         width="2"
         y="-1"
         x="-1"
         id="gpPt3"
         style="stroke:currentColor;stroke-width:0.333" />
      <rect
         height="2"
         width="2"
         y="-1"
         x="-1"
         id="gpPt4"
         style="fill:currentColor;stroke:currentColor;stroke-width:0.333" />
      <circle
         r="1"
         cy="0"
         cx="0"
         id="gpPt5"
         sodipodi:cx="0"
         sodipodi:cy="0"
         sodipodi:rx="1"
         sodipodi:ry="1"
         style="stroke:currentColor;stroke-width:0.333" />
      <use
         id="gpPt6"
         xlink:href="#gpPt5"
         style="fill:currentColor;stroke:none"
         x="0"
         y="0"
         width="576"
         height="432" />
      <path
         d="m 0,-1.33 -1.33,2 2.66,0 z"
         id="gpPt7"
         inkscape:connector-curvature="0"
         style="stroke:currentColor;stroke-width:0.333" />
      <use
         id="gpPt8"
         xlink:href="#gpPt7"
         style="fill:currentColor;stroke:none"
         x="0"
         y="0"
         width="576"
         height="432" />
      <use
         transform="scale(-1,-1)"
         id="gpPt9"
         xlink:href="#gpPt7"
         style="stroke:currentColor"
         x="0"
         y="0"
         width="576"
         height="432" />
      <use
         id="gpPt10"
         xlink:href="#gpPt9"
         style="fill:currentColor;stroke:none"
         x="0"
         y="0"
         width="576"
         height="432" />
      <use
         transform="matrix(0.70710678,0.70710678,-0.70710678,0.70710678,0,0)"
         id="gpPt11"
         xlink:href="#gpPt3"
         style="stroke:currentColor"
         x="0"
         y="0"
         width="576"
         height="432" />
      <use
         id="gpPt12"
         xlink:href="#gpPt11"
         style="fill:currentColor;stroke:none"
         x="0"
         y="0"
         width="576"
         height="432" />
    </defs>
  </defs>
  <sodipodi:namedview
     pagecolor="#ffffff"
     bordercolor="#666666"
     borderopacity="1"
     objecttolerance="10"
     gridtolerance="10"
     guidetolerance="10"
     inkscape:pageopacity="0"
     inkscape:pageshadow="2"
     inkscape:window-width="1173"
     inkscape:window-height="752"
     id="namedview152"
     showgrid="false"
     fit-margin-top="0"
     fit-margin-left="0"
     fit-margin-right="0"
     fit-margin-bottom="0"
     inkscape:zoom="1.3240741"
     inkscape:cx="300.74647"
     inkscape:cy="216"
     inkscape:window-x="96"
     inkscape:window-y="38"
     inkscape:window-maximized="0"
     inkscape:current-layer="svg2" />
  <title
     id="title4">Gnuplot</title>
  <desc
     id="desc6">Produced by GNUPLOT 4.6 patchlevel 1 </desc>
  <rect
     style="fill:none"
     id="rect9"
     height="432"
     width="576"
     y="0"
     x="12.746466" />
  <g
     id="g27"
     style="color:#ffffff;fill:none;stroke:currentColor;stroke-width:1;stroke-linecap:butt;stroke-linejoin:miter"
     transform="translate(12.746466,0)" />
  <g
     id="g29"
     style="color:#ffffff;fill:none;stroke:currentColor;stroke-width:0.5;stroke-linecap:butt;stroke-linejoin:miter"
     transform="translate(12.746466,0)" />
  <g
     id="g31"
     style="color:#000000;fill:none;stroke:currentColor;stroke-width:0.5;stroke-linecap:butt;stroke-linejoin:miter"
     transform="translate(12.746466,0)">
    <path
       inkscape:connector-curvature="0"
       id="path33"
       d="m 37.2,393.6 8.4,0 m 513.5,0 -8.4,0 h 0.01" />
    <g
       id="g35"
       style="font-size:12.5px;text-anchor:end;fill:#000000;stroke:none"
       transform="translate(31.6,396.6)">
      <text
         id="text37">
        <tspan
           id="tspan39">10</tspan>
        <tspan
           style="font-size:10px"
           id="tspan41"
           dy="-6.25"
           font-size="8.0pt">0</tspan>
        <tspan
           style="font-size:12.5px"
           id="tspan43"
           dy="6.25"
           font-size="10.0pt" />
      </text>
    </g>
    <path
       inkscape:connector-curvature="0"
       id="path45"
       d="m 37.2,393.6 4.2,0 m 517.7,0 -4.2,0 m -517.7,-38.4 4.2,0 m 517.7,0 -4.2,0 m -517.7,-22.4 4.2,0 m 517.7,0 -4.2,0 m -517.7,-15.9 4.2,0 m 517.7,0 -4.2,0 m -517.7,-12.4 4.2,0 m 517.7,0 -4.2,0 m -517.7,-10.1 4.2,0 m 517.7,0 -4.2,0 m -517.7,-8.5 4.2,0 m 517.7,0 -4.2,0 m -517.7,-7.4 4.2,0 m 517.7,0 -4.2,0 M 37.2,272 l 4.2,0 m 517.7,0 -4.2,0 m -517.7,-5.8 8.4,0 m 513.5,0 -8.4,0 h 0.01"
       style="stroke-width:1.5;stroke-miterlimit:4;stroke-dasharray:none" />
    <g
       id="g47"
       style="font-size:12.5px;text-anchor:end;fill:#000000;stroke:none"
       transform="translate(31.6,269.2)">
      <text
         id="text49">
        <tspan
           id="tspan51">10</tspan>
        <tspan
           style="font-size:10px"
           id="tspan53"
           dy="-6.25"
           font-size="8.0pt">1</tspan>
        <tspan
           style="font-size:12.5px"
           id="tspan55"
           dy="6.25"
           font-size="10.0pt" />
      </text>
    </g>
    <path
       inkscape:connector-curvature="0"
       id="path57"
       d="m 37.2,266.2 4.2,0 m 517.7,0 -4.2,0 m -517.7,-38.4 4.2,0 m 517.7,0 -4.2,0 m -517.7,-22.4 4.2,0 m 517.7,0 -4.2,0 m -517.7,-16 4.2,0 m 517.7,0 -4.2,0 m -517.7,-12.3 4.2,0 m 517.7,0 -4.2,0 M 37.2,167 l 4.2,0 m 517.7,0 -4.2,0 m -517.7,-8.5 4.2,0 m 517.7,0 -4.2,0 m -517.7,-7.4 4.2,0 m 517.7,0 -4.2,0 m -517.7,-6.5 4.2,0 m 517.7,0 -4.2,0 m -517.7,-5.9 8.4,0 m 513.5,0 -8.4,0 h 0.01"
       style="stroke-width:1.5;stroke-miterlimit:4;stroke-dasharray:none" />
    <g
       id="g59"
       style="font-size:12.5px;text-anchor:end;fill:#000000;stroke:none"
       transform="translate(31.6,141.7)">
      <text
         id="text61">
        <tspan
           id="tspan63">10</tspan>
        <tspan
           style="font-size:10px"
           id="tspan65"
           dy="-6.25"
           font-size="8.0pt">2</tspan>
        <tspan
           style="font-size:12.5px"
           id="tspan67"
           dy="6.25"
           font-size="10.0pt" />
      </text>
    </g>
    <path
       inkscape:connector-curvature="0"
       id="path69"
       d="m 37.2,138.7 4.2,0 m 517.7,0 -4.2,0 m -517.7,-38.3 4.2,0 m 517.7,0 -4.2,0 M 37.2,77.9 l 4.2,0 m 517.7,0 -4.2,0 M 37.2,62 l 4.2,0 m 517.7,0 -4.2,0 M 37.2,49.7 l 4.2,0 m 517.7,0 -4.2,0 M 37.2,39.6 l 4.2,0 m 517.7,0 -4.2,0 M 37.2,31 l 4.2,0 m 517.7,0 -4.2,0 m -517.7,-7.4 4.2,0 m 517.7,0 -4.2,0 m -517.7,-6.5 4.2,0 m 517.7,0 -4.2,0 m -517.7,-5.8 8.4,0 m 513.5,0 -8.4,0 h 0.01"
       style="stroke-width:1.5;stroke-miterlimit:4;stroke-dasharray:none" />
    <g
       id="g71"
       style="font-size:12.5px;text-anchor:end;fill:#000000;stroke:none"
       transform="translate(31.6,14.3)">
      <text
         id="text73">
        <tspan
           id="tspan75">10</tspan>
        <tspan
           style="font-size:10px"
           id="tspan77"
           dy="-6.25"
           font-size="8.0pt">3</tspan>
        <tspan
           style="font-size:12.5px"
           id="tspan79"
           dy="6.25"
           font-size="10.0pt" />
      </text>
    </g>
    <path
       inkscape:connector-curvature="0"
       id="path81"
       d="m 37.2,11.3 4.2,0 m 517.7,0 -4.2,0 m -517.7,382.3 0,-8.4 m 0,-373.9 0,8.4 h 0.01" />
    <g
       id="g83"
       style="font-size:12.5px;text-anchor:middle;fill:#000000;stroke:none"
       transform="translate(37.2,408.6)">
      <text
         id="text85">
        <tspan
           id="tspan87">10</tspan>
        <tspan
           style="font-size:10px"
           id="tspan89"
           dy="-6.25"
           font-size="8.0pt">0</tspan>
        <tspan
           style="font-size:12.5px"
           id="tspan91"
           dy="6.25"
           font-size="10.0pt" />
      </text>
    </g>
    <path
       inkscape:connector-curvature="0"
       id="path93"
       d="m 37.2,393.6 0,-4.2 m 0,-378.1 0,4.2 m 52.4,378.1 0,-4.2 m 0,-378.1 0,4.2 m 30.6,378.1 0,-4.2 m 0,-378.1 0,4.2 m 21.7,378.1 0,-4.2 m 0,-378.1 0,4.2 m 16.9,378.1 0,-4.2 m 0,-378.1 0,4.2 m 13.8,378.1 0,-4.2 m 0,-378.1 0,4.2 m 11.6,378.1 0,-4.2 m 0,-378.1 0,4.2 m 10.1,378.1 0,-4.2 m 0,-378.1 0,4.2 m 8.9,378.1 0,-4.2 m 0,-378.1 0,4.2 m 8,378.1 0,-8.4 m 0,-373.9 0,8.4 h 0.01"
       style="stroke-width:1.5;stroke-miterlimit:4;stroke-dasharray:none" />
    <g
       id="g95"
       style="font-size:12.5px;text-anchor:middle;fill:#000000;stroke:none"
       transform="translate(211.2,408.6)">
      <text
         id="text97">
        <tspan
           id="tspan99">10</tspan>
        <tspan
           style="font-size:10px"
           id="tspan101"
           dy="-6.25"
           font-size="8.0pt">1</tspan>
        <tspan
           style="font-size:12.5px"
           id="tspan103"
           dy="6.25"
           font-size="10.0pt" />
      </text>
    </g>
    <path
       inkscape:connector-curvature="0"
       id="path105"
       d="m 211.2,393.6 0,-4.2 m 0,-378.1 0,4.2 m 52.3,378.1 0,-4.2 m 0,-378.1 0,4.2 m 30.7,378.1 0,-4.2 m 0,-378.1 0,4.2 m 21.7,378.1 0,-4.2 m 0,-378.1 0,4.2 m 16.9,378.1 0,-4.2 m 0,-378.1 0,4.2 m 13.7,378.1 0,-4.2 m 0,-378.1 0,4.2 m 11.7,378.1 0,-4.2 m 0,-378.1 0,4.2 m 10.1,378.1 0,-4.2 m 0,-378.1 0,4.2 m 8.9,378.1 0,-4.2 m 0,-378.1 0,4.2 m 7.9,378.1 0,-8.4 m 0,-373.9 0,8.4 h 0.01"
       style="stroke-width:1.5;stroke-miterlimit:4;stroke-dasharray:none" />
    <g
       id="g107"
       style="font-size:12.5px;text-anchor:middle;fill:#000000;stroke:none"
       transform="translate(385.1,408.6)">
      <text
         id="text109">
        <tspan
           id="tspan111">10</tspan>
        <tspan
           style="font-size:10px"
           id="tspan113"
           dy="-6.25"
           font-size="8.0pt">2</tspan>
        <tspan
           style="font-size:12.5px"
           id="tspan115"
           dy="6.25"
           font-size="10.0pt" />
      </text>
    </g>
    <path
       inkscape:connector-curvature="0"
       id="path117"
       d="m 385.1,393.6 0,-4.2 m 0,-378.1 0,4.2 m 52.4,378.1 0,-4.2 m 0,-378.1 0,4.2 m 30.6,378.1 0,-4.2 m 0,-378.1 0,4.2 m 21.8,378.1 0,-4.2 m 0,-378.1 0,4.2 m 16.8,378.1 0,-4.2 m 0,-378.1 0,4.2 m 13.8,378.1 0,-4.2 m 0,-378.1 0,4.2 m 11.7,378.1 0,-4.2 m 0,-378.1 0,4.2 m 10,378.1 0,-4.2 m 0,-378.1 0,4.2 m 8.9,378.1 0,-4.2 m 0,-378.1 0,4.2 m 8,378.1 0,-8.4 m 0,-373.9 0,8.4 h 0.01"
       style="stroke-width:1.5;stroke-miterlimit:4;stroke-dasharray:none" />
    <g
       id="g119"
       style="font-size:12.5px;text-anchor:middle;fill:#000000;stroke:none"
       transform="translate(559.1,408.6)">
      <text
         id="text121">
        <tspan
           id="tspan123">10</tspan>
        <tspan
           style="font-size:10px"
           id="tspan125"
           dy="-6.25"
           font-size="8.0pt">3</tspan>
        <tspan
           style="font-size:12.5px"
           id="tspan127"
           dy="6.25"
           font-size="10.0pt" />
      </text>
    </g>
    <path
       inkscape:connector-curvature="0"
       style="stroke-width:2;stroke-miterlimit:4;stroke-dasharray:none"
       id="path129"
       d="m 559.1,393.6 0,-4.2 m 0,-378.1 0,4.2 m -521.9,-4.2 0,382.3 521.9,0 0,-382.3 -521.9,0 z m 0,0 h 0.01" />
    <g
       id="g131"
       style="font-size:12.5px;text-anchor:middle;fill:#000000;stroke:none"
       transform="matrix(0,-1,1,0,11.8,202.5)">
      <text
         style="font-size:14.66868019px"
         x="0.068830185"
         y="-13.401707"
         id="text133">
        <tspan
           id="tspan135">frequency (number of lanuages)</tspan>
      </text>
    </g>
    <g
       id="g137"
       style="font-size:12.5px;text-anchor:middle;fill:#000000;stroke:none"
       transform="translate(298.1,426.6)">
      <text
         style="font-size:14.69655704px"
         y="0.60598385"
         x="-0.0048264205"
         id="text139">
        <tspan
           id="tspan141">rank (speech sound)</tspan>
      </text>
    </g>
  </g>
  <g
     id="gnuplot_plot_1a"
     transform="translate(12.746466,0)">
    <title
       id="title144">gnuplot_plot_1a</title>
    <g
       id="g146"
       style="color:#ff0000;fill:none;stroke:currentColor;stroke-width:0.5;stroke-linecap:butt;stroke-linejoin:miter">
      <path
         inkscape:connector-curvature="0"
         style="stroke:#000000;stroke-width:2;stroke-miterlimit:4;stroke-dasharray:none"
         id="path148"
         d="m 37.2,58.7 52.4,2.9 30.6,1.4 21.7,0.1 16.9,2 13.8,0.5 11.6,0.9 10.1,5.8 8.9,8.1 8,1.5 7.2,5.5 6.5,3.6 6.1,5.1 5.6,3.7 5.2,1.7 4.9,2.3 4.6,0.3 4.3,0.3 4.1,1.5 3.8,0 3.7,0.3 3.5,1.9 3.4,1.6 3.2,2.3 3.1,0.7 3,2.9 2.8,4.1 2.8,2 2.6,0.4 2.6,1.7 2.4,3 2.4,1.8 2.4,3.4 2.2,3.5 2.2,1.6 2.1,1.1 2.1,3.4 2,0 2,0.6 1.9,1.8 1.9,0 1.8,5 1.8,0 1.7,0.7 1.7,1.4 1.7,2.8 1.6,1.5 1.6,0 1.5,6.3 1.6,2.6 1.5,0.9 1.4,0 1.5,0.9 1.4,0 1.4,0.9 1.3,4.8 1.4,1 1.3,0 1.3,2.1 1.2,1.1 1.3,0 1.2,2.2 1.2,0 1.2,1.2 1.2,3.5 1.1,0 1.2,0 1.1,1.3 1.1,0 1.1,0 1.1,1.2 1,0 1.1,1.3 1,1.4 1,1.3 1,1.4 1,0 1,0 0.9,4.5 1,0 0.9,1.5 0.9,0 1,0 0.9,1.6 0.9,0 0.8,0 0.9,0 0.9,1.7 0.8,1.7 0.9,3.6 0.8,5.8 0.8,0 0.9,0 0.8,2.1 0.8,0 0.7,0 0.8,0 0.8,0 0.8,2.2 0.7,0 0.8,0 0.7,2.2 0.8,0 0.7,0 0.7,0 0.7,0 0.7,0 0.7,0 0.7,0 0.7,2.4 0.7,0 0.7,0 0.7,2.4 0.6,0 0.7,0 0.6,2.6 0.7,0 0.6,2.7 0.7,0 0.6,0 0.6,0 0.7,2.8 0.6,0 0.6,0 0.6,0 0.6,3 0.6,0 0.6,0 0.6,3.2 0.6,0 0.5,0 0.6,0 0.6,0 0.5,0 0.6,0 0.6,0 0.5,0 0.6,0 0.5,0 0.6,3.4 0.5,0 0.5,0 0.6,0 0.5,3.5 0.5,0 0.5,0 0.5,3.8 0.6,0 0.5,0 0.5,0 0.5,0 0.5,0 0.5,0 0.5,4.1 0.4,0 0.5,4.5 0.5,0 0.5,0 0.5,0 0.4,0 0.5,0 0.5,0 0.4,0 0.5,0 0.5,4.8 0.4,0 0.5,0 0.4,0 0.5,0 0.4,0 0.5,0 0.4,5.3 0.4,0 0.5,0 0.4,0 0.4,0 0.5,0 0.4,0 0.4,0 0.4,0 0.5,0 0.4,0 0.4,0 0.4,0 0.4,5.8 0.4,0 0.4,0 0.4,0 0.4,0 0.4,0 0.4,0 0.4,0 0.4,0 0.4,0 0.4,0 0.4,0 0.4,6.5 0.3,0 0.4,0 0.4,0 0.4,0 0.4,0 0.3,0 0.4,0 0.4,0 0.3,0 0.4,0 0.4,0 0.3,0 0.4,0 0.3,7.4 0.4,0 0.4,0 0.3,0 0.4,0 0.3,0 0.4,0 0.3,0 0.4,0 0.3,0 0.3,0 0.4,0 0.3,0 0.4,0 0.3,8.5 0.3,0 0.4,0 0.3,0 0.3,0 0.4,0 0.3,0 0.3,0 0.3,0 0.4,0 0.3,0 0.3,0 0.3,0 0.3,0 0.4,0 0.3,0 0.3,0 0.3,0 0.3,0 0.3,10.1 0.3,0 0.3,0 0.3,0 0.4,0 0.3,0 0.3,0 0.3,0 0.3,0 0.3,0 0.3,0 0.3,0 0.3,0 0.2,0 0.3,0 0.3,0 0.3,0 0.3,0 0.3,0 0.3,0 0.3,0 0.3,0 0.2,0 0.3,0 0.3,0 0.3,0 0.3,0 0.3,12.4 0.2,0 0.3,0 0.3,0 0.3,0 0.2,0 0.3,0 0.3,0 0.3,0 0.2,0 0.3,0 0.3,0 0.2,0 0.3,0 0.3,0 0.2,0 0.3,0 0.3,0 0.2,0 0.3,0 0.2,0 0.3,0 0.3,0 0.2,0 0.3,0 0.2,0 0.3,0 0.2,0 0.3,0 0.2,0 0.3,0 0.2,0 0.3,0 0.2,0 0.3,0 0.2,0 0.3,0 0.2,0 0.3,0 0.2,15.9 0.3,0 0.2,0 0.2,0 0.3,0 0.2,0 0.3,0 0.2,0 0.2,0 0.3,0 0.2,0 0.2,0 0.3,0 0.2,0 0.3,0 0.2,0 0.2,0 0.2,0 0.3,0 0.2,0 0.2,0 0.3,0 0.2,0 0.2,0 0.2,0 0.3,0 0.2,0 0.2,0 0.2,0 0.3,0 0.2,0 0.2,0 0.2,0 0.3,0 0.2,0 0.2,0 0.2,0 0.2,0 0.3,0 0.2,0 0.2,0 0.2,0 0.2,0 0.2,0 0.2,0 0.3,0 0.2,0 0.2,0 0.2,0 0.2,0 0.2,0 0.2,0 0.2,0 0.2,0 0.2,0 0.3,0 0.2,0 0.2,0 0.2,0 0.2,0 0.2,0 0.2,0 0.2,0 0.2,0 0.2,0 0.2,0 0.2,22.4 0.2,0 0.2,0 0.2,0 0.2,0 0.2,0 0.2,0 0.2,0 0.2,0 0.2,0 0.2,0 0.2,0 0.2,0 0.2,0 0.2,0 0.2,0 0.1,0 0.2,0 0.2,0 0.2,0 0.2,0 0.2,0 0.2,0 0.2,0 0.2,0 0.2,0 0.1,0 0.2,0 0.2,0 0.2,0 0.2,0 0.2,0 0.2,0 0.2,0 0.1,0 0.2,0 0.2,0 0.2,0 0.2,0 0.2,0 0.1,0 0.2,0 0.2,0 0.2,0 0.2,0 0.1,0 0.2,0 0.2,0 0.2,0 0.2,0 0.1,0 0.2,0 0.2,0 0.2,0 0.1,0 0.2,0 0.2,0 0.2,0 0.1,0 0.2,0 0.2,0 0.2,0 0.1,0 0.2,0 0.2,0 0.1,0 0.2,0 0.2,0 0.2,0 0.1,0 0.2,0 0.2,0 0.1,0 0.2,0 0.2,0 0.1,0 0.2,0 0.2,0 0.1,0 0.2,0 0.2,0 0.1,0 0.2,0 0.2,0 0.1,0 0.2,0 0.2,0 0.1,0 0.2,0 0.1,0 0.2,0 0.2,0 0.1,0 0.2,0 0.2,0 0.1,0 0.2,0 0.1,0 0.2,0 0.2,0 0.1,0 0.2,0 0.1,0 0.2,0 0.1,0 0.2,0 0.2,0 0.1,0 0.2,0 0.1,0 0.2,0 0.1,0 0.2,0 0.2,0 0.1,0 0.2,0 0.1,0 0.2,38.4 0.1,0 0.2,0 0.1,0 0.2,0 0.1,0 0.2,0 0.1,0 0.2,0 0.1,0 0.2,0 0.1,0 0.2,0 0.1,0 0.2,0 0.1,0 0.2,0 0.1,0 0.2,0 0.1,0 0.2,0 0.1,0 0.2,0 0.1,0 0.2,0 0.1,0 0.1,0 0.2,0 0.1,0 0.2,0 0.1,0 0.2,0 0.1,0 0.2,0 0.1,0 0.1,0 0.2,0 0.1,0 0.2,0 0.1,0 0.2,0 0.1,0 0.1,0 0.2,0 0.1,0 0.2,0 0.1,0 0.1,0 0.2,0 0.1,0 0.2,0 0.1,0 0.1,0 0.2,0 0.1,0 0.2,0 0.1,0 0.1,0 0.2,0 0.1,0 0.1,0 0.2,0 0.1,0 0.2,0 0.1,0 0.1,0 0.2,0 0.1,0 0.1,0 0.2,0 0.1,0 0.1,0 0.2,0 0.1,0 0.1,0 0.2,0 0.1,0 0.1,0 0.2,0 0.1,0 0.1,0 0.2,0 0.1,0 0.1,0 0.2,0 0.1,0 0.1,0 0.1,0 0.2,0 0.1,0 0.1,0 0.2,0 0.1,0 0.1,0 0.2,0 0.1,0 0.1,0 0.1,0 0.2,0 0.1,0 0.1,0 0.1,0 0.2,0 0.1,0 0.1,0 0.2,0 0.1,0 0.1,0 0.1,0 0.2,0 0.1,0 0.1,0 0.1,0 0.2,0 0.1,0 0.1,0 0.1,0 0.2,0 0.1,0 0.1,0 0.1,0 0.1,0 0.2,0 0.1,0 0.1,0 0.1,0 0.2,0 0.1,0 0.1,0 0.1,0 0.1,0 0.2,0 0.1,0 0.1,0 0.1,0 0.2,0 0.1,0 0.1,0 0.1,0 0.1,0 0.2,0 0.1,0 0.1,0 0.1,0 0.1,0 0.1,0 0.2,0 0.1,0 0.1,0 0.1,0 0.1,0 0.2,0 0.1,0 0.1,0 0.1,0 0.1,0 0.1,0 0.2,0 0.1,0 0.1,0 0.1,0 0.1,0 0.1,0 0.1,0 0.2,0 0.1,0 0.1,0 0.1,0 0.1,0 0.1,0 0.1,0 0.2,0 0.1,0 0.1,0 0.1,0 0.1,0 0.1,0 0.1,0 0.2,0 0.1,0 0.1,0 0.1,0 0.1,0 0.1,0 0.1,0 0.1,0 0.2,0 0.1,0 0.1,0 0.1,0 0.1,0 0.1,0 0.1,0 0.1,0 0.1,0 0.1,0 0.2,0 0.1,0 0.1,0 0.1,0 0.1,0 0.1,0 0.1,0 0.1,0 0.1,0 0.1,0 0.1,0 0.2,0 0.1,0 0.1,0 0.1,0 0.1,0 0.1,0 0.1,0 0.1,0 0.1,0 0.1,0 0.1,0 0.1,0 0.1,0 0.1,0 0.1,0 0.2,0 0.1,0 0.1,0 0.1,0 0.1,0 0.1,0 0.1,0 0.1,0 0.1,0 0.1,0 0.1,0 0.1,0 0.1,0 0.1,0 0.1,0 0.1,0 0.1,0 0.1,0 0.1,0 0.1,0 0.1,0 0.1,0 0.1,0 0.1,0 0.1,0 0.2,0 0.1,0 0.1,0 0.1,0 0.1,0 0.1,0 0.1,0 0.1,0 0.1,0 0.1,0 0.1,0 0.1,0 0.1,0 0.1,0 0.1,0 0.1,0 0.1,0 0.1,0 0.1,0 0.1,0 0.1,0 0.1,0 0.1,0 0.1,0 0.1,0 0.1,0 0.1,0 0.1,0 0.1,0 0.1,0 0.1,0 0.1,0 0.1,0 0.1,0 0.1,0 0.1,0 0.1,0 0.1,0 0.1,0 0.1,0 0.1,0 0.1,0 0.1,0 0.1,0 0.1,0 0.1,0 0.1,0 0.1,0 0.1,0 0.1,0 0.1,0 0.1,0 0.1,0 0.1,0 0.1,0 0.1,0 0.1,0 0.1,0 0.1,0 0.1,0 0.1,0 0.1,0 0.1,0 0.1,0 0.1,0 0.1,0 0.1,0 0.1,0 0.1,0 0.1,0 0.1,0 0.1,0 0.1,0 0.1,0 0.1,0 0.1,0 0.1,0 0.1,0 0.1,0 0.1,0 0.1,0 0.1,0 0.1,0 0.1,0 0.1,0 0.1,0 0.1,0 0.1,0 0.1,0 0.1,0 0.1,0 0.1,0 0.1,0 0.1,0 0.1,0 0.1,0 0.1,0 0.1,0 0.1,0 0.1,0 0.1,0 0.1,0 0.1,0 0.1,0 0.1,0 0.1,0 0.1,0 0.1,0 0.1,0 0.1,0 0.1,0 0.1,0 0.1,0 0.1,0 0.1,0 0.1,0 0.1,0 0.1,0 0.1,0 0.1,0 0.1,0 0.1,0 0.1,0 0.1,0 0.1,0 0.1,0 0.1,0 0.1,0 0.1,0 0.1,0 0.1,0 0.1,0 0.1,0 0.1,0 0.1,0 0.1,0 0.1,0 0.1,0 0.1,0 0.1,0 0.1,0 0.1,0 0.1,0 0.1,0 0.1,0 0.1,0 0.1,0 0.1,0 0.1,0 0.1,0 0.1,0 0.1,0 0.1,0 0.1,0 0.1,0 0.1,0 0.1,0 0.1,0 0.1,0 0.1,0 0.1,0 0.1,0 0.1,0 h 0.01" />
    </g>
  </g>
  <g
     id="g150"
     style="color:#000000;fill:none;stroke:currentColor;stroke-width:0.5;stroke-linecap:butt;stroke-linejoin:miter"
     transform="translate(12.746466,0)" />
</svg>
