<?xml version="1.0" encoding="UTF-8" standalone="no"?>
<svg
   xmlns:dc="http://purl.org/dc/elements/1.1/"
   xmlns:cc="http://creativecommons.org/ns#"
   xmlns:rdf="http://www.w3.org/1999/02/22-rdf-syntax-ns#"
   xmlns:svg="http://www.w3.org/2000/svg"
   xmlns="http://www.w3.org/2000/svg"
   xmlns:xlink="http://www.w3.org/1999/xlink"
   xmlns:sodipodi="http://sodipodi.sourceforge.net/DTD/sodipodi-0.dtd"
   xmlns:inkscape="http://www.inkscape.org/namespaces/inkscape"
   viewBox="0 0 586.81741 433.13147"
   id="svg3407"
   version="1.1"
   inkscape:version="0.48.4 r9939"
   width="100%"
   height="100%"
   sodipodi:docname="ratio_fk_fk1.svg">
  <metadata
     id="metadata3789">
    <rdf:RDF>
      <cc:Work
         rdf:about="">
        <dc:format>image/svg+xml</dc:format>
        <dc:type
           rdf:resource="http://purl.org/dc/dcmitype/StillImage" />
      </cc:Work>
    </rdf:RDF>
  </metadata>
  <defs
     id="defs3787" />
  <sodipodi:namedview
     pagecolor="#ffffff"
     bordercolor="#666666"
     borderopacity="1"
     objecttolerance="10"
     gridtolerance="10"
     guidetolerance="10"
     inkscape:pageopacity="0"
     inkscape:pageshadow="2"
     inkscape:window-width="1246"
     inkscape:window-height="752"
     id="namedview3785"
     showgrid="false"
     fit-margin-top="0"
     fit-margin-left="0"
     fit-margin-right="0"
     fit-margin-bottom="0"
     inkscape:zoom="1.3240741"
     inkscape:cx="298.81741"
     inkscape:cy="217.13147"
     inkscape:window-x="0"
     inkscape:window-y="18"
     inkscape:window-maximized="0"
     inkscape:current-layer="svg3407" />
  <title
     id="title3409">Gnuplot</title>
  <desc
     id="desc3411">Produced by GNUPLOT 4.6 patchlevel 1 </desc>
  <g
     id="gnuplot_canvas"
     transform="translate(10.817406,0)">
    <rect
       x="0"
       y="0"
       width="576"
       height="432"
       id="rect3414"
       style="fill:none" />
    <defs
       id="defs3416">
      <circle
         id="gpDot"
         r="0.5"
         cx="0"
         cy="0"
         sodipodi:cx="0"
         sodipodi:cy="0"
         sodipodi:rx="0.5"
         sodipodi:ry="0.5"
         style="stroke-width:0.5" />
      <path
         id="gpPt0"
         d="M -1,0 H 1 M 0,-1 v 2"
         inkscape:connector-curvature="0"
         style="stroke:currentColor;stroke-width:0.333" />
      <path
         id="gpPt1"
         d="M -1,-1 1,1 M 1,-1 -1,1"
         inkscape:connector-curvature="0"
         style="stroke:currentColor;stroke-width:0.333" />
      <path
         id="gpPt2"
         d="M -1,0 1,0 M 0,-1 0,1 m -1,-2 2,2 m -2,0 2,-2"
         inkscape:connector-curvature="0"
         style="stroke:currentColor;stroke-width:0.333" />
      <rect
         id="gpPt3"
         x="-1"
         y="-1"
         width="2"
         height="2"
         style="stroke:currentColor;stroke-width:0.333" />
      <rect
         id="gpPt4"
         x="-1"
         y="-1"
         width="2"
         height="2"
         style="fill:currentColor;stroke:currentColor;stroke-width:0.333" />
      <circle
         id="gpPt5"
         cx="0"
         cy="0"
         r="1"
         sodipodi:cx="0"
         sodipodi:cy="0"
         sodipodi:rx="1"
         sodipodi:ry="1"
         style="stroke:currentColor;stroke-width:0.333" />
      <use
         xlink:href="#gpPt5"
         id="gpPt6"
         style="fill:currentColor;stroke:none"
         x="0"
         y="0"
         width="576"
         height="432" />
      <path
         id="gpPt7"
         d="m 0,-1.33 -1.33,2 2.66,0 z"
         inkscape:connector-curvature="0"
         style="stroke:currentColor;stroke-width:0.333" />
      <use
         xlink:href="#gpPt7"
         id="gpPt8"
         style="fill:currentColor;stroke:none"
         x="0"
         y="0"
         width="576"
         height="432" />
      <use
         xlink:href="#gpPt7"
         id="gpPt9"
         transform="scale(-1,-1)"
         style="stroke:currentColor"
         x="0"
         y="0"
         width="576"
         height="432" />
      <use
         xlink:href="#gpPt9"
         id="gpPt10"
         style="fill:currentColor;stroke:none"
         x="0"
         y="0"
         width="576"
         height="432" />
      <use
         xlink:href="#gpPt3"
         id="gpPt11"
         transform="matrix(0.70710678,0.70710678,-0.70710678,0.70710678,0,0)"
         style="stroke:currentColor"
         x="0"
         y="0"
         width="576"
         height="432" />
      <use
         xlink:href="#gpPt11"
         id="gpPt12"
         style="fill:currentColor;stroke:none"
         x="0"
         y="0"
         width="576"
         height="432" />
    </defs>
    <g
       style="color:#ffffff;fill:none;stroke:currentColor;stroke-width:1;stroke-linecap:butt;stroke-linejoin:miter"
       id="g3432" />
    <g
       style="color:#000000;fill:none;stroke:currentColor;stroke-width:1;stroke-linecap:butt;stroke-linejoin:miter"
       id="g3434">
      <g
         style="stroke:none"
         id="g3436">
        <polygon
           points="42.8,11.4 42.8,393.6 559,393.6 559,11.4 "
           id="polygon3438"
           style="fill:#ffffff" />
      </g>
      <path
         d="m 42.8,393.6 0,-382.2 516.2,0 0,382.2 -516.2,0 h 0.01"
         id="path3440"
         inkscape:connector-curvature="0"
         style="stroke:#000000" />
    </g>
    <g
       style="color:#000000;fill:none;stroke:#000000;stroke-width:0.5;stroke-linecap:butt;stroke-linejoin:miter"
       id="g3442">
      <path
         d="m 42.8,393.6 8.4,0 m 507.9,0 -8.4,0 h 0.01"
         id="path3444"
         inkscape:connector-curvature="0" />
      <g
         transform="translate(37.2,396.6)"
         style="font-size:12.5px;text-anchor:end;fill:#000000;stroke:none"
         id="g3446">
        <text
           id="text3448">
          <tspan
             id="tspan3450">10</tspan>
          <tspan
             font-size="8.0pt"
             dy="-6.25"
             id="tspan3452"
             style="font-size:10px">-2</tspan>
          <tspan
             font-size="10.0pt"
             dy="6.25"
             id="tspan3454"
             style="font-size:12.5px" />
        </text>
      </g>
      <path
         d="m 42.8,317.1 8.4,0 m 507.9,0 -8.4,0 h 0.01"
         id="path3456"
         style="stroke-width:2;stroke-miterlimit:4;stroke-dasharray:none"
         inkscape:connector-curvature="0" />
      <g
         transform="translate(37.2,320.1)"
         style="font-size:12.5px;text-anchor:end;fill:#000000;stroke:none"
         id="g3458">
        <text
           id="text3460">
          <tspan
             id="tspan3462">10</tspan>
          <tspan
             font-size="8.0pt"
             dy="-6.25"
             id="tspan3464"
             style="font-size:10px">0</tspan>
          <tspan
             font-size="10.0pt"
             dy="6.25"
             id="tspan3466"
             style="font-size:12.5px" />
        </text>
      </g>
      <path
         d="m 42.8,240.7 8.4,0 m 507.9,0 -8.4,0 h 0.01"
         id="path3468"
         style="stroke-width:2;stroke-miterlimit:4;stroke-dasharray:none"
         inkscape:connector-curvature="0" />
      <g
         transform="translate(37.2,243.7)"
         style="font-size:12.5px;text-anchor:end;fill:#000000;stroke:none"
         id="g3470">
        <text
           id="text3472">
          <tspan
             id="tspan3474">10</tspan>
          <tspan
             font-size="8.0pt"
             dy="-6.25"
             id="tspan3476"
             style="font-size:10px">2</tspan>
          <tspan
             font-size="10.0pt"
             dy="6.25"
             id="tspan3478"
             style="font-size:12.5px" />
        </text>
      </g>
      <path
         d="m 42.8,164.2 8.4,0 m 507.9,0 -8.4,0 h 0.01"
         id="path3480"
         style="stroke-width:2;stroke-miterlimit:4;stroke-dasharray:none"
         inkscape:connector-curvature="0" />
      <g
         transform="translate(37.2,167.2)"
         style="font-size:12.5px;text-anchor:end;fill:#000000;stroke:none"
         id="g3482">
        <text
           id="text3484">
          <tspan
             id="tspan3486">10</tspan>
          <tspan
             font-size="8.0pt"
             dy="-6.25"
             id="tspan3488"
             style="font-size:10px">4</tspan>
          <tspan
             font-size="10.0pt"
             dy="6.25"
             id="tspan3490"
             style="font-size:12.5px" />
        </text>
      </g>
      <path
         d="m 42.8,87.8 8.4,0 m 507.9,0 -8.4,0 h 0.01"
         id="path3492"
         style="stroke-width:2;stroke-miterlimit:4;stroke-dasharray:none"
         inkscape:connector-curvature="0" />
      <g
         transform="translate(37.2,90.8)"
         style="font-size:12.5px;text-anchor:end;fill:#000000;stroke:none"
         id="g3494">
        <text
           id="text3496">
          <tspan
             id="tspan3498">10</tspan>
          <tspan
             font-size="8.0pt"
             dy="-6.25"
             id="tspan3500"
             style="font-size:10px">6</tspan>
          <tspan
             font-size="10.0pt"
             dy="6.25"
             id="tspan3502"
             style="font-size:12.5px" />
        </text>
      </g>
      <path
         d="m 42.8,11.3 8.4,0 m 507.9,0 -8.4,0 h 0.01"
         id="path3504"
         inkscape:connector-curvature="0" />
      <g
         transform="translate(37.2,14.3)"
         style="font-size:12.5px;text-anchor:end;fill:#000000;stroke:none"
         id="g3506">
        <text
           id="text3508">
          <tspan
             id="tspan3510">10</tspan>
          <tspan
             font-size="8.0pt"
             dy="-6.25"
             id="tspan3512"
             style="font-size:10px">8</tspan>
          <tspan
             font-size="10.0pt"
             dy="6.25"
             id="tspan3514"
             style="font-size:12.5px" />
        </text>
      </g>
      <path
         d="m 42.8,393.6 0,-8.4 m 0,-373.9 0,8.4 h 0.01"
         id="path3516"
         inkscape:connector-curvature="0" />
      <g
         transform="translate(42.8,408.6)"
         style="font-size:12.5px;text-anchor:middle;fill:#000000;stroke:none"
         id="g3518">
        <text
           id="text3520">
          <tspan
             id="tspan3522">10</tspan>
          <tspan
             font-size="8.0pt"
             dy="-6.25"
             id="tspan3524"
             style="font-size:10px">0</tspan>
          <tspan
             font-size="10.0pt"
             dy="6.25"
             id="tspan3526"
             style="font-size:12.5px" />
        </text>
      </g>
      <path
         d="m 128.9,393.6 0,-8.4 m 0,-373.9 0,8.4 h 0.01"
         id="path3528"
         style="stroke-width:2;stroke-miterlimit:4;stroke-dasharray:none"
         inkscape:connector-curvature="0" />
      <g
         transform="translate(128.9,408.6)"
         style="font-size:12.5px;text-anchor:middle;fill:#000000;stroke:none"
         id="g3530">
        <text
           id="text3532">
          <tspan
             id="tspan3534">10</tspan>
          <tspan
             font-size="8.0pt"
             dy="-6.25"
             id="tspan3536"
             style="font-size:10px">1</tspan>
          <tspan
             font-size="10.0pt"
             dy="6.25"
             id="tspan3538"
             style="font-size:12.5px" />
        </text>
      </g>
      <path
         d="m 214.9,393.6 0,-8.4 m 0,-373.9 0,8.4 h 0.01"
         id="path3540"
         style="stroke-width:2;stroke-miterlimit:4;stroke-dasharray:none"
         inkscape:connector-curvature="0" />
      <g
         transform="translate(214.9,408.6)"
         style="font-size:12.5px;text-anchor:middle;fill:#000000;stroke:none"
         id="g3542">
        <text
           id="text3544">
          <tspan
             id="tspan3546">10</tspan>
          <tspan
             font-size="8.0pt"
             dy="-6.25"
             id="tspan3548"
             style="font-size:10px">2</tspan>
          <tspan
             font-size="10.0pt"
             dy="6.25"
             id="tspan3550"
             style="font-size:12.5px" />
        </text>
      </g>
      <path
         d="m 301,393.6 0,-8.4 m 0,-373.9 0,8.4 h 0.01"
         id="path3552"
         style="stroke-width:2;stroke-miterlimit:4;stroke-dasharray:none"
         inkscape:connector-curvature="0" />
      <g
         transform="translate(301,408.6)"
         style="font-size:12.5px;text-anchor:middle;fill:#000000;stroke:none"
         id="g3554">
        <text
           id="text3556">
          <tspan
             id="tspan3558">10</tspan>
          <tspan
             font-size="8.0pt"
             dy="-6.25"
             id="tspan3560"
             style="font-size:10px">3</tspan>
          <tspan
             font-size="10.0pt"
             dy="6.25"
             id="tspan3562"
             style="font-size:12.5px" />
        </text>
      </g>
      <path
         d="m 387,393.6 0,-8.4 m 0,-373.9 0,8.4 h 0.01"
         id="path3564"
         style="stroke-width:2;stroke-miterlimit:4;stroke-dasharray:none"
         inkscape:connector-curvature="0" />
      <g
         transform="translate(387,408.6)"
         style="font-size:12.5px;text-anchor:middle;fill:#000000;stroke:none"
         id="g3566">
        <text
           id="text3568">
          <tspan
             id="tspan3570">10</tspan>
          <tspan
             font-size="8.0pt"
             dy="-6.25"
             id="tspan3572"
             style="font-size:10px">4</tspan>
          <tspan
             font-size="10.0pt"
             dy="6.25"
             id="tspan3574"
             style="font-size:12.5px" />
        </text>
      </g>
      <path
         d="m 473.1,393.6 0,-8.4 m 0,-373.9 0,8.4 h 0.01"
         id="path3576"
         style="stroke-width:2;stroke-miterlimit:4;stroke-dasharray:none"
         inkscape:connector-curvature="0" />
      <g
         transform="translate(473.1,408.6)"
         style="font-size:12.5px;text-anchor:middle;fill:#000000;stroke:none"
         id="g3578">
        <text
           id="text3580">
          <tspan
             id="tspan3582">10</tspan>
          <tspan
             font-size="8.0pt"
             dy="-6.25"
             id="tspan3584"
             style="font-size:10px">5</tspan>
          <tspan
             font-size="10.0pt"
             dy="6.25"
             id="tspan3586"
             style="font-size:12.5px" />
        </text>
      </g>
      <path
         d="m 559.1,393.6 0,-8.4 m 0,-373.9 0,8.4 h 0.01"
         id="path3588"
         inkscape:connector-curvature="0" />
      <g
         transform="translate(559.1,408.6)"
         style="font-size:12.5px;text-anchor:middle;fill:#000000;stroke:none"
         id="g3590">
        <text
           id="text3592">
          <tspan
             id="tspan3594">10</tspan>
          <tspan
             font-size="8.0pt"
             dy="-6.25"
             id="tspan3596"
             style="font-size:10px">6</tspan>
          <tspan
             font-size="10.0pt"
             dy="6.25"
             id="tspan3598"
             style="font-size:12.5px" />
        </text>
      </g>
      <path
         d="m 42.8,11.3 0,382.3 516.3,0 0,-382.3 -516.3,0 z m 0,0 h 0.01"
         id="path3600"
         style="stroke-width:2;stroke-miterlimit:4;stroke-dasharray:none"
         inkscape:connector-curvature="0" />
      <g
         transform="matrix(0,-1,1,0,11.8,202.5)"
         style="font-size:12.5px;text-anchor:middle;fill:#000000;stroke:none"
         id="g3602">
        <text
           id="text3604"
           x="0.36453646"
           y="-4.3938932"
           style="font-size:23.98570251px">
          <tspan
             id="tspan3606">f(k+1)/f(k)</tspan>
        </text>
      </g>
      <g
         transform="translate(300.9,426.6)"
         style="font-size:12.5px;text-anchor:middle;fill:#000000;stroke:none"
         id="g3608">
        <text
           id="text3610"
           x="-0.51838136"
           y="6.5314684"
           style="font-size:24.4285965px">
          <tspan
             id="tspan3612">k</tspan>
        </text>
      </g>
    </g>
    <g
       id="gnuplot_plot_1a">
      <title
         id="title3615">gnuplot_plot_1a</title>
      <g
         style="color:#ff0000;fill:none;stroke:currentColor;stroke-width:0.5;stroke-linecap:butt;stroke-linejoin:miter"
         id="g3617">
        <g
           transform="translate(87.6,26.3)"
           style="font-size:12.5px;text-anchor:end;fill:#000000;stroke:none"
           id="g3619">
          <text
             id="text3621"
             x="501.12912"
             y="298.03934"
             transform="matrix(0.99462337,0.10355842,-0.10355842,0.99462337,0,0)"
             style="font-size:12.5px">
            <tspan
               id="tspan3623">s = 0.8</tspan>
          </text>
        </g>
        <path
           d="m 42.8,307.9 2.6,0.7 2.6,0.7 2.6,0.6 2.6,0.7 2.6,0.6 2.6,0.6 2.6,0.6 2.6,0.6 2.6,0.5 2.5,0.6 2.6,0.5 2.6,0.5 2.6,0.5 2.6,0.5 2.6,0.5 2.6,0.4 2.6,0.5 2.6,0.4 2.6,0.5 2.6,0.4 2.6,0.4 2.6,0.4 2.6,0.4 2.6,0.4 2.6,0.3 2.6,0.4 2.6,0.4 2.5,0.3 2.6,0.4 2.6,0.3 2.6,0.3 2.6,0.3 2.6,0.4 2.6,0.3 2.6,0.3 2.6,0.3 2.6,0.3 2.6,0.3 2.6,0.3 2.6,0.3 2.6,0.2 2.6,0.3 2.6,0.3 2.6,0.3 2.6,0.2 2.5,0.3 2.6,0.3 2.6,0.2 2.6,0.3 2.6,0.3 2.6,0.2 2.6,0.3 2.6,0.2 2.6,0.3 2.6,0.2 2.6,0.3 2.6,0.2 2.6,0.3 2.6,0.2 2.6,0.3 2.6,0.2 2.6,0.3 2.6,0.2 2.5,0.2 2.6,0.3 2.6,0.2 2.6,0.3 2.6,0.2 2.6,0.2 2.6,0.3 2.6,0.2 2.6,0.2 2.6,0.3 2.6,0.2 2.6,0.3 2.6,0.2 2.6,0.2 2.6,0.3 2.6,0.2 2.6,0.2 2.6,0.3 2.5,0.2 2.6,0.2 2.6,0.3 2.6,0.2 2.6,0.2 2.6,0.3 2.6,0.2 2.6,0.2 2.6,0.3 2.6,0.2 2.6,0.2 2.6,0.3 2.6,0.2 2.6,0.2 2.6,0.3 2.6,0.2 2.6,0.2 2.6,0.2 2.5,0.3 2.6,0.2 2.6,0.2 2.6,0.3 2.6,0.2 2.6,0.2 2.6,0.3 2.6,0.2 2.6,0.2 2.6,0.3 2.6,0.2 2.6,0.2 2.6,0.3 2.6,0.2 2.6,0.2 2.6,0.2 2.6,0.3 2.6,0.2 2.5,0.2 2.6,0.3 2.6,0.2 2.6,0.2 2.6,0.3 2.6,0.2 2.6,0.2 2.6,0.3 2.6,0.2 2.6,0.2 2.6,0.2 2.6,0.3 2.6,0.2 2.6,0.2 2.6,0.3 2.6,0.2 2.6,0.2 2.6,0.3 2.5,0.2 2.6,0.2 2.6,0.3 2.6,0.2 2.6,0.2 2.6,0.2 2.6,0.3 2.6,0.2 2.6,0.2 2.6,0.3 2.6,0.2 2.6,0.2 2.6,0.3 2.6,0.2 2.6,0.2 2.6,0.3 2.6,0.2 2.6,0.2 2.5,0.2 2.6,0.3 2.6,0.2 2.6,0.2 2.6,0.3 2.6,0.2 2.6,0.2 2.6,0.3 2.6,0.2 2.6,0.2 2.6,0.2 2.6,0.3 2.6,0.2 2.6,0.2 2.6,0.3 2.6,0.2 2.6,0.2 2.6,0.3 2.5,0.2 2.6,0.2 2.6,0.3 2.6,0.2 2.6,0.2 2.6,0.2 2.6,0.3 2.6,0.2 2.6,0.2 2.6,0.3 2.6,0.2 2.6,0.2 2.6,0.3 2.6,0.2 2.6,0.2 2.6,0.2 2.6,0.3 2.6,0.2 2.5,0.2 2.6,0.3 2.6,0.2 2.6,0.2 2.6,0.3 2.6,0.2 2.6,0.2 2.6,0.3 2.6,0.2 2.6,0.2 h 0.01"
           id="path3625"
           style="stroke:#000000;stroke-width:2;stroke-miterlimit:4;stroke-opacity:1;stroke-dasharray:none"
           inkscape:connector-curvature="0" />
      </g>
    </g>
    <g
       id="gnuplot_plot_2a">
      <title
         id="title3628">gnuplot_plot_2a</title>
      <g
         style="color:#ff0000;fill:none;stroke:currentColor;stroke-width:0.5;stroke-linecap:butt;stroke-linejoin:miter"
         id="g3630">
        <g
           transform="translate(87.6,38.3)"
           style="font-size:12.5px;text-anchor:end;fill:#000000;stroke:none"
           id="g3632">
          <text
             id="text3634"
             x="485.64893"
             y="285.47586"
             transform="matrix(0.99826792,0.05883166,-0.05883166,0.99826792,0,0)"
             style="font-size:12.5px">
            <tspan
               id="tspan3636">s = 0.9</tspan>
          </text>
        </g>
        <path
           d="m 42.8,306.8 2.6,0.6 2.6,0.6 2.6,0.6 2.6,0.6 2.6,0.5 2.6,0.6 2.6,0.5 2.6,0.5 2.6,0.5 2.5,0.4 2.6,0.5 2.6,0.4 2.6,0.5 2.6,0.4 2.6,0.4 2.6,0.3 2.6,0.4 2.6,0.3 2.6,0.4 2.6,0.3 2.6,0.3 2.6,0.3 2.6,0.3 2.6,0.3 2.6,0.3 2.6,0.3 2.6,0.2 2.5,0.3 2.6,0.2 2.6,0.2 2.6,0.3 2.6,0.2 2.6,0.2 2.6,0.2 2.6,0.2 2.6,0.2 2.6,0.2 2.6,0.2 2.6,0.2 2.6,0.1 2.6,0.2 2.6,0.2 2.6,0.2 2.6,0.1 2.6,0.2 2.5,0.1 2.6,0.2 2.6,0.1 2.6,0.2 2.6,0.1 2.6,0.2 2.6,0.1 2.6,0.2 2.6,0.1 2.6,0.2 2.6,0.1 2.6,0.1 2.6,0.2 2.6,0.1 2.6,0.1 2.6,0.2 2.6,0.1 2.6,0.1 2.5,0.1 2.6,0.2 2.6,0.1 2.6,0.1 2.6,0.1 2.6,0.2 2.6,0.1 2.6,0.1 2.6,0.1 2.6,0.2 2.6,0.1 2.6,0.1 2.6,0.1 2.6,0.1 2.6,0.2 2.6,0.1 2.6,0.1 2.6,0.1 2.5,0.1 2.6,0.2 2.6,0.1 2.6,0.1 2.6,0.1 2.6,0.1 2.6,0.2 2.6,0.1 2.6,0.1 2.6,0.1 2.6,0.1 2.6,0.1 2.6,0.2 2.6,0.1 2.6,0.1 2.6,0.1 2.6,0.1 2.6,0.1 2.5,0.2 2.6,0.1 2.6,0.1 2.6,0.1 2.6,0.1 2.6,0.1 2.6,0.1 2.6,0.2 2.6,0.1 2.6,0.1 2.6,0.1 2.6,0.1 2.6,0.1 2.6,0.2 2.6,0.1 2.6,0.1 2.6,0.1 2.6,0.1 2.5,0.1 2.6,0.2 2.6,0.1 2.6,0.1 2.6,0.1 2.6,0.1 2.6,0.1 2.6,0.1 2.6,0.2 2.6,0.1 2.6,0.1 2.6,0.1 2.6,0.1 2.6,0.1 2.6,0.2 2.6,0.1 2.6,0.1 2.6,0.1 2.5,0.1 2.6,0.1 2.6,0.1 2.6,0.2 2.6,0.1 2.6,0.1 2.6,0.1 2.6,0.1 2.6,0.1 2.6,0.2 2.6,0.1 2.6,0.1 2.6,0.1 2.6,0.1 2.6,0.1 2.6,0.1 2.6,0.2 2.6,0.1 2.5,0.1 2.6,0.1 2.6,0.1 2.6,0.1 2.6,0.2 2.6,0.1 2.6,0.1 2.6,0.1 2.6,0.1 2.6,0.1 2.6,0.1 2.6,0.2 2.6,0.1 2.6,0.1 2.6,0.1 2.6,0.1 2.6,0.1 2.6,0.2 2.5,0.1 2.6,0.1 2.6,0.1 2.6,0.1 2.6,0.1 2.6,0.1 2.6,0.2 2.6,0.1 2.6,0.1 2.6,0.1 2.6,0.1 2.6,0.1 2.6,0.1 2.6,0.2 2.6,0.1 2.6,0.1 2.6,0.1 2.6,0.1 2.5,0.1 2.6,0.2 2.6,0.1 2.6,0.1 2.6,0.1 2.6,0.1 2.6,0.1 2.6,0.1 2.6,0.2 2.6,0.1 h 0.01"
           id="path3638"
           style="stroke:#000000;stroke-width:2;stroke-miterlimit:4;stroke-opacity:1;stroke-dasharray:none"
           inkscape:connector-curvature="0" />
      </g>
    </g>
    <g
       id="gnuplot_plot_3a">
      <title
         id="title3641">gnuplot_plot_3a</title>
      <g
         style="color:#ff0000;fill:none;stroke:currentColor;stroke-width:0.5;stroke-linecap:butt;stroke-linejoin:miter"
         id="g3643">
        <g
           transform="translate(87.6,50.3)"
           style="font-size:12.5px;text-anchor:end;fill:#000000;stroke:none"
           id="g3645">
          <text
             id="text3647"
             x="468.83469"
             y="278.48016">
            <tspan
               id="tspan3649">s = 1</tspan>
          </text>
        </g>
        <path
           d="m 42.8,305.6 2.6,0.6 2.6,0.5 2.6,0.6 2.6,0.5 2.6,0.5 2.6,0.4 2.6,0.5 2.6,0.4 2.6,0.4 2.5,0.4 2.6,0.4 2.6,0.3 2.6,0.4 2.6,0.3 2.6,0.3 2.6,0.3 2.6,0.3 2.6,0.3 2.6,0.2 2.6,0.2 2.6,0.3 2.6,0.2 2.6,0.2 2.6,0.2 2.6,0.1 2.6,0.2 2.6,0.2 2.5,0.1 2.6,0.2 2.6,0.1 2.6,0.1 2.6,0.1 2.6,0.1 2.6,0.1 2.6,0.1 2.6,0.1 2.6,0.1 2.6,0.1 2.6,0.1 2.6,0 2.6,0.1 2.6,0.1 2.6,0 2.6,0.1 2.6,0 2.5,0.1 2.6,0 2.6,0.1 2.6,0 2.6,0 2.6,0.1 2.6,0 2.6,0 2.6,0.1 2.6,0 2.6,0 2.6,0 2.6,0 2.6,0.1 2.6,0 2.6,0 2.6,0 2.6,0 2.5,0 2.6,0.1 2.6,0 2.6,0 2.6,0 2.6,0 2.6,0 2.6,0 2.6,0 2.6,0 2.6,0 2.6,0 2.6,0.1 2.6,0 2.6,0 2.6,0 2.6,0 2.6,0 2.5,0 2.6,0 2.6,0 2.6,0 2.6,0 2.6,0 2.6,0 2.6,0 2.6,0 2.6,0 2.6,0 2.6,0 2.6,0 2.6,0 2.6,0 2.6,0 2.6,0 2.6,0 2.5,0 2.6,0 2.6,0 2.6,0 2.6,0 2.6,0 2.6,0 2.6,0 2.6,0 2.6,0 2.6,0 2.6,0 2.6,0 2.6,0 2.6,0 2.6,0 2.6,0 2.6,0 2.5,0 2.6,0 2.6,0 2.6,0 2.6,0 2.6,0 2.6,0 2.6,0 2.6,0 2.6,0 2.6,0 2.6,0 2.6,0 2.6,0 2.6,0 2.6,0 2.6,0 2.6,0 2.5,0 2.6,0 2.6,0 2.6,0 2.6,0 2.6,0 2.6,0 2.6,0 2.6,0 2.6,0 2.6,0 2.6,0 2.6,0 2.6,0 2.6,0 2.6,0 2.6,0 2.6,0 2.5,0 2.6,0 2.6,0 2.6,0 2.6,0 2.6,0 2.6,0 2.6,0 2.6,0 2.6,0 2.6,0 2.6,0 2.6,0 2.6,0 2.6,0 2.6,0 2.6,0 2.6,0 2.5,0 2.6,0 2.6,0 2.6,0 2.6,0 2.6,0 2.6,0 2.6,0 2.6,0 2.6,0 2.6,0 2.6,0 2.6,0 2.6,0 2.6,0 2.6,0 2.6,0 2.6,0 2.5,0 2.6,0 2.6,0 2.6,0 2.6,0 2.6,0 2.6,0 2.6,0 2.6,0 2.6,0 h 0.01"
           id="path3651"
           style="stroke:#000000;stroke-width:2;stroke-miterlimit:4;stroke-opacity:1;stroke-dasharray:none"
           inkscape:connector-curvature="0" />
      </g>
    </g>
    <g
       id="gnuplot_plot_4a">
      <title
         id="title3654">gnuplot_plot_4a</title>
      <g
         style="color:#ff0000;fill:none;stroke:currentColor;stroke-width:0.5;stroke-linecap:butt;stroke-linejoin:miter"
         id="g3656">
        <g
           transform="translate(87.6,62.3)"
           style="font-size:12.5px;text-anchor:end;fill:#000000;stroke:none"
           id="g3658">
          <text
             id="text3660"
             x="455.89792"
             y="267.27255"
             transform="matrix(0.99871997,-0.05058081,0.05058081,0.99871997,0,0)"
             style="font-size:12.5px">
            <tspan
               id="tspan3662">s = 1.1</tspan>
          </text>
        </g>
        <path
           d="m 42.8,304.5 2.6,0.5 2.6,0.5 2.6,0.4 2.6,0.5 2.6,0.4 2.6,0.4 2.6,0.4 2.6,0.3 2.6,0.4 2.5,0.3 2.6,0.3 2.6,0.3 2.6,0.2 2.6,0.3 2.6,0.2 2.6,0.2 2.6,0.2 2.6,0.2 2.6,0.1 2.6,0.2 2.6,0.1 2.6,0.1 2.6,0.1 2.6,0.1 2.6,0.1 2.6,0.1 2.6,0 2.5,0.1 2.6,0 2.6,0 2.6,0.1 2.6,0 2.6,0 2.6,0 2.6,0 2.6,-0.1 2.6,0 2.6,0 2.6,0 2.6,-0.1 2.6,0 2.6,-0.1 2.6,0 2.6,-0.1 2.6,0 2.5,-0.1 2.6,-0.1 2.6,0 2.6,-0.1 2.6,-0.1 2.6,-0.1 2.6,0 2.6,-0.1 2.6,-0.1 2.6,-0.1 2.6,-0.1 2.6,-0.1 2.6,-0.1 2.6,-0.1 2.6,-0.1 2.6,-0.1 2.6,-0.1 2.6,-0.1 2.5,-0.1 2.6,-0.1 2.6,-0.1 2.6,-0.1 2.6,-0.1 2.6,-0.1 2.6,-0.1 2.6,-0.1 2.6,-0.1 2.6,-0.1 2.6,-0.1 2.6,-0.1 2.6,-0.1 2.6,-0.1 2.6,-0.1 2.6,-0.1 2.6,-0.2 2.6,-0.1 2.5,-0.1 2.6,-0.1 2.6,-0.1 2.6,-0.1 2.6,-0.1 2.6,-0.1 2.6,-0.1 2.6,-0.2 2.6,-0.1 2.6,-0.1 2.6,-0.1 2.6,-0.1 2.6,-0.1 2.6,-0.1 2.6,-0.1 2.6,-0.2 2.6,-0.1 2.6,-0.1 2.5,-0.1 2.6,-0.1 2.6,-0.1 2.6,-0.1 2.6,-0.2 2.6,-0.1 2.6,-0.1 2.6,-0.1 2.6,-0.1 2.6,-0.1 2.6,-0.1 2.6,-0.2 2.6,-0.1 2.6,-0.1 2.6,-0.1 2.6,-0.1 2.6,-0.1 2.6,-0.2 2.5,-0.1 2.6,-0.1 2.6,-0.1 2.6,-0.1 2.6,-0.1 2.6,-0.1 2.6,-0.2 2.6,-0.1 2.6,-0.1 2.6,-0.1 2.6,-0.1 2.6,-0.1 2.6,-0.1 2.6,-0.2 2.6,-0.1 2.6,-0.1 2.6,-0.1 2.6,-0.1 2.5,-0.1 2.6,-0.2 2.6,-0.1 2.6,-0.1 2.6,-0.1 2.6,-0.1 2.6,-0.1 2.6,-0.1 2.6,-0.2 2.6,-0.1 2.6,-0.1 2.6,-0.1 2.6,-0.1 2.6,-0.1 2.6,-0.2 2.6,-0.1 2.6,-0.1 2.6,-0.1 2.5,-0.1 2.6,-0.1 2.6,-0.1 2.6,-0.2 2.6,-0.1 2.6,-0.1 2.6,-0.1 2.6,-0.1 2.6,-0.1 2.6,-0.1 2.6,-0.2 2.6,-0.1 2.6,-0.1 2.6,-0.1 2.6,-0.1 2.6,-0.1 2.6,-0.2 2.6,-0.1 2.5,-0.1 2.6,-0.1 2.6,-0.1 2.6,-0.1 2.6,-0.1 2.6,-0.2 2.6,-0.1 2.6,-0.1 2.6,-0.1 2.6,-0.1 2.6,-0.1 2.6,-0.2 2.6,-0.1 2.6,-0.1 2.6,-0.1 2.6,-0.1 2.6,-0.1 2.6,-0.1 2.5,-0.2 2.6,-0.1 2.6,-0.1 2.6,-0.1 2.6,-0.1 2.6,-0.1 2.6,-0.2 2.6,-0.1 2.6,-0.1 2.6,-0.1 h 0.01"
           id="path3664"
           style="stroke:#000000;stroke-width:2;stroke-miterlimit:4;stroke-opacity:1;stroke-dasharray:none"
           inkscape:connector-curvature="0" />
      </g>
    </g>
    <g
       id="gnuplot_plot_5a">
      <title
         id="title3667">gnuplot_plot_5a</title>
      <g
         style="color:#ff0000;fill:none;stroke:currentColor;stroke-width:0.5;stroke-linecap:butt;stroke-linejoin:miter"
         id="g3669">
        <g
           transform="translate(87.6,74.3)"
           style="font-size:12.5px;text-anchor:end;fill:#000000;stroke:none"
           id="g3671">
          <text
             id="text3673"
             x="448.37021"
             y="250.16684"
             transform="matrix(0.99600112,-0.08934075,0.08934075,0.99600112,0,0)"
             style="font-size:12.5px">
            <tspan
               id="tspan3675">s = 1.2</tspan>
          </text>
        </g>
        <path
           d="m 42.8,303.3 2.6,0.5 2.6,0.4 2.6,0.4 2.6,0.4 2.6,0.3 2.6,0.4 2.6,0.3 2.6,0.3 2.6,0.2 2.5,0.3 2.6,0.2 2.6,0.2 2.6,0.2 2.6,0.1 2.6,0.2 2.6,0.1 2.6,0.1 2.6,0.1 2.6,0 2.6,0.1 2.6,0 2.6,0.1 2.6,0 2.6,0 2.6,-0.1 2.6,0 2.6,0 2.5,-0.1 2.6,0 2.6,-0.1 2.6,-0.1 2.6,-0.1 2.6,-0.1 2.6,-0.1 2.6,-0.1 2.6,-0.1 2.6,-0.2 2.6,-0.1 2.6,-0.1 2.6,-0.2 2.6,-0.1 2.6,-0.2 2.6,-0.2 2.6,-0.1 2.6,-0.2 2.5,-0.2 2.6,-0.1 2.6,-0.2 2.6,-0.2 2.6,-0.2 2.6,-0.2 2.6,-0.2 2.6,-0.2 2.6,-0.2 2.6,-0.2 2.6,-0.2 2.6,-0.2 2.6,-0.2 2.6,-0.2 2.6,-0.2 2.6,-0.2 2.6,-0.2 2.6,-0.2 2.5,-0.2 2.6,-0.3 2.6,-0.2 2.6,-0.2 2.6,-0.2 2.6,-0.2 2.6,-0.3 2.6,-0.2 2.6,-0.2 2.6,-0.2 2.6,-0.2 2.6,-0.3 2.6,-0.2 2.6,-0.2 2.6,-0.2 2.6,-0.3 2.6,-0.2 2.6,-0.2 2.5,-0.2 2.6,-0.3 2.6,-0.2 2.6,-0.2 2.6,-0.2 2.6,-0.3 2.6,-0.2 2.6,-0.2 2.6,-0.2 2.6,-0.3 2.6,-0.2 2.6,-0.2 2.6,-0.3 2.6,-0.2 2.6,-0.2 2.6,-0.2 2.6,-0.3 2.6,-0.2 2.5,-0.2 2.6,-0.3 2.6,-0.2 2.6,-0.2 2.6,-0.2 2.6,-0.3 2.6,-0.2 2.6,-0.2 2.6,-0.3 2.6,-0.2 2.6,-0.2 2.6,-0.3 2.6,-0.2 2.6,-0.2 2.6,-0.2 2.6,-0.3 2.6,-0.2 2.6,-0.2 2.5,-0.3 2.6,-0.2 2.6,-0.2 2.6,-0.3 2.6,-0.2 2.6,-0.2 2.6,-0.2 2.6,-0.3 2.6,-0.2 2.6,-0.2 2.6,-0.3 2.6,-0.2 2.6,-0.2 2.6,-0.3 2.6,-0.2 2.6,-0.2 2.6,-0.3 2.6,-0.2 2.5,-0.2 2.6,-0.2 2.6,-0.3 2.6,-0.2 2.6,-0.2 2.6,-0.3 2.6,-0.2 2.6,-0.2 2.6,-0.3 2.6,-0.2 2.6,-0.2 2.6,-0.2 2.6,-0.3 2.6,-0.2 2.6,-0.2 2.6,-0.3 2.6,-0.2 2.6,-0.2 2.5,-0.3 2.6,-0.2 2.6,-0.2 2.6,-0.3 2.6,-0.2 2.6,-0.2 2.6,-0.2 2.6,-0.3 2.6,-0.2 2.6,-0.2 2.6,-0.3 2.6,-0.2 2.6,-0.2 2.6,-0.3 2.6,-0.2 2.6,-0.2 2.6,-0.3 2.6,-0.2 2.5,-0.2 2.6,-0.2 2.6,-0.3 2.6,-0.2 2.6,-0.2 2.6,-0.3 2.6,-0.2 2.6,-0.2 2.6,-0.3 2.6,-0.2 2.6,-0.2 2.6,-0.2 2.6,-0.3 2.6,-0.2 2.6,-0.2 2.6,-0.3 2.6,-0.2 2.6,-0.2 2.5,-0.3 2.6,-0.2 2.6,-0.2 2.6,-0.3 2.6,-0.2 2.6,-0.2 2.6,-0.2 2.6,-0.3 2.6,-0.2 2.6,-0.2 h 0.01"
           id="path3677"
           style="stroke:#000000;stroke-width:2;stroke-miterlimit:4;stroke-opacity:1;stroke-dasharray:none"
           inkscape:connector-curvature="0" />
      </g>
    </g>
    <g
       id="gnuplot_plot_6a">
      <title
         id="title3680">gnuplot_plot_6a</title>
      <g
         style="color:#ff0000;fill:none;stroke:currentColor;stroke-width:0.5;stroke-linecap:butt;stroke-linejoin:miter"
         id="g3682">
        <g
           transform="translate(87.6,86.3)"
           style="font-size:12.5px;text-anchor:end;fill:#000000;stroke:none"
           id="g3684">
          <text
             id="text3686"
             x="439.9863"
             y="238.12544"
             transform="matrix(0.99042428,-0.13805705,0.13805705,0.99042428,0,0)"
             style="font-size:12.5px">
            <tspan
               id="tspan3688">s = 1.3</tspan>
          </text>
        </g>
        <path
           d="m 42.8,302.2 2.6,0.4 2.6,0.3 2.6,0.4 2.6,0.3 2.6,0.3 2.6,0.2 2.6,0.3 2.6,0.2 2.6,0.2 2.5,0.1 2.6,0.2 2.6,0.1 2.6,0.1 2.6,0.1 2.6,0 2.6,0.1 2.6,0 2.6,0 2.6,0 2.6,-0.1 2.6,0 2.6,-0.1 2.6,-0.1 2.6,-0.1 2.6,-0.1 2.6,-0.1 2.6,-0.2 2.5,-0.1 2.6,-0.2 2.6,-0.2 2.6,-0.2 2.6,-0.1 2.6,-0.3 2.6,-0.2 2.6,-0.2 2.6,-0.2 2.6,-0.2 2.6,-0.3 2.6,-0.2 2.6,-0.3 2.6,-0.3 2.6,-0.2 2.6,-0.3 2.6,-0.3 2.6,-0.2 2.5,-0.3 2.6,-0.3 2.6,-0.3 2.6,-0.3 2.6,-0.3 2.6,-0.3 2.6,-0.3 2.6,-0.3 2.6,-0.3 2.6,-0.3 2.6,-0.4 2.6,-0.3 2.6,-0.3 2.6,-0.3 2.6,-0.3 2.6,-0.4 2.6,-0.3 2.6,-0.3 2.5,-0.3 2.6,-0.4 2.6,-0.3 2.6,-0.3 2.6,-0.4 2.6,-0.3 2.6,-0.3 2.6,-0.4 2.6,-0.3 2.6,-0.3 2.6,-0.4 2.6,-0.3 2.6,-0.4 2.6,-0.3 2.6,-0.3 2.6,-0.4 2.6,-0.3 2.6,-0.3 2.5,-0.4 2.6,-0.3 2.6,-0.4 2.6,-0.3 2.6,-0.4 2.6,-0.3 2.6,-0.3 2.6,-0.4 2.6,-0.3 2.6,-0.4 2.6,-0.3 2.6,-0.4 2.6,-0.3 2.6,-0.3 2.6,-0.4 2.6,-0.3 2.6,-0.4 2.6,-0.3 2.5,-0.4 2.6,-0.3 2.6,-0.3 2.6,-0.4 2.6,-0.3 2.6,-0.4 2.6,-0.3 2.6,-0.4 2.6,-0.3 2.6,-0.4 2.6,-0.3 2.6,-0.4 2.6,-0.3 2.6,-0.3 2.6,-0.4 2.6,-0.3 2.6,-0.4 2.6,-0.3 2.5,-0.4 2.6,-0.3 2.6,-0.4 2.6,-0.3 2.6,-0.4 2.6,-0.3 2.6,-0.3 2.6,-0.4 2.6,-0.3 2.6,-0.4 2.6,-0.3 2.6,-0.4 2.6,-0.3 2.6,-0.4 2.6,-0.3 2.6,-0.4 2.6,-0.3 2.6,-0.3 2.5,-0.4 2.6,-0.3 2.6,-0.4 2.6,-0.3 2.6,-0.4 2.6,-0.3 2.6,-0.4 2.6,-0.3 2.6,-0.4 2.6,-0.3 2.6,-0.3 2.6,-0.4 2.6,-0.3 2.6,-0.4 2.6,-0.3 2.6,-0.4 2.6,-0.3 2.6,-0.4 2.5,-0.3 2.6,-0.4 2.6,-0.3 2.6,-0.4 2.6,-0.3 2.6,-0.3 2.6,-0.4 2.6,-0.3 2.6,-0.4 2.6,-0.3 2.6,-0.4 2.6,-0.3 2.6,-0.4 2.6,-0.3 2.6,-0.4 2.6,-0.3 2.6,-0.3 2.6,-0.4 2.5,-0.3 2.6,-0.4 2.6,-0.3 2.6,-0.4 2.6,-0.3 2.6,-0.4 2.6,-0.3 2.6,-0.4 2.6,-0.3 2.6,-0.3 2.6,-0.4 2.6,-0.3 2.6,-0.4 2.6,-0.3 2.6,-0.4 2.6,-0.3 2.6,-0.4 2.6,-0.3 2.5,-0.4 2.6,-0.3 2.6,-0.4 2.6,-0.3 2.6,-0.3 2.6,-0.4 2.6,-0.3 2.6,-0.4 2.6,-0.3 2.6,-0.4 h 0.01"
           id="path3690"
           style="stroke:#000000;stroke-width:2;stroke-miterlimit:4;stroke-opacity:1;stroke-dasharray:none"
           inkscape:connector-curvature="0" />
      </g>
    </g>
    <g
       id="gnuplot_plot_7a">
      <title
         id="title3693">gnuplot_plot_7a</title>
      <g
         style="color:#ff0000;fill:none;stroke:currentColor;stroke-width:0.5;stroke-linecap:butt;stroke-linejoin:miter"
         id="g3695">
        <g
           transform="translate(87.6,98.3)"
           style="font-size:12.5px;text-anchor:end;fill:#000000;stroke:none"
           id="g3697">
          <text
             id="text3699"
             x="435.41498"
             y="221.78247"
             transform="matrix(0.98347603,-0.1810384,0.1810384,0.98347603,0,0)"
             style="font-size:12.5px">
            <tspan
               id="tspan3701">s = 1.4</tspan>
          </text>
        </g>
        <path
           d="m 42.8,301 2.6,0.4 2.6,0.3 2.6,0.2 2.6,0.3 2.6,0.2 2.6,0.2 2.6,0.2 2.6,0.1 2.6,0.1 2.5,0.1 2.6,0.1 2.6,0 2.6,0 2.6,0 2.6,0 2.6,-0.1 2.6,0 2.6,-0.1 2.6,-0.1 2.6,-0.2 2.6,-0.1 2.6,-0.2 2.6,-0.2 2.6,-0.1 2.6,-0.3 2.6,-0.2 2.6,-0.2 2.5,-0.3 2.6,-0.2 2.6,-0.3 2.6,-0.3 2.6,-0.3 2.6,-0.3 2.6,-0.3 2.6,-0.4 2.6,-0.3 2.6,-0.3 2.6,-0.4 2.6,-0.3 2.6,-0.4 2.6,-0.4 2.6,-0.4 2.6,-0.3 2.6,-0.4 2.6,-0.4 2.5,-0.4 2.6,-0.4 2.6,-0.4 2.6,-0.4 2.6,-0.4 2.6,-0.4 2.6,-0.5 2.6,-0.4 2.6,-0.4 2.6,-0.4 2.6,-0.5 2.6,-0.4 2.6,-0.4 2.6,-0.4 2.6,-0.5 2.6,-0.4 2.6,-0.5 2.6,-0.4 2.5,-0.4 2.6,-0.5 2.6,-0.4 2.6,-0.5 2.6,-0.4 2.6,-0.5 2.6,-0.4 2.6,-0.5 2.6,-0.4 2.6,-0.5 2.6,-0.4 2.6,-0.5 2.6,-0.4 2.6,-0.5 2.6,-0.4 2.6,-0.5 2.6,-0.4 2.6,-0.5 2.5,-0.4 2.6,-0.5 2.6,-0.5 2.6,-0.4 2.6,-0.5 2.6,-0.4 2.6,-0.5 2.6,-0.4 2.6,-0.5 2.6,-0.5 2.6,-0.4 2.6,-0.5 2.6,-0.4 2.6,-0.5 2.6,-0.5 2.6,-0.4 2.6,-0.5 2.6,-0.4 2.5,-0.5 2.6,-0.4 2.6,-0.5 2.6,-0.5 2.6,-0.4 2.6,-0.5 2.6,-0.4 2.6,-0.5 2.6,-0.5 2.6,-0.4 2.6,-0.5 2.6,-0.4 2.6,-0.5 2.6,-0.5 2.6,-0.4 2.6,-0.5 2.6,-0.5 2.6,-0.4 2.5,-0.5 2.6,-0.4 2.6,-0.5 2.6,-0.5 2.6,-0.4 2.6,-0.5 2.6,-0.4 2.6,-0.5 2.6,-0.5 2.6,-0.4 2.6,-0.5 2.6,-0.4 2.6,-0.5 2.6,-0.5 2.6,-0.4 2.6,-0.5 2.6,-0.4 2.6,-0.5 2.5,-0.5 2.6,-0.4 2.6,-0.5 2.6,-0.4 2.6,-0.5 2.6,-0.5 2.6,-0.4 2.6,-0.5 2.6,-0.5 2.6,-0.4 2.6,-0.5 2.6,-0.4 2.6,-0.5 2.6,-0.5 2.6,-0.4 2.6,-0.5 2.6,-0.4 2.6,-0.5 2.5,-0.5 2.6,-0.4 2.6,-0.5 2.6,-0.4 2.6,-0.5 2.6,-0.5 2.6,-0.4 2.6,-0.5 2.6,-0.5 2.6,-0.4 2.6,-0.5 2.6,-0.4 2.6,-0.5 2.6,-0.5 2.6,-0.4 2.6,-0.5 2.6,-0.4 2.6,-0.5 2.5,-0.5 2.6,-0.4 2.6,-0.5 2.6,-0.4 2.6,-0.5 2.6,-0.5 2.6,-0.4 2.6,-0.5 2.6,-0.5 2.6,-0.4 2.6,-0.5 2.6,-0.4 2.6,-0.5 2.6,-0.5 2.6,-0.4 2.6,-0.5 2.6,-0.4 2.6,-0.5 2.5,-0.5 2.6,-0.4 2.6,-0.5 2.6,-0.4 2.6,-0.5 2.6,-0.5 2.6,-0.4 2.6,-0.5 2.6,-0.5 2.6,-0.4 h 0.01"
           id="path3703"
           style="stroke:#000000;stroke-width:2;stroke-miterlimit:4;stroke-opacity:1;stroke-dasharray:none"
           inkscape:connector-curvature="0" />
      </g>
    </g>
    <g
       id="gnuplot_plot_8a">
      <title
         id="title3706">gnuplot_plot_8a</title>
      <g
         style="color:#ff0000;fill:none;stroke:currentColor;stroke-width:0.5;stroke-linecap:butt;stroke-linejoin:miter"
         id="g3708">
        <g
           transform="translate(87.6,110.3)"
           style="font-size:12.5px;text-anchor:end;fill:#000000;stroke:none"
           id="g3710">
          <text
             id="text3712"
             x="435.21124"
             y="203.25842"
             transform="matrix(0.97666315,-0.21477682,0.21477682,0.97666315,0,0)"
             style="font-size:12.5px">
            <tspan
               id="tspan3714">s = 1.5</tspan>
          </text>
        </g>
        <path
           d="m 42.8,299.9 2.6,0.3 2.6,0.2 2.6,0.2 2.6,0.2 2.6,0.1 2.6,0.2 2.6,0.1 2.6,0 2.6,0.1 2.5,0 2.6,0 2.6,-0.1 2.6,0 2.6,-0.1 2.6,-0.1 2.6,-0.2 2.6,-0.1 2.6,-0.2 2.6,-0.2 2.6,-0.2 2.6,-0.3 2.6,-0.2 2.6,-0.3 2.6,-0.3 2.6,-0.3 2.6,-0.3 2.6,-0.4 2.5,-0.3 2.6,-0.4 2.6,-0.4 2.6,-0.4 2.6,-0.4 2.6,-0.4 2.6,-0.4 2.6,-0.4 2.6,-0.5 2.6,-0.4 2.6,-0.5 2.6,-0.4 2.6,-0.5 2.6,-0.5 2.6,-0.5 2.6,-0.5 2.6,-0.5 2.6,-0.5 2.5,-0.5 2.6,-0.5 2.6,-0.5 2.6,-0.5 2.6,-0.5 2.6,-0.6 2.6,-0.5 2.6,-0.5 2.6,-0.6 2.6,-0.5 2.6,-0.5 2.6,-0.6 2.6,-0.5 2.6,-0.6 2.6,-0.5 2.6,-0.6 2.6,-0.5 2.6,-0.6 2.5,-0.5 2.6,-0.6 2.6,-0.6 2.6,-0.5 2.6,-0.6 2.6,-0.5 2.6,-0.6 2.6,-0.6 2.6,-0.5 2.6,-0.6 2.6,-0.6 2.6,-0.5 2.6,-0.6 2.6,-0.6 2.6,-0.5 2.6,-0.6 2.6,-0.6 2.6,-0.5 2.5,-0.6 2.6,-0.6 2.6,-0.5 2.6,-0.6 2.6,-0.6 2.6,-0.6 2.6,-0.5 2.6,-0.6 2.6,-0.6 2.6,-0.6 2.6,-0.5 2.6,-0.6 2.6,-0.6 2.6,-0.5 2.6,-0.6 2.6,-0.6 2.6,-0.6 2.6,-0.5 2.5,-0.6 2.6,-0.6 2.6,-0.6 2.6,-0.5 2.6,-0.6 2.6,-0.6 2.6,-0.6 2.6,-0.5 2.6,-0.6 2.6,-0.6 2.6,-0.6 2.6,-0.5 2.6,-0.6 2.6,-0.6 2.6,-0.6 2.6,-0.5 2.6,-0.6 2.6,-0.6 2.5,-0.6 2.6,-0.5 2.6,-0.6 2.6,-0.6 2.6,-0.6 2.6,-0.6 2.6,-0.5 2.6,-0.6 2.6,-0.6 2.6,-0.6 2.6,-0.5 2.6,-0.6 2.6,-0.6 2.6,-0.6 2.6,-0.5 2.6,-0.6 2.6,-0.6 2.6,-0.6 2.5,-0.5 2.6,-0.6 2.6,-0.6 2.6,-0.6 2.6,-0.5 2.6,-0.6 2.6,-0.6 2.6,-0.6 2.6,-0.6 2.6,-0.5 2.6,-0.6 2.6,-0.6 2.6,-0.6 2.6,-0.5 2.6,-0.6 2.6,-0.6 2.6,-0.6 2.6,-0.5 2.5,-0.6 2.6,-0.6 2.6,-0.6 2.6,-0.5 2.6,-0.6 2.6,-0.6 2.6,-0.6 2.6,-0.5 2.6,-0.6 2.6,-0.6 2.6,-0.6 2.6,-0.6 2.6,-0.5 2.6,-0.6 2.6,-0.6 2.6,-0.6 2.6,-0.5 2.6,-0.6 2.5,-0.6 2.6,-0.6 2.6,-0.5 2.6,-0.6 2.6,-0.6 2.6,-0.6 2.6,-0.5 2.6,-0.6 2.6,-0.6 2.6,-0.6 2.6,-0.6 2.6,-0.5 2.6,-0.6 2.6,-0.6 2.6,-0.6 2.6,-0.5 2.6,-0.6 2.6,-0.6 2.5,-0.6 2.6,-0.5 2.6,-0.6 2.6,-0.6 2.6,-0.6 2.6,-0.5 2.6,-0.6 2.6,-0.6 2.6,-0.6 2.6,-0.6 h 0.01"
           id="path3716"
           style="stroke:#000000;stroke-width:2;stroke-miterlimit:4;stroke-opacity:1;stroke-dasharray:none"
           inkscape:connector-curvature="0" />
      </g>
    </g>
    <g
       id="gnuplot_plot_9a">
      <title
         id="title3719">gnuplot_plot_9a</title>
      <g
         style="color:#ff0000;fill:none;stroke:currentColor;stroke-width:0.5;stroke-linecap:butt;stroke-linejoin:miter"
         id="g3721">
        <g
           transform="translate(87.6,122.3)"
           style="font-size:12.5px;text-anchor:end;fill:#000000;stroke:none"
           id="g3723">
          <text
             id="text3725"
             x="433.0174"
             y="191.85068"
             transform="matrix(0.96418662,-0.26522472,0.26522472,0.96418662,0,0)"
             style="font-size:12.5px">
            <tspan
               id="tspan3727">s = 1.6</tspan>
          </text>
        </g>
        <path
           d="m 42.8,298.7 2.6,0.2 2.6,0.2 2.6,0.2 2.6,0.1 2.6,0.1 2.6,0 2.6,0.1 2.6,0 2.6,-0.1 2.5,0 2.6,-0.1 2.6,-0.1 2.6,-0.2 2.6,-0.2 2.6,-0.2 2.6,-0.2 2.6,-0.2 2.6,-0.3 2.6,-0.3 2.6,-0.3 2.6,-0.3 2.6,-0.4 2.6,-0.4 2.6,-0.4 2.6,-0.4 2.6,-0.4 2.6,-0.4 2.5,-0.5 2.6,-0.4 2.6,-0.5 2.6,-0.5 2.6,-0.5 2.6,-0.5 2.6,-0.6 2.6,-0.5 2.6,-0.6 2.6,-0.5 2.6,-0.6 2.6,-0.5 2.6,-0.6 2.6,-0.6 2.6,-0.6 2.6,-0.6 2.6,-0.6 2.6,-0.6 2.5,-0.6 2.6,-0.7 2.6,-0.6 2.6,-0.6 2.6,-0.7 2.6,-0.6 2.6,-0.6 2.6,-0.7 2.6,-0.6 2.6,-0.7 2.6,-0.6 2.6,-0.7 2.6,-0.6 2.6,-0.7 2.6,-0.7 2.6,-0.6 2.6,-0.7 2.6,-0.7 2.5,-0.6 2.6,-0.7 2.6,-0.7 2.6,-0.6 2.6,-0.7 2.6,-0.7 2.6,-0.7 2.6,-0.7 2.6,-0.6 2.6,-0.7 2.6,-0.7 2.6,-0.7 2.6,-0.7 2.6,-0.6 2.6,-0.7 2.6,-0.7 2.6,-0.7 2.6,-0.7 2.5,-0.7 2.6,-0.6 2.6,-0.7 2.6,-0.7 2.6,-0.7 2.6,-0.7 2.6,-0.7 2.6,-0.7 2.6,-0.7 2.6,-0.6 2.6,-0.7 2.6,-0.7 2.6,-0.7 2.6,-0.7 2.6,-0.7 2.6,-0.7 2.6,-0.7 2.6,-0.7 2.5,-0.6 2.6,-0.7 2.6,-0.7 2.6,-0.7 2.6,-0.7 2.6,-0.7 2.6,-0.7 2.6,-0.7 2.6,-0.7 2.6,-0.7 2.6,-0.6 2.6,-0.7 2.6,-0.7 2.6,-0.7 2.6,-0.7 2.6,-0.7 2.6,-0.7 2.6,-0.7 2.5,-0.7 2.6,-0.7 2.6,-0.7 2.6,-0.6 2.6,-0.7 2.6,-0.7 2.6,-0.7 2.6,-0.7 2.6,-0.7 2.6,-0.7 2.6,-0.7 2.6,-0.7 2.6,-0.7 2.6,-0.7 2.6,-0.7 2.6,-0.6 2.6,-0.7 2.6,-0.7 2.5,-0.7 2.6,-0.7 2.6,-0.7 2.6,-0.7 2.6,-0.7 2.6,-0.7 2.6,-0.7 2.6,-0.7 2.6,-0.7 2.6,-0.6 2.6,-0.7 2.6,-0.7 2.6,-0.7 2.6,-0.7 2.6,-0.7 2.6,-0.7 2.6,-0.7 2.6,-0.7 2.5,-0.7 2.6,-0.7 2.6,-0.6 2.6,-0.7 2.6,-0.7 2.6,-0.7 2.6,-0.7 2.6,-0.7 2.6,-0.7 2.6,-0.7 2.6,-0.7 2.6,-0.7 2.6,-0.7 2.6,-0.7 2.6,-0.6 2.6,-0.7 2.6,-0.7 2.6,-0.7 2.5,-0.7 2.6,-0.7 2.6,-0.7 2.6,-0.7 2.6,-0.7 2.6,-0.7 2.6,-0.7 2.6,-0.7 2.6,-0.6 2.6,-0.7 2.6,-0.7 2.6,-0.7 2.6,-0.7 2.6,-0.7 2.6,-0.7 2.6,-0.7 2.6,-0.7 2.6,-0.7 2.5,-0.7 2.6,-0.7 2.6,-0.6 2.6,-0.7 2.6,-0.7 2.6,-0.7 2.6,-0.7 2.6,-0.7 2.6,-0.7 2.6,-0.7 h 0.01"
           id="path3729"
           style="stroke:#000000;stroke-width:2;stroke-miterlimit:4;stroke-opacity:1;stroke-dasharray:none"
           inkscape:connector-curvature="0" />
      </g>
    </g>
    <g
       id="gnuplot_plot_10a">
      <title
         id="title3732">gnuplot_plot_10a</title>
      <g
         style="color:#ff0000;fill:none;stroke:currentColor;stroke-width:0.5;stroke-linecap:butt;stroke-linejoin:miter"
         id="g3734">
        <g
           transform="translate(87.6,134.3)"
           style="font-size:12.5px;text-anchor:end;fill:#000000;stroke:none"
           id="g3736">
          <text
             id="text3738"
             x="434.854"
             y="178.29877"
             transform="matrix(0.95080623,-0.30978624,0.30978624,0.95080623,0,0)"
             style="font-size:12.5px">
            <tspan
               id="tspan3740">s = 1.7</tspan>
          </text>
        </g>
        <path
           d="m 42.8,297.6 2.6,0.1 2.6,0.2 2.6,0 2.6,0.1 2.6,0 2.6,0 2.6,0 2.6,-0.1 2.6,-0.1 2.5,-0.2 2.6,-0.1 2.6,-0.2 2.6,-0.3 2.6,-0.2 2.6,-0.3 2.6,-0.3 2.6,-0.3 2.6,-0.4 2.6,-0.4 2.6,-0.4 2.6,-0.4 2.6,-0.5 2.6,-0.4 2.6,-0.5 2.6,-0.5 2.6,-0.5 2.6,-0.6 2.5,-0.5 2.6,-0.6 2.6,-0.6 2.6,-0.6 2.6,-0.6 2.6,-0.6 2.6,-0.6 2.6,-0.7 2.6,-0.6 2.6,-0.7 2.6,-0.7 2.6,-0.7 2.6,-0.6 2.6,-0.7 2.6,-0.7 2.6,-0.7 2.6,-0.8 2.6,-0.7 2.5,-0.7 2.6,-0.7 2.6,-0.8 2.6,-0.7 2.6,-0.8 2.6,-0.7 2.6,-0.8 2.6,-0.7 2.6,-0.8 2.6,-0.8 2.6,-0.7 2.6,-0.8 2.6,-0.8 2.6,-0.7 2.6,-0.8 2.6,-0.8 2.6,-0.8 2.6,-0.7 2.5,-0.8 2.6,-0.8 2.6,-0.8 2.6,-0.8 2.6,-0.8 2.6,-0.8 2.6,-0.8 2.6,-0.8 2.6,-0.7 2.6,-0.8 2.6,-0.8 2.6,-0.8 2.6,-0.8 2.6,-0.8 2.6,-0.8 2.6,-0.8 2.6,-0.8 2.6,-0.8 2.5,-0.8 2.6,-0.8 2.6,-0.8 2.6,-0.8 2.6,-0.8 2.6,-0.8 2.6,-0.8 2.6,-0.8 2.6,-0.8 2.6,-0.8 2.6,-0.8 2.6,-0.8 2.6,-0.8 2.6,-0.9 2.6,-0.8 2.6,-0.8 2.6,-0.8 2.6,-0.8 2.5,-0.8 2.6,-0.8 2.6,-0.8 2.6,-0.8 2.6,-0.8 2.6,-0.8 2.6,-0.8 2.6,-0.8 2.6,-0.8 2.6,-0.8 2.6,-0.8 2.6,-0.8 2.6,-0.8 2.6,-0.8 2.6,-0.9 2.6,-0.8 2.6,-0.8 2.6,-0.8 2.5,-0.8 2.6,-0.8 2.6,-0.8 2.6,-0.8 2.6,-0.8 2.6,-0.8 2.6,-0.8 2.6,-0.8 2.6,-0.8 2.6,-0.8 2.6,-0.8 2.6,-0.8 2.6,-0.9 2.6,-0.8 2.6,-0.8 2.6,-0.8 2.6,-0.8 2.6,-0.8 2.5,-0.8 2.6,-0.8 2.6,-0.8 2.6,-0.8 2.6,-0.8 2.6,-0.8 2.6,-0.8 2.6,-0.8 2.6,-0.8 2.6,-0.9 2.6,-0.8 2.6,-0.8 2.6,-0.8 2.6,-0.8 2.6,-0.8 2.6,-0.8 2.6,-0.8 2.6,-0.8 2.5,-0.8 2.6,-0.8 2.6,-0.8 2.6,-0.8 2.6,-0.8 2.6,-0.9 2.6,-0.8 2.6,-0.8 2.6,-0.8 2.6,-0.8 2.6,-0.8 2.6,-0.8 2.6,-0.8 2.6,-0.8 2.6,-0.8 2.6,-0.8 2.6,-0.8 2.6,-0.8 2.5,-0.8 2.6,-0.8 2.6,-0.9 2.6,-0.8 2.6,-0.8 2.6,-0.8 2.6,-0.8 2.6,-0.8 2.6,-0.8 2.6,-0.8 2.6,-0.8 2.6,-0.8 2.6,-0.8 2.6,-0.8 2.6,-0.8 2.6,-0.8 2.6,-0.9 2.6,-0.8 2.5,-0.8 2.6,-0.8 2.6,-0.8 2.6,-0.8 2.6,-0.8 2.6,-0.8 2.6,-0.8 2.6,-0.8 2.6,-0.8 2.6,-0.8 h 0.01"
           id="path3742"
           style="stroke:#000000;stroke-width:2;stroke-miterlimit:4;stroke-opacity:1;stroke-dasharray:none"
           inkscape:connector-curvature="0" />
      </g>
    </g>
    <g
       id="gnuplot_plot_11a">
      <title
         id="title3745">gnuplot_plot_11a</title>
      <g
         style="color:#ff0000;fill:none;stroke:currentColor;stroke-width:0.5;stroke-linecap:butt;stroke-linejoin:miter"
         id="g3747">
        <g
           transform="translate(87.6,146.3)"
           style="font-size:12.5px;text-anchor:end;fill:#000000;stroke:none"
           id="g3749">
          <text
             id="text3751"
             x="440.86371"
             y="158.31067"
             transform="matrix(0.94160802,-0.33671106,0.33671106,0.94160802,0,0)"
             style="font-size:12.5px">
            <tspan
               id="tspan3753">s = 1.8</tspan>
          </text>
        </g>
        <path
           d="m 42.8,296.4 2.6,0.1 2.6,0.1 2.6,0 2.6,0 2.6,0 2.6,-0.1 2.6,-0.1 2.6,-0.2 2.6,-0.2 2.5,-0.2 2.6,-0.2 2.6,-0.3 2.6,-0.3 2.6,-0.4 2.6,-0.3 2.6,-0.4 2.6,-0.4 2.6,-0.5 2.6,-0.5 2.6,-0.5 2.6,-0.5 2.6,-0.5 2.6,-0.6 2.6,-0.6 2.6,-0.6 2.6,-0.6 2.6,-0.6 2.5,-0.7 2.6,-0.6 2.6,-0.7 2.6,-0.7 2.6,-0.7 2.6,-0.8 2.6,-0.7 2.6,-0.8 2.6,-0.7 2.6,-0.8 2.6,-0.8 2.6,-0.8 2.6,-0.7 2.6,-0.9 2.6,-0.8 2.6,-0.8 2.6,-0.8 2.6,-0.8 2.5,-0.9 2.6,-0.8 2.6,-0.9 2.6,-0.8 2.6,-0.9 2.6,-0.8 2.6,-0.9 2.6,-0.9 2.6,-0.9 2.6,-0.8 2.6,-0.9 2.6,-0.9 2.6,-0.9 2.6,-0.9 2.6,-0.8 2.6,-0.9 2.6,-0.9 2.6,-0.9 2.5,-0.9 2.6,-0.9 2.6,-0.9 2.6,-0.9 2.6,-0.9 2.6,-0.9 2.6,-0.9 2.6,-0.9 2.6,-1 2.6,-0.9 2.6,-0.9 2.6,-0.9 2.6,-0.9 2.6,-0.9 2.6,-0.9 2.6,-0.9 2.6,-0.9 2.6,-1 2.5,-0.9 2.6,-0.9 2.6,-0.9 2.6,-0.9 2.6,-0.9 2.6,-1 2.6,-0.9 2.6,-0.9 2.6,-0.9 2.6,-0.9 2.6,-0.9 2.6,-1 2.6,-0.9 2.6,-0.9 2.6,-0.9 2.6,-0.9 2.6,-1 2.6,-0.9 2.5,-0.9 2.6,-0.9 2.6,-0.9 2.6,-1 2.6,-0.9 2.6,-0.9 2.6,-0.9 2.6,-0.9 2.6,-1 2.6,-0.9 2.6,-0.9 2.6,-0.9 2.6,-1 2.6,-0.9 2.6,-0.9 2.6,-0.9 2.6,-0.9 2.6,-1 2.5,-0.9 2.6,-0.9 2.6,-0.9 2.6,-0.9 2.6,-1 2.6,-0.9 2.6,-0.9 2.6,-0.9 2.6,-1 2.6,-0.9 2.6,-0.9 2.6,-0.9 2.6,-0.9 2.6,-1 2.6,-0.9 2.6,-0.9 2.6,-0.9 2.6,-1 2.5,-0.9 2.6,-0.9 2.6,-0.9 2.6,-0.9 2.6,-1 2.6,-0.9 2.6,-0.9 2.6,-0.9 2.6,-0.9 2.6,-1 2.6,-0.9 2.6,-0.9 2.6,-0.9 2.6,-1 2.6,-0.9 2.6,-0.9 2.6,-0.9 2.6,-0.9 2.5,-1 2.6,-0.9 2.6,-0.9 2.6,-0.9 2.6,-1 2.6,-0.9 2.6,-0.9 2.6,-0.9 2.6,-0.9 2.6,-1 2.6,-0.9 2.6,-0.9 2.6,-0.9 2.6,-1 2.6,-0.9 2.6,-0.9 2.6,-0.9 2.6,-0.9 2.5,-1 2.6,-0.9 2.6,-0.9 2.6,-0.9 2.6,-1 2.6,-0.9 2.6,-0.9 2.6,-0.9 2.6,-0.9 2.6,-1 2.6,-0.9 2.6,-0.9 2.6,-0.9 2.6,-1 2.6,-0.9 2.6,-0.9 2.6,-0.9 2.6,-0.9 2.5,-1 2.6,-0.9 2.6,-0.9 2.6,-0.9 2.6,-1 2.6,-0.9 2.6,-0.9 2.6,-0.9 2.6,-0.9 2.6,-1 h 0.01"
           id="path3755"
           style="stroke:#000000;stroke-width:2;stroke-miterlimit:4;stroke-opacity:1;stroke-dasharray:none"
           inkscape:connector-curvature="0" />
      </g>
    </g>
    <g
       id="gnuplot_plot_12a">
      <title
         id="title3758">gnuplot_plot_12a</title>
      <g
         style="color:#ff0000;fill:none;stroke:currentColor;stroke-width:0.5;stroke-linecap:butt;stroke-linejoin:miter"
         id="g3760">
        <g
           transform="translate(87.6,158.3)"
           style="font-size:12.5px;text-anchor:end;fill:#000000;stroke:none"
           id="g3762">
          <text
             id="text3764"
             x="445.78671"
             y="147.99719"
             transform="matrix(0.9231493,-0.38444163,0.38444163,0.9231493,0,0)"
             style="font-size:12.5px">
            <tspan
               id="tspan3766">s = 1.9</tspan>
          </text>
        </g>
        <path
           d="m 42.8,295.3 2.6,0 2.6,0 2.6,0 2.6,-0.1 2.6,-0.1 2.6,-0.2 2.6,-0.1 2.6,-0.3 2.6,-0.2 2.5,-0.3 2.6,-0.3 2.6,-0.4 2.6,-0.4 2.6,-0.4 2.6,-0.5 2.6,-0.4 2.6,-0.5 2.6,-0.6 2.6,-0.5 2.6,-0.6 2.6,-0.6 2.6,-0.7 2.6,-0.6 2.6,-0.7 2.6,-0.7 2.6,-0.7 2.6,-0.8 2.5,-0.7 2.6,-0.8 2.6,-0.8 2.6,-0.8 2.6,-0.8 2.6,-0.8 2.6,-0.9 2.6,-0.8 2.6,-0.9 2.6,-0.9 2.6,-0.9 2.6,-0.9 2.6,-0.9 2.6,-0.9 2.6,-0.9 2.6,-0.9 2.6,-1 2.6,-0.9 2.5,-0.9 2.6,-1 2.6,-1 2.6,-0.9 2.6,-1 2.6,-1 2.6,-0.9 2.6,-1 2.6,-1 2.6,-1 2.6,-1 2.6,-1 2.6,-1 2.6,-1 2.6,-1 2.6,-1 2.6,-1 2.6,-1 2.5,-1 2.6,-1 2.6,-1 2.6,-1.1 2.6,-1 2.6,-1 2.6,-1 2.6,-1 2.6,-1.1 2.6,-1 2.6,-1 2.6,-1 2.6,-1.1 2.6,-1 2.6,-1 2.6,-1 2.6,-1.1 2.6,-1 2.5,-1 2.6,-1.1 2.6,-1 2.6,-1 2.6,-1.1 2.6,-1 2.6,-1 2.6,-1.1 2.6,-1 2.6,-1 2.6,-1.1 2.6,-1 2.6,-1 2.6,-1.1 2.6,-1 2.6,-1 2.6,-1.1 2.6,-1 2.5,-1 2.6,-1.1 2.6,-1 2.6,-1 2.6,-1.1 2.6,-1 2.6,-1 2.6,-1.1 2.6,-1 2.6,-1.1 2.6,-1 2.6,-1 2.6,-1.1 2.6,-1 2.6,-1 2.6,-1.1 2.6,-1 2.6,-1 2.5,-1.1 2.6,-1 2.6,-1.1 2.6,-1 2.6,-1 2.6,-1.1 2.6,-1 2.6,-1 2.6,-1.1 2.6,-1 2.6,-1.1 2.6,-1 2.6,-1 2.6,-1.1 2.6,-1 2.6,-1 2.6,-1.1 2.6,-1 2.5,-1 2.6,-1.1 2.6,-1 2.6,-1.1 2.6,-1 2.6,-1 2.6,-1.1 2.6,-1 2.6,-1 2.6,-1.1 2.6,-1 2.6,-1.1 2.6,-1 2.6,-1 2.6,-1.1 2.6,-1 2.6,-1 2.6,-1.1 2.5,-1 2.6,-1.1 2.6,-1 2.6,-1 2.6,-1.1 2.6,-1 2.6,-1 2.6,-1.1 2.6,-1 2.6,-1.1 2.6,-1 2.6,-1 2.6,-1.1 2.6,-1 2.6,-1 2.6,-1.1 2.6,-1 2.6,-1.1 2.5,-1 2.6,-1 2.6,-1.1 2.6,-1 2.6,-1 2.6,-1.1 2.6,-1 2.6,-1.1 2.6,-1 2.6,-1 2.6,-1.1 2.6,-1 2.6,-1 2.6,-1.1 2.6,-1 2.6,-1.1 2.6,-1 2.6,-1 2.5,-1.1 2.6,-1 2.6,-1 2.6,-1.1 2.6,-1 2.6,-1.1 2.6,-1 2.6,-1 2.6,-1.1 2.6,-1 h 0.01"
           id="path3768"
           style="stroke:#000000;stroke-width:2;stroke-miterlimit:4;stroke-opacity:1;stroke-dasharray:none"
           inkscape:connector-curvature="0" />
      </g>
    </g>
    <g
       id="gnuplot_plot_13a">
      <title
         id="title3771">gnuplot_plot_13a</title>
      <g
         style="color:#ff0000;fill:none;stroke:currentColor;stroke-width:0.5;stroke-linecap:butt;stroke-linejoin:miter"
         id="g3773">
        <g
           transform="translate(87.6,170.3)"
           style="font-size:12.5px;text-anchor:end;fill:#000000;stroke:none"
           id="g3775">
          <text
             id="text3777"
             x="452.17456"
             y="141.74879"
             transform="matrix(0.90039671,-0.43506985,0.43506985,0.90039671,0,0)"
             style="font-size:12.5px">
            <tspan
               id="tspan3779">s = 2</tspan>
          </text>
        </g>
        <path
           d="m 42.8,294.1 2.6,0 2.6,-0.1 2.6,-0.1 2.6,-0.1 2.6,-0.2 2.6,-0.2 2.6,-0.2 2.6,-0.3 2.6,-0.4 2.5,-0.3 2.6,-0.4 2.6,-0.5 2.6,-0.4 2.6,-0.6 2.6,-0.5 2.6,-0.6 2.6,-0.6 2.6,-0.6 2.6,-0.6 2.6,-0.7 2.6,-0.7 2.6,-0.7 2.6,-0.8 2.6,-0.8 2.6,-0.8 2.6,-0.8 2.6,-0.8 2.5,-0.9 2.6,-0.8 2.6,-0.9 2.6,-0.9 2.6,-1 2.6,-0.9 2.6,-0.9 2.6,-1 2.6,-1 2.6,-1 2.6,-1 2.6,-1 2.6,-1 2.6,-1 2.6,-1 2.6,-1.1 2.6,-1 2.6,-1.1 2.5,-1 2.6,-1.1 2.6,-1.1 2.6,-1 2.6,-1.1 2.6,-1.1 2.6,-1.1 2.6,-1.1 2.6,-1.1 2.6,-1.1 2.6,-1.1 2.6,-1.1 2.6,-1.1 2.6,-1.1 2.6,-1.1 2.6,-1.1 2.6,-1.2 2.6,-1.1 2.5,-1.1 2.6,-1.1 2.6,-1.2 2.6,-1.1 2.6,-1.1 2.6,-1.2 2.6,-1.1 2.6,-1.1 2.6,-1.2 2.6,-1.1 2.6,-1.2 2.6,-1.1 2.6,-1.1 2.6,-1.2 2.6,-1.1 2.6,-1.2 2.6,-1.1 2.6,-1.1 2.5,-1.2 2.6,-1.1 2.6,-1.2 2.6,-1.1 2.6,-1.2 2.6,-1.1 2.6,-1.2 2.6,-1.1 2.6,-1.2 2.6,-1.1 2.6,-1.2 2.6,-1.1 2.6,-1.2 2.6,-1.1 2.6,-1.2 2.6,-1.1 2.6,-1.2 2.6,-1.1 2.5,-1.2 2.6,-1.1 2.6,-1.2 2.6,-1.1 2.6,-1.2 2.6,-1.1 2.6,-1.2 2.6,-1.1 2.6,-1.2 2.6,-1.1 2.6,-1.2 2.6,-1.1 2.6,-1.2 2.6,-1.1 2.6,-1.2 2.6,-1.1 2.6,-1.2 2.6,-1.1 2.5,-1.2 2.6,-1.1 2.6,-1.2 2.6,-1.1 2.6,-1.2 2.6,-1.1 2.6,-1.2 2.6,-1.1 2.6,-1.2 2.6,-1.2 2.6,-1.1 2.6,-1.2 2.6,-1.1 2.6,-1.2 2.6,-1.1 2.6,-1.2 2.6,-1.1 2.6,-1.2 2.5,-1.1 2.6,-1.2 2.6,-1.1 2.6,-1.2 2.6,-1.1 2.6,-1.2 2.6,-1.1 2.6,-1.2 2.6,-1.1 2.6,-1.2 2.6,-1.2 2.6,-1.1 2.6,-1.2 2.6,-1.1 2.6,-1.2 2.6,-1.1 2.6,-1.2 2.6,-1.1 2.5,-1.2 2.6,-1.1 2.6,-1.2 2.6,-1.1 2.6,-1.2 2.6,-1.1 2.6,-1.2 2.6,-1.1 2.6,-1.2 2.6,-1.1 2.6,-1.2 2.6,-1.1 2.6,-1.2 2.6,-1.2 2.6,-1.1 2.6,-1.2 2.6,-1.1 2.6,-1.2 2.5,-1.1 2.6,-1.2 2.6,-1.1 2.6,-1.2 2.6,-1.1 2.6,-1.2 2.6,-1.1 2.6,-1.2 2.6,-1.1 2.6,-1.2 2.6,-1.1 2.6,-1.2 2.6,-1.2 2.6,-1.1 2.6,-1.2 2.6,-1.1 2.6,-1.2 2.6,-1.1 2.5,-1.2 2.6,-1.1 2.6,-1.2 2.6,-1.1 2.6,-1.2 2.6,-1.1 2.6,-1.2 2.6,-1.1 2.6,-1.2 2.6,-1.1 h 0.01"
           id="path3781"
           style="stroke:#000000;stroke-width:2;stroke-miterlimit:4;stroke-opacity:1;stroke-dasharray:none"
           inkscape:connector-curvature="0" />
      </g>
    </g>
    <g
       style="color:#000000;fill:none;stroke:currentColor;stroke-width:0.5;stroke-linecap:butt;stroke-linejoin:miter"
       id="g3783" />
  </g>
</svg>
