<?xml version="1.0" encoding="UTF-8" standalone="no"?>
<svg
   xmlns:dc="http://purl.org/dc/elements/1.1/"
   xmlns:cc="http://creativecommons.org/ns#"
   xmlns:rdf="http://www.w3.org/1999/02/22-rdf-syntax-ns#"
   xmlns:svg="http://www.w3.org/2000/svg"
   xmlns="http://www.w3.org/2000/svg"
   xmlns:xlink="http://www.w3.org/1999/xlink"
   xmlns:sodipodi="http://sodipodi.sourceforge.net/DTD/sodipodi-0.dtd"
   xmlns:inkscape="http://www.inkscape.org/namespaces/inkscape"
   viewBox="0 0 595.38133 436.28112"
   id="svg2985"
   version="1.1"
   inkscape:version="0.48.4 r9939"
   width="100%"
   height="100%"
   sodipodi:docname="newrelarion_s1_1.svg">
  <metadata
     id="metadata3338">
    <rdf:RDF>
      <cc:Work
         rdf:about="">
        <dc:format>image/svg+xml</dc:format>
        <dc:type
           rdf:resource="http://purl.org/dc/dcmitype/StillImage" />
        <dc:title>Gnuplot</dc:title>
      </cc:Work>
    </rdf:RDF>
  </metadata>
  <defs
     id="defs3336">
    <inkscape:path-effect
       effect="spiro"
       id="path-effect4588"
       is_visible="true" />
    <marker
       inkscape:stockid="SquareS"
       orient="auto"
       refY="0"
       refX="0"
       id="SquareS"
       style="overflow:visible">
      <path
         id="path4378"
         d="M -5,-5 -5,5 5,5 5,-5 -5,-5 z"
         style="fill-rule:evenodd;stroke:#000000;stroke-width:1pt"
         transform="scale(0.2,0.2)"
         inkscape:connector-curvature="0" />
    </marker>
  </defs>
  <sodipodi:namedview
     pagecolor="#ffffff"
     bordercolor="#666666"
     borderopacity="1"
     objecttolerance="10"
     gridtolerance="10"
     guidetolerance="10"
     inkscape:pageopacity="0"
     inkscape:pageshadow="2"
     inkscape:window-width="1308"
     inkscape:window-height="768"
     id="namedview3334"
     showgrid="false"
     fit-margin-top="0"
     fit-margin-left="0"
     fit-margin-right="0"
     fit-margin-bottom="0"
     inkscape:zoom="1.3611111"
     inkscape:cx="301.69066"
     inkscape:cy="161.50561"
     inkscape:window-x="0"
     inkscape:window-y="0"
     inkscape:window-maximized="0"
     inkscape:current-layer="svg2985" />
  <title
     id="title2987">Gnuplot</title>
  <desc
     id="desc2989">Produced by GNUPLOT 4.6 patchlevel 1 </desc>
  <g
     id="gnuplot_canvas"
     transform="translate(19.381317,0)">
    <rect
       x="0"
       y="0"
       width="576"
       height="432"
       id="rect2992"
       style="fill:none" />
    <defs
       id="defs2994">
      <circle
         id="gpDot"
         r="0.5"
         cx="0"
         cy="0"
         sodipodi:cx="0"
         sodipodi:cy="0"
         sodipodi:rx="0.5"
         sodipodi:ry="0.5"
         style="stroke-width:0.5" />
      <path
         id="gpPt0"
         d="M -1,0 H 1 M 0,-1 v 2"
         inkscape:connector-curvature="0"
         style="stroke:currentColor;stroke-width:0.333" />
      <path
         id="gpPt1"
         d="M -1,-1 1,1 M 1,-1 -1,1"
         inkscape:connector-curvature="0"
         style="stroke:currentColor;stroke-width:0.333" />
      <path
         id="gpPt2"
         d="M -1,0 1,0 M 0,-1 0,1 m -1,-2 2,2 m -2,0 2,-2"
         inkscape:connector-curvature="0"
         style="stroke:currentColor;stroke-width:0.333" />
      <rect
         id="gpPt3"
         x="-1"
         y="-1"
         width="2"
         height="2"
         style="stroke:currentColor;stroke-width:0.333" />
      <rect
         id="gpPt4"
         x="-1"
         y="-1"
         width="2"
         height="2"
         style="fill:currentColor;stroke:currentColor;stroke-width:0.333" />
      <circle
         id="gpPt5"
         cx="0"
         cy="0"
         r="1"
         sodipodi:cx="0"
         sodipodi:cy="0"
         sodipodi:rx="1"
         sodipodi:ry="1"
         style="stroke:currentColor;stroke-width:0.333" />
      <use
         xlink:href="#gpPt5"
         id="gpPt6"
         style="fill:currentColor;stroke:none"
         x="0"
         y="0"
         width="576"
         height="432" />
      <path
         id="gpPt7"
         d="m 0,-1.33 -1.33,2 2.66,0 z"
         inkscape:connector-curvature="0"
         style="stroke:currentColor;stroke-width:0.333" />
      <use
         xlink:href="#gpPt7"
         id="gpPt8"
         style="fill:currentColor;stroke:none"
         x="0"
         y="0"
         width="576"
         height="432" />
      <use
         xlink:href="#gpPt7"
         id="gpPt9"
         transform="scale(-1,-1)"
         style="stroke:currentColor"
         x="0"
         y="0"
         width="576"
         height="432" />
      <use
         xlink:href="#gpPt9"
         id="gpPt10"
         style="fill:currentColor;stroke:none"
         x="0"
         y="0"
         width="576"
         height="432" />
      <use
         xlink:href="#gpPt3"
         id="gpPt11"
         transform="matrix(0.70710678,0.70710678,-0.70710678,0.70710678,0,0)"
         style="stroke:currentColor"
         x="0"
         y="0"
         width="576"
         height="432" />
      <use
         xlink:href="#gpPt11"
         id="gpPt12"
         style="fill:currentColor;stroke:none"
         x="0"
         y="0"
         width="576"
         height="432" />
    </defs>
    <g
       style="color:#ffffff;fill:none;stroke:currentColor;stroke-width:1;stroke-linecap:butt;stroke-linejoin:miter"
       id="g3010" />
    <g
       style="color:#000000;fill:none;stroke:currentColor;stroke-width:1;stroke-linecap:butt;stroke-linejoin:miter"
       id="g3012">
      <g
         style="stroke:none"
         id="g3014">
        <polygon
           points="559,36.2 42.8,36.2 42.8,393.6 559,393.6 "
           id="polygon3016"
           style="fill:#ffffff" />
      </g>
      <path
         d="m 42.8,393.6 0,-357.4 516.2,0 0,357.4 -516.2,0 h 0.01"
         id="path3018"
         inkscape:connector-curvature="0"
         style="stroke:#000000" />
    </g>
    <g
       style="color:#000000;fill:none;stroke:#000000;stroke-width:0.5;stroke-linecap:butt;stroke-linejoin:miter"
       id="g3020">
      <path
         d="m 42.8,393.6 8.4,0 m 507.9,0 -8.4,0 h 0.01"
         id="path3022"
         inkscape:connector-curvature="0" />
      <g
         transform="translate(37.2,396.6)"
         style="font-size:12.5px;text-anchor:end;fill:#000000;stroke:none"
         id="g3024">
        <text
           id="text3026">
          <tspan
             id="tspan3028">10</tspan>
          <tspan
             font-size="8.0pt"
             dy="-6.25"
             id="tspan3030"
             style="font-size:10px">-8</tspan>
          <tspan
             font-size="10.0pt"
             dy="6.25"
             id="tspan3032"
             style="font-size:12.5px" />
        </text>
      </g>
      <path
         d="m 42.8,348.9 8.4,0 m 507.9,0 -8.4,0 h 0.01"
         id="path3034"
         style="stroke-width:2;stroke-miterlimit:4;stroke-dasharray:none"
         inkscape:connector-curvature="0" />
      <g
         transform="translate(37.2,351.9)"
         style="font-size:12.5px;text-anchor:end;fill:#000000;stroke:none"
         id="g3036">
        <text
           id="text3038">
          <tspan
             id="tspan3040">10</tspan>
          <tspan
             font-size="8.0pt"
             dy="-6.25"
             id="tspan3042"
             style="font-size:10px">-7</tspan>
          <tspan
             font-size="10.0pt"
             dy="6.25"
             id="tspan3044"
             style="font-size:12.5px" />
        </text>
      </g>
      <path
         d="m 42.8,304.2 8.4,0 m 507.9,0 -8.4,0 h 0.01"
         id="path3046"
         style="stroke-width:2;stroke-miterlimit:4;stroke-dasharray:none"
         inkscape:connector-curvature="0" />
      <g
         transform="translate(37.2,307.2)"
         style="font-size:12.5px;text-anchor:end;fill:#000000;stroke:none"
         id="g3048">
        <text
           id="text3050">
          <tspan
             id="tspan3052">10</tspan>
          <tspan
             font-size="8.0pt"
             dy="-6.25"
             id="tspan3054"
             style="font-size:10px">-6</tspan>
          <tspan
             font-size="10.0pt"
             dy="6.25"
             id="tspan3056"
             style="font-size:12.5px" />
        </text>
      </g>
      <path
         d="m 42.8,259.5 8.4,0 m 507.9,0 -8.4,0 h 0.01"
         id="path3058"
         style="stroke-width:2;stroke-miterlimit:4;stroke-dasharray:none"
         inkscape:connector-curvature="0" />
      <g
         transform="translate(37.2,262.5)"
         style="font-size:12.5px;text-anchor:end;fill:#000000;stroke:none"
         id="g3060">
        <text
           id="text3062">
          <tspan
             id="tspan3064">10</tspan>
          <tspan
             font-size="8.0pt"
             dy="-6.25"
             id="tspan3066"
             style="font-size:10px">-5</tspan>
          <tspan
             font-size="10.0pt"
             dy="6.25"
             id="tspan3068"
             style="font-size:12.5px" />
        </text>
      </g>
      <path
         d="m 42.8,214.8 8.4,0 m 507.9,0 -8.4,0 h 0.01"
         id="path3070"
         style="stroke-width:2;stroke-miterlimit:4;stroke-dasharray:none"
         inkscape:connector-curvature="0" />
      <g
         transform="translate(37.2,217.8)"
         style="font-size:12.5px;text-anchor:end;fill:#000000;stroke:none"
         id="g3072">
        <text
           id="text3074">
          <tspan
             id="tspan3076">10</tspan>
          <tspan
             font-size="8.0pt"
             dy="-6.25"
             id="tspan3078"
             style="font-size:10px">-4</tspan>
          <tspan
             font-size="10.0pt"
             dy="6.25"
             id="tspan3080"
             style="font-size:12.5px" />
        </text>
      </g>
      <path
         d="m 42.8,170.2 8.4,0 m 507.9,0 -8.4,0 h 0.01"
         id="path3082"
         style="stroke-width:2;stroke-miterlimit:4;stroke-dasharray:none"
         inkscape:connector-curvature="0" />
      <g
         transform="translate(37.2,173.2)"
         style="font-size:12.5px;text-anchor:end;fill:#000000;stroke:none"
         id="g3084">
        <text
           id="text3086">
          <tspan
             id="tspan3088">10</tspan>
          <tspan
             font-size="8.0pt"
             dy="-6.25"
             id="tspan3090"
             style="font-size:10px">-3</tspan>
          <tspan
             font-size="10.0pt"
             dy="6.25"
             id="tspan3092"
             style="font-size:12.5px" />
        </text>
      </g>
      <path
         d="m 42.8,125.5 8.4,0 m 507.9,0 -8.4,0 h 0.01"
         id="path3094"
         style="stroke-width:2;stroke-miterlimit:4;stroke-dasharray:none"
         inkscape:connector-curvature="0" />
      <g
         transform="translate(37.2,128.5)"
         style="font-size:12.5px;text-anchor:end;fill:#000000;stroke:none"
         id="g3096">
        <text
           id="text3098">
          <tspan
             id="tspan3100">10</tspan>
          <tspan
             font-size="8.0pt"
             dy="-6.25"
             id="tspan3102"
             style="font-size:10px">-2</tspan>
          <tspan
             font-size="10.0pt"
             dy="6.25"
             id="tspan3104"
             style="font-size:12.5px" />
        </text>
      </g>
      <path
         d="m 42.8,80.8 8.4,0 m 507.9,0 -8.4,0 h 0.01"
         id="path3106"
         style="stroke-width:2;stroke-miterlimit:4;stroke-dasharray:none"
         inkscape:connector-curvature="0" />
      <g
         transform="translate(37.2,83.8)"
         style="font-size:12.5px;text-anchor:end;fill:#000000;stroke:none"
         id="g3108">
        <text
           id="text3110">
          <tspan
             id="tspan3112">10</tspan>
          <tspan
             font-size="8.0pt"
             dy="-6.25"
             id="tspan3114"
             style="font-size:10px">-1</tspan>
          <tspan
             font-size="10.0pt"
             dy="6.25"
             id="tspan3116"
             style="font-size:12.5px" />
        </text>
      </g>
      <path
         d="m 42.8,36.1 8.4,0 m 507.9,0 -8.4,0 h 0.01"
         id="path3118"
         inkscape:connector-curvature="0" />
      <g
         transform="translate(37.2,39.1)"
         style="font-size:12.5px;text-anchor:end;fill:#000000;stroke:none"
         id="g3120">
        <text
           id="text3122">
          <tspan
             id="tspan3124">10</tspan>
          <tspan
             font-size="8.0pt"
             dy="-6.25"
             id="tspan3126"
             style="font-size:10px">0</tspan>
          <tspan
             font-size="10.0pt"
             dy="6.25"
             id="tspan3128"
             style="font-size:12.5px" />
        </text>
      </g>
      <path
         d="m 42.8,393.6 0,-8.4 m 0,-349.1 0,8.4 h 0.01"
         id="path3130"
         inkscape:connector-curvature="0" />
      <g
         transform="translate(42.8,408.6)"
         style="font-size:12.5px;text-anchor:middle;fill:#000000;stroke:none"
         id="g3132">
        <text
           id="text3134">
          <tspan
             id="tspan3136">10</tspan>
          <tspan
             font-size="8.0pt"
             dy="-6.25"
             id="tspan3138"
             style="font-size:10px">0</tspan>
          <tspan
             font-size="10.0pt"
             dy="6.25"
             id="tspan3140"
             style="font-size:12.5px" />
        </text>
      </g>
      <path
         d="m 128.9,393.6 0,-8.4 m 0,-349.1 0,8.4 h 0.01"
         id="path3142"
         style="stroke-width:2;stroke-miterlimit:4;stroke-dasharray:none"
         inkscape:connector-curvature="0" />
      <g
         transform="translate(128.9,408.6)"
         style="font-size:12.5px;text-anchor:middle;fill:#000000;stroke:none"
         id="g3144">
        <text
           id="text3146">
          <tspan
             id="tspan3148">10</tspan>
          <tspan
             font-size="8.0pt"
             dy="-6.25"
             id="tspan3150"
             style="font-size:10px">1</tspan>
          <tspan
             font-size="10.0pt"
             dy="6.25"
             id="tspan3152"
             style="font-size:12.5px" />
        </text>
      </g>
      <path
         d="m 214.9,393.6 0,-8.4 m 0,-349.1 0,8.4 h 0.01"
         id="path3154"
         style="stroke-width:2;stroke-miterlimit:4;stroke-dasharray:none"
         inkscape:connector-curvature="0" />
      <g
         transform="translate(214.9,408.6)"
         style="font-size:12.5px;text-anchor:middle;fill:#000000;stroke:none"
         id="g3156">
        <text
           id="text3158">
          <tspan
             id="tspan3160">10</tspan>
          <tspan
             font-size="8.0pt"
             dy="-6.25"
             id="tspan3162"
             style="font-size:10px">2</tspan>
          <tspan
             font-size="10.0pt"
             dy="6.25"
             id="tspan3164"
             style="font-size:12.5px" />
        </text>
      </g>
      <path
         d="m 301,393.6 0,-8.4 m 0,-349.1 0,8.4 h 0.01"
         id="path3166"
         style="stroke-width:2;stroke-miterlimit:4;stroke-dasharray:none"
         inkscape:connector-curvature="0" />
      <g
         transform="translate(301,408.6)"
         style="font-size:12.5px;text-anchor:middle;fill:#000000;stroke:none"
         id="g3168">
        <text
           id="text3170">
          <tspan
             id="tspan3172">10</tspan>
          <tspan
             font-size="8.0pt"
             dy="-6.25"
             id="tspan3174"
             style="font-size:10px">3</tspan>
          <tspan
             font-size="10.0pt"
             dy="6.25"
             id="tspan3176"
             style="font-size:12.5px" />
        </text>
      </g>
      <path
         d="m 387,393.6 0,-8.4 m 0,-349.1 0,8.4 h 0.01"
         id="path3178"
         style="stroke-width:2;stroke-miterlimit:4;stroke-dasharray:none"
         inkscape:connector-curvature="0" />
      <g
         transform="translate(387,408.6)"
         style="font-size:12.5px;text-anchor:middle;fill:#000000;stroke:none"
         id="g3180">
        <text
           id="text3182">
          <tspan
             id="tspan3184">10</tspan>
          <tspan
             font-size="8.0pt"
             dy="-6.25"
             id="tspan3186"
             style="font-size:10px">4</tspan>
          <tspan
             font-size="10.0pt"
             dy="6.25"
             id="tspan3188"
             style="font-size:12.5px" />
        </text>
      </g>
      <path
         d="m 473.1,393.6 0,-8.4 m 0,-349.1 0,8.4 h 0.01"
         id="path3190"
         style="stroke-width:2;stroke-miterlimit:4;stroke-dasharray:none"
         inkscape:connector-curvature="0" />
      <g
         transform="translate(473.1,408.6)"
         style="font-size:12.5px;text-anchor:middle;fill:#000000;stroke:none"
         id="g3192">
        <text
           id="text3194">
          <tspan
             id="tspan3196">10</tspan>
          <tspan
             font-size="8.0pt"
             dy="-6.25"
             id="tspan3198"
             style="font-size:10px">5</tspan>
          <tspan
             font-size="10.0pt"
             dy="6.25"
             id="tspan3200"
             style="font-size:12.5px" />
        </text>
      </g>
      <path
         d="m 559.1,393.6 0,-8.4 m 0,-349.1 0,8.4 h 0.01"
         id="path3202"
         inkscape:connector-curvature="0" />
      <g
         transform="translate(559.1,408.6)"
         style="font-size:12.5px;text-anchor:middle;fill:#000000;stroke:none"
         id="g3204">
        <text
           id="text3206">
          <tspan
             id="tspan3208">10</tspan>
          <tspan
             font-size="8.0pt"
             dy="-6.25"
             id="tspan3210"
             style="font-size:10px">6</tspan>
          <tspan
             font-size="10.0pt"
             dy="6.25"
             id="tspan3212"
             style="font-size:12.5px" />
        </text>
      </g>
      <path
         d="m 42.8,36.1 0,357.5 516.3,0 0,-357.5 -516.3,0 z m 0,0 h 0.01"
         id="path3214"
         style="stroke-width:2;stroke-miterlimit:4;stroke-dasharray:none"
         inkscape:connector-curvature="0" />
      <g
         transform="matrix(0,-1,1,0,11.8,214.9)"
         style="font-size:12.5px;text-anchor:middle;fill:#000000;stroke:none"
         id="g3216">
        <text
           id="text3218"
           x="0.26229644"
           y="-15.405283"
           style="font-size:20.76435471px">
          <tspan
             id="tspan3220">f(k)</tspan>
        </text>
      </g>
      <g
         transform="translate(300.9,426.6)"
         style="font-size:12.5px;text-anchor:middle;fill:#000000;stroke:none"
         id="g3222">
        <text
           id="text3224"
           x="-0.42110467"
           y="9.6811171"
           style="font-size:22.19013977px">
          <tspan
             id="tspan3226">k</tspan>
        </text>
      </g>
      <g
         transform="translate(300.9,21.1)"
         style="font-size:12.5px;text-anchor:middle;fill:#000000;stroke:none"
         id="g3228" />
    </g>
    <g
       id="gnuplot_plot_1a">
      <title
         id="title3235">gnuplot_plot_1a</title>
      <g
         style="color:#ff0000;fill:none;stroke:currentColor;stroke-width:0.5;stroke-linecap:butt;stroke-linejoin:miter"
         id="g3237">
        <g
           transform="translate(513.9,51.1)"
           style="font-size:12.5px;text-anchor:end;fill:#000000;stroke:none"
           id="g3239" />
        <path
           style="stroke:#040000;stroke-width:2;stroke-miterlimit:4;stroke-opacity:1;stroke-dasharray:none"
           d="m 42.8,76.6 25.9,14.8 15.2,8.7 10.7,6.1 8.3,4.8 6.9,3.9 5.7,3.3 5,2.8 4.4,2.5 4,2.3 3.5,2 3.3,1.9 3,1.7 2.7,1.6 2.6,1.4 2.4,1.4 2.3,1.3 2.1,1.2 2,1.2 2,1.1 1.8,1 1.7,1 1.7,1 1.6,0.9 1.5,0.8 1.5,0.9 1.4,0.8 1.3,0.8 1.3,0.7 1.3,0.7 1.2,0.7 1.2,0.7 1.2,0.7 1.1,0.6 1.1,0.6 1,0.6 1,0.6 1,0.6 1,0.5 1,0.6 0.9,0.5 0.9,0.5 0.9,0.5 0.8,0.5 0.9,0.5 0.8,0.5 0.8,0.4 0.8,0.5 0.7,0.4 0.8,0.4 0.7,0.5 0.8,0.4 0.7,0.4 0.7,0.4 0.7,0.4 0.6,0.4 0.7,0.3 0.6,0.4 0.7,0.4 0.6,0.3 0.6,0.4 0.6,0.3 0.6,0.4 0.6,0.3 0.6,0.3 0.6,0.4 0.5,0.3 0.6,0.3 0.5,0.3 0.6,0.3 0.5,0.3 0.5,0.3 0.5,0.3 0.5,0.3 0.5,0.3 0.5,0.3 0.5,0.3 0.5,0.2 0.5,0.3 0.5,0.3 0.4,0.2 0.5,0.3 0.4,0.3 0.5,0.2 0.4,0.3 0.5,0.2 0.4,0.3 0.4,0.2 0.4,0.3 0.5,0.2 0.4,0.2 0.4,0.3 0.4,0.2 0.4,0.2 0.4,0.2 0.4,0.3 0.4,0.2 0.3,0.2 0.4,0.2 0.4,0.2 0.4,0.3 0.3,0.2 0.4,0.2 0.4,0.2 0.3,0.2 0.4,0.2 0.3,0.2 0.4,0.2 0.3,0.2 0.4,0.2 0.3,0.2 0.3,0.2 0.4,0.2 0.3,0.1 0.3,0.2 0.3,0.2 0.4,0.2 0.3,0.2 0.3,0.2 0.3,0.1 0.3,0.2 0.3,0.2 0.3,0.2 0.3,0.1 0.3,0.2 0.3,0.2 0.3,0.1 0.3,0.2 0.3,0.2 0.3,0.1 0.3,0.2 0.3,0.2 0.3,0.1 0.2,0.2 0.3,0.2 0.3,0.1 0.3,0.2 0.2,0.1 0.3,0.2 0.3,0.1 0.2,0.2 0.3,0.1 0.3,0.2 0.2,0.1 0.3,0.2 0.2,0.1 0.3,0.2 0.3,0.1 0.2,0.2 0.3,0.1 0.2,0.1 0.2,0.2 0.3,0.1 0.2,0.2 0.3,0.1 0.2,0.1 0.3,0.2 0.2,0.1 0.2,0.1 0.3,0.2 0.2,0.1 0.2,0.1 0.3,0.2 0.2,0.1 0.2,0.1 0.2,0.2 0.3,0.1 0.2,0.1 0.2,0.1 0.2,0.2 0.2,0.1 0.3,0.1 0.2,0.1 0.2,0.2 0.2,0.1 0.2,0.1 0.2,0.1 0.2,0.2 0.3,0.1 0.2,0.1 0.2,0.1 0.2,0.1 0.2,0.1 0.2,0.2 0.2,0.1 0.2,0.1 0.2,0.1 0.2,0.1 0.2,0.1 0.2,0.1 0.2,0.2 0.2,0.1 0.2,0.1 0.2,0.1 0.2,0.1 0.1,0.1 0.2,0.1 0.2,0.1 0.2,0.1 0.2,0.1 0.2,0.1 0.2,0.2 0.2,0.1 0.1,0.1 0.2,0.1 0.2,0.1 0.2,0.1 0.2,0.1 0.1,0.1 0.2,0.1 0.2,0.1 0.2,0.1 0.2,0.1 0.1,0.1 0.2,0.1 0.2,0.1 0.2,0.1 0.1,0.1 0.2,0.1 0.2,0.1 0.1,0.1 0.2,0.1 0.2,0.1 0.1,0.1 0.2,0.1 0.2,0.1 0.1,0 0.2,0.1 0.2,0.1 0.1,0.1 0.2,0.1 0.2,0.1 0.1,0.1 0.2,0.1 0.1,0.1 0.2,0.1 0.1,0.1 0.2,0.1 0.2,0 0.1,0.1 0.2,0.1 0.1,0.1 0.2,0.1 0.1,0.1 0.2,0.1 0.1,0.1 0.2,0 0.1,0.1 0.2,0.1 0.1,0.1 0.2,0.1 0.1,0.1 0.2,0.1 0.1,0 0.2,0.1 0.1,0.1 0.2,0.1 0.1,0.1 0.2,0.1 0.1,0 0.2,0.1 0.1,0.1 0.1,0.1 0.2,0.1 0.1,0 0.2,0.1 0.1,0.1 0.1,0.1 0.2,0.1 0.1,0 0.2,0.1 0.1,0.1 0.1,0.1 0.2,0.1 0.1,0 0.1,0.1 0.2,0.1 0.1,0.1 0.1,0 0.2,0.1 0.1,0.1 0.1,0.1 0.2,0.1 0.1,0 0.1,0.1 0.2,0.1 0.1,0.1 0.1,0 0.2,0.1 0.1,0.1 0.1,0 0.1,0.1 0.2,0.1 0.1,0.1 0.1,0 0.2,0.1 0.1,0.1 0.1,0.1 0.1,0 0.2,0.1 0.1,0.1 0.1,0 0.1,0.1 0.2,0.1 0.1,0.1 0.1,0 0.1,0.1 0.1,0.1 0.2,0 0.1,0.1 0.1,0.1 0.1,0 0.1,0.1 0.2,0.1 0.1,0 0.1,0.1 0.1,0.1 0.1,0 0.2,0.1 0.1,0.1 0.1,0 0.1,0.1 0.1,0.1 0.1,0 0.1,0.1 0.2,0.1 0.1,0 0.1,0.1 0.1,0.1 0.1,0 0.1,0.1 0.1,0.1 0.2,0 0.1,0.1 0.1,0.1 0.1,0 0.1,0.1 0.1,0 0.1,0.1 0.1,0.1 0.1,0 0.2,0.1 0.1,0.1 0.1,0 0.1,0.1 0.1,0 0.1,0.1 0.1,0.1 0.1,0 0.1,0.1 0.1,0 0.1,0.1 0.1,0.1 0.1,0 0.1,0.1 0.2,0.1 0.1,0 0.1,0.1 0.1,0 0.1,0.1 0.1,0 0.1,0.1 0.1,0.1 0.1,0 0.1,0.1 0.1,0 0.1,0.1 0.1,0.1 0.1,0 0.1,0.1 0.1,0 0.1,0.1 0.1,0 0.1,0.1 0.1,0.1 0.1,0 0.1,0.1 0.1,0 0.1,0.1 0.1,0 0.1,0.1 0.1,0.1 0.1,0 0.1,0.1 0.1,0 0.1,0.1 0.1,0 0.1,0.1 0.1,0 0.1,0.1 0.1,0.1 0.1,0 0,0.1 0.1,0 0.1,0.1 0.1,0 0.1,0.1 0.1,0 0.1,0.1 0.1,0 0.1,0.1 0.1,0 0.1,0.1 0.1,0.1 0.1,0 0.1,0.1 0.1,0 0,0.1 0.1,0 0.1,0.1 0.1,0 0.1,0.1 0.1,0 0.1,0.1 0.1,0 0.1,0.1 0.1,0 0.1,0.1 0.1,0.1 0.1,0 0.1,0.1 0.1,0 0.1,0.1 0.1,0 0.1,0.1 0.1,0.1 0.1,0 0.1,0.1 0.1,0 0.1,0.1 0.1,0 0.1,0.1 0.1,0.1 0.1,0 0.1,0.1 0.1,0 0.1,0.1 0.1,0 0,0.1 0.1,0 0.1,0.1 0.1,0 0.1,0.1 0.1,0 0,0.1 0.1,0 0.1,0.1 0.1,0 0.1,0 0.1,0.1 0.1,0.1 0.1,0 0.1,0.1 0.1,0 0,0.1 0.1,0 0.1,0.1 0.1,0 0.1,0.1 0.1,0 0,0.1 0.1,0 0.1,0 0.1,0.1 0.1,0 0,0.1 0.1,0 0.1,0.1 0.1,0 0.1,0.1 0.1,0.1 0.1,0 0.1,0 0,0.1 0.1,0 0.1,0.1 0.1,0 0.1,0.1 0.1,0.1 0.1,0 0.1,0 0,0.1 0.1,0 0.1,0.1 0.1,0 0,0.1 0.1,0 0.1,0 0.1,0.1 0.1,0.1 0.1,0 0.1,0.1 0.1,0 0.1,0.1 0.1,0 0,0.1 0.1,0 0.1,0.1 0.1,0 0.1,0.1 0.1,0 0.1,0.1 0.1,0.1 0.1,0 0.1,0 0,0.1 0.1,0 0.1,0.1 0.1,0 0.1,0.1 0.1,0 0,0.1 0.1,0 0.1,0 0,0.1 0.1,0 0.1,0.1 0.1,0 0.1,0.1 0.1,0 0,0.1 0.1,0 0.1,0 0,0.1 0.1,0 0.1,0.1 0.1,0 0.1,0.1 0.1,0 0,0.1 0.1,0 0.1,0 0,0.1 0.1,0 0.1,0.1 0.1,0 0.1,0.1 0.1,0.1 0.1,0 0.1,0.1 0.1,0 0.1,0.1 0.1,0 0,0.1 0.1,0 0.1,0 0,0.1 0.1,0 0.1,0.1 0.1,0 0.1,0.1 0.1,0 0.1,0.1 0.1,0 0.1,0.1 0.1,0.1 0.1,0 0.1,0.1 0.1,0 0.1,0.1 0.1,0.1 0.1,0 0.1,0.1 0.1,0 0.1,0.1 0.1,0 0.1,0.1 0.1,0.1 0.1,0 0.1,0.1 0.1,0 0.1,0.1 0.1,0 0.1,0.1 0.1,0 0.1,0.1 0.1,0 0,0.1 0.1,0 0.1,0.1 0.1,0 0,0.1 0.1,0 0.1,0 0,0.1 0.1,0 0.1,0.1 0.1,0 0.1,0.1 0.1,0 0.1,0.1 0.1,0 0,0.1 0.1,0 0.1,0 0,0.1 0.1,0 0.1,0.1 0.1,0 0.1,0.1 0.1,0 0,0.1 0.1,0 0.1,0 0,0.1 0.1,0 0.1,0.1 0.1,0 0.1,0.1 0.1,0 0,0.1 0.1,0 0.1,0 0,0.1 0.1,0 0.1,0.1 0.1,0 0,0.1 0.1,0 0.1,0 0,0.1 0.1,0 0.1,0.1 0.1,0 0.1,0 0,0.1 0.1,0 0.1,0.1 0.1,0 0,0.1 0.1,0 0.1,0.1 0.1,0 0.1,0.1 0.1,0 0.1,0.1 0.1,0 0,0.1 0.1,0 0.1,0 0,0.1 0.1,0 0.1,0.1 0.1,0 0.1,0.1 0.1,0 0,0.1 0.1,0 0.1,0.1 0.1,0 0.1,0 0,0.1 0.1,0 0.1,0.1 0.1,0 0,0.1 0.1,0 0.1,0 0,0.1 0.1,0 0.1,0.1 0.1,0 0,0.1 0.1,0 0.1,0 0,0.1 0.1,0 0.1,0.1 0.1,0 0.1,0.1 0.1,0 0,0.1 0.1,0 0.1,0 0,0.1 0.1,0 0.1,0.1 0.1,0 0.1,0.1 0.1,0 0,0.1 0.1,0 0.1,0 0,0.1 0.1,0 0.1,0.1 0.1,0 0.1,0.1 0.1,0 0.1,0.1 0.1,0 0,0.1 0.1,0 0.1,0 0,0.1 0.1,0 0.1,0.1 0.1,0 0.1,0.1 0.1,0 0,0.1 0.1,0 0.1,0 0,0.1 0.1,0 0.1,0.1 0.1,0 0.1,0.1 0.1,0 0,0.1 0.1,0 0.1,0 0,0.1 0.1,0 0.1,0.1 0.1,0 0.1,0.1 0.1,0 0,0.1 0.1,0 0.1,0 0,0.1 0.1,0 0.1,0 0,0.1 0.1,0 0.1,0.1 0.1,0 0,0.1 0.1,0 0.1,0.1 0.1,0 0.1,0.1 0.1,0 0,0.1 0.1,0 0.1,0 0,0.1 0.1,0 0.1,0 0,0.1 0.1,0 0.1,0.1 0.1,0 0,0.1 0.1,0 0.1,0 0,0.1 0.1,0 0.1,0.1 0.1,0 0.1,0.1 0.1,0 0.1,0.1 0.1,0 0,0.1 0.1,0 0.1,0 0,0.1 0.1,0 0.1,0.1 0.1,0 0,0.1 0.1,0 0.1,0 0,0.1 0.1,0 0.1,0 0,0.1 0.1,0 0.1,0.1 0.1,0 0,0.1 0.1,0 0.1,0 0,0.1 0.1,0 0.1,0 0,0.1 0.1,0 0.1,0.1 0.1,0 0,0.1 0.1,0 0.1,0 0,0.1 0.1,0 0.1,0 0,0.1 0.1,0 0.1,0 0,0.1 0.1,0 0.1,0.1 0.1,0 0,0.1 0.1,0 0.1,0 0,0.1 0.1,0 0.1,0.1 0.1,0 0.1,0.1 0.1,0 0,0.1 0.1,0 0.1,0 0,0.1 0.1,0 0.1,0 0,0.1 0.1,0 0,0.1 0.1,0 0.1,0 0,0.1 0.1,0 0.1,0.1 0.1,0 0.1,0.1 0.1,0 0.1,0.1 0.1,0 0,0.1 0.1,0 0.1,0 0,0.1 0.1,0 0.1,0.1 0.1,0 0.1,0.1 0.1,0 0,0.1 0.1,0 0.1,0 0,0.1 0.1,0 0.1,0.1 0.1,0 0.1,0.1 0.1,0 0,0.1 0.1,0 0.1,0 0,0.1 0.1,0 0.1,0 0,0.1 0.1,0 0.1,0.1 0.1,0 0,0.1 0.1,0 0.1,0 0,0.1 0.1,0 0.1,0 0,0.1 0.1,0 0.1,0.1 0.1,0 0,0.1 0.1,0 0.1,0 0,0.1 0.1,0 0.1,0.1 0.1,0 0,0.1 0.1,0 0.1,0 0,0.1 0.1,0 0.1,0 0,0.1 0.1,0 0.1,0 0,0.1 0.1,0 0.1,0.1 0.1,0 0,0.1 0.1,0 0.1,0 0,0.1 0.1,0 0.1,0.1 0.1,0 0,0.1 0.1,0 0.1,0 0,0.1 0.1,0 0.1,0 0,0.1 0.1,0 0.1,0.1 0.1,0 0.1,0.1 0.1,0 0,0.1 0.1,0 0.1,0 0,0.1 0.1,0 0.1,0.1 0.1,0 0.1,0.1 0.1,0 0,0.1 0.1,0 0.1,0 0,0.1 0.1,0 0.1,0 0,0.1 0.1,0 0,0.1 0.1,0 0.1,0 0,0.1 0.1,0 0.1,0 0,0.1 0.1,0 0.1,0.1 0.1,0 0,0.1 0.1,0 0.1,0 0,0.1 0.1,0 0.1,0 0,0.1 0.1,0 0.1,0 0,0.1 0.1,0 0.1,0.1 0.1,0 0,0.1 0.1,0 0.1,0 0,0.1 0.1,0 0.1,0.1 0.1,0 0,0.1 0.1,0 0.1,0 0,0.1 0.1,0 0.1,0 0,0.1 0.1,0 0.1,0.1 0.1,0 0,0.1 0.1,0 0.1,0 0,0.1 0.1,0 0.1,0 0,0.1 0.1,0 0.1,0 0,0.1 0.1,0 0.1,0.1 0.1,0 0,0.1 0.1,0 0.1,0 0,0.1 0.1,0 0.1,0 0,0.1 0.1,0 0,0.1 0.1,0 0.1,0 0,0.1 0.1,0 0.1,0 0,0.1 0.1,0 0.1,0.1 0.1,0 0.1,0.1 0.1,0 0,0.1 0.1,0 0.1,0 0,0.1 0.1,0 0.1,0.1 0.1,0 0.1,0.1 0.1,0 0,0.1 0.1,0 0.1,0 0,0.1 0.1,0 0.1,0 0,0.1 0.1,0 0,0.1 0.1,0 0.1,0 0,0.1 0.1,0 0.1,0 0,0.1 0.1,0 0.1,0 0,0.1 0.1,0 0,0.1 0.1,0 0.1,0 0,0.1 0.1,0 0.1,0 0,0.1 0.1,0 0.1,0 0,0.1 0.1,0 0.1,0.1 0.1,0 0,0.1 0.1,0 0.1,0 0,0.1 0.1,0 0.1,0 0,0.1 0.1,0 0,0.1 0.1,0 0.1,0 0,0.1 0.1,0 0.1,0 0,0.1 0.1,0 0.1,0 0,0.1 0.1,0 0.1,0.1 0.1,0 0,0.1 0.1,0 0.1,0 0,0.1 0.1,0 0.1,0 0,0.1 0.1,0 0.1,0.1 0.1,0 0,0.1 0.1,0 0.1,0 0,0.1 0.1,0 0.1,0 0,0.1 0.1,0 0.1,0.1 0.1,0 0,0.1 0.1,0 0.1,0 0,0.1 0.1,0 0.1,0.1 0.1,0 0.1,0.1 0.1,0 0,0.1 0.1,0 0.1,0 0,0.1 0.1,0 0.1,0 0,0.1 0.1,0 0.1,0.1 0.1,0 0,0.1 0.1,0 0.1,0 0,0.1 0.1,0 0.1,0.1 0.1,0 0,0.1 0.1,0 0.1,0 0,0.1 0.1,0 0.1,0 0,0.1 0.1,0 0.1,0 0,0.1 0.1,0 0,0.1 0.1,0 0.1,0 0,0.1 0.1,0 0.1,0 0,0.1 0.1,0 0.1,0 0,0.1 0.1,0 0.1,0.1 0.1,0 0,0.1 0.1,0 0.1,0 0,0.1 0.1,0 0.1,0 0,0.1 0.1,0 0,0.1 0.1,0 0.1,0 0,0.1 0.1,0 0.1,0 0,0.1 0.1,0 0.1,0 0,0.1 0.1,0 0.1,0.1 0.1,0 0,0.1 0.1,0 0.1,0 0,0.1 0.1,0 0.1,0 0,0.1 0.1,0 0.1,0.1 0.1,0 0,0.1 0.1,0 0.1,0 0,0.1 0.1,0 0.1,0 0,0.1 0.1,0 0.1,0.1 0.1,0 0,0.1 0.1,0 0.1,0 0,0.1 0.1,0 0.1,0 0,0.1 0.1,0 0.1,0.1 0.1,0 0,0.1 0.1,0 0.1,0 0,0.1 0.1,0 0.1,0 0,0.1 0.1,0 0.1,0.1 0.1,0 0,0.1 0.1,0 0.1,0 0,0.1 0.1,0 0.1,0 0,0.1 0.1,0 0,0.1 0.1,0 0.1,0 0,0.1 0.1,0 0.1,0 0,0.1 0.1,0 0.1,0 0,0.1 0.1,0 0,0.1 0.1,0 0.1,0 0,0.1 0.1,0 0.1,0 0,0.1 0.1,0 0.1,0 0,0.1 0.1,0 0.1,0.1 0.1,0 0,0.1 0.1,0 0.1,0 0,0.1 0.1,0 0.1,0 0,0.1 0.1,0 0,0.1 0.1,0 0.1,0 0,0.1 0.1,0 0.1,0 0,0.1 0.1,0 0.1,0 0,0.1 0.1,0 0,0.1 0.1,0 0.1,0 0,0.1 0.1,0 0.1,0 0,0.1 0.1,0 0.1,0 0,0.1 0.1,0 0,0.1 0.1,0 0.1,0 0,0.1 0.1,0 0.1,0 0,0.1 0.1,0 0.1,0 0,0.1 0.1,0 0.1,0.1 0.1,0 0,0.1 0.1,0 0.1,0 0,0.1 0.1,0 0.1,0 0,0.1 0.1,0 0,0.1 0.1,0 0.1,0 0,0.1 0.1,0 0.1,0 0,0.1 0.1,0 0.1,0 0,0.1 0.1,0 0.1,0.1 0.1,0 0,0.1 0.1,0 0.1,0 0,0.1 0.1,0 0.1,0 0,0.1 0.1,0 0.1,0.1 0.1,0 0,0.1 0.1,0 0.1,0 0,0.1 0.1,0 0.1,0 0,0.1 0.1,0 0,0.1 0.1,0 0.1,0 0,0.1 0.1,0 0.1,0 0,0.1 0.1,0 0.1,0 0,0.1 0.1,0 0.1,0.1 0.1,0 0,0.1 0.1,0 0.1,0 0,0.1 0.1,0 0.1,0 0,0.1 0.1,0 0.1,0.1 0.1,0 0,0.1 0.1,0 0.1,0 0,0.1 0.1,0 0.1,0 0,0.1 0.1,0 0,0.1 0.1,0 0.1,0 0,0.1 0.1,0 0.1,0 0,0.1 0.1,0 0.1,0 0,0.1 0.1,0 0.1,0.1 0.1,0 0,0.1 0.1,0 0.1,0 0,0.1 0.1,0 0.1,0 0,0.1 0.1,0 0.1,0.1 0.1,0 0,0.1 0.1,0 0.1,0 0,0.1 0.1,0 0.1,0 0,0.1 0.1,0 0.1,0.1 0.1,0 0,0.1 0.1,0 0.1,0 0,0.1 0.1,0 0.1,0 0,0.1 0.1,0 0,0.1 0.1,0 0.1,0 0,0.1 0.1,0 0.1,0 0,0.1 0.1,0 0.1,0 0,0.1 0.1,0 0.1,0.1 0.1,0 0,0.1 0.1,0 0.1,0 0,0.1 0.1,0 0.1,0 0,0.1 0.1,0 0.1,0.1 0.1,0 0,0.1 0.1,0 0.1,0 0,0.1 0.1,0 0.1,0 0,0.1 0.1,0 0.1,0.1 0.1,0 0,0.1 0.1,0 0.1,0 0,0.1 0.1,0 0.1,0 0,0.1 0.1,0 0.1,0.1 0.1,0 0,0.1 0.1,0 0.1,0 0,0.1 0.1,0 0.1,0 0,0.1 0.1,0 0.1,0.1 0.1,0 0,0.1 0.1,0 0.1,0 0,0.1 0.1,0 0.1,0 0,0.1 0.1,0 0.1,0.1 0.1,0 0,0.1 0.1,0 0.1,0 0,0.1 0.1,0 0.1,0 0,0.1 0.1,0 0.1,0.1 0.1,0 0,0.1 0.1,0 0.1,0 0,0.1 0.1,0 0.1,0 0,0.1 0.1,0 0.1,0.1 0.1,0 0,0.1 0.1,0 0.1,0 0,0.1 0.1,0 0.1,0 0,0.1 0.1,0 0.1,0.1 0.1,0 0,0.1 0.1,0 0.1,0 0,0.1 0.1,0 0.1,0 0,0.1 0.1,0 0.1,0.1 0.1,0 0,0.1 0.1,0 0.1,0 0,0.1 0.1,0 0.1,0 0,0.1 0.1,0 0.1,0.1 0.1,0 0,0.1 0.1,0 0.1,0 0,0.1 0.1,0 0.1,0 0,0.1 0.1,0 0.1,0.1 0.1,0 0,0.1 0.1,0 0.1,0 0,0.1 0.1,0 0.1,0 0,0.1 0.1,0 0.1,0.1 0.1,0 0,0.1 0.1,0 0.1,0 0,0.1 0.1,0 0.1,0 0,0.1 0.1,0 0.1,0.1 0.1,0 0,0.1 0.1,0 0.1,0 0,0.1 0.1,0 0.1,0 0,0.1 0.1,0 0.1,0.1 0.1,0 0,0.1 0.1,0 0.1,0 0,0.1 0.1,0 0.1,0 0,0.1 0.1,0 0.1,0.1 0.1,0 0,0.1 0.1,0 0.1,0 0,0.1 0.1,0 0.1,0 0,0.1 0.1,0 0.1,0.1 0.1,0 0,0.1 0.1,0 0.1,0 0,0.1 0.1,0 0.1,0 0,0.1 0.1,0 0.1,0.1 0.1,0 0,0.1 0.1,0 0.1,0 0,0.1 0.1,0 0.1,0 0,0.1 0.1,0 0.1,0.1 0.1,0 0,0.1 0.1,0 0.1,0 0,0.1 0.1,0 0.1,0 0,0.1 0.1,0 0.1,0 0,0.1 0.1,0 0,0.1 0.1,0 0.1,0 0,0.1 0.1,0 0.1,0 0,0.1 0.1,0 0.1,0 0,0.1 0.1,0 0,0.1 0.1,0 0.1,0 0,0.1 0.1,0 0.1,0 0,0.1 0.1,0 0.1,0.1 0.1,0 0,0.1 0.1,0 0.1,0 0,0.1 0.1,0 0.1,0 0,0.1 0.1,0 0.1,0 0,0.1 0.1,0 0,0.1 0.1,0 0.1,0 0,0.1 0.1,0 0.1,0 0,0.1 0.1,0 0.1,0 0,0.1 0.1,0 0,0.1 0.1,0 0.1,0 0,0.1 0.1,0 0.1,0 0,0.1 0.1,0 0.1,0 0,0.1 0.1,0 0,0.1 0.1,0 0.1,0 0,0.1 0.1,0 0.1,0 0,0.1 0.1,0 0.1,0 0,0.1 0.1,0 0,0.1 0.1,0 0.1,0 0,0.1 0.1,0 0.1,0 0,0.1 0.1,0 0.1,0 0,0.1 0.1,0 0,0.1 0.1,0 0.1,0 0,0.1 0.1,0 0.1,0 0,0.1 0.1,0 0.1,0.1 0.1,0 0,0.1 0.1,0 0.1,0 0,0.1 0.1,0 0.1,0 0,0.1 0.1,0 0.1,0.1 0.1,0 0,0.1 0.1,0 0.1,0 0,0.1 0.1,0 0.1,0 0,0.1 0.1,0 0.1,0 0,0.1 0.1,0 0,0.1 0.1,0 0.1,0 0,0.1 0.1,0 0.1,0 0,0.1 0.1,0 0.1,0 0,0.1 0.1,0 0,0.1 0.1,0 0.1,0 0,0.1 0.1,0 0.1,0 0,0.1 0.1,0 0.1,0 0,0.1 0.1,0 0,0.1 0.1,0 0.1,0 0,0.1 0.1,0 0.1,0 0,0.1 0.1,0 0.1,0 0,0.1 0.1,0 0,0.1 0.1,0 0.1,0 0,0.1 0.1,0 0.1,0 0,0.1 0.1,0 0.1,0.1 0.1,0 0,0.1 0.1,0 0.1,0 0,0.1 0.1,0 0.1,0 0,0.1 0.1,0 0.1,0 0,0.1 0.1,0 0,0.1 0.1,0 0.1,0 0,0.1 0.1,0 0.1,0 0,0.1 0.1,0 0.1,0 0,0.1 0.1,0 0,0.1 0.1,0 0.1,0 0,0.1 0.1,0 0.1,0 0,0.1 0.1,0 0.1,0 0,0.1 0.1,0 0,0.1 0.1,0 0.1,0 0,0.1 0.1,0 0.1,0 0,0.1 0.1,0 0.1,0 0,0.1 0.1,0 0,0.1 0.1,0 0.1,0 0,0.1 0.1,0 0.1,0 0,0.1 0.1,0 0.1,0 0,0.1 0.1,0 0,0.1 0.1,0 0.1,0 0,0.1 0.1,0 0.1,0 0,0.1 0.1,0 0.1,0 0,0.1 0.1,0 0,0.1 0.1,0 0.1,0 0,0.1 0.1,0 0.1,0 0,0.1 0.1,0 0.1,0 0,0.1 0.1,0 0,0.1 0.1,0 0.1,0 0,0.1 0.1,0 0.1,0 0,0.1 0.1,0 0.1,0 0,0.1 0.1,0 0,0.1 0.1,0 0.1,0 0,0.1 0.1,0 0.1,0 0,0.1 0.1,0 0.1,0 0,0.1 0.1,0 0,0.1 0.1,0 0.1,0 0,0.1 0.1,0 0.1,0 0,0.1 0.1,0 0.1,0 0,0.1 0.1,0 0,0.1 0.1,0 0.1,0 0,0.1 0.1,0 0.1,0 0,0.1 0.1,0 0.1,0 0,0.1 0.1,0 0,0.1 0.1,0 0.1,0 0,0.1 0.1,0 0.1,0 0,0.1 0.1,0 0.1,0 0,0.1 0.1,0 0,0.1 0.1,0 0.1,0 0,0.1 0.1,0 0.1,0 0,0.1 0.1,0 0.1,0 0,0.1 0.1,0 0,0.1 0.1,0 0.1,0 0,0.1 0.1,0 0.1,0 0,0.1 0.1,0 0.1,0 0,0.1 0.1,0 0,0.1 0.1,0 0.1,0 0,0.1 0.1,0 0.1,0 0,0.1 0.1,0 0.1,0 0,0.1 0.1,0 0,0.1 0.1,0 0.1,0 0,0.1 0.1,0 0.1,0 0,0.1 0.1,0 0.1,0 0,0.1 0.1,0 0,0.1 0.1,0 0.1,0 0,0.1 0.1,0 0.1,0 0,0.1 0.1,0 0.1,0 0,0.1 0.1,0 0,0.1 0.1,0 0.1,0 0,0.1 0.1,0 0.1,0 0,0.1 0.1,0 0.1,0 0,0.1 0.1,0 0,0.1 0.1,0 0.1,0 0,0.1 0.1,0 0.1,0 0,0.1 0.1,0 0.1,0 0,0.1 0.1,0 0,0.1 0.1,0 0.1,0 0,0.1 0.1,0 0.1,0 0,0.1 0.1,0 0.1,0 0,0.1 0.1,0 0,0.1 0.1,0 0.1,0 0,0.1 0.1,0 0.1,0 0,0.1 0.1,0 0.1,0 0,0.1 0.1,0 0,0.1 0.1,0 0.1,0 0,0.1 0.1,0 0.1,0 0,0.1 0.1,0 0.1,0 0,0.1 0.1,0 0,0.1 0.1,0 0.1,0 0,0.1 0.1,0 0.1,0 0,0.1 0.1,0 0.1,0 0,0.1 0.1,0 0,0.1 0.1,0 0.1,0 0,0.1 0.1,0 0.1,0 0,0.1 0.1,0 0.1,0 0,0.1 0.1,0 0,0.1 0.1,0 0.1,0 0,0.1 0.1,0 0.1,0 0,0.1 0.1,0 0.1,0 0,0.1 0.1,0 0,0.1 0.1,0 0.1,0 0,0.1 0.1,0 0.1,0 0,0.1 0.1,0 0.1,0 0,0.1 0.1,0 0,0.1 0.1,0 0.1,0 0,0.1 0.1,0 0.1,0 0,0.1 0.1,0 0.1,0 0,0.1 0.1,0 0,0.1 0.1,0 0.1,0 0,0.1 0.1,0 0.1,0 0,0.1 0.1,0 0.1,0 0,0.1 0.1,0 0,0.1 0.1,0 0.1,0 0,0.1 0.1,0 0.1,0 0,0.1 0.1,0 0.1,0 0,0.1 0.1,0 0,0.1 0.1,0 0.1,0 0,0.1 0.1,0 0.1,0 0,0.1 0.1,0 0.1,0 0,0.1 0.1,0 0,0.1 0.1,0 0.1,0 0,0.1 0.1,0 0.1,0 0,0.1 0.1,0 0.1,0 0,0.1 0.1,0 0,0.1 0.1,0 0.1,0 0,0.1 0.1,0 0.1,0 0,0.1 0.1,0 0.1,0 0,0.1 0.1,0 0,0.1 0.1,0 0.1,0 0,0.1 0.1,0 0.1,0 0,0.1 0.1,0 0.1,0 0,0.1 0.1,0 0,0.1 0.1,0 0.1,0 0,0.1 0.1,0 0.1,0 0,0.1 0.1,0 0.1,0 0,0.1 0.1,0 0,0.1 0.1,0 0.1,0 0,0.1 0.1,0 0.1,0 0,0.1 0.1,0 0.1,0 0,0.1 0.1,0 0,0.1 0.1,0 0.1,0 0,0.1 0.1,0 0.1,0 0,0.1 0.1,0 0.1,0 0,0.1 0.1,0 0,0.1 0.1,0 0.1,0 0,0.1 0.1,0 0.1,0 0,0.1 0.1,0 0.1,0 0,0.1 0.1,0 0,0.1 0.1,0 0.1,0 0,0.1 0.1,0 0.1,0 0,0.1 0.1,0 0.1,0 0,0.1 0.1,0 0,0.1 0.1,0 0.1,0 0,0.1 0.1,0 0.1,0 0,0.1 0.1,0 0.1,0 0,0.1 0.1,0 0,0.1 0.1,0 0.1,0 0,0.1 0.1,0 0.1,0 0,0.1 0.1,0 0.1,0 0,0.1 0.1,0 0,0.1 0.1,0 0.1,0 0,0.1 0.1,0 0.1,0 0,0.1 0.1,0 0.1,0 0,0.1 0.1,0 0,0.1 0.1,0 0.1,0 0,0.1 0.1,0 0.1,0 0,0.1 0.1,0 0.1,0 0,0.1 0.1,0 0,0.1 0.1,0 0.1,0 0,0.1 0.1,0 0.1,0 0,0.1 0.1,0 0.1,0 0,0.1 0.1,0 0,0.1 0.1,0 0.1,0 0,0.1 0.1,0 0.1,0 0,0.1 0.1,0 0.1,0 0,0.1 0.1,0 0,0.1 0.1,0 0.1,0 0,0.1 0.1,0 0.1,0 0,0.1 0.1,0 0.1,0 0,0.1 0.1,0 0,0.1 0.1,0 0.1,0 0,0.1 0.1,0 0.1,0 0,0.1 0.1,0 0.1,0 0,0.1 0.1,0 0,0.1 0.1,0 0.1,0 0,0.1 0.1,0 0.1,0 0,0.1 0.1,0 0.1,0 0,0.1 0.1,0 0,0.1 0.1,0 0.1,0 0,0.1 0.1,0 0.1,0 0,0.1 0.1,0 0.1,0 0,0.1 0.1,0 0,0.1 0.1,0 0.1,0 0,0.1 0.1,0 0.1,0 0,0.1 0.1,0 0.1,0 0,0.1 0.1,0 0,0.1 0.1,0 0.1,0 0,0.1 0.1,0 0.1,0 0,0.1 0.1,0 0.1,0 0,0.1 0.1,0 0,0.1 0.1,0 0.1,0 0,0.1 0.1,0 0.1,0 0,0.1 0.1,0 0.1,0 0,0.1 0.1,0 0,0.1 0.1,0 0.1,0 0,0.1 0.1,0 0.1,0 0,0.1 0.1,0 0.1,0 0,0.1 0.1,0 0,0.1 0.1,0 0.1,0 0,0.1 0.1,0 0.1,0 0,0.1 0.1,0 0.1,0 0,0.1 0.1,0 0,0.1 0.1,0 0.1,0 0,0.1 0.1,0 0.1,0 0,0.1 0.1,0 0.1,0 0,0.1 0.1,0 0,0.1 0.1,0 0.1,0 0,0.1 0.1,0 0.1,0 0,0.1 0.1,0 0.1,0 0,0.1 0.1,0 0,0.1 0.1,0 0.1,0 0,0.1 0.1,0 0.1,0 0,0.1 0.1,0 0.1,0 0,0.1 0.1,0 0,0.1 0.1,0 0.1,0 0,0.1 0.1,0 0.1,0 0,0.1 0.1,0 0.1,0 0,0.1 0.1,0 0,0.1 0.1,0 0.1,0 0,0.1 0.1,0 0.1,0 0,0.1 0.1,0 0.1,0 0,0.1 0.1,0 0,0.1 0.1,0 0.1,0 0,0.1 0.1,0 0.1,0 0,0.1 0.1,0 0.1,0 0,0.1 0.1,0 0,0.1 0.1,0 0.1,0 0,0.1 0.1,0 0.1,0 0,0.1 0.1,0 0.1,0 0,0.1 0.1,0 0,0.1 0.1,0 0.1,0 0,0.1 0.1,0 0.1,0 0,0.1 0.1,0 0.1,0 0,0.1 0.1,0 0,0.1 0.1,0 0.1,0 0,0.1 0.1,0 0.1,0 0,0.1 0.1,0 0.1,0 0,0.1 0.1,0 0,0.1 0.1,0 0.1,0 0,0.1 0.1,0 0.1,0 0,0.1 0.1,0 0.1,0 0,0.1 0.1,0 0,0.1 0.1,0 0.1,0 0,0.1 0.1,0 0.1,0 0,0.1 0.1,0 0.1,0 0,0.1 0.1,0 0,0.1 0.1,0 0.1,0 0,0.1 0.1,0 0.1,0 0,0.1 0.1,0 0.1,0 0,0.1 0.1,0 0,0.1 0.1,0 0.1,0 0,0.1 0.1,0 0.1,0 0,0.1 0.1,0 0.1,0 0,0.1 0.1,0 0,0.1 0.1,0 0.1,0 0,0.1 0.1,0 0.1,0 0,0.1 0.1,0 0.1,0 0,0.1 0.1,0 0,0.1 0.1,0 0.1,0 0,0.1 0.1,0 0.1,0 0,0.1 0.1,0 0.1,0 0,0.1 0.1,0 0,0.1 0.1,0 0.1,0 0,0.1 0.1,0 0.1,0 0,0.1 0.1,0 0.1,0 0,0.1 0.1,0 0,0.1 0.1,0 0.1,0 0,0.1 0.1,0 0.1,0 0,0.1 0.1,0 0.1,0 0,0.1 0.1,0 0,0.1 0.1,0 0.1,0 0,0.1 0.1,0 0.1,0 0,0.1 0.1,0 0.1,0 0,0.1 0.1,0 0,0.1 0.1,0 0.1,0 0,0.1 0.1,0 0.1,0 0,0.1 0.1,0 0.1,0 0,0.1 0.1,0 0,0.1 0.1,0 0.1,0 0,0.1 0.1,0 0.1,0 0,0.1 0.1,0 0.1,0 0,0.1 0.1,0 0,0.1 0.1,0 0.1,0 0,0.1 0.1,0 0.1,0 0,0.1 0.1,0 0.1,0 0,0.1 0.1,0 0,0.1 0.1,0 0.1,0 0,0.1 0.1,0 0.1,0 0,0.1 0.1,0 0.1,0 0,0.1 0.1,0 0,0.1 0.1,0 0.1,0 0,0.1 0.1,0 0.1,0 0,0.1 0.1,0 0.1,0 0,0.1 0.1,0 0,0.1 0.1,0 0.1,0 0,0.1 0.1,0 0.1,0 0,0.1 0.1,0 0.1,0 0,0.1 0.1,0 0,0.1 0.1,0 0.1,0 0,0.1 0.1,0 0.1,0 0,0.1 0.1,0 0.1,0 0,0.1 0.1,0 0,0.1 0.1,0 0.1,0 0,0.1 0.1,0 0.1,0 0,0.1 0.1,0 0.1,0 0,0.1 0.1,0 0,0.1 0.1,0 0.1,0 0,0.1 0.1,0 0.1,0 0,0.1 0.1,0 0.1,0 0,0.1 0.1,0 0,0.1 0.1,0 0.1,0 0,0.1 0.1,0 0.1,0 0,0.1 0.1,0 0.1,0 0,0.1 0.1,0 0,0.1 0.1,0 0.1,0 0,0.1 0.1,0 0.1,0 0,0.1 0.1,0 0.1,0 0,0.1 0.1,0 0,0.1 0.1,0 0.1,0 0,0.1 0.1,0 0.1,0 0,0.1 0.1,0 0.1,0 0,0.1 0.1,0 0,0.1 0.1,0 0.1,0 0,0.1 0.1,0 0.1,0 0,0.1 0.1,0 0.1,0 0,0.1 0.1,0 0,0.1 0.1,0 0.1,0 0,0.1 0.1,0 0.1,0 0,0.1 0.1,0 0.1,0 0,0.1 0.1,0 0,0.1 0.1,0 0.1,0 0,0.1 0.1,0 0.1,0 0,0.1 0.1,0 0.1,0 0,0.1 0.1,0 0,0.1 0.1,0 0.1,0 0,0.1 0.1,0 0.1,0 0,0.1 0.1,0 0.1,0 0,0.1 0.1,0 0.1,0.1 0.1,0 0,0.1 0.1,0 0.1,0 0,0.1 0.1,0 0.1,0 0,0.1 0.1,0 0,0.1 0.1,0 0.1,0 0,0.1 0.1,0 0.1,0 0,0.1 0.1,0 0.1,0 0,0.1 0.1,0 0,0.1 0.1,0 0.1,0 0,0.1 0.1,0 0.1,0 0,0.1 0.1,0 0.1,0 0,0.1 0.1,0 0,0.1 0.1,0 0.1,0 0,0.1 0.1,0 0.1,0 0,0.1 0.1,0 0.1,0 0,0.1 0.1,0 0.1,0.1 0.1,0 0,0.1 0.1,0 0.1,0 0,0.1 0.1,0 0.1,0 0,0.1 0.1,0 0.1,0.1 0.1,0 0,0.1 0.1,0 0.1,0 0,0.1 0.1,0 0.1,0 0,0.1 0.1,0 0.1,0 0,0.1 0.1,0 0,0.1 0.1,0 0.1,0 0,0.1 0.1,0 0.1,0 0,0.1 0.1,0 0.1,0.1 0.1,0 0,0.1 0.1,0 0.1,0 0,0.1 0.1,0 0.1,0 0,0.1 0.1,0 0.1,0 0,0.1 0.1,0 0,0.1 0.1,0 0.1,0 0,0.1 0.1,0 0.1,0 0,0.1 0.1,0 0.1,0 0,0.1 0.1,0 0,0.1 0.1,0 0.1,0 0,0.1 0.1,0 0.1,0 0,0.1 0.1,0 0.1,0 0,0.1 0.1,0 0,0.1 0.1,0 0.1,0 0,0.1 0.1,0 0.1,0 0,0.1 0.1,0 0.1,0 0,0.1 0.1,0 0,0.1 0.1,0 0.1,0 0,0.1 0.1,0 0.1,0 0,0.1 0.1,0 0.1,0 0,0.1 0.1,0 0,0.1 0.1,0 0.1,0 0,0.1 0.1,0 0.1,0 0,0.1 0.1,0 0.1,0 0,0.1 0.1,0 0,0.1 0.1,0 0.1,0 0,0.1 0.1,0 0.1,0 0,0.1 0.1,0 0.1,0 0,0.1 0.1,0 0,0.1 0.1,0 0.1,0 0,0.1 0.1,0 0.1,0 0,0.1 0.1,0 0.1,0 0,0.1 0.1,0 0,0.1 0.1,0 0.1,0 0,0.1 0.1,0 0.1,0 0,0.1 0.1,0 0.1,0 0,0.1 0.1,0 0,0.1 0.1,0 0.1,0 0,0.1 0.1,0 0.1,0 0,0.1 0.1,0 0.1,0 0,0.1 0.1,0 0,0.1 0.1,0 0.1,0 0,0.1 0.1,0 0.1,0 0,0.1 0.1,0 0.1,0 0,0.1 0.1,0 0,0.1 0.1,0 0.1,0 0,0.1 0.1,0 0.1,0 0,0.1 0.1,0 0.1,0 0,0.1 0.1,0 0,0.1 0.1,0 0.1,0 0,0.1 0.1,0 0.1,0 0,0.1 0.1,0 0.1,0 0,0.1 0.1,0 0,0.1 0.1,0 0.1,0 0,0.1 0.1,0 0.1,0 0,0.1 0.1,0 0.1,0 0,0.1 0.1,0 0,0.1 0.1,0 0.1,0 0,0.1 0.1,0 0.1,0 0,0.1 0.1,0 0.1,0 0,0.1 0.1,0 0,0.1 0.1,0 0.1,0 0,0.1 0.1,0 0.1,0 0,0.1 0.1,0 0.1,0 0,0.1 0.1,0 0,0.1 0.1,0 0.1,0 0,0.1 0.1,0 0.1,0 0,0.1 0.1,0 0.1,0 0,0.1 0.1,0 0,0.1 0.1,0 0.1,0 0,0.1 0.1,0 0.1,0 0,0.1 0.1,0 0.1,0 0,0.1 0.1,0 0,0.1 0.1,0 0.1,0 0,0.1 0.1,0 0.1,0 0,0.1 0.1,0 0.1,0 0,0.1 0.1,0 0,0.1 0.1,0 0.1,0 0,0.1 0.1,0 0.1,0 0,0.1 0.1,0 0.1,0 0,0.1 0.1,0 0,0.1 0.1,0 0.1,0 0,0.1 0.1,0 0.1,0 0,0.1 0.1,0 0.1,0 0,0.1 0.1,0 0,0.1 0.1,0 0.1,0 0,0.1 0.1,0 0.1,0 0,0.1 0.1,0 0.1,0 0,0.1 0.1,0 0,0.1 0.1,0 0.1,0 0,0.1 0.1,0 0.1,0 0,0.1 0.1,0 0.1,0 0,0.1 0.1,0 0,0.1 0.1,0 0.1,0 0,0.1 0.1,0 0.1,0 0,0.1 0.1,0 0.1,0 0,0.1 0.1,0 0,0.1 0.1,0 0.1,0 0,0.1 0.1,0 0.1,0 0,0.1 0.1,0 0.1,0 0,0.1 0.1,0 0,0.1 0.1,0 0.1,0 0,0.1 0.1,0 0.1,0 0,0.1 0.1,0 0.1,0 0,0.1 0.1,0 0,0.1 0.1,0 0.1,0 0,0.1 0.1,0 0.1,0 0,0.1 0.1,0 0.1,0 0,0.1 0.1,0 0,0.1 0.1,0 0.1,0 0,0.1 0.1,0 0.1,0 0,0.1 0.1,0 0.1,0 0,0.1 0.1,0 0,0.1 0.1,0 0.1,0 0,0.1 0.1,0 0.1,0 0,0.1 0.1,0 0.1,0 0,0.1 0.1,0 0,0.1 0.1,0 0.1,0 0,0.1 0.1,0 0.1,0 0,0.1 0.1,0 0.1,0 0,0.1 0.1,0 0,0.1 0.1,0 0.1,0 0,0.1 0.1,0 0.1,0 0,0.1 0.1,0 0.1,0 0,0.1 0.1,0 0,0.1 0.1,0 0.1,0 0,0.1 0.1,0 0.1,0 0,0.1 0.1,0 0.1,0 0,0.1 0.1,0 0,0.1 0.1,0 0.1,0 0,0.1 0.1,0 0.1,0 0,0.1 0.1,0 0.1,0 0,0.1 0.1,0 0,0.1 0.1,0 0.1,0 0,0.1 0.1,0 0.1,0 0,0.1 0.1,0 0.1,0 0,0.1 0.1,0 0,0.1 0.1,0 0.1,0 0,0.1 0.1,0 0.1,0 0,0.1 0.1,0 0.1,0 0,0.1 0.1,0 0,0.1 0.1,0 0.1,0 0,0.1 0.1,0 0.1,0 0,0.1 0.1,0 0.1,0 0,0.1 0.1,0 0,0.1 0.1,0 0.1,0 0,0.1 0.1,0 0.1,0 0,0.1 0.1,0 0.1,0 0,0.1 0.1,0 0,0.1 0.1,0 0.1,0 0,0.1 0.1,0 0.1,0 0,0.1 0.1,0 0.1,0 0,0.1 0.1,0 0,0.1 0.1,0 0.1,0 0,0.1 0.1,0 0.1,0 0,0.1 0.1,0 0.1,0 0,0.1 0.1,0 0,0.1 0.1,0 0.1,0 0,0.1 0.1,0 0.1,0 0,0.1 0.1,0 0.1,0 0,0.1 0.1,0 0,0.1 0.1,0 0.1,0 0,0.1 0.1,0 0.1,0 0,0.1 0.1,0 0.1,0 0,0.1 0.1,0 0,0.1 0.1,0 0.1,0 0,0.1 0.1,0 0.1,0 0,0.1 0.1,0 0.1,0 0,0.1 0.1,0 0,0.1 0.1,0 0.1,0 0,0.1 0.1,0 0.1,0 0,0.1 0.1,0 0.1,0 0,0.1 0.1,0 0,0.1 0.1,0 0.1,0 0,0.1 0.1,0 0.1,0 0,0.1 0.1,0 0.1,0 0,0.1 0.1,0 0,0.1 0.1,0 0.1,0 0,0.1 0.1,0 0.1,0 0,0.1 0.1,0 0.1,0 0,0.1 0.1,0 0,0.1 0.1,0 0.1,0 0,0.1 0.1,0 0.1,0 0,0.1 0.1,0 0.1,0 0,0.1 0.1,0 0,0.1 0.1,0 0.1,0 0,0.1 0.1,0 0.1,0 0,0.1 0.1,0 0.1,0 0,0.1 0.1,0 0,0.1 0.1,0 0.1,0 0,0.1 0.1,0 0.1,0 0,0.1 0.1,0 0.1,0 0,0.1 0.1,0 0,0.1 0.1,0 0.1,0 0,0.1 0.1,0 0.1,0 0,0.1 0.1,0 0.1,0 0,0.1 0.1,0 0,0.1 0.1,0 0.1,0 0,0.1 0.1,0 0.1,0 0,0.1 0.1,0 0.1,0 0,0.1 0.1,0 0,0.1 0.1,0 0.1,0 0,0.1 0.1,0 0.1,0 0,0.1 0.1,0 0.1,0 0,0.1 0.1,0 0,0.1 0.1,0 0.1,0 0,0.1 0.1,0 0.1,0 0,0.1 0.1,0 0.1,0 0,0.1 0.1,0 0,0.1 0.1,0 0.1,0 0,0.1 0.1,0 0.1,0 0,0.1 0.1,0 0.1,0 0,0.1 0.1,0 0,0.1 0.1,0 0.1,0 0,0.1 0.1,0 0.1,0 0,0.1 0.1,0 0.1,0 0,0.1 0.1,0 0,0.1 0.1,0 0.1,0 0,0.1 0.1,0 0.1,0 0,0.1 0.1,0 0.1,0 0,0.1 0.1,0 0,0.1 0.1,0 0.1,0 0,0.1 0.1,0 0.1,0 0,0.1 0.1,0 0.1,0 0,0.1 0.1,0 0,0.1 0.1,0 0.1,0 0,0.1 0.1,0 0.1,0 0,0.1 0.1,0 0.1,0 0,0.1 0.1,0 0,0.1 0.1,0 0.1,0 0,0.1 0.1,0 0.1,0 0,0.1 0.1,0 0.1,0 0,0.1 0.1,0 0,0.1 0.1,0 0.1,0 0,0.1 0.1,0 0.1,0 0,0.1 0.1,0 0.1,0 0,0.1 0.1,0 0,0.1 0.1,0 0.1,0 0,0.1 0.1,0 0.1,0 0,0.1 0.1,0 0.1,0 0,0.1 0.1,0 0,0.1 0.1,0 0.1,0 0,0.1 0.1,0 0.1,0 0,0.1 0.1,0 0.1,0 0,0.1 0.1,0 0,0.1 0.1,0 0.1,0 0,0.1 0.1,0 0.1,0 0,0.1 0.1,0 0.1,0 0,0.1 0.1,0 0,0.1 0.1,0 0.1,0 0,0.1 0.1,0 0.1,0 0,0.1 0.1,0 0.1,0 0,0.1 0.1,0 0,0.1 0.1,0 0.1,0 0,0.1 0.1,0 0.1,0 0,0.1 0.1,0 0.1,0 0,0.1 0.1,0 0,0.1 0.1,0 0.1,0 0,0.1 0.1,0 0.1,0 0,0.1 0.1,0 0.1,0 0,0.1 0.1,0 0,0.1 0.1,0 0.1,0 0,0.1 0.1,0 0.1,0 0,0.1 0.1,0 0.1,0 0,0.1 0.1,0 0,0.1 0.1,0 0.1,0 0,0.1 0.1,0 0.1,0 0,0.1 0.1,0 0.1,0 0,0.1 0.1,0 0,0.1 0.1,0 0.1,0 0,0.1 0.1,0 0.1,0 0,0.1 0.1,0 0.1,0 0,0.1 0.1,0 0,0.1 0.1,0 0.1,0 0,0.1 0.1,0 0.1,0 0,0.1 0.1,0 0.1,0 0,0.1 0.1,0 0,0.1 0.1,0 0.1,0 0,0.1 0.1,0 0.1,0 0,0.1 0.1,0 0.1,0 0,0.1 0.1,0 0,0.1 0.1,0 0.1,0 0,0.1 0.1,0 0.1,0 0,0.1 0.1,0 0.1,0 0,0.1 0.1,0 0,0.1 0.1,0 0.1,0 0,0.1 0.1,0 0.1,0 0,0.1 0.1,0 0.1,0 0,0.1 0.1,0 0,0.1 0.1,0 0.1,0 0,0.1 0.1,0 0.1,0 0,0.1 0.1,0 0.1,0 0,0.1 0.1,0 0,0.1 0.1,0 0.1,0 0,0.1 0.1,0 0.1,0 0,0.1 0.1,0 0.1,0 0,0.1 0.1,0 0,0.1 0.1,0 0.1,0 0,0.1 0.1,0 0.1,0 0,0.1 0.1,0 0.1,0 0,0.1 0.1,0 0,0.1 0.1,0 0.1,0 0,0.1 0.1,0 0.1,0 0,0.1 0.1,0 0.1,0 0,0.1 0.1,0 0,0.1 0.1,0 0.1,0 0,0.1 0.1,0 0.1,0 0,0.1 0.1,0 0.1,0 0,0.1 0.1,0 0,0.1 0.1,0 0.1,0 0,0.1 0.1,0 0.1,0 0,0.1 0.1,0 0.1,0 0,0.1 0.1,0 0,0.1 0.1,0 0.1,0 0,0.1 0.1,0 0.1,0 0,0.1 0.1,0 0.1,0 0,0.1 0.1,0 0,0.1 0.1,0 0.1,0 0,0.1 0.1,0 0.1,0 0,0.1 0.1,0 0.1,0 0,0.1 0.1,0 0,0.1 0.1,0 0.1,0 0,0.1 0.1,0 0.1,0 0,0.1 0.1,0 0.1,0 0,0.1 0.1,0 0,0.1 0.1,0 0.1,0 0,0.1 0.1,0 0.1,0 0,0.1 0.1,0 0.1,0 0,0.1 0.1,0 0,0.1 0.1,0 0.1,0 0,0.1 0.1,0 0.1,0 0,0.1 0.1,0 0.1,0 0,0.1 0.1,0 0,0.1 0.1,0 0.1,0 0,0.1 0.1,0 0.1,0 0,0.1 0.1,0 0.1,0 0,0.1 0.1,0 0,0.1 0.1,0 0.1,0 0,0.1 0.1,0 0.1,0 0,0.1 0.1,0 0.1,0 0,0.1 0.1,0 0,0.1 0.1,0 0.1,0 0,0.1 0.1,0 0.1,0 0,0.1 0.1,0 0.1,0 0,0.1 0.1,0 0,0.1 0.1,0 0.1,0 0,0.1 0.1,0 0.1,0 0,0.1 0.1,0 0.1,0 0,0.1 0.1,0 0,0.1 0.1,0 0.1,0 0,0.1 0.1,0 0.1,0 0,0.1 0.1,0 0.1,0 0,0.1 0.1,0 0,0.1 0.1,0 0.1,0 0,0.1 0.1,0 0.1,0 0,0.1 0.1,0 0.1,0 0,0.1 0.1,0 0,0.1 0.1,0 0.1,0 0,0.1 0.1,0 0.1,0 0,0.1 0.1,0 0.1,0 0,0.1 0.1,0 0,0.1 0.1,0 0.1,0 0,0.1 0.1,0 0.1,0 0,0.1 0.1,0 0.1,0 0,0.1 0.1,0 0,0.1 0.1,0 0.1,0 0,0.1 0.1,0 0.1,0 0,0.1 0.1,0 0.1,0 0,0.1 0.1,0 0,0.1 0.1,0 0.1,0 0,0.1 0.1,0 0.1,0 0,0.1 0.1,0 0.1,0 0,0.1 0.1,0 0,0.1 0.1,0 0.1,0 0,0.1 0.1,0 0.1,0 0,0.1 0.1,0 0.1,0 0,0.1 0.1,0 0,0.1 0.1,0 0.1,0 0,0.1 0.1,0 0.1,0 0,0.1 0.1,0 0.1,0 0,0.1 0.1,0 0,0.1 0.1,0 0.1,0 0,0.1 0.1,0 0.1,0 0,0.1 0.1,0 0.1,0 0,0.1 0.1,0 0,0.1 0.1,0 0.1,0 0,0.1 0.1,0 0.1,0 0,0.1 0.1,0 0.1,0 0,0.1 0.1,0 0,0.1 0.1,0 0.1,0 0,0.1 0.1,0 0.1,0 0,0.1 0.1,0 0.1,0 0,0.1 0.1,0 0,0.1 0.1,0 0.1,0 0,0.1 0.1,0 0.1,0 0,0.1 0.1,0 0.1,0 0,0.1 0.1,0 0,0.1 0.1,0 0.1,0 0,0.1 0.1,0 0.1,0 0,0.1 0.1,0 0.1,0 0,0.1 0.1,0 0,0.1 0.1,0 0.1,0 0,0.1 0.1,0 0.1,0 0,0.1 0.1,0 0.1,0 0,0.1 0.1,0 0,0.1 0.1,0 0.1,0 0,0.1 0.1,0 0.1,0 0,0.1 0.1,0 0.1,0 0,0.1 0.1,0 0,0.1 0.1,0 0.1,0 0,0.1 0.1,0 0.1,0 0,0.1 0.1,0 0.1,0 0,0.1 0.1,0 0,0.1 0.1,0 0.1,0 0,0.1 0.1,0 0.1,0 0,0.1 0.1,0 0.1,0 0,0.1 0.1,0 0,0.1 0.1,0 0.1,0 0,0.1 0.1,0 0.1,0 0,0.1 0.1,0 0.1,0 0,0.1 0.1,0 0,0.1 0.1,0 0.1,0 0,0.1 0.1,0 0.1,0 0,0.1 0.1,0 0.1,0 0,0.1 0.1,0 0,0.1 0.1,0 0.1,0 0,0.1 0.1,0 0.1,0 0,0.1 0.1,0 0.1,0 0,0.1 0.1,0 0,0.1 0.1,0 0.1,0 0,0.1 0.1,0 0.1,0 0,0.1 0.1,0 0.1,0 0,0.1 0.1,0 0,0.1 0.1,0 0.1,0 0,0.1 0.1,0 0.1,0 0,0.1 0.1,0 0.1,0 0,0.1 0.1,0 0,0.1 0.1,0 0.1,0 0,0.1 0.1,0 0.1,0 0,0.1 0.1,0 0.1,0 0,0.1 0.1,0 0,0.1 0.1,0 0.1,0 0,0.1 0.1,0 0.1,0 0,0.1 0.1,0 0.1,0 0,0.1 0.1,0 0,0.1 0.1,0 0.1,0 0,0.1 0.1,0 0.1,0 0,0.1 0.1,0 0.1,0 0,0.1 0.1,0 0,0.1 0.1,0 0.1,0 0,0.1 0.1,0 0.1,0 0,0.1 0.1,0 0.1,0 0,0.1 0.1,0 0.1,0.1 0.1,0 0,0.1 0.1,0 0.1,0 0,0.1 0.1,0 0.1,0 0,0.1 0.1,0 0.1,0 0,0.1 0.1,0 0,0.1 0.1,0 0.1,0 0,0.1 0.1,0 0.1,0 0,0.1 0.1,0 0.1,0 0,0.1 0.1,0 0,0.1 0.1,0 0.1,0 0,0.1 0.1,0 0.1,0 0,0.1 0.1,0 0.1,0 0,0.1 0.1,0 0,0.1 0.1,0 0.1,0 0,0.1 0.1,0 0.1,0 0,0.1 0.1,0 0.1,0 0,0.1 0.1,0 0,0.1 0.1,0 0.1,0 0,0.1 0.1,0 0.1,0 0,0.1 0.1,0 0.1,0 0,0.1 0.1,0 0,0.1 0.1,0 0.1,0 0,0.1 0.1,0 0.1,0 0,0.1 0.1,0 0.1,0 0,0.1 0.1,0 0,0.1 0.1,0 0.1,0 0,0.1 0.1,0 0.1,0 0,0.1 0.1,0 0.1,0 0,0.1 0.1,0 0,0.1 0.1,0 0.1,0 0,0.1 0.1,0 0.1,0 0,0.1 0.1,0 0.1,0 0,0.1 0.1,0 0,0.1 0.1,0 0.1,0 0,0.1 0.1,0 0.1,0 0,0.1 0.1,0 0.1,0 0,0.1 0.1,0 0,0.1 0.1,0 0.1,0 0,0.1 0.1,0 0.1,0 0,0.1 0.1,0 0.1,0 0,0.1 0.1,0 0,0.1 0.1,0 0.1,0 0,0.1 0.1,0 0.1,0 0,0.1 0.1,0 0.1,0 0,0.1 0.1,0 0,0.1 0.1,0 0.1,0 0,0.1 0.1,0 0.1,0 0,0.1 0.1,0 0.1,0 0,0.1 0.1,0 0,0.1 0.1,0 0.1,0 0,0.1 0.1,0 0.1,0 0,0.1 0.1,0 0.1,0 0,0.1 0.1,0 0,0.1 0.1,0 0.1,0 0,0.1 0.1,0 0.1,0 0,0.1 0.1,0 0.1,0 0,0.1 0.1,0 0,0.1 0.1,0 0.1,0 0,0.1 0.1,0 0.1,0 0,0.1 0.1,0 0.1,0 0,0.1 0.1,0 0,0.1 0.1,0 0.1,0 0,0.1 0.1,0 0.1,0 0,0.1 0.1,0 0.1,0 0,0.1 0.1,0 0,0.1 0.1,0 0.1,0 0,0.1 0.1,0 0.1,0 0,0.1 0.1,0 0.1,0 0,0.1 0.1,0 0,0.1 0.1,0 0.1,0 0,0.1 0.1,0 0.1,0 0,0.1 0.1,0 0.1,0 0,0.1 0.1,0 0,0.1 0.1,0 0.1,0 0,0.1 0.1,0 0.1,0 0,0.1 0.1,0 0.1,0 0,0.1 0.1,0 0,0.1 0.1,0 0.1,0 0,0.1 0.1,0 0.1,0 0,0.1 0.1,0 0.1,0 0,0.1 0.1,0 0,0.1 0.1,0 0.1,0 0,0.1 0.1,0 0.1,0 0,0.1 0.1,0 0.1,0 0,0.1 0.1,0 0,0.1 0.1,0 0.1,0 0,0.1 0.1,0 0.1,0 0,0.1 0.1,0 0.1,0 0,0.1 0.1,0 0,0.1 0.1,0 0.1,0 0,0.1 0.1,0 0.1,0 0,0.1 0.1,0 0.1,0 0,0.1 0.1,0 0,0.1 0.1,0 0.1,0 0,0.1 0.1,0 0.1,0 0,0.1 0.1,0 0.1,0 0,0.1 0.1,0 0,0.1 0.1,0 0.1,0 0,0.1 0.1,0 0.1,0 0,0.1 0.1,0 0.1,0 0,0.1 0.1,0 0,0.1 0.1,0 0.1,0 0,0.1 0.1,0 0.1,0 0,0.1 0.1,0 0.1,0 0,0.1 0.1,0 0,0.1 0.1,0 0.1,0 0,0.1 0.1,0 0.1,0 0,0.1 0.1,0 0.1,0 0,0.1 0.1,0 0,0.1 0.1,0 0.1,0 0,0.1 0.1,0 0.1,0 0,0.1 0.1,0 0.1,0 0,0.1 0.1,0 0,0.1 0.1,0 0.1,0 0,0.1 0.1,0 0.1,0 0,0.1 0.1,0 0.1,0 0,0.1 0.1,0 0,0.1 0.1,0 0.1,0 0,0.1 0.1,0 0.1,0 0,0.1 0.1,0 0.1,0 0,0.1 0.1,0 0,0.1 0.1,0 0.1,0 0,0.1 0.1,0 0.1,0 0,0.1 0.1,0 0.1,0 0,0.1 0.1,0 0,0.1 0.1,0 0.1,0 0,0.1 0.1,0 0.1,0 0,0.1 0.1,0 0.1,0 0,0.1 0.1,0 0,0.1 0.1,0 0.1,0 0,0.1 0.1,0 0.1,0 0,0.1 0.1,0 0.1,0 0,0.1 0.1,0 0,0.1 0.1,0 0.1,0 0,0.1 0.1,0 0.1,0 0,0.1 0.1,0 0.1,0 0,0.1 0.1,0 0,0.1 0.1,0 0.1,0 0,0.1 0.1,0 0.1,0 0,0.1 0.1,0 0.1,0 0,0.1 0.1,0 0,0.1 0.1,0 0.1,0 0,0.1 0.1,0 0.1,0 0,0.1 0.1,0 0.1,0 0,0.1 0.1,0 0,0.1 0.1,0 0.1,0 0,0.1 0.1,0 0.1,0 0,0.1 0.1,0 0.1,0 0,0.1 0.1,0 0,0.1 0.1,0 0.1,0 0,0.1 0.1,0 0.1,0 0,0.1 0.1,0 0.1,0 0,0.1 0.1,0 0,0.1 0.1,0 0.1,0 0,0.1 0.1,0 0.1,0 0,0.1 0.1,0 0.1,0 0,0.1 0.1,0 0,0.1 0.1,0 0.1,0 0,0.1 0.1,0 0.1,0 0,0.1 0.1,0 0.1,0 0,0.1 0.1,0 0,0.1 0.1,0 0.1,0 0,0.1 0.1,0 0.1,0 0,0.1 0.1,0 0.1,0 0,0.1 0.1,0 0,0.1 0.1,0 0.1,0 0,0.1 0.1,0 0.1,0 0,0.1 0.1,0 0.1,0 0,0.1 0.1,0 0,0.1 0.1,0 0.1,0 0,0.1 0.1,0 0.1,0 0,0.1 0.1,0 0.1,0 0,0.1 0.1,0 0,0.1 0.1,0 0.1,0 0,0.1 0.1,0 0.1,0 0,0.1 0.1,0 0.1,0 0,0.1 0.1,0 0,0.1 0.1,0 0.1,0 0,0.1 0.1,0 0.1,0 0,0.1 0.1,0 0.1,0 0,0.1 0.1,0 0,0.1 0.1,0 0.1,0 0,0.1 0.1,0 0.1,0 0,0.1 0.1,0 0.1,0 0,0.1 0.1,0 0,0.1 0.1,0 0.1,0 0,0.1 0.1,0 0.1,0 0,0.1 0.1,0 0.1,0 0,0.1 0.1,0 0,0.1 0.1,0 0.1,0 0,0.1 0.1,0 0.1,0 0,0.1 0.1,0 0.1,0 0,0.1 0.1,0 0,0.1 0.1,0 0.1,0 0,0.1 0.1,0 0.1,0 0,0.1 0.1,0 0.1,0 0,0.1 0.1,0 0,0.1 0.1,0 0.1,0 0,0.1 0.1,0 0.1,0 0,0.1 0.1,0 0.1,0 0,0.1 0.1,0 0,0.1 0.1,0 0.1,0 0,0.1 0.1,0 0.1,0 0,0.1 0.1,0 0.1,0 0,0.1 0.1,0 0,0.1 0.1,0 0.1,0 0,0.1 0.1,0 0.1,0 0,0.1 0.1,0 0.1,0 0,0.1 0.1,0 0,0.1 0.1,0 0.1,0 0,0.1 0.1,0 0.1,0 0,0.1 0.1,0 0.1,0 0,0.1 0.1,0 0,0.1 0.1,0 0.1,0 0,0.1 0.1,0 0.1,0 0,0.1 0.1,0 0.1,0 0,0.1 0.1,0 0,0.1 0.1,0 0.1,0 0,0.1 0.1,0 0.1,0 0,0.1 0.1,0 0.1,0 0,0.1 0.1,0 0,0.1 0.1,0 0.1,0 0,0.1 0.1,0 0.1,0 0,0.1 0.1,0 0.1,0 0,0.1 0.1,0 0,0.1 0.1,0 0.1,0 0,0.1 0.1,0 0.1,0 0,0.1 0.1,0 0.1,0 0,0.1 0.1,0 0,0.1 0.1,0 0.1,0 0,0.1 0.1,0 0.1,0 0,0.1 0.1,0 0.1,0 0,0.1 0.1,0 0,0.1 0.1,0 0.1,0 0,0.1 0.1,0 0.1,0 0,0.1 0.1,0 0.1,0 0,0.1 0.1,0 0,0.1 0.1,0 0.1,0 0,0.1 0.1,0 0.1,0 0,0.1 0.1,0 0.1,0 0,0.1 0.1,0 0,0.1 0.1,0 0.1,0 0,0.1 0.1,0 0.1,0 0,0.1 0.1,0 0.1,0 0,0.1 0.1,0 0,0.1 0.1,0 0.1,0 0,0.1 0.1,0 0.1,0 0,0.1 0.1,0 0.1,0 0,0.1 0.1,0 0,0.1 0.1,0 0.1,0 0,0.1 0.1,0 0.1,0 0,0.1 0.1,0 0.1,0 0,0.1 0.1,0 0,0.1 0.1,0 0.1,0 0,0.1 0.1,0 0.1,0 0,0.1 0.1,0 0.1,0 0,0.1 0.1,0 0,0.1 0.1,0 0.1,0 0,0.1 0.1,0 0.1,0 0,0.1 0.1,0 0.1,0 0,0.1 0.1,0 0,0.1 0.1,0 0.1,0 0,0.1 0.1,0 0.1,0 0,0.1 0.1,0 0.1,0 0,0.1 0.1,0 0,0.1 0.1,0 0.1,0 0,0.1 0.1,0 0.1,0 0,0.1 0.1,0 0.1,0 0,0.1 0.1,0 0,0.1 0.1,0 0.1,0 0,0.1 0.1,0 0.1,0 0,0.1 0.1,0 0.1,0 0,0.1 0.1,0 0,0.1 0.1,0 0.1,0 0,0.1 0.1,0 0.1,0 0,0.1 0.1,0 0.1,0 0,0.1 0.1,0 0,0.1 0.1,0 0.1,0 0,0.1 0.1,0 0.1,0 0,0.1 0.1,0 0.1,0 0,0.1 0.1,0 0,0.1 0.1,0 0.1,0 0,0.1 0.1,0 0.1,0 0,0.1 0.1,0 0.1,0 0,0.1 0.1,0 0,0.1 0.1,0 0.1,0 0,0.1 0.1,0 0.1,0 0,0.1 0.1,0 0.1,0 0,0.1 0.1,0 0,0.1 0.1,0 0.1,0 0,0.1 0.1,0 0.1,0 0,0.1 0.1,0 0.1,0 0,0.1 h 0.01"
           id="path3245"
           inkscape:connector-curvature="0" />
      </g>
    </g>
    <g
       id="gnuplot_plot_2a">
      <title
         id="title3248">gnuplot_plot_2a</title>
      <g
         style="color:#ff0000;fill:none;stroke:currentColor;stroke-width:0.5;stroke-linecap:butt;stroke-linejoin:miter"
         id="g3250">
        <g
           transform="translate(513.9,63.1)"
           style="font-size:12.5px;text-anchor:end;fill:#000000;stroke:none"
           id="g3252" />
      </g>
    </g>
    <g
       id="gnuplot_plot_3a">
      <title
         id="title3265">gnuplot_plot_3a</title>
      <g
         style="color:#ff0000;fill:none;stroke:currentColor;stroke-width:0.5;stroke-linecap:butt;stroke-linejoin:miter"
         id="g3267">
        <g
           transform="translate(513.9,75.1)"
           style="font-size:12.5px;text-anchor:end;fill:#000000;stroke:none"
           id="g3269" />
      </g>
    </g>
    <g
       id="gnuplot_plot_4a">
      <title
         id="title3282">gnuplot_plot_4a</title>
      <g
         style="color:#ff0000;fill:none;stroke:currentColor;stroke-width:0.5;stroke-linecap:butt;stroke-linejoin:miter"
         id="g3284">
        <g
           transform="translate(513.9,87.1)"
           style="font-size:12.5px;text-anchor:end;fill:#000000;stroke:none"
           id="g3286" />
      </g>
    </g>
    <g
       id="gnuplot_plot_5a">
      <title
         id="title3299">gnuplot_plot_5a</title>
      <g
         style="color:#ff0000;fill:none;stroke:currentColor;stroke-width:0.5;stroke-linecap:butt;stroke-linejoin:miter"
         id="g3301">
        <g
           transform="translate(513.9,99.1)"
           style="font-size:12.5px;text-anchor:end;fill:#000000;stroke:none"
           id="g3303" />
      </g>
    </g>
    <g
       id="gnuplot_plot_6a">
      <title
         id="title3316">gnuplot_plot_6a</title>
      <g
         style="color:#ff0000;fill:none;stroke:currentColor;stroke-width:0.5;stroke-linecap:butt;stroke-linejoin:miter"
         id="g3318">
        <g
           transform="translate(513.9,111.1)"
           style="font-size:12.5px;text-anchor:end;fill:#000000;stroke:none"
           id="g3320" />
      </g>
    </g>
    <g
       style="color:#000000;fill:none;stroke:currentColor;stroke-width:0.5;stroke-linecap:butt;stroke-linejoin:miter"
       id="g3332" />
  </g>
  <path
     style="fill:#808080;fill-opacity:1;stroke:#000000;stroke-width:2;stroke-linecap:butt;stroke-linejoin:miter;stroke-miterlimit:4;stroke-opacity:1;stroke-dasharray:none"
     d="m 262.93876,191.02041 0,202.04081 99.91836,0 0,-145.46938 -99.91836,-56.57143"
     id="path4586"
     inkscape:path-effect="#path-effect4588"
     inkscape:original-d="m 262.93876,191.02041 0,202.04081 99.91836,0 0,-145.46938 z"
     inkscape:connector-curvature="0" />
  <g
     id="g6890"
     transform="translate(7.9999911,0)">
    <text
       style="font-size:22.19013977px;text-anchor:middle;color:#000000;fill:#000000;stroke:none"
       y="416.91946"
       x="255.44385"
       id="text3224-8">
      <tspan
         id="tspan3226-1">k</tspan>
    </text>
    <text
       sodipodi:linespacing="125%"
       id="text6857"
       y="417.05692"
       x="260.4791"
       style="font-size:26.65496254px;font-style:normal;font-weight:normal;line-height:125%;letter-spacing:0px;word-spacing:0px;fill:#000000;fill-opacity:1;stroke:none;font-family:Bitstream Vera Sans"
       xml:space="preserve"><tspan
         y="417.05692"
         x="260.4791"
         id="tspan6859"
         sodipodi:role="line">*</tspan></text>
  </g>
  <g
     id="g6896"
     transform="translate(7.9999911,1.5456848)">
    <text
       style="font-size:22.19013977px;text-anchor:middle;color:#000000;fill:#000000;stroke:none"
       y="415.37378"
       x="349.01779"
       id="text3224-8-3">
      <tspan
         id="tspan3226-1-9">k</tspan>
    </text>
    <text
       sodipodi:linespacing="125%"
       id="text6857-2"
       y="415.51123"
       x="354.05301"
       style="font-size:26.65496254px;font-style:normal;font-weight:normal;text-align:start;line-height:125%;letter-spacing:0px;word-spacing:0px;writing-mode:lr-tb;text-anchor:start;fill:#000000;fill-opacity:1;stroke:none;font-family:Bitstream Vera Sans"
       xml:space="preserve"><tspan
         id="tspan6888"
         sodipodi:role="line"
         x="354.05301"
         y="415.51123">**</tspan></text>
  </g>
</svg>
