<?xml version="1.0" encoding="UTF-8" standalone="no"?>
<svg
   xmlns:dc="http://purl.org/dc/elements/1.1/"
   xmlns:cc="http://creativecommons.org/ns#"
   xmlns:rdf="http://www.w3.org/1999/02/22-rdf-syntax-ns#"
   xmlns:svg="http://www.w3.org/2000/svg"
   xmlns="http://www.w3.org/2000/svg"
   xmlns:xlink="http://www.w3.org/1999/xlink"
   xmlns:sodipodi="http://sodipodi.sourceforge.net/DTD/sodipodi-0.dtd"
   xmlns:inkscape="http://www.inkscape.org/namespaces/inkscape"
   width="768"
   height="576"
   viewBox="0 0 768 576"
   id="svg2"
   version="1.1"
   inkscape:version="0.48.3.1 r9886"
   sodipodi:docname="simplegoodturing_ulysses_words.pdf">
  <metadata
     id="metadata190">
    <rdf:RDF>
      <cc:Work
         rdf:about="">
        <dc:format>image/svg+xml</dc:format>
        <dc:type
           rdf:resource="http://purl.org/dc/dcmitype/StillImage" />
        <dc:title></dc:title>
      </cc:Work>
    </rdf:RDF>
  </metadata>
  <sodipodi:namedview
     pagecolor="#ffffff"
     bordercolor="#666666"
     borderopacity="1"
     objecttolerance="10"
     gridtolerance="10"
     guidetolerance="10"
     inkscape:pageopacity="0"
     inkscape:pageshadow="2"
     inkscape:window-width="1255"
     inkscape:window-height="702"
     id="namedview188"
     showgrid="false"
     inkscape:zoom="0.83224826"
     inkscape:cx="321.74834"
     inkscape:cy="288"
     inkscape:window-x="0"
     inkscape:window-y="24"
     inkscape:window-maximized="0"
     inkscape:current-layer="svg2" />
  <desc
     id="desc4">Produced by GNUPLOT 4.4 patchlevel 3 </desc>
  <defs
     id="defs6">
    <circle
       id="gpDot"
       r="0.5"
       stroke-width="0.5" />
    <path
       id="gpPt0"
       stroke-width="0.222"
       stroke="currentColor"
       d="M-1,0 h2 M0,-1 v2" />
    <path
       id="gpPt1"
       stroke-width="0.222"
       stroke="currentColor"
       d="M-1,-1 L1,1 M1,-1 L-1,1" />
    <path
       id="gpPt2"
       stroke-width="0.222"
       stroke="currentColor"
       d="M-1,0 L1,0 M0,-1 L0,1 M-1,-1 L1,1 M-1,1 L1,-1" />
    <rect
       id="gpPt3"
       stroke-width="0.222"
       stroke="currentColor"
       x="-1"
       y="-1"
       width="2"
       height="2" />
    <rect
       id="gpPt4"
       stroke-width="0.222"
       stroke="currentColor"
       fill="currentColor"
       x="-1"
       y="-1"
       width="2"
       height="2" />
    <circle
       id="gpPt5"
       stroke-width="0.222"
       stroke="currentColor"
       cx="0"
       cy="0"
       r="1" />
    <use
       xlink:href="#gpPt5"
       id="gpPt6"
       fill="currentColor"
       stroke="none" />
    <path
       id="gpPt7"
       stroke-width="0.222"
       stroke="currentColor"
       d="M0,-1.33 L-1.33,0.67 L1.33,0.67 z" />
    <use
       xlink:href="#gpPt7"
       id="gpPt8"
       fill="currentColor"
       stroke="none" />
    <use
       xlink:href="#gpPt7"
       id="gpPt9"
       stroke="currentColor"
       transform="rotate(180)" />
    <use
       xlink:href="#gpPt9"
       id="gpPt10"
       fill="currentColor"
       stroke="none" />
    <use
       xlink:href="#gpPt3"
       id="gpPt11"
       stroke="currentColor"
       transform="rotate(45)" />
    <use
       xlink:href="#gpPt11"
       id="gpPt12"
       fill="currentColor"
       stroke="none" />
  </defs>
  <g
     style="fill:none; color:white; stroke:currentColor; stroke-width:1.00; stroke-linecap:butt; stroke-linejoin:miter"
     id="g22" />
  <g
     style="fill:none; color:white; stroke:currentColor; stroke-width:0.50; stroke-linecap:butt; stroke-linejoin:miter"
     id="g24" />
  <g
     style="fill:none; color:black; stroke:currentColor; stroke-width:0.50; stroke-linecap:butt; stroke-linejoin:miter"
     id="g26">
    <path
       d="M99.8,512.7 L112.3,512.7 M694.9,512.7 L682.4,512.7 "
       id="path28" />
    <g
       transform="translate(91.5,517.2)"
       style="stroke:none; fill:rgb(0,0,0); font-family:Arial; font-size:12.00pt; text-anchor:end"
       id="g30">
      <text
         id="text32">
        <tspan
           id="tspan34">10</tspan>
        <tspan
           font-size="9.6pt"
           dy="-6.00pt"
           id="tspan36">0</tspan>
        <tspan
           font-size="12.0pt"
           dy="6.00pt"
           id="tspan38" />
      </text>
    </g>
    <path
       d="M99.8,418.8 L112.3,418.8 M694.9,418.8 L682.4,418.8 "
       id="path40"
       style="stroke-width:1.5;stroke-miterlimit:4;stroke-dasharray:none" />
    <g
       transform="translate(91.5,423.3)"
       style="stroke:none; fill:rgb(0,0,0); font-family:Arial; font-size:12.00pt; text-anchor:end"
       id="g42">
      <text
         id="text44">
        <tspan
           id="tspan46">10</tspan>
        <tspan
           font-size="9.6pt"
           dy="-6.00pt"
           id="tspan48">1</tspan>
        <tspan
           font-size="12.0pt"
           dy="6.00pt"
           id="tspan50" />
      </text>
    </g>
    <path
       d="M99.8,324.9 L112.3,324.9 M694.9,324.9 L682.4,324.9 "
       id="path52"
       style="stroke-width:1.5;stroke-miterlimit:4;stroke-dasharray:none" />
    <g
       transform="translate(91.5,329.4)"
       style="stroke:none; fill:rgb(0,0,0); font-family:Arial; font-size:12.00pt; text-anchor:end"
       id="g54">
      <text
         id="text56">
        <tspan
           id="tspan58">10</tspan>
        <tspan
           font-size="9.6pt"
           dy="-6.00pt"
           id="tspan60">2</tspan>
        <tspan
           font-size="12.0pt"
           dy="6.00pt"
           id="tspan62" />
      </text>
    </g>
    <path
       d="M99.8,231.1 L112.3,231.1 M694.9,231.1 L682.4,231.1 "
       id="path64"
       style="stroke-width:1.5;stroke-miterlimit:4;stroke-dasharray:none" />
    <g
       transform="translate(91.5,235.6)"
       style="stroke:none; fill:rgb(0,0,0); font-family:Arial; font-size:12.00pt; text-anchor:end"
       id="g66">
      <text
         id="text68">
        <tspan
           id="tspan70">10</tspan>
        <tspan
           font-size="9.6pt"
           dy="-6.00pt"
           id="tspan72">3</tspan>
        <tspan
           font-size="12.0pt"
           dy="6.00pt"
           id="tspan74" />
      </text>
    </g>
    <path
       d="M99.8,137.2 L112.3,137.2 M694.9,137.2 L682.4,137.2 "
       id="path76"
       style="stroke-width:1.5;stroke-miterlimit:4;stroke-dasharray:none" />
    <g
       transform="translate(91.5,141.7)"
       style="stroke:none; fill:rgb(0,0,0); font-family:Arial; font-size:12.00pt; text-anchor:end"
       id="g78">
      <text
         id="text80">
        <tspan
           id="tspan82">10</tspan>
        <tspan
           font-size="9.6pt"
           dy="-6.00pt"
           id="tspan84">4</tspan>
        <tspan
           font-size="12.0pt"
           dy="6.00pt"
           id="tspan86" />
      </text>
    </g>
    <path
       d="M99.8,43.3 L112.3,43.3 M694.9,43.3 L682.4,43.3 "
       id="path88" />
    <g
       transform="translate(91.5,47.8)"
       style="stroke:none; fill:rgb(0,0,0); font-family:Arial; font-size:12.00pt; text-anchor:end"
       id="g90">
      <text
         id="text92">
        <tspan
           id="tspan94">10</tspan>
        <tspan
           font-size="9.6pt"
           dy="-6.00pt"
           id="tspan96">5</tspan>
        <tspan
           font-size="12.0pt"
           dy="6.00pt"
           id="tspan98" />
      </text>
    </g>
    <path
       d="M99.8,512.7 L99.8,500.2 M99.8,43.3 L99.8,55.8 "
       id="path100" />
    <g
       transform="translate(99.8,535.2)"
       style="stroke:none; fill:rgb(0,0,0); font-family:Arial; font-size:12.00pt; text-anchor:middle"
       id="g102">
      <text
         id="text104">
        <tspan
           id="tspan106">10</tspan>
        <tspan
           font-size="9.6pt"
           dy="-6.00pt"
           id="tspan108">0</tspan>
        <tspan
           font-size="12.0pt"
           dy="6.00pt"
           id="tspan110" />
      </text>
    </g>
    <path
       d="M298.2,512.7 L298.2,500.2 M298.2,43.3 L298.2,55.8 "
       id="path112"
       style="stroke-width:1.5;stroke-miterlimit:4;stroke-dasharray:none" />
    <g
       transform="translate(298.2,535.2)"
       style="stroke:none; fill:rgb(0,0,0); font-family:Arial; font-size:12.00pt; text-anchor:middle"
       id="g114">
      <text
         id="text116">
        <tspan
           id="tspan118">10</tspan>
        <tspan
           font-size="9.6pt"
           dy="-6.00pt"
           id="tspan120">1</tspan>
        <tspan
           font-size="12.0pt"
           dy="6.00pt"
           id="tspan122" />
      </text>
    </g>
    <path
       d="M496.5,512.7 L496.5,500.2 M496.5,43.3 L496.5,55.8 "
       id="path124"
       style="stroke-width:1.5;stroke-miterlimit:4;stroke-dasharray:none" />
    <g
       transform="translate(496.5,535.2)"
       style="stroke:none; fill:rgb(0,0,0); font-family:Arial; font-size:12.00pt; text-anchor:middle"
       id="g126">
      <text
         id="text128">
        <tspan
           id="tspan130">10</tspan>
        <tspan
           font-size="9.6pt"
           dy="-6.00pt"
           id="tspan132">2</tspan>
        <tspan
           font-size="12.0pt"
           dy="6.00pt"
           id="tspan134" />
      </text>
    </g>
    <path
       d="M694.9,512.7 L694.9,500.2 M694.9,43.3 L694.9,55.8 "
       id="path136" />
    <g
       transform="translate(694.9,535.2)"
       style="stroke:none; fill:rgb(0,0,0); font-family:Arial; font-size:12.00pt; text-anchor:middle"
       id="g138">
      <text
         id="text140">
        <tspan
           id="tspan142">10</tspan>
        <tspan
           font-size="9.6pt"
           dy="-6.00pt"
           id="tspan144">3</tspan>
        <tspan
           font-size="12.0pt"
           dy="6.00pt"
           id="tspan146" />
      </text>
    </g>
    <path
       d="M99.8,43.3 L99.8,512.7 L694.9,512.7 L694.9,43.3 L99.8,43.3 Z "
       id="path148"
       style="stroke-width:1.5;stroke-miterlimit:4;stroke-dasharray:none" />
    <g
       transform="translate(62.1,278.0) rotate(-90)"
       style="stroke:none; fill:rgb(0,0,0); font-family:Arial; font-size:12.00pt; text-anchor:middle"
       id="g150">
      <text
         id="text152"
         x="-0.97642416"
         y="6.3853002"
         style="font-size:32.54137421px">
        <tspan
           id="tspan154">Nf</tspan>
      </text>
    </g>
    <g
       transform="translate(397.3,562.2)"
       style="stroke:none; fill:rgb(0,0,0); font-family:Arial; font-size:12.00pt; text-anchor:middle"
       id="g156">
      <text
         id="text158"
         x="-0.36667463"
         y="6.0078225"
         style="font-size:31.5043869px">
        <tspan
           id="tspan160">f</tspan>
      </text>
    </g>
  </g>
  <a
     xlink:title="Plot #1"
     id="a162">
    <g
       style="fill:none; color:red; stroke:currentColor; stroke-width:0.50; stroke-linecap:butt; stroke-linejoin:miter"
       id="g164">
      <g
         transform="translate(627.8,65.8)"
         style="stroke:none; fill:black; font-family:Arial; font-size:12.00pt; text-anchor:end"
         id="g166">
        <text
           id="text168">
          <tspan
             id="tspan170">original</tspan>
        </text>
      </g>
      <path
         stroke="rgb(255,   0,   0)"
         d="M636.1,61.3 L678.3,61.3 M99.8,118.7 L159.5,168.2 L194.4,199.0 L219.2,221.1 L238.5,235.8 L254.2,250.7    L267.4,259.4 L278.9,274.4 L289.1,278.7 L298.2,289.4 L306.4,295.3 L313.9,304.5 L320.8,308.1 L327.2,318.5    L333.1,327.0 L338.7,327.9 L343.9,331.1 L348.8,338.9 L353.5,349.3 L357.9,338.3 L362.1,350.1 L366.1,354.0    L369.9,362.3 L373.6,359.3 L377.1,357.5 L380.5,356.6 L383.7,360.3 L386.9,379.9 L389.9,384.9 L392.8,379.9    L395.6,384.9 L398.4,383.1 L401.0,376.8 L403.6,394.9 L406.1,397.2 L408.5,378.3 L410.9,386.7 L413.2,390.6    L415.4,388.6 L417.6,402.3 L419.7,394.9 L421.8,394.9 L423.8,394.9 L425.8,402.3 L427.7,399.7 L429.6,394.9    L431.5,414.9 L433.3,402.3 L435.1,427.9 L436.8,405.1 L438.5,414.9 L440.2,399.7 L441.8,433.4 L443.4,433.4    L445.0,427.9 L446.6,408.1 L448.1,423.1 L449.6,414.9 L451.1,418.8 L452.5,467.9 L453.9,439.6 L455.4,423.1    L456.7,447.1 L458.1,447.1 L459.4,484.4 L460.7,423.1 L462.0,467.9 L463.3,418.8 L464.6,467.9 L465.8,467.9    L467.0,456.2 L468.2,447.1 L469.4,467.9 L470.6,467.9 L471.7,456.2 L472.9,439.6 L474.0,439.6 L475.1,484.4    L476.2,433.4 L478.4,427.9 L479.4,447.1 L480.5,467.9 L481.5,484.4 L482.5,467.9 L483.5,456.2 L485.5,467.9    L486.5,447.1 L487.5,423.1 L489.4,484.4 L490.3,512.7 L491.2,484.4 L493.0,512.7 L493.9,456.2 L494.8,484.4    L496.5,484.4 L497.4,484.4 L498.2,512.7 L499.9,439.6 L500.7,467.9 L501.6,467.9 L502.4,456.2 L503.2,467.9    L504.7,467.9 L506.3,512.7 L507.1,512.7 L507.8,467.9 L508.6,456.2 L509.3,447.1 L510.1,467.9 L510.8,484.4    L511.5,512.7 L512.2,512.7 L513.0,484.4 L513.7,447.1 L514.4,512.7 L515.1,484.4 L515.8,512.7 L516.4,484.4    L517.1,447.1 L517.8,512.7 L518.5,484.4 L519.8,512.7 L520.5,484.4 L521.1,484.4 L521.7,467.9 L522.4,484.4    L523.0,512.7 L523.7,512.7 L524.9,512.7 L525.5,512.7 L526.1,456.2 L526.7,467.9 L527.9,512.7 L529.1,467.9    L530.9,484.4 L532.6,512.7 L533.2,512.7 L533.7,512.7 L534.3,484.4 L535.4,512.7 L537.0,512.7 L537.6,512.7    L538.6,484.4 L539.2,512.7 L539.7,512.7 L540.2,512.7 L540.7,512.7 L541.2,484.4 L541.7,512.7 L542.8,484.4    L543.3,512.7 L544.3,467.9 L544.7,484.4 L545.2,467.9 L545.7,484.4 L546.2,512.7 L547.6,512.7 L548.1,467.9    L548.6,512.7 L550.0,512.7 L550.5,512.7 L552.7,484.4 L554.1,512.7 L554.5,512.7 L554.9,512.7 L555.4,512.7    L555.8,512.7 L556.2,484.4 L557.5,512.7 L558.0,484.4 L558.4,512.7 L558.8,512.7 L560.9,512.7 L562.9,512.7    L563.7,512.7 L564.1,512.7 L564.5,484.4 L565.2,467.9 L567.2,512.7 L567.5,512.7 L567.9,512.7 L568.7,512.7    L570.1,484.4 L570.5,512.7 L571.6,512.7 L572.0,512.7 L572.3,512.7 L573.7,512.7 L574.4,512.7 L575.1,512.7    L575.5,512.7 L576.5,484.4 L577.2,484.4 L577.5,512.7 L580.5,512.7 L582.4,512.7 L583.7,512.7 L584.3,512.7    L584.6,484.4 L588.3,484.4 L588.6,512.7 L589.1,512.7 L589.7,512.7 L590.0,512.7 L590.6,512.7 L592.0,512.7    L592.6,512.7 L593.7,512.7 L594.6,512.7 L595.7,512.7 L595.9,484.4 L597.0,512.7 L598.9,512.7 L599.1,512.7    L599.4,512.7 L600.4,484.4 L606.2,512.7 L606.9,512.7 L607.4,512.7 L609.5,512.7 L611.5,512.7 L612.7,512.7    L613.6,512.7 L616.6,512.7 L621.8,512.7 L623.2,512.7 L624.4,484.4 L624.8,512.7 L625.9,512.7 L626.5,512.7    L626.9,512.7 L630.4,512.7 L630.6,512.7 L633.4,512.7 L633.8,512.7 L634.5,512.7 L636.9,512.7 L638.7,512.7    L639.4,512.7 L642.1,512.7 L643.7,512.7 L644.2,512.7 L645.6,512.7 L646.6,512.7 L647.8,512.7 L651.2,512.7    L653.6,512.7 L659.0,512.7 L660.7,512.7 L660.9,512.7 L662.8,512.7 L664.0,512.7 L664.4,512.7 L666.5,512.7    L666.6,512.7 L667.9,512.7 L669.1,512.7 L674.9,512.7 L677.2,512.7 L678.8,512.7 L679.7,512.7 L685.6,512.7    L685.7,512.7 L687.2,512.7 L690.2,512.7 L692.8,512.7 L694.8,512.7 L694.9,512.7 "
         id="path172"
         style="stroke:#000000;stroke-opacity:1;stroke-width:2.5;stroke-miterlimit:4;stroke-dasharray:5,2.5;stroke-dashoffset:0" />
    </g>
  </a>
  <a
     xlink:title="Plot #2"
     id="a174">
    <g
       style="fill:none; color:green; stroke:currentColor; stroke-width:0.50; stroke-linecap:butt; stroke-linejoin:miter"
       id="g176">
      <g
         transform="translate(627.8,83.8)"
         style="stroke:none; fill:black; font-family:Arial; font-size:12.00pt; text-anchor:end"
         id="g178">
        <text
           id="text180">
          <tspan
             id="tspan182">smoothed</tspan>
        </text>
      </g>
      <path
         stroke="rgb(  0,   0, 255)"
         d="M636.1,79.3 L678.3,79.3 M99.8,127.8 L152.6,168.2 L189.6,199.0 L215.4,221.1 L235.4,235.8 L251.5,250.7    L265.2,259.4 L276.9,274.4 L287.3,278.7 L296.5,289.4 L304.9,295.3 L312.5,304.5 L319.5,308.1 L326.0,318.5    L332.0,327.0 L337.6,327.9 L342.9,331.1 L347.9,338.9 L352.6,349.3 L357.1,338.3 L361.3,350.1 L365.3,354.0    L369.2,362.3 L372.9,359.3 L376.4,357.5 L379.8,356.6 L383.1,360.3 L386.3,379.9 L389.3,384.9 L392.3,379.9    L395.1,384.9 L397.8,383.1 L400.5,376.8 L403.1,394.9 L405.6,397.2 L408.1,378.3 L410.4,386.7 L412.7,390.6    L415.0,388.6 L417.2,402.3 L419.3,394.9 L421.4,394.9 L423.4,394.9 L425.4,402.3 L427.4,399.7 L429.3,394.9    L431.1,414.9 L433.0,402.3 L434.7,427.9 L436.5,405.1 L438.2,414.9 L439.9,399.7 L441.5,433.4 L443.1,433.4    L444.7,427.9 L446.3,408.1 L447.8,423.1 L449.3,414.9 L450.8,418.8 L452.2,467.9 L453.7,439.6 L455.1,423.1    L456.5,447.1 L457.8,447.1 L459.2,484.4 L460.5,423.1 L461.8,467.9 L463.1,418.8 L464.3,467.9 L465.6,467.9    L466.8,456.2 L468.0,447.1 L469.2,467.9 L470.4,467.9 L471.5,456.2 L472.7,439.6 L473.8,439.6 L474.9,484.4    L476.0,433.4 L478.2,427.9 L479.2,447.1 L480.3,467.9 L481.3,484.4 L482.3,467.9 L483.3,456.2 L485.3,467.9    L486.3,447.1 L487.3,423.1 L489.2,484.4 L490.1,512.7 L491.0,484.4 L492.8,512.7 L493.7,456.2 L494.6,484.4    L496.4,484.4 L497.2,484.4 L498.1,512.7 L499.7,439.6 L500.6,467.9 L501.4,467.9 L502.2,456.2 L503.0,467.9    L504.6,467.9 L506.1,512.7 L506.9,512.7 L507.7,467.9 L508.4,456.2 L509.2,447.1 L509.9,467.9 L510.6,484.4    L511.4,512.7 L512.1,512.7 L512.8,484.4 L513.5,447.1 L514.2,512.7 L514.9,484.4 L515.6,512.7 L516.3,484.4    L517.0,447.1 L517.7,512.7 L518.3,484.4 L519.7,512.7 L520.3,484.4 L521.0,484.4 L521.6,467.9 L522.3,484.4    L522.9,512.7 L523.5,512.7 L524.8,512.7 L525.4,512.7 L526.0,456.2 L526.6,467.9 L527.8,512.7 L529.0,467.9    L530.8,484.4 L532.5,512.7 L533.1,512.7 L533.6,512.7 L534.2,484.4 L535.3,512.7 L536.9,512.7 L537.5,512.7    L538.5,484.4 L539.0,512.7 L539.6,512.7 L540.1,512.7 L540.6,512.7 L541.1,484.4 L541.6,512.7 L542.7,484.4    L543.2,512.7 L544.2,467.9 L544.6,484.4 L545.1,467.9 L545.6,484.4 L546.1,512.7 L547.6,512.7 L548.0,467.9    L548.5,512.7 L549.9,512.7 L550.4,512.7 L552.6,484.4 L554.0,512.7 L554.4,512.7 L554.9,512.7 L555.3,512.7    L555.7,512.7 L556.2,484.4 L557.4,512.7 L557.9,484.4 L558.3,512.7 L558.7,512.7 L560.8,512.7 L562.8,512.7    L563.6,512.7 L564.0,512.7 L564.4,484.4 L565.2,467.9 L567.1,512.7 L567.5,512.7 L567.8,512.7 L568.6,512.7    L570.1,484.4 L570.4,512.7 L571.5,512.7 L571.9,512.7 L572.2,512.7 L573.7,512.7 L574.4,512.7 L575.1,512.7    L575.4,512.7 L576.4,484.4 L577.1,484.4 L577.4,512.7 L580.4,512.7 L582.4,512.7 L583.6,512.7 L584.2,512.7    L584.6,484.4 L588.2,484.4 L588.5,512.7 L589.1,512.7 L589.7,512.7 L590.0,512.7 L590.5,512.7 L592.0,512.7    L592.5,512.7 L593.7,512.7 L594.5,512.7 L595.6,512.7 L595.9,484.4 L597.0,512.7 L598.8,512.7 L599.1,512.7    L599.3,512.7 L600.4,484.4 L606.1,512.7 L606.8,512.7 L607.3,512.7 L609.4,512.7 L611.5,512.7 L612.6,512.7    L613.5,512.7 L616.6,512.7 L621.8,512.7 L623.1,512.7 L624.3,484.4 L624.7,512.7 L625.9,512.7 L626.5,512.7    L626.8,512.7 L630.4,512.7 L630.5,512.7 L633.4,512.7 L633.8,512.7 L634.5,512.7 L636.9,512.7 L638.7,512.7    L639.4,512.7 L642.1,512.7 L643.7,512.7 L644.1,512.7 L645.5,512.7 L646.6,512.7 L647.8,512.7 L651.2,512.7    L653.6,512.7 L658.9,512.7 L660.6,512.7 L660.9,512.7 L662.8,512.7 L664.0,512.7 L664.4,512.7 L666.5,512.7    L666.6,512.7 L667.9,512.7 L669.1,512.7 L674.9,512.7 L677.1,512.7 L678.8,512.7 L679.7,512.7 L685.6,512.7    L685.7,512.7 L687.1,512.7 L690.2,512.7 L692.8,512.7 L694.8,512.7 L694.9,512.7 "
         id="path184"
         style="stroke-width:2;stroke-miterlimit:4;stroke-dasharray:none;stroke:#000000;stroke-opacity:1" />
    </g>
  </a>
  <g
     style="fill:none; color:black; stroke:currentColor; stroke-width:0.50; stroke-linecap:butt; stroke-linejoin:miter"
     id="g186" />
</svg>
