<?xml version="1.0" encoding="UTF-8" standalone="no"?>
<svg
   xmlns:dc="http://purl.org/dc/elements/1.1/"
   xmlns:cc="http://creativecommons.org/ns#"
   xmlns:rdf="http://www.w3.org/1999/02/22-rdf-syntax-ns#"
   xmlns:svg="http://www.w3.org/2000/svg"
   xmlns="http://www.w3.org/2000/svg"
   xmlns:xlink="http://www.w3.org/1999/xlink"
   xmlns:sodipodi="http://sodipodi.sourceforge.net/DTD/sodipodi-0.dtd"
   xmlns:inkscape="http://www.inkscape.org/namespaces/inkscape"
   width="768"
   height="576"
   viewBox="0 0 768 576"
   id="svg2985"
   version="1.1"
   inkscape:version="0.48.3.1 r9886"
   sodipodi:docname="ulysses_words_zipf_sgt_smoothed_prob.svg">
  <metadata
     id="metadata3197">
    <rdf:RDF>
      <cc:Work
         rdf:about="">
        <dc:format>image/svg+xml</dc:format>
        <dc:type
           rdf:resource="http://purl.org/dc/dcmitype/StillImage" />
      </cc:Work>
    </rdf:RDF>
  </metadata>
  <sodipodi:namedview
     pagecolor="#ffffff"
     bordercolor="#666666"
     borderopacity="1"
     objecttolerance="10"
     gridtolerance="10"
     guidetolerance="10"
     inkscape:pageopacity="0"
     inkscape:pageshadow="2"
     inkscape:window-width="1196"
     inkscape:window-height="751"
     id="namedview3195"
     showgrid="false"
     inkscape:zoom="0.91707357"
     inkscape:cx="369.90687"
     inkscape:cy="288"
     inkscape:window-x="0"
     inkscape:window-y="0"
     inkscape:window-maximized="0"
     inkscape:current-layer="svg2985" />
  <desc
     id="desc2987">Produced by GNUPLOT 4.4 patchlevel 3 </desc>
  <defs
     id="defs2989">
    <circle
       id="gpDot"
       r="0.5"
       stroke-width="0.5" />
    <path
       id="gpPt0"
       stroke-width="0.222"
       stroke="currentColor"
       d="M-1,0 h2 M0,-1 v2" />
    <path
       id="gpPt1"
       stroke-width="0.222"
       stroke="currentColor"
       d="M-1,-1 L1,1 M1,-1 L-1,1" />
    <path
       id="gpPt2"
       stroke-width="0.222"
       stroke="currentColor"
       d="M-1,0 L1,0 M0,-1 L0,1 M-1,-1 L1,1 M-1,1 L1,-1" />
    <rect
       id="gpPt3"
       stroke-width="0.222"
       stroke="currentColor"
       x="-1"
       y="-1"
       width="2"
       height="2" />
    <rect
       id="gpPt4"
       stroke-width="0.222"
       stroke="currentColor"
       fill="currentColor"
       x="-1"
       y="-1"
       width="2"
       height="2" />
    <circle
       id="gpPt5"
       stroke-width="0.222"
       stroke="currentColor"
       cx="0"
       cy="0"
       r="1" />
    <use
       xlink:href="#gpPt5"
       id="gpPt6"
       fill="currentColor"
       stroke="none" />
    <path
       id="gpPt7"
       stroke-width="0.222"
       stroke="currentColor"
       d="M0,-1.33 L-1.33,0.67 L1.33,0.67 z" />
    <use
       xlink:href="#gpPt7"
       id="gpPt8"
       fill="currentColor"
       stroke="none" />
    <use
       xlink:href="#gpPt7"
       id="gpPt9"
       stroke="currentColor"
       transform="rotate(180)" />
    <use
       xlink:href="#gpPt9"
       id="gpPt10"
       fill="currentColor"
       stroke="none" />
    <use
       xlink:href="#gpPt3"
       id="gpPt11"
       stroke="currentColor"
       transform="rotate(45)" />
    <use
       xlink:href="#gpPt11"
       id="gpPt12"
       fill="currentColor"
       stroke="none" />
  </defs>
  <g
     style="fill:none; color:white; stroke:currentColor; stroke-width:1.00; stroke-linecap:butt; stroke-linejoin:miter"
     id="g3005" />
  <g
     style="fill:none; color:white; stroke:currentColor; stroke-width:0.50; stroke-linecap:butt; stroke-linejoin:miter"
     id="g3007" />
  <g
     style="fill:none; color:black; stroke:currentColor; stroke-width:0.50; stroke-linecap:butt; stroke-linejoin:miter"
     id="g3009">
    <path
       d="M99.8,512.7 L112.3,512.7 M694.9,512.7 L682.4,512.7 "
       id="path3011" />
    <g
       transform="translate(91.5,517.2)"
       style="stroke:none; fill:rgb(0,0,0); font-family:Arial; font-size:12.00pt; text-anchor:end"
       id="g3013">
      <text
         id="text3015">
        <tspan
           id="tspan3017">10</tspan>
        <tspan
           font-size="9.6pt"
           dy="-6.00pt"
           id="tspan3019">-6</tspan>
        <tspan
           font-size="12.0pt"
           dy="6.00pt"
           id="tspan3021" />
      </text>
    </g>
    <path
       d="M99.8,418.8 L112.3,418.8 M694.9,418.8 L682.4,418.8 "
       id="path3023"
       style="stroke-width:2;stroke-miterlimit:4;stroke-dasharray:none" />
    <g
       transform="translate(91.5,423.3)"
       style="stroke:none; fill:rgb(0,0,0); font-family:Arial; font-size:12.00pt; text-anchor:end"
       id="g3025">
      <text
         id="text3027">
        <tspan
           id="tspan3029">10</tspan>
        <tspan
           font-size="9.6pt"
           dy="-6.00pt"
           id="tspan3031">-5</tspan>
        <tspan
           font-size="12.0pt"
           dy="6.00pt"
           id="tspan3033" />
      </text>
    </g>
    <path
       d="M99.8,324.9 L112.3,324.9 M694.9,324.9 L682.4,324.9 "
       id="path3035"
       style="stroke-width:2;stroke-miterlimit:4;stroke-dasharray:none" />
    <g
       transform="translate(91.5,329.4)"
       style="stroke:none; fill:rgb(0,0,0); font-family:Arial; font-size:12.00pt; text-anchor:end"
       id="g3037">
      <text
         id="text3039">
        <tspan
           id="tspan3041">10</tspan>
        <tspan
           font-size="9.6pt"
           dy="-6.00pt"
           id="tspan3043">-4</tspan>
        <tspan
           font-size="12.0pt"
           dy="6.00pt"
           id="tspan3045" />
      </text>
    </g>
    <path
       d="M99.8,231.1 L112.3,231.1 M694.9,231.1 L682.4,231.1 "
       id="path3047"
       style="stroke-width:2;stroke-miterlimit:4;stroke-dasharray:none" />
    <g
       transform="translate(91.5,235.6)"
       style="stroke:none; fill:rgb(0,0,0); font-family:Arial; font-size:12.00pt; text-anchor:end"
       id="g3049">
      <text
         id="text3051">
        <tspan
           id="tspan3053">10</tspan>
        <tspan
           font-size="9.6pt"
           dy="-6.00pt"
           id="tspan3055">-3</tspan>
        <tspan
           font-size="12.0pt"
           dy="6.00pt"
           id="tspan3057" />
      </text>
    </g>
    <path
       d="M99.8,137.2 L112.3,137.2 M694.9,137.2 L682.4,137.2 "
       id="path3059"
       style="stroke-width:2;stroke-miterlimit:4;stroke-dasharray:none" />
    <g
       transform="translate(91.5,141.7)"
       style="stroke:none; fill:rgb(0,0,0); font-family:Arial; font-size:12.00pt; text-anchor:end"
       id="g3061">
      <text
         id="text3063">
        <tspan
           id="tspan3065">10</tspan>
        <tspan
           font-size="9.6pt"
           dy="-6.00pt"
           id="tspan3067">-2</tspan>
        <tspan
           font-size="12.0pt"
           dy="6.00pt"
           id="tspan3069" />
      </text>
    </g>
    <path
       d="M99.8,43.3 L112.3,43.3 M694.9,43.3 L682.4,43.3 "
       id="path3071" />
    <g
       transform="translate(91.5,47.8)"
       style="stroke:none; fill:rgb(0,0,0); font-family:Arial; font-size:12.00pt; text-anchor:end"
       id="g3073">
      <text
         id="text3075">
        <tspan
           id="tspan3077">10</tspan>
        <tspan
           font-size="9.6pt"
           dy="-6.00pt"
           id="tspan3079">-1</tspan>
        <tspan
           font-size="12.0pt"
           dy="6.00pt"
           id="tspan3081" />
      </text>
    </g>
    <path
       d="M99.8,512.7 L99.8,500.2 M99.8,43.3 L99.8,55.8 "
       id="path3083" />
    <g
       transform="translate(99.8,535.2)"
       style="stroke:none; fill:rgb(0,0,0); font-family:Arial; font-size:12.00pt; text-anchor:middle"
       id="g3085">
      <text
         id="text3087">
        <tspan
           id="tspan3089">10</tspan>
        <tspan
           font-size="9.6pt"
           dy="-6.00pt"
           id="tspan3091">0</tspan>
        <tspan
           font-size="12.0pt"
           dy="6.00pt"
           id="tspan3093" />
      </text>
    </g>
    <path
       d="M218.8,512.7 L218.8,500.2 M218.8,43.3 L218.8,55.8 "
       id="path3095"
       style="stroke-width:2;stroke-miterlimit:4;stroke-dasharray:none" />
    <g
       transform="translate(218.8,535.2)"
       style="stroke:none; fill:rgb(0,0,0); font-family:Arial; font-size:12.00pt; text-anchor:middle"
       id="g3097">
      <text
         id="text3099">
        <tspan
           id="tspan3101">10</tspan>
        <tspan
           font-size="9.6pt"
           dy="-6.00pt"
           id="tspan3103">1</tspan>
        <tspan
           font-size="12.0pt"
           dy="6.00pt"
           id="tspan3105" />
      </text>
    </g>
    <path
       d="M337.8,512.7 L337.8,500.2 M337.8,43.3 L337.8,55.8 "
       id="path3107"
       style="stroke-width:2;stroke-miterlimit:4;stroke-dasharray:none" />
    <g
       transform="translate(337.8,535.2)"
       style="stroke:none; fill:rgb(0,0,0); font-family:Arial; font-size:12.00pt; text-anchor:middle"
       id="g3109">
      <text
         id="text3111">
        <tspan
           id="tspan3113">10</tspan>
        <tspan
           font-size="9.6pt"
           dy="-6.00pt"
           id="tspan3115">2</tspan>
        <tspan
           font-size="12.0pt"
           dy="6.00pt"
           id="tspan3117" />
      </text>
    </g>
    <path
       d="M456.9,512.7 L456.9,500.2 M456.9,43.3 L456.9,55.8 "
       id="path3119"
       style="stroke-width:2;stroke-miterlimit:4;stroke-dasharray:none" />
    <g
       transform="translate(456.9,535.2)"
       style="stroke:none; fill:rgb(0,0,0); font-family:Arial; font-size:12.00pt; text-anchor:middle"
       id="g3121">
      <text
         id="text3123">
        <tspan
           id="tspan3125">10</tspan>
        <tspan
           font-size="9.6pt"
           dy="-6.00pt"
           id="tspan3127">3</tspan>
        <tspan
           font-size="12.0pt"
           dy="6.00pt"
           id="tspan3129" />
      </text>
    </g>
    <path
       d="M575.9,512.7 L575.9,500.2 M575.9,43.3 L575.9,55.8 "
       id="path3131"
       style="stroke-width:2;stroke-miterlimit:4;stroke-dasharray:none" />
    <g
       transform="translate(575.9,535.2)"
       style="stroke:none; fill:rgb(0,0,0); font-family:Arial; font-size:12.00pt; text-anchor:middle"
       id="g3133">
      <text
         id="text3135">
        <tspan
           id="tspan3137">10</tspan>
        <tspan
           font-size="9.6pt"
           dy="-6.00pt"
           id="tspan3139">4</tspan>
        <tspan
           font-size="12.0pt"
           dy="6.00pt"
           id="tspan3141" />
      </text>
    </g>
    <path
       d="M694.9,512.7 L694.9,500.2 M694.9,43.3 L694.9,55.8 "
       id="path3143" />
    <g
       transform="translate(694.9,535.2)"
       style="stroke:none; fill:rgb(0,0,0); font-family:Arial; font-size:12.00pt; text-anchor:middle"
       id="g3145">
      <text
         id="text3147">
        <tspan
           id="tspan3149">10</tspan>
        <tspan
           font-size="9.6pt"
           dy="-6.00pt"
           id="tspan3151">5</tspan>
        <tspan
           font-size="12.0pt"
           dy="6.00pt"
           id="tspan3153" />
      </text>
    </g>
    <path
       d="M99.8,43.3 L99.8,512.7 L694.9,512.7 L694.9,43.3 L99.8,43.3 Z "
       id="path3155"
       style="stroke-width:2;stroke-miterlimit:4;stroke-dasharray:none" />
    <g
       transform="translate(53.8,278.0) rotate(-90)"
       style="stroke:none; fill:rgb(0,0,0); font-family:Arial; font-size:12.00pt; text-anchor:middle"
       id="g3157">
      <text
         id="text3159"
         x="-0.47195199"
         y="-3.8250399"
         style="font-size:31.52235413px">
        <tspan
           id="tspan3161">probability</tspan>
      </text>
    </g>
    <g
       transform="translate(397.3,562.2)"
       style="stroke:none; fill:rgb(0,0,0); font-family:Arial; font-size:12.00pt; text-anchor:middle"
       id="g3163">
      <text
         id="text3165"
         x="-0.49603426"
         y="3.7222514"
         style="font-size:31.25405121px">
        <tspan
           id="tspan3167">rank</tspan>
      </text>
    </g>
  </g>
  <a
     xlink:title="Plot #1"
     id="a3169">
    <g
       style="fill:none; color:red; stroke:currentColor; stroke-width:0.50; stroke-linecap:butt; stroke-linejoin:miter"
       id="g3171">
      <g
         transform="translate(627.8,65.8)"
         style="stroke:none; fill:black; font-family:Arial; font-size:12.00pt; text-anchor:end"
         id="g3173">
        <text
           id="text3175">
          <tspan
             id="tspan3177">original</tspan>
        </text>
      </g>
      <path
         stroke="rgb(  0,   0, 255)"
         d="M636.1,61.3 L678.3,61.3 M99.8,66.9 L135.6,91.6 L156.6,96.7 L171.5,100.8 L183.0,111.7 L192.4,112.0    L200.4,118.9 L207.3,128.5 L213.4,132.7 L218.8,135.1 L223.7,135.7 L228.2,139.3 L232.4,139.8 L236.2,146.7    L239.8,146.9 L243.1,147.7 L246.2,150.2 L249.2,154.0 L252.0,160.4 L254.6,162.2 L257.2,165.7 L259.6,166.8    L261.9,167.3 L264.1,169.9 L266.2,170.3 L268.2,170.6 L270.2,173.6 L272.0,175.5 L273.9,176.2 L275.6,177.7    L277.3,178.6 L278.9,179.9 L280.5,181.3 L282.1,182.0 L283.6,182.0 L285.0,184.8 L286.4,185.2 L287.8,186.0    L289.2,187.1 L290.5,189.9 L291.8,190.4 L293.0,191.0 L294.2,191.1 L295.4,192.1 L296.6,192.2 L297.7,192.8    L298.8,193.7 L299.9,193.8 L301.0,194.6 L302.0,197.2 L303.0,198.3 L304.0,199.9 L305.0,200.5 L306.0,201.0    L306.9,201.6 L307.9,201.9 L308.8,202.6 L309.7,203.9 L310.6,204.2 L311.4,205.1 L312.3,206.2 L313.1,206.6    L314.0,206.7 L314.8,208.1 L315.6,208.2 L316.4,209.8 L317.1,210.0 L317.9,210.3 L318.7,210.8 L319.4,211.0    L320.1,211.0 L320.9,211.6 L321.6,212.2 L322.3,214.7 L323.0,216.1 L323.7,216.6 L324.3,217.1 L325.0,218.1    L325.7,219.1 L326.3,219.3 L326.9,219.6 L327.6,222.4 L328.2,222.4 L328.8,222.9 L329.4,223.0 L330.0,223.1    L330.6,224.0 L331.2,224.5 L331.8,224.5 L332.4,224.6 L333.0,225.1 L333.5,225.5 L334.1,226.1 L334.6,226.3    L335.2,227.0 L335.7,227.3 L336.3,227.4 L336.8,227.7 L337.3,228.0 L337.8,228.1 L338.4,228.1 L338.9,229.8    L339.4,229.8 L339.9,230.0 L340.4,230.3 L340.9,230.9 L341.3,231.8 L341.8,233.2 L342.3,233.4 L342.8,233.4    L343.2,233.7 L343.7,233.7 L344.2,234.2 L344.6,234.3 L345.1,234.7 L345.5,235.0 L346.0,235.7 L346.4,235.8    L346.8,236.0 L347.3,236.5 L347.7,236.7 L348.1,236.7 L348.5,237.4 L349.0,237.8 L349.4,237.9 L349.8,238.1    L350.2,239.0 L350.6,239.0 L351.0,239.0 L351.4,239.4 L351.8,239.4 L352.2,239.6 L352.6,239.8 L353.0,240.1    L353.4,241.1 L353.7,242.1 L354.1,242.3 L354.5,242.5 L354.9,242.5 L355.2,242.7 L355.6,243.3 L356.0,243.3    L356.3,243.5 L356.7,243.7 L357.0,243.9 L357.4,244.1 L357.8,244.3 L358.1,245.0 L358.5,245.0 L358.8,246.0    L359.1,246.2 L359.5,246.9 L359.8,247.1 L360.2,247.1 L360.5,247.1 L360.8,247.4 L361.2,248.0 L361.5,248.3    L361.8,248.3 L362.1,248.5 L362.5,248.5 L362.8,248.5 L363.1,248.7 L363.4,248.7 L363.7,249.0 L364.0,249.0    L364.3,249.0 L364.7,249.4 L365.0,249.7 L365.3,249.7 L365.6,250.2 L365.9,250.4 L366.2,250.4 L366.5,250.6    L366.8,250.9 L367.1,251.1 L367.4,251.4 L367.6,251.6 L367.9,251.6 L368.2,252.1 L368.5,252.4 L368.8,253.2    L369.1,253.7 L369.4,253.7 L369.6,254.0 L369.9,254.2 L370.2,254.5 L370.5,255.3 L370.7,255.3 L371.0,256.1    L371.3,256.1 L371.6,256.1 L371.8,256.7 L372.1,257.3 L372.4,257.3 L372.6,257.3 L372.9,257.6 L373.1,257.6    L373.4,257.6 L373.7,257.6 L373.9,257.8 L374.2,258.1 L374.4,258.7 L374.7,259.0 L374.9,259.3 L375.2,259.3    L375.4,259.6 L375.7,259.6 L375.9,259.6 L376.2,259.9 L376.4,259.9 L376.7,260.2 L376.9,260.2 L377.2,260.6    L377.4,261.2 L377.6,261.2 L377.9,261.5 L378.1,262.1 L378.4,262.1 L378.6,262.1 L378.8,262.1 L379.1,262.1    L379.3,262.5 L379.5,262.5 L379.8,262.8 L380.0,263.1 L380.2,263.1 L380.4,263.8 L380.7,264.1 L380.9,264.1    L381.1,264.1 L381.3,264.1 L381.6,264.1 L381.8,264.5 L382.0,264.5 L382.2,264.8 L382.4,265.2 L382.7,265.5    L382.9,265.5 L383.1,265.9 L383.3,265.9 L383.5,265.9 L383.7,266.2 L383.9,266.2 L384.2,266.2 L384.4,266.2    L384.6,266.2 L384.8,266.6 L385.0,266.6 L385.2,266.6 L385.4,266.6 L385.6,267.0 L385.8,267.0 L386.0,267.0    L386.2,267.7 L386.4,268.4 L386.6,268.8 L386.8,268.8 L387.0,268.8 L387.2,269.2 L387.4,269.2 L387.6,269.2    L387.8,269.6 L388.0,269.6 L388.2,269.6 L388.4,269.6 L388.6,270.0 L388.8,270.0 L389.0,270.0 L389.2,270.8    L389.4,270.8 L389.6,270.8 L389.8,271.2 L389.9,271.2 L390.1,271.2 L390.3,271.2 L390.5,271.2 L390.7,271.2    L390.9,271.6 L391.1,272.4 L391.2,272.4 L391.4,272.8 L391.6,272.8 L391.8,273.3 L392.0,273.3 L392.2,274.1    L392.3,274.1 L392.5,274.1 L392.7,274.1 L392.9,274.5 L393.1,275.0 L393.2,275.0 L393.4,275.9 L393.6,276.3    L393.8,276.3 L393.9,276.8 L394.1,276.8 L394.3,276.8 L394.5,276.8 L394.6,276.8 L394.8,276.8 L395.0,276.8    L395.1,276.8 L395.3,276.8 L395.5,277.7 L395.7,277.7 L395.8,277.7 L396.0,277.7 L396.2,277.7 L396.3,278.2    L396.5,278.2 L396.7,278.2 L396.8,278.7 L397.0,278.7 L397.1,278.7 L397.3,278.7 L397.5,279.2 L397.6,279.2    L397.8,279.2 L398.0,279.7 L398.1,279.7 L398.3,280.2 L398.4,280.2 L398.6,280.2 L398.8,281.2 L398.9,281.2    L399.1,281.2 L399.2,281.2 L399.4,281.2 L399.6,281.7 L399.7,281.7 L399.9,281.7 L400.0,281.7 L400.2,281.7    L400.3,281.7 L400.5,281.7 L400.6,281.7 L400.8,282.8 L400.9,282.8 L401.1,282.8 L401.2,282.8 L401.4,282.8    L401.6,282.8 L401.7,282.8 L401.9,283.3 L402.0,283.3 L402.2,283.9 L402.3,283.9 L402.4,283.9 L402.6,283.9    L402.7,283.9 L402.9,283.9 L403.0,284.4 L403.2,284.4 L403.3,284.4 L403.5,284.4 L403.6,284.4 L403.8,284.4    L403.9,285.0 L404.1,285.0 L404.2,285.0 L404.3,285.0 L404.5,285.6 L404.6,285.6 L404.8,285.6 L404.9,286.2    L405.0,286.2 L405.2,286.2 L405.3,286.7 L405.5,286.7 L405.6,286.7 L405.7,286.7 L405.9,286.7 L406.0,288.0    L406.2,288.0 L406.3,288.0 L406.4,288.0 L406.6,289.2 L406.7,289.2 L406.8,289.2 L407.0,289.8 L407.1,289.8    L407.3,289.8 L407.4,290.5 L407.5,290.5 L407.7,290.5 L407.8,290.5 L407.9,290.5 L408.1,290.5 L408.2,290.5    L408.3,290.5 L408.5,290.5 L408.6,290.5 L408.7,291.1 L408.8,291.1 L409.0,291.1 L409.1,291.8 L409.2,291.8    L409.4,291.8 L409.5,291.8 L409.6,291.8 L409.8,291.8 L409.9,291.8 L410.0,291.8 L410.1,291.8 L410.3,292.5    L410.4,292.5 L410.5,293.9 L410.6,293.9 L410.8,293.9 L410.9,293.9 L411.0,293.9 L411.2,294.6 L411.3,294.6    L411.4,294.6 L411.5,294.6 L411.6,294.6 L411.8,295.3 L411.9,295.3 L412.0,295.3 L412.1,295.3 L412.3,295.3    L412.4,295.3 L412.5,295.3 L412.6,295.3 L412.8,295.3 L412.9,296.0 L413.0,296.0 L413.1,296.0 L413.2,296.0    L413.4,296.0 L413.5,296.0 L413.6,296.8 L413.7,296.8 L413.8,296.8 L414.0,297.5 L414.1,297.5 L414.2,297.5    L414.3,297.5 L414.4,297.5 L414.5,297.5 L414.7,297.5 L414.8,297.5 L414.9,297.5 L415.0,297.5 L415.1,299.1    L415.2,299.1 L415.4,299.1 L415.5,299.1 L415.6,299.1 L415.7,299.1 L415.8,299.1 L415.9,299.1 L416.0,299.1    L416.2,299.1 L416.3,299.1 L416.4,299.9 L416.5,299.9 L416.6,299.9 L416.7,299.9 L416.8,299.9 L416.9,299.9    L417.1,299.9 L417.2,299.9 L417.3,299.9 L417.4,300.8 L417.5,300.8 L417.6,300.8 L417.7,300.8 L417.8,300.8    L417.9,300.8 L418.1,300.8 L418.2,300.8 L418.3,300.8 L418.4,300.8 L418.5,300.8 L418.6,300.8 L418.7,300.8    L418.8,301.6 L418.9,301.6 L419.0,301.6 L419.1,301.6 L419.2,301.6 L419.4,301.6 L419.5,301.6 L419.6,301.6    L419.7,302.5 L419.8,302.5 L419.9,302.5 L420.0,302.5 L420.1,302.5 L420.2,302.5 L420.3,302.5 L420.4,303.3    L420.5,303.3 L420.6,303.3 L420.7,303.3 L420.8,303.3 L420.9,303.3 L421.0,303.3 L421.1,304.2 L421.2,304.2    L421.3,304.2 L421.4,304.2 L421.5,304.2 L421.6,304.2 L421.8,304.2 L421.9,304.2 L422.0,304.2 L422.1,304.2    L422.2,304.2 L422.3,304.2 L422.4,304.2 L422.5,304.2 L422.6,304.2 L422.7,304.2 L422.8,305.2 L422.9,305.2    L423.0,305.2 L423.1,305.2 L423.2,305.2 L423.3,305.2 L423.4,305.2 L423.5,305.2 L423.6,305.2 L423.7,305.2    L423.8,306.1 L423.9,306.1 L424.0,306.1 L424.1,306.1 L424.2,306.1 L424.3,306.1 L424.4,306.1 L424.5,306.1    L424.6,306.1 L424.7,306.1 L424.8,306.1 L424.9,306.1 L425.0,306.1 L425.1,306.1 L425.2,307.1 L425.3,307.1    L425.4,307.1 L425.5,307.1 L425.6,307.1 L425.7,307.1 L425.8,307.1 L425.9,307.1 L426.0,308.1 L426.1,308.1    L426.2,308.1 L426.3,308.1 L426.4,308.1 L426.5,308.1 L426.6,308.1 L426.7,308.1 L426.8,308.1 L426.9,308.1    L427.0,308.1 L427.1,308.1 L427.2,308.1 L427.3,308.1 L427.3,309.1 L427.4,309.1 L427.5,309.1 L427.6,309.1    L427.7,309.1 L427.8,309.1 L427.9,309.1 L428.0,309.1 L428.1,309.1 L428.2,309.1 L428.3,309.1 L428.3,310.1    L428.4,310.1 L428.5,310.1 L428.6,310.1 L428.7,310.1 L428.8,310.1 L428.9,310.1 L429.0,310.1 L429.1,310.1    L429.2,310.1 L429.3,310.1 L429.4,310.1 L429.5,310.1 L429.6,310.1 L429.7,310.1 L429.8,310.1 L429.9,311.2    L430.0,311.2 L430.1,311.2 L430.2,311.2 L430.3,311.2 L430.4,311.2 L430.5,311.2 L430.6,311.2 L430.7,311.2    L430.8,311.2 L430.9,311.2 L431.0,311.2 L431.1,311.2 L431.2,311.2 L431.3,312.3 L431.4,312.3 L431.5,312.3    L431.6,312.3 L431.7,312.3 L431.8,312.3 L431.9,312.3 L432.0,312.3 L432.1,312.3 L432.2,312.3 L432.3,312.3    L432.4,312.3 L432.5,312.3 L432.6,313.4 L432.7,313.4 L432.8,313.4 L432.9,313.4 L433.0,313.4 L433.1,313.4    L433.2,313.4 L433.3,313.4 L433.4,313.4 L433.5,313.4 L433.6,313.4 L433.7,313.4 L433.8,313.4 L433.9,313.4    L434.0,313.4 L434.0,314.5 L434.1,314.5 L434.2,314.5 L434.3,314.5 L434.4,314.5 L434.5,314.5 L434.6,314.5    L434.7,314.5 L434.8,314.5 L434.9,314.5 L435.0,314.5 L435.1,314.5 L435.2,314.5 L435.3,314.5 L435.4,314.5    L435.5,315.7 L435.6,315.7 L435.7,315.7 L435.8,315.7 L435.9,315.7 L436.0,315.7 L436.1,315.7 L436.2,315.7    L436.3,315.7 L436.4,315.7 L436.5,315.7 L436.6,315.7 L436.7,315.7 L436.8,315.7 L436.8,316.9 L436.9,316.9    L437.0,316.9 L437.1,316.9 L437.2,316.9 L437.3,316.9 L437.4,316.9 L437.5,316.9 L437.6,316.9 L437.7,316.9    L437.8,316.9 L437.9,316.9 L438.0,318.2 L438.1,318.2 L438.2,318.2 L438.3,318.2 L438.4,318.2 L438.5,318.2    L438.6,318.2 L438.7,318.2 L438.8,318.2 L438.9,318.2 L439.0,318.2 L439.1,318.2 L439.2,318.2 L439.3,318.2    L439.4,318.2 L439.5,319.5 L439.6,319.5 L439.7,319.5 L439.8,319.5 L439.9,319.5 L440.0,319.5 L440.1,319.5    L440.2,319.5 L440.3,319.5 L440.4,319.5 L440.5,319.5 L440.6,319.5 L440.7,319.5 L440.8,319.5 L440.9,319.5    L440.9,320.9 L441.0,320.9 L441.1,320.9 L441.2,320.9 L441.3,320.9 L441.4,320.9 L441.5,320.9 L441.6,320.9    L441.7,320.9 L441.8,320.9 L441.9,320.9 L442.0,320.9 L442.1,320.9 L442.2,320.9 L442.3,320.9 L442.4,320.9    L442.5,322.2 L442.6,322.2 L442.7,322.2 L442.8,322.2 L442.9,322.2 L443.0,322.2 L443.1,322.2 L443.2,322.2    L443.3,322.2 L443.4,322.2 L443.5,322.2 L443.6,322.2 L443.7,322.2 L443.8,322.2 L443.9,322.2 L444.0,322.2    L444.1,322.2 L444.2,322.2 L444.3,323.7 L444.4,323.7 L444.5,323.7 L444.6,323.7 L444.7,323.7 L444.8,323.7    L444.9,323.7 L445.0,323.7 L445.1,323.7 L445.2,323.7 L445.3,323.7 L445.4,326.4 L445.5,326.4 L445.6,326.4    L445.7,326.4 L445.8,326.4 L445.9,326.4 L446.0,326.4 L446.1,326.4 L446.2,326.4 L446.3,326.4 L446.4,326.4    L446.5,326.4 L446.5,326.7 L446.6,326.7 L446.7,326.7 L446.8,326.7 L446.9,326.7 L447.0,326.7 L447.1,326.7    L447.2,326.7 L447.3,326.7 L447.4,326.7 L447.5,326.7 L447.6,326.7 L447.7,326.7 L447.8,326.7 L447.9,326.7    L448.0,326.7 L448.1,326.7 L448.2,326.7 L448.3,327.1 L448.4,327.1 L448.5,327.1 L448.6,327.1 L448.7,327.1    L448.8,327.1 L448.9,327.1 L449.0,327.1 L449.1,327.1 L449.2,327.1 L449.3,327.1 L449.4,327.1 L449.5,327.1    L449.6,327.1 L449.7,327.1 L449.7,328.3 L449.8,328.3 L449.9,328.3 L450.0,328.3 L450.1,328.3 L450.2,328.3    L450.3,328.3 L450.4,328.3 L450.5,328.3 L450.6,328.3 L450.7,328.3 L450.8,328.3 L450.9,328.3 L451.0,328.3    L451.1,328.7 L451.2,328.7 L451.3,328.7 L451.4,328.7 L451.5,328.7 L451.6,328.7 L451.7,328.7 L451.8,328.7    L451.9,328.7 L452.0,328.7 L452.1,328.7 L452.2,328.7 L452.3,328.7 L452.4,328.7 L452.5,328.7 L452.6,330.0    L452.7,330.0 L452.8,330.0 L452.9,330.0 L453.0,330.0 L453.1,330.0 L453.2,330.0 L453.3,330.0 L453.4,330.0    L453.5,330.0 L453.6,330.0 L453.7,330.0 L453.8,330.0 L453.8,331.1 L453.9,331.1 L454.0,331.1 L454.1,331.1    L454.2,331.1 L454.3,331.1 L454.4,331.1 L454.5,331.1 L454.6,331.1 L454.7,331.1 L454.8,331.1 L454.9,331.1    L455.0,331.1 L455.1,331.1 L455.2,331.1 L455.2,331.8 L455.3,331.8 L455.4,331.8 L455.5,331.8 L455.6,331.8    L455.7,331.8 L455.8,331.8 L455.9,331.8 L456.0,331.8 L456.1,331.8 L456.2,331.8 L456.3,331.8 L456.4,331.8    L456.5,331.8 L456.6,331.8 L456.7,331.8 L456.8,331.8 L456.9,331.8 L457.0,331.8 L457.1,331.8 L457.2,331.8    L457.3,331.8 L457.4,331.8 L457.4,332.6 L457.5,332.6 L457.6,332.6 L457.7,332.6 L457.8,332.6 L457.9,332.6    L458.0,332.6 L458.1,332.6 L458.2,332.6 L458.3,332.6 L458.4,332.6 L458.5,332.6 L458.6,332.6 L458.7,332.6    L458.8,332.6 L458.9,332.6 L459.0,332.6 L459.1,332.6 L459.2,332.6 L459.3,332.6 L459.4,332.6 L459.5,332.6    L459.6,332.6 L459.7,332.6 L459.7,333.6 L459.8,333.6 L459.9,333.6 L460.0,333.6 L460.1,333.6 L460.2,333.6    L460.3,333.6 L460.4,333.6 L460.5,333.6 L460.6,333.6 L460.7,333.6 L460.8,333.6 L460.9,333.6 L461.0,333.6    L461.1,333.6 L461.2,333.6 L461.3,333.6 L461.4,333.6 L461.5,333.6 L461.6,333.6 L461.7,333.6 L461.8,333.6    L461.9,335.5 L462.0,335.5 L462.1,335.5 L462.2,335.5 L462.3,335.5 L462.4,335.5 L462.5,335.5 L462.6,335.5    L462.7,335.5 L462.8,335.5 L462.9,335.5 L463.0,335.5 L463.1,335.5 L463.2,335.5 L463.3,335.5 L463.4,335.5    L463.5,335.5 L463.6,335.5 L463.7,335.5 L463.8,335.5 L463.9,335.7 L464.0,335.7 L464.1,335.7 L464.2,335.7    L464.3,335.7 L464.4,335.7 L464.5,335.7 L464.6,335.7 L464.7,335.7 L464.8,335.7 L464.9,335.7 L465.0,335.7    L465.1,335.7 L465.2,335.7 L465.3,335.7 L465.4,335.7 L465.5,335.7 L465.6,335.7 L465.6,337.5 L465.7,337.5    L465.8,337.5 L465.9,337.5 L466.0,337.5 L466.1,337.5 L466.2,337.5 L466.3,337.5 L466.4,337.5 L466.5,337.5    L466.6,337.5 L466.7,337.5 L466.8,337.5 L466.9,337.5 L467.0,337.5 L467.1,337.5 L467.2,337.5 L467.3,337.5    L467.4,337.5 L467.5,337.5 L467.6,337.5 L467.7,337.5 L467.7,339.6 L467.8,339.6 L467.9,339.6 L468.0,339.6    L468.1,339.6 L468.2,339.6 L468.3,339.6 L468.4,339.6 L468.5,339.6 L468.6,339.6 L468.7,339.6 L468.8,339.6    L468.9,339.6 L469.0,339.6 L469.1,339.6 L469.2,339.6 L469.3,339.6 L469.4,339.6 L469.5,339.6 L469.6,339.6    L469.7,339.6 L469.8,339.6 L469.9,339.6 L469.9,341.4 L470.0,341.4 L470.1,341.4 L470.2,341.4 L470.3,341.4    L470.4,341.4 L470.5,341.4 L470.6,341.4 L470.7,341.4 L470.8,341.4 L470.9,341.4 L471.0,341.4 L471.1,341.4    L471.2,341.4 L471.3,341.4 L471.4,341.4 L471.5,341.4 L471.6,341.4 L471.7,341.4 L471.8,341.4 L471.9,341.4    L472.0,341.4 L472.1,341.4 L472.2,341.4 L472.3,341.4 L472.4,341.4 L472.5,341.4 L472.6,341.4 L472.7,341.4    L472.8,341.9 L472.9,341.9 L473.0,341.9 L473.1,341.9 L473.2,341.9 L473.3,341.9 L473.4,341.9 L473.5,341.9    L473.6,341.9 L473.7,341.9 L473.8,341.9 L473.9,341.9 L474.0,341.9 L474.1,341.9 L474.2,341.9 L474.3,341.9    L474.4,341.9 L474.5,341.9 L474.6,341.9 L474.7,341.9 L474.8,341.9 L474.8,343.0 L474.9,343.0 L475.0,343.0    L475.1,343.0 L475.2,343.0 L475.3,343.0 L475.4,343.0 L475.5,343.0 L475.6,343.0 L475.7,343.0 L475.8,343.0    L475.9,343.0 L476.0,343.0 L476.1,343.0 L476.2,343.0 L476.3,343.0 L476.4,343.0 L476.5,343.0 L476.6,343.0    L476.7,343.0 L476.8,343.0 L476.9,343.0 L477.0,343.0 L477.1,343.0 L477.2,343.0 L477.3,343.0 L477.3,344.2    L477.4,344.2 L477.5,344.2 L477.6,344.2 L477.7,344.2 L477.8,344.2 L477.9,344.2 L478.0,344.2 L478.1,344.2    L478.2,344.2 L478.3,344.2 L478.4,344.2 L478.5,344.2 L478.6,344.2 L478.7,344.2 L478.8,344.2 L478.9,344.2    L479.0,344.2 L479.1,344.2 L479.2,344.2 L479.3,344.2 L479.4,344.2 L479.5,344.2 L479.6,344.2 L479.7,344.2    L479.8,344.2 L479.9,344.2 L480.0,344.2 L480.1,344.2 L480.2,344.2 L480.2,346.7 L480.3,346.7 L480.4,346.7    L480.5,346.7 L480.6,346.7 L480.7,346.7 L480.8,346.7 L480.9,346.7 L481.0,346.7 L481.1,346.7 L481.2,346.7    L481.3,346.7 L481.4,346.7 L481.5,346.7 L481.6,346.7 L481.7,346.7 L481.8,346.7 L481.9,346.7 L482.0,346.7    L482.1,346.7 L482.2,346.7 L482.3,346.7 L482.4,346.7 L482.5,346.7 L482.6,346.7 L482.7,346.7 L482.8,346.7    L482.9,346.7 L483.0,346.7 L483.1,346.7 L483.2,346.7 L483.2,349.4 L483.3,349.4 L483.4,349.4 L483.5,349.4    L483.6,349.4 L483.7,349.4 L483.8,349.4 L483.9,349.4 L484.0,349.4 L484.1,349.4 L484.2,349.4 L484.3,349.4    L484.4,349.4 L484.5,349.4 L484.6,349.4 L484.7,349.4 L484.8,349.4 L484.9,349.4 L485.0,349.4 L485.1,349.4    L485.2,349.4 L485.3,349.4 L485.4,349.4 L485.5,349.4 L485.6,349.4 L485.7,349.4 L485.8,349.4 L485.9,349.4    L486.0,349.4 L486.1,349.4 L486.1,352.2 L486.2,352.2 L486.3,352.2 L486.4,352.2 L486.5,352.2 L486.6,352.2    L486.7,352.2 L486.8,352.2 L486.9,352.2 L487.0,352.2 L487.1,352.2 L487.2,352.2 L487.3,352.2 L487.4,352.2    L487.5,352.2 L487.6,352.2 L487.7,352.2 L487.8,352.2 L487.9,352.2 L488.0,352.2 L488.1,352.2 L488.2,352.2    L488.3,352.2 L488.4,352.2 L488.5,352.2 L488.6,352.2 L488.7,352.2 L488.8,352.2 L488.9,352.2 L489.0,352.2    L489.1,352.2 L489.2,352.2 L489.3,352.2 L489.4,352.2 L489.4,355.3 L489.5,355.3 L489.6,355.3 L489.7,355.3    L489.8,355.3 L489.9,355.3 L490.0,355.3 L490.1,355.3 L490.2,355.3 L490.3,355.3 L490.4,355.3 L490.5,355.3    L490.6,355.3 L490.7,355.3 L490.8,355.3 L490.9,355.3 L491.0,355.3 L491.1,355.3 L491.2,355.3 L491.3,355.3    L491.4,355.3 L491.5,355.3 L491.6,355.3 L491.7,355.3 L491.8,355.3 L491.9,355.3 L492.0,355.3 L492.1,355.3    L492.2,355.3 L492.3,355.3 L492.4,355.3 L492.5,355.3 L492.6,355.3 L492.7,355.3 L492.8,355.3 L492.9,355.3    L493.0,355.3 L493.1,355.3 L493.2,355.3 L493.3,355.3 L493.4,355.3 L493.4,358.6 L493.5,358.6 L493.6,358.6    L493.7,358.6 L493.8,358.6 L493.9,358.6 L494.0,358.6 L494.1,358.6 L494.2,358.6 L494.3,358.6 L494.4,358.6    L494.5,358.6 L494.6,358.6 L494.7,358.6 L494.8,358.6 L494.9,358.6 L495.0,358.6 L495.1,358.6 L495.2,358.6    L495.3,358.6 L495.4,358.6 L495.5,358.6 L495.6,358.6 L495.7,358.6 L495.8,358.6 L495.9,358.6 L496.0,358.6    L496.1,358.6 L496.2,358.6 L496.3,358.6 L496.4,358.6 L496.5,358.6 L496.6,358.6 L496.7,358.6 L496.8,358.6    L496.9,358.6 L497.0,358.6 L497.1,358.6 L497.2,358.6 L497.3,358.6 L497.4,358.6 L497.5,362.2 L497.6,362.2    L497.7,362.2 L497.8,362.2 L497.9,362.2 L498.0,362.2 L498.1,362.2 L498.2,362.2 L498.3,362.2 L498.4,362.2    L498.5,362.2 L498.6,362.2 L498.7,362.2 L498.8,362.2 L498.9,362.2 L499.0,362.2 L499.1,362.2 L499.2,362.2    L499.3,362.2 L499.4,362.2 L499.5,362.2 L499.6,362.2 L499.7,362.2 L499.8,362.2 L499.9,362.2 L500.0,362.2    L500.1,362.2 L500.2,362.2 L500.3,362.2 L500.4,362.2 L500.5,362.2 L500.6,362.2 L500.7,362.2 L500.8,362.2    L500.9,362.2 L501.0,362.2 L501.1,362.2 L501.2,362.2 L501.3,362.2 L501.4,362.2 L501.5,362.2 L501.6,362.2    L501.7,362.2 L501.8,362.2 L501.9,362.2 L502.0,362.2 L502.1,362.2 L502.1,366.2 L502.2,366.2 L502.3,366.2    L502.4,366.2 L502.5,366.2 L502.6,366.2 L502.7,366.2 L502.8,366.2 L502.9,366.2 L503.0,366.2 L503.1,366.2    L503.2,366.2 L503.3,366.2 L503.4,366.2 L503.5,366.2 L503.6,366.2 L503.7,366.2 L503.8,366.2 L503.9,366.2    L504.0,366.2 L504.1,366.2 L504.2,366.2 L504.3,366.2 L504.4,366.2 L504.5,366.2 L504.6,366.2 L504.7,366.2    L504.8,366.2 L504.9,366.2 L505.0,366.2 L505.1,366.2 L505.2,366.2 L505.3,366.2 L505.4,366.2 L505.5,366.2    L505.6,366.2 L505.7,366.2 L505.8,366.2 L505.9,366.2 L506.0,366.2 L506.1,366.2 L506.2,366.2 L506.3,366.2    L506.4,366.2 L506.5,366.2 L506.6,366.2 L506.7,366.2 L506.8,366.2 L506.9,366.2 L507.0,366.2 L507.0,370.5    L507.1,370.5 L507.2,370.5 L507.3,370.5 L507.4,370.5 L507.5,370.5 L507.6,370.5 L507.7,370.5 L507.8,370.5    L507.9,370.5 L508.0,370.5 L508.1,370.5 L508.2,370.5 L508.3,370.5 L508.4,370.5 L508.5,370.5 L508.6,370.5    L508.7,370.5 L508.8,370.5 L508.9,370.5 L509.0,370.5 L509.1,370.5 L509.2,370.5 L509.3,370.5 L509.4,370.5    L509.5,370.5 L509.6,370.5 L509.7,370.5 L509.8,370.5 L509.9,370.5 L510.0,370.5 L510.1,370.5 L510.2,370.5    L510.3,370.5 L510.4,370.5 L510.5,370.5 L510.6,370.5 L510.7,370.5 L510.8,370.5 L510.9,370.5 L511.0,370.5    L511.1,370.5 L511.2,370.5 L511.3,370.5 L511.4,370.5 L511.5,370.5 L511.6,370.5 L511.7,370.5 L511.8,370.5    L511.9,370.5 L512.0,370.5 L512.1,370.5 L512.2,370.5 L512.3,370.5 L512.4,370.5 L512.5,370.5 L512.6,370.5    L512.7,370.5 L512.8,370.5 L512.8,375.4 L512.9,375.4 L513.0,375.4 L513.1,375.4 L513.2,375.4 L513.3,375.4    L513.4,375.4 L513.5,375.4 L513.6,375.4 L513.7,375.4 L513.8,375.4 L513.9,375.4 L514.0,375.4 L514.1,375.4    L514.2,375.4 L514.3,375.4 L514.4,375.4 L514.5,375.4 L514.6,375.4 L514.7,375.4 L514.8,375.4 L514.9,375.4    L515.0,375.4 L515.1,375.4 L515.2,375.4 L515.3,375.4 L515.4,375.4 L515.5,375.4 L515.6,375.4 L515.7,375.4    L515.8,375.4 L515.9,375.4 L516.0,375.4 L516.1,375.4 L516.2,375.4 L516.3,375.4 L516.4,375.4 L516.5,375.4    L516.6,375.4 L516.7,375.4 L516.8,375.4 L516.9,375.4 L517.0,375.4 L517.1,375.4 L517.2,375.4 L517.3,375.4    L517.4,375.4 L517.5,375.4 L517.6,375.4 L517.7,375.4 L517.8,375.4 L517.9,375.4 L518.0,375.4 L518.1,375.4    L518.2,375.4 L518.3,375.4 L518.4,375.4 L518.5,375.4 L518.5,387.5 L518.6,387.5 L518.7,387.5 L518.8,387.5    L518.9,387.5 L519.0,387.5 L519.1,387.5 L519.2,387.5 L519.3,387.5 L519.4,387.5 L519.5,387.5 L519.6,387.5    L519.7,387.5 L519.8,387.5 L519.9,387.5 L520.0,387.5 L520.1,387.5 L520.2,387.5 L520.3,387.5 L520.4,387.5    L520.5,387.5 L520.6,387.5 L520.7,387.5 L520.8,387.5 L520.9,387.5 L521.0,387.5 L521.1,387.5 L521.2,387.5    L521.3,387.5 L521.4,387.5 L521.5,387.5 L521.6,387.5 L521.7,387.5 L521.8,387.5 L521.9,387.5 L522.0,387.5    L522.1,387.5 L522.2,387.5 L522.3,387.5 L522.4,387.5 L522.5,387.5 L522.6,387.5 L522.7,387.5 L522.8,387.5    L522.9,387.5 L523.0,387.5 L523.1,387.5 L523.2,387.5 L523.3,387.5 L523.4,387.5 L523.5,387.5 L523.6,387.5    L523.7,387.5 L523.8,387.5 L523.9,387.5 L524.0,387.5 L524.1,387.5 L524.2,387.5 L524.3,387.5 L524.4,387.5    L524.5,387.5 L524.6,387.5 L524.7,387.5 L524.8,387.5 L524.9,387.5 L525.0,387.5 L525.1,387.5 L525.2,387.5    L525.3,387.5 L525.4,387.5 L525.5,387.5 L525.6,387.5 L525.7,387.5 L525.8,387.5 L525.8,389.5 L525.9,389.5    L526.0,389.5 L526.1,389.5 L526.2,389.5 L526.3,389.5 L526.4,389.5 L526.5,389.5 L526.6,389.5 L526.7,389.5    L526.8,389.5 L526.9,389.5 L527.0,389.5 L527.1,389.5 L527.2,389.5 L527.3,389.5 L527.4,389.5 L527.5,389.5    L527.6,389.5 L527.7,389.5 L527.8,389.5 L527.9,389.5 L528.0,389.5 L528.1,389.5 L528.2,389.5 L528.3,389.5    L528.4,389.5 L528.5,389.5 L528.6,389.5 L528.7,389.5 L528.8,389.5 L528.9,389.5 L529.0,389.5 L529.1,389.5    L529.2,389.5 L529.3,389.5 L529.4,389.5 L529.5,389.5 L529.6,389.5 L529.7,389.5 L529.8,389.5 L529.9,389.5    L530.0,389.5 L530.1,389.5 L530.2,389.5 L530.3,389.5 L530.4,389.5 L530.5,389.5 L530.6,389.5 L530.7,389.5    L530.8,389.5 L530.9,389.5 L531.0,389.5 L531.1,389.5 L531.2,389.5 L531.3,389.5 L531.4,389.5 L531.5,389.5    L531.6,389.5 L531.7,389.5 L531.8,389.5 L531.9,389.5 L532.0,389.5 L532.1,389.5 L532.2,389.5 L532.3,389.5    L532.4,389.5 L532.5,389.5 L532.6,389.5 L532.7,389.5 L532.8,389.5 L532.9,389.5 L533.0,389.5 L533.1,389.5    L533.2,389.5 L533.3,389.5 L533.4,389.5 L533.5,389.5 L533.6,389.5 L533.6,401.1 L533.7,401.1 L533.8,401.1    L533.9,401.1 L534.0,401.1 L534.1,401.1 L534.2,401.1 L534.3,401.1 L534.4,401.1 L534.5,401.1 L534.6,401.1    L534.7,401.1 L534.8,401.1 L534.9,401.1 L535.0,401.1 L535.1,401.1 L535.2,401.1 L535.3,401.1 L535.4,401.1    L535.5,401.1 L535.6,401.1 L535.7,401.1 L535.8,401.1 L535.9,401.1 L536.0,401.1 L536.1,401.1 L536.2,401.1    L536.3,401.1 L536.4,401.1 L536.5,401.1 L536.6,401.1 L536.7,401.1 L536.8,401.1 L536.9,401.1 L537.0,401.1    L537.1,401.1 L537.2,401.1 L537.3,401.1 L537.4,401.1 L537.5,401.1 L537.6,401.1 L537.7,401.1 L537.8,401.1    L537.9,401.1 L538.0,401.1 L538.1,401.1 L538.2,401.1 L538.3,401.1 L538.4,401.1 L538.5,401.1 L538.6,401.1    L538.7,401.1 L538.8,401.1 L538.9,401.1 L539.0,401.1 L539.1,401.1 L539.2,401.1 L539.3,401.1 L539.4,401.1    L539.5,401.1 L539.6,401.1 L539.7,401.1 L539.8,401.1 L539.9,401.1 L540.0,401.1 L540.1,401.1 L540.2,401.1    L540.3,401.1 L540.4,401.1 L540.5,401.1 L540.6,401.1 L540.7,401.1 L540.8,401.1 L540.9,401.1 L541.0,401.1    L541.1,401.1 L541.2,401.1 L541.3,401.1 L541.4,401.1 L541.5,401.1 L541.6,401.1 L541.7,401.1 L541.8,401.1    L541.9,401.1 L542.0,401.1 L542.1,401.1 L542.2,401.1 L542.3,401.1 L542.4,401.1 L542.5,401.1 L542.6,401.1    L542.7,401.1 L542.8,401.1 L542.9,401.1 L543.0,401.1 L543.1,401.1 L543.1,408.3 L543.2,408.3 L543.3,408.3    L543.4,408.3 L543.5,408.3 L543.6,408.3 L543.7,408.3 L543.8,408.3 L543.9,408.3 L544.0,408.3 L544.1,408.3    L544.2,408.3 L544.3,408.3 L544.4,408.3 L544.5,408.3 L544.6,408.3 L544.7,408.3 L544.8,408.3 L544.9,408.3    L545.0,408.3 L545.1,408.3 L545.2,408.3 L545.3,408.3 L545.4,408.3 L545.5,408.3 L545.6,408.3 L545.7,408.3    L545.8,408.3 L545.9,408.3 L546.0,408.3 L546.1,408.3 L546.2,408.3 L546.3,408.3 L546.4,408.3 L546.5,408.3    L546.6,408.3 L546.7,408.3 L546.8,408.3 L546.9,408.3 L547.0,408.3 L547.1,408.3 L547.2,408.3 L547.3,408.3    L547.4,408.3 L547.5,408.3 L547.6,408.3 L547.7,408.3 L547.8,408.3 L547.9,408.3 L548.0,408.3 L548.1,408.3    L548.2,408.3 L548.3,408.3 L548.4,408.3 L548.5,408.3 L548.6,408.3 L548.7,408.3 L548.8,408.3 L548.9,408.3    L549.0,408.3 L549.1,408.3 L549.2,408.3 L549.3,408.3 L549.4,408.3 L549.5,408.3 L549.6,408.3 L549.7,408.3    L549.8,408.3 L549.9,408.3 L550.0,408.3 L550.1,408.3 L550.2,408.3 L550.3,408.3 L550.4,408.3 L550.5,408.3    L550.6,408.3 L550.7,408.3 L550.8,408.3 L550.9,408.3 L551.0,408.3 L551.1,408.3 L551.2,408.3 L551.3,408.3    L551.4,408.3 L551.5,408.3 L551.6,408.3 L551.7,408.3 L551.8,408.3 L551.9,408.3 L552.0,408.3 L552.1,408.3    L552.2,408.3 L552.3,408.3 L552.4,408.3 L552.5,408.3 L552.6,408.3 L552.7,408.3 L552.8,408.3 L552.9,408.3    L553.0,408.3 L553.1,408.3 L553.2,408.3 L553.3,408.3 L553.4,408.3 L553.5,408.3 L553.6,408.3 L553.7,408.3    L553.8,408.3 L553.9,408.3 L554.0,408.3 L554.1,408.3 L554.2,408.3 L554.2,424.8 L554.3,424.8 L554.4,424.8    L554.5,424.8 L554.6,424.8 L554.7,424.8 L554.8,424.8 L554.9,424.8 L555.0,424.8 L555.1,424.8 L555.2,424.8    L555.3,424.8 L555.4,424.8 L555.5,424.8 L555.6,424.8 L555.7,424.8 L555.8,424.8 L555.9,424.8 L556.0,424.8    L556.1,424.8 L556.2,424.8 L556.3,424.8 L556.4,424.8 L556.5,424.8 L556.6,424.8 L556.7,424.8 L556.8,424.8    L556.9,424.8 L557.0,424.8 L557.1,424.8 L557.2,424.8 L557.3,424.8 L557.4,424.8 L557.5,424.8 L557.6,424.8    L557.7,424.8 L557.8,424.8 L557.9,424.8 L558.0,424.8 L558.1,424.8 L558.2,424.8 L558.3,424.8 L558.4,424.8    L558.5,424.8 L558.6,424.8 L558.7,424.8 L558.8,424.8 L558.9,424.8 L559.0,424.8 L559.1,424.8 L559.2,424.8    L559.3,424.8 L559.4,424.8 L559.5,424.8 L559.6,424.8 L559.7,424.8 L559.8,424.8 L559.9,424.8 L560.0,424.8    L560.1,424.8 L560.2,424.8 L560.3,424.8 L560.4,424.8 L560.5,424.8 L560.6,424.8 L560.7,424.8 L560.8,424.8    L560.9,424.8 L561.0,424.8 L561.1,424.8 L561.2,424.8 L561.3,424.8 L561.4,424.8 L561.5,424.8 L561.6,424.8    L561.7,424.8 L561.8,424.8 L561.9,424.8 L562.0,424.8 L562.1,424.8 L562.2,424.8 L562.3,424.8 L562.4,424.8    L562.5,424.8 L562.6,424.8 L562.7,424.8 L562.8,424.8 L562.9,424.8 L563.0,424.8 L563.1,424.8 L563.2,424.8    L563.3,424.8 L563.4,424.8 L563.5,424.8 L563.6,424.8 L563.7,424.8 L563.8,424.8 L563.9,424.8 L564.0,424.8    L564.1,424.8 L564.2,424.8 L564.3,424.8 L564.4,424.8 L564.5,424.8 L564.6,424.8 L564.7,424.8 L564.8,424.8    L564.9,424.8 L565.0,424.8 L565.1,424.8 L565.2,424.8 L565.3,424.8 L565.4,424.8 L565.5,424.8 L565.6,424.8    L565.7,424.8 L565.8,424.8 L565.9,424.8 L566.0,424.8 L566.1,424.8 L566.2,424.8 L566.3,424.8 L566.4,424.8    L566.5,424.8 L566.6,424.8 L566.7,424.8 L566.8,424.8 L566.9,424.8 L567.0,424.8 L567.1,424.8 L567.2,424.8    L567.3,424.8 L567.4,424.8 L567.5,424.8 L567.6,424.8 L567.7,424.8 L567.8,424.8 L567.9,424.8 L568.0,424.8    L568.1,424.8 L568.2,424.8 L568.3,424.8 L568.4,424.8 L568.5,424.8 L568.6,424.8 L568.7,424.8 L568.8,424.8    L568.9,424.8 L569.0,424.8 L569.1,424.8 L569.1,445.3 L569.2,445.3 L569.3,445.3 L569.4,445.3 L569.5,445.3    L569.6,445.3 L569.7,445.3 L569.8,445.3 L569.9,445.3 L570.0,445.3 L570.1,445.3 L570.2,445.3 L570.3,445.3    L570.4,445.3 L570.5,445.3 L570.6,445.3 L570.7,445.3 L570.8,445.3 L570.9,445.3 L571.0,445.3 L571.1,445.3    L571.2,445.3 L571.3,445.3 L571.4,445.3 L571.5,445.3 L571.6,445.3 L571.7,445.3 L571.8,445.3 L571.9,445.3    L572.0,445.3 L572.1,445.3 L572.2,445.3 L572.3,445.3 L572.4,445.3 L572.5,445.3 L572.6,445.3 L572.7,445.3    L572.8,445.3 L572.9,445.3 L573.0,445.3 L573.1,445.3 L573.2,445.3 L573.3,445.3 L573.4,445.3 L573.5,445.3    L573.6,445.3 L573.7,445.3 L573.8,445.3 L573.9,445.3 L574.0,445.3 L574.1,445.3 L574.2,445.3 L574.3,445.3    L574.4,445.3 L574.5,445.3 L574.6,445.3 L574.7,445.3 L574.8,445.3 L574.9,445.3 L575.0,445.3 L575.1,445.3    L575.2,445.3 L575.3,445.3 L575.4,445.3 L575.5,445.3 L575.6,445.3 L575.7,445.3 L575.8,445.3 L575.9,445.3    L576.0,445.3 L576.1,445.3 L576.2,445.3 L576.3,445.3 L576.4,445.3 L576.5,445.3 L576.6,445.3 L576.7,445.3    L576.8,445.3 L576.9,445.3 L577.0,445.3 L577.1,445.3 L577.2,445.3 L577.3,445.3 L577.4,445.3 L577.5,445.3    L577.6,445.3 L577.7,445.3 L577.8,445.3 L577.9,445.3 L578.0,445.3 L578.1,445.3 L578.2,445.3 L578.3,445.3    L578.4,445.3 L578.5,445.3 L578.6,445.3 L578.7,445.3 L578.8,445.3 L578.9,445.3 L579.0,445.3 L579.1,445.3    L579.2,445.3 L579.3,445.3 L579.4,445.3 L579.5,445.3 L579.6,445.3 L579.7,445.3 L579.8,445.3 L579.9,445.3    L580.0,445.3 L580.1,445.3 L580.2,445.3 L580.3,445.3 L580.4,445.3 L580.5,445.3 L580.6,445.3 L580.7,445.3    L580.8,445.3 L580.9,445.3 L581.0,445.3 L581.1,445.3 L581.2,445.3 L581.3,445.3 L581.4,445.3 L581.5,445.3    L581.6,445.3 L581.7,445.3 L581.8,445.3 L581.9,445.3 L582.0,445.3 L582.1,445.3 L582.2,445.3 L582.3,445.3    L582.4,445.3 L582.5,445.3 L582.6,445.3 L582.7,445.3 L582.8,445.3 L582.9,445.3 L583.0,445.3 L583.1,445.3    L583.2,445.3 L583.3,445.3 L583.4,445.3 L583.5,445.3 L583.6,445.3 L583.7,445.3 L583.8,445.3 L583.9,445.3    L584.0,445.3 L584.1,445.3 L584.2,445.3 L584.3,445.3 L584.4,445.3 L584.5,445.3 L584.6,445.3 L584.7,445.3    L584.8,445.3 L584.9,445.3 L585.0,445.3 L585.1,445.3 L585.2,445.3 L585.3,445.3 L585.4,445.3 L585.5,445.3    L585.6,445.3 L585.7,445.3 L585.8,445.3 L585.9,445.3 L586.0,445.3 L586.1,445.3 L586.2,445.3 L586.3,445.3    L586.4,445.3 L586.5,445.3 L586.6,445.3 L586.7,445.3 L586.8,445.3 L586.9,445.3 L587.0,445.3 L587.1,445.3    L587.2,445.3 L587.3,445.3 L587.4,445.3 L587.5,445.3 L587.6,445.3 L587.7,445.3 L587.8,445.3 L587.9,445.3    L588.0,445.3 L588.1,445.3 L588.2,445.3 L588.3,445.3 L588.4,445.3 L588.5,445.3 L588.6,445.3 L588.7,445.3    L588.8,445.3 L588.9,445.3 L589.0,445.3 L589.1,445.3 L589.2,445.3 L589.3,445.3 L589.4,445.3 L589.5,445.3    L589.6,445.3 L589.7,445.3 L589.8,445.3 L589.9,445.3 L590.0,445.3 L590.1,445.3 L590.2,445.3 L590.3,445.3    L590.4,445.3 L590.5,445.3 L590.6,445.3 L590.7,445.3 L590.8,445.3 L590.9,445.3 L591.0,445.3 L591.1,445.3    L591.2,445.3 L591.2,480.4 L591.3,480.4 L591.4,480.4 L591.5,480.4 L591.6,480.4 L591.7,480.4 L591.8,480.4    L591.9,480.4 L592.0,480.4 L592.1,480.4 L592.2,480.4 L592.3,480.4 L592.4,480.4 L592.5,480.4 L592.6,480.4    L592.7,480.4 L592.8,480.4 L592.9,480.4 L593.0,480.4 L593.1,480.4 L593.2,480.4 L593.3,480.4 L593.4,480.4    L593.5,480.4 L593.6,480.4 L593.7,480.4 L593.8,480.4 L593.9,480.4 L594.0,480.4 L594.1,480.4 L594.2,480.4    L594.3,480.4 L594.4,480.4 L594.5,480.4 L594.6,480.4 L594.7,480.4 L594.8,480.4 L594.9,480.4 L595.0,480.4    L595.1,480.4 L595.2,480.4 L595.3,480.4 L595.4,480.4 L595.5,480.4 L595.6,480.4 L595.7,480.4 L595.8,480.4    L595.9,480.4 L596.0,480.4 L596.1,480.4 L596.2,480.4 L596.3,480.4 L596.4,480.4 L596.5,480.4 L596.6,480.4    L596.7,480.4 L596.8,480.4 L596.9,480.4 L597.0,480.4 L597.1,480.4 L597.2,480.4 L597.3,480.4 L597.4,480.4    L597.5,480.4 L597.6,480.4 L597.7,480.4 L597.8,480.4 L597.9,480.4 L598.0,480.4 L598.1,480.4 L598.2,480.4    L598.3,480.4 L598.4,480.4 L598.5,480.4 L598.6,480.4 L598.7,480.4 L598.8,480.4 L598.9,480.4 L599.0,480.4    L599.1,480.4 L599.2,480.4 L599.3,480.4 L599.4,480.4 L599.5,480.4 L599.6,480.4 L599.7,480.4 L599.8,480.4    L599.9,480.4 L600.0,480.4 L600.1,480.4 L600.2,480.4 L600.3,480.4 L600.4,480.4 L600.5,480.4 L600.6,480.4    L600.7,480.4 L600.8,480.4 L600.9,480.4 L601.0,480.4 L601.1,480.4 L601.2,480.4 L601.3,480.4 L601.4,480.4    L601.5,480.4 L601.6,480.4 L601.7,480.4 L601.8,480.4 L601.9,480.4 L602.0,480.4 L602.1,480.4 L602.2,480.4    L602.3,480.4 L602.4,480.4 L602.5,480.4 L602.6,480.4 L602.7,480.4 L602.8,480.4 L602.9,480.4 L603.0,480.4    L603.1,480.4 L603.2,480.4 L603.3,480.4 L603.4,480.4 L603.5,480.4 L603.6,480.4 L603.7,480.4 L603.8,480.4    L603.9,480.4 L604.0,480.4 L604.1,480.4 L604.2,480.4 L604.3,480.4 L604.4,480.4 L604.5,480.4 L604.6,480.4    L604.7,480.4 L604.8,480.4 L604.9,480.4 L605.0,480.4 L605.1,480.4 L605.2,480.4 L605.3,480.4 L605.4,480.4    L605.5,480.4 L605.6,480.4 L605.7,480.4 L605.8,480.4 L605.9,480.4 L606.0,480.4 L606.1,480.4 L606.2,480.4    L606.3,480.4 L606.4,480.4 L606.5,480.4 L606.6,480.4 L606.7,480.4 L606.8,480.4 L606.9,480.4 L607.0,480.4    L607.1,480.4 L607.2,480.4 L607.3,480.4 L607.4,480.4 L607.5,480.4 L607.6,480.4 L607.7,480.4 L607.8,480.4    L607.9,480.4 L608.0,480.4 L608.1,480.4 L608.2,480.4 L608.3,480.4 L608.4,480.4 L608.5,480.4 L608.6,480.4    L608.7,480.4 L608.8,480.4 L608.9,480.4 L609.0,480.4 L609.1,480.4 L609.2,480.4 L609.3,480.4 L609.4,480.4    L609.5,480.4 L609.6,480.4 L609.7,480.4 L609.8,480.4 L609.9,480.4 L610.0,480.4 L610.1,480.4 L610.2,480.4    L610.3,480.4 L610.4,480.4 L610.5,480.4 L610.6,480.4 L610.7,480.4 L610.8,480.4 L610.9,480.4 L611.0,480.4    L611.1,480.4 L611.2,480.4 L611.3,480.4 L611.4,480.4 L611.5,480.4 L611.6,480.4 L611.7,480.4 L611.8,480.4    L611.9,480.4 L612.0,480.4 L612.1,480.4 L612.2,480.4 L612.3,480.4 L612.4,480.4 L612.5,480.4 L612.6,480.4    L612.7,480.4 L612.8,480.4 L612.9,480.4 L613.0,480.4 L613.1,480.4 L613.2,480.4 L613.3,480.4 L613.4,480.4    L613.5,480.4 L613.6,480.4 L613.7,480.4 L613.8,480.4 L613.9,480.4 L614.0,480.4 L614.1,480.4 L614.2,480.4    L614.3,480.4 L614.4,480.4 L614.5,480.4 L614.6,480.4 L614.7,480.4 L614.8,480.4 L614.9,480.4 L615.0,480.4    L615.1,480.4 L615.2,480.4 L615.3,480.4 L615.4,480.4 L615.5,480.4 L615.6,480.4 L615.7,480.4 L615.8,480.4    L615.9,480.4 L616.0,480.4 L616.1,480.4 L616.2,480.4 L616.3,480.4 L616.4,480.4 L616.5,480.4 L616.6,480.4    L616.7,480.4 L616.8,480.4 L616.9,480.4 L617.0,480.4 L617.1,480.4 L617.2,480.4 L617.3,480.4 L617.4,480.4    L617.5,480.4 L617.6,480.4 L617.7,480.4 L617.8,480.4 L617.9,480.4 L618.0,480.4 L618.1,480.4 L618.2,480.4    L618.3,480.4 L618.4,480.4 L618.5,480.4 L618.6,480.4 L618.7,480.4 L618.8,480.4 L618.9,480.4 L619.0,480.4    L619.1,480.4 L619.2,480.4 L619.3,480.4 L619.4,480.4 L619.5,480.4 L619.6,480.4 L619.7,480.4 L619.8,480.4    L619.9,480.4 L620.0,480.4 L620.1,480.4 L620.2,480.4 L620.3,480.4 L620.4,480.4 L620.5,480.4 L620.6,480.4    L620.7,480.4 L620.8,480.4 L620.9,480.4 L621.0,480.4 L621.1,480.4 L621.2,480.4 L621.3,480.4 L621.4,480.4    L621.5,480.4 L621.6,480.4 L621.7,480.4 L621.8,480.4 L621.9,480.4 L622.0,480.4 L622.1,480.4 L622.2,480.4    L622.3,480.4 L622.4,480.4 L622.5,480.4 L622.6,480.4 L622.7,480.4 L622.8,480.4 L622.9,480.4 L623.0,480.4    L623.1,480.4 L623.2,480.4 L623.3,480.4 L623.4,480.4 L623.5,480.4 L623.6,480.4 L623.7,480.4 L623.8,480.4    L623.9,480.4 L624.0,480.4 L624.1,480.4 L624.2,480.4 L624.3,480.4 L624.4,480.4 L624.5,480.4 L624.6,480.4    L624.7,480.4 L624.8,480.4 L624.9,480.4 L625.0,480.4 L625.1,480.4 L625.2,480.4 L625.3,480.4 L625.4,480.4    L625.5,480.4 L625.6,480.4 L625.7,480.4 L625.8,480.4 L625.9,480.4 L626.0,480.4 L626.1,480.4 L626.2,480.4    L626.3,480.4 L626.4,480.4 L626.5,480.4 L626.6,480.4 L626.7,480.4 L626.8,480.4 L626.9,480.4 L627.0,480.4    L627.1,480.4 L627.2,480.4 L627.3,480.4 L627.4,480.4 L627.5,480.4 L627.6,480.4 L627.7,480.4 L627.8,480.4    L627.9,480.4 L628.0,480.4 L628.1,480.4 L628.2,480.4 L628.3,480.4 L628.4,480.4 L628.5,480.4 L628.6,480.4    L628.7,480.4 L628.8,480.4 L628.9,480.4 L629.0,480.4 L629.1,480.4 L629.2,480.4 L629.3,480.4 L629.4,480.4    L629.5,480.4 L629.6,480.4 L629.7,480.4 L629.8,480.4 L629.9,480.4 L630.0,480.4 L630.1,480.4 L630.2,480.4    L630.3,480.4 L630.4,480.4 L630.5,480.4 L630.6,480.4 L630.7,480.4 L630.8,480.4 L630.9,480.4 L631.0,480.4    L631.1,480.4 L631.2,480.4 "
         id="path3179"
         style="stroke-width:2.5;stroke-miterlimit:4;stroke-dasharray:5,2.5;stroke:#000000;stroke-opacity:1;stroke-dashoffset:0" />
    </g>
  </a>
  <a
     xlink:title="Plot #2"
     id="a3181">
    <g
       style="fill:none; color:green; stroke:currentColor; stroke-width:0.50; stroke-linecap:butt; stroke-linejoin:miter"
       id="g3183">
      <g
         transform="translate(627.8,83.8)"
         style="stroke:none; fill:black; font-family:Arial; font-size:12.00pt; text-anchor:end"
         id="g3185">
        <text
           id="text3187">
          <tspan
             id="tspan3189">smoothed</tspan>
        </text>
      </g>
      <path
         stroke="rgb(  0,   0,   0)"
         d="M636.1,79.3 L678.3,79.3 M99.8,67.2 L135.6,91.9 L156.6,97.0 L171.5,101.1 L183.0,112.0 L192.4,112.3    L200.4,119.2 L207.3,128.9 L213.4,133.0 L218.8,135.4 L223.7,136.0 L228.2,139.6 L232.4,140.1 L236.2,147.0    L239.8,147.2 L243.1,148.0 L246.2,150.5 L249.2,154.3 L252.0,160.7 L254.6,162.5 L257.2,166.0 L259.6,167.2    L261.9,167.6 L264.1,170.3 L266.2,170.6 L268.2,170.9 L270.2,174.0 L272.0,175.8 L273.9,176.5 L275.6,178.0    L277.3,178.9 L278.9,180.2 L280.5,181.6 L282.1,182.3 L283.6,182.3 L285.0,185.2 L286.4,185.6 L287.8,186.3    L289.2,187.4 L290.5,190.2 L291.8,190.7 L293.0,191.3 L294.2,191.4 L295.4,192.4 L296.6,192.6 L297.7,193.1    L298.8,194.0 L299.9,194.2 L301.0,195.0 L302.0,197.5 L303.0,198.6 L304.0,200.2 L305.0,200.8 L306.0,201.3    L306.9,202.0 L307.9,202.2 L308.8,202.9 L309.7,204.2 L310.6,204.5 L311.4,205.4 L312.3,206.5 L313.1,206.9    L314.0,207.0 L314.8,208.4 L315.6,208.5 L316.4,210.2 L317.1,210.3 L317.9,210.6 L318.7,211.2 L319.4,211.3    L320.1,211.3 L320.9,211.9 L321.6,212.6 L322.3,215.0 L323.0,216.5 L323.7,216.9 L324.3,217.4 L325.0,218.4    L325.7,219.4 L326.3,219.6 L326.9,220.0 L327.6,222.7 L328.2,222.7 L328.8,223.2 L329.4,223.3 L330.0,223.4    L330.6,224.3 L331.2,224.8 L331.8,224.8 L332.4,224.9 L333.0,225.4 L333.5,225.8 L334.1,226.4 L334.6,226.6    L335.2,227.3 L335.7,227.6 L336.3,227.7 L336.8,228.0 L337.3,228.3 L337.8,228.4 L338.4,228.4 L338.9,230.1    L339.4,230.1 L339.9,230.3 L340.4,230.6 L340.9,231.2 L341.3,232.1 L341.8,233.5 L342.3,233.7 L342.8,233.7    L343.2,234.0 L343.7,234.0 L344.2,234.5 L344.6,234.6 L345.1,235.0 L345.5,235.3 L346.0,236.0 L346.4,236.1    L346.8,236.3 L347.3,236.8 L347.7,237.0 L348.1,237.0 L348.5,237.7 L349.0,238.1 L349.4,238.2 L349.8,238.4    L350.2,239.3 L350.6,239.3 L351.0,239.3 L351.4,239.7 L351.8,239.7 L352.2,239.9 L352.6,240.1 L353.0,240.4    L353.4,241.4 L353.7,242.4 L354.1,242.6 L354.5,242.8 L354.9,242.8 L355.2,243.0 L355.6,243.6 L356.0,243.6    L356.3,243.8 L356.7,244.0 L357.0,244.2 L357.4,244.4 L357.8,244.6 L358.1,245.2 L358.5,245.2 L358.8,246.3    L359.1,246.5 L359.5,247.2 L359.8,247.4 L360.2,247.4 L360.5,247.4 L360.8,247.6 L361.2,248.3 L361.5,248.6    L361.8,248.6 L362.1,248.8 L362.5,248.8 L362.8,248.8 L363.1,249.0 L363.4,249.0 L363.7,249.3 L364.0,249.3    L364.3,249.3 L364.7,249.7 L365.0,250.0 L365.3,250.0 L365.6,250.4 L365.9,250.7 L366.2,250.7 L366.5,250.9    L366.8,251.2 L367.1,251.4 L367.4,251.7 L367.6,251.9 L367.9,251.9 L368.2,252.4 L368.5,252.7 L368.8,253.4    L369.1,254.0 L369.4,254.0 L369.6,254.2 L369.9,254.5 L370.2,254.8 L370.5,255.6 L370.7,255.6 L371.0,256.4    L371.3,256.4 L371.6,256.4 L371.8,257.0 L372.1,257.5 L372.4,257.5 L372.6,257.5 L372.9,257.8 L373.1,257.8    L373.4,257.8 L373.7,257.8 L373.9,258.1 L374.2,258.4 L374.4,259.0 L374.7,259.3 L374.9,259.6 L375.2,259.6    L375.4,259.9 L375.7,259.9 L375.9,259.9 L376.2,260.2 L376.4,260.2 L376.7,260.5 L376.9,260.5 L377.2,260.8    L377.4,261.5 L377.6,261.5 L377.9,261.8 L378.1,262.1 L378.4,262.1 L378.6,262.1 L378.8,262.1 L379.1,262.1    L379.3,262.4 L379.5,262.4 L379.8,262.7 L380.0,263.1 L380.2,263.1 L380.4,263.4 L380.7,263.7 L380.9,263.7    L381.1,263.7 L381.3,263.7 L381.6,263.7 L381.8,264.1 L382.0,264.1 L382.2,264.4 L382.4,264.7 L382.7,265.1    L382.9,265.1 L383.1,265.4 L383.3,265.4 L383.5,265.4 L383.7,265.8 L383.9,265.8 L384.2,265.8 L384.4,265.8    L384.6,265.8 L384.8,266.1 L385.0,266.1 L385.2,266.1 L385.4,266.1 L385.6,266.5 L385.8,266.5 L386.0,266.5    L386.2,266.9 L386.4,267.2 L386.6,267.9 L386.8,267.9 L387.0,267.9 L387.2,268.7 L387.4,268.7 L387.6,268.7    L387.8,269.1 L388.0,269.1 L388.2,269.1 L388.4,269.1 L388.6,269.5 L388.8,269.5 L389.0,269.5 L389.2,269.8    L389.4,269.8 L389.6,269.8 L389.8,270.2 L389.9,270.2 L390.1,270.2 L390.3,270.2 L390.5,270.2 L390.7,270.2    L390.9,271.0 L391.1,271.4 L391.2,271.4 L391.4,271.8 L391.6,271.8 L391.8,272.7 L392.0,272.7 L392.2,273.1    L392.3,273.1 L392.5,273.1 L392.7,273.1 L392.9,273.5 L393.1,274.4 L393.2,274.4 L393.4,274.8 L393.6,275.2    L393.8,275.2 L393.9,276.1 L394.1,276.1 L394.3,276.1 L394.5,276.1 L394.6,276.1 L394.8,276.1 L395.0,276.1    L395.1,276.1 L395.3,276.1 L395.5,276.6 L395.7,276.6 L395.8,276.6 L396.0,276.6 L396.2,276.6 L396.3,277.0    L396.5,277.0 L396.7,277.0 L396.8,278.0 L397.0,278.0 L397.1,278.0 L397.3,278.0 L397.5,278.5 L397.6,278.5    L397.8,278.5 L398.0,278.9 L398.1,278.9 L398.3,279.4 L398.4,279.4 L398.6,279.4 L398.8,279.9 L398.9,279.9    L399.1,279.9 L399.2,279.9 L399.4,279.9 L399.6,280.4 L399.7,280.4 L399.9,280.4 L400.0,280.4 L400.2,280.4    L400.3,280.4 L400.5,280.4 L400.6,280.4 L400.8,281.4 L400.9,281.4 L401.1,281.4 L401.2,281.4 L401.4,281.4    L401.6,281.4 L401.7,281.4 L401.9,282.0 L402.0,282.0 L402.2,282.5 L402.3,282.5 L402.4,282.5 L402.6,282.5    L402.7,282.5 L402.9,282.5 L403.0,283.0 L403.2,283.0 L403.3,283.0 L403.5,283.0 L403.6,283.0 L403.8,283.0    L403.9,283.6 L404.1,283.6 L404.2,283.6 L404.3,283.6 L404.5,284.1 L404.6,284.1 L404.8,284.1 L404.9,284.7    L405.0,284.7 L405.2,284.7 L405.3,285.2 L405.5,285.2 L405.6,285.2 L405.7,285.2 L405.9,285.2 L406.0,285.8    L406.2,285.8 L406.3,285.8 L406.4,285.8 L406.6,286.4 L406.7,286.4 L406.8,286.4 L407.0,287.0 L407.1,287.0    L407.3,287.0 L407.4,287.6 L407.5,287.6 L407.7,287.6 L407.8,287.6 L407.9,287.6 L408.1,287.6 L408.2,287.6    L408.3,287.6 L408.5,287.6 L408.6,287.6 L408.7,288.2 L408.8,288.2 L409.0,288.2 L409.1,288.8 L409.2,288.8    L409.4,288.8 L409.5,288.8 L409.6,288.8 L409.8,288.8 L409.9,288.8 L410.0,288.8 L410.1,288.8 L410.3,289.4    L410.4,289.4 L410.5,290.0 L410.6,290.0 L410.8,290.0 L410.9,290.0 L411.0,290.0 L411.2,290.7 L411.3,290.7    L411.4,290.7 L411.5,290.7 L411.6,290.7 L411.8,291.3 L411.9,291.3 L412.0,291.3 L412.1,291.3 L412.3,291.3    L412.4,291.3 L412.5,291.3 L412.6,291.3 L412.8,291.3 L412.9,292.0 L413.0,292.0 L413.1,292.0 L413.2,292.0    L413.4,292.0 L413.5,292.0 L413.6,292.7 L413.7,292.7 L413.8,292.7 L414.0,293.3 L414.1,293.3 L414.2,293.3    L414.3,293.3 L414.4,293.3 L414.5,293.3 L414.7,293.3 L414.8,293.3 L414.9,293.3 L415.0,293.3 L415.1,294.0    L415.2,294.0 L415.4,294.0 L415.5,294.0 L415.6,294.0 L415.7,294.0 L415.8,294.0 L415.9,294.0 L416.0,294.0    L416.2,294.0 L416.3,294.0 L416.4,294.8 L416.5,294.8 L416.6,294.8 L416.7,294.8 L416.8,294.8 L416.9,294.8    L417.1,294.8 L417.2,294.8 L417.3,294.8 L417.4,295.5 L417.5,295.5 L417.6,295.5 L417.7,295.5 L417.8,295.5    L417.9,295.5 L418.1,295.5 L418.2,295.5 L418.3,295.5 L418.4,295.5 L418.5,295.5 L418.6,295.5 L418.7,295.5    L418.8,296.2 L418.9,296.2 L419.0,296.2 L419.1,296.2 L419.2,296.2 L419.4,296.2 L419.5,296.2 L419.6,296.2    L419.7,297.0 L419.8,297.0 L419.9,297.0 L420.0,297.0 L420.1,297.0 L420.2,297.0 L420.3,297.0 L420.4,297.7    L420.5,297.7 L420.6,297.7 L420.7,297.7 L420.8,297.7 L420.9,297.7 L421.0,297.7 L421.1,298.5 L421.2,298.5    L421.3,298.5 L421.4,298.5 L421.5,298.5 L421.6,298.5 L421.8,298.5 L421.9,298.5 L422.0,298.5 L422.1,298.5    L422.2,298.5 L422.3,298.5 L422.4,298.5 L422.5,298.5 L422.6,298.5 L422.7,298.5 L422.8,299.3 L422.9,299.3    L423.0,299.3 L423.1,299.3 L423.2,299.3 L423.3,299.3 L423.4,299.3 L423.5,299.3 L423.6,299.3 L423.7,299.3    L423.8,300.1 L423.9,300.1 L424.0,300.1 L424.1,300.1 L424.2,300.1 L424.3,300.1 L424.4,300.1 L424.5,300.1    L424.6,300.1 L424.7,300.1 L424.8,300.1 L424.9,300.1 L425.0,300.1 L425.1,300.1 L425.2,300.9 L425.3,300.9    L425.4,300.9 L425.5,300.9 L425.6,300.9 L425.7,300.9 L425.8,300.9 L425.9,300.9 L426.0,301.8 L426.1,301.8    L426.2,301.8 L426.3,301.8 L426.4,301.8 L426.5,301.8 L426.6,301.8 L426.7,301.8 L426.8,301.8 L426.9,301.8    L427.0,301.8 L427.1,301.8 L427.2,301.8 L427.3,301.8 L427.3,302.6 L427.4,302.6 L427.5,302.6 L427.6,302.6    L427.7,302.6 L427.8,302.6 L427.9,302.6 L428.0,302.6 L428.1,302.6 L428.2,302.6 L428.3,302.6 L428.3,303.5    L428.4,303.5 L428.5,303.5 L428.6,303.5 L428.7,303.5 L428.8,303.5 L428.9,303.5 L429.0,303.5 L429.1,303.5    L429.2,303.5 L429.3,303.5 L429.4,303.5 L429.5,303.5 L429.6,303.5 L429.7,303.5 L429.8,303.5 L429.9,304.4    L430.0,304.4 L430.1,304.4 L430.2,304.4 L430.3,304.4 L430.4,304.4 L430.5,304.4 L430.6,304.4 L430.7,304.4    L430.8,304.4 L430.9,304.4 L431.0,304.4 L431.1,304.4 L431.2,304.4 L431.3,305.3 L431.4,305.3 L431.5,305.3    L431.6,305.3 L431.7,305.3 L431.8,305.3 L431.9,305.3 L432.0,305.3 L432.1,305.3 L432.2,305.3 L432.3,305.3    L432.4,305.3 L432.5,305.3 L432.6,306.2 L432.7,306.2 L432.8,306.2 L432.9,306.2 L433.0,306.2 L433.1,306.2    L433.2,306.2 L433.3,306.2 L433.4,306.2 L433.5,306.2 L433.6,306.2 L433.7,306.2 L433.8,306.2 L433.9,306.2    L434.0,306.2 L434.0,307.2 L434.1,307.2 L434.2,307.2 L434.3,307.2 L434.4,307.2 L434.5,307.2 L434.6,307.2    L434.7,307.2 L434.8,307.2 L434.9,307.2 L435.0,307.2 L435.1,307.2 L435.2,307.2 L435.3,307.2 L435.4,307.2    L435.5,308.2 L435.6,308.2 L435.7,308.2 L435.8,308.2 L435.9,308.2 L436.0,308.2 L436.1,308.2 L436.2,308.2    L436.3,308.2 L436.4,308.2 L436.5,308.2 L436.6,308.2 L436.7,308.2 L436.8,308.2 L436.8,309.2 L436.9,309.2    L437.0,309.2 L437.1,309.2 L437.2,309.2 L437.3,309.2 L437.4,309.2 L437.5,309.2 L437.6,309.2 L437.7,309.2    L437.8,309.2 L437.9,309.2 L438.0,310.2 L438.1,310.2 L438.2,310.2 L438.3,310.2 L438.4,310.2 L438.5,310.2    L438.6,310.2 L438.7,310.2 L438.8,310.2 L438.9,310.2 L439.0,310.2 L439.1,310.2 L439.2,310.2 L439.3,310.2    L439.4,310.2 L439.5,311.3 L439.6,311.3 L439.7,311.3 L439.8,311.3 L439.9,311.3 L440.0,311.3 L440.1,311.3    L440.2,311.3 L440.3,311.3 L440.4,311.3 L440.5,311.3 L440.6,311.3 L440.7,311.3 L440.8,311.3 L440.9,311.3    L440.9,312.4 L441.0,312.4 L441.1,312.4 L441.2,312.4 L441.3,312.4 L441.4,312.4 L441.5,312.4 L441.6,312.4    L441.7,312.4 L441.8,312.4 L441.9,312.4 L442.0,312.4 L442.1,312.4 L442.2,312.4 L442.3,312.4 L442.4,312.4    L442.5,313.5 L442.6,313.5 L442.7,313.5 L442.8,313.5 L442.9,313.5 L443.0,313.5 L443.1,313.5 L443.2,313.5    L443.3,313.5 L443.4,313.5 L443.5,313.5 L443.6,313.5 L443.7,313.5 L443.8,313.5 L443.9,313.5 L444.0,313.5    L444.1,313.5 L444.2,313.5 L444.3,314.6 L444.4,314.6 L444.5,314.6 L444.6,314.6 L444.7,314.6 L444.8,314.6    L444.9,314.6 L445.0,314.6 L445.1,314.6 L445.2,314.6 L445.3,314.6 L445.4,315.8 L445.5,315.8 L445.6,315.8    L445.7,315.8 L445.8,315.8 L445.9,315.8 L446.0,315.8 L446.1,315.8 L446.2,315.8 L446.3,315.8 L446.4,315.8    L446.5,315.8 L446.5,317.0 L446.6,317.0 L446.7,317.0 L446.8,317.0 L446.9,317.0 L447.0,317.0 L447.1,317.0    L447.2,317.0 L447.3,317.0 L447.4,317.0 L447.5,317.0 L447.6,317.0 L447.7,317.0 L447.8,317.0 L447.9,317.0    L448.0,317.0 L448.1,317.0 L448.2,317.0 L448.3,318.3 L448.4,318.3 L448.5,318.3 L448.6,318.3 L448.7,318.3    L448.8,318.3 L448.9,318.3 L449.0,318.3 L449.1,318.3 L449.2,318.3 L449.3,318.3 L449.4,318.3 L449.5,318.3    L449.6,318.3 L449.7,318.3 L449.7,319.6 L449.8,319.6 L449.9,319.6 L450.0,319.6 L450.1,319.6 L450.2,319.6    L450.3,319.6 L450.4,319.6 L450.5,319.6 L450.6,319.6 L450.7,319.6 L450.8,319.6 L450.9,319.6 L451.0,319.6    L451.1,320.9 L451.2,320.9 L451.3,320.9 L451.4,320.9 L451.5,320.9 L451.6,320.9 L451.7,320.9 L451.8,320.9    L451.9,320.9 L452.0,320.9 L452.1,320.9 L452.2,320.9 L452.3,320.9 L452.4,320.9 L452.5,320.9 L452.6,322.3    L452.7,322.3 L452.8,322.3 L452.9,322.3 L453.0,322.3 L453.1,322.3 L453.2,322.3 L453.3,322.3 L453.4,322.3    L453.5,322.3 L453.6,322.3 L453.7,322.3 L453.8,322.3 L453.8,323.7 L453.9,323.7 L454.0,323.7 L454.1,323.7    L454.2,323.7 L454.3,323.7 L454.4,323.7 L454.5,323.7 L454.6,323.7 L454.7,323.7 L454.8,323.7 L454.9,323.7    L455.0,323.7 L455.1,323.7 L455.2,323.7 L455.2,325.2 L455.3,325.2 L455.4,325.2 L455.5,325.2 L455.6,325.2    L455.7,325.2 L455.8,325.2 L455.9,325.2 L456.0,325.2 L456.1,325.2 L456.2,325.2 L456.3,325.2 L456.4,325.2    L456.5,325.2 L456.6,325.2 L456.7,325.2 L456.8,325.2 L456.9,325.2 L457.0,325.2 L457.1,325.2 L457.2,325.2    L457.3,325.2 L457.4,325.2 L457.4,326.8 L457.5,326.8 L457.6,326.8 L457.7,326.8 L457.8,326.8 L457.9,326.8    L458.0,326.8 L458.1,326.8 L458.2,326.8 L458.3,326.8 L458.4,326.8 L458.5,326.8 L458.6,326.8 L458.7,326.8    L458.8,326.8 L458.9,326.8 L459.0,326.8 L459.1,326.8 L459.2,326.8 L459.3,326.8 L459.4,326.8 L459.5,326.8    L459.6,326.8 L459.7,326.8 L459.7,328.4 L459.8,328.4 L459.9,328.4 L460.0,328.4 L460.1,328.4 L460.2,328.4    L460.3,328.4 L460.4,328.4 L460.5,328.4 L460.6,328.4 L460.7,328.4 L460.8,328.4 L460.9,328.4 L461.0,328.4    L461.1,328.4 L461.2,328.4 L461.3,328.4 L461.4,328.4 L461.5,328.4 L461.6,328.4 L461.7,328.4 L461.8,328.4    L461.9,330.0 L462.0,330.0 L462.1,330.0 L462.2,330.0 L462.3,330.0 L462.4,330.0 L462.5,330.0 L462.6,330.0    L462.7,330.0 L462.8,330.0 L462.9,330.0 L463.0,330.0 L463.1,330.0 L463.2,330.0 L463.3,330.0 L463.4,330.0    L463.5,330.0 L463.6,330.0 L463.7,330.0 L463.8,330.0 L463.9,331.8 L464.0,331.8 L464.1,331.8 L464.2,331.8    L464.3,331.8 L464.4,331.8 L464.5,331.8 L464.6,331.8 L464.7,331.8 L464.8,331.8 L464.9,331.8 L465.0,331.8    L465.1,331.8 L465.2,331.8 L465.3,331.8 L465.4,331.8 L465.5,331.8 L465.6,331.8 L465.6,333.6 L465.7,333.6    L465.8,333.6 L465.9,333.6 L466.0,333.6 L466.1,333.6 L466.2,333.6 L466.3,333.6 L466.4,333.6 L466.5,333.6    L466.6,333.6 L466.7,333.6 L466.8,333.6 L466.9,333.6 L467.0,333.6 L467.1,333.6 L467.2,333.6 L467.3,333.6    L467.4,333.6 L467.5,333.6 L467.6,333.6 L467.7,333.6 L467.7,335.5 L467.8,335.5 L467.9,335.5 L468.0,335.5    L468.1,335.5 L468.2,335.5 L468.3,335.5 L468.4,335.5 L468.5,335.5 L468.6,335.5 L468.7,335.5 L468.8,335.5    L468.9,335.5 L469.0,335.5 L469.1,335.5 L469.2,335.5 L469.3,335.5 L469.4,335.5 L469.5,335.5 L469.6,335.5    L469.7,335.5 L469.8,335.5 L469.9,335.5 L469.9,337.5 L470.0,337.5 L470.1,337.5 L470.2,337.5 L470.3,337.5    L470.4,337.5 L470.5,337.5 L470.6,337.5 L470.7,337.5 L470.8,337.5 L470.9,337.5 L471.0,337.5 L471.1,337.5    L471.2,337.5 L471.3,337.5 L471.4,337.5 L471.5,337.5 L471.6,337.5 L471.7,337.5 L471.8,337.5 L471.9,337.5    L472.0,337.5 L472.1,337.5 L472.2,337.5 L472.3,337.5 L472.4,337.5 L472.5,337.5 L472.6,337.5 L472.7,337.5    L472.8,339.5 L472.9,339.5 L473.0,339.5 L473.1,339.5 L473.2,339.5 L473.3,339.5 L473.4,339.5 L473.5,339.5    L473.6,339.5 L473.7,339.5 L473.8,339.5 L473.9,339.5 L474.0,339.5 L474.1,339.5 L474.2,339.5 L474.3,339.5    L474.4,339.5 L474.5,339.5 L474.6,339.5 L474.7,339.5 L474.8,339.5 L474.8,341.7 L474.9,341.7 L475.0,341.7    L475.1,341.7 L475.2,341.7 L475.3,341.7 L475.4,341.7 L475.5,341.7 L475.6,341.7 L475.7,341.7 L475.8,341.7    L475.9,341.7 L476.0,341.7 L476.1,341.7 L476.2,341.7 L476.3,341.7 L476.4,341.7 L476.5,341.7 L476.6,341.7    L476.7,341.7 L476.8,341.7 L476.9,341.7 L477.0,341.7 L477.1,341.7 L477.2,341.7 L477.3,341.7 L477.3,344.1    L477.4,344.1 L477.5,344.1 L477.6,344.1 L477.7,344.1 L477.8,344.1 L477.9,344.1 L478.0,344.1 L478.1,344.1    L478.2,344.1 L478.3,344.1 L478.4,344.1 L478.5,344.1 L478.6,344.1 L478.7,344.1 L478.8,344.1 L478.9,344.1    L479.0,344.1 L479.1,344.1 L479.2,344.1 L479.3,344.1 L479.4,344.1 L479.5,344.1 L479.6,344.1 L479.7,344.1    L479.8,344.1 L479.9,344.1 L480.0,344.1 L480.1,344.1 L480.2,344.1 L480.2,346.6 L480.3,346.6 L480.4,346.6    L480.5,346.6 L480.6,346.6 L480.7,346.6 L480.8,346.6 L480.9,346.6 L481.0,346.6 L481.1,346.6 L481.2,346.6    L481.3,346.6 L481.4,346.6 L481.5,346.6 L481.6,346.6 L481.7,346.6 L481.8,346.6 L481.9,346.6 L482.0,346.6    L482.1,346.6 L482.2,346.6 L482.3,346.6 L482.4,346.6 L482.5,346.6 L482.6,346.6 L482.7,346.6 L482.8,346.6    L482.9,346.6 L483.0,346.6 L483.1,346.6 L483.2,346.6 L483.2,349.2 L483.3,349.2 L483.4,349.2 L483.5,349.2    L483.6,349.2 L483.7,349.2 L483.8,349.2 L483.9,349.2 L484.0,349.2 L484.1,349.2 L484.2,349.2 L484.3,349.2    L484.4,349.2 L484.5,349.2 L484.6,349.2 L484.7,349.2 L484.8,349.2 L484.9,349.2 L485.0,349.2 L485.1,349.2    L485.2,349.2 L485.3,349.2 L485.4,349.2 L485.5,349.2 L485.6,349.2 L485.7,349.2 L485.8,349.2 L485.9,349.2    L486.0,349.2 L486.1,349.2 L486.1,352.0 L486.2,352.0 L486.3,352.0 L486.4,352.0 L486.5,352.0 L486.6,352.0    L486.7,352.0 L486.8,352.0 L486.9,352.0 L487.0,352.0 L487.1,352.0 L487.2,352.0 L487.3,352.0 L487.4,352.0    L487.5,352.0 L487.6,352.0 L487.7,352.0 L487.8,352.0 L487.9,352.0 L488.0,352.0 L488.1,352.0 L488.2,352.0    L488.3,352.0 L488.4,352.0 L488.5,352.0 L488.6,352.0 L488.7,352.0 L488.8,352.0 L488.9,352.0 L489.0,352.0    L489.1,352.0 L489.2,352.0 L489.3,352.0 L489.4,352.0 L489.4,355.0 L489.5,355.0 L489.6,355.0 L489.7,355.0    L489.8,355.0 L489.9,355.0 L490.0,355.0 L490.1,355.0 L490.2,355.0 L490.3,355.0 L490.4,355.0 L490.5,355.0    L490.6,355.0 L490.7,355.0 L490.8,355.0 L490.9,355.0 L491.0,355.0 L491.1,355.0 L491.2,355.0 L491.3,355.0    L491.4,355.0 L491.5,355.0 L491.6,355.0 L491.7,355.0 L491.8,355.0 L491.9,355.0 L492.0,355.0 L492.1,355.0    L492.2,355.0 L492.3,355.0 L492.4,355.0 L492.5,355.0 L492.6,355.0 L492.7,355.0 L492.8,355.0 L492.9,355.0    L493.0,355.0 L493.1,355.0 L493.2,355.0 L493.3,355.0 L493.4,355.0 L493.4,358.3 L493.5,358.3 L493.6,358.3    L493.7,358.3 L493.8,358.3 L493.9,358.3 L494.0,358.3 L494.1,358.3 L494.2,358.3 L494.3,358.3 L494.4,358.3    L494.5,358.3 L494.6,358.3 L494.7,358.3 L494.8,358.3 L494.9,358.3 L495.0,358.3 L495.1,358.3 L495.2,358.3    L495.3,358.3 L495.4,358.3 L495.5,358.3 L495.6,358.3 L495.7,358.3 L495.8,358.3 L495.9,358.3 L496.0,358.3    L496.1,358.3 L496.2,358.3 L496.3,358.3 L496.4,358.3 L496.5,358.3 L496.6,358.3 L496.7,358.3 L496.8,358.3    L496.9,358.3 L497.0,358.3 L497.1,358.3 L497.2,358.3 L497.3,358.3 L497.4,358.3 L497.5,361.8 L497.6,361.8    L497.7,361.8 L497.8,361.8 L497.9,361.8 L498.0,361.8 L498.1,361.8 L498.2,361.8 L498.3,361.8 L498.4,361.8    L498.5,361.8 L498.6,361.8 L498.7,361.8 L498.8,361.8 L498.9,361.8 L499.0,361.8 L499.1,361.8 L499.2,361.8    L499.3,361.8 L499.4,361.8 L499.5,361.8 L499.6,361.8 L499.7,361.8 L499.8,361.8 L499.9,361.8 L500.0,361.8    L500.1,361.8 L500.2,361.8 L500.3,361.8 L500.4,361.8 L500.5,361.8 L500.6,361.8 L500.7,361.8 L500.8,361.8    L500.9,361.8 L501.0,361.8 L501.1,361.8 L501.2,361.8 L501.3,361.8 L501.4,361.8 L501.5,361.8 L501.6,361.8    L501.7,361.8 L501.8,361.8 L501.9,361.8 L502.0,361.8 L502.1,361.8 L502.1,365.7 L502.2,365.7 L502.3,365.7    L502.4,365.7 L502.5,365.7 L502.6,365.7 L502.7,365.7 L502.8,365.7 L502.9,365.7 L503.0,365.7 L503.1,365.7    L503.2,365.7 L503.3,365.7 L503.4,365.7 L503.5,365.7 L503.6,365.7 L503.7,365.7 L503.8,365.7 L503.9,365.7    L504.0,365.7 L504.1,365.7 L504.2,365.7 L504.3,365.7 L504.4,365.7 L504.5,365.7 L504.6,365.7 L504.7,365.7    L504.8,365.7 L504.9,365.7 L505.0,365.7 L505.1,365.7 L505.2,365.7 L505.3,365.7 L505.4,365.7 L505.5,365.7    L505.6,365.7 L505.7,365.7 L505.8,365.7 L505.9,365.7 L506.0,365.7 L506.1,365.7 L506.2,365.7 L506.3,365.7    L506.4,365.7 L506.5,365.7 L506.6,365.7 L506.7,365.7 L506.8,365.7 L506.9,365.7 L507.0,365.7 L507.0,370.0    L507.1,370.0 L507.2,370.0 L507.3,370.0 L507.4,370.0 L507.5,370.0 L507.6,370.0 L507.7,370.0 L507.8,370.0    L507.9,370.0 L508.0,370.0 L508.1,370.0 L508.2,370.0 L508.3,370.0 L508.4,370.0 L508.5,370.0 L508.6,370.0    L508.7,370.0 L508.8,370.0 L508.9,370.0 L509.0,370.0 L509.1,370.0 L509.2,370.0 L509.3,370.0 L509.4,370.0    L509.5,370.0 L509.6,370.0 L509.7,370.0 L509.8,370.0 L509.9,370.0 L510.0,370.0 L510.1,370.0 L510.2,370.0    L510.3,370.0 L510.4,370.0 L510.5,370.0 L510.6,370.0 L510.7,370.0 L510.8,370.0 L510.9,370.0 L511.0,370.0    L511.1,370.0 L511.2,370.0 L511.3,370.0 L511.4,370.0 L511.5,370.0 L511.6,370.0 L511.7,370.0 L511.8,370.0    L511.9,370.0 L512.0,370.0 L512.1,370.0 L512.2,370.0 L512.3,370.0 L512.4,370.0 L512.5,370.0 L512.6,370.0    L512.7,370.0 L512.8,370.0 L512.8,374.8 L512.9,374.8 L513.0,374.8 L513.1,374.8 L513.2,374.8 L513.3,374.8    L513.4,374.8 L513.5,374.8 L513.6,374.8 L513.7,374.8 L513.8,374.8 L513.9,374.8 L514.0,374.8 L514.1,374.8    L514.2,374.8 L514.3,374.8 L514.4,374.8 L514.5,374.8 L514.6,374.8 L514.7,374.8 L514.8,374.8 L514.9,374.8    L515.0,374.8 L515.1,374.8 L515.2,374.8 L515.3,374.8 L515.4,374.8 L515.5,374.8 L515.6,374.8 L515.7,374.8    L515.8,374.8 L515.9,374.8 L516.0,374.8 L516.1,374.8 L516.2,374.8 L516.3,374.8 L516.4,374.8 L516.5,374.8    L516.6,374.8 L516.7,374.8 L516.8,374.8 L516.9,374.8 L517.0,374.8 L517.1,374.8 L517.2,374.8 L517.3,374.8    L517.4,374.8 L517.5,374.8 L517.6,374.8 L517.7,374.8 L517.8,374.8 L517.9,374.8 L518.0,374.8 L518.1,374.8    L518.2,374.8 L518.3,374.8 L518.4,374.8 L518.5,374.8 L518.5,380.3 L518.6,380.3 L518.7,380.3 L518.8,380.3    L518.9,380.3 L519.0,380.3 L519.1,380.3 L519.2,380.3 L519.3,380.3 L519.4,380.3 L519.5,380.3 L519.6,380.3    L519.7,380.3 L519.8,380.3 L519.9,380.3 L520.0,380.3 L520.1,380.3 L520.2,380.3 L520.3,380.3 L520.4,380.3    L520.5,380.3 L520.6,380.3 L520.7,380.3 L520.8,380.3 L520.9,380.3 L521.0,380.3 L521.1,380.3 L521.2,380.3    L521.3,380.3 L521.4,380.3 L521.5,380.3 L521.6,380.3 L521.7,380.3 L521.8,380.3 L521.9,380.3 L522.0,380.3    L522.1,380.3 L522.2,380.3 L522.3,380.3 L522.4,380.3 L522.5,380.3 L522.6,380.3 L522.7,380.3 L522.8,380.3    L522.9,380.3 L523.0,380.3 L523.1,380.3 L523.2,380.3 L523.3,380.3 L523.4,380.3 L523.5,380.3 L523.6,380.3    L523.7,380.3 L523.8,380.3 L523.9,380.3 L524.0,380.3 L524.1,380.3 L524.2,380.3 L524.3,380.3 L524.4,380.3    L524.5,380.3 L524.6,380.3 L524.7,380.3 L524.8,380.3 L524.9,380.3 L525.0,380.3 L525.1,380.3 L525.2,380.3    L525.3,380.3 L525.4,380.3 L525.5,380.3 L525.6,380.3 L525.7,380.3 L525.8,380.3 L525.8,386.5 L525.9,386.5    L526.0,386.5 L526.1,386.5 L526.2,386.5 L526.3,386.5 L526.4,386.5 L526.5,386.5 L526.6,386.5 L526.7,386.5    L526.8,386.5 L526.9,386.5 L527.0,386.5 L527.1,386.5 L527.2,386.5 L527.3,386.5 L527.4,386.5 L527.5,386.5    L527.6,386.5 L527.7,386.5 L527.8,386.5 L527.9,386.5 L528.0,386.5 L528.1,386.5 L528.2,386.5 L528.3,386.5    L528.4,386.5 L528.5,386.5 L528.6,386.5 L528.7,386.5 L528.8,386.5 L528.9,386.5 L529.0,386.5 L529.1,386.5    L529.2,386.5 L529.3,386.5 L529.4,386.5 L529.5,386.5 L529.6,386.5 L529.7,386.5 L529.8,386.5 L529.9,386.5    L530.0,386.5 L530.1,386.5 L530.2,386.5 L530.3,386.5 L530.4,386.5 L530.5,386.5 L530.6,386.5 L530.7,386.5    L530.8,386.5 L530.9,386.5 L531.0,386.5 L531.1,386.5 L531.2,386.5 L531.3,386.5 L531.4,386.5 L531.5,386.5    L531.6,386.5 L531.7,386.5 L531.8,386.5 L531.9,386.5 L532.0,386.5 L532.1,386.5 L532.2,386.5 L532.3,386.5    L532.4,386.5 L532.5,386.5 L532.6,386.5 L532.7,386.5 L532.8,386.5 L532.9,386.5 L533.0,386.5 L533.1,386.5    L533.2,386.5 L533.3,386.5 L533.4,386.5 L533.5,386.5 L533.6,386.5 L533.6,394.0 L533.7,394.0 L533.8,394.0    L533.9,394.0 L534.0,394.0 L534.1,394.0 L534.2,394.0 L534.3,394.0 L534.4,394.0 L534.5,394.0 L534.6,394.0    L534.7,394.0 L534.8,394.0 L534.9,394.0 L535.0,394.0 L535.1,394.0 L535.2,394.0 L535.3,394.0 L535.4,394.0    L535.5,394.0 L535.6,394.0 L535.7,394.0 L535.8,394.0 L535.9,394.0 L536.0,394.0 L536.1,394.0 L536.2,394.0    L536.3,394.0 L536.4,394.0 L536.5,394.0 L536.6,394.0 L536.7,394.0 L536.8,394.0 L536.9,394.0 L537.0,394.0    L537.1,394.0 L537.2,394.0 L537.3,394.0 L537.4,394.0 L537.5,394.0 L537.6,394.0 L537.7,394.0 L537.8,394.0    L537.9,394.0 L538.0,394.0 L538.1,394.0 L538.2,394.0 L538.3,394.0 L538.4,394.0 L538.5,394.0 L538.6,394.0    L538.7,394.0 L538.8,394.0 L538.9,394.0 L539.0,394.0 L539.1,394.0 L539.2,394.0 L539.3,394.0 L539.4,394.0    L539.5,394.0 L539.6,394.0 L539.7,394.0 L539.8,394.0 L539.9,394.0 L540.0,394.0 L540.1,394.0 L540.2,394.0    L540.3,394.0 L540.4,394.0 L540.5,394.0 L540.6,394.0 L540.7,394.0 L540.8,394.0 L540.9,394.0 L541.0,394.0    L541.1,394.0 L541.2,394.0 L541.3,394.0 L541.4,394.0 L541.5,394.0 L541.6,394.0 L541.7,394.0 L541.8,394.0    L541.9,394.0 L542.0,394.0 L542.1,394.0 L542.2,394.0 L542.3,394.0 L542.4,394.0 L542.5,394.0 L542.6,394.0    L542.7,394.0 L542.8,394.0 L542.9,394.0 L543.0,394.0 L543.1,394.0 L543.1,403.1 L543.2,403.1 L543.3,403.1    L543.4,403.1 L543.5,403.1 L543.6,403.1 L543.7,403.1 L543.8,403.1 L543.9,403.1 L544.0,403.1 L544.1,403.1    L544.2,403.1 L544.3,403.1 L544.4,403.1 L544.5,403.1 L544.6,403.1 L544.7,403.1 L544.8,403.1 L544.9,403.1    L545.0,403.1 L545.1,403.1 L545.2,403.1 L545.3,403.1 L545.4,403.1 L545.5,403.1 L545.6,403.1 L545.7,403.1    L545.8,403.1 L545.9,403.1 L546.0,403.1 L546.1,403.1 L546.2,403.1 L546.3,403.1 L546.4,403.1 L546.5,403.1    L546.6,403.1 L546.7,403.1 L546.8,403.1 L546.9,403.1 L547.0,403.1 L547.1,403.1 L547.2,403.1 L547.3,403.1    L547.4,403.1 L547.5,403.1 L547.6,403.1 L547.7,403.1 L547.8,403.1 L547.9,403.1 L548.0,403.1 L548.1,403.1    L548.2,403.1 L548.3,403.1 L548.4,403.1 L548.5,403.1 L548.6,403.1 L548.7,403.1 L548.8,403.1 L548.9,403.1    L549.0,403.1 L549.1,403.1 L549.2,403.1 L549.3,403.1 L549.4,403.1 L549.5,403.1 L549.6,403.1 L549.7,403.1    L549.8,403.1 L549.9,403.1 L550.0,403.1 L550.1,403.1 L550.2,403.1 L550.3,403.1 L550.4,403.1 L550.5,403.1    L550.6,403.1 L550.7,403.1 L550.8,403.1 L550.9,403.1 L551.0,403.1 L551.1,403.1 L551.2,403.1 L551.3,403.1    L551.4,403.1 L551.5,403.1 L551.6,403.1 L551.7,403.1 L551.8,403.1 L551.9,403.1 L552.0,403.1 L552.1,403.1    L552.2,403.1 L552.3,403.1 L552.4,403.1 L552.5,403.1 L552.6,403.1 L552.7,403.1 L552.8,403.1 L552.9,403.1    L553.0,403.1 L553.1,403.1 L553.2,403.1 L553.3,403.1 L553.4,403.1 L553.5,403.1 L553.6,403.1 L553.7,403.1    L553.8,403.1 L553.9,403.1 L554.0,403.1 L554.1,403.1 L554.2,403.1 L554.2,414.8 L554.3,414.8 L554.4,414.8    L554.5,414.8 L554.6,414.8 L554.7,414.8 L554.8,414.8 L554.9,414.8 L555.0,414.8 L555.1,414.8 L555.2,414.8    L555.3,414.8 L555.4,414.8 L555.5,414.8 L555.6,414.8 L555.7,414.8 L555.8,414.8 L555.9,414.8 L556.0,414.8    L556.1,414.8 L556.2,414.8 L556.3,414.8 L556.4,414.8 L556.5,414.8 L556.6,414.8 L556.7,414.8 L556.8,414.8    L556.9,414.8 L557.0,414.8 L557.1,414.8 L557.2,414.8 L557.3,414.8 L557.4,414.8 L557.5,414.8 L557.6,414.8    L557.7,414.8 L557.8,414.8 L557.9,414.8 L558.0,414.8 L558.1,414.8 L558.2,414.8 L558.3,414.8 L558.4,414.8    L558.5,414.8 L558.6,414.8 L558.7,414.8 L558.8,414.8 L558.9,414.8 L559.0,414.8 L559.1,414.8 L559.2,414.8    L559.3,414.8 L559.4,414.8 L559.5,414.8 L559.6,414.8 L559.7,414.8 L559.8,414.8 L559.9,414.8 L560.0,414.8    L560.1,414.8 L560.2,414.8 L560.3,414.8 L560.4,414.8 L560.5,414.8 L560.6,414.8 L560.7,414.8 L560.8,414.8    L560.9,414.8 L561.0,414.8 L561.1,414.8 L561.2,414.8 L561.3,414.8 L561.4,414.8 L561.5,414.8 L561.6,414.8    L561.7,414.8 L561.8,414.8 L561.9,414.8 L562.0,414.8 L562.1,414.8 L562.2,414.8 L562.3,414.8 L562.4,414.8    L562.5,414.8 L562.6,414.8 L562.7,414.8 L562.8,414.8 L562.9,414.8 L563.0,414.8 L563.1,414.8 L563.2,414.8    L563.3,414.8 L563.4,414.8 L563.5,414.8 L563.6,414.8 L563.7,414.8 L563.8,414.8 L563.9,414.8 L564.0,414.8    L564.1,414.8 L564.2,414.8 L564.3,414.8 L564.4,414.8 L564.5,414.8 L564.6,414.8 L564.7,414.8 L564.8,414.8    L564.9,414.8 L565.0,414.8 L565.1,414.8 L565.2,414.8 L565.3,414.8 L565.4,414.8 L565.5,414.8 L565.6,414.8    L565.7,414.8 L565.8,414.8 L565.9,414.8 L566.0,414.8 L566.1,414.8 L566.2,414.8 L566.3,414.8 L566.4,414.8    L566.5,414.8 L566.6,414.8 L566.7,414.8 L566.8,414.8 L566.9,414.8 L567.0,414.8 L567.1,414.8 L567.2,414.8    L567.3,414.8 L567.4,414.8 L567.5,414.8 L567.6,414.8 L567.7,414.8 L567.8,414.8 L567.9,414.8 L568.0,414.8    L568.1,414.8 L568.2,414.8 L568.3,414.8 L568.4,414.8 L568.5,414.8 L568.6,414.8 L568.7,414.8 L568.8,414.8    L568.9,414.8 L569.0,414.8 L569.1,414.8 L569.1,431.3 L569.2,431.3 L569.3,431.3 L569.4,431.3 L569.5,431.3    L569.6,431.3 L569.7,431.3 L569.8,431.3 L569.9,431.3 L570.0,431.3 L570.1,431.3 L570.2,431.3 L570.3,431.3    L570.4,431.3 L570.5,431.3 L570.6,431.3 L570.7,431.3 L570.8,431.3 L570.9,431.3 L571.0,431.3 L571.1,431.3    L571.2,431.3 L571.3,431.3 L571.4,431.3 L571.5,431.3 L571.6,431.3 L571.7,431.3 L571.8,431.3 L571.9,431.3    L572.0,431.3 L572.1,431.3 L572.2,431.3 L572.3,431.3 L572.4,431.3 L572.5,431.3 L572.6,431.3 L572.7,431.3    L572.8,431.3 L572.9,431.3 L573.0,431.3 L573.1,431.3 L573.2,431.3 L573.3,431.3 L573.4,431.3 L573.5,431.3    L573.6,431.3 L573.7,431.3 L573.8,431.3 L573.9,431.3 L574.0,431.3 L574.1,431.3 L574.2,431.3 L574.3,431.3    L574.4,431.3 L574.5,431.3 L574.6,431.3 L574.7,431.3 L574.8,431.3 L574.9,431.3 L575.0,431.3 L575.1,431.3    L575.2,431.3 L575.3,431.3 L575.4,431.3 L575.5,431.3 L575.6,431.3 L575.7,431.3 L575.8,431.3 L575.9,431.3    L576.0,431.3 L576.1,431.3 L576.2,431.3 L576.3,431.3 L576.4,431.3 L576.5,431.3 L576.6,431.3 L576.7,431.3    L576.8,431.3 L576.9,431.3 L577.0,431.3 L577.1,431.3 L577.2,431.3 L577.3,431.3 L577.4,431.3 L577.5,431.3    L577.6,431.3 L577.7,431.3 L577.8,431.3 L577.9,431.3 L578.0,431.3 L578.1,431.3 L578.2,431.3 L578.3,431.3    L578.4,431.3 L578.5,431.3 L578.6,431.3 L578.7,431.3 L578.8,431.3 L578.9,431.3 L579.0,431.3 L579.1,431.3    L579.2,431.3 L579.3,431.3 L579.4,431.3 L579.5,431.3 L579.6,431.3 L579.7,431.3 L579.8,431.3 L579.9,431.3    L580.0,431.3 L580.1,431.3 L580.2,431.3 L580.3,431.3 L580.4,431.3 L580.5,431.3 L580.6,431.3 L580.7,431.3    L580.8,431.3 L580.9,431.3 L581.0,431.3 L581.1,431.3 L581.2,431.3 L581.3,431.3 L581.4,431.3 L581.5,431.3    L581.6,431.3 L581.7,431.3 L581.8,431.3 L581.9,431.3 L582.0,431.3 L582.1,431.3 L582.2,431.3 L582.3,431.3    L582.4,431.3 L582.5,431.3 L582.6,431.3 L582.7,431.3 L582.8,431.3 L582.9,431.3 L583.0,431.3 L583.1,431.3    L583.2,431.3 L583.3,431.3 L583.4,431.3 L583.5,431.3 L583.6,431.3 L583.7,431.3 L583.8,431.3 L583.9,431.3    L584.0,431.3 L584.1,431.3 L584.2,431.3 L584.3,431.3 L584.4,431.3 L584.5,431.3 L584.6,431.3 L584.7,431.3    L584.8,431.3 L584.9,431.3 L585.0,431.3 L585.1,431.3 L585.2,431.3 L585.3,431.3 L585.4,431.3 L585.5,431.3    L585.6,431.3 L585.7,431.3 L585.8,431.3 L585.9,431.3 L586.0,431.3 L586.1,431.3 L586.2,431.3 L586.3,431.3    L586.4,431.3 L586.5,431.3 L586.6,431.3 L586.7,431.3 L586.8,431.3 L586.9,431.3 L587.0,431.3 L587.1,431.3    L587.2,431.3 L587.3,431.3 L587.4,431.3 L587.5,431.3 L587.6,431.3 L587.7,431.3 L587.8,431.3 L587.9,431.3    L588.0,431.3 L588.1,431.3 L588.2,431.3 L588.3,431.3 L588.4,431.3 L588.5,431.3 L588.6,431.3 L588.7,431.3    L588.8,431.3 L588.9,431.3 L589.0,431.3 L589.1,431.3 L589.2,431.3 L589.3,431.3 L589.4,431.3 L589.5,431.3    L589.6,431.3 L589.7,431.3 L589.8,431.3 L589.9,431.3 L590.0,431.3 L590.1,431.3 L590.2,431.3 L590.3,431.3    L590.4,431.3 L590.5,431.3 L590.6,431.3 L590.7,431.3 L590.8,431.3 L590.9,431.3 L591.0,431.3 L591.1,431.3    L591.2,431.3 L591.2,459.6 L591.3,459.6 L591.4,459.6 L591.5,459.6 L591.6,459.6 L591.7,459.6 L591.8,459.6    L591.9,459.6 L592.0,459.6 L592.1,459.6 L592.2,459.6 L592.3,459.6 L592.4,459.6 L592.5,459.6 L592.6,459.6    L592.7,459.6 L592.8,459.6 L592.9,459.6 L593.0,459.6 L593.1,459.6 L593.2,459.6 L593.3,459.6 L593.4,459.6    L593.5,459.6 L593.6,459.6 L593.7,459.6 L593.8,459.6 L593.9,459.6 L594.0,459.6 L594.1,459.6 L594.2,459.6    L594.3,459.6 L594.4,459.6 L594.5,459.6 L594.6,459.6 L594.7,459.6 L594.8,459.6 L594.9,459.6 L595.0,459.6    L595.1,459.6 L595.2,459.6 L595.3,459.6 L595.4,459.6 L595.5,459.6 L595.6,459.6 L595.7,459.6 L595.8,459.6    L595.9,459.6 L596.0,459.6 L596.1,459.6 L596.2,459.6 L596.3,459.6 L596.4,459.6 L596.5,459.6 L596.6,459.6    L596.7,459.6 L596.8,459.6 L596.9,459.6 L597.0,459.6 L597.1,459.6 L597.2,459.6 L597.3,459.6 L597.4,459.6    L597.5,459.6 L597.6,459.6 L597.7,459.6 L597.8,459.6 L597.9,459.6 L598.0,459.6 L598.1,459.6 L598.2,459.6    L598.3,459.6 L598.4,459.6 L598.5,459.6 L598.6,459.6 L598.7,459.6 L598.8,459.6 L598.9,459.6 L599.0,459.6    L599.1,459.6 L599.2,459.6 L599.3,459.6 L599.4,459.6 L599.5,459.6 L599.6,459.6 L599.7,459.6 L599.8,459.6    L599.9,459.6 L600.0,459.6 L600.1,459.6 L600.2,459.6 L600.3,459.6 L600.4,459.6 L600.5,459.6 L600.6,459.6    L600.7,459.6 L600.8,459.6 L600.9,459.6 L601.0,459.6 L601.1,459.6 L601.2,459.6 L601.3,459.6 L601.4,459.6    L601.5,459.6 L601.6,459.6 L601.7,459.6 L601.8,459.6 L601.9,459.6 L602.0,459.6 L602.1,459.6 L602.2,459.6    L602.3,459.6 L602.4,459.6 L602.5,459.6 L602.6,459.6 L602.7,459.6 L602.8,459.6 L602.9,459.6 L603.0,459.6    L603.1,459.6 L603.2,459.6 L603.3,459.6 L603.4,459.6 L603.5,459.6 L603.6,459.6 L603.7,459.6 L603.8,459.6    L603.9,459.6 L604.0,459.6 L604.1,459.6 L604.2,459.6 L604.3,459.6 L604.4,459.6 L604.5,459.6 L604.6,459.6    L604.7,459.6 L604.8,459.6 L604.9,459.6 L605.0,459.6 L605.1,459.6 L605.2,459.6 L605.3,459.6 L605.4,459.6    L605.5,459.6 L605.6,459.6 L605.7,459.6 L605.8,459.6 L605.9,459.6 L606.0,459.6 L606.1,459.6 L606.2,459.6    L606.3,459.6 L606.4,459.6 L606.5,459.6 L606.6,459.6 L606.7,459.6 L606.8,459.6 L606.9,459.6 L607.0,459.6    L607.1,459.6 L607.2,459.6 L607.3,459.6 L607.4,459.6 L607.5,459.6 L607.6,459.6 L607.7,459.6 L607.8,459.6    L607.9,459.6 L608.0,459.6 L608.1,459.6 L608.2,459.6 L608.3,459.6 L608.4,459.6 L608.5,459.6 L608.6,459.6    L608.7,459.6 L608.8,459.6 L608.9,459.6 L609.0,459.6 L609.1,459.6 L609.2,459.6 L609.3,459.6 L609.4,459.6    L609.5,459.6 L609.6,459.6 L609.7,459.6 L609.8,459.6 L609.9,459.6 L610.0,459.6 L610.1,459.6 L610.2,459.6    L610.3,459.6 L610.4,459.6 L610.5,459.6 L610.6,459.6 L610.7,459.6 L610.8,459.6 L610.9,459.6 L611.0,459.6    L611.1,459.6 L611.2,459.6 L611.3,459.6 L611.4,459.6 L611.5,459.6 L611.6,459.6 L611.7,459.6 L611.8,459.6    L611.9,459.6 L612.0,459.6 L612.1,459.6 L612.2,459.6 L612.3,459.6 L612.4,459.6 L612.5,459.6 L612.6,459.6    L612.7,459.6 L612.8,459.6 L612.9,459.6 L613.0,459.6 L613.1,459.6 L613.2,459.6 L613.3,459.6 L613.4,459.6    L613.5,459.6 L613.6,459.6 L613.7,459.6 L613.8,459.6 L613.9,459.6 L614.0,459.6 L614.1,459.6 L614.2,459.6    L614.3,459.6 L614.4,459.6 L614.5,459.6 L614.6,459.6 L614.7,459.6 L614.8,459.6 L614.9,459.6 L615.0,459.6    L615.1,459.6 L615.2,459.6 L615.3,459.6 L615.4,459.6 L615.5,459.6 L615.6,459.6 L615.7,459.6 L615.8,459.6    L615.9,459.6 L616.0,459.6 L616.1,459.6 L616.2,459.6 L616.3,459.6 L616.4,459.6 L616.5,459.6 L616.6,459.6    L616.7,459.6 L616.8,459.6 L616.9,459.6 L617.0,459.6 L617.1,459.6 L617.2,459.6 L617.3,459.6 L617.4,459.6    L617.5,459.6 L617.6,459.6 L617.7,459.6 L617.8,459.6 L617.9,459.6 L618.0,459.6 L618.1,459.6 L618.2,459.6    L618.3,459.6 L618.4,459.6 L618.5,459.6 L618.6,459.6 L618.7,459.6 L618.8,459.6 L618.9,459.6 L619.0,459.6    L619.1,459.6 L619.2,459.6 L619.3,459.6 L619.4,459.6 L619.5,459.6 L619.6,459.6 L619.7,459.6 L619.8,459.6    L619.9,459.6 L620.0,459.6 L620.1,459.6 L620.2,459.6 L620.3,459.6 L620.4,459.6 L620.5,459.6 L620.6,459.6    L620.7,459.6 L620.8,459.6 L620.9,459.6 L621.0,459.6 L621.1,459.6 L621.2,459.6 L621.3,459.6 L621.4,459.6    L621.5,459.6 L621.6,459.6 L621.7,459.6 L621.8,459.6 L621.9,459.6 L622.0,459.6 L622.1,459.6 L622.2,459.6    L622.3,459.6 L622.4,459.6 L622.5,459.6 L622.6,459.6 L622.7,459.6 L622.8,459.6 L622.9,459.6 L623.0,459.6    L623.1,459.6 L623.2,459.6 L623.3,459.6 L623.4,459.6 L623.5,459.6 L623.6,459.6 L623.7,459.6 L623.8,459.6    L623.9,459.6 L624.0,459.6 L624.1,459.6 L624.2,459.6 L624.3,459.6 L624.4,459.6 L624.5,459.6 L624.6,459.6    L624.7,459.6 L624.8,459.6 L624.9,459.6 L625.0,459.6 L625.1,459.6 L625.2,459.6 L625.3,459.6 L625.4,459.6    L625.5,459.6 L625.6,459.6 L625.7,459.6 L625.8,459.6 L625.9,459.6 L626.0,459.6 L626.1,459.6 L626.2,459.6    L626.3,459.6 L626.4,459.6 L626.5,459.6 L626.6,459.6 L626.7,459.6 L626.8,459.6 L626.9,459.6 L627.0,459.6    L627.1,459.6 L627.2,459.6 L627.3,459.6 L627.4,459.6 L627.5,459.6 L627.6,459.6 L627.7,459.6 L627.8,459.6    L627.9,459.6 L628.0,459.6 L628.1,459.6 L628.2,459.6 L628.3,459.6 L628.4,459.6 L628.5,459.6 L628.6,459.6    L628.7,459.6 L628.8,459.6 L628.9,459.6 L629.0,459.6 L629.1,459.6 L629.2,459.6 L629.3,459.6 L629.4,459.6    L629.5,459.6 L629.6,459.6 L629.7,459.6 L629.8,459.6 L629.9,459.6 L630.0,459.6 L630.1,459.6 L630.2,459.6    L630.3,459.6 L630.4,459.6 L630.5,459.6 L630.6,459.6 L630.7,459.6 L630.8,459.6 L630.9,459.6 L631.0,459.6    L631.1,459.6 L631.2,459.6 "
         id="path3191"
         style="stroke-width:2.5;stroke-miterlimit:4;stroke-dasharray:none" />
    </g>
  </a>
  <g
     style="fill:none; color:black; stroke:currentColor; stroke-width:0.50; stroke-linecap:butt; stroke-linejoin:miter"
     id="g3193" />
</svg>
