<?xml version="1.0" encoding="UTF-8" standalone="no"?>
<svg
   xmlns:dc="http://purl.org/dc/elements/1.1/"
   xmlns:cc="http://creativecommons.org/ns#"
   xmlns:rdf="http://www.w3.org/1999/02/22-rdf-syntax-ns#"
   xmlns:svg="http://www.w3.org/2000/svg"
   xmlns="http://www.w3.org/2000/svg"
   xmlns:xlink="http://www.w3.org/1999/xlink"
   xmlns:sodipodi="http://sodipodi.sourceforge.net/DTD/sodipodi-0.dtd"
   xmlns:inkscape="http://www.inkscape.org/namespaces/inkscape"
   viewBox="0 0 585.99625 434.63794"
   id="svg2"
   version="1.1"
   inkscape:version="0.48.4 r9939"
   width="100%"
   height="100%"
   sodipodi:docname="zipfplot_original_sgt.pdf">
  <metadata
     id="metadata211">
    <rdf:RDF>
      <cc:Work
         rdf:about="">
        <dc:format>image/svg+xml</dc:format>
        <dc:type
           rdf:resource="http://purl.org/dc/dcmitype/StillImage" />
        <dc:title>Gnuplot</dc:title>
      </cc:Work>
    </rdf:RDF>
  </metadata>
  <defs
     id="defs209" />
  <sodipodi:namedview
     pagecolor="#ffffff"
     bordercolor="#666666"
     borderopacity="1"
     objecttolerance="10"
     gridtolerance="10"
     guidetolerance="10"
     inkscape:pageopacity="0"
     inkscape:pageshadow="2"
     inkscape:window-width="1072"
     inkscape:window-height="705"
     id="namedview207"
     showgrid="false"
     fit-margin-top="0"
     fit-margin-left="0"
     fit-margin-right="0"
     fit-margin-bottom="0"
     inkscape:zoom="1.1630136"
     inkscape:cx="383.43901"
     inkscape:cy="218.63794"
     inkscape:window-x="131"
     inkscape:window-y="59"
     inkscape:window-maximized="0"
     inkscape:current-layer="svg2" />
  <title
     id="title4">Gnuplot</title>
  <desc
     id="desc6">Produced by GNUPLOT 4.6 patchlevel 1 </desc>
  <g
     id="gnuplot_canvas"
     transform="translate(9.9962461,0)">
    <rect
       x="0"
       y="0"
       width="576"
       height="432"
       id="rect9"
       style="fill:none" />
    <defs
       id="defs11">
      <circle
         id="gpDot"
         r="0.5"
         cx="0"
         cy="0"
         sodipodi:cx="0"
         sodipodi:cy="0"
         sodipodi:rx="0.5"
         sodipodi:ry="0.5"
         style="stroke-width:0.5" />
      <path
         id="gpPt0"
         d="M -1,0 H 1 M 0,-1 v 2"
         inkscape:connector-curvature="0"
         style="stroke:currentColor;stroke-width:0.333" />
      <path
         id="gpPt1"
         d="M -1,-1 1,1 M 1,-1 -1,1"
         inkscape:connector-curvature="0"
         style="stroke:currentColor;stroke-width:0.333" />
      <path
         id="gpPt2"
         d="M -1,0 1,0 M 0,-1 0,1 m -1,-2 2,2 m -2,0 2,-2"
         inkscape:connector-curvature="0"
         style="stroke:currentColor;stroke-width:0.333" />
      <rect
         id="gpPt3"
         x="-1"
         y="-1"
         width="2"
         height="2"
         style="stroke:currentColor;stroke-width:0.333" />
      <rect
         id="gpPt4"
         x="-1"
         y="-1"
         width="2"
         height="2"
         style="fill:currentColor;stroke:currentColor;stroke-width:0.333" />
      <circle
         id="gpPt5"
         cx="0"
         cy="0"
         r="1"
         sodipodi:cx="0"
         sodipodi:cy="0"
         sodipodi:rx="1"
         sodipodi:ry="1"
         style="stroke:currentColor;stroke-width:0.333" />
      <use
         xlink:href="#gpPt5"
         id="gpPt6"
         style="fill:currentColor;stroke:none"
         x="0"
         y="0"
         width="576"
         height="432" />
      <path
         id="gpPt7"
         d="m 0,-1.33 -1.33,2 2.66,0 z"
         inkscape:connector-curvature="0"
         style="stroke:currentColor;stroke-width:0.333" />
      <use
         xlink:href="#gpPt7"
         id="gpPt8"
         style="fill:currentColor;stroke:none"
         x="0"
         y="0"
         width="576"
         height="432" />
      <use
         xlink:href="#gpPt7"
         id="gpPt9"
         transform="scale(-1,-1)"
         style="stroke:currentColor"
         x="0"
         y="0"
         width="576"
         height="432" />
      <use
         xlink:href="#gpPt9"
         id="gpPt10"
         style="fill:currentColor;stroke:none"
         x="0"
         y="0"
         width="576"
         height="432" />
      <use
         xlink:href="#gpPt3"
         id="gpPt11"
         transform="matrix(0.70710678,0.70710678,-0.70710678,0.70710678,0,0)"
         style="stroke:currentColor"
         x="0"
         y="0"
         width="576"
         height="432" />
      <use
         xlink:href="#gpPt11"
         id="gpPt12"
         style="fill:currentColor;stroke:none"
         x="0"
         y="0"
         width="576"
         height="432" />
    </defs>
    <g
       style="color:#ffffff;fill:none;stroke:currentColor;stroke-width:1;stroke-linecap:butt;stroke-linejoin:miter"
       id="g27" />
    <g
       style="color:#ffffff;fill:none;stroke:currentColor;stroke-width:0.5;stroke-linecap:butt;stroke-linejoin:miter"
       id="g29" />
    <g
       style="color:#000000;fill:none;stroke:currentColor;stroke-width:0.5;stroke-linecap:butt;stroke-linejoin:miter"
       id="g31">
      <path
         d="m 42.8,393.6 8.4,0 m 507.9,0 -8.4,0 h 0.01"
         id="path33"
         inkscape:connector-curvature="0" />
      <g
         transform="translate(37.2,396.6)"
         style="font-size:12.5px;text-anchor:end;fill:#000000;stroke:none"
         id="g35">
        <text
           id="text37">
          <tspan
             id="tspan39">10</tspan>
          <tspan
             font-size="8.0pt"
             dy="-6.25"
             id="tspan41"
             style="font-size:10px">-6</tspan>
          <tspan
             font-size="10.0pt"
             dy="6.25"
             id="tspan43"
             style="font-size:12.5px" />
        </text>
      </g>
      <path
         d="m 42.8,393.6 4.2,0 m 512.1,0 -4.2,0 m -512.1,-23 4.2,0 m 512.1,0 -4.2,0 m -512.1,-13.5 4.2,0 m 512.1,0 -4.2,0 m -512.1,-9.5 4.2,0 m 512.1,0 -4.2,0 m -512.1,-7.4 4.2,0 m 512.1,0 -4.2,0 m -512.1,-6.1 4.2,0 m 512.1,0 -4.2,0 M 42.8,329 47,329 m 512.1,0 -4.2,0 m -512.1,-4.5 4.2,0 m 512.1,0 -4.2,0 m -512.1,-3.9 4.2,0 m 512.1,0 -4.2,0 m -512.1,-3.5 8.4,0 m 507.9,0 -8.4,0 h 0.01"
         id="path45"
         inkscape:connector-curvature="0" />
      <g
         transform="translate(37.2,320.1)"
         style="font-size:12.5px;text-anchor:end;fill:#000000;stroke:none"
         id="g47">
        <text
           id="text49">
          <tspan
             id="tspan51">10</tspan>
          <tspan
             font-size="8.0pt"
             dy="-6.25"
             id="tspan53"
             style="font-size:10px">-5</tspan>
          <tspan
             font-size="10.0pt"
             dy="6.25"
             id="tspan55"
             style="font-size:12.5px" />
        </text>
      </g>
      <path
         d="m 42.8,317.1 4.2,0 m 512.1,0 -4.2,0 m -512.1,-23 4.2,0 m 512.1,0 -4.2,0 m -512.1,-13.4 4.2,0 m 512.1,0 -4.2,0 m -512.1,-9.6 4.2,0 m 512.1,0 -4.2,0 m -512.1,-7.4 4.2,0 m 512.1,0 -4.2,0 m -512.1,-6.1 4.2,0 m 512.1,0 -4.2,0 m -512.1,-5.1 4.2,0 m 512.1,0 -4.2,0 m -512.1,-4.4 4.2,0 m 512.1,0 -4.2,0 m -512.1,-3.9 4.2,0 m 512.1,0 -4.2,0 m -512.1,-3.5 8.4,0 m 507.9,0 -8.4,0 h 0.01"
         id="path57"
         inkscape:connector-curvature="0" />
      <g
         transform="translate(37.2,243.7)"
         style="font-size:12.5px;text-anchor:end;fill:#000000;stroke:none"
         id="g59">
        <text
           id="text61">
          <tspan
             id="tspan63">10</tspan>
          <tspan
             font-size="8.0pt"
             dy="-6.25"
             id="tspan65"
             style="font-size:10px">-4</tspan>
          <tspan
             font-size="10.0pt"
             dy="6.25"
             id="tspan67"
             style="font-size:12.5px" />
        </text>
      </g>
      <path
         d="m 42.8,240.7 4.2,0 m 512.1,0 -4.2,0 m -512.1,-23 4.2,0 m 512.1,0 -4.2,0 m -512.1,-13.5 4.2,0 m 512.1,0 -4.2,0 m -512.1,-9.6 4.2,0 m 512.1,0 -4.2,0 m -512.1,-7.4 4.2,0 m 512.1,0 -4.2,0 m -512.1,-6 4.2,0 m 512.1,0 -4.2,0 m -512.1,-5.1 4.2,0 m 512.1,0 -4.2,0 m -512.1,-4.5 4.2,0 m 512.1,0 -4.2,0 m -512.1,-3.9 4.2,0 m 512.1,0 -4.2,0 m -512.1,-3.5 8.4,0 m 507.9,0 -8.4,0 h 0.01"
         id="path69"
         inkscape:connector-curvature="0" />
      <g
         transform="translate(37.2,167.2)"
         style="font-size:12.5px;text-anchor:end;fill:#000000;stroke:none"
         id="g71">
        <text
           id="text73">
          <tspan
             id="tspan75">10</tspan>
          <tspan
             font-size="8.0pt"
             dy="-6.25"
             id="tspan77"
             style="font-size:10px">-3</tspan>
          <tspan
             font-size="10.0pt"
             dy="6.25"
             id="tspan79"
             style="font-size:12.5px" />
        </text>
      </g>
      <path
         d="m 42.8,164.2 4.2,0 m 512.1,0 -4.2,0 m -512.1,-23 4.2,0 m 512.1,0 -4.2,0 m -512.1,-13.5 4.2,0 m 512.1,0 -4.2,0 m -512.1,-9.5 4.2,0 m 512.1,0 -4.2,0 m -512.1,-7.4 4.2,0 m 512.1,0 -4.2,0 m -512.1,-6.1 4.2,0 m 512.1,0 -4.2,0 m -512.1,-5.1 4.2,0 m 512.1,0 -4.2,0 m -512.1,-4.4 4.2,0 m 512.1,0 -4.2,0 m -512.1,-3.9 4.2,0 m 512.1,0 -4.2,0 m -512.1,-3.5 8.4,0 m 507.9,0 -8.4,0 h 0.01"
         id="path81"
         inkscape:connector-curvature="0" />
      <g
         transform="translate(37.2,90.8)"
         style="font-size:12.5px;text-anchor:end;fill:#000000;stroke:none"
         id="g83">
        <text
           id="text85">
          <tspan
             id="tspan87">10</tspan>
          <tspan
             font-size="8.0pt"
             dy="-6.25"
             id="tspan89"
             style="font-size:10px">-2</tspan>
          <tspan
             font-size="10.0pt"
             dy="6.25"
             id="tspan91"
             style="font-size:12.5px" />
        </text>
      </g>
      <path
         d="m 42.8,87.8 4.2,0 m 512.1,0 -4.2,0 M 42.8,64.7 l 4.2,0 m 512.1,0 -4.2,0 M 42.8,51.3 l 4.2,0 m 512.1,0 -4.2,0 m -512.1,-9.6 4.2,0 m 512.1,0 -4.2,0 m -512.1,-7.4 4.2,0 m 512.1,0 -4.2,0 m -512.1,-6 4.2,0 m 512.1,0 -4.2,0 m -512.1,-5.2 4.2,0 m 512.1,0 -4.2,0 m -512.1,-4.4 4.2,0 m 512.1,0 -4.2,0 m -512.1,-3.9 4.2,0 m 512.1,0 -4.2,0 m -512.1,-3.5 8.4,0 m 507.9,0 -8.4,0 h 0.01"
         id="path93"
         inkscape:connector-curvature="0" />
      <g
         transform="translate(37.2,14.3)"
         style="font-size:12.5px;text-anchor:end;fill:#000000;stroke:none"
         id="g95">
        <text
           id="text97">
          <tspan
             id="tspan99">10</tspan>
          <tspan
             font-size="8.0pt"
             dy="-6.25"
             id="tspan101"
             style="font-size:10px">-1</tspan>
          <tspan
             font-size="10.0pt"
             dy="6.25"
             id="tspan103"
             style="font-size:12.5px" />
        </text>
      </g>
      <path
         d="m 42.8,11.3 4.2,0 m 512.1,0 -4.2,0 m -512.1,382.3 0,-8.4 m 0,-373.9 0,8.4 h 0.01"
         id="path105"
         inkscape:connector-curvature="0" />
      <g
         transform="translate(42.8,408.6)"
         style="font-size:12.5px;text-anchor:middle;fill:#000000;stroke:none"
         id="g107">
        <text
           id="text109">
          <tspan
             id="tspan111">10</tspan>
          <tspan
             font-size="8.0pt"
             dy="-6.25"
             id="tspan113"
             style="font-size:10px">0</tspan>
          <tspan
             font-size="10.0pt"
             dy="6.25"
             id="tspan115"
             style="font-size:12.5px" />
        </text>
      </g>
      <path
         d="m 42.8,393.6 0,-4.2 m 0,-378.1 0,4.2 m 34.3,378.1 0,-4.2 m 0,-378.1 0,4.2 m 20,378.1 0,-4.2 m 0,-378.1 0,4.2 m 14.2,378.1 0,-4.2 m 0,-378.1 0,4.2 m 11.1,378.1 0,-4.2 m 0,-378.1 0,4.2 m 9,378.1 0,-4.2 m 0,-378.1 0,4.2 m 7.6,378.1 0,-4.2 m 0,-378.1 0,4.2 m 6.6,378.1 0,-4.2 m 0,-378.1 0,4.2 m 5.8,378.1 0,-4.2 m 0,-378.1 0,4.2 m 5.2,378.1 0,-8.4 m 0,-373.9 0,8.4 h 0.01"
         id="path117"
         inkscape:connector-curvature="0" />
      <g
         transform="translate(156.6,408.6)"
         style="font-size:12.5px;text-anchor:middle;fill:#000000;stroke:none"
         id="g119">
        <text
           id="text121">
          <tspan
             id="tspan123">10</tspan>
          <tspan
             font-size="8.0pt"
             dy="-6.25"
             id="tspan125"
             style="font-size:10px">1</tspan>
          <tspan
             font-size="10.0pt"
             dy="6.25"
             id="tspan127"
             style="font-size:12.5px" />
        </text>
      </g>
      <path
         d="m 156.6,393.6 0,-4.2 m 0,-378.1 0,4.2 m 34.3,378.1 0,-4.2 m 0,-378.1 0,4.2 m 20,378.1 0,-4.2 m 0,-378.1 0,4.2 m 14.2,378.1 0,-4.2 m 0,-378.1 0,4.2 m 11.1,378.1 0,-4.2 m 0,-378.1 0,4.2 m 9,378.1 0,-4.2 m 0,-378.1 0,4.2 m 7.6,378.1 0,-4.2 m 0,-378.1 0,4.2 m 6.6,378.1 0,-4.2 m 0,-378.1 0,4.2 m 5.8,378.1 0,-4.2 m 0,-378.1 0,4.2 m 5.2,378.1 0,-8.4 m 0,-373.9 0,8.4 h 0.01"
         id="path129"
         inkscape:connector-curvature="0" />
      <g
         transform="translate(270.4,408.6)"
         style="font-size:12.5px;text-anchor:middle;fill:#000000;stroke:none"
         id="g131">
        <text
           id="text133">
          <tspan
             id="tspan135">10</tspan>
          <tspan
             font-size="8.0pt"
             dy="-6.25"
             id="tspan137"
             style="font-size:10px">2</tspan>
          <tspan
             font-size="10.0pt"
             dy="6.25"
             id="tspan139"
             style="font-size:12.5px" />
        </text>
      </g>
      <path
         d="m 270.4,393.6 0,-4.2 m 0,-378.1 0,4.2 m 34.3,378.1 0,-4.2 m 0,-378.1 0,4.2 m 20,378.1 0,-4.2 m 0,-378.1 0,4.2 m 14.2,378.1 0,-4.2 m 0,-378.1 0,4.2 m 11.1,378.1 0,-4.2 m 0,-378.1 0,4.2 m 9,378.1 0,-4.2 m 0,-378.1 0,4.2 m 7.6,378.1 0,-4.2 m 0,-378.1 0,4.2 m 6.6,378.1 0,-4.2 m 0,-378.1 0,4.2 m 5.8,378.1 0,-4.2 m 0,-378.1 0,4.2 m 5.2,378.1 0,-8.4 m 0,-373.9 0,8.4 h 0.01"
         id="path141"
         inkscape:connector-curvature="0" />
      <g
         transform="translate(384.2,408.6)"
         style="font-size:12.5px;text-anchor:middle;fill:#000000;stroke:none"
         id="g143">
        <text
           id="text145">
          <tspan
             id="tspan147">10</tspan>
          <tspan
             font-size="8.0pt"
             dy="-6.25"
             id="tspan149"
             style="font-size:10px">3</tspan>
          <tspan
             font-size="10.0pt"
             dy="6.25"
             id="tspan151"
             style="font-size:12.5px" />
        </text>
      </g>
      <path
         d="m 384.2,393.6 0,-4.2 m 0,-378.1 0,4.2 m 34.3,378.1 0,-4.2 m 0,-378.1 0,4.2 m 20,378.1 0,-4.2 m 0,-378.1 0,4.2 m 14.3,378.1 0,-4.2 m 0,-378.1 0,4.2 m 11,378.1 0,-4.2 m 0,-378.1 0,4.2 m 9,378.1 0,-4.2 m 0,-378.1 0,4.2 m 7.6,378.1 0,-4.2 m 0,-378.1 0,4.2 m 6.6,378.1 0,-4.2 m 0,-378.1 0,4.2 m 5.8,378.1 0,-4.2 m 0,-378.1 0,4.2 m 5.2,378.1 0,-8.4 m 0,-373.9 0,8.4 h 0.01"
         id="path153"
         inkscape:connector-curvature="0" />
      <g
         transform="translate(498,408.6)"
         style="font-size:12.5px;text-anchor:middle;fill:#000000;stroke:none"
         id="g155">
        <text
           id="text157">
          <tspan
             id="tspan159">10</tspan>
          <tspan
             font-size="8.0pt"
             dy="-6.25"
             id="tspan161"
             style="font-size:10px">4</tspan>
          <tspan
             font-size="10.0pt"
             dy="6.25"
             id="tspan163"
             style="font-size:12.5px" />
        </text>
      </g>
      <path
         d="m 498,393.6 0,-4.2 m 0,-378.1 0,4.2 m 34.3,378.1 0,-4.2 m 0,-378.1 0,4.2 m 20,378.1 0,-4.2 m 0,-378.1 0,4.2 m -509.5,-4.2 0,382.3 516.3,0 0,-382.3 -516.3,0 z m 0,0 h 0.01"
         id="path165"
         inkscape:connector-curvature="0"
         style="stroke-width:1;stroke-miterlimit:4;stroke-dasharray:none" />
      <g
         transform="matrix(0,-1,1,0,11.8,202.5)"
         style="font-size:12.5px;text-anchor:middle;fill:#000000;stroke:none"
         id="g167">
        <text
           id="text169"
           x="-0.019521989"
           y="-5.5489058"
           style="font-size:21.38467407px">
          <tspan
             id="tspan171">p(k)</tspan>
        </text>
      </g>
      <g
         transform="translate(300.9,426.6)"
         style="font-size:12.5px;text-anchor:middle;fill:#000000;stroke:none"
         id="g173">
        <text
           id="text175"
           x="-0.46192351"
           y="8.0379381"
           style="font-size:23.12943077px">
          <tspan
             id="tspan177">k</tspan>
        </text>
      </g>
    </g>
    <g
       id="gnuplot_plot_1a">
      <title
         id="title180">gnuplot_plot_1a</title>
      <g
         style="color:#ff0000;fill:none;stroke:currentColor;stroke-width:0.5;stroke-linecap:butt;stroke-linejoin:miter"
         id="g182">
        <g
           transform="translate(513.9,26.3)"
           style="font-size:12.5px;text-anchor:end;fill:#000000;stroke:none"
           id="g184">
          <text
             id="text186">
            <tspan
               id="tspan188">original</tspan>
          </text>
        </g>
        <path
           d="m 519.5,23.3 28.4,0 M 42.8,28 l 34.3,6.7 20,5.8 14.2,17.2 11.1,6.5 9,4.2 7.6,6.5 6.6,0.9 5.8,1.5 5.2,12.5 4.7,0.9 4.3,0.2 4,2.2 3.6,1.2 3.5,2.1 3.1,0.6 3,1.3 2.9,0 2.6,2.4 2.6,0.5 2.4,1.3 2.3,1.2 2.2,3.6 2.1,0.6 2,1.7 1.9,0.1 1.9,3.2 1.8,0.5 1.7,3.7 1.7,2.5 1.6,0.8 1.6,0.5 1.5,0.4 1.5,0.2 1.4,0.5 1.4,0.7 1.4,1 1.3,2.9 1.3,3 1.2,1.3 1.3,0.7 1.1,0.5 1.2,1 1.1,1 1.2,0.3 1,0.5 1.1,0.3 1,2.9 1.1,0 1,0.7 0.9,0.9 1,0.4 0.9,0.1 1,0.2 0.9,1 0.9,0.1 0.8,0.1 0.9,1.5 0.8,1.5 0.9,1.2 0.8,1.2 0.8,1.6 0.8,0.5 0.8,0.1 0.7,1.3 0.8,0.1 0.7,0.1 0.8,0.7 0.7,0 0.7,0.7 0.7,1 0.7,0.6 0.7,0.3 0.6,0.6 0.7,0 0.7,0.3 0.6,0.2 0.6,0.1 0.7,0 0.6,0.1 0.6,1.1 0.6,2.5 0.6,0.2 0.6,0.2 0.6,0.3 0.6,0.4 0.5,0.7 0.6,0.3 0.6,0.4 0.5,0.1 0.6,0.1 0.5,0.1 0.5,1.6 0.6,0.7 0.5,0.2 0.5,0.2 0.5,0.5 0.5,0 0.5,0.8 0.5,0.1 0.5,0.2 0.5,0.2 0.5,0.4 0.5,0.4 0.4,0.1 0.5,0.3 0.5,0.5 0.4,0.1 0.5,0.2 0.4,0.1 0.5,0.2 0.4,0.8 0.5,0.2 0.4,1.2 0.4,0 0.5,0.1 0.4,0.3 0.4,1.1 0.4,0.4 0.4,0.4 0.4,0.1 0.5,0 0.4,1 0.4,0.1 0.4,0.2 0.3,0.7 0.4,0 0.4,0.1 0.4,0.4 0.4,0.3 0.4,0.2 0.3,0.1 0.4,0.2 0.4,0 0.4,0.1 0.3,0.3 0.4,0.2 0.3,0.3 0.4,0.1 0.4,0 0.3,0.2 0.4,0.7 0.3,0 0.3,0.2 0.4,0 0.3,0.3 0.4,0.2 0.3,0 0.3,0.1 0.4,0.7 0.3,0 0.3,0.1 0.3,0.4 0.4,0.3 0.3,0.2 0.3,0.1 0.3,0 0.3,0 0.3,0.7 0.4,0.4 0.3,0 0.3,0.7 0.3,0.1 0.3,0.6 0.3,0.5 0.3,0.2 0.3,0 0.3,0.4 0.3,0 0.3,0 0.2,0 0.3,0.2 0.3,0.4 0.3,0 0.3,0.5 0.3,0 0.2,0.6 0.3,0.2 0.3,0.2 0.3,0.4 0.2,0 0.3,0.2 0.3,0.2 0.3,0.2 0.2,0 0.3,0.2 0.3,0 0.2,0.2 0.3,0 0.2,0.3 0.3,0.2 0.3,0 0.2,0.2 0.3,0 0.2,0 0.3,0.2 0.2,0.2 0.3,0.2 0.2,0.2 0.3,0 0.2,0.3 0.3,0 0.2,0 0.3,0.2 0.2,0 0.2,0 0.3,0.4 0.2,0 0.3,0 0.2,0 0.2,0.3 0.3,0 0.2,1.1 0.2,0 0.3,0 0.2,0.7 0.2,0.2 0.2,0 0.3,0 0.2,0.3 0.2,0 0.2,0 0.3,0 0.2,0.2 0.2,0 0.2,0.3 0.2,0 0.3,0 0.2,0.5 0.2,0 0.2,0 0.2,0 0.2,0.7 0.2,0 0.3,0 0.2,0 0.2,0 0.2,0.3 0.2,0 0.2,0.2 0.2,0 0.2,0.6 0.2,0 0.2,0.2 0.2,0.3 0.2,0 0.2,0.3 0.2,0.2 0.2,0.3 0.2,0 0.2,0.3 0.2,0 0.2,0.3 0.2,0 0.2,0 0.2,0 0.2,0.2 0.2,0 0.2,0 0.2,0 0.1,0.3 0.2,0 0.2,0.3 0.2,0.3 0.2,0.3 0.2,0 0.2,0.3 0.1,0 0.2,0 0.2,0 0.2,0 0.2,0.3 0.2,0 0.1,0.3 0.2,0 0.2,0.3 0.2,0 0.2,0 0.1,0 0.2,0 0.2,0.3 0.2,0 0.1,0 0.2,0.3 0.2,0.3 0.2,0.3 0.1,0 0.2,0 0.2,0.3 0.1,0.3 0.2,0.4 0.2,0 0.2,0.3 0.1,0 0.2,0 0.2,0 0.1,0 0.2,0 0.2,0.3 0.1,0 0.2,0 0.2,0.3 0.1,0.4 0.2,0 0.1,0 0.2,0 0.2,0 0.1,0.3 0.2,0 0.1,0.7 0.2,0.3 0.2,0 0.1,0 0.2,0.4 0.1,0.4 0.2,0 0.1,0.3 0.2,0 0.2,0 0.1,0.4 0.2,0.3 0.1,0 0.2,0 0.1,0 0.2,0 0.1,0 0.2,0 0.1,0.4 0.2,0 0.1,0 0.2,0.4 0.1,0 0.2,0.4 0.1,0 0.2,0 0.1,0 0.2,0.4 0.1,0 0.2,0.3 0.1,0 0.2,0 0.1,0 0.1,0 0.2,0.4 0.1,0.4 0.2,0 0.1,0.4 0.2,0 0.1,0 0.1,0 0.2,0 0.1,0 0.2,0.4 0.1,0.5 0.1,0 0.2,0 0.1,0 0.2,0 0.1,0 0.1,0.4 0.2,0 0.1,0 0.1,0.4 0.2,0.4 0.1,0 0.2,0 0.1,0 0.1,0.5 0.2,0 0.1,0 0.1,0 0.2,0.4 0.1,0 0.1,0 0.2,0 0.1,0 0.1,0 0.1,0 0.2,0.4 0.1,0 0.1,0 0.2,0 0.1,0 0.1,0 0.2,0 0.1,0.5 0.1,0 0.1,0 0.2,0 0.1,0 0.1,0 0.1,0 0.2,0 0.1,0.5 0.1,0 0.1,0.4 0.2,0 0.1,0 0.1,0 0.1,0 0.2,0 0.1,0 0.1,0 0.1,0 0.2,0.5 0.1,0 0.1,0 0.1,0.5 0.1,0 0.2,0 0.1,0 0.1,0.4 0.1,0 0.1,0 0.2,0 0.1,0 0.1,0 0.1,0.5 0.1,0 0.2,0 0.1,0 0.1,0 0.1,0 0.1,0 0.1,0.5 0.2,0 0.1,0 0.1,0 0.1,0 0.1,0 0.1,0.5 0.1,0 0.2,0 0.1,0 0.1,0 0.1,0 0.1,0.6 0.1,0 0.1,0 0.2,0 0.1,0 0.1,0 0.1,0 0.1,0 0.1,0.5 0.1,0 0.1,0.5 0.1,0 0.2,0 0.1,0 0.1,0 0.1,0.6 0.1,0 0.1,0 0.1,0 0.1,0 0.1,0 0.1,0 0.1,0 0.2,0 0.1,0.5 0.1,0 0.1,0 0.1,0 0.1,0 0.1,0 0.1,0 0.1,0 0.1,0 0.1,0.6 0.1,0 0.1,0 0.1,0 0.1,0 0.1,0.5 0.1,0 0.1,0 0.1,0 0.2,0 0.1,0 0.1,0 0.1,0.6 0.1,0 0.1,0 0.1,0 0.1,0 0.1,0 0.1,0 0.1,0 0.1,0 0.1,0 0.1,0 0.1,0 0.1,0 0.1,0 0.1,0 0.1,0.6 0.1,0 0.1,0 0.1,0 0.1,0 0.1,0 0.1,0.6 0.1,0 0.1,0 0.1,0 0.1,0 0.1,0 0.1,0 0.1,0 0,0.6 0.1,0 0.1,0 0.1,0 0.1,0 0.1,0 0.1,0 0.1,0 0.1,0 0.1,0 0.1,0 0.1,0.6 0.1,0 0.1,0 0.1,0 0.1,0 0.1,0 0.1,0 0.1,0 0.1,0 0.1,0.7 0.1,0 0.1,0 0.1,0 0.1,0 0.1,0 0.1,0 0.1,0 0.1,0 0.1,0 0.1,0 0.1,0.6 0.1,0 0.1,0 0.1,0 0.1,0 0.1,0 0.1,0 0.1,0 0.1,0.7 0.1,0 0.1,0 0.1,0 0.1,0 0.1,0 0.1,0 0.1,0 0.1,0 0.1,0 0.1,0 0.1,0 0.1,0 0.1,0 0.1,0 0.1,0.6 0.1,0 0.1,0 0.1,0 0.1,0 0.1,0 0.1,0 0.1,0 0.1,0 0.1,0 0.1,0 0.1,0 0.1,0 0,0.7 0.1,0 0.1,0 0.1,0 0.1,0 0.1,0 0.1,0 0.1,0 0.1,0.7 0.1,0 0.1,0 0.1,0 0.1,0 0.1,0 0.1,0.7 0.1,0 0.1,0 0.1,0 0.1,0 0.1,0 0.1,0 0.1,0.8 0.1,0 0.1,0 0.1,0 0.1,0 0.1,0 0.1,0 0.1,0 0.1,0 0.1,0.7 0.1,0 0.1,0 0.1,0 0.1,0 0.1,0 0.1,0 0.1,0 0.1,0 0.1,0 0.1,0 0.1,0 0.1,0 0.1,0 0.1,0.8 0.1,0 0.1,0 0.1,0 0.1,0 0.1,0 0.1,0 0.1,0 0.1,0 0.1,0 0.1,0 0.1,0 0.1,0 0.1,0 0.1,0 0.1,0.7 0.1,0 0.1,0 0.1,0 0.1,0 0.1,0 0.1,0 0.1,0 0.1,0 0.1,0 0.1,0 0.1,0 0.1,0 0.1,0.8 0.1,0 0.1,0 0.1,0 0.1,0 0.1,0 0.1,0 0.1,0 0.1,0 0.1,0 0.1,0 0.1,0 0.1,0 0.1,0.9 0.1,0 0.1,0 0.1,0 0.1,0 0.1,0 0.1,0 0.1,0 0.1,0 0.1,0 0.1,0 0.1,0 0.1,0.8 0.1,0 0.1,0 0.1,0 0.1,0 0.1,0 0.1,0 0.1,0 0.1,0 0.1,0 0.1,0 0.1,0 0.1,0 0.1,0 0.1,0 0.1,0 0.1,0 0.1,0 0.1,0 0.1,0.9 0.1,0 0.1,0 0.1,0 0.1,0 0.1,0 0.1,0 0.1,0 0.1,0 0.1,0 0.1,0 0.1,0 0.1,0 0.1,0.9 0.1,0 0.1,0 0.1,0 0.1,0 0.1,0 0.1,0 0.1,0 0.1,0 0.1,0 0.1,0 0.1,0 0.1,0 0.1,0 0.1,0.9 0.1,0 0.1,0 0.1,0 0.1,0 0.1,0 0.1,0 0.1,0 0.1,0 0.1,0 0.1,0 0.1,0 0.1,0 0.1,0 0.1,0 0.1,0 0.1,0 0.1,0.9 0.1,0 0.1,0 0.1,0 0.1,0 0.1,0 0.1,0 0.1,0 0.1,0 0.1,0 0.1,0 0.1,0 0.1,0 0,1 0.1,0 0.1,0 0.1,0 0.1,0 0.1,0 0.1,0 0.1,0 0.1,0 0.1,0 0.1,0 0.1,0 0.1,0 0.1,0 0,1 0.1,0 0.1,0 0.1,0 0.1,0 0.1,0 0.1,0 0.1,0 0.1,0 0.1,0 0.1,0 0.1,0 0.1,0 0.1,0 0.1,0 0.1,0 0.1,0 0,1 0.1,0 0.1,0 0.1,0 0.1,0 0.1,0 0.1,0 0.1,0 0.1,0 0.1,0 0.1,0 0.1,1 0.1,0 0.1,0 0.1,0 0.1,0 0.1,0 0.1,0 0.1,0 0.1,0 0.1,0 0.1,0 0.1,0 0.1,1.1 0.1,0 0.1,0 0.1,0 0.1,0 0.1,0 0.1,0 0.1,0 0.1,0 0.1,0 0.1,0 0.1,0 0.1,1.1 0.1,0 0.1,0 0.1,0 0.1,0 0.1,0 0.1,0 0.1,0 0.1,0 0.1,0 0.1,0 0.1,0 0.1,0 0.1,0 0.1,0 0.1,0 0.1,0 0.1,0 0.1,0 0.1,0 0.1,0 0.1,0 0.1,1.2 0.1,0 0.1,0 0.1,0 0.1,0 0.1,0 0.1,0 0.1,0 0.1,0 0.1,0 0.1,0 0.1,0 0.1,0 0.1,1.2 0.1,0 0.1,0 0.1,0 0.1,0 0.1,0 0.1,0 0.1,0 0.1,0 0.1,0 0.1,0 0.1,0 0.1,0 0.1,0 0.1,0 0.1,0 0.1,0 0.1,0 0.1,0 0.1,0 0,1.3 0.1,0 0.1,0 0.1,0 0.1,0 0.1,0 0.1,0 0.1,0 0.1,0 0.1,0 0.1,0 0.1,0 0.1,0 0.1,0 0.1,0 0.1,0 0.1,0 0.1,0 0.1,0 0,1.3 0.1,0 0.1,0 0.1,0 0.1,0 0.1,0 0.1,0 0.1,0 0.1,0 0.1,0 0.1,0 0.1,0 0.1,0 0.1,0 0.1,0 0.1,0 0.1,0 0.1,0 0.1,0 0.1,0 0.1,0 0.1,0 0,1.3 0.1,0 0.1,0 0.1,0 0.1,0 0.1,0 0.1,0 0.1,0 0.1,0 0.1,0 0.1,0 0.1,0 0.1,0 0.1,0 0.1,0 0.1,0 0.1,0 0.1,0 0.1,0 0.1,0 0.1,1.4 0.1,0 0.1,0 0.1,0 0.1,0 0.1,0 0.1,0 0.1,0 0.1,0 0.1,0 0.1,0 0.1,0 0.1,0 0.1,0 0.1,0 0.1,0 0.1,0 0.1,0 0.1,0 0.1,1.5 0.1,0 0.1,0 0.1,0 0.1,0 0.1,0 0.1,0 0.1,0 0.1,0 0.1,0 0.1,0 0.1,0 0.1,0 0.1,0 0.1,0 0.1,0 0.1,0 0.1,0 0.1,0 0,1.6 0.1,0 0.1,0 0.1,0 0.1,0 0.1,0 0.1,0 0.1,0 0.1,0 0.1,0 0.1,0 0.1,0 0.1,0 0.1,0 0.1,0 0.1,0 0.1,0 0.1,0 0.1,0 0.1,0 0.1,0 0.1,0 0.1,0 0.1,0 0,1.6 0.1,0 0.1,0 0.1,0 0.1,0 0.1,0 0.1,0 0.1,0 0.1,0 0.1,0 0.1,0 0.1,0 0.1,0 0.1,0 0.1,0 0.1,0 0.1,0 0.1,0 0.1,0 0.1,0 0.1,0 0.1,0 0.1,0 0,1.7 0.1,0 0.1,0 0.1,0 0.1,0 0.1,0 0.1,0 0.1,0 0.1,0 0.1,0 0.1,0 0.1,0 0.1,0 0.1,0 0.1,0 0.1,0 0.1,0 0.1,0 0.1,0 0.1,0 0.1,0 0.1,0 0.1,0 0.1,0 0.1,0 0.1,0 0,1.8 0.1,0 0.1,0 0.1,0 0.1,0 0.1,0 0.1,0 0.1,0 0.1,0 0.1,0 0.1,0 0.1,0 0.1,0 0.1,0 0.1,0 0.1,0 0.1,0 0.1,0 0.1,0 0.1,0 0.1,0 0.1,0 0.1,0 0.1,0 0.1,0 0.1,0 0.1,0 0,1.9 0.1,0 0.1,0 0.1,0 0.1,0 0.1,0 0.1,0 0.1,0 0.1,0 0.1,0 0.1,0 0.1,0 0.1,0 0.1,0 0.1,0 0.1,0 0.1,0 0.1,0 0.1,0 0.1,0 0.1,0 0.1,0 0.1,0 0.1,0 0.1,0 0.1,0 0,2 0.1,0 0.1,0 0.1,0 0.1,0 0.1,0 0.1,0 0.1,0 0.1,0 0.1,0 0.1,0 0.1,0 0.1,0 0.1,0 0.1,0 0.1,0 0.1,0 0.1,0 0.1,0 0.1,0 0.1,0 0.1,0 0.1,0 0.1,0 0.1,0 0.1,0 0.1,0 0.1,0 0.1,2.1 0.1,0 0.1,0 0.1,0 0.1,0 0.1,0 0.1,0 0.1,0 0.1,0 0.1,0 0.1,0 0.1,0 0.1,0 0.1,0 0.1,0 0.1,0 0.1,0 0.1,0 0.1,0 0.1,0 0.1,0 0.1,0 0.1,0 0.1,0 0.1,0 0.1,0 0.1,0 0.1,0 0.1,0 0.1,0 0.1,0 0.1,0 0.1,0 0.1,2.3 0.1,0 0.1,0 0.1,0 0.1,0 0.1,0 0.1,0 0.1,0 0.1,0 0.1,0 0.1,0 0.1,0 0.1,0 0.1,0 0.1,0 0.1,0 0.1,0 0.1,0 0.1,0 0.1,0 0.1,0 0.1,0 0.1,0 0.1,0 0.1,0 0.1,0 0.1,0 0.1,0 0.1,0 0.1,0 0,2.5 0.1,0 0.1,0 0.1,0 0.1,0 0.1,0 0.1,0 0.1,0 0.1,0 0.1,0 0.1,0 0.1,0 0.1,0 0.1,0 0.1,0 0.1,0 0.1,0 0.1,0 0.1,0 0.1,0 0.1,0 0.1,0 0.1,0 0.1,0 0.1,0 0.1,0 0.1,0 0.1,0 0.1,0 0.1,0 0.1,0 0.1,0 0.1,0 0.1,0 0.1,2.6 0.1,0 0.1,0 0.1,0 0.1,0 0.1,0 0.1,0 0.1,0 0.1,0 0.1,0 0.1,0 0.1,0 0.1,0 0.1,0 0.1,0 0.1,0 0.1,0 0.1,0 0.1,0 0.1,0 0.1,0 0.1,0 0.1,0 0.1,0 0.1,0 0.1,0 0.1,0 0.1,0 0.1,0 0.1,0 0.1,0 0.1,0 0.1,0 0.1,0 0.1,0 0.1,0 0.1,0 0,2.9 0.1,0 0.1,0 0.1,0 0.1,0 0.1,0 0.1,0 0.1,0 0.1,0 0.1,0 0.1,0 0.1,0 0.1,0 0.1,0 0.1,0 0.1,0 0.1,0 0.1,0 0.1,0 0.1,0 0.1,0 0.1,0 0.1,0 0.1,0 0.1,0 0.1,0 0.1,0 0.1,0 0.1,0 0.1,0 0.1,0 0.1,0 0.1,0 0.1,0 0.1,0 0.1,0 0.1,0 0.1,0 0.1,0 0.1,0 0.1,0 0.1,0 0,3.2 0.1,0 0.1,0 0.1,0 0.1,0 0.1,0 0.1,0 0.1,0 0.1,0 0.1,0 0.1,0 0.1,0 0.1,0 0.1,0 0.1,0 0.1,0 0.1,0 0.1,0 0.1,0 0.1,0 0.1,0 0.1,0 0.1,0 0.1,0 0.1,0 0.1,0 0.1,0 0.1,0 0.1,0 0.1,0 0.1,0 0.1,0 0.1,0 0.1,0 0.1,0 0.1,0 0.1,0 0.1,0 0.1,0 0.1,0 0.1,0 0.1,0 0.1,0 0.1,0 0.1,0 0.1,0 0.1,0 0.1,0 0.1,0 0.1,0 0,3.5 0.1,0 0.1,0 0.1,0 0.1,0 0.1,0 0.1,0 0.1,0 0.1,0 0.1,0 0.1,0 0.1,0 0.1,0 0.1,0 0.1,0 0.1,0 0.1,0 0.1,0 0.1,0 0.1,0 0.1,0 0.1,0 0.1,0 0.1,0 0.1,0 0.1,0 0.1,0 0.1,0 0.1,0 0.1,0 0.1,0 0.1,0 0.1,0 0.1,0 0.1,0 0.1,0 0.1,0 0.1,0 0.1,0 0.1,0 0.1,0 0.1,0 0.1,0 0.1,0 0.1,0 0.1,0 0.1,0 0.1,0 0.1,0 0.1,0 0.1,0 0.1,0 0.1,0 0.1,0 0.1,0 0.1,0 0,3.9 0.1,0 0.1,0 0.1,0 0.1,0 0.1,0 0.1,0 0.1,0 0.1,0 0.1,0 0.1,0 0.1,0 0.1,0 0.1,0 0.1,0 0.1,0 0.1,0 0.1,0 0.1,0 0.1,0 0.1,0 0.1,0 0.1,0 0.1,0 0.1,0 0.1,0 0.1,0 0.1,0 0.1,0 0.1,0 0.1,0 0.1,0 0.1,0 0.1,0 0.1,0 0.1,0 0.1,0 0.1,0 0.1,0 0.1,0 0.1,0 0.1,0 0.1,0 0.1,0 0.1,0 0.1,0 0.1,0 0.1,0 0.1,0 0.1,0 0.1,0 0.1,0 0.1,0 0.1,0 0.1,0 0.1,0 0,4.4 0.1,0 0.1,0 0.1,0 0.1,0 0.1,0 0.1,0 0.1,0 0.1,0 0.1,0 0.1,0 0.1,0 0.1,0 0.1,0 0.1,0 0.1,0 0.1,0 0.1,0 0.1,0 0.1,0 0.1,0 0.1,0 0.1,0 0.1,0 0.1,0 0.1,0 0.1,0 0.1,0 0.1,0 0.1,0 0.1,0 0.1,0 0.1,0 0.1,0 0.1,0 0.1,0 0.1,0 0.1,0 0.1,0 0.1,0 0.1,0 0.1,0 0.1,0 0.1,0 0.1,0 0.1,0 0.1,0 0.1,0 0.1,0 0.1,0 0.1,0 0.1,0 0.1,0 0.1,0 0.1,0 0.1,0 0.1,0 0.1,0 0.1,0 0.1,0 0.1,0 0.1,0 0.1,0 0.1,0 0.1,0 0.1,0 0.1,0 0.1,0 0,5.2 0.1,0 0.1,0 0.1,0 0.1,0 0.1,0 0.1,0 0.1,0 0.1,0 0.1,0 0.1,0 0.1,0 0.1,0 0.1,0 0.1,0 0.1,0 0.1,0 0.1,0 0.1,0 0.1,0 0.1,0 0.1,0 0.1,0 0.1,0 0.1,0 0.1,0 0.1,0 0.1,0 0.1,0 0.1,0 0.1,0 0.1,0 0.1,0 0.1,0 0.1,0 0.1,0 0.1,0 0.1,0 0.1,0 0.1,0 0.1,0 0.1,0 0.1,0 0.1,0 0.1,0 0.1,0 0.1,0 0.1,0 0.1,0 0.1,0 0.1,0 0.1,0 0.1,0 0.1,0 0.1,0 0.1,0 0.1,0 0.1,0 0.1,0 0.1,0 0.1,0 0.1,0 0.1,0 0.1,0 0.1,0 0.1,0 0.1,0 0.1,0 0.1,0 0.1,0 0.1,0 0.1,0 0.1,0 0.1,0 0.1,0 0.1,0 0.1,0 0.1,0 0.1,0 0.1,0 0,6 0.1,0 0.1,0 0.1,0 0.1,0 0.1,0 0.1,0 0.1,0 0.1,0 0.1,0 0.1,0 0.1,0 0.1,0 0.1,0 0.1,0 0.1,0 0.1,0 0.1,0 0.1,0 0.1,0 0.1,0 0.1,0 0.1,0 0.1,0 0.1,0 0.1,0 0.1,0 0.1,0 0.1,0 0.1,0 0.1,0 0.1,0 0.1,0 0.1,0 0.1,0 0.1,0 0.1,0 0.1,0 0.1,0 0.1,0 0.1,0 0.1,0 0.1,0 0.1,0 0.1,0 0.1,0 0.1,0 0.1,0 0.1,0 0.1,0 0.1,0 0.1,0 0.1,0 0.1,0 0.1,0 0.1,0 0.1,0 0.1,0 0.1,0 0.1,0 0.1,0 0.1,0 0.1,0 0.1,0 0.1,0 0.1,0 0.1,0 0.1,0 0.1,0 0.1,0 0.1,0 0.1,0 0.1,0 0.1,0 0.1,0 0.1,0 0.1,0 0.1,0 0.1,0 0.1,0 0.1,0 0.1,0 0.1,0 0.1,0 0.1,0 0.1,0 0.1,0 0.1,0 0.1,0 0.1,0 0.1,0 0.1,0 0.1,0 0.1,0 0.1,0 0,7.4 0.1,0 0.1,0 0.1,0 0.1,0 0.1,0 0.1,0 0.1,0 0.1,0 0.1,0 0.1,0 0.1,0 0.1,0 0.1,0 0.1,0 0.1,0 0.1,0 0.1,0 0.1,0 0.1,0 0.1,0 0.1,0 0.1,0 0.1,0 0.1,0 0.1,0 0.1,0 0.1,0 0.1,0 0.1,0 0.1,0 0.1,0 0.1,0 0.1,0 0.1,0 0.1,0 0.1,0 0.1,0 0.1,0 0.1,0 0.1,0 0.1,0 0.1,0 0.1,0 0.1,0 0.1,0 0.1,0 0.1,0 0.1,0 0.1,0 0.1,0 0.1,0 0.1,0 0.1,0 0.1,0 0.1,0 0.1,0 0.1,0 0.1,0 0.1,0 0.1,0 0.1,0 0.1,0 0.1,0 0.1,0 0.1,0 0.1,0 0.1,0 0.1,0 0.1,0 0.1,0 0.1,0 0.1,0 0.1,0 0.1,0 0.1,0 0.1,0 0.1,0 0.1,0 0.1,0 0.1,0 0.1,0 0.1,0 0.1,0 0.1,0 0.1,0 0.1,0 0.1,0 0.1,0 0.1,0 0.1,0 0.1,0 0.1,0 0.1,0 0.1,0 0.1,0 0.1,0 0.1,0 0.1,0 0.1,0 0.1,0 0.1,0 0.1,0 0.1,0 0.1,0 0.1,0 0.1,0 0.1,0 0.1,0 0.1,0 0.1,0 0.1,0 0.1,0 0.1,0 0.1,0 0.1,0 0,9.6 0.1,0 0.1,0 0.1,0 0.1,0 0.1,0 0.1,0 0.1,0 0.1,0 0.1,0 0.1,0 0.1,0 0.1,0 0.1,0 0.1,0 0.1,0 0.1,0 0.1,0 0.1,0 0.1,0 0.1,0 0.1,0 0.1,0 0.1,0 0.1,0 0.1,0 0.1,0 0.1,0 0.1,0 0.1,0 0.1,0 0.1,0 0.1,0 0.1,0 0.1,0 0.1,0 0.1,0 0.1,0 0.1,0 0.1,0 0.1,0 0.1,0 0.1,0 0.1,0 0.1,0 0.1,0 0.1,0 0.1,0 0.1,0 0.1,0 0.1,0 0.1,0 0.1,0 0.1,0 0.1,0 0.1,0 0.1,0 0.1,0 0.1,0 0.1,0 0.1,0 0.1,0 0.1,0 0.1,0 0.1,0 0.1,0 0.1,0 0.1,0 0.1,0 0.1,0 0.1,0 0.1,0 0.1,0 0.1,0 0.1,0 0.1,0 0.1,0 0.1,0 0.1,0 0.1,0 0.1,0 0.1,0 0.1,0 0.1,0 0.1,0 0.1,0 0.1,0 0.1,0 0.1,0 0.1,0 0.1,0 0.1,0 0.1,0 0.1,0 0.1,0 0.1,0 0.1,0 0.1,0 0.1,0 0.1,0 0.1,0 0.1,0 0.1,0 0.1,0 0.1,0 0.1,0 0.1,0 0.1,0 0.1,0 0.1,0 0.1,0 0.1,0 0.1,0 0.1,0 0.1,0 0.1,0 0.1,0 0.1,0 0.1,0 0.1,0 0.1,0 0.1,0 0.1,0 0.1,0 0.1,0 0.1,0 0.1,0 0.1,0 0.1,0 0.1,0 0.1,0 0.1,0 0.1,0 0.1,0 0.1,0 0.1,0 0.1,0 0.1,0 0.1,0 0.1,0 0.1,0 0.1,0 0.1,0 0.1,0 0.1,0 0.1,0 0.1,0 0.1,13.4 0.1,0 0.1,0 0.1,0 0.1,0 0.1,0 0.1,0 0.1,0 0.1,0 0.1,0 0.1,0 0.1,0 0.1,0 0.1,0 0.1,0 0.1,0 0.1,0 0.1,0 0.1,0 0.1,0 0.1,0 0.1,0 0.1,0 0.1,0 0.1,0 0.1,0 0.1,0 0.1,0 0.1,0 0.1,0 0.1,0 0.1,0 0.1,0 0.1,0 0.1,0 0.1,0 0.1,0 0.1,0 0.1,0 0.1,0 0.1,0 0.1,0 0.1,0 0.1,0 0.1,0 0.1,0 0.1,0 0.1,0 0.1,0 0.1,0 0.1,0 0.1,0 0.1,0 0.1,0 0.1,0 0.1,0 0.1,0 0.1,0 0.1,0 0.1,0 0.1,0 0.1,0 0.1,0 0.1,0 0.1,0 0.1,0 0.1,0 0.1,0 0.1,0 0.1,0 0.1,0 0.1,0 0.1,0 0.1,0 0.1,0 0.1,0 0.1,0 0.1,0 0.1,0 0.1,0 0.1,0 0.1,0 0.1,0 0.1,0 0.1,0 0.1,0 0.1,0 0.1,0 0.1,0 0.1,0 0.1,0 0.1,0 0.1,0 0.1,0 0.1,0 0.1,0 0.1,0 0.1,0 0.1,0 0.1,0 0.1,0 0.1,0 0.1,0 0.1,0 0.1,0 0.1,0 0.1,0 0.1,0 0.1,0 0.1,0 0.1,0 0.1,0 0.1,0 0.1,0 0.1,0 0.1,0 0.1,0 0.1,0 0.1,0 0.1,0 0.1,0 0.1,0 0.1,0 0.1,0 0.1,0 0.1,0 0.1,0 0.1,0 0.1,0 0.1,0 0.1,0 0.1,0 0.1,0 0.1,0 0.1,0 0.1,0 0.1,0 0.1,0 0.1,0 0.1,0 0.1,0 0.1,0 0.1,0 0.1,0 0.1,0 0.1,0 0.1,0 0.1,0 0.1,0 0.1,0 0.1,0 0.1,0 0.1,0 0.1,0 0.1,0 0.1,0 0.1,0 0.1,0 0.1,0 0.1,0 0.1,0 0.1,0 0.1,0 0.1,0 0.1,0 0.1,0 0.1,0 0.1,0 0.1,0 0.1,0 0.1,0 0.1,0 0.1,0 0.1,0 0.1,0 0.1,0 0.1,0 0.1,0 0.1,0 0.1,0 0.1,0 0.1,0 0.1,0 0.1,0 0.1,0 0.1,0 0.1,0 0.1,0 0.1,0 0.1,0 0.1,0 0.1,0 0.1,0 0.1,0 0.1,0 0.1,0 0.1,0 0.1,0 0.1,0 0.1,0 0.1,0 0.1,0 0.1,0 0.1,0 0.1,0 0.1,0 0.1,0 0.1,0 0.1,0 0.1,0 0.1,0 0.1,0 0.1,0 0.1,0 0.1,0 0.1,0 0.1,0 0.1,0 0.1,0 0.1,0 0.1,0 0.1,0 0.1,0 0.1,0 0,23.1 0.1,0 0.1,0 0.1,0 0.1,0 0.1,0 0.1,0 0.1,0 0.1,0 0.1,0 0.1,0 0.1,0 0.1,0 0.1,0 0.1,0 0.1,0 0.1,0 0.1,0 0.1,0 0.1,0 0.1,0 0.1,0 0.1,0 0.1,0 0.1,0 0.1,0 0.1,0 0.1,0 0.1,0 0.1,0 0.1,0 0.1,0 0.1,0 0.1,0 0.1,0 0.1,0 0.1,0 0.1,0 0.1,0 0.1,0 0.1,0 0.1,0 0.1,0 0.1,0 0.1,0 0.1,0 0.1,0 0.1,0 0.1,0 0.1,0 0.1,0 0.1,0 0.1,0 0.1,0 0.1,0 0.1,0 0.1,0 0.1,0 0.1,0 0.1,0 0.1,0 0.1,0 0.1,0 0.1,0 0.1,0 0.1,0 0.1,0 0.1,0 0.1,0 0.1,0 0.1,0 0.1,0 0.1,0 0.1,0 0.1,0 0.1,0 0.1,0 0.1,0 0.1,0 0.1,0 0.1,0 0.1,0 0.1,0 0.1,0 0.1,0 0.1,0 0.1,0 0.1,0 0.1,0 0.1,0 0.1,0 0.1,0 0.1,0 0.1,0 0.1,0 0.1,0 0.1,0 0.1,0 0.1,0 0.1,0 0.1,0 0.1,0 0.1,0 0.1,0 0.1,0 0.1,0 0.1,0 0.1,0 0.1,0 0.1,0 0.1,0 0.1,0 0.1,0 0.1,0 0.1,0 0.1,0 0.1,0 0.1,0 0.1,0 0.1,0 0.1,0 0.1,0 0.1,0 0.1,0 0.1,0 0.1,0 0.1,0 0.1,0 0.1,0 0.1,0 0.1,0 0.1,0 0.1,0 0.1,0 0.1,0 0.1,0 0.1,0 0.1,0 0.1,0 0.1,0 0.1,0 0.1,0 0.1,0 0.1,0 0.1,0 0.1,0 0.1,0 0.1,0 0.1,0 0.1,0 0.1,0 0.1,0 0.1,0 0.1,0 0.1,0 0.1,0 0.1,0 0.1,0 0.1,0 0.1,0 0.1,0 0.1,0 0.1,0 0.1,0 0.1,0 0.1,0 0.1,0 0.1,0 0.1,0 0.1,0 0.1,0 0.1,0 0.1,0 0.1,0 0.1,0 0.1,0 0.1,0 0.1,0 0.1,0 0.1,0 0.1,0 0.1,0 0.1,0 0.1,0 0.1,0 0.1,0 0.1,0 0.1,0 0.1,0 0.1,0 0.1,0 0.1,0 0.1,0 0.1,0 0.1,0 0.1,0 0.1,0 0.1,0 0.1,0 0.1,0 0.1,0 0.1,0 0.1,0 0.1,0 0.1,0 0.1,0 0.1,0 0.1,0 0.1,0 0.1,0 0.1,0 0.1,0 0.1,0 0.1,0 0.1,0 0.1,0 0.1,0 0.1,0 0.1,0 0.1,0 0.1,0 0.1,0 0.1,0 0.1,0 0.1,0 0.1,0 0.1,0 0.1,0 0.1,0 0.1,0 0.1,0 0.1,0 0.1,0 0.1,0 0.1,0 0.1,0 0.1,0 0.1,0 0.1,0 0.1,0 0.1,0 0.1,0 0.1,0 0.1,0 0.1,0 0.1,0 0.1,0 0.1,0 0.1,0 0.1,0 0.1,0 0.1,0 0.1,0 0.1,0 0.1,0 0.1,0 0.1,0 0.1,0 0.1,0 0.1,0 0.1,0 0.1,0 0.1,0 0.1,0 0.1,0 0.1,0 0.1,0 0.1,0 0.1,0 0.1,0 0.1,0 0.1,0 0.1,0 0.1,0 0.1,0 0.1,0 0.1,0 0.1,0 0.1,0 0.1,0 0.1,0 0.1,0 0.1,0 0.1,0 0.1,0 0.1,0 0.1,0 0.1,0 0.1,0 0.1,0 0.1,0 0.1,0 0.1,0 0.1,0 0.1,0 0.1,0 0.1,0 0.1,0 0.1,0 0.1,0 0.1,0 0.1,0 0.1,0 0.1,0 0.1,0 0.1,0 0.1,0 0.1,0 0.1,0 0.1,0 0.1,0 0.1,0 0.1,0 0.1,0 0.1,0 0.1,0 0.1,0 0.1,0 0.1,0 0.1,0 0.1,0 0.1,0 0.1,0 0.1,0 0.1,0 0.1,0 0.1,0 0.1,0 0.1,0 0.1,0 0.1,0 0.1,0 0.1,0 0.1,0 0.1,0 0.1,0 0.1,0 0.1,0 0.1,0 0.1,0 0.1,0 0.1,0 0.1,0 0.1,0 0.1,0 0.1,0 0.1,0 0.1,0 0.1,0 0.1,0 0.1,0 0.1,0 0.1,0 0.1,0 0.1,0 0.1,0 0.1,0 0.1,0 0.1,0 0.1,0 0.1,0 0.1,0 0.1,0 0.1,0 0.1,0 0.1,0 0.1,0 0.1,0 0.1,0 0.1,0 0.1,0 0.1,0 0.1,0 0.1,0 0.1,0 0.1,0 0.1,0 0.1,0 0.1,0 0.1,0 0.1,0 0.1,0 0.1,0 0.1,0 0.1,0 0.1,0 0.1,0 0.1,0 0.1,0 0.1,0 0.1,0 0.1,0 0.1,0 0.1,0 0.1,0 0.1,0 0.1,0 0.1,0 0.1,0 0.1,0 0.1,0 0.1,0 0.1,0 0.1,0 0.1,0 0.1,0 0.1,0 0.1,0 0.1,0 0.1,0 0.1,0 0.1,0 0.1,0 0.1,0 0.1,0 0.1,0 0.1,0 0.1,0 0.1,0 0.1,0 0.1,0 0.1,0 0.1,0 0.1,0 h 0.01"
           id="path190"
           style="stroke:#000000;stroke-width:2;stroke-miterlimit:4;stroke-dasharray:none"
           inkscape:connector-curvature="0" />
      </g>
    </g>
    <g
       id="gnuplot_plot_2a">
      <title
         id="title193">gnuplot_plot_2a</title>
      <g
         style="color:#ff0000;fill:none;stroke:currentColor;stroke-width:0.5;stroke-linecap:butt;stroke-linejoin:miter"
         id="g195">
        <g
           transform="translate(513.9,38.3)"
           style="font-size:12.5px;text-anchor:end;fill:#000000;stroke:none"
           id="g197">
          <text
             id="text199">
            <tspan
               id="tspan201">after sgt smoothing</tspan>
          </text>
        </g>
        <path
           d="m 519.5,35.3 28.4,0 m -505.1,-7 34.3,6.7 20,5.8 14.2,17.2 11.1,6.5 9,4.2 7.6,6.5 6.6,0.9 5.8,1.5 5.2,12.5 4.7,0.9 4.3,0.2 4,2.2 3.6,1.2 3.5,2.1 3.1,0.6 3,1.3 2.9,0 2.6,2.4 2.6,0.5 2.4,1.3 2.3,1.2 2.2,3.6 2.1,0.6 2,1.7 1.9,0.1 1.9,3.2 1.8,0.5 1.7,3.7 1.7,2.5 1.6,0.8 1.6,0.5 1.5,0.4 1.5,0.2 1.4,0.5 1.4,0.7 1.4,1 1.3,2.9 1.3,3 1.2,1.3 1.3,0.7 1.1,0.5 1.2,0.9 1.1,1.1 1.2,0.3 1,0.5 1.1,0.3 1,2.9 1.1,0 1,0.7 0.9,0.9 1,0.4 0.9,0.1 1,0.2 0.9,1 0.9,0.1 0.8,0.1 0.9,1.5 0.8,1.5 0.9,1.2 0.8,1.2 0.8,1.6 0.8,0.5 0.8,0.1 0.7,1.3 0.8,0.1 0.7,0.1 0.8,0.7 0.7,0 0.7,0.7 0.7,1 0.7,0.6 0.7,0.3 0.6,0.6 0.7,0 0.7,0.2 0.6,0.3 0.6,0.1 0.7,0 0.6,0.1 0.6,1.1 0.6,2.5 0.6,0.2 0.6,0.2 0.6,0.3 0.6,0.4 0.5,0.7 0.6,0.3 0.6,0.4 0.5,0.1 0.6,0.1 0.5,0.1 0.5,1.6 0.6,0.7 0.5,0.2 0.5,0.2 0.5,0.5 0.5,0 0.5,0.8 0.5,0.1 0.5,0.2 0.5,0.2 0.5,0.4 0.5,0.4 0.4,0.1 0.5,0.3 0.5,0.5 0.4,0.1 0.5,0.2 0.4,0.1 0.5,0.2 0.4,0.7 0.5,0.3 0.4,1.2 0.4,0 0.5,0.1 0.4,0.3 0.4,1.1 0.4,0.4 0.4,0.4 0.4,0.1 0.5,0 0.4,1 0.4,0.1 0.4,0.2 0.3,0.7 0.4,0 0.4,0.1 0.4,0.4 0.4,0.3 0.4,0.2 0.3,0.1 0.4,0.2 0.4,0 0.4,0.1 0.3,0.3 0.4,0.1 0.3,0.3 0.4,0.2 0.4,0 0.3,0.2 0.4,0.7 0.3,0 0.3,0.2 0.4,0 0.3,0.3 0.4,0.2 0.3,0 0.3,0.1 0.4,0.7 0.3,0 0.3,0.1 0.3,0.3 0.4,0.4 0.3,0.1 0.3,0.2 0.3,0 0.3,0 0.3,0.7 0.4,0.3 0.3,0 0.3,0.7 0.3,0.2 0.3,0.6 0.3,0.5 0.3,0.2 0.3,0 0.3,0.4 0.3,0 0.3,0 0.2,0 0.3,0.2 0.3,0.3 0.3,0 0.3,0.6 0.3,0 0.2,0.6 0.3,0.2 0.3,0.2 0.3,0.4 0.2,0 0.3,0.2 0.3,0.2 0.3,0.2 0.2,0 0.3,0.2 0.3,0 0.2,0.2 0.3,0 0.2,0.2 0.3,0.2 0.3,0 0.2,0.3 0.3,0 0.2,0 0.3,0.2 0.2,0.2 0.3,0.2 0.2,0.2 0.3,0 0.2,0.2 0.3,0 0.2,0 0.3,0.3 0.2,0 0.2,0 0.3,0.4 0.2,0 0.3,0 0.2,0 0.2,0.2 0.3,0 0.2,1.2 0.2,0 0.3,0 0.2,0.7 0.2,0.2 0.2,0 0.3,0 0.2,0.3 0.2,0 0.2,0 0.3,0 0.2,0.2 0.2,0 0.2,0.3 0.2,0 0.3,0 0.2,0.4 0.2,0 0.2,0 0.2,0 0.2,0.8 0.2,0 0.3,0 0.2,0 0.2,0 0.2,0.3 0.2,0 0.2,0.2 0.2,0 0.2,0.5 0.2,0 0.2,0.3 0.2,0.3 0.2,0 0.2,0.2 0.2,0.3 0.2,0.3 0.2,0 0.2,0.3 0.2,0 0.2,0.2 0.2,0 0.2,0 0.2,0 0.2,0.3 0.2,0 0.2,0 0.2,0 0.1,0.3 0.2,0 0.2,0.3 0.2,0.3 0.2,0.3 0.2,0 0.2,0.3 0.1,0 0.2,0 0.2,0 0.2,0 0.2,0.3 0.2,0 0.1,0.2 0.2,0 0.2,0.3 0.2,0 0.2,0 0.1,0 0.2,0 0.2,0.4 0.2,0 0.1,0 0.2,0.3 0.2,0.3 0.2,0.3 0.1,0 0.2,0 0.2,0.3 0.1,0.3 0.2,0.3 0.2,0 0.2,0.4 0.1,0 0.2,0 0.2,0 0.1,0 0.2,0 0.2,0.3 0.1,0 0.2,0 0.2,0.3 0.1,0.3 0.2,0 0.1,0 0.2,0 0.2,0 0.1,0.4 0.2,0 0.1,0.7 0.2,0.3 0.2,0 0.1,0 0.2,0.4 0.1,0.3 0.2,0 0.1,0.4 0.2,0 0.2,0 0.1,0.3 0.2,0.4 0.1,0 0.2,0 0.1,0 0.2,0 0.1,0 0.2,0 0.1,0.4 0.2,0 0.1,0 0.2,0.4 0.1,0 0.2,0.3 0.1,0 0.2,0 0.1,0 0.2,0.4 0.1,0 0.2,0.4 0.1,0 0.2,0 0.1,0 0.1,0 0.2,0.4 0.1,0.4 0.2,0 0.1,0.4 0.2,0 0.1,0 0.1,0 0.2,0 0.1,0 0.2,0.4 0.1,0.4 0.1,0 0.2,0 0.1,0 0.2,0 0.1,0 0.1,0.4 0.2,0 0.1,0 0.1,0.5 0.2,0.4 0.1,0 0.2,0 0.1,0 0.1,0.4 0.2,0 0.1,0 0.1,0 0.2,0.5 0.1,0 0.1,0 0.2,0 0.1,0 0.1,0 0.1,0 0.2,0.4 0.1,0 0.1,0 0.2,0 0.1,0 0.1,0 0.2,0 0.1,0.4 0.1,0 0.1,0 0.2,0 0.1,0 0.1,0 0.1,0 0.2,0 0.1,0.5 0.1,0 0.1,0.5 0.2,0 0.1,0 0.1,0 0.1,0 0.2,0 0.1,0 0.1,0 0.1,0 0.2,0.4 0.1,0 0.1,0 0.1,0.5 0.1,0 0.2,0 0.1,0 0.1,0.5 0.1,0 0.1,0 0.2,0 0.1,0 0.1,0 0.1,0.5 0.1,0 0.2,0 0.1,0 0.1,0 0.1,0 0.1,0 0.1,0.5 0.2,0 0.1,0 0.1,0 0.1,0 0.1,0 0.1,0.5 0.1,0 0.2,0 0.1,0 0.1,0 0.1,0 0.1,0.5 0.1,0 0.1,0 0.2,0 0.1,0 0.1,0 0.1,0 0.1,0 0.1,0.5 0.1,0 0.1,0.6 0.1,0 0.2,0 0.1,0 0.1,0 0.1,0.5 0.1,0 0.1,0 0.1,0 0.1,0 0.1,0 0.1,0 0.1,0 0.2,0 0.1,0.5 0.1,0 0.1,0 0.1,0 0.1,0 0.1,0 0.1,0 0.1,0 0.1,0 0.1,0.6 0.1,0 0.1,0 0.1,0 0.1,0 0.1,0.6 0.1,0 0.1,0 0.1,0 0.2,0 0.1,0 0.1,0 0.1,0.5 0.1,0 0.1,0 0.1,0 0.1,0 0.1,0 0.1,0 0.1,0 0.1,0 0.1,0 0.1,0 0.1,0 0.1,0 0.1,0 0.1,0 0.1,0.6 0.1,0 0.1,0 0.1,0 0.1,0 0.1,0 0.1,0.6 0.1,0 0.1,0 0.1,0 0.1,0 0.1,0 0.1,0 0.1,0 0,0.6 0.1,0 0.1,0 0.1,0 0.1,0 0.1,0 0.1,0 0.1,0 0.1,0 0.1,0 0.1,0 0.1,0.7 0.1,0 0.1,0 0.1,0 0.1,0 0.1,0 0.1,0 0.1,0 0.1,0 0.1,0.6 0.1,0 0.1,0 0.1,0 0.1,0 0.1,0 0.1,0 0.1,0 0.1,0 0.1,0 0.1,0 0.1,0.6 0.1,0 0.1,0 0.1,0 0.1,0 0.1,0 0.1,0 0.1,0 0.1,0.7 0.1,0 0.1,0 0.1,0 0.1,0 0.1,0 0.1,0 0.1,0 0.1,0 0.1,0 0.1,0 0.1,0 0.1,0 0.1,0 0.1,0 0.1,0.7 0.1,0 0.1,0 0.1,0 0.1,0 0.1,0 0.1,0 0.1,0 0.1,0 0.1,0 0.1,0 0.1,0 0.1,0 0,0.6 0.1,0 0.1,0 0.1,0 0.1,0 0.1,0 0.1,0 0.1,0 0.1,0.7 0.1,0 0.1,0 0.1,0 0.1,0 0.1,0 0.1,0.8 0.1,0 0.1,0 0.1,0 0.1,0 0.1,0 0.1,0 0.1,0.7 0.1,0 0.1,0 0.1,0 0.1,0 0.1,0 0.1,0 0.1,0 0.1,0 0.1,0.7 0.1,0 0.1,0 0.1,0 0.1,0 0.1,0 0.1,0 0.1,0 0.1,0 0.1,0 0.1,0 0.1,0 0.1,0 0.1,0 0.1,0.8 0.1,0 0.1,0 0.1,0 0.1,0 0.1,0 0.1,0 0.1,0 0.1,0 0.1,0 0.1,0 0.1,0 0.1,0 0.1,0 0.1,0 0.1,0.8 0.1,0 0.1,0 0.1,0 0.1,0 0.1,0 0.1,0 0.1,0 0.1,0 0.1,0 0.1,0 0.1,0 0.1,0 0.1,0.8 0.1,0 0.1,0 0.1,0 0.1,0 0.1,0 0.1,0 0.1,0 0.1,0 0.1,0 0.1,0 0.1,0 0.1,0 0.1,0.8 0.1,0 0.1,0 0.1,0 0.1,0 0.1,0 0.1,0 0.1,0 0.1,0 0.1,0 0.1,0 0.1,0 0.1,0.8 0.1,0 0.1,0 0.1,0 0.1,0 0.1,0 0.1,0 0.1,0 0.1,0 0.1,0 0.1,0 0.1,0 0.1,0 0.1,0 0.1,0 0.1,0 0.1,0 0.1,0 0.1,0 0.1,0.9 0.1,0 0.1,0 0.1,0 0.1,0 0.1,0 0.1,0 0.1,0 0.1,0 0.1,0 0.1,0 0.1,0 0.1,0 0.1,0.9 0.1,0 0.1,0 0.1,0 0.1,0 0.1,0 0.1,0 0.1,0 0.1,0 0.1,0 0.1,0 0.1,0 0.1,0 0.1,0 0.1,0.9 0.1,0 0.1,0 0.1,0 0.1,0 0.1,0 0.1,0 0.1,0 0.1,0 0.1,0 0.1,0 0.1,0 0.1,0 0.1,0 0.1,0 0.1,0 0.1,0 0.1,0.9 0.1,0 0.1,0 0.1,0 0.1,0 0.1,0 0.1,0 0.1,0 0.1,0 0.1,0 0.1,0 0.1,0 0.1,0 0,1 0.1,0 0.1,0 0.1,0 0.1,0 0.1,0 0.1,0 0.1,0 0.1,0 0.1,0 0.1,0 0.1,0 0.1,0 0.1,0 0,1 0.1,0 0.1,0 0.1,0 0.1,0 0.1,0 0.1,0 0.1,0 0.1,0 0.1,0 0.1,0 0.1,0 0.1,0 0.1,0 0.1,0 0.1,0 0.1,0 0,1 0.1,0 0.1,0 0.1,0 0.1,0 0.1,0 0.1,0 0.1,0 0.1,0 0.1,0 0.1,0 0.1,1 0.1,0 0.1,0 0.1,0 0.1,0 0.1,0 0.1,0 0.1,0 0.1,0 0.1,0 0.1,0 0.1,0 0.1,1.1 0.1,0 0.1,0 0.1,0 0.1,0 0.1,0 0.1,0 0.1,0 0.1,0 0.1,0 0.1,0 0.1,0 0.1,1.1 0.1,0 0.1,0 0.1,0 0.1,0 0.1,0 0.1,0 0.1,0 0.1,0 0.1,0 0.1,0 0.1,0 0.1,0 0.1,0 0.1,0 0.1,0 0.1,0 0.1,0 0.1,0 0.1,0 0.1,0 0.1,0 0.1,1.2 0.1,0 0.1,0 0.1,0 0.1,0 0.1,0 0.1,0 0.1,0 0.1,0 0.1,0 0.1,0 0.1,0 0.1,0 0.1,1.2 0.1,0 0.1,0 0.1,0 0.1,0 0.1,0 0.1,0 0.1,0 0.1,0 0.1,0 0.1,0 0.1,0 0.1,0 0.1,0 0.1,0 0.1,0 0.1,0 0.1,0 0.1,0 0.1,0 0,1.2 0.1,0 0.1,0 0.1,0 0.1,0 0.1,0 0.1,0 0.1,0 0.1,0 0.1,0 0.1,0 0.1,0 0.1,0 0.1,0 0.1,0 0.1,0 0.1,0 0.1,0 0.1,0 0,1.3 0.1,0 0.1,0 0.1,0 0.1,0 0.1,0 0.1,0 0.1,0 0.1,0 0.1,0 0.1,0 0.1,0 0.1,0 0.1,0 0.1,0 0.1,0 0.1,0 0.1,0 0.1,0 0.1,0 0.1,0 0.1,0 0,1.4 0.1,0 0.1,0 0.1,0 0.1,0 0.1,0 0.1,0 0.1,0 0.1,0 0.1,0 0.1,0 0.1,0 0.1,0 0.1,0 0.1,0 0.1,0 0.1,0 0.1,0 0.1,0 0.1,0 0.1,1.4 0.1,0 0.1,0 0.1,0 0.1,0 0.1,0 0.1,0 0.1,0 0.1,0 0.1,0 0.1,0 0.1,0 0.1,0 0.1,0 0.1,0 0.1,0 0.1,0 0.1,0 0.1,0 0.1,1.5 0.1,0 0.1,0 0.1,0 0.1,0 0.1,0 0.1,0 0.1,0 0.1,0 0.1,0 0.1,0 0.1,0 0.1,0 0.1,0 0.1,0 0.1,0 0.1,0 0.1,0 0.1,0 0,1.5 0.1,0 0.1,0 0.1,0 0.1,0 0.1,0 0.1,0 0.1,0 0.1,0 0.1,0 0.1,0 0.1,0 0.1,0 0.1,0 0.1,0 0.1,0 0.1,0 0.1,0 0.1,0 0.1,0 0.1,0 0.1,0 0.1,0 0.1,0 0,1.6 0.1,0 0.1,0 0.1,0 0.1,0 0.1,0 0.1,0 0.1,0 0.1,0 0.1,0 0.1,0 0.1,0 0.1,0 0.1,0 0.1,0 0.1,0 0.1,0 0.1,0 0.1,0 0.1,0 0.1,0 0.1,0 0.1,0 0,1.7 0.1,0 0.1,0 0.1,0 0.1,0 0.1,0 0.1,0 0.1,0 0.1,0 0.1,0 0.1,0 0.1,0 0.1,0 0.1,0 0.1,0 0.1,0 0.1,0 0.1,0 0.1,0 0.1,0 0.1,0 0.1,0 0.1,0 0.1,0 0.1,0 0.1,0 0,1.8 0.1,0 0.1,0 0.1,0 0.1,0 0.1,0 0.1,0 0.1,0 0.1,0 0.1,0 0.1,0 0.1,0 0.1,0 0.1,0 0.1,0 0.1,0 0.1,0 0.1,0 0.1,0 0.1,0 0.1,0 0.1,0 0.1,0 0.1,0 0.1,0 0.1,0 0.1,0 0,1.9 0.1,0 0.1,0 0.1,0 0.1,0 0.1,0 0.1,0 0.1,0 0.1,0 0.1,0 0.1,0 0.1,0 0.1,0 0.1,0 0.1,0 0.1,0 0.1,0 0.1,0 0.1,0 0.1,0 0.1,0 0.1,0 0.1,0 0.1,0 0.1,0 0.1,0 0,2 0.1,0 0.1,0 0.1,0 0.1,0 0.1,0 0.1,0 0.1,0 0.1,0 0.1,0 0.1,0 0.1,0 0.1,0 0.1,0 0.1,0 0.1,0 0.1,0 0.1,0 0.1,0 0.1,0 0.1,0 0.1,0 0.1,0 0.1,0 0.1,0 0.1,0 0.1,0 0.1,0 0.1,2.1 0.1,0 0.1,0 0.1,0 0.1,0 0.1,0 0.1,0 0.1,0 0.1,0 0.1,0 0.1,0 0.1,0 0.1,0 0.1,0 0.1,0 0.1,0 0.1,0 0.1,0 0.1,0 0.1,0 0.1,0 0.1,0 0.1,0 0.1,0 0.1,0 0.1,0 0.1,0 0.1,0 0.1,0 0.1,0 0.1,0 0.1,0 0.1,0 0.1,2.3 0.1,0 0.1,0 0.1,0 0.1,0 0.1,0 0.1,0 0.1,0 0.1,0 0.1,0 0.1,0 0.1,0 0.1,0 0.1,0 0.1,0 0.1,0 0.1,0 0.1,0 0.1,0 0.1,0 0.1,0 0.1,0 0.1,0 0.1,0 0.1,0 0.1,0 0.1,0 0.1,0 0.1,0 0.1,0 0,2.4 0.1,0 0.1,0 0.1,0 0.1,0 0.1,0 0.1,0 0.1,0 0.1,0 0.1,0 0.1,0 0.1,0 0.1,0 0.1,0 0.1,0 0.1,0 0.1,0 0.1,0 0.1,0 0.1,0 0.1,0 0.1,0 0.1,0 0.1,0 0.1,0 0.1,0 0.1,0 0.1,0 0.1,0 0.1,0 0.1,0 0.1,0 0.1,0 0.1,0 0.1,2.7 0.1,0 0.1,0 0.1,0 0.1,0 0.1,0 0.1,0 0.1,0 0.1,0 0.1,0 0.1,0 0.1,0 0.1,0 0.1,0 0.1,0 0.1,0 0.1,0 0.1,0 0.1,0 0.1,0 0.1,0 0.1,0 0.1,0 0.1,0 0.1,0 0.1,0 0.1,0 0.1,0 0.1,0 0.1,0 0.1,0 0.1,0 0.1,0 0.1,0 0.1,0 0.1,0 0.1,0 0,2.8 0.1,0 0.1,0 0.1,0 0.1,0 0.1,0 0.1,0 0.1,0 0.1,0 0.1,0 0.1,0 0.1,0 0.1,0 0.1,0 0.1,0 0.1,0 0.1,0 0.1,0 0.1,0 0.1,0 0.1,0 0.1,0 0.1,0 0.1,0 0.1,0 0.1,0 0.1,0 0.1,0 0.1,0 0.1,0 0.1,0 0.1,0 0.1,0 0.1,0 0.1,0 0.1,0 0.1,0 0.1,0 0.1,0 0.1,0 0.1,0 0.1,0 0,3.2 0.1,0 0.1,0 0.1,0 0.1,0 0.1,0 0.1,0 0.1,0 0.1,0 0.1,0 0.1,0 0.1,0 0.1,0 0.1,0 0.1,0 0.1,0 0.1,0 0.1,0 0.1,0 0.1,0 0.1,0 0.1,0 0.1,0 0.1,0 0.1,0 0.1,0 0.1,0 0.1,0 0.1,0 0.1,0 0.1,0 0.1,0 0.1,0 0.1,0 0.1,0 0.1,0 0.1,0 0.1,0 0.1,0 0.1,0 0.1,0 0.1,0 0.1,0 0.1,0 0.1,0 0.1,0 0.1,0 0.1,0 0.1,0 0.1,0 0,3.4 0.1,0 0.1,0 0.1,0 0.1,0 0.1,0 0.1,0 0.1,0 0.1,0 0.1,0 0.1,0 0.1,0 0.1,0 0.1,0 0.1,0 0.1,0 0.1,0 0.1,0 0.1,0 0.1,0 0.1,0 0.1,0 0.1,0 0.1,0 0.1,0 0.1,0 0.1,0 0.1,0 0.1,0 0.1,0 0.1,0 0.1,0 0.1,0 0.1,0 0.1,0 0.1,0 0.1,0 0.1,0 0.1,0 0.1,0 0.1,0 0.1,0 0.1,0 0.1,0 0.1,0 0.1,0 0.1,0 0.1,0 0.1,0 0.1,0 0.1,0 0.1,0 0.1,0 0.1,0 0.1,0 0.1,0 0,3.9 0.1,0 0.1,0 0.1,0 0.1,0 0.1,0 0.1,0 0.1,0 0.1,0 0.1,0 0.1,0 0.1,0 0.1,0 0.1,0 0.1,0 0.1,0 0.1,0 0.1,0 0.1,0 0.1,0 0.1,0 0.1,0 0.1,0 0.1,0 0.1,0 0.1,0 0.1,0 0.1,0 0.1,0 0.1,0 0.1,0 0.1,0 0.1,0 0.1,0 0.1,0 0.1,0 0.1,0 0.1,0 0.1,0 0.1,0 0.1,0 0.1,0 0.1,0 0.1,0 0.1,0 0.1,0 0.1,0 0.1,0 0.1,0 0.1,0 0.1,0 0.1,0 0.1,0 0.1,0 0.1,0 0.1,0 0,4.4 0.1,0 0.1,0 0.1,0 0.1,0 0.1,0 0.1,0 0.1,0 0.1,0 0.1,0 0.1,0 0.1,0 0.1,0 0.1,0 0.1,0 0.1,0 0.1,0 0.1,0 0.1,0 0.1,0 0.1,0 0.1,0 0.1,0 0.1,0 0.1,0 0.1,0 0.1,0 0.1,0 0.1,0 0.1,0 0.1,0 0.1,0 0.1,0 0.1,0 0.1,0 0.1,0 0.1,0 0.1,0 0.1,0 0.1,0 0.1,0 0.1,0 0.1,0 0.1,0 0.1,0 0.1,0 0.1,0 0.1,0 0.1,0 0.1,0 0.1,0 0.1,0 0.1,0 0.1,0 0.1,0 0.1,0 0.1,0 0.1,0 0.1,0 0.1,0 0.1,0 0.1,0 0.1,0 0.1,0 0.1,0 0.1,0 0.1,0 0.1,0 0,5 0.1,0 0.1,0 0.1,0 0.1,0 0.1,0 0.1,0 0.1,0 0.1,0 0.1,0 0.1,0 0.1,0 0.1,0 0.1,0 0.1,0 0.1,0 0.1,0 0.1,0 0.1,0 0.1,0 0.1,0 0.1,0 0.1,0 0.1,0 0.1,0 0.1,0 0.1,0 0.1,0 0.1,0 0.1,0 0.1,0 0.1,0 0.1,0 0.1,0 0.1,0 0.1,0 0.1,0 0.1,0 0.1,0 0.1,0 0.1,0 0.1,0 0.1,0 0.1,0 0.1,0 0.1,0 0.1,0 0.1,0 0.1,0 0.1,0 0.1,0 0.1,0 0.1,0 0.1,0 0.1,0 0.1,0 0.1,0 0.1,0 0.1,0 0.1,0 0.1,0 0.1,0 0.1,0 0.1,0 0.1,0 0.1,0 0.1,0 0.1,0 0.1,0 0.1,0 0.1,0 0.1,0 0.1,0 0.1,0 0.1,0 0.1,0 0.1,0 0.1,0 0.1,0 0.1,0 0,6 0.1,0 0.1,0 0.1,0 0.1,0 0.1,0 0.1,0 0.1,0 0.1,0 0.1,0 0.1,0 0.1,0 0.1,0 0.1,0 0.1,0 0.1,0 0.1,0 0.1,0 0.1,0 0.1,0 0.1,0 0.1,0 0.1,0 0.1,0 0.1,0 0.1,0 0.1,0 0.1,0 0.1,0 0.1,0 0.1,0 0.1,0 0.1,0 0.1,0 0.1,0 0.1,0 0.1,0 0.1,0 0.1,0 0.1,0 0.1,0 0.1,0 0.1,0 0.1,0 0.1,0 0.1,0 0.1,0 0.1,0 0.1,0 0.1,0 0.1,0 0.1,0 0.1,0 0.1,0 0.1,0 0.1,0 0.1,0 0.1,0 0.1,0 0.1,0 0.1,0 0.1,0 0.1,0 0.1,0 0.1,0 0.1,0 0.1,0 0.1,0 0.1,0 0.1,0 0.1,0 0.1,0 0.1,0 0.1,0 0.1,0 0.1,0 0.1,0 0.1,0 0.1,0 0.1,0 0.1,0 0.1,0 0.1,0 0.1,0 0.1,0 0.1,0 0.1,0 0.1,0 0.1,0 0.1,0 0.1,0 0.1,0 0.1,0 0.1,0 0.1,0 0,7.2 0.1,0 0.1,0 0.1,0 0.1,0 0.1,0 0.1,0 0.1,0 0.1,0 0.1,0 0.1,0 0.1,0 0.1,0 0.1,0 0.1,0 0.1,0 0.1,0 0.1,0 0.1,0 0.1,0 0.1,0 0.1,0 0.1,0 0.1,0 0.1,0 0.1,0 0.1,0 0.1,0 0.1,0 0.1,0 0.1,0 0.1,0 0.1,0 0.1,0 0.1,0 0.1,0 0.1,0 0.1,0 0.1,0 0.1,0 0.1,0 0.1,0 0.1,0 0.1,0 0.1,0 0.1,0 0.1,0 0.1,0 0.1,0 0.1,0 0.1,0 0.1,0 0.1,0 0.1,0 0.1,0 0.1,0 0.1,0 0.1,0 0.1,0 0.1,0 0.1,0 0.1,0 0.1,0 0.1,0 0.1,0 0.1,0 0.1,0 0.1,0 0.1,0 0.1,0 0.1,0 0.1,0 0.1,0 0.1,0 0.1,0 0.1,0 0.1,0 0.1,0 0.1,0 0.1,0 0.1,0 0.1,0 0.1,0 0.1,0 0.1,0 0.1,0 0.1,0 0.1,0 0.1,0 0.1,0 0.1,0 0.1,0 0.1,0 0.1,0 0.1,0 0.1,0 0.1,0 0.1,0 0.1,0 0.1,0 0.1,0 0.1,0 0.1,0 0.1,0 0.1,0 0.1,0 0.1,0 0.1,0 0.1,0 0.1,0 0.1,0 0.1,0 0.1,0 0.1,0 0.1,0 0.1,0 0,9.3 0.1,0 0.1,0 0.1,0 0.1,0 0.1,0 0.1,0 0.1,0 0.1,0 0.1,0 0.1,0 0.1,0 0.1,0 0.1,0 0.1,0 0.1,0 0.1,0 0.1,0 0.1,0 0.1,0 0.1,0 0.1,0 0.1,0 0.1,0 0.1,0 0.1,0 0.1,0 0.1,0 0.1,0 0.1,0 0.1,0 0.1,0 0.1,0 0.1,0 0.1,0 0.1,0 0.1,0 0.1,0 0.1,0 0.1,0 0.1,0 0.1,0 0.1,0 0.1,0 0.1,0 0.1,0 0.1,0 0.1,0 0.1,0 0.1,0 0.1,0 0.1,0 0.1,0 0.1,0 0.1,0 0.1,0 0.1,0 0.1,0 0.1,0 0.1,0 0.1,0 0.1,0 0.1,0 0.1,0 0.1,0 0.1,0 0.1,0 0.1,0 0.1,0 0.1,0 0.1,0 0.1,0 0.1,0 0.1,0 0.1,0 0.1,0 0.1,0 0.1,0 0.1,0 0.1,0 0.1,0 0.1,0 0.1,0 0.1,0 0.1,0 0.1,0 0.1,0 0.1,0 0.1,0 0.1,0 0.1,0 0.1,0 0.1,0 0.1,0 0.1,0 0.1,0 0.1,0 0.1,0 0.1,0 0.1,0 0.1,0 0.1,0 0.1,0 0.1,0 0.1,0 0.1,0 0.1,0 0.1,0 0.1,0 0.1,0 0.1,0 0.1,0 0.1,0 0.1,0 0.1,0 0.1,0 0.1,0 0.1,0 0.1,0 0.1,0 0.1,0 0.1,0 0.1,0 0.1,0 0.1,0 0.1,0 0.1,0 0.1,0 0.1,0 0.1,0 0.1,0 0.1,0 0.1,0 0.1,0 0.1,0 0.1,0 0.1,0 0.1,0 0.1,0 0.1,0 0.1,0 0.1,0 0.1,0 0.1,0 0.1,0 0.1,0 0.1,0 0.1,13.1 0.1,0 0.1,0 0.1,0 0.1,0 0.1,0 0.1,0 0.1,0 0.1,0 0.1,0 0.1,0 0.1,0 0.1,0 0.1,0 0.1,0 0.1,0 0.1,0 0.1,0 0.1,0 0.1,0 0.1,0 0.1,0 0.1,0 0.1,0 0.1,0 0.1,0 0.1,0 0.1,0 0.1,0 0.1,0 0.1,0 0.1,0 0.1,0 0.1,0 0.1,0 0.1,0 0.1,0 0.1,0 0.1,0 0.1,0 0.1,0 0.1,0 0.1,0 0.1,0 0.1,0 0.1,0 0.1,0 0.1,0 0.1,0 0.1,0 0.1,0 0.1,0 0.1,0 0.1,0 0.1,0 0.1,0 0.1,0 0.1,0 0.1,0 0.1,0 0.1,0 0.1,0 0.1,0 0.1,0 0.1,0 0.1,0 0.1,0 0.1,0 0.1,0 0.1,0 0.1,0 0.1,0 0.1,0 0.1,0 0.1,0 0.1,0 0.1,0 0.1,0 0.1,0 0.1,0 0.1,0 0.1,0 0.1,0 0.1,0 0.1,0 0.1,0 0.1,0 0.1,0 0.1,0 0.1,0 0.1,0 0.1,0 0.1,0 0.1,0 0.1,0 0.1,0 0.1,0 0.1,0 0.1,0 0.1,0 0.1,0 0.1,0 0.1,0 0.1,0 0.1,0 0.1,0 0.1,0 0.1,0 0.1,0 0.1,0 0.1,0 0.1,0 0.1,0 0.1,0 0.1,0 0.1,0 0.1,0 0.1,0 0.1,0 0.1,0 0.1,0 0.1,0 0.1,0 0.1,0 0.1,0 0.1,0 0.1,0 0.1,0 0.1,0 0.1,0 0.1,0 0.1,0 0.1,0 0.1,0 0.1,0 0.1,0 0.1,0 0.1,0 0.1,0 0.1,0 0.1,0 0.1,0 0.1,0 0.1,0 0.1,0 0.1,0 0.1,0 0.1,0 0.1,0 0.1,0 0.1,0 0.1,0 0.1,0 0.1,0 0.1,0 0.1,0 0.1,0 0.1,0 0.1,0 0.1,0 0.1,0 0.1,0 0.1,0 0.1,0 0.1,0 0.1,0 0.1,0 0.1,0 0.1,0 0.1,0 0.1,0 0.1,0 0.1,0 0.1,0 0.1,0 0.1,0 0.1,0 0.1,0 0.1,0 0.1,0 0.1,0 0.1,0 0.1,0 0.1,0 0.1,0 0.1,0 0.1,0 0.1,0 0.1,0 0.1,0 0.1,0 0.1,0 0.1,0 0.1,0 0.1,0 0.1,0 0.1,0 0.1,0 0.1,0 0.1,0 0.1,0 0.1,0 0.1,0 0.1,0 0.1,0 0.1,0 0.1,0 0.1,0 0.1,0 0.1,0 0.1,0 0.1,0 0.1,0 0.1,0 0.1,0 0.1,0 0.1,0 0.1,0 0.1,0 0.1,0 0.1,0 0.1,0 0.1,0 0.1,0 0,21.9 0.1,0 0.1,0 0.1,0 0.1,0 0.1,0 0.1,0 0.1,0 0.1,0 0.1,0 0.1,0 0.1,0 0.1,0 0.1,0 0.1,0 0.1,0 0.1,0 0.1,0 0.1,0 0.1,0 0.1,0 0.1,0 0.1,0 0.1,0 0.1,0 0.1,0 0.1,0 0.1,0 0.1,0 0.1,0 0.1,0 0.1,0 0.1,0 0.1,0 0.1,0 0.1,0 0.1,0 0.1,0 0.1,0 0.1,0 0.1,0 0.1,0 0.1,0 0.1,0 0.1,0 0.1,0 0.1,0 0.1,0 0.1,0 0.1,0 0.1,0 0.1,0 0.1,0 0.1,0 0.1,0 0.1,0 0.1,0 0.1,0 0.1,0 0.1,0 0.1,0 0.1,0 0.1,0 0.1,0 0.1,0 0.1,0 0.1,0 0.1,0 0.1,0 0.1,0 0.1,0 0.1,0 0.1,0 0.1,0 0.1,0 0.1,0 0.1,0 0.1,0 0.1,0 0.1,0 0.1,0 0.1,0 0.1,0 0.1,0 0.1,0 0.1,0 0.1,0 0.1,0 0.1,0 0.1,0 0.1,0 0.1,0 0.1,0 0.1,0 0.1,0 0.1,0 0.1,0 0.1,0 0.1,0 0.1,0 0.1,0 0.1,0 0.1,0 0.1,0 0.1,0 0.1,0 0.1,0 0.1,0 0.1,0 0.1,0 0.1,0 0.1,0 0.1,0 0.1,0 0.1,0 0.1,0 0.1,0 0.1,0 0.1,0 0.1,0 0.1,0 0.1,0 0.1,0 0.1,0 0.1,0 0.1,0 0.1,0 0.1,0 0.1,0 0.1,0 0.1,0 0.1,0 0.1,0 0.1,0 0.1,0 0.1,0 0.1,0 0.1,0 0.1,0 0.1,0 0.1,0 0.1,0 0.1,0 0.1,0 0.1,0 0.1,0 0.1,0 0.1,0 0.1,0 0.1,0 0.1,0 0.1,0 0.1,0 0.1,0 0.1,0 0.1,0 0.1,0 0.1,0 0.1,0 0.1,0 0.1,0 0.1,0 0.1,0 0.1,0 0.1,0 0.1,0 0.1,0 0.1,0 0.1,0 0.1,0 0.1,0 0.1,0 0.1,0 0.1,0 0.1,0 0.1,0 0.1,0 0.1,0 0.1,0 0.1,0 0.1,0 0.1,0 0.1,0 0.1,0 0.1,0 0.1,0 0.1,0 0.1,0 0.1,0 0.1,0 0.1,0 0.1,0 0.1,0 0.1,0 0.1,0 0.1,0 0.1,0 0.1,0 0.1,0 0.1,0 0.1,0 0.1,0 0.1,0 0.1,0 0.1,0 0.1,0 0.1,0 0.1,0 0.1,0 0.1,0 0.1,0 0.1,0 0.1,0 0.1,0 0.1,0 0.1,0 0.1,0 0.1,0 0.1,0 0.1,0 0.1,0 0.1,0 0.1,0 0.1,0 0.1,0 0.1,0 0.1,0 0.1,0 0.1,0 0.1,0 0.1,0 0.1,0 0.1,0 0.1,0 0.1,0 0.1,0 0.1,0 0.1,0 0.1,0 0.1,0 0.1,0 0.1,0 0.1,0 0.1,0 0.1,0 0.1,0 0.1,0 0.1,0 0.1,0 0.1,0 0.1,0 0.1,0 0.1,0 0.1,0 0.1,0 0.1,0 0.1,0 0.1,0 0.1,0 0.1,0 0.1,0 0.1,0 0.1,0 0.1,0 0.1,0 0.1,0 0.1,0 0.1,0 0.1,0 0.1,0 0.1,0 0.1,0 0.1,0 0.1,0 0.1,0 0.1,0 0.1,0 0.1,0 0.1,0 0.1,0 0.1,0 0.1,0 0.1,0 0.1,0 0.1,0 0.1,0 0.1,0 0.1,0 0.1,0 0.1,0 0.1,0 0.1,0 0.1,0 0.1,0 0.1,0 0.1,0 0.1,0 0.1,0 0.1,0 0.1,0 0.1,0 0.1,0 0.1,0 0.1,0 0.1,0 0.1,0 0.1,0 0.1,0 0.1,0 0.1,0 0.1,0 0.1,0 0.1,0 0.1,0 0.1,0 0.1,0 0.1,0 0.1,0 0.1,0 0.1,0 0.1,0 0.1,0 0.1,0 0.1,0 0.1,0 0.1,0 0.1,0 0.1,0 0.1,0 0.1,0 0.1,0 0.1,0 0.1,0 0.1,0 0.1,0 0.1,0 0.1,0 0.1,0 0.1,0 0.1,0 0.1,0 0.1,0 0.1,0 0.1,0 0.1,0 0.1,0 0.1,0 0.1,0 0.1,0 0.1,0 0.1,0 0.1,0 0.1,0 0.1,0 0.1,0 0.1,0 0.1,0 0.1,0 0.1,0 0.1,0 0.1,0 0.1,0 0.1,0 0.1,0 0.1,0 0.1,0 0.1,0 0.1,0 0.1,0 0.1,0 0.1,0 0.1,0 0.1,0 0.1,0 0.1,0 0.1,0 0.1,0 0.1,0 0.1,0 0.1,0 0.1,0 0.1,0 0.1,0 0.1,0 0.1,0 0.1,0 0.1,0 0.1,0 0.1,0 0.1,0 0.1,0 0.1,0 0.1,0 0.1,0 0.1,0 0.1,0 0.1,0 0.1,0 0.1,0 0.1,0 0.1,0 0.1,0 0.1,0 0.1,0 0.1,0 0.1,0 0.1,0 0.1,0 0.1,0 0.1,0 0.1,0 0.1,0 0.1,0 0.1,0 0.1,0 0.1,0 0.1,0 0.1,0 0.1,0 0.1,0 0.1,0 0.1,0 0.1,0 0.1,0 h 0.01"
           id="path203"
           style="stroke:#000000;stroke-width:2;stroke-miterlimit:4;stroke-opacity:1;stroke-dasharray:6, 6;stroke-dashoffset:0"
           inkscape:connector-curvature="0" />
      </g>
    </g>
    <g
       style="color:#000000;fill:none;stroke:currentColor;stroke-width:0.5;stroke-linecap:butt;stroke-linejoin:miter"
       id="g205" />
  </g>
</svg>
